/* XPM */
static char *activator_rail[] = {
/* columns rows colors chars-per-pixel */
"64 64 14 1 ",
"  c #310000",
". c #4A0303",
"X c #620202",
"o c #513D24",
"O c #67502C",
"+ c #7E6237",
"@ c #686868",
"# c #72796E",
"$ c #967441",
"% c #A6824D",
"& c gray61",
"* c #ABACAB",
"= c gray75",
"- c None",
/* pixels */
"--------=*&&&&#@--------------------------------@#&&&&*=--------",
"--------=*&&&&#@--------------------------------@#&&&&*=--------",
"--------=*&&&&#@--------------------------------@#&&&&*=--------",
"--------=*&&&&#@--------------------------------@#&&&&*=--------",
"----%%$$=*&&&&#@        $$$$$%%%$%$+$$$$        @#&&&&*=$$++----",
"----%%%%=*&&&&#@  .. .. %%%$+++$%%%$++++  .. .. @#&&&&*=%%$$----",
"----+%%$=*&&&&#@ .XX.X  ++%%$$++++++++%% .XX.X  @#&&&&*=$$$+----",
"----%$$+=*&&&&#@ XXXX.  $$%%%$$+$$++%%$$ XXXX.  @#&&&&*=++++----",
"----++++=*&&&&#@ ..XXX. %%%$$$+$+$$+++++ ..XXX. @#&&&&*=++$$----",
"----%+%%=*&&&&#@ .X.X.X +%%%$$$%%%+$$$$+ .X.X.X @#&&&&*=$%%%----",
"----OoOO=*&&&&#@   .. . OOOOOOoOOOOOOOOO   .. . @#&&&&*=OoOO----",
"----oooo=*&&&&#@        oooooooooooooooo        @#&&&&*=oooo----",
"--------=*&&&&#@------------        ------------@#&&&&*=--------",
"--------=*&&&&#@------------  .. .. ------------@#&&&&*=--------",
"--------=*&&&&#@------------ .XX.X  ------------@#&&&&*=--------",
"--------=*&&&&#@------------ XXXX.  ------------@#&&&&*=--------",
"--------=*&&&&#@------------ ..XXX. ------------@#&&&&*=--------",
"--------=*&&&&#@------------ .X.X.X ------------@#&&&&*=--------",
"--------=*&&&&#@------------   .. . ------------@#&&&&*=--------",
"--------=*&&&&#@------------        ------------@#&&&&*=--------",
"----$$++=*&&&&#@        ++$+%+$$+$$$%%%$        @#&&&&*=+%%+----",
"----++$$=*&&&&#@  .. .. $$++%%+$$%$$$$$+  .. .. @#&&&&*=%$$$----",
"----+$++=*&&&&#@ .XX.X  ++$+++++%%%%++++ .XX.X  @#&&&&*=$+++----",
"----$$$+=*&&&&#@ XXXX.  $$%%$$$+%$$$$%%+ XXXX.  @#&&&&*=+$$$----",
"----+++%=*&&&&#@ ..XXX. +++%%%+$++%%++%$ ..XXX. @#&&&&*=+++$----",
"----%%%+=*&&&&#@ .X.X.X %%%%$$$$$%+++%%% .X.X.X @#&&&&*=$+%+----",
"----OOoO=*&&&&#@   .. . OOOOoOooOOOOOOOO   .. . @#&&&&*=OOOo----",
"----oooo=*&&&&#@        oooooooooooooooo        @#&&&&*=oooo----",
"--------=*&&&&#@------------        ------------@#&&&&*=--------",
"--------=*&&&&#@------------  .. .. ------------@#&&&&*=--------",
"--------=*&&&&#@------------ .XX.X  ------------@#&&&&*=--------",
"--------=*&&&&#@------------ XXXX.  ------------@#&&&&*=--------",
"--------=*&&&&#@------------ ..XXX. ------------@#&&&&*=--------",
"--------=*&&&&#@------------ .X.X.X ------------@#&&&&*=--------",
"--------=*&&&&#@------------   .. . ------------@#&&&&*=--------",
"--------=*&&&&#@------------        ------------@#&&&&*=--------",
"----$$++=*&&&&#@        ++$$%%++$%$%++$$        @#&&&&*=$$$+----",
"----%%$$=*&&&&#@  .. .. $$$$$%%%%%%$$$$$  .. .. @#&&&&*=$$++----",
"----+++$=*&&&&#@ .XX.X  +%%$$$%$$++%%$++ .XX.X  @#&&&&*=$+$$----",
"----$$++=*&&&&#@ XXXX.  $$+$+$++++$$+$$$ XXXX.  @#&&&&*=$%%%----",
"----+++$=*&&&&#@ ..XXX. ++++$$$$$$$%$$$+ ..XXX. @#&&&&*=$$$$----",
"----$+++=*&&&&#@ .X.X.X +$$$++%%%+$%++++ .X.X.X @#&&&&*=%%%%----",
"----oOOO=*&&&&#@   .. . ooOOOOOOOOOOOoOO   .. . @#&&&&*=OOoO----",
"----oooo=*&&&&#@        oooooooooooooooo        @#&&&&*=oooo----",
"--------=*&&&&#@------------        ------------@#&&&&*=--------",
"--------=*&&&&#@------------  .. .. ------------@#&&&&*=--------",
"--------=*&&&&#@------------ .XX.X  ------------@#&&&&*=--------",
"--------=*&&&&#@------------ XXXX.  ------------@#&&&&*=--------",
"--------=*&&&&#@------------ ..XXX. ------------@#&&&&*=--------",
"--------=*&&&&#@------------ .X.X.X ------------@#&&&&*=--------",
"--------=*&&&&#@------------   .. . ------------@#&&&&*=--------",
"--------=*&&&&#@------------        ------------@#&&&&*=--------",
"----%+%+=*&&&&#@        +++$$$+$$++++$$$        @#&&&&*=%%%%----",
"----+$$$=*&&&&#@  .. .. $+$++$$$$$$$%%%%  .. .. @#&&&&*=$$++----",
"----%+++=*&&&&#@ .XX.X  %$%$%%$+%$$%+++$ .XX.X  @#&&&&*=%%$$----",
"----$$$$=*&&&&#@ XXXX.  $$%%$$$+$++%%%$+ XXXX.  @#&&&&*=$++%----",
"----%%$+=*&&&&#@ ..XXX. $$+++$+$+$%+++%% ..XXX. @#&&&&*=$+%%----",
"----++++=*&&&&#@ .X.X.X +$+$%%+$$%%%%%%% .X.X.X @#&&&&*=+%%%----",
"----OOOo=*&&&&#@   .. . OOOoOOOOOOOOoooo   .. . @#&&&&*=OOoO----",
"----oooo=*&&&&#@        oooooooooooooooo        @#&&&&*=oooo----",
"--------=*&&&&#@--------------------------------@#&&&&*=--------",
"--------=*&&&&#@--------------------------------@#&&&&*=--------",
"--------=*&&&&#@--------------------------------@#&&&&*=--------",
"--------=*&&&&#@--------------------------------@#&&&&*=--------"
};
