/* XPM */
static char *allium[] = {
/* columns rows colors chars-per-pixel */
"64 64 12 1 ",
"  c #177C04",
". c #4A8F28",
"X c #529A2E",
"o c #55AB2D",
"O c #7B4EA0",
"+ c #9156C2",
"@ c #A65EE1",
"# c #B878ED",
"$ c #C38EF2",
"% c #D2A6F6",
"& c #E8CFFE",
"* c None",
/* pixels */
"****************************************************************",
"****************************************************************",
"****************************************************************",
"****************************************************************",
"****************************************************************",
"****************************************************************",
"**************************@#@#@@@O******************************",
"************************@##@###@#@@O****************************",
"**********************@@#%#%#$##@##@OO**************************",
"*********************@#$%#&$%%####@@+OO*************************",
"********************#%$%&%%&####$@@#@O@O************************",
"*******************#$#%%%&%%$#$##$%##@O@O***********************",
"******************%#%$%&%&%%%&%%#%@##@@+OO**********************",
"******************#%%#&%&%&%&&&###@@@#+O@O**********************",
"*****************%%%#%%&%&&&%&%%$##@#@O@O+O*********************",
"*****************%#%%%&&&%&&%%&##%@#@+@OO@+*********************",
"****************##%&%&%&%&%%&%%#@###@@+O@OO@********************",
"****************#%%%&&&%%&&%&&&##@@%@#O@+OOO********************",
"****************%#$%%&%&&%&&%&%%#@$##@OOO@OO********************",
"****************%%#$%%&&&&&%#%&%%#@###@O@+OO********************",
"****************$#%%%%&%&%%#%%##$###@#+@OOOO********************",
"****************##$%$&%&%&##%$####@@#@O+OOOO********************",
"*****************%#$##&%%##%$@%##@#@@O@OO@O*********************",
"*****************#%#%#%%#%#@##@#@@@#@@OO@OO*********************",
"******************@$$%##%$#%###@@@@@OO@+O@**********************",
"******************@@%##%#%%###@#@#@++OO@OO**********************",
"*******************O+@#@#@@@#@#@#@O+O@OOO***********************",
"********************O@+O@#@#@+##@OOOOO+O************************",
"*********************OO@O+@O+OO@O@O+OOO*************************",
"**********************OO@OO@OO+OOOOOOO**************************",
"************************O@OOO+OOO@OO****************************",
"**************************@OOO@O@O******************************",
"*****************************o.*********************************",
"*****************************X.*********************************",
"*****************************oX*********************************",
"*****************************X *********************************",
"*****************************X *********************************",
"*****************************o *********************************",
"*****************************X *********************************",
"*****************************X *********************************",
"*****************************X.*********************************",
"*****************************XX*********************************",
"*****************************X.*********************************",
"*****************************o.*********************************",
"*****************************o *********************************",
"*****************************X *********************************",
"*****************************X.*********************************",
"*****************************X *********************************",
"*****************************o *********************************",
"*****************************o *********************************",
"*****************************o *********************************",
"*****************************X *********************************",
"*****************************X *********************************",
"*****************************X.*********************************",
"*****************************X *********************************",
"*****************************o.*********************************",
"*****************************X.*********************************",
"*****************************o.*********************************",
"*****************************X *********************************",
"*****************************X *********************************",
"*****************************. *********************************",
"*****************************..*********************************",
"*****************************. *********************************",
"*****************************  *********************************"
};
