/* XPM */
static char *amethyst_block[] = {
/* columns rows colors chars-per-pixel */
"64 64 7 1 ",
"  c #64479E",
". c #5D3A9A",
"X c #7A5BB5",
"o c #8D6ACC",
"O c #A678F1",
"+ c #C890F0",
"@ c #FECBE6",
/* pixels */
" .  X XoOoXXXXX X  ...  XXO+@@@@@@@@@@++++++++OOoXX XXXXooXX    ",
".... XoOOooXXXXX  ... XXXXXoOOOOOOOOOOOOOOOOOOO XX .  XXX  XXX  ",
".  XXoOO+oooX XXXX . . XXXoXoOOooooooO........ X  XX..   XXX    ",
"  XXoOOO+ooooX  XXX   XXooXXXoOOoooooO....... X  XX  .. XX    . ",
" X oOOOO+oooooX   XXXoXoOOoXXooOOooooO...... XX..  XX XX   ...  ",
"  Xo+++++OOOOOXX . XoooOO+ooXoooOOoooO..... X XX .  oOX  ....   ",
"   XoOOOOo   XX.. XoXoOOO+oooXoXoOOooO.... X   XX XoOOoX X. .   ",
"   XXoOOOo  X .. XoooOOOO+ooooXoXoOOoO... X  .  XXoOOOooXX ...  ",
"  . XXoOOo XXX  ooooOOOOO+oooooXXXoOOO.. X  . XXXoOOOOoooX  ... ",
"   . XXoOoXX   XXooO++++++OOOOOoXXXoOO. X  ..  XoOOOO+ooooXX  ..",
" ..   XXoXXXX    XoOOOOOOo      XXXXoO X  ...XXoOOOOO+oooooXX.  ",
".. ....    XXX  . XoOOOOOo     XXX XXoX  ... XoOOOOOO+ooooooX   ",
"    ..   XX   ..   XoOOOOo    X     XX    .  oOOOOOOO+ooooooo  X",
"  ... . XoXX   ..   XoOOOo   X  .  XX X.   XXO++++++++OOOOoooXX ",
"...    XoOoXXX   . . XoOOo  X .. XX XX  .   XXoOOOOOOO      X . ",
"..   XXoO+OoX   ...   XoOo X ..  XoOX  ... X XXoOOOOOo     X ...",
"  . X oO++OOoXXX .     XooX ..  XoO+oX X .    X oOOOOo    X    .",
" . XXoO+++OOOoX    ..   XX    .XoOO+ooX    .   XXoOOOo   X   .  ",
"  XXoO++O+OOOOoX X   ...  .. XXoOOO+oooXXX  ..   XoOOo  X . ....",
"XXXoO++OO+OOOOOoX   ..   .. XXoOOOO+ooooX  ..   X  oOo X   ...  ",
"XXoO++OOO@+OOOOOoX X ..    . oOOOOO+oooooXX  ..     ooX  ...  . ",
"XoO++OOOO@+OOOOOOoXX  ..   XXO++++++OOOOO X   ..    XXX . ...   ",
"oO++OOOO+@+OOOOOOOoXXX  ..  XXOOOOOo    XX  . .      X ....     ",
"O++OOOO++@++OOOOOOOoX  . ... XXOOOOo   XX  ...   .    ....     o",
"+++++++++@++++OOOOOOoX XX . X XXOOOo  XX .... ..  ...   ....  oO",
"+@@@@@@@@@+++++++OOOoXXX   . XXXXOOo XX   .    .....  .   .   XO",
"OOOOOOooo+          X X  XX   XXXXOoXX   .XX X   . .... X  . XXX",
"XOOOoooooO   .....     XXoXX    XXXXX   XXoOX   ..   . . X ..  X",
"XXOooooooO  .....   XXoXoOoXXX .  X   XX ooOoXXX ..   X XXX ..  ",
" XXooooooO  .... X XXoXooOooX .... X   XoooOooX   ..   XoOXX  . ",
" .  oooooO .... X XoooooO+oooX ..    XXooooOoooXX . XXXoO+oX X  ",
"X .XXooooO ... XXoooXooOO+ooooX  .  XXXOOOOOooooXX . XoOO+ooX   ",
" X   XoooO .. XooXoXooOOO+oooooX    X XXoooo    XX  XoOOO+oooXX ",
"  XX ooooO . XooXXXooO++++OOOOooXX   XXXXooo   XX  XoOOOO+ooooX ",
"X  XooXXoo  XooXoXXoooOOOOXXXX XX ..   XXXoo  X ..XoOOOOO+oooooX",
"XX .XXooXo XXXXoOOoooooOOOXXX XX .....  X Xo XX.. oOOOOOO+oooooo",
" X.  ooooXXooooOO+ooooooOOXX X  . ... .. X XX .  XO+++++++OOOOOO",
"X...  XXooooooOO++OoXoXXoOX .  .  OX.....   XX  X XOOOOOOooooooX",
"  ... XooooooOO+++OOoXoXXo   ..  OOoX....  X .   XXXOOOOOo    XX",
" ... XooooXoOO++++OOOoXXXX ... XOO+ooX..  X   ... .XXOOOOo   XX ",
"..  XooooXoOO+++O+OOOOoX  ...  OOO+oooX XXXXXX ...   XOOOo  XX  ",
" . oXooXXoOO+++O++OOOOOoXX ..XO++++OOOOX XoOX   .   XXXOOo XX   ",
". XoooXXoOO+++OO++OOOOOOoXX ..XOOOOXXXX XoO+oX XX      XOoX   . ",
" XoooXXoOO+++OOOO+OOOOOOOoXX  .XOOOXXX XoOO+ooXX   .  X XX   .  ",
"XoXXoXoOO+++OOOOO@+OOOOOOOoXX   XOOXX  oOOO+ooo  X  ..   XX ....",
" XXoXoOO+++OOOOOO@+OOOOOOOOoXX X XOX XoOOOO+ooooX X.... XX .... ",
" . XoOO+++OOOOOO+@+OOOOOOOOOoXX X X XoOOOOO+ooooo   .   X X . XX",
". XoOO+++OOOOOO++@++OOOOOOOOOoXXXXXX O++++++OOOOOXX    .  XX  X ",
" XoOO++++++++++++@++++OOOOOOOOoX XX XXoOOOOO    XX   ..    XXX X",
"X XO++@@@@@@@@@@@@+++++++++++OOoX  XXXXoOOOO   XX   ..   XXX    ",
" XXXOOOOOOOOOOooo+               X  .  XoOOO  XX ... XX XooXX  X",
"  XXXOOOOOOOOoooo+     ......... X   ..  oOO XX   .   XXo+Oo    ",
" . XXXOOOOOOooooo+   .......... XX XXX... oOX        X o+@OOo XX",
"X . XXXOOOOoooooo+  .......... X  XXooX. . X X  ..  XXo++@OOOo X",
"XX   XXXOOoooooooO  .........   .XXoO+oX.     ... XXXo+++@OOOOoX",
"XXX XX XXOoooooooO .............oXoOO+OoX X  ...   Xo++++@OOOOOo",
"XXX  X  XXoooooooO ........ ...oXoOO++OOoXXX  .  XXo+++++@OOOOOO",
"XX       XXooooooO ....... ...oooOO+++OOOoX    .X o+@@@@@@++++++",
"XX ..  ..  XoooooO ......   .oooOO++O+OOOOoX X   XO++++++Ooooooo",
"X . ... .... ooooO .....  .. XoOO++OO+OOOOOoX   XXXO+++++OoXXXXo",
"   ...   .. XXoooO ....  .. XoOO++OOO@OOOOOOoXXX X XO++++OoXXXoX",
"X ...  XX .. XXooO ... XX XXoOO++OOOO@OOOOOOOoX ..XXXO+++OoXXoX ",
"  .. XXooX    XXoO .. XX XXoOO++OOOOO@OOOOOOOOoX .. XXO++OoXoX  ",
" ..   XXooX XX XXo   XXX XoOO++OOOOOO@+OOOOOOOOoX  . XXOOOooX   "
};
