/* XPM */
static char *andesite[] = {
/* columns rows colors chars-per-pixel */
"64 64 12 1 ",
"  c #696C69",
". c #737572",
"X c #7D7F7C",
"o c #838582",
"O c #878589",
"+ c #8C8A8E",
"@ c #8C8E8B",
"# c #918F93",
"$ c #94948C",
"% c #949693",
"& c #9A9D99",
"* c #A5AB9A",
/* pixels */
"@@@o@O@XX&@@@@@@@O++oOOOO+oXXXoX.+O+&&@@@+XXO+#+O+O+OO#+O#XXOOOO",
"@O@@X@@@@@*&%@@@@@@o@@@o+XX .@@O#@%%&*&%%O+ X++++O@@@O@@Ooo.o@OO",
"Oo@@@@o@$$@+O#o@oO@@#+oo.o@oOO@@@@@@@&%+##+X .X@@@O@#@@o@@@@+##O",
"OoX@@$$$@@@@OX#O#@##O+Xoo@OO##%&@@$@O@+o#+#+ooXooOo#@@oXXX@oO@@O",
"Xoo@$&&#%O#O@OXX##%+OXOo@@@@o@@$$$&@@@oO#O#OOoo...X.X XooXoXoO#O",
".X*$@OO%%#OO@@OXo@@%o##OOo@@@$$*@&*%oo#+OOOOoo  o.   oXoooX.OO+O",
"Xo$@%O@OO#@@@@@@@oX@@@%#oo@@$$$@&@ooOO#OOooX .o... X&&@*ooXO#ooO",
"o@$&@@%##OooOO+%@@X.&&O@+&*$$@&%%oOO#O#+XXX o&&*%&**&*&&X@XoooX.",
"X@@*&#%O###o#++%%&&&.X&&$$&*&%%%++++Xo. X   $@$&%%@@@@@@@XX@ooX@",
"@@.X$@+o%++oo#+oo%+&&X.&&@@&+%++ oo.o. X  X**$%@OOOO@@@@@@@XXo@O",
"@.o..X@@%oo#oo##oO#%&&XXX@@@O o ooXXXXO$$*$&@@+%O@O@@@@OoXoo.XOO",
"@&....  .Xooooo##oo@#%@@@+X@@. &.X&&*$$*$$@O%%%#oO@@O&@@XO##XX..",
"%&&&&.oX..o @@oo++O@@@@@%@&&@@@&@@$$&*@@%%%%#OoooO@O&&o.O#OoXXo@",
"@%@%&*@@@X..@.@@o%OO@o@@OO%@@&&@@@@%%@@O@+Oooooo#oO&%X.X#+oo.o@+",
"OO@@%@@@@@@@XX .@.ooOOo@@O@%@@%%#@@@@#O##Oo#o##OO#&@Xoo#+ooX.&@O",
"O@@O@@@@*@@*@oX. . oOo@o@@O@@@@OO#@O@@oo#ooo##Ooo@%&. o#oXX.&@+O",
"O#O+OO%+@@*$@@$&&oo. Xoo@O#Ooo+oOOOoo@@@oo#OO@oO@@O@.X  ..&@@&+#",
"++#O#%O%%@@@@@*$&*&.. X Xo++O#+#oooooo@O@@oO@o@@@@@X  ..@o@%@OO+",
"XOO+#o#@O+#@%%%**$*@oXXX..X .Xo+##+OO++O@O@@@@@@OX   o&&@@@@OOOO",
"XXOoOOoo##%+#@OX@*&*ooXXX@. .XooooooooOOOoO@@o#XoXX.&&&@o@+@@@O@",
"OXXoo#O@@OO#OX.O@@@@@@X@@@oooX.X...oooooooo+XXX X.o@*@%oo++oo@@X",
"@O@+@o@@O@oOXXO@OO@@@@@@O@%@@@o@XXXX.XoX XXX  .XX@&*@@o#+#o##X@#",
"O@@@@@oo#OOooo##OoOo@+o.oo@@@@@@@X. XXX.o   X&oo%%&++oo+#oOO+XOO",
"#O@O##++OoXXo+O#ooo#%@@X +oO@@@@@@XX..oo &**&*&+%%+#o#+ooO+OOOXO",
".XOooO#Oo@@@OO@oooO@@@@@X.ooOo@@X@o@oo*$$$*&+#%%+###++oo#+#OOOOX",
"O.XOOoooo.o@@@@@o@@@@@@@XXXooo ..o@@@$**%@%%%%#@##@@ooo#@#@++OO+",
"OX.X+#o+X.+@O@oO@@@@@$$o.XXXXX.ooX*&**$O%#++##@#@@@O@@@@@+OOOO+O",
"@O..XooX.+%#oo@@O@@$$@oXXXXX..@@*&&+@@%#++#ooo#X+OOO#@O@O++OO+#O",
"OoO.XXX X++&o%&%%$$&&oo XX.@&***&++@O##OOooo+#X.+####OOo#oo#OO+&",
"#ooOO.X X+%o&&&**&oX  .X&*@***%*&OOO##+###OO#+X++###O+oooO##++&@",
"+Ooo#+..ooo+%%*&X.X XX.*&***%++&$&@+O#OO+o#OOOo+#+O#oo#O+++O&@$O",
"O#o#oo.X+oo+o  ... &  .&*$$@%+OO&@&&O@oooo++##XXO#Oo##++.&@$$$OO",
"#+oOOo@@Xoo  X.o&&&&XXX&$*@+#OOOO%%@@@@@@OOO@@@o@O+++OX.@@*$%@@#",
"+Ooo@@@oo.X..o&%&%%&&.oX&**@@@@@#@OO@@@@++O##O@@XoXXXX&@$$&#%+++",
"OO@@@OO+@.Xo@@%%%@@@@@o X&@@@@@@@@@@++@+&O++O+ XoXX@@&&@*@O#+OOO",
"O@@O@@o@@@@o@@@+Oo@@@@@X..X@@@@+#OO+#O++OX.XX X.O$@@@@@@@##+@#@@",
"@@OOOo.OO+@@@@@o@@@%@%@&X...@&&+@@@@@OO@@@..@@@O$@@@@@@@O@O@@@@o",
"OO@#oX.#O@@@+@o@@O+%%&&&@@@o@..@@X@@@@X.X@X@@@$@$@@@%@@OO@@@o@O#",
"#O#++.X+&+@++##+%#@+@@%@@o@@@@XX.@@X.. .@@@&@$@@@@@++#@@@@@oXX+#",
"++#Oo#.XOO+OOoO&OOO@@O@@@&@@o@@@Xo..&&&***&&&@@@@OOO#O+o@OO#X.#O",
"+#X+ooo.oOOOo%&@%+@+%o#%%&oX   oXX*****$&&&@@%&@O%#O#oo#+##o.+##",
"XX+###o+XXoo+&@+#+#ooo@@Xoo  .X.&***&&@@@@%%&#%%OO#ooo##o#oo.+##",
"X###++oooX.+@%+%##oo@ooo  X..  .XX&**@@O@@@@##O+ooo++##ooooXXX..",
"+##+oooO.oX&%%%Ooo+oX.X.X.oo&*   X.X$$@@@@@#OOOO##++#oOooX@.X.X+",
"OO+o@@@Xo@&&%+ooOOOo.XoXX$***&$$@XXX.@$@OOO@@O@OO++#o@o....@OOOO",
"Oo++.o@@@@@@+O##OXX..oo$**@@@@@@$@@@@@@oo&@ooo@#@O@o@@o.XO@@@O@O",
"+.. .@@$@%%+OOOXXX.@@o$@@O@@@@@@@@@$@X.X@@oo+++OX@X@@. +++OO@@@@",
"..Xo@$$@%%O@#XXXoooo@@@@@@@@#Oo@@@+@@*@@..X@@oXo@@@@. ++##+OO@O@",
"@X@$**+@O@%OXooo&@@@O@@@@ooXo#Oooooo++ooXX@@..@@o@..X++##++#+OO.",
"@@$@@%%%@OOX+o@@@@@Ooo@oO++oXX+#o##oo%%+#XoX@@@X. .+++##+##++# X",
"&*@@@@#O@O#+#&&&@@@@@@o###+#oXXXOOO#oo#ooo#ooo...o.X+##+OO#+OXX.",
"$*%%O#@OO+#O&&##%+O#OOOooo#+++#XXXoO++@#@@%+##.    ooooOooooXX &",
"@O@+#OOO@@O@OO@+%###oo##@@@o#o#%%&&oX***+@O#O++ooo  ...XXXX   @*",
"@@O@@O@@O@@oOOoo+##+@o@@@@OOOO&%&****@%++#Oo##o#+ooooX     XX@$@",
"O@@@O@@#++ooOOXo##@OO@@O@OO@@@@@***+%%OOOoo#ooo+##oO..X.O#O@@$&@",
"@O@O@@#+O##oo++.o&%%@OOoO@@@@$@$@@O%OO##oooo###oooo..@.@$@@$@@@+",
"O@OOOoOOOOOO+++#oo@&%%%%@@@@@@O%%%@O##oo##oOOO@@OO.@@X$*@$$*@O@@",
"OO+#Oo####OOOO#+ X@@&&@&*@@@%+%%oo+#ooOo#OO@@oo@@@XX@@@@***&@@@O",
"O+#+oo#OO##O#+OO@@oX@@@&%+%%@OooO@ooOXXoo@@@ooX.X@@@@@&*@@@@@@OO",
"##OOX#OO##++OO@XX@XoX@%@@O@@o@O@@oOO@X@X@@oOOX .$@*@*&*@@*@@@OXO",
"OO+@OOO@@O+#+..X@oO.X XO+#OO@@@o@@+..@@@@XXX.@X@&*@O@&%%&&*&@X+O",
"@@@XOO@@OOOO  #OoOOO+Xoo+###Oo#++...@@OO@X@.@@@@@#%@&%o%&#%%XXO#",
"@O@@O@@O@@O Ooo+#@@+##+@XO@#+++.XX.##OO@OO@@@@@@@O%#oo#&O%%+X+#O",
"OXX@@@OOO@@oOOOo@o#@O@OOOXOO#+XXX+OO+#@O@@OX@@@@@+oooOO#%OOXXO#O"
};
