/* XPM */
static char *anvil[] = {
/* columns rows colors chars-per-pixel */
"64 64 7 1 ",
"  c gray24",
". c gray26",
"X c gray29",
"o c gray32",
"O c #5A5A5A",
"+ c #4B4B4B",
"@ c gray22",
/* pixels */
"        ....XXXXXXXXooooooooooOOOoooooooooooooooooXXX....       ",
"        ...XXXXXXXooooooOOooOOOOOOOOooooooooooooXXXX.X..        ",
"      .. .XXXXXXoooooooOoOOOOOOOOOooOOOooooooooXoooXX.. ..   .  ",
"  . ....XXXXXXoXooooooooOOOOOOOOOoOOOoooooooooooooooXX..... .   ",
"  .....XXXXXooooXooooOOOOOOOOOOOOOOOooooooooooooooooooXX....    ",
"   ..X.XXXXXooooooooOOOOOOOOOOOoOOoooooooooooooooooooooXX.....  ",
"  ....XXXXXoXooooooOooOOOOOOOOOOooooooooooooooooooooooXooX..X.  ",
"  ....XXXXXXXooooooooooooOOOOoooooooooooooooooooooooooooooXX... ",
" .. .XXXXXXXXooooooooooooooooooooooooooooOOoooooooooooooooX.... ",
"   .XXXXXXXXXXooooooooooooooooooooooooooOOOOOoooOoooooooooX.... ",
"  .X.XXXXXXXXXXoooooooooOoooooooooooooOOOoOOOOOOoooooooooXXX..  ",
" .....XX.XXXXXXoooooooOOOOooooooooooOOOOOOooOOoooooooXooXXX...  ",
"    ....XXXXXXXooooooOOOooOoooooooOOOOOOOOOOooooooooooXXX....  .",
"  .....XXXXXXXXXooXoooOooooooooooOOOOOOOOOOOooooooooXoXX.X... ..",
" ...XXXXXXXXXXXXXXoooooooXoooooOOoooOOOOooooOooooooXXXXoXXX. ...",
"..XXXXXXXXXXXXXXXXoooXooXoooooOOoooooOooooooooooooooXXoXXX......",
"XXXXXXXXXXXXXXXXXXXoooXXXoooooooooooooooooooXoXooooXooXXX..X..X.",
"XXXXXXXXXXXXXXXXXXXXoooXXXooooooooooooooooXXXXooXXXXXXX..XXXX.XX",
"XXXXXXXXXX...XX.XXXXXXXXXoooooooooooooooXooXXoXXXXXXXXXXXXXXXX.X",
"XXXXXX..XXXX..  .XXXXXXXoooooooooooooooooXXXXXXXXXXXXXXXXXXXXXXX",
".XX....XXXXXXX.. .XXXXXX+ooooooooooXXoXXXXXXXXXXXXXXXXXXXXXXXXXX",
"...X..XXXXXXXXXX.....XXX++ooXoooooooXXoXXXXXXXXXXXXXXXXXXXXXXXXX",
" ......XXXXXXXXXXX.  .XXXX++ooooooooooXXXXXXXXXXXXXXXXXX.XXXXX.X",
" ... .....XXXXXXXXXX...X.X.oooooooooXXXXXXXXXXXXX.XX..X....XX.X.",
"  . ....XXXXXXXXXXXXXX....XXooooooXXoXXXXXXXXXXXXX...X..  ......",
"    ...XXXXXXXXXXXXXXX...XXXXXoooXXXXXXXXXXXXXXXXXX......     ..",
"   ...XXXXXXXXXXXXXXX......XXXXXXXXXXXXXXXXXXooXXXXX.......  @ .",
"   ...XXXX.XXXXXXXXX........XXXXXXXXXXXXXoXXooooXXXX........  @ ",
"    ......XXXXXXXXXXXXXXX....XXXXXXXXXXXXXooooooooXXX...  .   @@",
" .    ..XXXXXXXXXXXXXXXX.XX...XXXXXXoXXXooooooooooooXXX..    . @",
"  ....   ...XXXXXXXXXXXXX.XX...XXXXXXooXXooooooooooXoXXX.....  @",
"   .... . XXXXXXXXXXXXX.XX.....X.XXXoooooooooooooooooXXXXX..    ",
" ..  ...XXXXXXXXXXXXXXXX........XXXXXXooooooooooooooXXoX. ....  ",
"  .......XX.XXXXXXXXXXXXXX......XXXXXXXooXooooooooooooXXX.X.X.  ",
"    .... ..XXXXXX.XXXXXXXXX......XXXXXXXXoooooooooooooooXXXX.  @",
"@   ..  ....XXX..XXXXXX.XX.X.....XXX.XXXooooooooooXooooX.XX. @  ",
"@@     .........XXXXXXXX..........X.XXXXXoXooooooXoooXXXX..   @@",
"@@@ @ ....X...XXXXXXXXXXX...........XXXXoXXXXoXoXXXoXXXX....  @@",
"@ @@  .....XXXXX.XXXXX.............XXXXXXXXXoooXXXoXXX... ...  @",
"      ......XXXXX..XX........ ....XXXXXXXXXoooXXXoXX.XX. ..     ",
"@    . ...XXXXX.XX.........    ....X.XXXXXoXXXXXXX.....    .    ",
"@      ..X.X......XX......   .......XXXXXXXXXXX.XXX.            ",
"@       ......  .......     .....XX..XXXXXXXXXXX...X..    @ @   ",
"@@        .....  .....   ......XXXXXX.XXXXXXXXXXXX.....    @@   ",
"@@@  @   .  .....  .    .....X.XXXXXXXXXXX..XX. .    . .    @@ @",
"@@@@@ ....... ..  ..    ...XXXXX.XXXXXXXXXX...   ..    ..   @@@@",
"@  @   .......         ..XX.XX..XXXXXXX....X......         @  @@",
"@@       ...            .... ..XXXXXX..X. ... ..       @     @@@",
"@@@ @   .  ..     @      .. .. .X..XXX. ..  ..  .       @@@ @@@@",
"@@@@@@       .     @@@      . ....XX...  ..              @@@@@@@",
"@@@@@@           @@@@@@@  @    ......          .    @ @@@ @@@@@ ",
"@@@@ @              @@@@@@ @  ......         ..      @@  @@@@  @",
"@@@   @@   ...     @  @@@@@@@@            ....  .  ...   .  @@  ",
"@@ .     .... .        @@@@@@       . .     . .. .... ...  @    ",
"@@  ... . ....    ..    @ @@@@     ...  .  ........    ...      ",
"@@    ..  . .  ..  ....     @@@@     ...  ........  ....     @  ",
"@@@ @      .... ... ....       @@   ......  ........          @@",
"@@@@      ............ ...       @..X........... ...       @   @",
" @@@@@@   . ...........    ..X...XX..XX..X.X.....   .   @@  @@@ ",
" @@@@@@@    ..  .....X... ....XXX.....XXXXX..X.....  .   @@  @@@",
"   @@@  @@    ........XX....XXXXXXX.....XoXXXXX.. ..       @@ @@",
"    @@@    .........X..XX.XooXooXXoXXX.XoooXoX....      . .  @@@",
"   @  ............X..XXoXXXXooXXooXoXXXXoXooXXX.X. .   ...     @",
"        .........XX.XXoXXXoooXXooooXXoooooXXoXXX......  .       "
};
