/* XPM */
static char *anvil_top[] = {
/* columns rows colors chars-per-pixel */
"64 64 6 1 ",
"  c gray22",
". c gray24",
"X c gray26",
"o c gray29",
"O c gray32",
"+ c None",
/* pixels */
"++++++++++++XXXXXXooX.XXXXXX.XXXXooXXXoXX.XXoXXXX...++++++++++++",
"++++++++++++XXXooooXXXXoooX.XXoooOooooooXXooooX.oXX.++++++++++++",
"++++++++++++X..XoooooXooXXXoooooOOOOOoOoooooX..oooXX++++++++++++",
"++++++++++++XXo.XooooooXooooooOOOOOoOOooooXX.XooooX.++++++++++++",
"++++++++++++.XoooXooooOOoooOOooOOOOOoooooXoooooooX..++++++++++++",
"++++++++++++.XXooooooooOOoOOOOOoOOOOOOoooooooooX..o.++++++++++++",
"++++++++++++XXXooooooOoOOOOOOOOOOOOOOOOOooooooooXooX++++++++++++",
"++++++++++++X..XooooOOOoOOOOOOOOOOOOOOOOOOooOooooooX++++++++++++",
"++++++++++++.X..XoooooOOOOOOOOOOOOOOOOOOOOOOoooooooo++++++++++++",
"++++++++++++.XoX..XoooooOOOOOOOOOOOoOOOOoooooooooooo++++++++++++",
"++++++++++++.XoooX.XXooooOOOOOOOOOOOoooooooooooooooX++++++++++++",
"++++++++++++.XXooooo.XoooooOOOOOOOOooooooooooooooooX++++++++++++",
"++++++++++++ .XoooooooXoooOOOOOOOooooooooooXXooXooXX++++++++++++",
"++++++++++++ .XXooXoooooooOOOOOOooooooXooXXXXXooXXXX++++++++++++",
"++++++++++++ . .XXooooooOOoOOOOOOooooooXXXXX..XXoXX.++++++++++++",
"++++++++++++  .XXooooOoooOOOOOOOOoooooXXXXoXX..XXXX.++++++++++++",
"++++++++++++ .XoooooOOOOOoOOOOOOOOooooooooXXXXX..X..++++++++++++",
"++++++++++++ XooooooOOOOOOOOOOOOOOooooooooooXXXX....++++++++++++",
"++++++++++++ XoooXoXooOOOOOOOOOOOOOoooOooooooooXX...++++++++++++",
"++++++++++++ .oXXXX.XoooOOOOOOOOOOOoOOoooooooooooX..++++++++++++",
"++++++++++++..X. ..XXXoooooOOOOOOOOOOoooooXXoooooo..++++++++++++",
"++++++++++++..  ..XXooXoooooooOOOOOOoooooooX.XooooX.++++++++++++",
"++++++++++++  ..XXXooooooooooOOOOOooooooooooXXXoX.X.++++++++++++",
"++++++++++++ ..XXXXXooooooooOOOOOOOooooooooooooX.X..++++++++++++",
"++++++++++++..XoXoooooooOOOOoOOOOOOoOOOOooOOooooXo..++++++++++++",
"++++++++++++..ooooooooOOOOOOOOOOOOOOOOOOOOOOOOoooo..++++++++++++",
"++++++++++++..ooOoOOOOOOOOOOOOOOOOOOOOOOOOOOOOOOoo..++++++++++++",
"++++++++++++.XoooOOoOOOOOOOOOOOOOOOOOOOOOOOOOOoOoo..++++++++++++",
"++++++++++++.XoooooOOOOOOOOOOOOOOOOOOOOOOOOOooooo..X++++++++++++",
"++++++++++++.XXoXoOOOoOOOOOOOOOOOOOOOOOoOOOOOOoX.XX.++++++++++++",
"++++++++++++..XXoOoooOOOOOOOOOOOOOOOOOOOooooooXXXo. ++++++++++++",
"++++++++++++..XoooooOoOOOOOOOOOOOOOOOOOOOoooXXoooo..++++++++++++",
"++++++++++++ .oooooOOOOOOOOOOOOoOOOOOOOooooooooooX.X++++++++++++",
"++++++++++++ XooooOooOOOOOOOOOOOoooOooooooooXoooX.XX++++++++++++",
"++++++++++++ XooOooOOOOOoOOOOOOOOOoooooooooooXX..X. ++++++++++++",
"++++++++++++ .ooOOOOOOooOOOOOOOOOOOOooooooXX.X..o. .++++++++++++",
"++++++++++++ .XooOOooooOOOOOOOOOOOOOOOooooooooXoX..X++++++++++++",
"++++++++++++ .oXXoooXoOOOOOOOOOOOOOOOOOOOooooooXo.XX++++++++++++",
"++++++++++++..XXooXXoOooOooOOOOOOOOOOOOOOOOOoooooXXX++++++++++++",
"++++++++++++ ..XXXXoooooooOOOoOOoOOOOOOOOOOOOoooooXX++++++++++++",
"++++++++++++  ..XXXX..XooOOoooooooOOOOOOOOOOOOOOooX.++++++++++++",
"++++++++++++  ...XXXXX.XXooooooooooOOOOOOOOoOOooooX.++++++++++++",
"++++++++++++ ..XX.XXXXooooooooooOOOoOOOOOOOOooooooX.++++++++++++",
"++++++++++++ ..XXXXoXXooooooooOOOOOOOOOOOOOOOoooooX.++++++++++++",
"++++++++++++. .XXXXXooooooooOOoOOOOOOOOOOOOoooXoXoXX++++++++++++",
"++++++++++++..XXXXXoooooOoOOOOOOOOOOOOOOoooXoX.X..XX++++++++++++",
"++++++++++++...XXooooooooOOOOOOOOOOOOOooooooXXoXX...++++++++++++",
"++++++++++++.XX.XXooooooOOOOOOOOOOOOooOOOOoOoooooX..++++++++++++",
"++++++++++++XXXXoXXXoooOoooOOOOOOOOoOOOOOOOooOoXX.X.++++++++++++",
"++++++++++++X.XXooooXoooooooOOOOOOOOOOOOOOOOOOooXX..++++++++++++",
"++++++++++++.XXoooooooooOOoooOOOOOOOOOoOOooOOooXoo. ++++++++++++",
"++++++++++++.XXoOoooooOOOOOOOoOOOOOOOOOoooOOooooXX..++++++++++++",
"++++++++++++XXoooOoooOOOOOOOOOOOOOOOoooXoooooooXX.. ++++++++++++",
"++++++++++++XXoooOOOoOOOOOOOOOOOOOOOOOOOXXXooooooX. ++++++++++++",
"++++++++++++XXooooOOOOOOOOOOOOOOOOOoOOoooX.XoXooX. .++++++++++++",
"++++++++++++XXoXooooOOOOOOOOOOOOOOOOooooooX..XXoX...++++++++++++",
"++++++++++++XXXoooooooOOoOOOOOOOoOooOooXoooX..XX.X. ++++++++++++",
"++++++++++++XXXooooooOOoOOOOOOOOOoooooooXX..XXoX.X. ++++++++++++",
"++++++++++++.XoXoooXXoooooOOOooOooooooooooXXooX.... ++++++++++++",
"++++++++++++..XoXXXXooooooooooOoooooooooooooXXXX... ++++++++++++",
"++++++++++++ .XXXXXoooooXooooXoooXooooooXXXXoXX.X.. ++++++++++++",
"++++++++++++  .XXXXXXoXXooooX.XXooXXooXXoXXXX..X..  ++++++++++++",
"++++++++++++    ...XXX.XoXX..XXXX..XXXX.X.. . ....  ++++++++++++",
"++++++++++++      ..X...XoXX..XX.X..XXXX..   ...    ++++++++++++"
};
