/* XPM */
static char *azalea_plant[] = {
/* columns rows colors chars-per-pixel */
"64 64 11 1 ",
"  c #44300F",
". c #4C3817",
"X c #5B441C",
"o c #495E27",
"O c #42552D",
"+ c #6A5227",
"@ c #50692C",
"# c #647233",
"$ c #70922D",
"% c #6C8031",
"& c None",
/* pixels */
"@o%###@@@@o@@#%%%$%o#%$%%%o@#%$$%%$%%%%%##o@####@@ooooo@@##%%$$%",
"#@#%%###@oo@#%%%$$o#%$$$%%o@#%%$$$%%%%###@o@#%%#%#@@oo@@##%$$%#@",
"%#@#%%%##o@##$%%$%o%$%$$%#oo%#$%##%%$%%##o@%%$$%%%%@@o@@#%$$%@@#",
"%##@#$%%#@o#%$%$%##$$%%$%#o@%###%$$$%%##@o##%%$$%$%#@o#@#$%%@#%%",
"%$#@@%$$%%@#%$%$%#%$$%$%%o@#$%#%$$$%%##@o@%##%$$$$%##o#%#$%##%%$",
"$$@@#@#%$#@@%$$$%#%$%%$%%@##$%%#%%$$##@@o@$%%#$%$%$%@o#%$$%#%$%%",
"$%@#%#@#%##@$%$$#%$%%$$%@##%%$%%##%#@@#@o#$$%%#%$%$%o@%$$%#%$%%$",
"%#@%%%@#%%#@%%$%#$$%$$%%@##%%$$%%@#@####o#%$%%#%$$%%o#%$%$#$$%$$",
"%@%$%%%@#%#@#%$%#$%$$%%#@o#%$$%%#@@###%#@o%%$%%#$$%#o%$$%#%$$$$%",
"#@%%$$%##%##@%$$%%%$$$##oo##$$%%@@#%$#%%#o%$$$%#%$%@o%$$%#$$$%$%",
"o@#%%$$#%$%#@%%$$%$$%%#o##o#%$%$@##$$%$%#@o%$$%%$%#o#$$%#%$$$$%#",
"@#@#$$$%%$$%@#%%%$$%%#o#%##@%$$$@#%%$%$%#@o#$%$$%%@o#%$%#$$%$##o",
"#%%@%$%%$$$%#o###%%#@@##%#%@%%$%@#%$$$%#%%@o#%$%%#o#%$%%#$$%##o@",
"%$$#@%$%$$%##@oo##@@##%#%%%@#%$##@#$$$%#$%#o@##%#@o%%$%$%$%#oo@#",
"$$%#@#%%%$#@@##@ooo##%%#%%$#@%#%#@#%$%#$$###o@#@@o##%%%$%%#o@##%",
"%#@@#@#%%%@##%%%##@o#%$%#%$$@#$%%#@#%$%$%#%$#o@@o@@##%$%%@o@##%$",
"#@@###@#%@##%%$%%##@o#%$#$$%@#%$%%o##$$%##%$#@oo@@@@#%#%#o@#%$$%",
"@##%#%@##@#####$%%%#o##$%$$%@%%$$%o@#%$%#%$$%##@oooo@###@o#%$$%%",
"##%$%##@#o##%#%%$$%%@o%$%$%%#%$$$%#o@%$#%$$%$%##@@@oo@#@o@%$$%#o",
"%#$$%%#@o##%%%#%%$$%#o#%$$%##%$%$$#o@#%#$$$$%#####@@@o@@o@%$%#o#",
"%#%$%%##o###%$%#%%$$%#o%%$%#%#$%$$%@##%#$$$%%#%$%%@#@@o@o#$$$o#%",
"%#%%$%#%@####%$%#$%$%#o#%%$@%#%$$$%@%##%$%%$#%$%%@@##@@o@$$$#o$%",
"%#%$$#%%@#%##%$$#%%$$%%o#%#@%%#$$$$@%#%$%#%%#%$$%@#%##@o#%$%@#%$",
"#%%$%#%$@#%#%$$$%#$$$$%o#%@#%$%%$$%@%%#%#@##%%%$#@%$%##o#$$#@$$$",
"#%$$#%$$%@%%$%$%%#%$$%#@o#@%%$$%$%#@#%%#%#@#$%$$@#$$$%#@%$%@#%$%",
"#%$%#%$$%@#%$$$%$#$$%%%#o@@%$$$$$%@##$%#%%@#%$$%@%%$$%#@%$%@%%$%",
"o#$$%%$%%@##%$$$%%$%$$%#@o@#%$%$$#@#%$#%%$#@%$$%#$%$$$#@$$#@%$$%",
"o#$$%$$$%@@@##%$%$%%%$$#@@oo%%%%%#@%%$#%$%%@#$$%#%$$%$%@$%@#%$$$",
"O@%$%$$%%@##@##%$$$$%%$%@#@@o##%##@%$$#$$%%@#$%#$%$$%%%@$$#%$$$%",
"&o%%%$%%@##%#@@@#%$$$%%#@##@@o###@#%$%#$$$#o#$%#$%$%%$%@%$#%%$%#",
"&&o%$%%@#%$$%@#%@@#%$%#@#%%%#@@@#@%%%#%$%$#o#$%#%$$$%$@o%$%$%%#&",
"&&o#%%%@%$%$#@%$%#@@%##O#$%%%###@#%%##$$%%#O%$##%$$$$%o&#%$$$%#&",
"&&&@#%#@$$%$@#%$$%##@#@O%$%$%%%##@%$#%$%#%@O%%#%%$%$$o&&#%$$%$#&",
"&&&@##@%$%%$#%$$%%%##@@O%%$$$%#%#@%$%%$%%#@O#%#%$$%$%o&&&#$$%#&&",
"&&&&@#@%$%$#%%%$%%$%%#O@%%$$%%%%%#@%%$$%%#Oo##%%$%%%o&&&&#$%%#&&",
"&&&&&@%%$%$#%%$%%$$$%@O&#%%$$%$%%#@%$$%%#@oo@#%%$%%#o&&&&#%$%#&&",
"&&&&&&@%%$#%$%%%%$%%@O.&&#$$$%$$%#@%$$%##@..o#%$%##o&&&&&&o%#&&&",
"&&&&&&@#%$%$$$%%$%@@..X&&#%$$$%$%@%%$%##@.X.o@%%##o&&&&&&&&o&&&&",
"&&&&&&&@#$$%%$$%%@&&..XX&&#%$$$%#@#%%#@@XX. &O#%#o&&&&&&&&&&&&&&",
"&&&&&&&@##$$$%%%@&&& ..X&&&#%%$$@.@##@.XX. &&O@#@o&&&&&&&&&&&&&&",
"&&&&&&&&o#%$%%%O&&&&&  .X&&&#%%#...@@.XX. &&&&O@o&&&&&&&&&&&&&&&",
"&&&&&&&&&o#%%%O&&&&&&.  ..&&&##  ...XX.  &&&&&&o&&&&&&&&&&&&&&&&",
"&&&&&&&&&&OOOO&&&&&&&&.. ..XXX..  .X.   &&&&&&&&&&&&&&&&&&&&&&&&",
"&&&&&&&&&&&&&&&&&&&&&&&..  .XXX.X. .  &&&&&&&&&&&&&&&&&&&&&&&&&&",
"&&&&&&&&&&&&&&&&&&&&&&&&  .X.XXX..  .&&&&&&&&&&&&&&&&&&&&&&&&&&&",
"&&&&&&&&&&&&&&&&&&&&&&&&&&..XX..... .&&&&&&&&&&&&&&&&&&&&&&&&&&&",
"&&&&&&&&&&&&&&&&&&&&&&&&&&&&.XX.... &&&&&&&&&&&&&&&&&&&&&&&&&&&&",
"&&&&&&&&&&&&&&&&&&&&&&&&&&&&X.X.X.  &&&&&&&&&&&&&&&&&&&&&&&&&&&&",
"&&&&&&&&&&&&&&&&&&&&&&&&&&&&X+XXX. .&&&&&&&X..&&&&&&&&&&&&&&&&&&",
"&&&&&&&&&&&&&&&&&&&&&&&&&&&&X+XXX.. &&&&..X..&&&&&&&&&&&&&&&&&&&",
"&&&&&&&&&&&&&&&&&&&&&&&&&&&&X++X.X. &&XXXX..&&&&&&&&&&&&&&&&&&&&",
"&&&&&&&&&&&&&&&&&&&&&&&&&&&&XX++.XX.&.X...&&&&&&&&&&&&&&&&&&&&&&",
"&&&&&&&&&&&&&&&&&&&&&&&&&&&&XX++XX+XXX..&&&&&&&&&&&&&&&&&&&&&&&&",
"&&&&&&&&&&&&&&&&&&&&&&&&&&&&XXX+XX++XX&&&&&&&&&&&&&&&&&&&&&&&&&&",
"&&&&&&&&&&&&&&&&&&&&&&&&&&&&X+X+X++X.&&&&&&&&&&&&&&&&&&&&&&&&&&&",
"&&&&&&&&&&&&&&&&&&&&&&&&&&&&X+++X++X.&&&&&&&&&&&&&&&&&&&&&&&&&&&",
"&&&&&&&&&&&&&&&&&&&&&&&&&&&&X+++++XX&&&&&&&&&&&&&&&&&&&&&&&&&&&&",
"&&&&&&&&&&&&&&&&&&&&&&&&&&&&++X+++XX&&&&&&&&&&&&&&&&&&&&&&&&&&&&",
"&&&&&&&&&&&&&&&&&&&&&&&&&&&&++XX+++X&&&&&&&&&&&&&&&&&&&&&&&&&&&&",
"&&&&&&&&&&&&&&&&&&&&&&&&&&&&+X+X+++X&&&&&&&&&&&&&&&&&&&&&&&&&&&&",
"&&&&&&&&&&&&&&&&&&&&&&&&&&&&+XXX++XX&&&&&&&&&&&&&&&&&&&&&&&&&&&&",
"&&&&&&&&&&&&&&&&&&&&&&&&&&&&XXX++XXX&&&&&&&&&&&&&&&&&&&&&&&&&&&&",
"&&&&&&&&&&&&&&&&&&&&&&&&&&&&XXXX+XXX&&&&&&&&&&&&&&&&&&&&&&&&&&&&",
"&&&&&&&&&&&&&&&&&&&&&&&&&&&&XXXXX+XX&&&&&&&&&&&&&&&&&&&&&&&&&&&&"
};
