/* XPM */
static char *bamboo_stalk[] = {
/* columns rows colors chars-per-pixel */
"64 64 8 1 ",
"  c #3D6317",
". c #466D0C",
"X c #538209",
"o c #599003",
"O c #609816",
"+ c #79A842",
"@ c #8DC24F",
"# c #97D155",
/* pixels */
"XoXXooXoXXoXOooXoOoXXooXoXooooooXoooXoooOooXoooooooo@@@@####@@@@",
"@##########@XXXXXooOXoXooXXXoOoXXoXXoooOoXoXXooooooo@++++++++++@",
" ...   ..   @##########@.oXoOXoXXoXoooXOooXXoooooooo@++++++++++@",
"XX..oXoX.oXX  .   . .   @##########@.XXoXoXoXXoooooo@++++++++++@",
"oXXoXOooXXoOXX.XoX..XXXo    .   ..  @##########@oooo#++++++++++#",
"oOXoOOoOXOoOXoXXoO.oXooXXXoXoXXX.oXO  . . ..... oooo#++++++++++#",
"oooOooooXoOoooXooOXXooOoXooOOXOXXXoOoX.oXX..Xo.Xoooo#++++++++++#",
"oooXoooooooooooOoooXoOooooooOXooXoOoXXoXOXX.OXXOoooo#++++++++++#",
"oooooooOooooXoOoooooOooooOooooooOoooXoXooOOXooXooooo@++++++++++@",
"oooooooOooooooooooooOoooooXooooooooooooooOoooooooooo@++++++++++@",
"oooOooooooooooooooooooooooOooooooooOoooooooooooooooo@++++++++++@",
"oooooooooooooXoooooooooooXoooooooooooooooooooooooooo@@@@####@@@@",
"ooooooXooooooOoooooooooooXOooooOXoooooooOooXoOoooooooooooooooooo",
"ooooooOoooooooooooOoooXoooOooooOoooooooooooXoooooooooooooooooooo",
"ooooooOoooooooooooooooXOoooooXooooooooooooOooooooooooooooooooooo",
"ooooooooooooooXoOooooooXoooooOooooooooooooXOoooooooooooooooooooo",
"ooXoooooOoooXoXoOooooooOoooooOXooooooooooooOoooooooo@@@@@@@@@@@@",
"XXOoooooooooOoooOooooooooooooOooooooXooooooOoooooooo@++++++++++@",
"oXXoXoooooooooooooooooooooooooooooooOXoooooooooooooo@++++++++++@",
"XoXXXoXoooooooooooooooooooooooooooooXXoooooooooooooo@++++++++++@",
"XXXXXXooXoooooooooooooooooooooooooooOooooooooooooooo@++++++++++@",
"OXXXXXooooooooooXooooooooooooooooooooXoooooooooooooo@++++++++++@",
"oOXoXXXOooXOXooooooXooXoOoXooooXoooooooooooooooooooo@++++++++++@",
"oXXXooOooXooOooXooXXXoXXOooooooooooooooooooooooooooo@++++++++++@",
"oXXXXXooXoXXOooXXooXOoXOoXoXoXXoOXoooXooooooOooooooo@++++++++++@",
"XXXXXXXXXXXXXoXXooXooXoXOXooXXoOXXoXoXXoXooXOoXooooo@++++++++++@",
"@##########@.XXXXXXXXXXXXXXoXooXXoooXOXOoXXOoooooooo@++++++++++@",
". ...    ...@##########@.XXXXXXXXXXXXoXXooXoXoOooooo@@@@@@@@@@@@",
"XX..XXXXXo.X    .... .  @##########@XXXXXXXXXXXXoooooooooooooooo",
"oXXXoXoXXoXXXooXX..oXXXX   .. .. .  @##########@oooooooooooooooo",
"ooXXooooXooXoXoooX.XXoXoXoXooXX.XXXo  ...   ... oooooooooooooooo",
"XoooXooXooooooooooXooooooXXXooXooXXooX..oXooX.Xooooooooooooooooo",
"oooooooooooooooXooXooXoooooooooXooooooXXoooooXXXoooooooooooooooo",
"ooXoooooooooooooooooooooooooXoooooooooXooXOoXoXooooooooooooooooo",
"oOXoooooooooOoooooooooooooooooooooooooooooOooooooooooooooooooooo",
"oOoooOooooooOXooooooooooooooooooooooooooooOooooooooooooooooooooo",
"oOooXOooooooOooooooooooooooooooOoooooooooooooooooooooooooooooooo",
"oooooOoooOooXooooooOooooooooOooOoooooXoooooooooooooooooooooooooo",
"oooooooOooooooooXoooooooooooOooooooooXoooooooooooooooooooooooooo",
"ooOooooOooooooooOoooooooooooOoooooooXOoooooooooooooooooooooooooo",
"ooXooooXooooooooOXooooooooooOooooooooooooooooooooooooooooooooooo",
"oooooooOooooooooOXooooooooooooooOoooooooooXooooooooooooooooooooo",
"ooooooooooooooooOooooooooOoooooXOoooOoooooOooooooooooooooooooooo",
"OooooooooooooooooooooooooOXoooooOooooooooXXooooooooooooooooooooo",
"oXoXoooooooooooooooooooooOXooooooooooooooXoooooooooooooooooooooo",
"oOXXoXooooooooooooooooOoooooOOooooooooooooooOooooooooooooooooooo",
"ooXOXXooooooooooooooooOooooooXoooooooooooooooooooooooooooooooooo",
"oXXXXoXoooooooOooooooooooooooOoooooooooooooooooooooooooooooooooo",
"XXXXXOoooXoooXOOoooooooooooooooooooooooooooooooooooooooooooooooo",
"OXXoXXooOooXooXooooXooXooooooooooOoooooooooooooooooooooooooooooo",
"ooXXXXooXoXoXOooXoXXOoooooOooooooOoXoooooooooooooooooooooooooooo",
"ooOXXXXOooXXoOoooXXOooooXoOOoXOoooXXOoooXooXoooooooooooooooooooo",
"ooXXXoXOoXoXOoOXoXooXooOoXXOoooXoXXoooXOooXXoOoXoooooooooooooooo",
".XXXXXXXXXXXXXOoXXoXooXoOoXoXooXXoXoOXXoOoXooOOooooooooooooooooo",
"@##########@XXXXXXXXoXXXoXoXXoXoXooXooXXOXoXoXoooooooooooooooooo",
" . .  ...   @##########@XXXXXXXXXXXXXXOooXXoOoXooooooooooooooooo",
"oXX.oX..XXXX ....  .    @##########@.XXXXXXXXXXXoooooooooooooooo",
"ooXoXoo.oXOOXX.XOX..XXoX .. . ..  . @##########@oooooooooooooooo",
"oOoOXOoXXooooXXooXXoXoXoXX..oX.XXOX. . ....  .  oooooooooooooooo",
"XoooOOoXoOoXoOOooOXooooooX.XOoXXOoo...oXX.XX..XXoooooooooooooooo",
"ooooOoooooooOOooooOooXoooOXoooooOooX..XOoXXo.XoXoooooooooooooooo",
"ooXooooooooooOooooooooooooXOoooXooooXXOooXoOXoOooooooooooooooooo",
"ooXXoooooooXoooXoooooooXoooOoooXooooXoOoooOooooooooooooooooooooo",
"XXXooXooooXXXoXoXoooooXXooXooXoooXoXoooooooXoooooooooooooooooooo"
};
