/* XPM */
static char *bedrock[] = {
/* columns rows colors chars-per-pixel */
"64 64 5 1 ",
"  c #222222",
". c gray20",
"X c gray34",
"o c gray39",
"O c #979797",
/* pixels */
"XXXXXXXX.X.X.........X.XXXXXOoo..OXooo.......... ....XXXX....XXX",
"XXXXXXXXX.XXX......X..XXoXXOoXoX.OOOXoooX...... ......XX.X..X.XX",
"XXXXXXXXXooX.X....XXXXooXOXOOoooXXOOOOoOoXX...  .......XXXX..XXX",
"..XXXXooooXooXX..XXXXooOOOXXOOXooXXXOOOXX..X.   . ...XXXXXXXoooX",
"...X.XXXoOOOoo...OXXXOOOOooXOOOo..XOXXX.OoX..X   ......XXXXoXo..",
"....XX.XXoOOOOXXOX.XOOOoooXoXXOO...XX..OOOooX. . .....X...oXoo..",
"......X..ooOOOXOOX..XoooX.XX.XX.XX....OOOOOOooX....XX...X..oooo.",
"........oXooXOOOX.X..XoX.XX...XXX..XXOOOOoXOOOooX...XX.X.....ooo",
"...... . .XX..XXXX.XXo.......X....XXOO.XooooXoXX...XXXXXXXOXXoXX",
".... .  . ...XXX.X...XX....X....XXOOO..XXXoooXXXXXXXXXXXOOXXXXo.",
"..... .   ..X......... ..XX...oXXOO.....XXXXXXX.XXXXXXOOOXXXXX..",
"....     .X....... .. ....XXX..oOooX...X.XXX........OOOOXXXX....",
".....  .X..oo......    XXOOXOXXoooX.X....XX.XX.......XXXXX......",
"..XXOOOo..oX....XX..  ..XXOOXXXXX..XXX..X.XX....................",
".XXOOOOOoXoooooX...X   ..OOXXOO...X..XX...........X.............",
"XXOOXXOOOoXooXX..XXX . ...XOXOOO.........XX...X.OoooX...X..XXX..",
"X..XOXXOOoooooXXXXXXX X...OOOOXXX.. .......XXoooXOOoOOoX..XX....",
"..XX.XXXOOoXoXXXXXX.XX.....OOXX.XX.. ..X.....XoOOOOOOoOooX......",
"....X..XXXOoXoX.X.XX........XX...X.  XX....XooOXOOOOOooX....... ",
"......XXXXXX.X...XX..........XXX..  . .XXXOOoOOOOOooX........  .",
".......X.XXXX.................X..    ...XXXOOOOOooX......... .  ",
" .....XXX...XX............... .. .  ..X...X.oooXo...XX....... . ",
"  ..XXXXXX.........X......X...    .X...oX...XoX..X...XX.X....   ",
" . XoXooXXXX.....XX..XXXXX.....   X.XX..ooX.........XXoX......  ",
"  .OOOoXoooXX.....XXXXXXX..X.X.X..XXXooOoOOXX...X.X..XXoOX.X....",
".XOOOoOoooXXoXXXooXXXOOOoooXX...XX..X.oXOOOOOXXX.X..XooOoo..X...",
".OOXOOOoXoooXooXXoooOOOOOoXXoo.oX......ooooOOXOOoXoXooOOOX.XXXo.",
"OXXOOoo..XX..XoooooOOOoOOOooXooo.........oXoOOOoooooOOOOXoooooX.",
"XXOOooXX...X....oOOOoXooOOOoOoo...XX......o.XXXXXoXOOXOoooo..o..",
".XXOoo........XXXooXXoXXOOOOOooXXXX..X.....X..XXoXOXX..oX.......",
"..XX.ooX.....XX..XoXoXXoooOOooXX.XXXX.XX.....XXXXXXXXX......ooo.",
"...XXoXoX......X..XXXXoXXooXooXoXXXXXX..XX......XXX..........ooo",
"XXOOOOOXXX.......X.XXXX.ooXXXooXoXooXoXXXOOO...XXOO..O...O.ooOOO",
".XXXOXOOOXXX..X...XXX..XXXXXX..ooooXOooOXXO..X.XXXOOO.....OOOOOX",
"..XXXOXXOOOXXX......XX...XXX..XXooooXOOOOO..X.XXX...OOOOO..OOXXX",
"...XXXXOOOOOX..XX......XX... XXoOOXOOOOOoooXXXX....O.OO.OOOOXOX.",
"X....XXXXOOOOXX.XXXXX...... . XooOOOOOOoOo..X.XX.......OOXXOOX.X",
".......XXXXOOOXXX. . .....X.   ..XoXoOoooXX..XX.X.........XXXXX.",
"XXXX.....XXXXXXXX   .X.X.XOXX   . XooooX.o........X.....XXX...XX",
".XXXXX.XO...... .  .XXXXXXXOOX   ....Xo..XX.....XX.........X....",
"....XXOO..O.OO..  .XXOXXOOOO.. .....X...XX.O.OOOOXXX....X.......",
".XXXXXXOOOOOO.O..XXOOXXOXOO.... ..XX..XXXO..OOOOXOX.X.XX.Xo.....",
"XXXXXOOOOOOO......XXOOOOOO.....XX..XOOXOOOOOOOOOOOOXoOOOoo...X..",
".XXXXXXOXOOXX...XX.XXXOXOO.......XXXXOOXOOOOOOOOOOOOOooOOOXo..XX",
" . XXXXXOOXOXXX..XX..XXO....XX..OOOOOOOOOOXOOOXoOOOOOOOOXoo..Xo.",
"   ..XXXXOXX.XXX......XX..XX.oXooOOOOOOOOOOXXXXXooooOOOOOOooooXX",
". . ...XXXXXX..XX.X.XXX......XooOoOOOOOOOXXOXX.X.XoOOOoOOOOooX. ",
"........XXX...XXXX.....X.......oooXOOOOXXXXX.XX...XXooooXOOOO.  ",
".........X......XXXXX.........X..ooXOOXXXOO.X....X.X..oooXXX. ..",
"..................XXXXX.X.......XXXooOOOOXX...  .....XX.Xo..X...",
"o..o.............X..XXXX.XX......XXXooXOOOX.X  .  ....XX.XX...X.",
"oo..oX.............XX..XXX.........o..XXXX.XXX   ...........X..o",
"OOooO.oo.........O....XX..XX..............XX. . ........X..ooooO",
"oOOO.oo..O...oOOOX..XXXX.XX.X............................ooXoOOO",
"XoOooOOOO..ooOOOX.XXX..  . ........X.................X.X..XoOOO.",
"ooOOOOOO.ooOOOXXXXXX.. .  ....XXX..XX........OOOOXX...XXooOOO...",
".ooXOOOoXoOXoX.XXX...    .....XX..XXXXX....XO.OOOOXXXXXooO......",
"..XooOoooXooXXXXX.X. ..........XXX.XXX..X..X.OO.OXXXX..XX.......",
"....oo..Xo....XXXXXX..XX.XX.....XXXXoooX.XoO.OOO....XX..........",
"X..oo.XXX...XX...XXXXXOXX.XX...X.XX.XXooooOOOO.OO.  . .......X..",
".XX..XX .X.. .  ..XXOOXXOOO.....XXX..oXooOOOO.O.. .  ......X..X.",
"XX.. .   ....   . .XXOOOOXXX.....X..X.ooOOOoO...    ....XXX.XXXX",
"XXXX.   . ... .    .XXOOXXX.XX........oOoOoo.O. . ....XX..XXXXXX",
"..XXX. .........  . ...O..XXXXXX.........oXoX............XXXX..."
};
