/* XPM */
static char *bee_nest_bottom[] = {
/* columns rows colors chars-per-pixel */
"64 64 8 1 ",
"  c #6F533A",
". c #7A5737",
"X c #946D4B",
"o c #A28166",
"O c #A37347",
"+ c #B08D6A",
"@ c #BC986D",
"# c #C8A671",
/* pixels */
"        ....        ........                ........            ",
" XXXXOOOOOXXXXXXXXOOOOOOOOOOOOOXXXXXXXXXXOOOOOOOOOOOOOOOXXXXXXX ",
" X##############@@@@@@o+@@##########@#@+o++@@@@@##############X ",
" X#####@@@@#@@@@@@@@@@oo@@@##@##@@@##@@+oo@@@@@@@@##@#@@@@####X ",
" X##@@##@@@@@@@@@@@@@++@@@@@@#@@@@@@@@@@+o@+@@@@@@@@#@@@@@@@##O ",
" X###@@@@@@@@@@@@@@@@+o+@@@@@@@@@@@@@@@@+o+@@@@@@@@@@@@@@@@#@#O ",
" X###@@@@@@@@@@@@@@@+o+o@@@@@@@@@@@@@@@@oo+@@@@@@@@@@@@@@@@@@#O ",
" X###@@@@@@@@@@@@@@@@+oo@@@@@@@@@@@@@@@@o+o@@@@@@@@@@@@@@@@@@#O ",
" X##@@@@@@@@@@@@@@@@@@o++@@@@@@@@@@@@@@+oo@@@@@@@@@@@@@@@@@@@#O.",
" X##@@@@@@@@#@@@@@@@@@o+@@@@#@@@@#@@@@@@o+@@@@@@@@#@@@@@@@@@##O.",
" X#@#@@@@@@@@###@@@@@@o+@#@@@######@@@@+o+@@@#####@@#@#@@@@@#@O.",
" X#@@@@@@@@###########@@################@@############@@@@@@@#O.",
" X#@@@@@@@@#  ..........            ..............  ##@@@@@@@@O.",
" X#@@@@@@@@# XXOOOOOOOOOOOOOXXXXXXXXXXOOOOOOOOOOOOX ##@@@@@@@@O.",
" O@@@@@@@@@#.O@@@@@@@@#####@#@@@@@###@@@@@@@@@@@@@X.#@@@@@@+@@O.",
" O#@@@@@@@##.O@@@@###@@#####@@#@####@@###@@@#@@@@@O.#@@+@@o+++O.",
" O@##@@@@@##.O@@@##################@######@@@###@@O.@+oo+++oooO ",
" O##@@@@@@##.O@@###############################@#@O.@ooooooo+@X ",
" O#@@@@@@@##.O@@#################################@O.#@@++++@@@X ",
" O##@@@@@#@#.O@@###############################@#@O.#@@@@@@@#@X ",
".O#@@@@@@@##.O@@@###############################@#O ##@@@@@@@#O ",
".O#@@+@++@@#.O@#@###############################@#O ##@@@@@@##O ",
".O+ooooo+++@.O@#@#################################O ##@#@@@#@#O ",
".Oo+++@oooo@.O@###################################X ###@@@@@##O ",
".X+@@+o+@@@#.O@#########  ............  ##########X #@#@@@@@##O.",
".X@@@@+@@@@#.O@######### XOOOOOOOOOOOXX ##########X #@#@@@@@##O.",
".X@@@@@@@@@#.O##########.X@@########@@O.##########X ##@#@@@@@#O.",
".X@@@@@@@@@#.O##########.O@#@######@#@O.##########X ##@@@@@@@#O.",
" X#@@@@@@@@#.X##########.O############O.##########X ##@@@@@@#@X.",
" X#@@@@@@@##.X##########.O############O.##########X #@@@++@@@@X.",
" X#@@@@@@@##.X@#########.O###########@O.##########X #@+@oo++@@X.",
" X#@#@@@@@##.X@#@#######.O###########@O.##########X @+o++oooooX.",
" X###@@@@@## X@@########.O##########@@O.#########@X.@oooo+o+++X ",
" O##@#@@@@## X#@########.O##########@@O.#########@X.#@@@@@+@@@X ",
" O##@@@@@#@# X@#########.O#@#######@#@O.#########@O.#@@@@@@@@@X ",
" O##@@@@@@## X##########.O#@####@##@@@O.#########@O.##@@@@@@#@X ",
".O##@@@@@@@# X##########.O@###@@##@@@@O.#######@#@O.##@@@@@@@#X ",
".O#@#@@@@@## X##########.O@@###@@@@@@@X.#######@#@O.##@@@@@#@#O ",
".O#@@@@@@@## O########## XXOOOOOOOOOOOX #######@@@O.###@@@@@##O ",
".O#@+@+++@## O##########  ............  ######@#@@O.#@#@@@@@##O ",
".O++o++oooo@.O##################################@@O.##@@@@@@##O.",
".Ooo+ooo+++@.O@#################################@@O.#@#@@@@@@#O.",
".O+++@@+o+@#.O@#################################@@O.#@@@@@@#@#O.",
".O@@@@@@+@@#.O@##################################@O.#@@@@@@@##O.",
".O@@@@@@@@##.O@#@#############################@##@O.#@@@@@@@#@X.",
".O@@@@@@@#@#.O@@###############################@#@O.#@@+++++++X.",
".O@@@@@@@###.O@@###############################@@@O.@++o+oooooX.",
".O@@@@@@@###.O@@@####@#############@######@@##@@@@O.@ooooo@+++X.",
" O#@@@@@#@##.O@@@@@@@###############@@#####@@@@@@@X.#@@+++o@@@X ",
" O#@@@@@@@##.O@@@@@@@@@@#########@@@@@@#@@@@@@@@@@X.##@@@@+@@@X ",
" O#@@@@@@@## XOOOOOOOOOOOOOOOOOOOOOOOOOOOOOOOOOOOXX ##@@@@@@@@X ",
" O#@@@@@@@@#    ................................... ##@@@@@@@@X ",
" X#@@@@@@@############@@################@@###########@@@@@@@@@X ",
" X##@@@@@@#@@@####@#@@o+@@@##@@######@@@o+@#@###@@####@@@@@@#@X ",
" X##@@@@@#@@@#@@@##@@@o+@@@@###@@@@@@#@@o+@@##@@@@@@@@#@@@@@@#X ",
" X#@#@@@@@@@@@@@@@@@@+o++@@@@@@#@@@@@@@@o+@@@@@@@@@@@@@@@@@@@#X ",
" X#@@@@@@@@@@@@@@@@@+oo+o@@@@@@@@@@@@@+@o@+@@@@@@@@@@@@@@@@@@#O ",
" X##@@@@@@@@@@@@@@@@@+oo+@@@@@@@@@@@@@@+oo+@@@@@@@@@@@@@@@@@##O ",
" X##@#@@@@@@@@@@@@@@@++o+@@@@@@@@@@@@@@o+o+@@@@@@@@@@@@@@@@#@#O ",
" X###@##@@@@@@@@@@@@@+@o@@#@@@@#@@#@@@@++oo+@@@#@@@@##@@@#@@##O ",
" X####@@@@##@@#@@@@@@@oo@@@####@@@@##@@@+o+@@@#@##@@@@###@####O.",
" X########@###@@@@@@@@+o@@@@########@#@@+o@@##################O.",
" XXXXXXXOOOOOOOOOOOOOOXXXXXXXXXXXXXOOOOOOOOXXXXXXOOOOOOOXXXOOOO.",
"            ........            ........        ....        ...."
};
