/* XPM */
static char *beehive_front[] = {
/* columns rows colors chars-per-pixel */
"64 64 13 1 ",
"  c #67502C",
". c #735A32",
"X c #7E6237",
"o c #8A6938",
"O c #947240",
"+ c #967441",
"@ c #9D7B47",
"# c #987E47",
"$ c #8B8B8A",
"% c #AF8F55",
"& c #B8945F",
"* c #9D9D9D",
"= c #C29D62",
/* pixels */
"&&=============================================================&",
"&&&&&&&&&&&&&&&&&&&&&&&&&&&&&&&&&&&&&&&&&&&&&&&&&&&&&&&&&&&&&&&&",
"@&&&====&&&&%%&&&&&&&&&&&&&&%%%%%&&&&&======%&=========&&&&&&&&@",
"@&=&&%%%%%&==&%%%&&======&&%=========%%%%&%%%%&%%%%%%%%&&=====&@",
"o&&&==&&&%%%&====&&&&&&&&&&=&&&&&&&&&====&&&==&&&&&&&&&&&&&&&&&o",
"o@&%&==========&&==&%%&&&%%&&&&&&=====&%%%%%%&===&&%%====&%%&&@o",
"o@&&&&&%%%%%%%%&&%%%&===&&&======&&=%%%&&&&&&&%%%%%%&&%%%%&===@o",
"o@%&&&&&&&&&&&&&&&&&%%%%%&&&&&&&&&&%%&&&====&&==&&&&%%&&&&%%%%@o",
"o@==%&===&&%%====%%%=======&%%&&&%%&&&%%%&&&%%%%%%&==&%%%%====@o",
"o@&&&&%%%%%%&&%%%===&&&&&&&%&===&&&&%%%&&%%%==&&&%%%&=====&&&&@o",
"o@&&%%%%%&&&&&&&&&&&&&&&&&%%%%%&&&&%%&&&&==&&&==&&&&&&&&&&&&&&@o",
"o@=======%%%====%%&&===&%======%%%%&==&%%%%%%&&==%%&&&%%&&&%%&@o",
"o@&&&&&&&===%%%&&%%%%%%&&&&&&&&=====&%%%&&&==%%%&&%%%&&&&===&%@ ",
" @&&&&&&&&&&&&&%%&&&&====&&&&&&&&&=========&%======&&&&&%%%%%&@ ",
"        ....            ........        ........                ",
"  XXXXXXXXXXXXXXXXXXXXXXXXXXXXXXXXXXXXXXXXXXXXXXXXXXXXXXXXXXXX  ",
" XXXooooooooooooooooooooooooooooooooooooooooooooooooooooooooXXX ",
" XooooooooooooooooooooooooooooooooooooooooooooooooooooooooooooX ",
" XooooooooooooooooooooooooooooooooooooooooooooooooooooooooooooX ",
" X+++++++++++OOOOOOOOOOOOOO+++++++++++++++++++++++++++++++++++X ",
" X%%%%%%%%%%%o+#%%%%%%%%&&&&&&&&&&&&&%%%%%%%%%%%#oo%%%%%%%%%%%X ",
" X&%%%%&&&&&&o+%&&&&%%%%%%%%%%%%%%%%%&&&&&&%%%%%%+o%%%&&&&%%&&X ",
" X%%%%&&&&&%%o+&%&&%%%&&%%&&&%%%%%%&&&&%%%%%%&&%&+o&&&%%%%&&&%X ",
" X%%&&%%%%%%%+o%%%%&&&%%&&&%%%%&&&&%%%%%%%&&&&%%%+o%%%&&%%%%%%X ",
" X%&&%%%%%%%%+o&&%%%%%%%%%%%%%%%%%%%%%&&%%%%%&&&&oo&&&%%%%%&&&X.",
" X&&&&&&%&&&&o+%%&&&&&%%%%%%%%&&&%%%%%%%&&%%%%%%%o+%%%%&%&&%%&X.",
" X&%%%%%&&%%%+#%%%%%%%%&%%&&&&&&&&&&&&&&&%&&&&&&&o+%%&&&&%%%%%X.",
" X%%%$%&&&&%%+#&%&&%%%%%&&&%%%%%%%%%&%%%%%%%%%%%%++%%%%%%%$%&&X.",
" X&&$*$%%%%&&o+&%%%%%%%%%%&&&&&%%&&%%%%%%%&&&&&&%+o&&&%%%$*$%%X.",
" X%%@$@%&&&&&#+%&%%%&&%%%%%%%%%&&%%%&&&&&%%%%&%&&+o%%%&&&@$@&&X.",
".X&&%@%&&%%%%#o%%&&&%%&&&&&%%%%%%&&%%%%&&&&&&%%%%+o&&%%%%%@%%%X.",
".X%&%%%%&&&&&#+&%%%%%%%%%%%%%&&&&%%&&&&&&&%%%%&&&+o%%%&&&&%%%%X.",
".X&%%%%%%%%%%++%&&&%%&&&&&%%%%%%%%%%%%%%%%%%&&%%%#o%%%%%%%&&&&X.",
".X&&&%%%%%%&&+#&%%%&&%%%%%%&&&%%%&&&&&%%&&&%%%&&&#o%%%%&&&%%%%X.",
".X%%&&&&&&%%%o#&%%%%%%%%%%&%&&&&&&%%%%%%&&&&%&&%%#o&&&%%%%%%%%X.",
".X%%######&&&o#+##&&#####%%&&&+o+%%%##%%%%##%%%%########%%%%##X.",
".X+++++++++++###++###++#++###+o+++++o+++###+++###+++++#####+++X ",
".Xoooooo++oooo+ooooo++o+oo++ooooo+oo++oo++oooooo++oooo++++++ooX ",
" X%%%$%====%%%&&&===%%+++              +++==&&&&&===%=%%%=$&%&X ",
" X==$*$&%&%&&&%%%%%%++                    ++%%%%%%%%=&&&&$*$&&X ",
" X&%@$@%&%&&%%&&%==+    ................    +%&&&&&&%%%%=@$@%=X ",
".X===@%%%%%%&====&+  ......................  +&&%%===%&&&%@%&&X ",
".X%%%&=&=&&&%%%%%=+ ........................ +&%%%%%======&&%%X ",
".X==%%%==%%===&&&&=+........................+&%&&&&&&%&&&%%%&&X ",
".X&&&===%%%%&&=%%&&&++....................++=%%====%%&&&&====&X.",
".X&&############&&####+++..............+++%%##########%%%%&&%%X.",
".X###+++++++##++++++###+++####+###+++++++###+++++++++####++##+X.",
".Xoo++oo++oo++oooooo++++oo++++oooooo++oo++oooooooo++oo++++oo++X.",
".X&&&&&&=======================+o#======================&&&&&&X.",
".X&&%&&&&&&&&%%%&&&%%%%%%%&&%%&+o=&&%%%%%&=====&==&=%%%%%%&&%&X.",
".X%%&&%%%&&%%&&&%%&&%===&&%%&&&+o&%&&&&%%%%%&&&%&&=======&%%&&X.",
".X&%%%&&&&&&==&%%&&%=%%%=%%%%%&o+&=%%%%&&&&&&&&&&=%%%&==&%%%%%X.",
" X%&&&%===%%%%%%=&%&&&&=======&o+%==%%&&=======&&&&%&%%====&==X ",
" X%%%$==%%&=======%%=&&&&&&&&&&o+%&&&&==%%%%%=%%%=%&&&&&&&$%=%X ",
" X==$*$&%&&&&&&%%%==&&%&&&%%%%%#+&%==%%&&&%%&&===%&&%%&%%$*$&&X ",
" X%%@$@%&&%%%%%====&==&=====&%%#+&=&==&%%%&&%%%%%%%&&&%&=@$@%%X ",
".X=&%@%%%%&&===&&&&&&&%%%%%%&=&+#&%%%%%&&%%&&=====&&=%&&&%@=%&X.",
".X%&&&&&&&%%%%&===%%%%&&===%%%=+#&&==&%&&&&&&&%%&&&&======&===X.",
".X%====%%==&&&&&=%==%%%=%%%=&&%o#==&%%&%%%==%%%%%%%%&%&&&%%&%&X.",
".X=&&&&==&%%%%==&&%%=====&&====o+=%&&&&&&=&=&&&&&&&&%&%%%%%%&%X.",
" X&===%%%%&&&&%&&&&&%%&&&%&&&%&o+&&&&&%%%%%%&=&==&%%%%%%%%&%&&X ",
" X############&&############%%=oo&%%%%&&===%%%==%%&&&====&%=&=X ",
" XXXXXXXXXXXXXXXXXXXXXXXXXXXXXXXXXXXXXXXXXXXXXXXXXXXXXXXXXXXXXX ",
"        ....    ........                ........    ....        "
};
