/* XPM */
static char *birch_trapdoor[] = {
/* columns rows colors chars-per-pixel */
"64 64 15 1 ",
"  c #9E8B61",
". c #A59467",
"X c #C1AA78",
"o c #C9B47E",
"O c #D7C185",
"+ c #D7CB8D",
"@ c #DBD2A1",
"# c #E3DBAF",
"$ c #EEEADE",
"% c #F6F2DE",
"& c #EEE6D5",
"* c #FFF6E6",
"= c #5B3E1F",
"- c #6B4823",
"; c #442E17",
/* pixels */
"      ........  ..      ..  ..........      ....  ......  ..    ",
" XXXXXXXooooXoXXXoXXXXXXXoXXoXXooXXXoXXXXXXXXXooXXXoXoooXXoXXXX ",
" XOO++OOO+++++OOOO+++++OO+OO++++OO++OOOOOOOOO++OOOOO++O++++++OX.",
" oO++O++++OO+++OOOOO++++OO++OO++++OOOOO++OOOOOO++OOOO++OOO++OOo.",
".o+OO++OOO+++OO++++OO+OOO++OOOOOOO+++O+OOOO++OOO++++OOO+++OOOOX ",
".o+OOOOOO++OOO+++++++++OOOOOO++++OO+++O++++OOOOOO+OO++++OOOO++X ",
" X++OOO++OOO++OO++++OOOO++++OOO++++OO+++OOOOOOO++OO++OOOOO++OOo.",
" XO++OOOOO++OOOOOO++++OOOO+OO+++OOO+++OOOO+++++OOOOO++OOO++OOOX.",
".XO+O+OO+++OO++++OOO++++++OO++OOO+++OOO+++++OOOOO+++OOO++OO+++X.",
".XOOO+O+OOOO+++OO+++++++OOOOOOOOOOO++++OO++O++OO++OOOO++OO+OOOX.",
".o+O+OO+OOX.. .....   ..      ..      ........  ..    +OO+++OOX ",
".X+O+OOO+O@XXXXXXoooXXoXXXXoooooooXXXXoXXoooXooXXoXXX +OO+O+OOX ",
".XO+++O+++@#$$%%%%%%%%%%&&%%%%%%%%%%%%&&%%%%%%%%%%$$X +O++OO+Oo.",
".XO+O+O+O+@@$%%%%%%%%%%%&&%%%%*%%**%%%&&%%%%%%%%%%%$o +O+O+O++o.",
".XO+OO+OO+@@%%%%%%%%%%%%&$***%%***%**%&$%*%%%*%%%%%%o.++OOO+O+X.",
".o++OO+OOO@@%%%%**%%%*%*&$****%%**%%**&$*%%%***%*%%%X.++OO++OOo.",
".o++OO++OO@@%%%%%**%*%**&$******%%**%%&&***%%%**%%%%X.+OOO+O+Oo.",
".o++OO++O+@#%%%*%%**%***&$%******%%**%&&****%****%%%X.++O++O+Oo.",
" X+O+OO+O+@#%%%%********&$%%%*******%*&$***%******%%X.O+O+OO++o.",
" X+O+OOOO+@#%%%%*****%**&$*%****%*****&$*********%%%o.O+OOO+O+o.",
".X+O++O+O+@@%%%****%%%%*&&*****%*%****&$*******%%*%%X OO+OO+O+X ",
".o+OO+O+O+@#%%******%%**&&******%%%***&$********%%%%X OO+O+OO+X ",
" XOO+OO++O@#%%%****%****&$****%%%*****&$***%%**%**%*X +O+++O++X ",
" XO++O+O+O@#%%%%********$$*****%******$$**%%**%%%**%X +OO+OO++X ",
".oO+OO+O+O@#&&&&&&&&&&$$$&&&&&&$$&&&&$$$$&&&&&&&&&&&X ++O+OO+OX.",
".XO+O++O++@#&&&&$$$$$$$$&&&&&&&&&$$$$$$$$$$$&&&&&&&&X O+O+O+OOo.",
".o+OO+OO++@#%%%%%*%%%%%%$&%%%%%%%%****$$*%%%%%%%%%%%X.O+++O+OOX ",
".X+OOO+O++@@%%%%***%%*%%&$%%%*%%*****%&$**%%**%%*%%%o.OO+++OO+X ",
" X++O++O+O@@%%%***%**%%*$$%%%%******%%&$%*%*****%%%%o OO+O+OO+o.",
" XO+O+OO+O@#%%%%****%%**$$%*%%%*****%%&&*%*****%%%%%X +O+O+O++o.",
" X+O++O+OO@#%%%%%*****%*$$%%*******%*%&&%********%*%o.+O+OOO+OX.",
" XOO++O+OO@#%%%%%*******$$%**%*****%%%&&%*********%%o.O++OOO+OX.",
" XO+++O+OO@#%%%%%%******&$%%%*%*****%%&&*****%**%*%%o.O+OOO+OOX ",
" XO+O++++O@@%%%*%%*****%&$%%%%*******%&&****%%***%%%X.O+O+O+OOX ",
" X++OO+++O@#%%%%*****%%%&&%%*%****%***&$****%*****%%X OOO+O+O+X ",
" X++O+O+O+@#%%%%%*****%%&&%%%*****%%*%&$%**%*****%%%X O+OO++O+X ",
".oO+O+O+O+@#%%%%*****%%*&&******%%%*%%&&%%***%***%%%X ++OO++O+X ",
".oO+OO++OO@#%%******%***&&%***%%*%%%%%&$%%%*%***%%%%X +O+O+O++X ",
".oOO+O+O+O@#&$$$&&&&$&&&&&&&&&&&&&&&&$$$&&&&&&&$$$&$X OO+O+O+OX.",
".XOO+O+O+O@@&&$$$$&$$$&&&&&&&&&&&&$$$$$$$$&&&&&&$$$&X OOO++OOOo.",
".o+OO+OO+O@@%%****%%%***$&*%%%%***%%%%$$%%**%%%****%X.+OO+OOO+X ",
".X+O++OO++@@%%%*****%%*%$&%**%******%%&$%****%*%**%%o.+OOO+OO+X ",
" X++O++O++@@%%%%***%**%*$&%%*******%%*&$*********%*%o.++O++O++X ",
" X++O++O++@#%%%%******%%$$%%**********&$***%*****%%%o.O+O+OO+OX ",
".XO+O+OOO+@#%%%*%****%*%$$%*%%********&&****%%%*%%%%X.+O+OOO+OX ",
".XOO++OOO+@#%%***%****%%&$%%%%%%***%*%&&%**%%%***%%%X.+O++OO++X ",
".o+O+OOO+O@@%%%****%*%%%&&%%%%%**%**%%&&%%**%%%***%%o.OO++O+++X ",
".X+O++OOOO@#%%%%**%%%%%%&&%%%%%%%**%%%&&%*%%%%%%*%%%o.OO+OO+O+X ",
".XO+O+OOO+@#%%%*%%%%####@@@@########@##@@###%%%*%%%%o.+O+OO+O+X ",
".oO+O++OO+@@%%%%%%%%@@@@@@@@@@@@@@@@@@@@@@@#%%%%%%%%X.+O++OOO+X ",
".X++OO+O++@#$%%%%%%$o.OOO++OO++OOOO++OO+++@@$%%%%%%$X O+O+OOOOX ",
".X++OO+O+O@@$$%%%%$$o.+++OOOOO++O+OOO+++OO@#$$%%%%$$X ++OOO+O+X ",
".X+O+O++OO@@@@###@##o.OO++++OOOO++++++OO++@##@@@##@#X ++O+++++X.",
".X+O+O++OO+@@@@@@@@@o OOO+++++OOOO+++OOOOO+@@@@@@@@@@XO++OO+++X.",
" X+O++O+O++OO+++OOOO++++================OOOO++O++OO+++OOOOOO+Oo.",
" XO+O+OOOOO++OOOOOOOOO+O=--------------=O+++OOOOO++OO+++OO++OOo.",
".oO+OO++++++OOOO++O++OOO;=------------=;++OOOO++++OO+++O++OOOOX ",
".XOOO++OOO++++OOO++OOO++;;============;;OO+++OOO++++OOOOO++OO+X ",
" X+O+O++O+OOOO+++++++++O+++OO++OOOOOO++OO++OOOO++OOO+++OOOO++Oo.",
" X++++OOOOOO+++++OO+++OOOO+++OOO++OO++O++OOOO++O++OOO+++++OO++X.",
" XO+OO+++OO+OOO+++OOO+++OOOO++++OO++OOOOOO++++OOOO+++OOOO+++OOX ",
" XOO+OOO++++++++OOOOOOOO++++++OOOOO++O++++++++++OOO++++O+OOOOOX ",
" XXXoooXXXoXXXooXXXXXXXXXXXXXXoXXXXXXXooXXXXXooXXXoXXXXXXXXXXXo.",
"    ....  ........            ....    ..........  ..        ...."
};
