/* XPM */
static char *birch_leaves[] = {
/* columns rows colors chars-per-pixel */
"64 64 5 1 ",
"  c #706D70",
". c #888787",
"X c #989998",
"o c #B7B9B7",
"O c None",
/* pixels */
"XXX.OOO.OOOOO... ...  OOOOOOOOOO..   XXX..OOOOOOXXX... OO.XXX..X",
"X..OOOOOOOOOO..  ... OOOOOOOOOOO..X..  XX.OOOOOOXX... OOO.XX. XX",
"..OOOOOOOOOOOO  ...  OOOOOOOOOOOO..XX.. XX.OOOOOO...  OOXXX. .XX",
". OOOXoooXOOOOO .   OOOOOOOO.OOOOOO.XXX..X.OOOOOOO  OOOO.X. .XX.",
" OOOOOXoXoXXOOO      OOOOOOO..OOOOOO.XXXX.XOOOOOOOOOOOOOO . .X..",
" OOOOOXooXoo..OO   O OO.OOOO.X.OOOOOOO.XXXXOOOOOOOOOOOOOO   ... ",
"OOOOOOOooo.oXX..O OO O OOOO.XX.OOOOOOOO..XX OOOOOOOOOOOOOO   .  ",
"OOOOOOOXooX.XXX. OO . OOOOO.X.XOOOOOOOOO  . OOOOOOOOOOOOOO.   OO",
"OOOOOOOO.XXX  ..   . OOOOO.XX.X.OOOOOOOOOO  OOOOOOOOOOOOO .OOOOO",
"OOOOOOOOO..X.    O .OOOOOO.XX X.OOOOOOOOOOO OOOOOOOOOOOOO.O OOOO",
"OOOOOOOOOO....  OOO.OOOOO.XX .X.OOOOOOOOOOOOOOXXXXOOOOOOO OO .. ",
"  OOOOOOOOO.  OOOOO OOOOO.XX X..OOOOOOOOOOOOXXoooooooOOO OOOOOO.",
"O  OOOOOOOOOOOOOOOOOOOOOXXX .X..OOOOOOOOOOXXoooooXXXoooOOOOOOOOO",
"  .X.OOOOOOOOOOOOO..OOOOXX .XX..OOOOOOOOOXXooooXXoooooXXOOOOOOOO",
".. XX.OOOOOOOOOO.oooXXOO. .XX..OOOOOOOOO.XooooXoooooXXOOXOOOOOOO",
".. .XX.OOOOOOOoooooooXXO  ....OOOOOOOOOOXXXoXXoooooXOOOOOOOOOOOO",
" .. .X.OOXOOooooooooooXXO  .OOOOOOOOOOOOXXXX.ooooXXOOO OOOOOOOOO",
"O .. .X OXoooXX..XXoooX.O OOOOOOOOOOOOO.X. .ooooXXOOOO  OOOOOOOO",
"O ... X.OO.oooooX..XXoX.OOOOOOO   .OOOO.. .XXXXXX.OOOO .  OOOOOO",
"OO .. ..OOO.ooooXXX..X.OOOOOOO   .XXOOO. .XXXX.. OOOOO. .. OOOOO",
"OOOO....OOO.XooooXXX...OOOOOO   .XXXXOO.......  OOOOOO . .XXOOOO",
"OOOOO . OOOO..XoXXX.. .OO OO.  .  XXXXOO..    OOOOOOOOO.. .XX..O",
"OOOOOO  OOOOOO.XXX.  O . OO.OO ... XXXOOOOOOOOOOOOOOOOO X.  .XX.",
".OOOOOO OOOOOOOO.. OOOOOOO.OOOO .X..XX.OOOOOOOOOOOOOOOO XX.. .XX",
"XOOOOOOOOOOOOOOOOOOOooooOO OOOOO XXX.X.OOOOO    OOOOOOOO.XXXXXXX",
"OOOOOOOOOOOOOOOOOOOOooooooOOOOOOO..XX.X.OOO .    OOOOOOO .XX..X.",
"OOOOOOOO   OOOOOOOOOOoXooooXOOOOOOO..XX OOXX.. .  OOOOOOO...X..O",
"OOOOOO   ..  OOOOOOOOooXooooXOOOOOOOO.. OOoXX. .. OOOOOOOO...OOO",
"OOOO    ......OOOOOOOoooXoooXXOOOOOOOOO OOooX .X. OOOOOOOOOOOOOO",
"OOOO  ..  .X..OOOOOOOOoooXooXXOOOOOOOOOOOooX .XX. OOOOOOOOOOOOOO",
"OOO OO ... .oX.OOOOOOOXoo.oXX.OOOOOOOOOOOoo.XXXX OOOOOOO OOOOOOO",
"O  OOO  XXo..ooOOOOOOOXoo.XXX.OOOOOOOO OXoXooXX. OOOOOOOOXOOOOOO",
" OOOOOOO .ooX.oOOOOOOO XXX.X OOOO   OO XooooXX. OOOOOOOOO XOOOOO",
"..OOOOOOO.XooX.XOOOOOOO.XXX  OOO .   OO XooX..OOOOOOOOOOOOXOOOOO",
"XX..OOOOOOO...XoOOOOOOO ..  OOO ...   OOXXX.OOOXXOOOOOOOOO XOOOX",
"XXXX.OOOOOOOOO.XOOOOOOOO  OOOO..XX  . OOOOOOOOXXOOOOOOOOOOO OooX",
"  .XX.OOOOOOOOOOOOOOOOOOOOOOOOXXX ... OOOOOOOXXXXOOOOOOOOOOooo..",
"XX  . OOOOOOOOOOOOOOOOOOOOOOOXXX .X.  OOOOOOOX.XXOOOOOOOOOooXXoo",
"XXX.  OOOOOOOOOO   OOOOOOOOOOXX..XXX OOOOOOOXX.XXXOOOOOOOooXoooo",
"XX..  OO   OOO   ... OOOOOOOXX.XXXX. OOOOOOO.XX..XXOOOOOOoXooooX",
"...  OO OOO     ...X..OOOOOOXXXXX...OOOOOOOO.XXX .X.OOOOOoooooXX",
".   OOOOOOOO ..  .XoX.OOOOOXXXXX...OOOOOOOOOO.XX. .. OOOooooXOOO",
"OOOOOOOOOO O  ...  XoXXOOOOXXX...OOOOOOOOOOOO..X.     OOoXXOOOOO",
"OOOOOOOOO OOO ..XX. XoXOOOOX...OOOOOOOOOOOOOOO ...    OOXOOOOOOO",
"OOOOOOOO   OOO  .XoX.ooOOOO.OOOOOOOOXXX...OOOOO  .   OOOO. OOOOO",
"OOOOOOO .   OOOO..XoXooXOOOOOOOOOOOXXXXXXX..OOOO   OOOO..OOOOOOO",
"OOOOOO ...   OOOOO..oXoXOOOOOOOOOOXOOX..XXX..OOOOOOOOO.   OOOOOO",
"OOOOO .XX.   OOOOOOOOXXoOOOOOOOOOOOOOOXX..XX. OOOOOOOO  ..  OOOO",
"OOOO .XX. ..  OOOOOOOOOOOOOOOOOOOOOOOOXX ..XX. OOOOOO    .X. OOO",
"OOOO XXX ..X. OOOOOOOOOOOOOOOOOOOOOOOO.X. ..X. OOOOO   .. .XXOOO",
"OOOO.XXX .XX. OOOOOOOOOOOOOO....OOOOOOOXX. ... OOOOO  ..X. XoXOO",
"OOOO.XX .XXX. OOOOOOOOOOOO...XXX..OOOOO..X.  . .OOOO  .XXX. ooOO",
"OOOOXXX.XXX. OOOOOOOOOO ..  ..XooXXOOOOO ...   .OOOOO ..XXo.XoXO",
"OOOOOXX.XXX. OOOOOOOOO .OO..  XXoooXOOOO  .   .. OOOO ..XoooXooO",
"OOOOOXXXXX. OOOOOOOO. OOOO.XXX..oooo.OOOO    . O. OOOOO..XoooXoO",
"OOOOO.XXX. OOOOOOOOOOOOOOOO.XoooXXoo.OOOOO    OOOO.OOOOOO.XXoooo",
"OOOOOOXX..OOOOOOO..XX.OOOOOOXXooooXoo.OOOOOOOOOOOOOOOOOOOO.XXXoo",
"OOOOOO.X.OOOOOOO.XXXXXX.OOOOOXXXooooooOOOOOOooooXOOOOOOOOOOOOOXX",
"OOOOOOO..OOOOOO.XXXX...XXXOOOOOXXXXXooOOOOOOOooXooXXOOOOOOOOOOOO",
"OOOOOOO.OOOOOOOXXXX..XX...XOOOOOOOOOOXOOOOOOOOooXooXX.OOOOOOOOOO",
"XX.OOOOOOOOOOO.XXX. XX..OOOXOOOOOOOOOOOOOOOOOOXoX.XoXX.OOOOOOO.X",
"XXX..OOOOOOOOOXXX. .X..OOOOOOOOOOOOOOOOOOOOOOOXooo.XXX..OOOO..XX",
"..XXX.OOOOOOO.XX. ... OOOOOOOOOOOO..XX.OOOOOOOOXXoX X.. OOO.XXXX",
"XXXX...OOOOOO..X. ... OOOOOOOOOOO..XXXX..OOOOOOOXXX ..  OO.XXXX."
};
