/* XPM */
static char *blackstone_top[] = {
/* columns rows colors chars-per-pixel */
"64 64 5 1 ",
"  c #160F10",
". c #1F121B",
"X c #27221C",
"o c #312C36",
"O c #3C3947",
/* pixels */
"XooOOOOooOOOOooOOXXoOOOoo.X.XooOOOOOOOOOOOOOoooXX.XX..  ..   XXX",
"XXooOOOOOoOOOOOoXOoOOOOOoX...XoooOoOOOOOOOooOooX.X..   .  .XX XX",
"XXXoOOOOOOOOOOOOooOOOOOOoo....XoooOoOOOOOOOoooX.X..     ..XXOo.X",
".XXooOOOOOOOOOOOOOOOOOOoooX.....XXoooooOOOoOooX. .   . .XooXooXX",
"X.XXoOOOOOOOOOOOOOOOooOooX.X..   .XXooooOoOooXX .  .. .XoOOooOoX",
"X..XooOOOoOOOOOOOOOoOooOoX..XX..  ..XXooooooXX..  . ..XoOOooOOoX",
"XX.XXoOoooOOOOOOOOOoOOooX.XXoXoX.. ...XXooXX..   ...XXoooOOoOOoO",
"oX..XooOoooOoOOOOOooOoooXXoOooXoXX...  .XX..    . ...XXooooOoOOo",
"OoX..XoOOoOoOOOOoOoOOOXXXooOOooooXo...   .    . .X..XXXXXXoOOOOO",
"ooX..XooOOOooOOoooooOXXXooooOoOooooXX..      ..X.XooooXXXXXooOOO",
"oX....XoOOoOoOoooooOXXXoOoOoOOOoOoXoXX..    ..XXooooOooXXXXXooOO",
"oX....XooOoOOOoOooooX.oooOoOOOOOoooooo. .  ..XooooOOOoOooXXXXooO",
"X.....XXoooOoOOooooXXXooooOOOOOooOooooX...  .oooOOoOOOOoOooXXXoO",
".....XXXXooooOOooooX.oXooOOOOOOOOooOoOX..  .ooOooOOOOOOOOOooXXXX",
"....X.XXXXooOOoOooX.XXoOOOOOOOOOoOOOOX.X...XOooOOOOOOOOOOoOooX..",
"...X.XXX.XXooOoooXX.XoooOOOOOOOOOOoooXX... XoOOOOOOOOOOoooooo.X.",
"...XXXXXX.XXooooXX. .ooooOOOOOOOOooOXX.X...ooOoOOOOOOooOoOoOoX..",
"..XXXXXXX..X.X.X  ..XXooooOOOOOOOOooXX.. ..oooooOOOOoOooOOoooXX.",
"...XXXXXXX..       .X.oooooOOOoOoooXXX. ...XoooOOOOOooooOoooXX..",
"..XXXXXXXXX... .    .XXooooOOoOooooX..   ..XooOOoOOooOooooooXX .",
".XXXXXXXXXXXXXXXX..  . .ooOOOoooooX.X     ..XXooOooOOooooooX. ..",
".XXXXXXXXXoXXOXOOXX..  XXooooOoooXX.        .XXXooooooooooXXX. .",
".XXXXXXXoooOoOOOoOoXX .  XX.ooooXX.  . .   . ..XXXooooooXX.X..  ",
"..XXXXXoXoOoOOOOOoOoXoX. ..X.XXXX.    .....    .X.XXXX.XX.X.. . ",
"..XXXXoXoooOOOOOOoooooooo . ....    .. .XXX..   .XX.X.X....  ...",
"..XXXXXoooOOOOOOooooooooooX....   ...XX..X..X.   .XX...... .  ..",
"X..XXXoooOOOOOOOooOOoOooOooX..  ..X.XX.XXXXX.X.   .....Xoooo ...",
"XX.XoXooooOOOOOOOooOOoOooooXX ...X.XXXooooXXX.X.  . ..XooOooOOX.",
"X.XXooooOoOOOOOOOooOOOOoooXXX. .XXXXoooOoOOoXXX.   ...ooOooooOOO",
"OXXXXooooOOOOOOoooOOOooooXoX...XXXooOOOoOOOOooXX.   .XoOooOoooOo",
"oO.XXXoOOOOOOOOoOOOoOOooXoX...XXoooOoOOOoOOoOooXX. .XXoooOoOoOoO",
"ooXXXooooOOOOOoOoOOOoooooX...XXooooOOoOOOOOOoOooX. .XXooOOOOOoOO",
"oXXXXoXoOooOOOOOOoOooooXX. .XXooOoOoOOOOOOOOOOOooX  XXoOooOOOOoO",
"OOXXXXXoooOOoOOOoooXooXX. .XXooOoOOOOOOOOOOOOOoooX  .XooOoOOOOOO",
"oXOXXXoXooooOoOoOoXoXXX.  XXXoooOOOOOOOOOOOOOOOoXX  .XXooooOOOOO",
"OoX.XXXoXXoooooXooXXX.   ..XoOoOOOOOOOOOOOOOOOOoX.. ..XXoooOoOOO",
"ooXXXXXXX.XXooXoXXX.   . . XooooOOOOOOOOOOOOOooXX.  ...XXoOoOOOO",
"OooX.XXX.X..XXXX..  ..XX. ..XooooOOOOOOOOoOOooXX.    ...XXOOoOOO",
"OOooX...X.. .. ....XXXX..X.XXoXoooOOOoOoOOoooXXX..     . .XXooOO",
"OoOooX. .. .  ..X.XXoooXoXXX.XXooOoOoOoOOooXXXX..    ..  ...XXoo",
"OOOOooX..    .X..XooooOooooXXXXXooOoOOooooXXXX..    . ...XXX.oXo",
"OOoOOoX.   ..X.XoooOOOOOoOooXXXXooooooOooXXXX..    .....XXoooooo",
"ooOOoo.  ...XXoooOOoOOOOOoooXXX.XoooOOooXXX... . ...X.X.XoOooOoo",
"OoOooX   ..XXooOoOoOOOOOOOoOooXXXXXooooXXX.....  .XX.XXXXoOOOooo",
"ooooo.. ..XXooooOOOOOOOOOOOoOoXoX.X.XXXX... .. .XX.ooooXXXoOOoOo",
"oOooX... .XooOoOOOOOoOooOOOOoOoXoX....X... ....X.ooooOooXXoOoOOO",
"OOoo.. ..XooooOOOOOOOooooOOOOOooooXX..... .....XooooOoOOoXXoOOOO",
"OooX .  XooOOOOOOOOOooXooooOOOOoOXo.....  . .XXXOoOOoOOoooXXOOOO",
"OooX.  .ooOOOOOOOOOOOoXoOOooOoOOoXoX....    ..XoOOoOOOOoOoXXoOOO",
"OoX.. .XoooOOOOOOOOOoOo.ooOoooOoXXoX... .  .X.XOoOOOOOOOoooXoOOO",
"oo.. .XoooOoOOOOOOOOOooX.ooooOooXoX.....   ..XoooOOOOOOOOOoXXoOO",
"oX. .XXoOOOOOOOOOOOOOooo. XoXooXo.X.... .   XXoOOOOOOOOOOOooXXoO",
"oX..XXooOoOOOOOOOOOOoooXoX XoXo..X. .. .    XXooOOOOOOOOOoOooXXo",
"X....ooOoOOOOOOOOOOoooooXXX.XXXX.  ..   .   .XoOoOoOOOOOOOoooXXX",
"...X.oOOOOOOoOOOOOoOoooOoXo.  .   ...X.XX.  . XoooOoOOOOOOOoooXX",
"..X.oooOoOOoOOOoOoooooXoooXX.    . .X.X..X.   XooooOOOoOooOooo.X",
".XXXXoooOooooOoOooooXXoooXooX..  .XXooXXX.X. ..oooooOOOooOooooX.",
".oXoXXooooooooooXoXXXoOOooXX...XXoXooooooXXX. X.oooooOOooooooXXX",
"oooXoX.XoXooooXXoXXoOOoOoXXXXXXooooooooOoooXX  XooooooOoooooXX.X",
"ooooXXX..XXoXooXXoooOOOOOooXoXooOoooooOOOoXoX .X.oooooooooXXX.Xo",
"oOoooooXX...XXXXXooOOOOoooXXXooooOOOooOooooXoX .XXooXXooXXXX. oo",
"OoOoOooooXXX...XooOoOOoOoXXXoooOOOOoOOooOOooo.X .XoooXXXXX . .oo",
"OOOOoOoOooooX...XooOoOOoXoXooOoOOOOOOoOOOooOoo.X..XooXoXX .  XXo",
"oOOOOOOoOoOoOOo..XoooooooXXoOoOOOOOOOOOOOOOoOoXXX.XXXoX...  .XoX"
};
