/* XPM */
static char *blast_furnace_front[] = {
/* columns rows colors chars-per-pixel */
"64 64 15 1 ",
"  c #111111",
". c #3F3E42",
"X c #494848",
"o c gray31",
"O c #595858",
"+ c #686868",
"@ c #72796E",
"# c #747474",
"$ c gray50",
"% c #888788",
"& c gray56",
"* c gray61",
"= c #ABACAB",
"- c gray71",
"; c #C5C5C5",
/* pixels */
";=======&&&&&&&&++$$$$$$+$$$$$$$$$$$$$$+$$$$++++;=======&&&&&&&&",
"=..............+XXXXXXXooooXXXXXXXXXXXXXoooooXXX=..............+",
"=..ooooOooooOOO+XXoooOXXXoXooooXXXXXXooooXXXXXXo=..ooooOooooOOO+",
"=.oOOoooOOoOOoO+XOOOOooXXXXXXXooooXOOOoOoooXOOoo=.oOOoooOOoOOoO+",
"=.OooooOoOOooOo+OOXOXXXooXooooXXoOOOXXOOOoXOOoXO=.OooooOoOOooOo+",
"=.oooOooooooooo+XXXXXXXXoooXXXXooXXXXoooOOOXXOOO=.oooOooooooooo+",
"=.OoOooooooOooo+XoooXXXooXXXXXXXoXooooXXooXXooOX=.OoOooooooOooo+",
"=.oOOXooooOOOoO+ooXooooXXXooooXXXXXoXXoooXoooXoX=.oOOXooooOOOoO+",
"&.ooOOXooOOXooo+XXX.....XXXXXXoooXXooXXXXXXXXXXX&.ooOOXooOOXooo+",
"&.OooXXXoXXooOo+oXXooXX...XX.ooXXoooXXXooXXXooXX&.OooXXXoXXooOo+",
"&.OOoooXXXoOOoO@XooXoooXoo.....XXXXXXooX.XXooXXX&.OOoooXXXoOOoO@",
"&.oooooooXooOOO@XXoooXXoo..XX.X....XXX..XOoXXXXX&.oooooooXooOOO@",
"&.ooOoooooOOooo@oooXXX...ooXoOXXXX.....XXoOOXooo&.ooOoooooOOooo@",
"&.OOoooOOOoOOoo@XXooXXXXooXooXOOXXXXX.XoOOOXooXX&.OOoooOOOoOOoo@",
"&.oOOoOOooOOooo@XoXooooXXXXXXXXoOOoOXOOOXoooXXXX&.oOOoOOooOOooo@",
"$@@@@@@@@@@@@@@%XooXoXoooooXXoXXXXOOOoXoooXXXooX$@@@@@@@@@@@@@@%",
"+..............XOoXXXXXoXXXoooooXXXXXooXXXooooXXXX....XoooooXXX+",
"+.XXooXXooXXOOXOOOooXXXXooXXooXXooooXoXXoooXXXXX...oXXXXXXoXXXo+",
"+.OOXXooOoXoXXOXXXOOOoXXXXoooXXXXXXooOooOXXX.....ooXXXoooXXXooX+",
"+.XOOXOOOOoXXOOOOOOXoooXXooXoooXXXXXoXOOOO...XX.XoXXooXoXooooXX+",
"+XXXXOXXXXOOOOoooXooXXXXXXoXXXoooXOXOOOX...oXOXXXXXooXXXXXXoXXo+",
"+XXOOOOOXXXOoooXXooXXXXoooXXXXXXOOOO.....ooXOOOooooXXXooooXXXoo+",
"$XXXooXXXooXXoXXXXXoXXooXXoXXoXXXOXXOO.XXOOOOooXXXXXXooXoXXOOoX$",
"$XXooXooooXooooXoXooooXXXXXoooooXXoXXoOOOOoooOXXXXoooXXXXXOOoXX$",
"$XoXXXXXXooo%%%%%%%%%%%%%%%%%%%%####################XXXOOOX.XX.$",
"$oooXXoooXXX%;;;;;;;;;;;;;;;;;;;;;;;;;;;;;;;;;;;;;;#..XXO......$",
"$XXooooXXXoo%======================================#X.....oo.o.$",
"$oXXXXOXX...%+    *=    *=     *=     *=    *=    =#oXX.oo..X..$",
"$XooOOOOoOOO%+    *=    *=     *=     *=    *=    =#ooXX...XXX.$",
"$XXOOooXOO..%+    *=    *=     *=     *=    *=    =#XXX..ooXoX.$",
"$oOOXooooXX.%+    *=    *=     *=     *=    *=    =#o..XooXXooX$",
"$XXooXXXoooo%+    *=    *=     *=     *=    *=    =#oooooXXoooX$",
"$XXXooXXXXXX%+    *=    *=     *=     *=    *=    =#XXXXooooXXX$",
"$XoooXXooooX#+    *=    *=     *=     *=    *=    =#ooooXXXXooX$",
"$ooXXoooXoXX#+    *=    *=     *=     *=    *=    =#XXooooXooXo$",
"+XXXXXoXXXXo#+    *=    *=     *=     *=    *=    =#oXXXXoXoXXX+",
"&-----------*+    *=    *=     *=     *=    *=    =#-----------&",
"+***********O+    *=    *=     *=     *=    *=    =O***********+",
"+&***&&*&***O+    *=    *=     *=     *=    *=    =O*&****&&*&%+",
"+*&*&&***&**O+    *=    *=     *=     *=    *=    =O&*&*&&**&*%+",
"+%**&*&*&&**O+    *=    *=     *=     *=    *=    =O&&&&&**%*&%+",
"+%%*&&&&&&**O+    *=    *=     *=     *=    *=    =O&%&&*&&&%%%+",
"+%%%&*%&%&%*O+    *=    *=     *=     *=    *=    =O&&%&&&&&%&%+",
"+%&%&&%%&&%&O+    *=    *=     *=     *=    *=    =O&%%%&*&&&%%+",
"+%%&&&&%%&&%O+    *=    *=     *=     *=    *=    =O%&%%%&&&%%%+",
"+%%&&&%%&&%%O+    *=    *=     *=     *=    *=    =O%%&%&&&%&%%+",
"+%%&&&&%&%%&O+    *=    *=     *=     *=    *=    =O&%%&&&%%&&%+",
"+%&%&&&%%&%&O+    *=    *=     *=     *=    *=    =O&&&&&&&%&%%+",
"+%%&&&&&%%&&X+    *=    *=     *=     *=    *=    =X&&%&&%%&%%%+",
"+%%%&&&&%%&&X+    *=    *=     *=     *=    *=    =X&%&&%&%%%%%+",
"o%&&&&&&%&&&X+    *=    *=     *=     *=    *=    =X%%&%%%%%%%%o",
"o%%&&&&&%&&&X+    *=    *=     *=     *=    *=    =X%&%%%%%%%%%o",
"o%%&&%&&%%&&X+    ==    ==     ==     ==    ==    =X%%%$%%%%%%%o",
"o%%&%&&&&$&&X+;;;;*=;;;;*=;;;;;*=;;;;;*=;;;;*=;;;;@X%%$$%%&$%$%o",
"o%%%&%&&%$$&X@@@@@@@@@@@@@@@@@@@@@@@@@@@@@@@@@@@@@@X&$$%$%$$$%&o",
"o%%%%%&&$$%&XXXXXXXXXXXXXXXXXXOOOOOOOOOOOOOOOOOOOOOO%%$$%&%$$$%o",
"o%%$%%%&&%$&$$%$&%%$&%$&$%$$%%$%$&%&%$&&&&$%$$%$$$$%%$%$%%%$%$$o",
"o$%$$%$%%&$%#$$%%&$%%&$$%&$$$$%$&%%%%$&&&&&#$$$$$$$$$$%%$%%%$%$o",
"o%$%$$$$%$%$$#%%$$#$$$%$$$$$$$$%&%$%$%%&&&%&##$##$#$$$$$$$$%$%$o",
"o%$$$$#$$%$$##%$%$$##$$&$$$#$$$$%$$$%$%%&%&##$#$##$$##$$#$%$$$$o",
"o$$#$$#$#$$##$$$$###$$$$$##$$$$#$$#$$#$$%%$$$####$$#$$$$$#$$$$$o",
"o$$$#$##$$##$#$$#$#$##$$##$#$$#$##$####$$#$#$$$#$#####$#$##$$#$o",
"o$$###$###$##$####$$$###$$####$##$##$#$####$$$#$###$$####$###$$o",
"oooooooooooooooooooooooooooooooooooooooooooooooooooooooooooooooo"
};
