/* XPM */
static char *bone_block_side[] = {
/* columns rows colors chars-per-pixel */
"64 64 4 1 ",
"  c #DEDAC5",
". c #E1DDCA",
"X c #E6E2D2",
"o c #E9E6D4",
/* pixels */
"        .XoooooooXooooooooooooooooooooooXXXXoXXXXX.X.........   ",
"        .XoooooooXXoooooooooooooooooooooXXXooXXoXX..........    ",
"      . .XooooooooXoooooooooooooooooooooXXXoooXooXX......... .  ",
"       ..XooooooooXooooooooooooooooooooooXXooooooXX..........   ",
"       .XXoooooooooXoooooooooooooooooooooXooooooXoXX...... .    ",
"       ..XoooooooooooooooooooooooooooooooXooooooooX......       ",
"        .XXooooooooooooooooooooooooooooooXooooooooXX......      ",
"        .XXooooooooooooooooooooooooooooooXooooooooXX.....       ",
"     .  .XXoooooooooooooooooooooooooooooooooooooooXX.....       ",
"        .XXooooooooooooooooooooooooooooooooooooooooX....        ",
"     .  .XXooooooooooooooooooooooooooooooooooooooXoX....        ",
"     . ..XXXooooooooooooooooooooooooooooooooooooooXX....        ",
"      ....XXoooooooooooooooooooooooooooooooooooooXXX...         ",
"    . ....XXoooooooooooooooooooooooooooooooooooooXXX.. .        ",
"    . ....XXooooooooooooooooooooooooooooooooooooXXX.....        ",
"    ....X..XooooooooooooooooooooooooooooooooooooXXX.....  .     ",
"     ...XX.XXoooooooooooooooooooooooooooooooooooXX....... ..    ",
"    ....XXX.XoooooooooooooooooooooooooooooooooooX.X...... ..    ",
"    ...X.XX.XoooooooooooooooooooooooooooooooooooXXX......  .    ",
"    ....XXoX.oooooooooooooooooooooooooooooooooooXXX....... .    ",
"    ...XXXoX.XooooooooooooooooooooooooooooooooooXX........ ..   ",
"   ....XXXoXX.XoooooooooooooooooooooooooooooooooXX.X....... .   ",
"  .....XXXooXXooooooooooooooooooooooooooooooooooXX.X.........   ",
"  . ....XXooXXooooooooooooooooooooooooooooooooooX.XX.........   ",
"   ...X.XXXooXoooooooooooooooooooooooooooooooooXX..X.........   ",
" . ....XXXXooXoooooooooooooooooooooooooooooooooX..XX.........   ",
" ......XXXXoooXooooooooooooooooooooooooooooooooXX.X..........   ",
" .....XXXXXooooooooooooooooooooooooooooooooooooXXXX..........   ",
"......XXXXXoooooooooooooooooooooooooooooooooooXXXXX..........   ",
"......XXXXXoooooooooooooooooooooooooooooooooooXXXX...........   ",
"......XXXXXXooooooooooooooooooooooooooooooooooXXX.X.........    ",
"......XXXXXXooooooooooooooooooooooooooooooooooXXXXX.........    ",
".......XXXXXoooooooooooooooooooooooooooooooooXXXXXXX........    ",
".......X.XXXooooooooooooooooooooooooooooooooXXoXXXXX........    ",
"......X.XXXXooooooooooooooooooooooooooooooooXXoXXXXX.....X.     ",
".... ...XXXXooooooXoooooooooooooooooooooooooXooXXXXX....X..     ",
"... ...XXXXXooooooXooooooooooooooooooooooooXXoooXXoX....X..     ",
"... ...XXXXoooooooXooooooooooooooooooooooooXXoooXoXX...XX..     ",
"...  ...XXXooooooXXoooooooooooooooooooooooXXooooXoXXX..X..      ",
"..   ..XXXXooooooXXoooooooooooooooooooooooXXooooXooXX..X...     ",
"..  ...XXXoooooooX.XooooooooooooooooooooooXooooooooXX.XX..      ",
"..  ...XXXoooooooXXoooooooooooooooooooooooXoooooooXX.XXX..      ",
".   ...XXXooooooX.oooooooooooooooooooooooXooooooooXX.XXX..      ",
".   ...XXXooooooX.ooooooooooooooooooooooooooooooooXX..XX..      ",
".   . .XXXoooooXXXooooooooooooooooooooooooooooooooXX.XXX.       ",
"     ..XXXoooooX.ooooooooooooooooooooooooooooooooXX.XXXX.       ",
"     ...XXooooX..ooooooooooooooooooooooooooooooooXXXXXXX.       ",
"     ...XXooooX.XooooooooooooooooooooooooooooooooXXXXXXX..      ",
"    ....XXoooX.XoooooooooooooooooooooooooooooooooXXXXXXX.       ",
"    ....XXooo..XooooooooooooooooooooooooooooooooXXXXXXXX.       ",
"   .. ..XXooX..XooooooooooooooooooooooooooooooooXXXXXXX.        ",
"   . ...XXooX.X.oooooooooooooooooooooooooooooXooXXXXXXX.        ",
"   . ...XXoo.XX.oooooooooooooooooooooooooooooXooXXXXXXX.        ",
"     ....XoX.XXXooooooooooooooooooooooooooooXXooXXXXXXX..       ",
"    .....XX..XoXooooooooooooooooooooooooooooXXoXXXXXXXX..       ",
"    .....X..XXoXooooooooooooooooooooooooooooXXoXXXXXXX...       ",
"     ......XXooXXooooooooooooooooooooooooooXXXoXXXXX.X....  .   ",
"      . ..XXXooXXooooooooooooooooooooooooooXXoXXXXXXX....   .   ",
"     .  .XXXooooXoooooooooooooooooooooooooXXXXXXXXXX.....  ..   ",
"       ..XXoooooXoooooooooooooooooooooooooXXXXXXXXXX.... . ...  ",
"       ..XXoooooXoooooooooooooooooooooooooXXXXXXXXXX..... ....  ",
"      ..XXXoooooXXoooooooooooooooooooooooXXXXXXXXXXXX.........  ",
"       .XXooooooXXoooooooooooooooooooooooXXXXXXXXXXXX...... .   ",
"        XXoooooooXooooooooooooooooooooooXXXXXXXXXXXX........    "
};
