/* XPM */
static char *bookshelf[] = {
/* columns rows colors chars-per-pixel */
"64 64 44 1 ",
"  c #0C6B50",
". c #362A15",
"X c #9F844D",
"o c #AF8F55",
"O c #B8945F",
"+ c #2C2213",
"@ c #41311A",
"# c #556809",
"$ c #5E720D",
"% c #6B8116",
"& c #773007",
"* c #898989",
"= c #911111",
"- c #967441",
"; c #9F9F9F",
": c #A81414",
"> c #1B5D65",
", c #315B8E",
"< c #BC1616",
"1 c #2A4E7A",
"2 c #6D2E09",
"3 c #758E11",
"4 c #3163A3",
"5 c #2F5788",
"6 c #AFAEAE",
"7 c #632805",
"8 c #CE1818",
"9 c #444444",
"0 c #128565",
"q c #998D09",
"w c #0E7C5D",
"e c #494949",
"r c #A89B0A",
"t c #118E6B",
"y c gray71",
"u c #271E11",
"i c #B8AB14",
"p c #C29D62",
"a c #3F3F3F",
"s c #67502C",
"d c #897E08",
"f c #737B0D",
"g c #8F840C",
"h c #7E6237",
/* pixels */
"-XppppppppppppppOOOOppppppOOppppppppppOOOOppOOpppppOppppppppppX-",
"OOOOOppOOOOOppOOOOOOOOOOOoooooOOppOOOoooOOOOOoOOpOOooOpppOOOpOo-",
"Xo+++++++++++++++++++++++++++++++++++++++uuuuuuuuuuuuu++++++++oX",
"oO++++++++++...+++++++++++++++++++++++++++++uuuuuuu+++...+++++oX",
"XO++++++..........++++++++++++++++++++.....+++uuuu5,,4,,,1+.++X-",
"XO++......................+++++++++++.......+++uu+5,,4,,51+..+X-",
"Oo++........@@@@@.....................gqrriqgd++++5,,44,51+..+--",
"Xo+...........@@@@@@@@@@@@........@@..gqriiqgd...+5,,44,51+..+X-",
"XO.....@...@@@:<<8<<:=@@@.....@@@@@.@.gqriiqgd.@..5,,44,51+.++o-",
"XO....@..@@@@@:<<8<<:=.@@@@@...@@@%3..gqriiqgd.@..5,444,51..++XX",
"oO....@.@@@@@.:<<88<:=.@@@@@@@@@@.%3%#gqrirqgd.@@.5,444,51+.++XX",
"Xo...@@@@@@@@.:<888<:=.@@@@@@@@@@.%3%#gqiirqgd@@@.5,44,,51w0w -X",
"oo<<8<:=@.2&27:<88<<:=.@@@..@@@@.%3%$#;6yy66;*:<:=5,44,,51w0w OX",
"Xo<88<:=@@2&27:<88<<:=.@@....@@.+%3%$#;6yy66;*:<:=5,44,,51wtw OX",
"XO<88<:=@.2&27:<88<<:=5,4,,1..@.+%3%$#;6yy66;*:8:=5,44,,51wtw OX",
"XO<88<:=@.2&27:<88<<:=5,4,51...+%33%#@;6yy66;*:8:=5,444,51wtw pX",
"Xo<88<:=..2&27:<88<<:=5,4,51...+%3%$#@gqiirqgd:8:=5,444,51wtw pO",
"OO<88<:=..2&27:<88<<:=544,51...+%3%$#@gqriiqgd:8:=5,444,51wtw OX",
"Oo<88<:=.2&27.:<88<::=544,51..+%33%#.@gqriiqgd:8:=5,444,51wtw oX",
"oX<88<:=.2&27.:<88<::=544,51..+%3%%#.@gqiirqgd:8:=5,444,51wtw Xo",
"OO<<8<:=.2&27@:<88<::=544451..+%3%$#.@gqiirqgd=8:=5,44,,51wtw OO",
"XX<<8<:=.2&27@:88<<::=544451..%33%$#.@gqiirqgd=<:=5444,,51w0w XX",
"oX=<<<:&.2&27@:88<<::=5,4451..%33%#.@.gqiirqgd=8:=5444,,51w0w Oo",
"XX;6yy;*.2&77.:88<<::=5,4451..%3%$#.@.gqirqqgd=8:=5,44,551w0w oX",
"OX;6yy;*e927..:<8<<::=5,4451.%33%$#.@.gqirqqgd=<:&5,44,511w0w>XX",
"oO;6yy;*e99a..:<8<<:=&5,4,51.%3%$#.@@.gqrrqggd=<:&5,4,,511w0w>oo",
"XX=:<<:&29aa..=:<<::=&5,4551.33%$#.@@.dqrqqgdf&<:&154,5511ww >OX",
"oo=<<:=&2227@.=:<::==&5,,551$%3%$#.@.+dqrqgddf&:=&15,,5511>w >oo",
"oO=====&7227@.=======&1,5511##$$#.@..+dddddddf&==&15,55111>  >XX",
"XX&&&&&&7777..&&&&&&&&111111..###@@.++ffffffff&&&&11111111>>>>--",
"--hhhhhhhhhhh---hh---hh-hh---hhshhhhhhhh---hhh---hhhhh-----hhhh-",
"sssssssshhsssshhsssshhhhsshhsssshhsshhsshhsssssshhsssshhhhhhhhss",
"OOppOOppppppppppppOOOOOOppppOOppOOppOOppppppppppOOOOppppOOOOppoX",
"OoooOOOOOOOppppoooOOOOOooOOOOOOOOOOOOooOOpppooooOOoOOOooooOOOOoX",
"OOuuuuuuuuuuuuuuuuuuuuuuuuuuuuuuuuuuuuuuuuuuuuuuuuuuuuuuuuuuuuX-",
"XOu++....+++uuuu+++uuuuuuu++++++....+++++uuu++++uuuuuuuuuuuuuuX-",
"Xou+........+++++.++++uu$%%3%%$#+....::++++++...+++uuu++++++uuoX",
"oOu+++++............+++u$%33%%$#+.+::<::++....@...+++++..++++uoX",
"OO:<8<<<:=......5,,4,,51$%33%%$#++<<<<<:+...@@@@...........++uo-",
"XO:<8<<<:=+....+5,,44,51$%33%%$#&=:<<8<:+.@@@@....++++@@....+uX-",
"XO:<88<<:=++..++5,,44,51$%333%$#&=:<88<<:.@@@.$%%3%%$#+@...++u--",
"XO:<88<<:=++++++5,,44,51$%333%$#&=:<888<:+@@@.$%%3%%$#+@@.+++uX-",
"oo;6yy66;*w000w 5,444,51$%333%$#&=:<<88<:+@@.+$%33%%$#w00t00w oX",
"Xo;6yy66;*w0t0w 5,44,,51$%333%$#&=:<<88<::.@.+$%333%$#w0tt00w O-",
"XO;6yy66;*w0t0w 5,44,,51$%333%$#&==:<888<:.@.+$%333%$#w0ttt0w OX",
"XO;6yy66;*w0t0w 5,444,51$%333%$#+&=:<888<:+@@+$%333%$#w0ttt0w OX",
"oO:<88<<:=w0t0w 5,444,51a9eee99a+&=:<<88<::+@+$%333%$#;6yyy6;*X-",
"oO:<88<<:=w0t0w 5,444,51a9eee99a+&=:<<888<:+.+$%333%$#;6yyy6;*X-",
"Xo:<88<<:=w0t0w 5,444,51a9eee99a++&=:<888<*+.+$%333%$#;6yyy6;*p-",
"Xo:<8<<<:=w0t0w 5,44,,51a9eee99a++&=:<<8;*;*.+$%333%$#;6yyy6;*OX",
"Xo:<8<<<:=w0t0w 5,44,,51a9eee99a.+&=:<<;6;;*..$%333%$#;6yyy6;*OX",
"XX:<88<<:=w0t0w 5,44,,51a9eee99a+++&:;yyy6;;*.$%333%$#;6yyy6;*OX",
"XO:<88<<:=w0t0w ;6yy66;*a9eee99a+++&;6yyy6;;*.$%33%%$#w0ttt0w Xo",
"oo:<88<<:=w0t0w ;6yy66;*a9eee99a.++*;66yy;**:.$%33%%$#w0ttt0w Xo",
"XX:<88<<:=w0t0w ;6yy66;*$%333%$#.++*;66y;**<::$%33%%$#w0ttt0w oo",
"oO:<<8<<:=w0t0w>5,44,,51$%333%$#..+*;66**8<<::$%33%%$#w0ttt0w OX",
"Oo:<<8<<:=;6y6;*5,44,,51$%33%%$#..++*;*<<<<:::$%%3%%$#w0tt00w oO",
"XX:<<<<<:=;6y6;*5,,4,,51$%33%%$#+..+**:<<<<:::$%%3%%$#w00t0ww XX",
"OO=:<<<::&;6y6;*5,,4,,51$$%3%$$#+..+&=::<::::=#$%%%$$# w000w >oX",
"OO=:::::=&w0t0w>15,,,511#$%%$$##+.+++&=::==:=+#$$%%$## wwwww >Xo",
"Xo=======&>w0ww>15555511#$$$$$##+.+++&===&&+uu#$$$$$##>      >oo",
"XX&&&&&&&&>>>>>>11111111########+++++&&&&+uuuu########>>>>>>>>XX",
"---hhh-----hh-----hh---hh----hhhhhhhhhhhhhh---hhhhhhh---hhhhhhh-",
"sssshhhhhhsshhsssssshhsshhhhsssssshhsshhsssshhsssshhssssssssssss"
};
