/* XPM */
static char *brown_mushroom[] = {
/* columns rows colors chars-per-pixel */
"64 64 8 1 ",
"  c #4C3D33",
". c #6A4E3B",
"X c #65554A",
"o c #725643",
"O c #916D55",
"+ c #B5947D",
"@ c #CC9978",
"# c None",
/* pixels */
"################################################################",
"################################################################",
"################################################################",
"################################################################",
"################################################################",
"################################################################",
"################################################################",
"################################################################",
"################################################################",
"################################################################",
"################################################################",
"################################################################",
"################################################################",
"################################################################",
"################################################################",
"################################################################",
"################################################################",
"################################################################",
"################################################################",
"################################################################",
"################################################################",
"################################################################",
"################################################################",
"################################################################",
"################################################################",
"################################################################",
"################################################################",
"################################################################",
"################################################################",
"################################################################",
"################################################################",
"################################################################",
"#############################@@@@@@#############################",
"##########################@@@@@@@@@@@O##########################",
"########################@@@@@@@@@@@@@@OO########################",
"######################@@@@@@@@@@@@@@@@@Ooo######################",
"#####################@@@@@@@@@@@@@@@@@OOOOo#####################",
"####################O@@@@@@@@@@@@@@@@@OOOOOo####################",
"###################O@@@@@@@@@@@@@@@@@OOOOOOOo###################",
"##################OO@@@@@@@@@@@@@@@@OOOOOOOOoo##################",
"#################OOO@@@@@@@@@@@@@@@OOOOOOOOOooo#################",
"################oOOO@@@@@@@@@@@@@OOOOOOOOOOOoo.o################",
"################ooOOO@@@@@@@@@OOOOOOOOOOOOOOooo.################",
"################.oOOOO@@@@@OOOOOOOOOOOOOOOOooo..################",
"################..oOOOOOOOOOOOOoOOoOOOOOOooo.o..################",
"#################.ooOOoOOOOOOOooooOOOOOoooooo..#################",
"##################..ooOOOOoooo...o.oooo.ooo...##################",
"####################.ooOoooo..o.....oooo....####################",
"############################  X     ############################",
"############################ XXX X X############################",
"############################X X+XXX ############################",
"############################X ++X+X ############################",
"############################+X+X+++X############################",
"############################+++++++X############################",
"############################++@+++++############################",
"############################++@+++++############################",
"############################+@++++@+############################",
"############################@@++@+@+############################",
"############################@@+@@@@+############################",
"############################@@+@@@@+############################",
"############################@+@@@@++############################",
"############################@@@@@@+@############################",
"############################@@@@+@@+############################",
"############################@@@@++@@############################"
};
