/* XPM */
static char *cactus_top[] = {
/* columns rows colors chars-per-pixel */
"64 64 11 1 ",
"  c #39581A",
". c #3E5F1D",
"X c #426520",
"o c #4B7223",
"O c #527D26",
"+ c #5B8C2B",
"@ c #649832",
"# c #7C8B52",
"$ c #9FA76D",
"% c #BABF95",
"& c None",
/* pixels */
"&&&&&&&&&&&&&&&&&&&&&&&&&&&&&&&&&&&&&&&&&&&&&&&&&&&&&&&&&&&&&&&&",
"&&&&&&&&&&&&&&&&&&&&&&&&&&&&&&&&&&&&&&&&&&&&&&&&&&&&&&&&&&&&&&&&",
"&&&&&&&&&&&&&&&&&&&&&&&&&&&&&&&&&&&&&&&&&&&&&&&&&&&&&&&&&&&&&&&&",
"&&&&&&&&&&&&&&&&&&&&&&&&&&&&&&&&&&&&&&&&&&&&&&&&&&&&&&&&&&&&&&&&",
"&&&&    ...XXX..X...  .       . ..XX##X.    . .. ..XX.      &&&&",
"&&&& ..X ..XXXX..X. . ...XXo...XXooo#%$X.o   oXXXooXo.... . &&&&",
"&&&&..XX.XXooooOXXX.  XXooooOoooooooo$oOOXX  ooooXXOoooXo.. &&&&",
"&&&&X..OoXooOOOooooX XooXoOOOOOOOOOOOO$Oooo XOoOOoOOOOooXo  &&&&",
"&&&&X.Xoo++O++OX++OoXoooo++OOO++O+OOOO@@+OX oOO++@+O+o+oXo  &&&&",
"&&&&X.Xo+++++++@+@+XXo++++O++++@++++++O@@OXX+@+O@+++++Ooo.. &&&&",
"&&&&..OoO++@@+##@++OXo+++++@+++@@++@+@@+@+OoX@@+@@@+@+OOoX..&&&&",
"&&&&.XoOO+@@@@#%$++OoO@++++#++@++@++@@+++@OOO@++@@+@+++OOXX.&&&&",
"&&&&XXoOO+++@@@#%@+oOO+@++#$#@@++++@@@@+++OO@+++@@@@@+##OXo.&&&&",
"&&&&XXoO+O++@@@@$$++O++@@+$%#@@@@+@@@@@@+O+O@@+@@@+@@@$#Ooo.&&&&",
"&&&&.XoOo@+@+@+++@$OO+@@+$%+@@@@++@@##$@@++O+@++@+++@%$+OoXX&&&&",
"&&&&.Xoo@@+++@+++++++O++@$@$@@@@@++@#$%%@@@@+++#++++@$+OOOX &&&&",
"&&&&. XOO+++++++++++@++@%@+++@@@@+++@#@$+@++++#$+++@%++OOXo &&&&",
"&&&& .XoO++++++++@@++@++@@@++@+@@@+++@@+%+++++#%$+++++O+Oo  &&&&",
"&&&&  XX+O++++++@@@@@@+++@@+++@@@++@+@@@++@+@@++$+++++++Oo  &&&&",
"&&&& . XoXO+O+++@+@@@+++@@@@++@@++%@@@@O+O+@@+@++%++O@+OoO. &&&&",
"&&&&      XXOO+++@@@@+@+@@+++@@@#%$+@@++OOO@@@@@+O+OOOOo.. .&&&&",
"&&&&    XXoO+++@++@++@@@@@+#@@@#$%@$@@+OOOO@O@@+OOOOoooOoXX.&&&&",
"&&&& .##o+O+O+@+++++@@+@+##$+@@##$@@@+OOO@OO+@++++OOOOO+OoX &&&&",
"&&&& .#%O+@+@@@@++++@@@++#$%$@+@+#@@@+@O@@++@@++O+OO+O+OOo..&&&&",
"&&&&..X$%@@@@+@+++@@+++++++@%@+++@@@++@@O@@+@+@++OO++++OOo..&&&&",
"&&&&..Xoo$@+@@+++@@+@O++++@@@%++++@@+@+@@@@@@@++@@OO+O@OOoX.&&&&",
"&&&&.XXoO+@@++++@@++++OO+++@@@++@++@@@@@@@%@@+++++@OO@@@OX..&&&&",
"&&&&X.oo++@++++++@O+OOOOO+O+@+++++@@@@@@+%@@++++++OOOO+@OX. &&&&",
"&&&&XXoO+@+++++++++OO+@OOOO++++++@@@@@@@%$+@++@@@+++O+@@Oo. &&&&",
"&&&&XXOO@@++++@@+++O+O@@O#+++++++++@@+@#$#@++++@@@#+++@+Ooo &&&&",
"&&&&XXo+O+++++@+@++++@@O%$#++@++++@@@@+##+++@@@+@##$@+@+OXo.&&&&",
"&&&&XXXOo++++@@@@@+++@@%$$#+@@++++@@@++++++@+@++@#$$%@@OOOX.&&&&",
"&&&&XXXo+O++#@@@@@@+@@@$@#+@@+++@++@+++++@@@@@@++@$%+@+OOO. &&&&",
"&&&&X.oo+@+##@+@@@++@+%@@@+@++@@@@+++++@++@@+@@++@+%++++OO. &&&&",
"&&&&..oO+@@#$%@@@@@++@@+@@@@@@+@@++++@@@+O+O+@@@+++@++@@OO  &&&&",
"&&&&.XoO@@@O$$%+@@@@+++@@@+@@@@@@@++@@+O+OOO@@+@@+@@+@+@Ooo &&&&",
"&&&&..oO@+OOO+$@@@##++@@@@++@@@@@+++@@++OOO+O@@++@+@@@@@Ooo.&&&&",
"&&&&..oO+OO+++@%@##$%@@@@+@+@+@@@@+#+@@@+O@@+@++@@@@@++@Ooo.&&&&",
"&&&& .OOO+@O+@@@@@++$%@@@@+++@@@@@$##++@@@O@@#%@@@$@@@++OoXX&&&&",
"&&&& XOoO+@+@@@+@@++@@@@@+++++@+@$%$#+@@@@+@+#$%%$@@+@+oOoX.&&&&",
"&&&&.XoOO@@@@@+++++@@@@@+++@+++@$%@#+@+@@@++@@#@$+@@@+++oo .&&&&",
"&&&&X.oOOO+++@@@++@@@@@+++@@@++%+++++++@@++++@@++++@++oOoXo &&&&",
"&&&& XXoOXoO+++@@@+@@@@@+O@@+@+++++@++++@@+++++++OOooXOOoXX &&&&",
"&&&&.XoXXooOOO++@@@@@@@OOOO+@++++@@@++++@++++@++OoooXoX.X.o &&&&",
"&&&&.XXoOO++++@@@%@@@@@@OOOO+@++++@@@+++++++@+++++OOOOooOX. &&&&",
"&&&&X.ooO++@@@+$%@@@@@+@@OO+@++++++@+@+++++@@+O+O++++#+OOo. &&&&",
"&&&& .Xo++@@@@%$@@@@@++@++OO@@++@+@@@@+@++@@@@OO@+@++%#+OoX &&&&",
"&&&& .Xo++@+@@$#@@@@@+O+@+@+@++++@@$++@@+++@@+OOO@$+%$#+Ooo &&&&",
"&&&&.XoO++++@@#@@@@@@+O+%@++++@+@@@@%@@+++@+@@+O+++$$+@+Ooo &&&&",
"&&&&XXoO+++@+@@+@@@@@+o@+$%++@@++@@%$+@++@@+@+++++@++@@@OoX &&&&",
"&&&&.ooO++@+@@@@+@@@@oO+++$%@@@@@+%%+@+@+@+o+@+++@@+@@@+Oo. &&&&",
"&&&&.XoO++@+@+@$+@+@+oo+@#$##@@@@##$#@@@+++Oo+++@@+@@##@Oo. &&&&",
"&&&&..OO++@@@@++$%@+oOO+++##@+@+@@##@@+++OOXO+@@+@@@%$#+oo. &&&&",
"&&&&. oO+++@@++++$%O+XOO+++@@@++++@@@+@+++oXO@+@@@@%$#++oXX.&&&&",
"&&&&.XoOO+++++++##$OoXOo++++++++++++++++O+XXX@@+++$@#@+OOoo &&&&",
"&&&& XooOO+++OOOO#O+o XOOOOOOOO+++OO+++OO+XXO@OO++O@@OOOooX &&&&",
"&&&&  XXoOoOOOOoOOoX XXOooOOOoOOOOOoOO++OOX oOO+OOOOOOoooXo.&&&&",
"&&&&  XoXoooooXoooo  XoooXXXooooOoOXXOOXXO  ooOoOOXoXooOX. .&&&&",
"&&&& ..XXo.....XX. .  XX....X...oo....X... X XXo.....ooXo.. &&&&",
"&&&&   ..XXXXXX.     ..XXXX...  ..            ..      ..  .X&&&&",
"&&&&&&&&&&&&&&&&&&&&&&&&&&&&&&&&&&&&&&&&&&&&&&&&&&&&&&&&&&&&&&&&",
"&&&&&&&&&&&&&&&&&&&&&&&&&&&&&&&&&&&&&&&&&&&&&&&&&&&&&&&&&&&&&&&&",
"&&&&&&&&&&&&&&&&&&&&&&&&&&&&&&&&&&&&&&&&&&&&&&&&&&&&&&&&&&&&&&&&",
"&&&&&&&&&&&&&&&&&&&&&&&&&&&&&&&&&&&&&&&&&&&&&&&&&&&&&&&&&&&&&&&&"
};
