/* XPM */
static char *cake_top[] = {
/* columns rows colors chars-per-pixel */
"64 64 8 1 ",
"  c #B02132",
". c #D3212D",
"X c #E83535",
"o c #F0735A",
"O c #F6E8CB",
"+ c #FDF4D8",
"@ c #FFFDFE",
"# c None",
/* pixels */
"################################################################",
"################################################################",
"################################################################",
"################################################################",
"####OOOOOOOOOO+++@@@@@@@@@@@@@@@@@@@@@@@@@@@@@@+++OOOOOOOOOO####",
"####OOOOOOO+++@@@@@@@@@@@@@@@@@@@@@@@@@@@@@@@@@@@@+++OOOOOOO####",
"####OOOOO++@@@@@@@@@@@@@@@@@@@@@@@@@@@@@@@@@@@@@@@@@@++OOOOO####",
"####OOOO+@@@@@@@@@@@@@@@@@@@@@@@@@@@@@@@@@@@@@@@@@@@@@@+OOOO####",
"####OOO+@@@@@@@@@@@@@@@@@@@@@+OOO. +@@@@@@@@@@@@@@@@@@@@+OOO####",
"####OO+@@@@@@@@@@@@@@@@@@@@++O++  o +@@@@@@@@@@@@@@@@@@@@+OO####",
"####OO+@@@@@@@@@@@@@@@@@@@++O+@@ ..o++@@@@@@@@@@@@@@@@@@@+OO####",
"####O+@@@@@@@@@@@@@@@@@@++OO+@@@@ o@OO+@@@@@@@@@@@@@@@@@@@+O####",
"####O+@@@@@@@@@@@@@@@@@+OO+@@@@@@@@@@+O+@@@@@@@@@@@@@@@@@@+O####",
"####O+@@@@@@@@@@@@@@@@@O++@@@@@@@@@@@@+O+@@@@@@@@@@@@@@@@@+O####",
"####+@@@@@@@@@@@@  @@+O+@@@@@@@@@@@@@@@+O+@@@@@@@@@@@@@@@@@+####",
"####+@@@@@@@@@@@ .. +O+@@@@@@@@@@@@@@@@@+OO+@@@@@@@@@@@@@@@+####",
"####+@@@@@@@@@@@.   O+@@@@@@@@@@@@@@@@@@@@+OO+@@@@@@@@@@@@@+####",
"####@@@@@@@@@@@@@. O+@@@@@@@@@@@@@@@@@@@@@@++O+@@@@@@@@@@@@@####",
"####@@@@@@@@@@@@@+O+@@@@@@@@@@@@@@@@@@@@@@@@@+Ooo@@@@@@@@@@@####",
"####@@@@@@@@@@@@@+O@@@@@@@@@@@@@@@@@@@@@@@@@@@oo.o@@@@@@@@@@####",
"####@@@@@@@@@@@@@O+@@@@@@@@@@@@@@@@@@@@@@@@@@@o.  @@@@@@@@@@####",
"####@@@@@@@@@@@@+O+@@@@@@@@@@@@@@@@@@@@@@@@@@@+  @@@@@@@@@@@####",
"####@@@@@@@@@@@@O+@@@@@@@@@@@@@@@@@@@@@@@@@@@@+O+@@@@@@@@@@@####",
"####@@@@@@@@@@@+O+@@@@@@@@@@@@@+++@@@@@@@@@@@@@O+@@@@@@@@@@@####",
"####@@@@@@@@@@@+O@@@@@@@@@@@@+++++++@@@@@@@@@@@+O+@@@@@@@@@@####",
"####@@@@@@@@@@@+O@@@@@@@@@@@+++++++++@@@@@@@@@@+O+@@@@@@@@@@####",
"####@@@@@@@@@@@+O@@@@@@@@@@+..X...@+++@@@@@@@@@@+O@@@@@@@@@@####",
"####@@@@@@@@@@@+O@@@@@@@@@+X.XooX..@++@@@@@@@@@@@O+@@@@@@@@@####",
"####@@@@@  @@@@+O+@@@@@@@@..XooooX..@++@@@@@@@@@@+O@@@@@@@@@####",
"####@@@@ ..o@@@@+O@@@@@@@@.oXoooXXX @@+@@@@@@@@@@+O+@@@@@@@@####",
"####@@@@o.o @@@@@O+@@@@@@@XooooX..X @@+@@@@@@@@@@@O+@@@@@@@@####",
"####@@@@+oo@@@@@@+O+@@@@@@oXooX...  @@@@@@@@@@@@@@+O@@@@@@@@####",
"####@@@@+O+@@@@@@@+O++@@@@.oXX...X. @@@@@@@@@@@@@@+O@@@@@@@@####",
"####@@@@+O+@@@@@@@@+OO+@@@..X... .  @@@@@@@@@@@@@@+O@@@@@@@@####",
"####@@@@@+O@@@@@@@@@@+OO++@..  .. .@@@@+@@@@@@@@@. +@@@@@@@@####",
"####@@@@@@O+@@@@@@@@@@@+O++@..    @@@@+O+@@@@@@@o.o @@@@@@@@####",
"####@@@@@@O+@@@@@@@@@@@@+OO+@@@@@@@@@+O+@@@@@@@@ oo.@@@@@@@@####",
"####@@@@@@OO@@@@@@@@@@@@@++O++@@@@++OO+@@@@@@@@@@ .+@@@@@@@@####",
"####@@@@@@+O@@@@@@@@@@@@@@@+OO+++++O+@@@@@@@@@@@+O+@@@@@@@@@####",
"####@@@@@@@O+@@@@@@@@@@@@@@@++OOOOO+@@@@@@@@@@@@+O+@@@@@@@@@####",
"####@@@@@@@+O@@@@@@@@@@@@@@@@@++@@@@@@@@@@@@@@@@O+@@@@@@@@@@####",
"####@@@@@@@+O@@@@@@@@@@@@@@@@@@@@@@@@@@@@@@@@@@+O@@@@@@@@@@@####",
"####@@@@@@@+O+@@@@@@@@@@@@@@@@@@@@@@@@@@@@@@@@+O+@@@@@@@@@@@####",
"####@@@@@@@+OO@@@@@@@@@@@@@@@@@@@@@@@@@@@@@@@@+O+@@@@@@@@@@@####",
"####@@@@@@@@OO+@@@@@@@@@@@@@@@@@@@@@@@@@@@@@@+O+@@@@@@@@@@@@####",
"####@@@@@@@@+O+@@@@@@@@@@@@@@@@@@@@@@@@@@@@++O+@@@@@@@@@@@@@####",
"####@@@@@@@@@@O++@@@@@@@@@@@@@@@@@@@@oo@@@+OO+@@@@@@@@@@@@@@####",
"####+@@@@@@@@@+O++@@@@@@@@@@@@@@@@@@oo.o++O+@@@@@@@@@@@@@@@+####",
"####+@@@@@@@@@@oo++@@@@@@@@@@@@@@@++.  .OO@@@@@@@@@@@@@@@@@+####",
"####+@@@@@@@@@oo.o+@@@@@@@@@@@++++OO+  +++@@@@@@@@@@@@@@@@@+####",
"####O+@@@@@@@@.   O+@@@@@@@@@++OOO++@@@@@@@@@@@@@@@@@@@@@@+O####",
"####O+@@@@@@@@@. @+O++@@@@++OOO+++@@@@@@@@@@@@@@@@@@@@@@@@+O####",
"####O+@@@@@@@@@@@@@+OO++++OO++@@@@@@@@@@@@@@@@@@@@@@@@@@@@+O####",
"####OO+@@@@@@@@@@@@@@+OOOO+@@@@@@@@@@@@@@@@@@@@@@@@@@@@@@+OO####",
"####OO+@@@@@@@@@@@@@@@@@@@@@@@@@@@@@@@@@@@@@@@@@@@@@@@@@@+OO####",
"####OOO+@@@@@@@@@@@@@@@@@@@@@@@@@@@@@@@@@@@@@@@@@@@@@@@@+OOO####",
"####OOOO+@@@@@@@@@@@@@@@@@@@@@@@@@@@@@@@@@@@@@@@@@@@@@@+OOOO####",
"####OOOOO++@@@@@@@@@@@@@@@@@@@@@@@@@@@@@@@@@@@@@@@@@@++OOOOO####",
"####OOOOOOO+++@@@@@@@@@@@@@@@@@@@@@@@@@@@@@@@@@@@@+++OOOOOOO####",
"####OOOOOOOOOO+++@@@@@@@@@@@@@@@@@@@@@@@@@@@@@@+++OOOOOOOOOO####",
"################################################################",
"################################################################",
"################################################################",
"################################################################"
};
