/* XPM */
static char *cake_inner[] = {
/* columns rows colors chars-per-pixel */
"64 64 11 1 ",
"  c #592510",
". c #5A2C1A",
"X c #7F3A1D",
"o c #633220",
"O c #6B3420",
"+ c #97491A",
"@ c #E0D3B8",
"# c #F6E8CB",
"$ c #FDF4D8",
"% c #FFFDFE",
"& c None",
/* pixels */
"&&&&&&&&&&&&&&&&&&&&&&&&&&&&&&&&&&&&&&&&&&&&&&&&&&&&&&&&&&&&&&&&",
"&&&&&&&&&&&&&&&&&&&&&&&&&&&&&&&&&&&&&&&&&&&&&&&&&&&&&&&&&&&&&&&&",
"&&&&&&&&&&&&&&&&&&&&&&&&&&&&&&&&&&&&&&&&&&&&&&&&&&&&&&&&&&&&&&&&",
"&&&&&&&&&&&&&&&&&&&&&&&&&&&&&&&&&&&&&&&&&&&&&&&&&&&&&&&&&&&&&&&&",
"&&&&&&&&&&&&&&&&&&&&&&&&&&&&&&&&&&&&&&&&&&&&&&&&&&&&&&&&&&&&&&&&",
"&&&&&&&&&&&&&&&&&&&&&&&&&&&&&&&&&&&&&&&&&&&&&&&&&&&&&&&&&&&&&&&&",
"&&&&&&&&&&&&&&&&&&&&&&&&&&&&&&&&&&&&&&&&&&&&&&&&&&&&&&&&&&&&&&&&",
"&&&&&&&&&&&&&&&&&&&&&&&&&&&&&&&&&&&&&&&&&&&&&&&&&&&&&&&&&&&&&&&&",
"&&&&&&&&&&&&&&&&&&&&&&&&&&&&&&&&&&&&&&&&&&&&&&&&&&&&&&&&&&&&&&&&",
"&&&&&&&&&&&&&&&&&&&&&&&&&&&&&&&&&&&&&&&&&&&&&&&&&&&&&&&&&&&&&&&&",
"&&&&&&&&&&&&&&&&&&&&&&&&&&&&&&&&&&&&&&&&&&&&&&&&&&&&&&&&&&&&&&&&",
"&&&&&&&&&&&&&&&&&&&&&&&&&&&&&&&&&&&&&&&&&&&&&&&&&&&&&&&&&&&&&&&&",
"&&&&&&&&&&&&&&&&&&&&&&&&&&&&&&&&&&&&&&&&&&&&&&&&&&&&&&&&&&&&&&&&",
"&&&&&&&&&&&&&&&&&&&&&&&&&&&&&&&&&&&&&&&&&&&&&&&&&&&&&&&&&&&&&&&&",
"&&&&&&&&&&&&&&&&&&&&&&&&&&&&&&&&&&&&&&&&&&&&&&&&&&&&&&&&&&&&&&&&",
"&&&&&&&&&&&&&&&&&&&&&&&&&&&&&&&&&&&&&&&&&&&&&&&&&&&&&&&&&&&&&&&&",
"&&&&&&&&&&&&&&&&&&&&&&&&&&&&&&&&&&&&&&&&&&&&&&&&&&&&&&&&&&&&&&&&",
"&&&&&&&&&&&&&&&&&&&&&&&&&&&&&&&&&&&&&&&&&&&&&&&&&&&&&&&&&&&&&&&&",
"&&&&&&&&&&&&&&&&&&&&&&&&&&&&&&&&&&&&&&&&&&&&&&&&&&&&&&&&&&&&&&&&",
"&&&&&&&&&&&&&&&&&&&&&&&&&&&&&&&&&&&&&&&&&&&&&&&&&&&&&&&&&&&&&&&&",
"&&&&&&&&&&&&&&&&&&&&&&&&&&&&&&&&&&&&&&&&&&&&&&&&&&&&&&&&&&&&&&&&",
"&&&&&&&&&&&&&&&&&&&&&&&&&&&&&&&&&&&&&&&&&&&&&&&&&&&&&&&&&&&&&&&&",
"&&&&&&&&&&&&&&&&&&&&&&&&&&&&&&&&&&&&&&&&&&&&&&&&&&&&&&&&&&&&&&&&",
"&&&&&&&&&&&&&&&&&&&&&&&&&&&&&&&&&&&&&&&&&&&&&&&&&&&&&&&&&&&&&&&&",
"&&&&&&&&&&&&&&&&&&&&&&&&&&&&&&&&&&&&&&&&&&&&&&&&&&&&&&&&&&&&&&&&",
"&&&&&&&&&&&&&&&&&&&&&&&&&&&&&&&&&&&&&&&&&&&&&&&&&&&&&&&&&&&&&&&&",
"&&&&&&&&&&&&&&&&&&&&&&&&&&&&&&&&&&&&&&&&&&&&&&&&&&&&&&&&&&&&&&&&",
"&&&&&&&&&&&&&&&&&&&&&&&&&&&&&&&&&&&&&&&&&&&&&&&&&&&&&&&&&&&&&&&&",
"&&&&&&&&&&&&&&&&&&&&&&&&&&&&&&&&&&&&&&&&&&&&&&&&&&&&&&&&&&&&&&&&",
"&&&&&&&&&&&&&&&&&&&&&&&&&&&&&&&&&&&&&&&&&&&&&&&&&&&&&&&&&&&&&&&&",
"&&&&&&&&&&&&&&&&&&&&&&&&&&&&&&&&&&&&&&&&&&&&&&&&&&&&&&&&&&&&&&&&",
"&&&&&&&&&&&&&&&&&&&&&&&&&&&&&&&&&&&&&&&&&&&&&&&&&&&&&&&&&&&&&&&&",
"&&&&@@##%%%%%%%%%%##$$#@@@@@@@@@###$$$$###################@@&&&&",
"&&&&@#$#$$$%%%%#$####$$$##@@@#$#$#$$$$#$$$###$##$####$$$$$#@&&&&",
"&&&&#X$X#$##$%######XXX$$XXX$......$$$.....$#$$#$#X#XXXXXX$#&&&&",
"&&&&#XXXXX###$###OOXXOOXXooo..ooooo..oooo.XX$X$#$$XXXXXXXXX#&&&&",
"&&&&$XXXOXX$X$$OoooOOOOOOOooooooooooooooooooXXX#$XXOOOXXXXX$&&&&",
"&&&&$XXOOXOXX$OooooooOOOOOOOOOOoOooooooooooOooX$XOOOOOOOXXX$&&&&",
"&&&&$XXXOXOOXOooooooooOOOOOOOOOOOooOooooOoOOOoOXOOOOOOOOXXX$&&&&",
"&&&&$XXXOOOOOOoooooooOOOOOOOOOOOOoOOoooOOoOOOOOOOOOOOOOOOXX$&&&&",
"&&&&$XXOOOOOOOOOoOoooOOOOOOOOOOOOOOOoOoOOOOOOOOOOOOOOOOOOXX$&&&&",
"&&&&$XXXOOOOOOOOoOoooOOOOOOOOOOOOOOOOOoOOOOOOOOOOOOOOOOOOXX$&&&&",
"&&&&$XXXOOOoOOOOOOooOOOOOOOOOOOOOOOOOOOOOOOOOOOOOOOOOOOOOOX$&&&&",
"&&&&$XOXOOOoOOOOOOOoOOOOOOOOOOOOOOOOOOOOOOOOOOOOOOOOOOOOOOX$&&&&",
"&&&&$XOOoOoooOOOOOOoOOOOOOOoOOoOOOOOOOOOOOOOOOOOOOOOOOOOOOX$&&&&",
"&&&&$XOOoOoooOOOOOOOOOOOoOoooOoOooOOOOOOOOOOOOOOOOooOOOOOOX$&&&&",
"&&&&+OOoooooooOoOOOOOOOOoooooOooooooXXXOOOOOOOOOoOoooOOOOOO+&&&&",
"&&&&+OoooooooooooOOOOOOoooooooooooXXXXXXXOXXOOooooooooOOOOO+&&&&",
"&&&&+.  ............   ..     ............  ............  .+&&&&",
"&&&&+  .        ...   . ...     ...      . ..         .  . +&&&&",
"&&&&+XXXXXXOOOOooooooooOOooooXXXXXOOOO...O.......ooooXXXXXX+&&&&",
"&&&&+OXXOXOOOOoooOooooOoOOoooOXXOOXOOOO.OOOo..o.ooOoOOXOXXX+&&&&",
"&&&&+OOXOOOOOOOOOOOoooOOOOOoOOOOOOOOOOOOOOOOo.ooOOOOOOOOXOX+&&&&",
"&&&&+OXOOOOOOOOOOOoooOOOOOOoOOOOOOOOOOOOOOOOO.OoOOOOOOOOXOO+&&&&",
"&&&&+OOOOOOOOOOOOOOOoOOOOOOOOOOOOOOOOOOOOOOOOoOoOOOOOOOOOOO+&&&&",
"&&&&+OOOOOOOOOOOOOOOoOOOOOOOOOOOOOOOOOOOOOOOOOOoOOOOOOOOOOO+&&&&",
"&&&&+OOOOOOOOOoOOOOOOOOOOOOOOOOOOOOOOOOOOOOOOOOOOOoOOOOOOOO+&&&&",
"&&&&+OOOOOOOoOooOOOOOOOOOOOOOOOOoOoOOOOOOOOOOOOOOOoOOOOOOOO+&&&&",
"&&&&+OOOOOOOOoooOOOOOOOOOOOOOOOooOooOOOOOOOOOOOOoOoOOOOOOOO+&&&&",
"&&&&+OOOOOOOOooOoOOOOOOOOOOOOoOOooooOOOOOOOOOooOoooOOOOOOOO+&&&&",
"&&&&+OOOOOoOooooooOoOOOOOOOOOOoooooooOoOOOOOOOooooooOOOOOOO+&&&&",
"&&&&+OOOOOOoooooooooOOOOOOOOOoooooooOoooOOOOOooooooooOOOOOO+&&&&",
"&&&&+.   ............. .  ............  ..    ....  .... ..+&&&&",
"&&&&+   . ..         .. ..           .... ..    .  .   ..  +&&&&"
};
