/* XPM */
static char *campfire_log_lit[] = {
/* columns rows colors chars-per-pixel */
"64 256 21 1 ",
"  c #5F4A2B",
". c #745A36",
"X c #917142",
"o c #987849",
"O c #4C3D26",
"+ c #382B18",
"@ c #262C35",
"# c #974D2D",
"$ c #1F2329",
"% c #191B1E",
"& c #C96C03",
"* c #DFA21B",
"= c #EFCD56",
"- c #2C343E",
"; c #22272E",
": c #382414",
"> c #131416",
", c #2C3543",
"< c #3A485F",
"1 c #566378",
"2 c #F9EBAB",
/* pixels */
"    ..    ....XoooXXXX.. OO   ..  XX..XXXXX..XX..  .    ..  ..X.",
" OOO  ....XXoooXX.. .. OO ..XX.  ...XXXX  .XooXX..  ..    ..oX. ",
"O ...  XooooX.   ...  OO .XX.  ....    ..XooXX.oooXX  X..XooX. O",
"....XXooXXX..  ...   O  XXX.         ..XoooX.  ..XoXXX..XX..   .",
" ..X...X .   ...   O ..XX.  ....  O ..Xo.  ....  .   +++O    ...",
"        ....     OO ..X......  OOO .XX.   . OO  OO+++OOOOO++++O ",
"O OO ...    +++OOO   O..      OO ..X.  ...O++++O+++O...   OOO+++",
"OO  ..   O++OOO    .. OOO  OOO ... @  .@# # O+++O  .   ...  OO  ",
"   . O++O++O  OO ... .. OO+++OO $ $@  @@@###+O ...  XooX  .   OO",
"  OO+++O       %.$OO$   $  O++++O$$$@O+@$#@@  ..ooXXoX..XooX..  ",
"OOO+O  OOO ...%$O$$%&OO$*$@.  O@+=$@$@$$#@@&.-.ooX.   ....ooXX. ",
"   .  OO .. . O%$%$&*@ .**$@.@@ @=@$$$$@##&#-o-X. OOOO  ....  XX",
" ..  O    .. O .%$%%*&@.*& *@ @$@*=@$@&&@####&& -O&O& OOOO ..   ",
"..XXooooX     . %$%&&*o*& *@*@$$=*==@=*&*&##&#&&--O&&&.  OO  ...",
".    .XoooooX@ $$&@&*&$$&&**@$$@@==*==**&@&&#&*;**=&*&&*......  ",
"  ....  .@XX@o$$*$&**@$;$&*@$@$@==*==@@*@**&&**;*& =*** ..XX  ..",
"    .. @; ;@;:;;:**&@$;@@@$$@$@@=*=*@;*@*&&**&;*&&==*&  ..  ..X.",
" OOO  ..@;%%;;::::&:@@@;@$$$$@@;=**@;;@@&&**&;;;*&&=&*$*  ..oX. ",
"O ...  @@%%;;:$:;;:@@;@;@@$@;;;@*&**$@$**&$*;$;;;*$*$&=*.%ooX. O",
"....XX@@@;;%:::;$;@@;;&@&@@;;;@&*&*&$;**;*;$$$;;;;$$&&*&&X%.   .",
" ..X.@.;;;%;;:;$$#;;#@&&;;;;@@@@&**$;$$;$$&$;;=&$==&==&&&%%% ...",
"   &@ @;%;%%;:$$;#;;&#@&;@;@@;@;**&$$;$$$$$$;&===;==;$===&%+++O ",
"O O&&*;%;;*%;;$$#&;##&&&@@@;;@;*&*$;;;$;$$$$$$&=;$;;$;::%%%%O%++",
"OO&**&%%;%*%%;%$$&#;##&-;#;@@;@&&&$;$;;$;$$$$$$&$;$$$@$:::%%%O  ",
"   &**&%%%*&%%;$;;&##&--#@;;@@&#&#;$;;:;;;$;;$-;;--$@@@@%:$%>%OO",
"  @&**&&%%&**%;;$;##---#&#@;@;#&##@;$$:;;$;;$;;---;$$@@$$%:%>.  ",
"OOO@$&**$%&*;&-;-;-#-#-&&&*;;@##;;#@;$;:;;;::;&&;;$$@$%%$$:$>>. ",
"   @ $**$$$*;*;-;---#-##*&;@;;@#;;@;;;:::;&:&&&#&$&%$%$$$%%:$>XX",
" ..**&*&%$*&**&;$;-;--#*&@&@@;;@;;@@;@;:;;;&##>$&&$$&@@$%$$$:   ",
"..XX&**$%%$**;;$;;;---*&@@;@@;@;@;;@@@;;&&&#&>>>$&$&>&@@$$&:&$..",
".  @@.$%$%$*$$$$$$$$;&&&*;@;;@;;@;@@;@;&&##$>>>>>$&&%>>$$&&&$.  ",
"  ..$$$$$$$$$$$$$$$;--&***;;@;;@;@@@@;&&#>$$$>>>>>&%%%>>>$&X  ..",
",<<<<,,<<,,<#$$$*:::::,<<,<,%$<,,,,*&*####%,,<<<<,,<<,,<<<,<,<<<",
",<,$$$$<,$<&##*&:::&:**11<%%$$$,*&&**&***&##&##$$$$<,$<<,<<,<,%$",
"<,<<,$$<$<,<<#&**:*&*===,<,%$,*&&&*&&&*&***&&#&#,$$<$<,<111<%%$$",
"<<<<,$%$<<,<,,#*:::*&&=,$<$$&&&***&&*<&<&***&&#<,$%$<<,,<<,<,%$,",
"<<<%<<,,,,<<<<,<:&::1<,$<$,**=&&&&&&&*$<***&#,<%<<,,,,<$%,<,<<,<",
"%,$%$$<<,,$,,<<&*&&:<,,$,*===&&**&**&&<*=*&#%,$%$$#<,,$$$%%<111<",
"<$%$$,<<,,,,,1##&**&<,<*===&*=******=*==#$,<,$%$$###:,:,$%,<,<<,",
",<$<,<<1,1,<###<#&&<<<**=&******==***====#&$,<$<##::#:::<$$<$,<<",
"$<$$<,,,,,,<,,<<<$,,<&&=&&**=*=**===*==*&&,$$<$$<,,#::,,:,,$<$,<",
",<<<<1,<,,<,<<$,$$$,$&&&&*====**===*==*&*&$<*<<<<*,<::<<,,<,,$,,",
",<$$<<<,#,::,,$<<%%$&&*&****=22==222=***==&,**$*<&**:,<$<,,$,$<,",
",$<1$<#####:<<<$%$%$&*&***==2=222=2==*&===*=*&**&**:*$$$$,<$$,,<",
"$,$,1,,::#:<<&&$<%<,***=*==*=22222==**==**=&&**&&*::$<$$$,,,11<,",
"<<<<,,<<::<<&=&&$<*=====***=22=2=22=*&=*=*&&**&**&:<,$$<%,,,$<<,",
",%$<,,<<<$$&&&==&===*==**==2222=22=2&*==*&=**&*&*<,<,<<<<%$1,<<,",
"%$$$<,<,:*&&*&&===**==**==22====**===&==&***&*&&$<<1,,1,,<<<$$11",
"%$,,<<<:<:*,,&&##*=*==*,*==**=*&&**=*==*&&*&&&&*,<,1,1,<,<,<<<$1",
"<,<<<<:::<%<&&##*&&==*$*&,**=*&&=&&*=*=*&**&#*&*&<<1&1,<<<<<$<$,",
"11<,<<<<$%$%$&##*&&&*****,1**===*=&&===&**&&&#**&&#&&&&<<,$$<%<,",
"<<,,,,,$<<%%$,#&:*&&&*<<&&*,==*=&&*&*=*&&&###&*&*&&##&#&,<<$%$%$",
",<<<,<<$<,$$,$::::&&,%&&$&&==*&&**&&**&**&&#&,*1,**#&#&##,$<<%%$",
"$,<1<,,<<<$,,::::&&,,$$&&$==*&&**&*&&*&#&##&,,1,,,:*&&#,<<$<$$$,",
"$,,<<<,<,,$<:::,&*$<,$$$&&&*&==***&*&&###&###,111<:#<:::,,<,<$,,",
"$<,<,,,,<,<,:<::$,$,,<$&,*&&==*=*&&*&***##<<,<<,<,<:::,<<,,<,$<<",
",,<<,,,<<<<<<<,:$,,<,,<<,,*,1*&&**<,**&,<,,<<<<<<<,:<:1,,1,<,<<,",
"1<,<<<<<<<$$,1<,$<$,,,,,,,,,,<$**$*,<<1,$$$,<$$,$,<1$<<,,<<<<<<<",
"<<,$<,,,,$$,<<<<,$<$$<,,1,1<<,<$<,,$,$1$,,<$<,<$$,<,1$<<<<<<<$$,",
"<<,,<<<,$%$<<,,<<,<,%$,,,,<<,$$%$<,$1,,$$,$<<$<$<$$$<$<<,,,,$$,<",
"$111<<<,,$,,<::,,,<<<<,,,,<<$$%$,,,<,<$$111<,,$$<,$,$<<<<<,$%$<<",
"<$1<<$<,<<,<::,:,<<$,$,,,,,,<<%<<<,<,<<<$1<<,,,<$$,$,,,,<<,$$<$<",
"<$,1<$<$<<,,,::11<<$<<$,,$<$$,$$<<<<<<$<$,1<,,,<%$$,,,<<,$$$$<,$",
"%<,,<$$,<<$,:,1,1,<,$$$<<$,$,$$%,<<,$$<%<,,<,,$$$%$,,,,,$$%%,,$$",
"    ..    ....XoooXXXX.. OO   ..  XX..XXXXX..XX..  .    ..  ..X.",
" OOO  ....XXoooXX.. .. OO ..XX.  ...XXXX  .XooXX..  ..    ..oX. ",
"O ...  XooooX.   ...  OO .XX.  ....    ..XooXX.oooXX  X..XooX. O",
"....XXooXXX..  ...   O  XXX.         ..XoooX.  ..XoXXX..XX..   .",
" ..X...X .   ...   O ..XX.  ....  O ..Xo.  ....  .   +++O    ...",
"        ....     OO ..X......  OOO .XX.   . OO  OO+++OOOOO++++O ",
"O OO ...    +++OOO   O..      OO ..X.  ...O++++O+++O...   OOO+++",
"OO  ..   O++OOO    .. OOO  OOO ... @  .@& & O+++O  .   ...  OO  ",
"   . O++O++O  OO ... .. OO+++OO $ $@  @@@&&&+O ...  XooX  .   OO",
"  OO+++O       %.$OO$   $  O++++O$$$@O+@$&@@  ..ooXXoX..XooX..  ",
"OOO+O  OOO ...%$O$$%=OO$*$@.  O@+=$@$@$$&@@=.-.ooX.   ....ooXX. ",
"   .  OO .. . O%$%$=*@ .**$@.@@ @=@$$$$@&&=&-o-X. OOOO  ....  XX",
" ..  O    .. O .%$%%*=@.*= *@ @$@*=@$@==@&&*&== -O=O& OOOO ..   ",
"..XXooooX     . %$%==*o*= *@*@$$=*==@=*=*=**=*==--O&==.  OO  ...",
".    .XoooooX@ $$=@=*=$$==**@$$@@==*==**=@==*=*;**==*==*......  ",
"  ....  .@XX@o$$*$=**@$;$=*@$@$@==*==@@*@**==**;*= =*** ..XX  ..",
"    .. @; ;@;:;;:**=@$;@@@$$@$@@=*=*@;*@*==**=;*&&==*&  ..  ..X.",
" OOO  ..@;%%;;::::=:@@@;@$$$$@@;=**@;;@@==**=;;;*=&=&*$*  ..oX. ",
"O ...  @@%%;;:$:;;:@@;@;@@$@;;;@*&**$@$**=$*;$;;;*$*$&=*.%ooX. O",
"....XX@@@;;%:::;$;@@;;&@*@@;;;@&*&*&$;**;*;$$$;;;;$$&&*&*X%.   .",
" ..X.@.;;;%;;:;$$#;;#@*&;;;;@@@@&**$;$$;$$&$;;=&$==&==&&&%%% ...",
"   *@ @;%;%%;:$$;#;;&#@*;@;@@;@;**&$$;$$$$$$;&===;==;$===&%+++O ",
"O O**=;%;;*%;;$$#&;##&**@@@;;@;*&*$;;;$;$$$$$$&=;$;;$;::%%%%O%++",
"OO*==*%%;%#%%;%$$&#;##&-;#;@@;@&&*$;$;;$;$$$$$$&$;$$$@$:::%%%O  ",
"   *==*%%%*&%%;$;;&##*--#@;;@@&**&;$;;:;;;$;;$-;;--$@@@@%:$%>%OO",
"  @*==**%%&**%;;$;##---#&#@;@;&*&&@;$$:;;$;;$;;---;$$@@$$%:%>.  ",
"OOO@$*==$%&*;&-;-;-#-#-&&**;;@*&;;&@;$;:;;;::;&&;;$$@$%%$$:$>>. ",
"   @ $==$$$*;*;-;---#-##**;@;;@&;;@;;;:::;&:&**#&$&%$%$$$%%:$>XX",
" ..==*=*%$*&##&;$;-;--#*&@&@@;;@;;@@;@;:;;;&##>$*&$$&@@$%$$$:   ",
"..XX*==$%%$*#;;$;;;---*&@@;@@;@;@;;@@@;;*&&#&>>>$*$&>&@@$$&:#$..",
".  @@.$%$%$#$$$$$$$$;&&*=;@;;@;;@;@@;@;&**#$>>>>>$**%>>$$**#$.  ",
"  ..$$$$$$$$$$$$$$$;--*===;;@;;@;@@@@;**#>$$$>>>>>*%%%>>>$*X  ..",
",<<<<,,<<,,<#$$$*:::::,<<,<,%$<,,,,*&*####%,,<<<<,,<<,,<<<,<,<<<",
",<,$$$$<,$<&##*&:::&:**11<%%$$$,*&&**&***&##&##$$$$<,$<<,<<,<,%$",
"<,<<,$$<$<,<<#&**:*&*===,<,%$,*&&&*&&&*&***&&#&#,$$<$<,<111<%%$$",
"<<<<,$%$<<,<,,#*:::*&&=,$<$$&&&***&&*<&<&***&&#<,$%$<<,,<<,<,%$,",
"<<<%<<,,,,<<<<,<:&::1<,$<$,**=&&&&&&&*$<***&#,<%<<,,,,<$%,<,<<,<",
"%,$%$$<<,,$,,<<&*&&:<,,$,*===&&**&**&&<*=*&#%,$%$$#<,,$$$%%<111<",
"<$%$$,<<,,,,,1##&**&<,<*===&*=****&&=*==#$,<,$%$$###:,:,$%,<,<<,",
",<$<,<<1,1,<###<#&&<<<**=&******==*&&====#&$,<$<##::#:::<$$<$,<<",
"$<$$<,,,,,,<,,<<<$,,<&&=&&**=*=**===&==*&&,$$<$$<,,#::,,:,,$<$,<",
",<<<<1,<,,<,<<$,$$$,$&&&&*====**===*==*&*&$<*<<<<*,<::<<,,<,,$,,",
",<$$<<<,#,::,,$<<%%$&&*&****=22==222=***==&,**$*<&**:,<$<,,$,$<,",
",$<1$<#####:<<<$%$%$&*&==*==2=====2==*&=*=*=*&**&**:*$$$$,<$$,,<",
"$,$,1,,::#:<<&&$<%<,****===*=2==22==**=***=&&**&&=::$<$$$,,,11<,",
"<<<<,,<<::<<&*&&$<*==**=***=22=2=22=*&**=*&&**&==&:<,$$<%,,,$<<,",
",%$<,,<<<$#&&&=*&===*=***==2=22=2==2&****&=**&*&=<,<,<<<<%$1,<<,",
"%$$$<,<,:*##*&#===**==**==2=====**===&=*&***&=&&$<<1,,1,,<<<$$11",
"%$,,<<<:<:*,##&##*=*==*,*==**=*&&**=*==*&&*&&&&=,<,1,1,<,<,<<<$1",
"<,<<<<:::<%<&###*&&==*$*&,**=*&&=&&*=***&**&=*&=&<<1&1,<<<<<$<$,",
"11<,<<<<$%$%$&##*&&&*****,1**===*=&&==*&**&&&=**&&#&&&&<<,$$<%<,",
"<<,,,,,$<<%%$,#&:*&&&*<<&&*,==*=&&*&***&&&===&*&*&&##&#&,<<$%$%$",
",<<<,<<$<,$$,$::::&&,%&&$&&==*&&**&&**&**&&=&,*1,**#&#&##,$<<%%$",
"$,<1<,,<<<$,,::::&&,,$$&&$==*&&**&*&&*&=&==&,,1,,,:*&&#,<<$<$$$,",
"$,,<<<,<,,$<:::,&*$<,$$$=&&*&==***&*&&===&===,111<:#<:::,,<,<$,,",
"$<,<,,,,<,<,:<::$,$,,<$&,==&==*=*&&*&***==<<,<<,<,<:::,<<,,<,$<<",
",,<<,,,<<<<<<<,:$,,<,,<<,,=,1*&&**<,**&,<,,<<<<<<<,:<:1,,1,<,<<,",
"1<,<<<<<<<$$,1<,$<$,,,,,,,,,,<$**$*,<<1,$$$,<$$,$,<1$<<,,<<<<<<<",
"<<,$<,,,,$$,<<<<,$<$$<,,1,1<<,<$<,,$,$1$,,<$<,<$$,<,1$<<<<<<<$$,",
"<<,,<<<,$%$<<,,<<,<,%$,,,,<<,$$%$<,$1,,$$,$<<$<$<$$$<$<<,,,,$$,<",
"$111<<<,,$,,<::,,,<<<<,,,,<<$$%$,,,<,<$$111<,,$$<,$,$<<<<<,$%$<<",
"<$1<<$<,<<,<::,:,<<$,$,,,,,,<<%<<<,<,<<<$1<<,,,<$$,$,,,,<<,$$<$<",
"<$,1<$<$<<,,,::11<<$<<$,,$<$$,$$<<<<<<$<$,1<,,,<%$$,,,<<,$$$$<,$",
"%<,,<$$,<<$,:,1,1,<,$$$<<$,$,$$%,<<,$$<%<,,<,,$$$%$,,,,,$$%%,,$$",
"    ..    ....XoooXXXX.. OO   ..  XX..XXXXX..XX..  .    ..  ..X.",
" OOO  ....XXoooXX.. .. OO ..XX.  ...XXXX  .XooXX..  ..    ..oX. ",
"O ...  XooooX.   ...  OO .XX.  ....    ..XooXX.oooXX  X..XooX. O",
"....XXooXXX..  ...   O  XXX.         ..XoooX.  ..XoXXX..XX..   .",
" ..X...X .   ...   O ..XX.  ....  O ..Xo.  ....  .   +++O    ...",
"        ....     OO ..X......  OOO .XX.   . OO  OO+++OOOOO++++O ",
"O OO ...    +++OOO   O..      OO ..X.  ...O++++O+++O...   OOO+++",
"OO  ..   O++OOO    .. OOO  OOO ... @  .@& & O+++O  .   ...  OO  ",
"   . O++O++O  OO ... .. OO+++OO $ $@  @@@&&&+O ...  XooX  .   OO",
"  OO+++O       %.$OO$   $  O++++O$$$@O+@$&@@  ..ooXXoX..XooX..  ",
"OOO+O  OOO ...%$O$$%=OO$&$@.  O@+=$@$@$$&@@=.-.ooX.   ....ooXX. ",
"   .  OO .. . O%$%$=*@ .&&$@.@@ @=@$$$$@&&=&-o-X. OOOO  ....  XX",
" ..  O    .. O .%$%%&=@.*= *@ @$@*=@$@==@&&*&== -O=O& OOOO ..   ",
"..XXooooX     . %$%==*o*= *@*@$$=*==@=&=*=**=*==--O&==.  OO  ...",
".    .XoooooX@ $$=@=&=$$==&*@$$@@*=*==*&=@==*=*;*#==#==*......  ",
"  ....  .@XX@o$$*$=*&@$;$=*@$@$@*=*==@@*@**==**;#= =##* ..XX  ..",
"    .. @; ;@;:;;:&*=@$;@@@$$@$@@===*@;*@*==**=;*&&==*&  ..  ..X.",
" OOO  ..@;%%;;::::=:@@@;@$$$$@@;=**@;;@@==**=;;;*=&=&#$*  ..oX. ",
"O ...  @@%%;;:$:;;:@@;@;@@$@;;;@*&=*$@$**=$*;$;;;*$*$&=*.%ooX. O",
"....XX@@@;;%:::;$;@@;;&@*@@;;;@&*&=&$;**;*;$$$;;;;$$&&*&*X%.   .",
" ..X.@.;;;%;;:;$$&;;*@*&;;;;@@@@&=*$;$$;$$&$;;=&$==&==&&&%%% ...",
"   *@ @;%;%%;:$$;=;;&&@=;@;@@;@;**&$$;$$$$$$;&===;==;$===&%+++O ",
"O O*==;%;;*%;;$$&&;&=&*=@@@;;@;*&*$;;;$;$$$$$$&=;$;;$;::%%%%O%++",
"OO*=*=%%;%*%%;%$$&*;*=&-;*;@@;@&&*$;$;;$;$$$$$$&$;$$$@$:::%%%O  ",
"   *=**%%%*&%%;$;;&*&*--=@;;@@&**&;$;;:;;;$;;$-;;--$@@@@%:$%>%OO",
"  @*==**%%&**%;;$;&&---*&*@;@;&*&&@;$$:;;$;;$;;---;$$@@$$%:%>.  ",
"OOO@$*=*$%&*;&-;-;-&-*-&&=*;;@*&;;&@;$;:;;;::;&=;;$$@$%%$$:$>>. ",
"   @ $*=$$$*;*;-;---*-&&**;@;;@&;;@;;;:::;&:&**&=$=%$%$$$%%:$>XX",
" ..=**=*%$*&**&;$;-;--&*&@&@@;;@;;@@;@;:;;;==&>$*=$$&@@$%$$$:   ",
"..XX*=*$%%$**;;$;;;---*&@@;@@;@;@;;@@@;;*&==&>>>$*$&>&@@$$&:=$..",
".  @@.$%$%$#$$$$$$$$;&&*=;@;;@;;@;@@;@;&*=&$>>>>>$**%>>$$**=$.  ",
"  ..$$$$$$$$$$$$$$$;--*===;;@;;@;@@@@;**#>$$$>>>>>*%%%>>>$*X  ..",
",<<<<,,<<,,<#$$$*:::::,<<,<,%$<,,,,*&*####%,,<<<<,,<<,,<<<,<,<<<",
",<,$$$$<,$<&##*&:::&:**11<%%$$$,*&&**&*===##*##$$$$<,$<<,<<,<,%$",
"<,<<,$$<$<,<<#&**:*&*===,<,%$,=&&&*&&&*&*==*=#&#,$$<$<,<111<%%$$",
"<<<<,$%$<<,<,,#*:::*&&=,$<$$&&==**=&*<&<&*==&&#<,$%$<<,,<<,<,%$,",
"<<<%<<,,,,<<<<,<:&::1<,$<$,**==&==&&&*$<***&#,<%<<,,,,<$%,<,<<,<",
"%,$%$$<<,,$,,<<&*&&:<,,$,*===&&==&**&&<*=*&#%,$%$&&<,,$$$%%<111<",
"<$%$$,<<,,,,,1##&**&<,<*===&*=*=**&&=*==#$,<,$%$$#&&:,:,$%,<,<<,",
",<$<,<<1,1,<###<#&&<<<=*=&==****==*&&====#&$,<$<##::#:::<$$<$,<<",
"$<$$<,,,,,,<,,<<<$,,<&&=&&**=*=**===&==*&&,$$<$$<,,#::,,:,,$<$,<",
",<<<<1,<,,<,<<$,$$$,$&&&&*==2=22===*==*&*&$<*<<<<*,<::<<,,<,,$,,",
",<$$<<<,#,::,,$<<%%$&&*&****=22==222=***==&,**$*<&*&:,<$<,,$,$<,",
",$<1$<#####:<<<$%$%$&*&==*==2=====2==*&=*=*=*&**&*#:*$$$$,<$$,,<",
"$,$,1,,::#:<<&&$<%<,****===*=22=2==2**=***=&&**&##::$<$$$,,,11<,",
"<<<<,,<<::<<&*&&$<*==**=***=22=22=2=*&**=*&&**&=#&:<,$$<%,,,$<<,",
",%$<,,<<<$#&&&=*&===*=***==2=22=22=2&****&=**&*&&<,<,<<<<%$1,<<,",
"%$$$<,<,:&##&&#===**==**==2=22==**===&=*&**&&=&#$<<1,,1,,<<<$$11",
"%$,,<<<:<:&,##&##*=*==*,*==**=*&&**=*==*&&&&&&##,<,1,1,<,<,<<<$1",
"<,<<<<:::<%<&###*&&==*$*&,**=*&&=&&*=***&**&=#&&#<<1&1,<<<<<$<$,",
"11<,<<<<$%$%$&##*&&&*****,1**===*=&&==*&**&&&=##&&#&&&&<<,$$<%<,",
"<<,,,,,$<<%%$,#&:*#&#*<<&&*,==*=&&*&***&&&===&&###&##&#&,<<$%$%$",
",<<<,<<$<,$$,$::::##,%&&$&&==*&&**&&**&**&&=&,*1,&&#&#&##,$<<%%$",
"$,<1<,,<<<$,,::::&#,,$$&&$==*&&**&*&&*&=&==&,,1,,,:&&&#,<<$<$$$,",
"$,,<<<,<,,$<:::,##$<,$$$=&&*&==***&*&&===&===,111<:#<:::,,<,<$,,",
"$<,<,,,,<,<,:<::$,$,,<$&,==&==*=*&&*&***==<<,<<,<,<:::,<<,,<,$<<",
",,<<,,,<<<<<<<,:$,,<,,<<,,=,1*&&*&<,**&,<,,<<<<<<<,:<:1,,1,<,<<,",
"1<,<<<<<<<$$,1<,$<$,,,,,,,,,,<$&&$*,<<1,$$$,<$$,$,<1$<<,,<<<<<<<",
"<<,$<,,,,$$,<<<<,$<$$<,,1,1<<,<$<,,$,$1$,,<$<,<$$,<,1$<<<<<<<$$,",
"<<,,<<<,$%$<<,,<<,<,%$,,,,<<,$$%$<,$1,,$$,$<<$<$<$$$<$<<,,,,$$,<",
"$111<<<,,$,,<::,,,<<<<,,,,<<$$%$,,,<,<$$111<,,$$<,$,$<<<<<,$%$<<",
"<$1<<$<,<<,<::,:,<<$,$,,,,,,<<%<<<,<,<<<$1<<,,,<$$,$,,,,<<,$$<$<",
"<$,1<$<$<<,,,::11<<$<<$,,$<$$,$$<<<<<<$<$,1<,,,<%$$,,,<<,$$$$<,$",
"%<,,<$$,<<$,:,1,1,<,$$$<<$,$,$$%,<<,$$<%<,,<,,$$$%$,,,,,$$%%,,$$",
"    ..    ....XoooXXXX.. OO   ..  XX..XXXXX..XX..  .    ..  ..X.",
" OOO  ....XXoooXX.. .. OO ..XX.  ...XXXX  .XooXX..  ..    ..oX. ",
"O ...  XooooX.   ...  OO .XX.  ....    ..XooXX.oooXX  X..XooX. O",
"....XXooXXX..  ...   O  XXX.         ..XoooX.  ..XoXXX..XX..   .",
" ..X...X .   ...   O ..XX.  ....  O ..Xo.  ....  .   +++O    ...",
"        ....     OO ..X......  OOO .XX.   . OO  OO+++OOOOO++++O ",
"O OO ...    +++OOO   O..      OO ..X.  ...O++++O+++O...   OOO+++",
"OO  ..   O++OOO    .. OOO  OOO ... @  .@& & O+++O  .   ...  OO  ",
"   . O++O++O  OO ... .. OO+++OO $ $@  @@@&&&+O ...  XooX  .   OO",
"  OO+++O       %.$OO$   $  O++++O$$$@O+@$&@@  ..ooXXoX..XooX..  ",
"OOO+O  OOO ...%$O$$%*OO$&$@.  O@+=$@$@$$&@@=.-.ooX.   ....ooXX. ",
"   .  OO .. . O%$%$**@ .&&$@.@@ @&@$$$$@&&=&-o-X. OOOO  ....  XX",
" ..  O    .. O .%$%%&*@.** *@ @$@&=@$@==@&&*&== -O=O& OOOO ..   ",
"..XXooooX     . %$%&**o&& *@*@$$=#==@=&=*=**=*==--O&==.  OO  ...",
".    .XoooooX@ $$&@*&&$$&*&*@$$@@#&*==*&=@==*=*;*#==#==*......  ",
"  ....  .@XX@o$$*$&&&@$;$&*@$@$@*&#==@@*@**==**;#= =##* ..XX  ..",
"    .. @; ;@;:;;:&**@$;@@@$$@$@@===*@;*@*==**=;*&&==*&  ..  ..X.",
" OOO  ..@;%%;;::::*:@@@;@$$$$@@;=**@;;@@==**=;;;*=&=&#$*  ..oX. ",
"O ...  @@%%;;:$:;;:@@;@;@@$@;;;@*&=*$@$**=$*;$;;;*$*$&=*.%ooX. O",
"....XX@@@;;%:::;$;@@;;&@*@@;;;@&*&=&$;**;*;$$$;;;;$$&&*&*X%.   .",
" ..X.@.;;;%;;:;$$&;;*@*&;;;;@@@@&=*$;$$;$$&$;;=&$==&==&&&%%% ...",
"   *@ @;%;%%;:$$;&;;&=@=;@;@@;@;=*&$$;$$$$$$;&===;==;$===&%+++O ",
"O O*==;%;;=%;;$$&&;&=&==@@@;;@;==*$;;;$;$$$$$$&=;$;;$;::%%%%O%++",
"OO*=*=%%;%=%%;%$$&*;*==-;*;@@;@=&*$;$;;$;$$$$$$&$;$$$@$:::%%%O  ",
"   *=*#%%%*&%%;$;;&*&*--=@;;@@=**&;$;;:;;;$;;$-;;--$@@@@%:$%>%OO",
"  @*==&#%%&=*%;;$;&&---*=*@;@;&*&&@;$$:;;$;;$;;---;$$@@$$%:%>.  ",
"OOO@$*=*$%&*;&-;-;-&-*-&&=*;;@*&;;&@;$;:;;;::;&=;;$$@$%%$$:$>>. ",
"   @ $*=$$$*;#;-;---*-&&==;@;;@&;;@;;;:::;&:&**&=$=%$%$$$%%:$>XX",
" ..#&*=*%$*&#*&;$;-;--&*=@&@@;;@;;@@;@;:;;;==&>$*=$$&@@$%$$$:   ",
"..XX#&&$%%$##;;$;;;---**@@;@@;@;@;;@@@;;*&==&>>>$*$&>&@@$$&:=$..",
".  @@.$%$%$#$$$$$$$$;&&*=;@;;@;;@;@@;@;&*=&$>>>>>$**%>>$$**=$.  ",
"  ..$$$$$$$$$$$$$$$;--*===;;@;;@;@@@@;**&>$$$>>>>>*%%%>>>$*X  ..",
",<<<<,,<<,,<#$$$*:::::,<<,<,%$<,,,,*&*&&&&%,,<<<<,,<<,,<<<,<,<<<",
",<,$$$$<,$<&##*&:::&:**11<%%$$$,*&&**&*===&&*&#$$$$<,$<<,<<,<,%$",
"<,<<,$$<$<,<<#&**:*&*===,<,%$,=&&&*&&&*&*==*=#&#,$$<$<,<111<%%$$",
"<<<<,$%$<<,<,,#*:::*&&=,$<$$&&==**=&*<&<&*==&&#<,$%$<<,,<<,<,%$,",
"<<<%<<,,,,<<<<,<:&::1<,$<$,**==&==&&&*$<***&#,<%<<,,,,<$%,<,<<,<",
"%,$%$$<<,,$,,<<&*=&:<,,$,*===&&==&**&&<*=*&#%,$%$&&<,,$$$%%<111<",
"<$%$$,<<,,,,,1##&*=&<,<*===&*=*=**&&=*==#$,<,$%$$#&&:,:,$%,<,<<,",
",<$<,<<1,1,<###<#&&<<<=*=&==****==*&&====#&$,<$<##::#:::<$$<$,<<",
"$<$$<,,,,,,<,,<<<$,,<&&=&&**=*=**===&==*&&,$$<$$<,,#::,,:,,$<$,<",
",<<<<1,<,,<,<<$,$$$,$&&&&*==2=22==2*==*&*&$<*<<<<&,<::<<,,<,,$,,",
",<$$<<<,#,::,,$<<%%$&&*&***2222==2=2=***==&,**$*<&&&:,<$<,,$,$<,",
",$<1$<#####:<<<$%$%$&*&==*2=2===222=2*&=*=*=*&**&&#:*$$$$,<$$,,<",
"$,$,1,,::#:<<#&$<%<,****===*==222222**=***=&&**&##::$<$$$,,,11<,",
"<<<<,,<<::<<&*##$<#==**=**222==22=2=*&**=*&&**&&#&:<,$$<%,,,$<<,",
",%$<,,<<<$#&&&=##===*=***==2==2=22=2&****&=**&*&&<,<,<<<<%$1,<<,",
"%$$$<,<,:&##&&#===**==**==2=22==**===&=*&**&&=&#$<<1,,1,,<<<$$11",
"%$,,<<<:<:&,#&&##*=*==*,*==**=*&&**=*==*&&&&&&##,<,1,1,<,<,<<<$1",
"<,<<<<:::<%<&#&#*&&==*$*&,**=*&&=&&*=***&**&*#&&#<<1&1,<<<<<$<$,",
"11<,<<<<$%$%$&#&*&&&*****,1**===*=&&==*&**&&&*#**&#&&&&<<,$$<%<,",
"<<,,,,,$<<%%$,&&:*#&#*<<&&*,==*===*&***&&&*&&&&#**&##&#&,<<$%$%$",
",<<<,<<$<,$$,$::::##,%#&$&&==*&&=*&&**&**&&&&,*1,&&#*#&##,$<<%%$",
"$,<1<,,<<<$,,::::&#,,$$#&$==*&&=*&*&&*&=&*&&,,1,,,:*&&#,<<$<$$$,",
"$,,<<<,<,,$<:::,##$<,$$$#&&*&==*==&*&&===&*&&,111<:#<:::,,<,<$,,",
"$<,<,,,,<,<,:<::$,$,,<$&,##&==*===&*&***==<<,<<,<,<:::,<<,,<,$<<",
",,<<,,,<<<<<<<,:$,,<,,<<,,#,1*&&=&<,**&,<,,<<<<<<<,:<:1,,1,<,<<,",
"1<,<<<<<<<$$,1<,$<$,,,,,,,,,,<$&&$*,<<1,$$$,<$$,$,<1$<<,,<<<<<<<",
"<<,$<,,,,$$,<<<<,$<$$<,,1,1<<,<$<,,$,$1$,,<$<,<$$,<,1$<<<<<<<$$,",
"<<,,<<<,$%$<<,,<<,<,%$,,,,<<,$$%$<,$1,,$$,$<<$<$<$$$<$<<,,,,$$,<",
"$111<<<,,$,,<::,,,<<<<,,,,<<$$%$,,,<,<$$111<,,$$<,$,$<<<<<,$%$<<",
"<$1<<$<,<<,<::,:,<<$,$,,,,,,<<%<<<,<,<<<$1<<,,,<$$,$,,,,<<,$$<$<",
"<$,1<$<$<<,,,::11<<$<<$,,$<$$,$$<<<<<<$<$,1<,,,<%$$,,,<<,$$$$<,$",
"%<,,<$$,<<$,:,1,1,<,$$$<<$,$,$$%,<<,$$<%<,,<,,$$$%$,,,,,$$%%,,$$"
};
