/* XPM */
static char *cauldron_top[] = {
/* columns rows colors chars-per-pixel */
"64 64 8 1 ",
"  c #2D2D32",
". c #343438",
"X c #3F3E42",
"o c #494848",
"O c gray31",
"+ c #595858",
"@ c #676161",
"# c None",
/* pixels */
"OOOOOOO+++++++++++@@@@@@@@@@@@@@@@@@@@@@@@@@+OOOOOOOOOOOOOOOOOOO",
"OOOO++OOO++++++++++++++++@@@@@@@++@@@@@@@+++++++++OOOOOOOO++++OO",
"OO+++++OOO++++++++++++++++@@@@++++++@@++++++++++++++OOOO+++++++O",
"OO++++++OOOO++++++++++++++++++++++++++++++++++++++++++O++++++++O",
"OO++      ........................        ..  ......        ++++",
"O+++ XXXXXXXXXXXXXXXXXXXXXXXXXXXXXXXXXXXXXXXXXXXXXXXXXXXXXX ++++",
"O+++.XooooooooooooooooOOOOOOooooooOOooooOOOOOOOOOOOOooooooX.+++O",
"O+++.XoOOOOOOOOOOOOOOOOOOOOOOOOOOOOOOOOOOOOOOOOOOOOOOOOOOoX.+++O",
"O++O XOO################################################OOX.++OO",
"O++O XOO################################################OOX.+OOO",
"O+OO XOO################################################OOX.+OOO",
"O+OO XOO################################################OOX.OO+O",
"OOO+ XoO################################################OOX OO+O",
"OOO+ XoO################################################OOX O+++",
"+OOO.XOO################################################OoX O+++",
"++OO.XOO################################################OoX ++++",
"@++O.XOO################################################OoX ++++",
"@@+O.XOO################################################OoX ++++",
"@@+O XoO################################################OoX +++@",
"@@++ XoO################################################OoX +++@",
"@@++.XOO################################################OoX.++@@",
"@@++.XOO################################################OoX.++@@",
"@@@+.XOO################################################OoX.++@@",
"@@@+.XOO################################################OoX.++@@",
"@@++.XoO################################################OoX.+++@",
"@+++.XoO################################################OoX.++@@",
"@@++.XoO################################################OoX.++@@",
"@@++.XoO################################################OoX.++@@",
"@@@+.XoO################################################OOX.+@@@",
"@@@+.XoO################################################OOX.++@@",
"@@++.XOO################################################OOX.+++@",
"@@++.XOO################################################OOX.+++@",
"@@++.XOO################################################OOX.+++@",
"@@++.XOO################################################OOX.+++@",
"@@@+.XOO################################################OoX.+++@",
"@@@+.XOO################################################OoX.++@@",
"@@++.XOO################################################OoX.++@@",
"@@++.XOO################################################OoX.+@@@",
"@@++.XOO################################################OoX.++@@",
"@@++.XOO################################################OoX.++@@",
"@@++.XOO################################################OoX.+++@",
"@+++.XOO################################################OoX.+++@",
"@+++ XoO################################################OoX.++++",
"@+++ XoO################################################OoX.+++O",
"+++O XoO################################################OOX.++OO",
"+++O XoO################################################OOX.++OO",
"+++O XoO################################################OoX ++OO",
"+++O XoO################################################OoX +++O",
"++OO.XOO################################################OoX +++O",
"++OO.XOO################################################OoX +O++",
"+OOO XOO################################################OOX OO++",
"+OOO XOO################################################OOX +OO+",
"+OOO.XoO################################################OOX +OOO",
"OOOO.XoO################################################OOX +OOO",
"OO+O.XOO################################################OOX ++OO",
"O++O.XOO################################################OOX ++OO",
"+++O XoOOOOOOOOOOOOOOOOOOOOOOOOOOOOOOOOOOOOOOOOOOOOOOOOOOoX +++O",
"++++ XooooOOOOOOOOooooOOOOOOOOooooOOOOooooooOOOOOOooooOOooX +++O",
"O+++.XXXXXXXXXXXXXXXXXXXXXXXXXXXXXXXXXXXXXXXXXXXXXXXXXXXXXX.++++",
"O+++......  ..  ......................  ..      ..XX........+++O",
"OO++++++++++OOOOOOOOO+++++++++++++++++++++++++++++++++++++++++OO",
"OO+++++++++++OOOO+++++@@++++@@++++++++@@@++++++++++++++OO+++++OO",
"OOOOOO+++++++++O+++++@@@@@@@@@@@@++++@@@@@@@++++++++++OOOO++OOOO",
"OOOOOOOOO+++++++++@@@@@@@@@@@@@@@@@@@@@@@@@@@@@@++++OOOOOOOOOOOO"
};
