/* XPM */
static char *chain_command_block_front[] = {
/* columns rows colors chars-per-pixel */
"64 256 37 1 ",
"  c #182821",
". c #1C2F26",
"X c #22322B",
"o c #263930",
"O c #4E6C32",
"+ c #3C4B44",
"@ c #46554E",
"# c #822523",
"$ c #A42E2B",
"% c #CD3A36",
"& c #9B6C32",
"* c #864341",
"= c #A84B49",
"- c #A85451",
"; c #C85452",
": c #F3605C",
"> c #CE7A77",
", c #62873E",
"< c #749258",
"1 c #5F8F7A",
"2 c #C2873E",
"3 c #88AD64",
"4 c #777480",
"5 c #817E8A",
"6 c #66A388",
"7 c #76B297",
"8 c #918F99",
"9 c #83B591",
"0 c #9B99A3",
"q c #B3B0B9",
"w c #88C0A7",
"e c #A1C3B4",
"r c #A8D1BF",
"t c #BBB8C3",
"y c #C5C2CD",
"u c #C8C5D0",
"i c #D2CFDA",
/* pixels */
"77777777777ww1111ww77777777777777777777777777ww1111ww77777777777",
"7777777777ww111111ww777777777777777777777777ww111111ww7777777777",
"777777777ww11rrrr11ww7777777777777777777777ww11rrrr11ww777777777",
"77777777ww11rreerr11ww77777777777777777777ww11rreerr11ww77777777",
"7777777ww11rreeeerr11ww777777777777777777ww11rreeeerr11ww7777777",
"777777ww11rreeeeeerr11ww7777777777777777ww11rreeeeeerr11ww777777",
"77777ww11rreeeeeeeerr11ww77777777777777ww11rreeeeeeeerr11ww77777",
"7777ww11rreeeeeeeeeerr11ww777777777777ww11rreeeeeeeeeerr11ww7777",
"777ww11rreeeeeeeeeeeerr11ww7777777777ww11rreeeeeeeeeeeerr11ww777",
"77ww11rreeeeeeeeeeeeeerr11wwwwwwwwwwww11rreeeeeeeeeeeeeerr11ww77",
"7ww11rreeeeeeeeeeeeeeeerr1XXXXooooXXXX1rreeeeeeeeeeeeeeeerr11ww7",
"ww11rreeeeeeeeeeeeeeeeeer@    ....    @reeeeeeeeeeeeeeeeeerr11ww",
"w11rreeeeeeeeeeeeeeeeeee@+iiiiiiiiiiii+@eeeeeeeeeeeeeeeeeeerr11w",
"11rreeeeeeeeeeeeeeeeeee@+iuuuuuuuuuuuui+@eeeeeeeeeeeeeeeeeeerr11",
"11reeeeeeeeeeeeeeeeeee@+iuyyyyyyyyyyyyui+@eeeeeeeeeeeeeeeeeeer11",
"119eeeeeeeeeeeeeeeeee@+iuyttttttttttttyui+@eeeeeeeeeeeeeeeeee911",
"1199eeeeeeeeeeeeeeee@+iuytqqqqqqqqqqqqtyui+@eeeeeeeeeeeeeeee9911",
"61199eeeeeeeeeeeeee@+iuytqqqqqqqqqqqqqqtyui+@eeeeeeeeeeeeee99116",
"661199eeeeeeeeeeee@+iuytqqqqqqqqqqqqqqqqtyui+@eeeeeeeeeeee991166",
"7661199eeeeeeeeee@+iuytqqqqqqqqqqqqqqqqqqtyui+@eeeeeeeeee9911667",
"77661199eeeeeeee@+iuytqqqqqqqqqqqqqqqqqqqqtyui+@eeeeeeee99116677",
"777661199eeeeee@+iuytqqqqqqqqqqqqqqqqqqqqqqtyui+@eeeeee991166777",
"7777661199eeee@+iuytqqqqqqqqqq####qqqqqqqqqqtyui+@eeee9911667777",
"77777661199ee@+iuytqqqqqqqqqqq####qqqqqqqqqqqtyui+@ee99116677777",
"777777661199@+iuytqqqqqqqqqqqq####qqqqqqqqqqqqtyui+@991166777777",
"77777776611@+iuytqqqqqqqqqqqqq####qqqqqqqqqqqqqtyui+@11667777777",
"7777777766X iuytqqqqqqqqqqqqqqqqqqqqqqqqqqqqqqqq0854 X6677777777",
"7777777776X iuytqqqqqqqqqqqqqqqqqqqqqqqqqqqqqqqq0854 X6777777777",
"7777777777X iuytqqqqqqqqqqqqqqqqqqqqqqqqqqqqqqqq0854 X7777777777",
"7777777777X iuytqqqqqqqqqqqqqqqqqqqqqqqqqqqqqqqq0854 X7777777777",
"7777777777o.iuytqqqqqq2222qqqq>>>>qqqq%%%%qqqqqq0854.o7777777777",
"7777777777o.iuytqqqqqq2222qqqq>>>>qqqq%%%%qqqqqq0854.o7777777777",
"7777777777o.iuytqqqqqq2222qqqq>>>>qqqq%%%%qqqqqq0854.o7777777777",
"7777777777o.iuytqqqqqq2222qqqq>>>>qqqq%%%%qqqqqq0854.o7777777777",
"7777777777X iuytqqqqqqqqqqqqqqqqqqqqqqqqqqqqqqqq0854 X7777777777",
"7777777777X iuytqqqqqqqqqqqqqqqqqqqqqqqqqqqqqqqq0854 X7777777777",
"777777777wX iuytqqqqqqqqqqqqqqqqqqqqqqqqqqqqqqqq0854 X7777777777",
"77777777wwX iuytqqqqqqqqqqqqqqqqqqqqqqqqqqqqqqqq0854 Xww77777777",
"7777777ww11@+4580qqqqqqqqqqqqq,,,,qqqqqqqqqqqqq0854+@11ww7777777",
"777777ww11rr@+4580qqqqqqqqqqqq,,,,qqqqqqqqqqqq0854+@rr11ww777777",
"77777ww11rrrr@+4580qqqqqqqqqqq,,,,qqqqqqqqqqq0854+@rrrr11ww77777",
"7777ww11rree99@+4580qqqqqqqqqq,,,,qqqqqqqqqq0854+@99eerr11ww7777",
"777ww11rreeee99@+4580qqqqqqqqqqqqqqqqqqqqqq0854+@99eeeerr11ww777",
"77ww11rreeeeee99@+4580qqqqqqqqqqqqqqqqqqqq0854+@99eeeeeerr11ww77",
"7ww11rreeeeeeee99@+4580qqqqqqqqqqqqqqqqqq0854+@99eeeeeeeerr11ww7",
"ww11rreeeeeeeeee99@+4580qqqqqqqqqqqqqqqq0854+@99eeeeeeeeeerr11ww",
"w11rreeeeeeeeeeee99@+4580qqqqqqqqqqqqqq0854+@99eeeeeeeeeeeerr11w",
"11rreeeeeeeeeeeeee99@+4580qqqqqqqqqqqq0854+@99eeeeeeeeeeeeeerr11",
"11reeeeeeeeeeeeeeee99@+458000000000000854+@99eeeeeeeeeeeeeeeer11",
"11reeeeeeeeeeeeeeeee99@+4588888888888854+@99eeeeeeeeeeeeeeeeer11",
"11rreeeeeeeeeeeeeeeee99@+45555555555554+@99eeeeeeeeeeeeeeeeerr11",
"611rreeeeeeeeeeeeeeeee99@+444444444444+@99eeeeeeeeeeeeeeeeerr116",
"6611rreeeeeeeeeeeeeeeee99@    ....    @99eeeeeeeeeeeeeeeeerr1166",
"7661199eeeeeeeeeeeeeeee991XXXXooooXXXX199eeeeeeeeeeeeeeee9911667",
"77661199eeeeeeeeeeeeee99116666666666661199eeeeeeeeeeeeee99116677",
"777661199eeeeeeeeeeee9911667777777777661199eeeeeeeeeeee991166777",
"7777661199eeeeeeeeee991166777777777777661199eeeeeeeeee9911667777",
"77777661199eeeeeeee99116677777777777777661199eeeeeeee99116677777",
"777777661199eeeeee9911667777777777777777661199eeeeee991166777777",
"7777777661199eeee991166777777777777777777661199eeee9911667777777",
"77777777661199ee99116677777777777777777777661199ee99116677777777",
"7777777776611999911667777777777777777777777661199991166777777777",
"7777777777661111116677777777777777777777777766111111667777777777",
"7777777777766111166777777777777777777777777776611116677777777777",
"77777777777ww1111ww77777777777777777777777777ww1111ww77777777777",
"7777777777ww111111ww777777777777777777777777ww111111ww7777777777",
"777777777ww11rrrr11ww7777777777777777777777ww11rrrr11ww777777777",
"77777777ww11rreerr11ww77777777777777777777ww11rreerr11ww77777777",
"7777777ww11rreeeerr11ww777777777777777777ww11rreeeerr11ww7777777",
"777777ww11rreeeeeerr11ww7777777777777777ww11rreeeeeerr11ww777777",
"77777ww11rreeeeeeeerr11ww77777777777777ww11rreeeeeeeerr11ww77777",
"7777ww11rreeeeeeeeeerr11ww777777777777ww11rreeeeeeeeeerr11ww7777",
"777ww11rreeeeeeeeeeeerr11ww7777777777ww11rreeeeeeeeeeeerr11ww777",
"77ww11rreeeeeeeeeeeeeerr11wwwwwwwwwwww11rreeeeeeeeeeeeeerr11ww77",
"7ww11rreeeeeeeeeeeeeeeerr1XXXXooooXXXX1rreeeeeeeeeeeeeeeerr11ww7",
"ww11rreeeeeeeeeeeeeeeeeer@    ....    @reeeeeeeeeeeeeeeeeerr11ww",
"w11rreeeeeeeeeeeeeeeeeee@+iiiiiiiiiiii+@eeeeeeeeeeeeeeeeeeerr11w",
"11rreeeeeeeeeeeeeeeeeee@+iuuuuuuuuuuuui+@eeeeeeeeeeeeeeeeeeerr11",
"11reeeeeeeeeeeeeeeeeee@+iuyyyyyyyyyyyyui+@eeeeeeeeeeeeeeeeeeer11",
"119eeeeeeeeeeeeeeeeee@+iuyttttttttttttyui+@eeeeeeeeeeeeeeeeee911",
"1199eeeeeeeeeeeeeeee@+iuytqqqqqqqqqqqqtyui+@eeeeeeeeeeeeeeee9911",
"61199eeeeeeeeeeeeee@+iuytqqqqqqqqqqqqqqtyui+@eeeeeeeeeeeeee99116",
"661199eeeeeeeeeeee@+iuytqqqqqqqqqqqqqqqqtyui+@eeeeeeeeeeee991166",
"7661199eeeeeeeeee@+iuytqqqqqqqqqqqqqqqqqqtyui+@eeeeeeeeee9911667",
"77661199eeeeeeee@+iuytqqqqqqqqqqqqqqqqqqqqtyui+@eeeeeeee99116677",
"777661199eeeeee@+iuytqqqqqqqqqqqqqqqqqqqqqqtyui+@eeeeee991166777",
"7777661199eeee@+iuytqqqqqqqqqq====qqqqqqqqqqtyui+@eeee9911667777",
"77777661199ee@+iuytqqqqqqqqqqq====qqqqqqqqqqqtyui+@ee99116677777",
"777777661199@+iuytqqqqqqqqqqqq====qqqqqqqqqqqqtyui+@991166777777",
"77777776611@+iuytqqqqqqqqqqqqq====qqqqqqqqqqqqqtyui+@11667777777",
"7777777766X iuytqqqqqqqqqqqqqqqqqqqqqqqqqqqqqqqq0854 X6677777777",
"7777777776X iuytqqqqqqqqqqqqqqqqqqqqqqqqqqqqqqqq0854 X6777777777",
"7777777777X iuytqqqqqqqqqqqqqqqqqqqqqqqqqqqqqqqq0854 X7777777777",
"7777777777X iuytqqqqqqqqqqqqqqqqqqqqqqqqqqqqqqqq0854 X7777777777",
"7777777777o.iuytqqqqqq&&&&qqqq----qqqq$$$$qqqqqq0854.o7777777777",
"7777777777o.iuytqqqqqq&&&&qqqq----qqqq$$$$qqqqqq0854.o7777777777",
"7777777777o.iuytqqqqqq&&&&qqqq----qqqq$$$$qqqqqq0854.o7777777777",
"7777777777o.iuytqqqqqq&&&&qqqq----qqqq$$$$qqqqqq0854.o7777777777",
"7777777777X iuytqqqqqqqqqqqqqqqqqqqqqqqqqqqqqqqq0854 X7777777777",
"7777777777X iuytqqqqqqqqqqqqqqqqqqqqqqqqqqqqqqqq0854 X7777777777",
"777777777wX iuytqqqqqqqqqqqqqqqqqqqqqqqqqqqqqqqq0854 X7777777777",
"77777777wwX iuytqqqqqqqqqqqqqqqqqqqqqqqqqqqqqqqq0854 Xww77777777",
"7777777ww11@+4580qqqqqqqqqqqqq3333qqqqqqqqqqqqq0854+@11ww7777777",
"777777ww11rr@+4580qqqqqqqqqqqq3333qqqqqqqqqqqq0854+@rr11ww777777",
"77777ww11rrrr@+4580qqqqqqqqqqq3333qqqqqqqqqqq0854+@rrrr11ww77777",
"7777ww11rree99@+4580qqqqqqqqqq3333qqqqqqqqqq0854+@99eerr11ww7777",
"777ww11rreeee99@+4580qqqqqqqqqqqqqqqqqqqqqq0854+@99eeeerr11ww777",
"77ww11rreeeeee99@+4580qqqqqqqqqqqqqqqqqqqq0854+@99eeeeeerr11ww77",
"7ww11rreeeeeeee99@+4580qqqqqqqqqqqqqqqqqq0854+@99eeeeeeeerr11ww7",
"ww11rreeeeeeeeee99@+4580qqqqqqqqqqqqqqqq0854+@99eeeeeeeeeerr11ww",
"w11rreeeeeeeeeeee99@+4580qqqqqqqqqqqqqq0854+@99eeeeeeeeeeeerr11w",
"11rreeeeeeeeeeeeee99@+4580qqqqqqqqqqqq0854+@99eeeeeeeeeeeeeerr11",
"11reeeeeeeeeeeeeeee99@+458000000000000854+@99eeeeeeeeeeeeeeeer11",
"11reeeeeeeeeeeeeeeee99@+4588888888888854+@99eeeeeeeeeeeeeeeeer11",
"11rreeeeeeeeeeeeeeeee99@+45555555555554+@99eeeeeeeeeeeeeeeeerr11",
"611rreeeeeeeeeeeeeeeee99@+444444444444+@99eeeeeeeeeeeeeeeeerr116",
"6611rreeeeeeeeeeeeeeeee99@    ....    @99eeeeeeeeeeeeeeeeerr1166",
"7661199eeeeeeeeeeeeeeee991XXXXooooXXXX199eeeeeeeeeeeeeeee9911667",
"77661199eeeeeeeeeeeeee99116666666666661199eeeeeeeeeeeeee99116677",
"777661199eeeeeeeeeeee9911667777777777661199eeeeeeeeeeee991166777",
"7777661199eeeeeeeeee991166777777777777661199eeeeeeeeee9911667777",
"77777661199eeeeeeee99116677777777777777661199eeeeeeee99116677777",
"777777661199eeeeee9911667777777777777777661199eeeeee991166777777",
"7777777661199eeee991166777777777777777777661199eeee9911667777777",
"77777777661199ee99116677777777777777777777661199ee99116677777777",
"7777777776611999911667777777777777777777777661199991166777777777",
"7777777777661111116677777777777777777777777766111111667777777777",
"7777777777766111166777777777777777777777777776611116677777777777",
"77777777777ww1111ww77777777777777777777777777ww1111ww77777777777",
"7777777777ww111111ww777777777777777777777777ww111111ww7777777777",
"777777777ww11rrrr11ww7777777777777777777777ww11rrrr11ww777777777",
"77777777ww11rreerr11ww77777777777777777777ww11rreerr11ww77777777",
"7777777ww11rreeeerr11ww777777777777777777ww11rreeeerr11ww7777777",
"777777ww11rreeeeeerr11ww7777777777777777ww11rreeeeeerr11ww777777",
"77777ww11rreeeeeeeerr11ww77777777777777ww11rreeeeeeeerr11ww77777",
"7777ww11rreeeeeeeeeerr11ww777777777777ww11rreeeeeeeeeerr11ww7777",
"777ww11rreeeeeeeeeeeerr11ww7777777777ww11rreeeeeeeeeeeerr11ww777",
"77ww11rreeeeeeeeeeeeeerr11wwwwwwwwwwww11rreeeeeeeeeeeeeerr11ww77",
"7ww11rreeeeeeeeeeeeeeeerr1XXXXooooXXXX1rreeeeeeeeeeeeeeeerr11ww7",
"ww11rreeeeeeeeeeeeeeeeeer@    ....    @reeeeeeeeeeeeeeeeeerr11ww",
"w11rreeeeeeeeeeeeeeeeeee@+iiiiiiiiiiii+@eeeeeeeeeeeeeeeeeeerr11w",
"11rreeeeeeeeeeeeeeeeeee@+iuuuuuuuuuuuui+@eeeeeeeeeeeeeeeeeeerr11",
"11reeeeeeeeeeeeeeeeeee@+iuyyyyyyyyyyyyui+@eeeeeeeeeeeeeeeeeeer11",
"119eeeeeeeeeeeeeeeeee@+iuyttttttttttttyui+@eeeeeeeeeeeeeeeeee911",
"1199eeeeeeeeeeeeeeee@+iuytqqqqqqqqqqqqtyui+@eeeeeeeeeeeeeeee9911",
"61199eeeeeeeeeeeeee@+iuytqqqqqqqqqqqqqqtyui+@eeeeeeeeeeeeee99116",
"661199eeeeeeeeeeee@+iuytqqqqqqqqqqqqqqqqtyui+@eeeeeeeeeeee991166",
"7661199eeeeeeeeee@+iuytqqqqqqqqqqqqqqqqqqtyui+@eeeeeeeeee9911667",
"77661199eeeeeeee@+iuytqqqqqqqqqqqqqqqqqqqqtyui+@eeeeeeee99116677",
"777661199eeeeee@+iuytqqqqqqqqqqqqqqqqqqqqqqtyui+@eeeeee991166777",
"7777661199eeee@+iuytqqqqqqqqqq;;;;qqqqqqqqqqtyui+@eeee9911667777",
"77777661199ee@+iuytqqqqqqqqqqq;;;;qqqqqqqqqqqtyui+@ee99116677777",
"777777661199@+iuytqqqqqqqqqqqq;;;;qqqqqqqqqqqqtyui+@991166777777",
"77777776611@+iuytqqqqqqqqqqqqq;;;;qqqqqqqqqqqqqtyui+@11667777777",
"7777777766X iuytqqqqqqqqqqqqqqqqqqqqqqqqqqqqqqqq0854 X6677777777",
"7777777776X iuytqqqqqqqqqqqqqqqqqqqqqqqqqqqqqqqq0854 X6777777777",
"7777777777X iuytqqqqqqqqqqqqqqqqqqqqqqqqqqqqqqqq0854 X7777777777",
"7777777777X iuytqqqqqqqqqqqqqqqqqqqqqqqqqqqqqqqq0854 X7777777777",
"7777777777o.iuytqqqqqq2222qqqq****qqqq::::qqqqqq0854.o7777777777",
"7777777777o.iuytqqqqqq2222qqqq****qqqq::::qqqqqq0854.o7777777777",
"7777777777o.iuytqqqqqq2222qqqq****qqqq::::qqqqqq0854.o7777777777",
"7777777777o.iuytqqqqqq2222qqqq****qqqq::::qqqqqq0854.o7777777777",
"7777777777X iuytqqqqqqqqqqqqqqqqqqqqqqqqqqqqqqqq0854 X7777777777",
"7777777777X iuytqqqqqqqqqqqqqqqqqqqqqqqqqqqqqqqq0854 X7777777777",
"777777777wX iuytqqqqqqqqqqqqqqqqqqqqqqqqqqqqqqqq0854 X7777777777",
"77777777wwX iuytqqqqqqqqqqqqqqqqqqqqqqqqqqqqqqqq0854 Xww77777777",
"7777777ww11@+4580qqqqqqqqqqqqqOOOOqqqqqqqqqqqqq0854+@11ww7777777",
"777777ww11rr@+4580qqqqqqqqqqqqOOOOqqqqqqqqqqqq0854+@rr11ww777777",
"77777ww11rrrr@+4580qqqqqqqqqqqOOOOqqqqqqqqqqq0854+@rrrr11ww77777",
"7777ww11rree99@+4580qqqqqqqqqqOOOOqqqqqqqqqq0854+@99eerr11ww7777",
"777ww11rreeee99@+4580qqqqqqqqqqqqqqqqqqqqqq0854+@99eeeerr11ww777",
"77ww11rreeeeee99@+4580qqqqqqqqqqqqqqqqqqqq0854+@99eeeeeerr11ww77",
"7ww11rreeeeeeee99@+4580qqqqqqqqqqqqqqqqqq0854+@99eeeeeeeerr11ww7",
"ww11rreeeeeeeeee99@+4580qqqqqqqqqqqqqqqq0854+@99eeeeeeeeeerr11ww",
"w11rreeeeeeeeeeee99@+4580qqqqqqqqqqqqqq0854+@99eeeeeeeeeeeerr11w",
"11rreeeeeeeeeeeeee99@+4580qqqqqqqqqqqq0854+@99eeeeeeeeeeeeeerr11",
"11reeeeeeeeeeeeeeee99@+458000000000000854+@99eeeeeeeeeeeeeeeer11",
"11reeeeeeeeeeeeeeeee99@+4588888888888854+@99eeeeeeeeeeeeeeeeer11",
"11rreeeeeeeeeeeeeeeee99@+45555555555554+@99eeeeeeeeeeeeeeeeerr11",
"611rreeeeeeeeeeeeeeeee99@+444444444444+@99eeeeeeeeeeeeeeeeerr116",
"6611rreeeeeeeeeeeeeeeee99@    ....    @99eeeeeeeeeeeeeeeeerr1166",
"7661199eeeeeeeeeeeeeeee991XXXXooooXXXX199eeeeeeeeeeeeeeee9911667",
"77661199eeeeeeeeeeeeee99116666666666661199eeeeeeeeeeeeee99116677",
"777661199eeeeeeeeeeee9911667777777777661199eeeeeeeeeeee991166777",
"7777661199eeeeeeeeee991166777777777777661199eeeeeeeeee9911667777",
"77777661199eeeeeeee99116677777777777777661199eeeeeeee99116677777",
"777777661199eeeeee9911667777777777777777661199eeeeee991166777777",
"7777777661199eeee991166777777777777777777661199eeee9911667777777",
"77777777661199ee99116677777777777777777777661199ee99116677777777",
"7777777776611999911667777777777777777777777661199991166777777777",
"7777777777661111116677777777777777777777777766111111667777777777",
"7777777777766111166777777777777777777777777776611116677777777777",
"77777777777ww1111ww77777777777777777777777777ww1111ww77777777777",
"7777777777ww111111ww777777777777777777777777ww111111ww7777777777",
"777777777ww11rrrr11ww7777777777777777777777ww11rrrr11ww777777777",
"77777777ww11rreerr11ww77777777777777777777ww11rreerr11ww77777777",
"7777777ww11rreeeerr11ww777777777777777777ww11rreeeerr11ww7777777",
"777777ww11rreeeeeerr11ww7777777777777777ww11rreeeeeerr11ww777777",
"77777ww11rreeeeeeeerr11ww77777777777777ww11rreeeeeeeerr11ww77777",
"7777ww11rreeeeeeeeeerr11ww777777777777ww11rreeeeeeeeeerr11ww7777",
"777ww11rreeeeeeeeeeeerr11ww7777777777ww11rreeeeeeeeeeeerr11ww777",
"77ww11rreeeeeeeeeeeeeerr11wwwwwwwwwwww11rreeeeeeeeeeeeeerr11ww77",
"7ww11rreeeeeeeeeeeeeeeerr1XXXXooooXXXX1rreeeeeeeeeeeeeeeerr11ww7",
"ww11rreeeeeeeeeeeeeeeeeer@    ....    @reeeeeeeeeeeeeeeeeerr11ww",
"w11rreeeeeeeeeeeeeeeeeee@+iiiiiiiiiiii+@eeeeeeeeeeeeeeeeeeerr11w",
"11rreeeeeeeeeeeeeeeeeee@+iuuuuuuuuuuuui+@eeeeeeeeeeeeeeeeeeerr11",
"11reeeeeeeeeeeeeeeeeee@+iuyyyyyyyyyyyyui+@eeeeeeeeeeeeeeeeeeer11",
"119eeeeeeeeeeeeeeeeee@+iuyttttttttttttyui+@eeeeeeeeeeeeeeeeee911",
"1199eeeeeeeeeeeeeeee@+iuytqqqqqqqqqqqqtyui+@eeeeeeeeeeeeeeee9911",
"61199eeeeeeeeeeeeee@+iuytqqqqqqqqqqqqqqtyui+@eeeeeeeeeeeeee99116",
"661199eeeeeeeeeeee@+iuytqqqqqqqqqqqqqqqqtyui+@eeeeeeeeeeee991166",
"7661199eeeeeeeeee@+iuytqqqqqqqqqqqqqqqqqqtyui+@eeeeeeeeee9911667",
"77661199eeeeeeee@+iuytqqqqqqqqqqqqqqqqqqqqtyui+@eeeeeeee99116677",
"777661199eeeeee@+iuytqqqqqqqqqqqqqqqqqqqqqqtyui+@eeeeee991166777",
"7777661199eeee@+iuytqqqqqqqqqq;;;;qqqqqqqqqqtyui+@eeee9911667777",
"77777661199ee@+iuytqqqqqqqqqqq;;;;qqqqqqqqqqqtyui+@ee99116677777",
"777777661199@+iuytqqqqqqqqqqqq;;;;qqqqqqqqqqqqtyui+@991166777777",
"77777776611@+iuytqqqqqqqqqqqqq;;;;qqqqqqqqqqqqqtyui+@11667777777",
"7777777766X iuytqqqqqqqqqqqqqqqqqqqqqqqqqqqqqqqq0854 X6677777777",
"7777777776X iuytqqqqqqqqqqqqqqqqqqqqqqqqqqqqqqqq0854 X6777777777",
"7777777777X iuytqqqqqqqqqqqqqqqqqqqqqqqqqqqqqqqq0854 X7777777777",
"7777777777X iuytqqqqqqqqqqqqqqqqqqqqqqqqqqqqqqqq0854 X7777777777",
"7777777777o.iuytqqqqqq2222qqqq****qqqq$$$$qqqqqq0854.o7777777777",
"7777777777o.iuytqqqqqq2222qqqq****qqqq$$$$qqqqqq0854.o7777777777",
"7777777777o.iuytqqqqqq2222qqqq****qqqq$$$$qqqqqq0854.o7777777777",
"7777777777o.iuytqqqqqq2222qqqq****qqqq$$$$qqqqqq0854.o7777777777",
"7777777777X iuytqqqqqqqqqqqqqqqqqqqqqqqqqqqqqqqq0854 X7777777777",
"7777777777X iuytqqqqqqqqqqqqqqqqqqqqqqqqqqqqqqqq0854 X7777777777",
"777777777wX iuytqqqqqqqqqqqqqqqqqqqqqqqqqqqqqqqq0854 X7777777777",
"77777777wwX iuytqqqqqqqqqqqqqqqqqqqqqqqqqqqqqqqq0854 Xww77777777",
"7777777ww11@+4580qqqqqqqqqqqqq<<<<qqqqqqqqqqqqq0854+@11ww7777777",
"777777ww11rr@+4580qqqqqqqqqqqq<<<<qqqqqqqqqqqq0854+@rr11ww777777",
"77777ww11rrrr@+4580qqqqqqqqqqq<<<<qqqqqqqqqqq0854+@rrrr11ww77777",
"7777ww11rree99@+4580qqqqqqqqqq<<<<qqqqqqqqqq0854+@99eerr11ww7777",
"777ww11rreeee99@+4580qqqqqqqqqqqqqqqqqqqqqq0854+@99eeeerr11ww777",
"77ww11rreeeeee99@+4580qqqqqqqqqqqqqqqqqqqq0854+@99eeeeeerr11ww77",
"7ww11rreeeeeeee99@+4580qqqqqqqqqqqqqqqqqq0854+@99eeeeeeeerr11ww7",
"ww11rreeeeeeeeee99@+4580qqqqqqqqqqqqqqqq0854+@99eeeeeeeeeerr11ww",
"w11rreeeeeeeeeeee99@+4580qqqqqqqqqqqqqq0854+@99eeeeeeeeeeeerr11w",
"11rreeeeeeeeeeeeee99@+4580qqqqqqqqqqqq0854+@99eeeeeeeeeeeeeerr11",
"11reeeeeeeeeeeeeeee99@+458000000000000854+@99eeeeeeeeeeeeeeeer11",
"11reeeeeeeeeeeeeeeee99@+4588888888888854+@99eeeeeeeeeeeeeeeeer11",
"11rreeeeeeeeeeeeeeeee99@+45555555555554+@99eeeeeeeeeeeeeeeeerr11",
"611rreeeeeeeeeeeeeeeee99@+444444444444+@99eeeeeeeeeeeeeeeeerr116",
"6611rreeeeeeeeeeeeeeeee99@    ....    @99eeeeeeeeeeeeeeeeerr1166",
"7661199eeeeeeeeeeeeeeee991XXXXooooXXXX199eeeeeeeeeeeeeeee9911667",
"77661199eeeeeeeeeeeeee99116666666666661199eeeeeeeeeeeeee99116677",
"777661199eeeeeeeeeeee9911667777777777661199eeeeeeeeeeee991166777",
"7777661199eeeeeeeeee991166777777777777661199eeeeeeeeee9911667777",
"77777661199eeeeeeee99116677777777777777661199eeeeeeee99116677777",
"777777661199eeeeee9911667777777777777777661199eeeeee991166777777",
"7777777661199eeee991166777777777777777777661199eeee9911667777777",
"77777777661199ee99116677777777777777777777661199ee99116677777777",
"7777777776611999911667777777777777777777777661199991166777777777",
"7777777777661111116677777777777777777777777766111111667777777777",
"7777777777766111166777777777777777777777777776611116677777777777"
};
