/* XPM */
static char *chain_command_block_side[] = {
/* columns rows colors chars-per-pixel */
"64 256 45 1 ",
"  c #182821",
". c #1C2F26",
"X c #22322B",
"o c #263930",
"O c #294338",
"+ c #32463E",
"@ c #34483F",
"# c #4E6C32",
"$ c #334D42",
"% c #3C4B44",
"& c #3E5249",
"* c #46554E",
"= c #822523",
"- c #A42E2B",
"; c #A22E2C",
": c #CD3A36",
"> c #9B6C32",
", c #864341",
"< c #A84B49",
"1 c #A85451",
"2 c #C85452",
"3 c #F3605C",
"4 c #CE7A77",
"5 c #62873E",
"6 c #749258",
"7 c #5F8F7A",
"8 c #C2873E",
"9 c #88AD64",
"0 c #E8AD64",
"q c #777480",
"w c #817E8A",
"e c #66A388",
"r c #76B297",
"t c #918F99",
"y c #95929E",
"u c #83B591",
"i c #9F9DA7",
"p c #B3B0B9",
"a c #88C0A7",
"s c #A1C3B4",
"d c #A8D1BF",
"f c #BBB8C3",
"g c #C5C2CD",
"h c #CBC8D3",
"j c #D5D2DD",
/* pixels */
"rrrrrrrrrrraa7777aarrrrrrrrrrrrrrrrrrrrrrrrrraa7777aarrrrrrrrrrr",
"rrrrrrrrrraa777777aarrrrrrrrrrrrrrrrrrrrrrrraa777777aarrrrrrrrrr",
"rrrrrrrrraa77dddd77aarrrrrrrrrrrrrrrrrrrrrraa77dddd77aarrrrrrrrr",
"rrrrrrrraa77ddssdd77aarrrrrrrrrrrrrrrrrrrraa77ddssdd77aarrrrrrrr",
"rrrrrrraa77ddssssdd77aarrrrrrrrrrrrrrrrrraa77ddssssdd77aarrrrrrr",
"rrrrrraa77ddssssssdd77aarrrrrrrrrrrrrrrraa77ddssssssdd77aarrrrrr",
"rrrrraa77ddssssssssdd77aarrrrrrrrrrrrrraa77ddssssssssdd77aarrrrr",
"rrrraa77ddssssssssssdd77aarrrraaaarrrraa77ddssssssssssdd77aarrrr",
"rrraa77ddssssssssssssdd77aarra$$$$arraa77ddssssssssssssdd77aarrr",
"rraa77ddssssssssssssssdd77aaaXOOOOXaaa77ddssssssssssssssdd77aarr",
"raa77ddssssssssssssssssdd77aX jjjj Xa77ddssssssssssssssssdd77aar",
"aa77ddssssssssssssssssssdd7X jhhhhh X7ddssssssssssssssssssdd77aa",
"a77ddsssssssssssssssssssddX jhgggghh Xddsssssssssssssssssssdd77a",
"77ddsssssssssssssssssssdd* jhgffffghh *ddsssssssssssssssssssdd77",
"77dsssssssssssssssssssdd*%jhgfppppfghh%*ddsssssssssssssssssssd77",
"77ussssssssssssssssssdd*%jhgfppppppfghh%*ddssssssssssssssssssu77",
"77uussssssssssssssssdd*%jhgfppppppppfghh%*ddssssssssssssssssuu77",
"e77uussssssssssssssdd*%jhgfppppppppppfghh%*ddssssssssssssssuu77e",
"ee77uussssssssssssuu*%jhgfppppppppppppfghh%*uussssssssssssuu77ee",
"ree77uussssssssssuu*%jhgfppppppppppppppfghh%*uussssssssssuu77eer",
"rree77uussssssssuu*%jhgfppppppppppppppppfghh%*uussssssssuu77eerr",
"rrree77uussssssuu*%jhgfppppppppppppppppppfghh%*uussssssuu77eerrr",
"rrrree77uussssuu*%jhgfpppppppp2222ppppppppfghh%*uussssuu77eerrrr",
"rrrrree77uussuu*%jhgfppppppppp2222pppppppppfghh%*uussuu77eerrrrr",
"rrrrrree77uuuu*%jhgfpppppppppp2222ppppppppppfghh%*uuuu77eerrrrrr",
"rrrrrrree77uu*%jhgfppppppppppp2222pppppppppppfghh%*uu77eerrrrrrr",
"rrrrrrrree77*%jhgfppppppppppppppppppppppppppppfghh%*77eerrrrrrrr",
"rrrrrrrrree*%jhgfppppppppppppppppppppppppppppppfghh%*eerrrrrrrrr",
"rrrrrrrrrrX jhgfppppppppppppppppppppppppppppppppfghw Xrrrrrrrrrr",
"rrrrrrrrrrX jhgfpppppppppppppppppppppppppppppppppfwq Xrrrrrrrrrr",
"rrrrrrrrrrX jhgfpppppp8888pppp,,,,pppp3333ppppppptwq Xrrrrrrrrrr",
"rrrrrrrrrrX jhgfpppppp8888pppp,,,,pppp3333ppppppytwq Xrrrrrrrrrr",
"rrrrrrrrrro.jhgfpppppp8888pppp,,,,pppp3333ppppppytwq.orrrrrrrrrr",
"rrrrrrrrrro.jhgfpppppp8888pppp,,,,pppp3333ppppppytwq.orrrrrrrrrr",
"rrrrrrrrrro.jhgfppppppppppppppppppppppppppppppppytwq.orrrrrrrrrr",
"rrrrrrrrrro.jhgfppppppppppppppppppppppppppppppppytwq.orrrrrrrrrr",
"rrrrrrrrraX jhgfppppppppppppppppppppppppppppppppytwq Xrrrrrrrrrr",
"rrrrrrrraaX jhgfppppppppppppppppppppppppppppppppytwq Xaarrrrrrrr",
"rrrrrrraa7X jhgfpppppp2222pppp,,,,pppp5555ppppppytwq X7aarrrrrrr",
"rrrrrraa77X jhgfpppppp2222pppp,,,,pppp5555ppppppytwq X77aarrrrrr",
"rrrrraa77d*%jhgfpppppp2222pppp,,,,pppp5555ppppppytwq%*d77aarrrrr",
"rrrraa77dd*%jhgfpppppp2222pppp,,,,pppp5555ppppppytwq%*dd77aarrrr",
"rrraa77dds*%jhgfppppppppppppppppppppppppppppppppytwq%*sdd77aarrr",
"rraa77ddss*%jhgfppppppppppppppppppppppppppppppppytwq%*ssdd77aarr",
"raa77ddsss*%jhgfppppppppppppppppppppppppppppppppytwq%*sssdd77aar",
"aa77ddssss*%jhgfppppppppppppppppppppppppppppppppytwq%*ssssdd77aa",
"a77ddsssss*%jhgfppppppppppppppppppppppppppppppppytwq%*sssssdd77a",
"77ddssssss*%jhgfppppppppppppppppppppppppppppppppytwq%*ssssssdd77",
"77dsssssss*%jhgfppppppppppppppppppppppppppppppppytwq%*sssssssd77",
"77dsssssss*%jhgfppppppppppppppppppppppppppppppppytwq%*sssssssd77",
"77ddssssss*%jhgiyyyyyyyyyyyyyyyyyyyyyyyyyyyyyyyyytwq%*ssssssdd77",
"e77ddsssss*%jhitttttttttttttttttttttttttttttttttttwq%*sssssdd77e",
"ee77ddssss*%giwwwwwwwwwwwwwwwwwwwwwwwwwwwwwwwwwwwwwq%*ssssdd77ee",
"ree77uusss*%itqqqqqqqqqqqqqqqqqqqqqqqqqqqqqqqqqqqqqq%*sssuu77eer",
"rree77uuss*%%%%%%%%%%%@@@@    ....    %%%%%%%%%%%%%%%*ssuu77eerr",
"rrree77uusu***********&&&&XXXX++++XXXX***************usuu77eerrr",
"rrrree77uuuuuuuuuuuuuu77eerrrrrrrrrrrree77uuuuuuuuuuuuuu77eerrrr",
"rrrrree77uuuuuuuuuuuu77eerrrrrrrrrrrrrree77uuuuuuuuuuuu77eerrrrr",
"rrrrrree77uuuuuuuuuu77eerrrrrrrrrrrrrrrree77uuuuuuuuuu77eerrrrrr",
"rrrrrrree77uuuuuuuu77eerrrrrrrrrrrrrrrrrree77uuuuuuuu77eerrrrrrr",
"rrrrrrrree77uuuuuu77eerrrrrrrrrrrrrrrrrrrree77uuuuuu77eerrrrrrrr",
"rrrrrrrrree77uuuu77eerrrrrrrrrrrrrrrrrrrrrree77uuuu77eerrrrrrrrr",
"rrrrrrrrrree777777eerrrrrrrrrrrrrrrrrrrrrrrree777777eerrrrrrrrrr",
"rrrrrrrrrrree7777eerrrrrrrrrrrrrrrrrrrrrrrrrree7777eerrrrrrrrrrr",
"rrrrrrrrrrraa7777aarrrrrrrrrrrrrrrrrrrrrrrrrraa7777aarrrrrrrrrrr",
"rrrrrrrrrraa777777aarrrrrrrrrrrrrrrrrrrrrrrraa777777aarrrrrrrrrr",
"rrrrrrrrraa77dddd77aarrrrrrrrrrrrrrrrrrrrrraa77dddd77aarrrrrrrrr",
"rrrrrrrraa77ddssdd77aarrrrrrrrrrrrrrrrrrrraa77ddssdd77aarrrrrrrr",
"rrrrrrraa77ddssssdd77aarrrrrrrrrrrrrrrrrraa77ddssssdd77aarrrrrrr",
"rrrrrraa77ddssssssdd77aarrrrrrrrrrrrrrrraa77ddssssssdd77aarrrrrr",
"rrrrraa77ddssssssssdd77aarrrrrrrrrrrrrraa77ddssssssssdd77aarrrrr",
"rrrraa77ddssssssssssdd77aarrrraaaarrrraa77ddssssssssssdd77aarrrr",
"rrraa77ddssssssssssssdd77aarra$$$$arraa77ddssssssssssssdd77aarrr",
"rraa77ddssssssssssssssdd77aaaXOOOOXaaa77ddssssssssssssssdd77aarr",
"raa77ddssssssssssssssssdd77aX jjjj Xa77ddssssssssssssssssdd77aar",
"aa77ddssssssssssssssssssdd7X jhhhhh X7ddssssssssssssssssssdd77aa",
"a77ddsssssssssssssssssssddX jhgggghh Xddsssssssssssssssssssdd77a",
"77ddsssssssssssssssssssdd* jhgffffghh *ddsssssssssssssssssssdd77",
"77dsssssssssssssssssssdd*%jhgfppppfghh%*ddsssssssssssssssssssd77",
"77ussssssssssssssssssdd*%jhgfppppppfghh%*ddssssssssssssssssssu77",
"77uussssssssssssssssdd*%jhgfppppppppfghh%*ddssssssssssssssssuu77",
"e77uussssssssssssssdd*%jhgfppppppppppfghh%*ddssssssssssssssuu77e",
"ee77uussssssssssssuu*%jhgfppppppppppppfghh%*uussssssssssssuu77ee",
"ree77uussssssssssuu*%jhgfppppppppppppppfghh%*uussssssssssuu77eer",
"rree77uussssssssuu*%jhgfppppppppppppppppfghh%*uussssssssuu77eerr",
"rrree77uussssssuu*%jhgfppppppppppppppppppfghh%*uussssssuu77eerrr",
"rrrree77uussssuu*%jhgfpppppppp;;;;ppppppppfghh%*uussssuu77eerrrr",
"rrrrree77uussuu*%jhgfppppppppp;;;;pppppppppfghh%*uussuu77eerrrrr",
"rrrrrree77uuuu*%jhgfpppppppppp;;;;ppppppppppfghh%*uuuu77eerrrrrr",
"rrrrrrree77uu*%jhgfppppppppppp;;;;pppppppppppfghh%*uu77eerrrrrrr",
"rrrrrrrree77*%jhgfppppppppppppppppppppppppppppfghh%*77eerrrrrrrr",
"rrrrrrrrree*%jhgfppppppppppppppppppppppppppppppfghh%*eerrrrrrrrr",
"rrrrrrrrrrX jhgfppppppppppppppppppppppppppppppppfghw Xrrrrrrrrrr",
"rrrrrrrrrrX jhgfpppppppppppppppppppppppppppppppppfwq Xrrrrrrrrrr",
"rrrrrrrrrrX jhgfpppppp8888pppp,,,,pppp::::ppppppptwq Xrrrrrrrrrr",
"rrrrrrrrrrX jhgfpppppp8888pppp,,,,pppp::::ppppppytwq Xrrrrrrrrrr",
"rrrrrrrrrro.jhgfpppppp8888pppp,,,,pppp::::ppppppytwq.orrrrrrrrrr",
"rrrrrrrrrro.jhgfpppppp8888pppp,,,,pppp::::ppppppytwq.orrrrrrrrrr",
"rrrrrrrrrro.jhgfppppppppppppppppppppppppppppppppytwq.orrrrrrrrrr",
"rrrrrrrrrro.jhgfppppppppppppppppppppppppppppppppytwq.orrrrrrrrrr",
"rrrrrrrrraX jhgfppppppppppppppppppppppppppppppppytwq Xrrrrrrrrrr",
"rrrrrrrraaX jhgfppppppppppppppppppppppppppppppppytwq Xaarrrrrrrr",
"rrrrrrraa7X jhgfpppppp====pppp4444pppp9999ppppppytwq X7aarrrrrrr",
"rrrrrraa77X jhgfpppppp====pppp4444pppp9999ppppppytwq X77aarrrrrr",
"rrrrraa77d*%jhgfpppppp====pppp4444pppp9999ppppppytwq%*d77aarrrrr",
"rrrraa77dd*%jhgfpppppp====pppp4444pppp9999ppppppytwq%*dd77aarrrr",
"rrraa77dds*%jhgfppppppppppppppppppppppppppppppppytwq%*sdd77aarrr",
"rraa77ddss*%jhgfppppppppppppppppppppppppppppppppytwq%*ssdd77aarr",
"raa77ddsss*%jhgfppppppppppppppppppppppppppppppppytwq%*sssdd77aar",
"aa77ddssss*%jhgfppppppppppppppppppppppppppppppppytwq%*ssssdd77aa",
"a77ddsssss*%jhgfppppppppppppppppppppppppppppppppytwq%*sssssdd77a",
"77ddssssss*%jhgfppppppppppppppppppppppppppppppppytwq%*ssssssdd77",
"77dsssssss*%jhgfppppppppppppppppppppppppppppppppytwq%*sssssssd77",
"77dsssssss*%jhgfppppppppppppppppppppppppppppppppytwq%*sssssssd77",
"77ddssssss*%jhgiyyyyyyyyyyyyyyyyyyyyyyyyyyyyyyyyytwq%*ssssssdd77",
"e77ddsssss*%jhitttttttttttttttttttttttttttttttttttwq%*sssssdd77e",
"ee77ddssss*%giwwwwwwwwwwwwwwwwwwwwwwwwwwwwwwwwwwwwwq%*ssssdd77ee",
"ree77uusss*%itqqqqqqqqqqqqqqqqqqqqqqqqqqqqqqqqqqqqqq%*sssuu77eer",
"rree77uuss*%%%%%%%%%%%@@@@    ....    %%%%%%%%%%%%%%%*ssuu77eerr",
"rrree77uusu***********&&&&XXXX++++XXXX***************usuu77eerrr",
"rrrree77uuuuuuuuuuuuuu77eerrrrrrrrrrrree77uuuuuuuuuuuuuu77eerrrr",
"rrrrree77uuuuuuuuuuuu77eerrrrrrrrrrrrrree77uuuuuuuuuuuu77eerrrrr",
"rrrrrree77uuuuuuuuuu77eerrrrrrrrrrrrrrrree77uuuuuuuuuu77eerrrrrr",
"rrrrrrree77uuuuuuuu77eerrrrrrrrrrrrrrrrrree77uuuuuuuu77eerrrrrrr",
"rrrrrrrree77uuuuuu77eerrrrrrrrrrrrrrrrrrrree77uuuuuu77eerrrrrrrr",
"rrrrrrrrree77uuuu77eerrrrrrrrrrrrrrrrrrrrrree77uuuu77eerrrrrrrrr",
"rrrrrrrrrree777777eerrrrrrrrrrrrrrrrrrrrrrrree777777eerrrrrrrrrr",
"rrrrrrrrrrree7777eerrrrrrrrrrrrrrrrrrrrrrrrrree7777eerrrrrrrrrrr",
"rrrrrrrrrrraa7777aarrrrrrrrrrrrrrrrrrrrrrrrrraa7777aarrrrrrrrrrr",
"rrrrrrrrrraa777777aarrrrrrrrrrrrrrrrrrrrrrrraa777777aarrrrrrrrrr",
"rrrrrrrrraa77dddd77aarrrrrrrrrrrrrrrrrrrrrraa77dddd77aarrrrrrrrr",
"rrrrrrrraa77ddssdd77aarrrrrrrrrrrrrrrrrrrraa77ddssdd77aarrrrrrrr",
"rrrrrrraa77ddssssdd77aarrrrrrrrrrrrrrrrrraa77ddssssdd77aarrrrrrr",
"rrrrrraa77ddssssssdd77aarrrrrrrrrrrrrrrraa77ddssssssdd77aarrrrrr",
"rrrrraa77ddssssssssdd77aarrrrrrrrrrrrrraa77ddssssssssdd77aarrrrr",
"rrrraa77ddssssssssssdd77aarrrraaaarrrraa77ddssssssssssdd77aarrrr",
"rrraa77ddssssssssssssdd77aarra$$$$arraa77ddssssssssssssdd77aarrr",
"rraa77ddssssssssssssssdd77aaaXOOOOXaaa77ddssssssssssssssdd77aarr",
"raa77ddssssssssssssssssdd77aX jjjj Xa77ddssssssssssssssssdd77aar",
"aa77ddssssssssssssssssssdd7X jhhhhh X7ddssssssssssssssssssdd77aa",
"a77ddsssssssssssssssssssddX jhgggghh Xddsssssssssssssssssssdd77a",
"77ddsssssssssssssssssssdd* jhgffffghh *ddsssssssssssssssssssdd77",
"77dsssssssssssssssssssdd*%jhgfppppfghh%*ddsssssssssssssssssssd77",
"77ussssssssssssssssssdd*%jhgfppppppfghh%*ddssssssssssssssssssu77",
"77uussssssssssssssssdd*%jhgfppppppppfghh%*ddssssssssssssssssuu77",
"e77uussssssssssssssdd*%jhgfppppppppppfghh%*ddssssssssssssssuu77e",
"ee77uussssssssssssuu*%jhgfppppppppppppfghh%*uussssssssssssuu77ee",
"ree77uussssssssssuu*%jhgfppppppppppppppfghh%*uussssssssssuu77eer",
"rree77uussssssssuu*%jhgfppppppppppppppppfghh%*uussssssssuu77eerr",
"rrree77uussssssuu*%jhgfppppppppppppppppppfghh%*uussssssuu77eerrr",
"rrrree77uussssuu*%jhgfpppppppp<<<<ppppppppfghh%*uussssuu77eerrrr",
"rrrrree77uussuu*%jhgfppppppppp<<<<pppppppppfghh%*uussuu77eerrrrr",
"rrrrrree77uuuu*%jhgfpppppppppp<<<<ppppppppppfghh%*uuuu77eerrrrrr",
"rrrrrrree77uu*%jhgfppppppppppp<<<<pppppppppppfghh%*uu77eerrrrrrr",
"rrrrrrrree77*%jhgfppppppppppppppppppppppppppppfghh%*77eerrrrrrrr",
"rrrrrrrrree*%jhgfppppppppppppppppppppppppppppppfghh%*eerrrrrrrrr",
"rrrrrrrrrrX jhgfppppppppppppppppppppppppppppppppfghw Xrrrrrrrrrr",
"rrrrrrrrrrX jhgfpppppppppppppppppppppppppppppppppfwq Xrrrrrrrrrr",
"rrrrrrrrrrX jhgfpppppp>>>>pppp4444pppp3333ppppppptwq Xrrrrrrrrrr",
"rrrrrrrrrrX jhgfpppppp>>>>pppp4444pppp3333ppppppytwq Xrrrrrrrrrr",
"rrrrrrrrrro.jhgfpppppp>>>>pppp4444pppp3333ppppppytwq.orrrrrrrrrr",
"rrrrrrrrrro.jhgfpppppp>>>>pppp4444pppp3333ppppppytwq.orrrrrrrrrr",
"rrrrrrrrrro.jhgfppppppppppppppppppppppppppppppppytwq.orrrrrrrrrr",
"rrrrrrrrrro.jhgfppppppppppppppppppppppppppppppppytwq.orrrrrrrrrr",
"rrrrrrrrraX jhgfppppppppppppppppppppppppppppppppytwq Xrrrrrrrrrr",
"rrrrrrrraaX jhgfppppppppppppppppppppppppppppppppytwq Xaarrrrrrrr",
"rrrrrrraa7X jhgfpppppp;;;;pppp1111pppp####ppppppytwq X7aarrrrrrr",
"rrrrrraa77X jhgfpppppp;;;;pppp1111pppp####ppppppytwq X77aarrrrrr",
"rrrrraa77d*%jhgfpppppp;;;;pppp1111pppp####ppppppytwq%*d77aarrrrr",
"rrrraa77dd*%jhgfpppppp;;;;pppp1111pppp####ppppppytwq%*dd77aarrrr",
"rrraa77dds*%jhgfppppppppppppppppppppppppppppppppytwq%*sdd77aarrr",
"rraa77ddss*%jhgfppppppppppppppppppppppppppppppppytwq%*ssdd77aarr",
"raa77ddsss*%jhgfppppppppppppppppppppppppppppppppytwq%*sssdd77aar",
"aa77ddssss*%jhgfppppppppppppppppppppppppppppppppytwq%*ssssdd77aa",
"a77ddsssss*%jhgfppppppppppppppppppppppppppppppppytwq%*sssssdd77a",
"77ddssssss*%jhgfppppppppppppppppppppppppppppppppytwq%*ssssssdd77",
"77dsssssss*%jhgfppppppppppppppppppppppppppppppppytwq%*sssssssd77",
"77dsssssss*%jhgfppppppppppppppppppppppppppppppppytwq%*sssssssd77",
"77ddssssss*%jhgiyyyyyyyyyyyyyyyyyyyyyyyyyyyyyyyyytwq%*ssssssdd77",
"e77ddsssss*%jhitttttttttttttttttttttttttttttttttttwq%*sssssdd77e",
"ee77ddssss*%giwwwwwwwwwwwwwwwwwwwwwwwwwwwwwwwwwwwwwq%*ssssdd77ee",
"ree77uusss*%itqqqqqqqqqqqqqqqqqqqqqqqqqqqqqqqqqqqqqq%*sssuu77eer",
"rree77uuss*%%%%%%%%%%%@@@@    ....    %%%%%%%%%%%%%%%*ssuu77eerr",
"rrree77uusu***********&&&&XXXX++++XXXX***************usuu77eerrr",
"rrrree77uuuuuuuuuuuuuu77eerrrrrrrrrrrree77uuuuuuuuuuuuuu77eerrrr",
"rrrrree77uuuuuuuuuuuu77eerrrrrrrrrrrrrree77uuuuuuuuuuuu77eerrrrr",
"rrrrrree77uuuuuuuuuu77eerrrrrrrrrrrrrrrree77uuuuuuuuuu77eerrrrrr",
"rrrrrrree77uuuuuuuu77eerrrrrrrrrrrrrrrrrree77uuuuuuuu77eerrrrrrr",
"rrrrrrrree77uuuuuu77eerrrrrrrrrrrrrrrrrrrree77uuuuuu77eerrrrrrrr",
"rrrrrrrrree77uuuu77eerrrrrrrrrrrrrrrrrrrrrree77uuuu77eerrrrrrrrr",
"rrrrrrrrrree777777eerrrrrrrrrrrrrrrrrrrrrrrree777777eerrrrrrrrrr",
"rrrrrrrrrrree7777eerrrrrrrrrrrrrrrrrrrrrrrrrree7777eerrrrrrrrrrr",
"rrrrrrrrrrraa7777aarrrrrrrrrrrrrrrrrrrrrrrrrraa7777aarrrrrrrrrrr",
"rrrrrrrrrraa777777aarrrrrrrrrrrrrrrrrrrrrrrraa777777aarrrrrrrrrr",
"rrrrrrrrraa77dddd77aarrrrrrrrrrrrrrrrrrrrrraa77dddd77aarrrrrrrrr",
"rrrrrrrraa77ddssdd77aarrrrrrrrrrrrrrrrrrrraa77ddssdd77aarrrrrrrr",
"rrrrrrraa77ddssssdd77aarrrrrrrrrrrrrrrrrraa77ddssssdd77aarrrrrrr",
"rrrrrraa77ddssssssdd77aarrrrrrrrrrrrrrrraa77ddssssssdd77aarrrrrr",
"rrrrraa77ddssssssssdd77aarrrrrrrrrrrrrraa77ddssssssssdd77aarrrrr",
"rrrraa77ddssssssssssdd77aarrrraaaarrrraa77ddssssssssssdd77aarrrr",
"rrraa77ddssssssssssssdd77aarra$$$$arraa77ddssssssssssssdd77aarrr",
"rraa77ddssssssssssssssdd77aaaXOOOOXaaa77ddssssssssssssssdd77aarr",
"raa77ddssssssssssssssssdd77aX jjjj Xa77ddssssssssssssssssdd77aar",
"aa77ddssssssssssssssssssdd7X jhhhhh X7ddssssssssssssssssssdd77aa",
"a77ddsssssssssssssssssssddX jhgggghh Xddsssssssssssssssssssdd77a",
"77ddsssssssssssssssssssdd* jhgffffghh *ddsssssssssssssssssssdd77",
"77dsssssssssssssssssssdd*%jhgfppppfghh%*ddsssssssssssssssssssd77",
"77ussssssssssssssssssdd*%jhgfppppppfghh%*ddssssssssssssssssssu77",
"77uussssssssssssssssdd*%jhgfppppppppfghh%*ddssssssssssssssssuu77",
"e77uussssssssssssssdd*%jhgfppppppppppfghh%*ddssssssssssssssuu77e",
"ee77uussssssssssssuu*%jhgfppppppppppppfghh%*uussssssssssssuu77ee",
"ree77uussssssssssuu*%jhgfppppppppppppppfghh%*uussssssssssuu77eer",
"rree77uussssssssuu*%jhgfppppppppppppppppfghh%*uussssssssuu77eerr",
"rrree77uussssssuu*%jhgfppppppppppppppppppfghh%*uussssssuu77eerrr",
"rrrree77uussssuu*%jhgfpppppppp====ppppppppfghh%*uussssuu77eerrrr",
"rrrrree77uussuu*%jhgfppppppppp====pppppppppfghh%*uussuu77eerrrrr",
"rrrrrree77uuuu*%jhgfpppppppppp====ppppppppppfghh%*uuuu77eerrrrrr",
"rrrrrrree77uu*%jhgfppppppppppp====pppppppppppfghh%*uu77eerrrrrrr",
"rrrrrrrree77*%jhgfppppppppppppppppppppppppppppfghh%*77eerrrrrrrr",
"rrrrrrrrree*%jhgfppppppppppppppppppppppppppppppfghh%*eerrrrrrrrr",
"rrrrrrrrrrX jhgfppppppppppppppppppppppppppppppppfghw Xrrrrrrrrrr",
"rrrrrrrrrrX jhgfpppppppppppppppppppppppppppppppppfwq Xrrrrrrrrrr",
"rrrrrrrrrrX jhgfpppppp0000pppp1111pppp----ppppppptwq Xrrrrrrrrrr",
"rrrrrrrrrrX jhgfpppppp0000pppp1111pppp----ppppppytwq Xrrrrrrrrrr",
"rrrrrrrrrro.jhgfpppppp0000pppp1111pppp----ppppppytwq.orrrrrrrrrr",
"rrrrrrrrrro.jhgfpppppp0000pppp1111pppp----ppppppytwq.orrrrrrrrrr",
"rrrrrrrrrro.jhgfppppppppppppppppppppppppppppppppytwq.orrrrrrrrrr",
"rrrrrrrrrro.jhgfppppppppppppppppppppppppppppppppytwq.orrrrrrrrrr",
"rrrrrrrrraX jhgfppppppppppppppppppppppppppppppppytwq Xrrrrrrrrrr",
"rrrrrrrraaX jhgfppppppppppppppppppppppppppppppppytwq Xaarrrrrrrr",
"rrrrrrraa7X jhgfpppppp;;;;pppp4444pppp6666ppppppytwq X7aarrrrrrr",
"rrrrrraa77X jhgfpppppp;;;;pppp4444pppp6666ppppppytwq X77aarrrrrr",
"rrrrraa77d*%jhgfpppppp;;;;pppp4444pppp6666ppppppytwq%*d77aarrrrr",
"rrrraa77dd*%jhgfpppppp;;;;pppp4444pppp6666ppppppytwq%*dd77aarrrr",
"rrraa77dds*%jhgfppppppppppppppppppppppppppppppppytwq%*sdd77aarrr",
"rraa77ddss*%jhgfppppppppppppppppppppppppppppppppytwq%*ssdd77aarr",
"raa77ddsss*%jhgfppppppppppppppppppppppppppppppppytwq%*sssdd77aar",
"aa77ddssss*%jhgfppppppppppppppppppppppppppppppppytwq%*ssssdd77aa",
"a77ddsssss*%jhgfppppppppppppppppppppppppppppppppytwq%*sssssdd77a",
"77ddssssss*%jhgfppppppppppppppppppppppppppppppppytwq%*ssssssdd77",
"77dsssssss*%jhgfppppppppppppppppppppppppppppppppytwq%*sssssssd77",
"77dsssssss*%jhgfppppppppppppppppppppppppppppppppytwq%*sssssssd77",
"77ddssssss*%jhgiyyyyyyyyyyyyyyyyyyyyyyyyyyyyyyyyytwq%*ssssssdd77",
"e77ddsssss*%jhitttttttttttttttttttttttttttttttttttwq%*sssssdd77e",
"ee77ddssss*%giwwwwwwwwwwwwwwwwwwwwwwwwwwwwwwwwwwwwwq%*ssssdd77ee",
"ree77uusss*%itqqqqqqqqqqqqqqqqqqqqqqqqqqqqqqqqqqqqqq%*sssuu77eer",
"rree77uuss*%%%%%%%%%%%@@@@    ....    %%%%%%%%%%%%%%%*ssuu77eerr",
"rrree77uusu***********&&&&XXXX++++XXXX***************usuu77eerrr",
"rrrree77uuuuuuuuuuuuuu77eerrrrrrrrrrrree77uuuuuuuuuuuuuu77eerrrr",
"rrrrree77uuuuuuuuuuuu77eerrrrrrrrrrrrrree77uuuuuuuuuuuu77eerrrrr",
"rrrrrree77uuuuuuuuuu77eerrrrrrrrrrrrrrrree77uuuuuuuuuu77eerrrrrr",
"rrrrrrree77uuuuuuuu77eerrrrrrrrrrrrrrrrrree77uuuuuuuu77eerrrrrrr",
"rrrrrrrree77uuuuuu77eerrrrrrrrrrrrrrrrrrrree77uuuuuu77eerrrrrrrr",
"rrrrrrrrree77uuuu77eerrrrrrrrrrrrrrrrrrrrrree77uuuu77eerrrrrrrrr",
"rrrrrrrrrree777777eerrrrrrrrrrrrrrrrrrrrrrrree777777eerrrrrrrrrr",
"rrrrrrrrrrree7777eerrrrrrrrrrrrrrrrrrrrrrrrrree7777eerrrrrrrrrrr"
};
