/* XPM */
static char *chiseled_stone_bricks[] = {
/* columns rows colors chars-per-pixel */
"64 64 9 1 ",
"  c #9C999C",
". c #8B898B",
"X c gray50",
"o c #6A6D6A",
"O c #5A595A",
"+ c #787678",
"@ c gray39",
"# c #555455",
"$ c #626062",
/* pixels */
"                       . X  ..        .   .. .  ..   ...      .o",
"  .      .      .. .  .XX  . .X.  ..     .  .X.XX.. .   .   . oO",
" .  .. .   ..  .X....X..    .X.    .... ...    X.  ...X++X .X.+O",
"  X. ..  ... .  .X+XX..... .   .. .    ... . X..  X...+X.. .+X+o",
" X..X..X.X+X.X....X+.X..XX.....X..  .   .  ...XXX+..XX..X .XX+oO",
" ....XX...X.X..XX..X..XXX...XXX.....  .. ..XX...XXX++.....X.X+oO",
"..X.XX..X+++X+++XXX++X+..XX++X.XX..XXXX.X.XX++XX.X.+XXXXX.+++XoO",
"..XX+XX.++XXXXXX+ooo++XXX+XXo+XX+XX.X++X.....X++X....X+X.XX+o+oO",
" ..+X.XXXX+X++++oo+++o+oo++++oooo+++XX+++o+++++o+X+X++....XX+ooO",
" ..X..X+XXX+++oo++oooooo++++oo++++XX+XXXooo++oo+++X++XX..X+X+o+O",
". X.XXX.XX@oo@o@@@@O@OOOOOOO@o@OO@@OO@@o@@@ooo@oooo@o+.X.X++X++O",
" ...XX.+X+o@@@@@OOOOOOOOOOOOOOO@OOOO@OOOOO@@@@@@@@@oooX+XX.+XX+o",
"...X.+X+++o@      .        ..   .... ..   .  . .    @oX++.XX.XoO",
".X.XXXXX+X@@ .  .. ...  .... ..XXX...   .  ...... ..@o.X+.X..XoO",
"..XX.XX+XX@O  ......  .  .XX.XXX.    .......X.X+X..XOoX+.XXX.XoO",
"..X.X.XXX+@O .   .  .  ..XXXX..   ....XX.. ..X+X..X+O@.X.XX+X.oO",
".X.....XXXOO ..    XX...X.XX++X.XXX..X.  .. ....X.X+O@..XX+XX.oO",
"XX.X..X.X+@O . .  ...XX..X+++X.X...X..  . ...X...X+o@@X.X.XX.XoO",
"X.XX.XX.XXOO  .. ..X..XX.+XX.XX+XX.XXX+X....X.XX..oo@o.XX.XXXXoO",
"...X.X..+XOO  .. X+..X.XXX....XX..XX..X+XX...XX..Xo+Oo..+.X.X.oO",
" ...XX+X++oO . ...X+X...X+X++X.XX....XX..XX+X.XX..+oO@..+X..X.oo",
" X..X+X+++@O  .X....XXX+++o+X+X++XXX...X..+X..++X.+oO@X.X+...X+o",
" .X..XXX++OO ..XX..XX+XX+++oo+++oo++++o+XX....X+XXX+OoXX.X.+.XoO",
"  X.X.X+X+OO ...X.X..X++ooo+oooo++++oo+++XXX.XX.+X++O@.X...+X+oO",
"  XX..+oXXOO. ...X..XX+o####O###OOO#####X.XXX.X.+++oO@.X.X++.+oO",
" ..X..+ooXOO .X.XX..+Xoo#OOO###OO####O##..X+.XX.X++oO@X.X.X++.oO",
". ..X.X++oOO X..X.X.X+o+##OOOO$$OO#O$$OO....+X.XX+ooO@+...X+++oo",
" ..X..XXo+OO...X+XXX+++oO#O$$O$OO#O$$$$O.X..X+..XXo+O@+X..XX+ooo",
".X...X++XXOO....X+X+X+++#O#OO$O$$$$$$$$O .XX++.XX++oOO+XX..X++oO",
".X.X.+X+X+OO.. .X..XX+++#OOO$$OO$$$$$$O$ ..X+X.X+++oOOX+X...++oO",
"XX..XX.++XOO. ...X.X+Xo+##O$$O$$$$$$$$$$. .XX.X.+X++OO+X..XX+ooO",
"X.X.+XX+XX@O. .X.XX.X++o##O$$$$$$$$$$$$$. X.X...XXo+OOX.X.X++ooO",
"..X.XX.X+XO@  ..XXXXX++o#OOO$$$$$$$$$$O$.  ..X..X.ooOO ..X.Xoo+O",
"....XX..X+O@ ...X.XX++oo##O$O$$$$$$$$O$O.. ..X.X+.+oOO. .X..+o+O",
"..XX..X.++OO. ...XX++ooo#O$$$$$$$$$$$$OO . .X+.X+X+oOO ..XX.++oO",
"X.+X.XXX+oO@.  ...XXXo+o#OO$$O$$$O$$O$O#.  X+XX.X++oOO .XX.+++oO",
".XX.X+X.+oOO . ..XX.+o+o##OOO$OOO$$OOO##  ..X.X..XooOO .X...o+oO",
"..X.+XX.ooOO .  XX..+++o#O#O$$$OOO$$O##O  ....X...+oOO  .X.X+o+O",
" ..X.+..o+O@.. ..X..X+o+##O##OO#O$O##OO$ ..X.X.X..ooOO  .+.X+ooO",
" ....X.X+o@@.. X..X..X++O#OO##OO$$OOOO$O  X..X.X.XooOO .XX.X++oO",
" .X.. X++o@@ ..XX..XX.+++X. .     .   .. XX.X+..X++oOO..X.X+X+oO",
"..X+X .XX+@@ . X.X++..X+....   .XX.. ..X.X..XX..++ooOO ...+X.+oO",
". .X  X.X.o@ .. ..X++X..XX...XX+X..X.XX......X.X+XooOO ..X+.X+oO",
" ..X .X.+X@@   ..X+XX+.XX...XX.X+.X+XX..XX.X.XX.XX+oOO  .XX.X+oo",
"  . XX..X+o@  ...X..XXX..XXX..X.X++XXX+X.+X...XXX+ooOO. .+..X++o",
"    X....+o@ . .X...+X..X.XXX.....++o+XX....X.X+X+ooOO  XX.X+X+o",
" .  .X..X+o@.. ....+o+X+XX+XXX.XX++o+XX..XX++X.X++o@O@  .XX.X+oO",
"..  .X..XX@@. ..X..X+o+X++XXX+X..XXX..XXXX+X++XX++ooOO .X.X.X+oO",
" .  ....+X@@  +XX+X++.X++X+++XXX..+.++X+++o++++o++o@O@ .XXXX++oO",
"  .  . .X+o@ .XXXX++XX..X+o++o+X+X.++XXX+++o+oo++oo@O@ ..+X+++oO",
" .    ...+o@ .X+o+ooo+++oo++++oooo++o+++oooo@ooooo@@O@ ..X+Xo+oO",
" .. . X.X.@o.X+++ooo++ooo++oo+++oooo++oo@o@@ooo@@@@@O@  ..+X+ooO",
"..  ...X.Xo@OO@@@O@@O@OOOOOOOOOOOOOOOOOOOOOOOOOOOO@O@@ . .XX+ooO",
".. ..X...Xoo@@@ooo@@oo@@@@OO@@OOO@OOOOOOOOOOOOOO@@@@@@....+X+ooO",
". .XX.X..    ..   . ..  .. ..   . ..  ..  .X+X.XXXX+XX.X..X+++oO",
"..X+..XX...X   ... ..  .X...  .. .   .. ....X......X.XX....+X+oO",
"...X.XX.....X...X........XXX..X+X...X.....XX..X+X...XX..XX.X++oO",
" ....X....X......X..XX..XX+..X.X++XX..XX.X+XX++X......XX+.XX+ooO",
" X..X+.X.X..XX.XXX+XX..X..XX....X.X....XX+XXXX..XX.XXX+XXXX++ooO",
". ..+X..XX...XX+XXX...XXX+X..X...XXX.XX...XX+.XXX....XX+XX++oooO",
".XX.X.X.X++XX+XX++XX++X++XXX+++X++X.XXX+X++ooo++XXX.X+++++o+++oO",
"..XX.XXX++XX+X++++oXX++XXX+XXX++X++XX++X++++oooo++XX++o+oooo+ooO",
".o+ooo++++++ooooo+ooooooo++++o++oooo+++o+ooo+++oooo+oo+oo++ooooO",
"oOOOOOoooooOOOOOOooOOOOOooooOOoooOOOoooooOOooOOOOOOoOOOOOoOOOOOO"
};
