/* XPM */
static char *cobweb[] = {
/* columns rows colors chars-per-pixel */
"64 64 4 1 ",
"  c #C4CED2",
". c #E4E9E9",
"X c white",
"o c None",
/* pixels */
"  oooooooooooooooooooooooooooooooXoooooooooooooooooooooooooooooo",
"o .ooooooooooooooooooooooooooooooXooooooooooooooooooooooooooooo ",
"oo  oooooooooooooooooooooooooooooXoooooooooooooooooooooooooooo..",
"ooo .ooooooooooooooooooooooooooooXooooooooooooooooooooooooooo .o",
"ooooXXoooooooooooooooooooooooooo.Xoooooooooooooooooooooooooo..oo",
"oooooX.oooooooooooooooooooooooooX.XooooooooooooooooooooooooX.ooo",
"ooooooXXooooooooooooooooooooo...XooXoooooooooooooooooooooo..oooo",
"oooooooX.ooooooooooooooooo  .oooXooo..oooooooooooooooooooX.ooooo",
"oooooooo..ooooooooooooooXXooooooXoooooXXoooooooooooooooo..oooooo",
"ooooooooo..ooooooooooo  ooooooooXoooooooXXoooooooooooooX.ooooooo",
"ooooooooooXXoooooooX  ooooooooooXoooooooooXXXooooooooo..oooooooo",
"oooooooooooX oooXXXoooooooooooooXooooooooooooXXXoooooX.ooooooooo",
"oooooooooooo..o.ooooooooooooooooX ooooooooooooooXooo..oooooooooo",
"ooooooooooooo..ooooooooooooooooX XoooooooooooooooXo..ooooooooooo",
"oooooooooooooo..oooooooooooooooXoo oooooooooooooooX.oooooooooooo",
"oooooooooooooXo.XooooooooooooooXooo ooooooooooooo...oooooooooooo",
"ooooooooooooo ooXXoooooooooooo Xoooo.ooooooooooo..ooXooooooooooo",
"ooooooooooooo oooXXooooooooo  oXooooo.oooooooooX.oooXooooooooooo",
"ooooooooooooo ooooXXooooooXXoooXoooooo..ooooooX.ooooXooooooooooo",
"oooooooooooo ooooooXXooXXXoooooXoooooooo...ooX.ooooooXoooooooooo",
"ooooooooooooXooooooo..XooooooooXoooooooooooXX.oooooooXoooooooooo",
"ooooooooooooXooooooXo..ooooooo.XooooooooooXX.ooooooooXoooooooooo",
"ooooooooooo oooooooXoo..ooooooX.oooooooooXX.ooooooooooXooooooooo",
"ooooooooooo oooooooXooo.XoooooXoooooooooXXo.ooooooooooXooooooooo",
"ooooooooooXoooooooXoooooXXoooo.ooooooooX.ooo.ooooooooooXoooooooo",
"ooooooooooXoooooooXooooooXXooo.oooooo.X.oooo.ooooooooooXoooooooo",
"ooooooooo.ooooooo ooooooooXXoo.oooo.XXooooooo.oooooooooo ooooooo",
"oooooooo.oooooooo oooooooooXXo.ooo..ooooooooo.oooooooooo ooooooo",
"ooooooo.oooooooo.oooooooooo.XXX.o..oooooooooooXooooooooooXoooooo",
"oooooo.ooooooooo.ooooooooooo.XXX..oooooooooooooXoooooooooXoooooo",
"ooooo.ooooooooo.ooooooooooo...XX.oooooooooooooooXoooooooooXooooo",
"    ........XXXX....XXXXXXXXXXXXXXoooooooooooooooXoooooooooXoooo",
"oooooo ooooooooXoooooooooooo..XXXXXXXXXX........    ....XXXX    ",
"ooooooo ooooooooXXooooooooooo..XX..ooooooooooooooo ooooooooooo o",
"ooooooooXoooooooooXoooooooooo..X.o..ooooooooooooo ooooooooooo oo",
"oooooooooXoooooooooXoooooooo...XoooX.oooooooooooo oooooooooo ooo",
"ooooooooooXooooooooo oooooo..oX.ooooX.ooooooooooXooooooooooXoooo",
"ooooooooooXooooooooo ooooo..ooXooooooX.oooooooooXooooooooooXoooo",
"oooooooooooXoooooooooXooo..oooXoooooooX.oooooooXooooooooooXooooo",
"oooooooooooXoooooooooXoo..ooooXoooooooXXoooooooXooooooooooXooooo",
"ooooooooooooXoooooooooX..oooooXoooooooo.XooooooXooooooooo.oooooo",
"ooooooooooooXooooooooo..ooooooXooooooooo..ooooXoooooooooo.oooooo",
"ooooooooooooXoooooooo.XoooooooXoooooooooo.XoooXooooooooo.ooooooo",
"oooooooooooooXoooooo..oXooooooXoooooooooo .XoXoooooooooo.ooooooo",
"ooooooooooooo.ooooo.XoooXooooo.ooooooooo ooXXooooooooooXoooooooo",
"ooooooooooooo.oooo..oooooXoooo.ooooooo  ooooXXoooooooooXoooooooo",
"oooooooooooooo.oo..oooooooXooo.oooooXXoooooooXXoooooooo.oooooooo",
"ooooooooooooooo...oooooooooXoo.oooXXooooooooooXXoooooo.ooooooooo",
"oooooooooooooo  ..oooooooooo.o.o  oooooooooooooX.ooooo ooooooooo",
"ooooooooooooo  ooo.oooooooooo.. oooooooooooooooo..oooo ooooooooo",
"oooooooooooo  ooooo.ooooooooo. oooooooooooooooooo..oo oooooooooo",
"ooooooooooo. oooooo.ooooooooX.ooooooooooooooooooXo.. ooooooooooo",
"ooooooooooXXooooooooXoooooooXoooooooooooooooXX..oooX..oooooooooo",
"ooooooooo.XooooooooooXooooo.XoooooooooooXXXXooooooooo.Xooooooooo",
"ooooooooXXooooooooooooXooooX.oooooooXXXXoooooooooooooo..oooooooo",
"ooooooo.XooooooooooooooXoooXooooXXXXooooooooooooooooooo.Xooooooo",
"ooooooXXoooooooooooooooo  o oo..ooooooooooooooooooooooooXXoooooo",
"ooooo.Xooooooooooooooooooo  ..oooooooooooooooooooooooooooXXooooo",
"ooooXXooooooooooooooooooooo ooooooooooooooooooooooooooooooXXoooo",
"ooo.Xoooooooooooooooooooooo oooooooooooooooooooooooooooooooXXooo",
"oo  oooooooooooooooooooooooXoooooooooooooooooooooooooooooooo  oo",
"o. ooooooooooooooooooooooooXooooooooooooooooooooooooooooooooo Xo",
"  oooooooooooooooooooooooooXoooooooooooooooooooooooooooooooooo  ",
" ooooooooooooooooooooooooooXooooooooooooooooooooooooooooooooooo "
};
