/* XPM */
static char *copper_ore[] = {
/* columns rows colors chars-per-pixel */
"64 64 14 1 ",
"  c gray50",
". c #747474",
"X c #686868",
"o c gray56",
"O c gray36",
"+ c #599581",
"@ c #3A7663",
"# c #E0734D",
"$ c #F38268",
"% c #3A685A",
"& c #C16746",
"* c #A2A2A2",
"= c #818058",
"- c #4FBA98",
/* pixels */
"    ...    ..  ...    ....         ..   ....X.  oo..  oooo  ..  ",
" ...  ....   ...    .XX.XXX..    ..  .....XX. oo... oooooooo ...",
"..  oo .. .....X.o..  .XX.    ...   ..XX......    oo .. o  ooo  ",
"  oooooooo .XXX.. oo ....X.....   ..XX..XXXX.......   ...oo   o ",
"oo oo    ooo..XXX..... ooo  ...... ..   ...XXX.   ....   ..  .  ",
" ... oo ...o.XXX..   oo oooo    ...   ...XX...XX.XX.. ... ... ..",
"   .........XXX..  .. ...  ....  .XX..    .....XXXXXXXX. oo ... ",
". ....  .XXOOOOX...     ..  ..XX. .XXX..   ..XXXOOOXXX. oo oo...",
"..   .. XXOO++@@X......  ...XX........XX....XXOO#$$#X.oo...   ..",
"XXXX.XX.XO@++@%oXX..   ..XX..XXXXX..XXXXX..XXO##$$#&.      ...  ",
"..X...XXX@+@@%*o.   ..XX..XXXXXX...  ...XXX.##$$#&&o.. ..XX.  ..",
". ...  ..o@@**o. o ..XXXXXXXX...  ..  ....  o##$&&*o ...XX....  ",
" ..  .XXXXo*oo oo..  XOOOOXXXX. ..  o    ...o*&&**o...  ...XX.. ",
"oo  ...... oo.. oo .XO@@@@OOOXX.oo.  ooo   ..o**oo... ...XX..   ",
". oooo..   ...  ..XXO@@@==@@@OOX..oooo  oo o  ooo   ..  ..XXX...",
" .. oooo...   oo XOO@@===&==@@OOX..o      oooooo ...    ....XXX.",
".. oo.. oo ooo XXOO@==&&&=&=&=@=OO.oo oooooo  ..ooo.. ..   ....X",
".oo   ..  oo  .XOO@@@&&##&=&&&====O  oooo   ...   oo   ...    ..",
" .. ..   .. ..OO@@@=&=&&&#&#&##&&&=..   ooo  .XXX...  ...    ...",
"  ......  ...X@@===@=&#&#$#&##&&#&&=...   .ooo .XX. ..    ..... ",
"..     ...XXX@===&&&&##$$#$##$$$&#o oo  .. ..   ..X.X.....X.   .",
" ... o. ....@==&&=&&##$$$$$$$#$*oo .........  ...XXX..XXXX. oo  ",
"    oooooo ..@@=&&&#&$###$#$**ooo.   .XXX.XXX..XXXXXXXX...    oo",
". ooooo     ..@@&&=&&###***ooooooo..  ..XX..XXXOOOOXXXXX... ooo ",
"X..    oo..    o*o******oooo  oo          .XXXO@@=OOXX... oo  ..",
"XXXX..    ...   ooooo**oo ..oo   .. ... .XXXOO@@==@@OXX.   ....X",
".X..    .... ooooo   .. ...  oo.XXX.  ..XXOO@==+++=@@OX..ooo  . ",
" .. .. ..   ooo.. ..XXX..XX.. .XX.  ...XOO@@==+++++==@OXooo..   ",
"  oo ..XXX.  ..     ..XX...XX..  ..   OO@@+--++-+--+=&&o  .  .. ",
"ooo ..XXX...XX.....  ...XXXX.. ..  ..O%@@+++--++--+=&&#&o     ..",
".  .XX..XXXX...XXX..XX...X...    .XXX%@@++------+++&&#$#&o....  ",
" .....  ...XXXOOOXXXXXXX...  ...  .X%%%@+--+-+-+++&=#$#$#&&.    ",
"  oo   ...XXOO@@OOXX...XX...ooo...  oo%%%@+++-=++==###$$$$#&....",
".. ooo  .XXO@@@@@@OOX....     oo  ooo oo%%@@==++=+==$$#$##&XX.  ",
" oo  oo.XOO@@@=+==@=OO ...  ..  ooo  . ooo%%@===+==$$###&&o.    ",
"oo  o ..OO@@+++=======Ooo...  ...  ooo  oo*%%@====#=#***oo.  .. ",
"  .  .OO@@+++-+++==+===ooo  ....  oo ...X o*@%%@@@***ooo........",
"..  .O@@@--+----+++=====o ooo  .... .....X o**%%@**oooo oo  oo  ",
" ...@@@+-+--+--+--++==oo    oooooo    .XX.ooooo**ooo     ooo .. ",
"... .@+++@+--++-+++=*oo  ..    o   ...XX.. ooo oooo ooo.  o    .",
".    o@@@+@---++=+**o ....XXX......   ..  ..  ooo..   oo.. .....",
".. .X oo@@--+--=+**o XXX.....XXXXX..    ..      oo ..   ooo .XX.",
"XX.... oo*@@-++-*o  . .XXXX...XX.. ... .. .. ooo  ......  ..XX..",
".XXX.... o**@+**o  .   .XXXXXXXXX..         oo  o   ..  XXXX....",
" ..    .. oo**oo    .....XXXOOOOOX.. ...XX .XX.    ooo.XX...  . ",
"..  ooo   ..ooo ..... .XXOOO==&&OOX   ...XXX.. ooooo   ..  ...  ",
" oooo ..    .. oo..  ..XOO@==&##&&O. ..   ..  o  oo ..oo  ooo .o",
"  oo   ..XXXX.. oooo  .O@@+=&##&#&&O.  ...    ... ...X....  ooo ",
"oo  ..XX..XXXXX.   oo.O@=+==#$$#&###&..XX.X...   ..XXOXX...  o o",
"      .XXXXOOOOX. oo..@@+++=##$$##$##&&.XX...  ...XXOOOOOXX.    ",
" ...    .XOO@@@OX   @@@===+#&&##$$#$$##&..XX....XXXO@@@OOOXX... ",
".  ...   O@@@=@@X... @=@=+#&&##$$$$$##&  .. ..XX..O@@+@@@+O.. oo",
"  ...  .@@==+@+=o.  .o@@@====&$$#==@@@o.. ..  ..  @@@+--++++oo  ",
"oooo ..@@==+++=oo  ...oo@@==#$##==@@*o..    ..  .  @+------ooooo",
"  oooooo@@@=+=*o...    oo*@==#==@@**o.......   ....o@++-+-*oo  o",
" o..  ooo*@@**o.XX..     o*@===@**oo. .   ....   .XXoo++-*oo    ",
".   ...XXo**oo .. o .XX   oo****ooo    ... oo.. oo ..o***oo  oo ",
" .....  XXooo oo oooooX... oooooo ...oo ooo..  ooooo  oooooooooo",
"..    ...  ...  o    oo ..... oo ...   oo    oo...       ooo    ",
" .. .XXX..   ...   oo .. oo .. ooo  oooooooooo..  ... ...  ooo .",
"  .XXX.......    .....  oo .X... oo ..  oo ..   .   ..    o.X.. ",
".XX......   ... ooo ....  XX.     ..  o   oo  .......... .. .XX.",
"..oo  ooo..  ooo  ..    ...   .. ..ooooooo  ...      ..ooo   o. ",
"  . oooooooo  oooo ...   ..... ..    ooooooo    ..  ..   oooo   "
};
