/* XPM */
static char *cracked_nether_bricks[] = {
/* columns rows colors chars-per-pixel */
"64 64 8 1 ",
"  c #190D10",
". c #211114",
"X c #3E1E24",
"o c #44242A",
"O c #38181E",
"+ c #30181C",
"@ c #291519",
"# c #0B0607",
/* pixels */
" .                                    .                         ",
"... .                           .   ......  ..                  ",
"XXXXXoXXooooXXO+  oooooooooooo.XoXoooXoooooXoXXO  ooooooXoXXOXXO",
"OO++@++++++@@++O  oX+OOOO+OOOO.+O+@+OO+++OOO+@@+  oXO+@@@+OOOOOO",
"O+O@+O+@+O@@++O+  o+OOO+@++O+O@O+@OOO++OO+O+@+OO  XOOO+@+OOOOOOO",
"OO+OOO@+OO+OOOO+  XOO+@@++O+O.@OOOO+OO++OOOOOOO+  XOO++OOO++++OO",
"+OOO++@OO+O++O++ .oO+O++O++O+@++@+OO+++O++O+O++@  oOOOOO++OO+++O",
"O++OO@@++O+O+++@..oOO++O++++@@OO+@+++OOOO@@++@+@  oO+O++@+++++++",
"++++++@@++++@++@ .XO++OOO++@.+++++++++O+@.@@@+@@ .X@+OO@@+@@++@+",
"++@+@.@@@@+++@+@. XOOO+++O+.@+++++@++++O+@.+@@@@ .X+OO+@++++@@@@",
"@@+@@.@@++@@@+@@  OO++@@++@.+++@@@++++@@++.@+@@...oO++@.@O+++@@+",
"@@@@@. @@@+@@@@@  X++@+++@.@++++@@@@++++@@@.@@.@ .XOO+@..+O+++@@",
"@@@@@@ .@@@@@@@@  XOO++@@..@@+++++@+++@++@@....@  X+OO+@.@+@@@+@",
"@@@.@@. @@@@@.@@  X+OO+. .@@++@@@@+@++@@@@@@..@@  X++++@@.@+@@@@",
"@@@@..@. .@..@@@ .XO++@@.  .@@@@@@@@+@@@..@..@.@ .XO+@++@@..@@@@",
"@@@....@  .@..@@..O++@@...   .@@@@@@@+@@@@....@@..O+++@@@@@...@@",
"              ..   .  .     .               .......      . .    ",
"        .. ....  # ...   ...            .... ....  .    ...     ",
"  oooooooooXXoX+. .+XXoXXXXXXXXO  XoooooXXooXoXXO+@OXXXooXoXXXXO",
"  oXOOOO+OOOOOO++. @++OOOOO+++O+  oXO++OOOO++O+++@++O++OOO+OO++O",
" .oOO+@+OOOOO+OOO+  @OOO+++++OO+  o++O++@++O+++O+OOO++++OOO+++++",
"..oO+@+O++O++O++OO. ++++OO+++++@  oOO+@@+OOOOOO+O+++O+OOO+++O+++",
"..o++OO+OOOO++++++@ @@+++++@@@++  X++++OO+O+O++@@+OO+.+O+OOO+@@+",
"..oOOOOOOO++@@++@@ .@+@+++@@++++  XO+O+++++O++@+++++.@@+OO++@@++",
" .XOOO++O++@@++@.@  @+++@+++++@+ .X+O+OOO+++OO+O+++@.++@@+++++++",
"  oOOOO+@@+++@@. . .++@++@@+@@@@  oOOOO+++O++OO++@+..@@@+++++++@",
". XO++++++@+@+@@. .@+@@@@@+++@@@ .oOOO+++++@+++@++@.@+@@@@+++@@@",
" .XOOO++O++@@@@.@ @+@@@@@@@@@+@@ .X+++OO++@+++@.@@. .@@@@+@+++@@",
"  X++OOO++@+@@.@@. @@.@@@@@@.@@@ .XOO+++++++@@@..@@@ @.@@@@@+@+@",
"  XO++OOO++@....@. ..@@@@@..@..@..XO+++@@++++@@@@.@. ...@@@@@@@@",
". XOO++++@@@@.....  ..@.@@@...@...X+++++@@+@@@@..@...  ..@@@@@@@",
". O+++@@@@@..@...  # ..@@......@. O@@+@@@@@.@.......    @@@@@@@@",
"..  .               # . .     ....   .             ... .   ..   ",
"....  ..      #        ...  .........     . ..# ..... ... . ..  ",
"XXXXXXXX. O+@#  ooXoXXXO .@+@@. # .OOOOO .ooXX # XXXXXO+..XXXXXX",
"OOO+@+OO. +O+# oO+@++OOO. ++O@@.  OOO++O  oXO+. O++OO+++ .XOOOOO",
"++OO+O+O..O++ @+OO+@OO+O..+O++@+ @O+OO++  XO+@O. OO+OO++  XOO+@+",
"+OOOOOO+..O+@ OO++O++OO+..+OO++@ OOO+++O  XOOO++.+OO++++ .XO+@++",
"OOOO++++ .+@ @++++++O+++..@+OOO .O++++++ .X++++++ @+++@@ .O++OO+",
"+O++++++. . .@@++@++++@+. .@+. .+@++++++  XOO+@@+.@@@@+@  OOOO++",
"OOO++++@   @ .@O@+@++++@ ...  @@@++@@++@ .XO+O++@.@@@@@@  OOO+++",
"O++@++@@  @@@ ..@@@@+@@@  # .@@@++++@@@@ .XOO+++.@@@@@@@  O++O++",
"++++@@@@  @O+@ ..@++@+@@ # .+@@@@@+@++@@ .O+++@..@@@@@@@  XO++++",
"+++++@@@  O+O++@ .@++@@@  ++@@@+@@@@@@@@..OO++@.@@@+@@@@  XOO+++",
"+++@@@@@  O@@@++  @@@@@@  +O++++@+++@@@@. X++O +@++@@@@@ .X++++@",
"@@++@@@@  ++@+@++ .@@+@@. O+++@@++@@@@@@  XOO@ .++@@@+@@..XO+@@@",
"@@@@@@@@  @++@+@@.  @@+@. +@@++@@@@@@@@@  XO@ .++@@++@+@. O+++@@",
"@@@@@@@@ .@@++@@. # .@@@..++@@@@@@@@@@@@ .O@  ..@@@@++@@ .++@@@@",
"  ..   ....      #    .... .. . ...    .... ##      .. ....     ",
" . ...  ......    . .......    ...  ........  #.      ....#.....",
"XXXooo+. .+O+@@@ .ooXXooooooooo@..@XooooXXXoXXoX. @@@+O@ # oXOXX",
"OO++@@@+.++O++@@  oXOO++@++OOOOO@.@OO+@+OOOO+OOO  @@+O+@@ .oO++O",
"OOOO+@+O..O+@+++  XOO+@@+OOOOOOOO+.@+@+OOOOOO+@@  +O+@+@. o+OO++",
"OO++++OOO.+++@+O  oOOO++OOOOO++O++@+OOOO++OOOO++ .@+@@.. +++++OO",
"O+@+OOOO++.O++OO  oOOOO+@+OOOO@@+O+O+++++OO+OOO@. @@.  .@+OO++++",
"+@+OOOO+OO. OO+O  oOO++@+OOO+@++O+OOOOO+OO+OO++@.  # .@@OO++++@@",
"@@++++OO+O+.  .+ .XOOOO+OOOOOOOO++++++OO++O+++@@ ##@@+OOO++++@@@",
"@@@@++++O+++@@.  .XOOOOO+++++OO++OO++++++++@++@@  @O+++++++@+++@",
"+@@+@@++++@++@@+ .o+O+++++++@+++OO+++@+++@@++@@@ .X+OOO++@++@@@+",
"+++++@@+@@@@@+@@..XO++++@@@@++++++@@@@@+@+@@@+@@ .X@++OO++@++@@@",
"@@++++@@+++@@@@@ .XOOOO+++@@@++@+++@@@@@@@@.@@@@ .X++OO+@@@@@@@@",
"@+@@@@++++@+@@@@  XOOO+@++++@@@+@@@+@@@@@@@@..@...XOOO+++@@@@@@@",
"@@@@@@@@@@@@@@@@ .OO++@@@@@@@@@@@@@@@@@@@@@@@.  . XOO+OO+++@@@@@",
"@@@@@@@@@@@@@@@@  O+@@@@@@@@@@@@@@@@@@@@@@@@@@@. .O++++OO+@@@@@@"
};
