/* XPM */
static char *cracked_stone_bricks[] = {
/* columns rows colors chars-per-pixel */
"64 64 7 1 ",
"  c gray39",
". c #9C999C",
"X c #787678",
"o c #6A6D6A",
"O c #8B898B",
"+ c gray50",
"@ c #5A595A",
/* pixels */
" ...............XXoXO.............X++.....................OOOO  ",
" OOOOOOOOOOOOOOOO o++OOOOOOOOOOOOOOXXOOOOOOOOOOOOOOOOOOOOO++O+ @",
" O+XX+++OOOOOOOO oXOOOOOO+++OOOOOO++XX+OOOOOOOOO++OO+++++OOO++ @",
". XX++OOOO+OOOO+ X+++O+O++OOOOO+OOOO+XX+++OOOOO+++++OO+O+++OO+@@",
".o +OO+OO+++++OO X+OO+++OOO+++XXX+++OOX+OO+O++OOO+XXXOO++OO++O @",
"OXoOO+O+++++OOO@X+OOOO+++++OOO++XXXX++XOO+++XXX++O++XXXX++XX++ @",
".Xo ++++++OO+++@XOO+++OOXXXX++OX+OO+OO+X+OO+++XX++X++++XXXOO++@@",
".+X X++++OO+++O@OOOO++XXXX+++OOO+++OO++XoX++++++XX+O+XXXO+++OO@@",
".++XoXXXO++OOO oO+++XX+O++++OO++XXX+X+++XoXX+XX+++OXXX++++XXX+@@",
".+++O+XXXX++OO X+OOXX+O++OOO++X+++XX+++O+o++++XX+OOO++++OXX++O@@",
".+OO+++++XX++ oO+++O+XXOOO+XXX+OO++++OO++o+XXX+OO+XXX+OO+++OO+@@",
".+++OO+++++X+ X+OO+++++++XXXX++++OOOOO+X+XoX+OO++++XOOO+OOOO+X@@",
".++XXOOO++++@XXX++XXXX+XX+X+OOO+++OX+X+XX+o+OO++XX++X+++++O++X@@",
".XX+++++OO+@@@@@++OOXXXX++OO++OO++++XXXX++OoOX+++XX+++@XXX++XX@@",
".+XX+++X+  OO.  @@O+O+OOXO++O+++OOXXX+++OO+ oXXX+++X  X+OOXXX+@@",
".++++X+@@XXXX+O..@ XXX++OO+++XX++OOO+XX++OOO   oX+@@ XXX+O+X++@@",
".O++  @XXXXX++++O.O@X++XX++XX+OOO+++++XXXX+OOOo @@  O++XX+X++o @",
".   XXXXX+X+XX++++O@++++XXXX+O+++OO++++++XX+++O@@ OOXX++++++Xo @",
".XXXXXXX+X++++++XX+O +O++X+O++X++++OO+O+X++O++XO@X+XX+X++X+XoX @",
".++X++XXXXXX++XXX+++OO+XX+OOOO+XXX++OOXXXXXXO++X@XX++XXO++XooX @",
".X++XX+XX+X++XXXXXX+++OO+++OO++++XXXXXX+O++XXXXX@X++X+XXOO+oXX @",
".X+++XXXXX++XXX+++XX+OO+OOO+XX+O++X+OOOOX+++XX++@XXX++++XOoO+X @",
"OXX+XXXoXXXXXX++OX+OO++O+XXX++OOOO+OO+XX++O+++XXX XXXXXX+++XX+ @",
"O+X+XXXoX++X++XX+O++++X++++XXO+++OO+++++OO+++XXXo oXXX++++XX++@@",
"O++XXXooXX++XXXXXX+XXX++XXX+++XXX++++OOO+X++XXooo @XX++XXX++XX@@",
"O+XXXXooXXXoXXXX++XXXOO++XXXXXXXXX+X++OXX++XooooX@@++XXXX++++X@@",
"O+XXXoooXooXX++++XX+++XXX++XXXXX++XXXXXX+XX+X+Xooo@@+++++XXXXX @",
"+XXoooooooXXXXX+XXXXXX+XXXXXXooXXXoXXX++++XX+++XXoo@XX++XXooXo@@",
"XXooooooooooXXXXXXXXXXXXXXXoXXooooXXXXXXXXXXXXXXooo@ooXXXXXooo @",
"oooooooooooooooooooooooooooooooooooooooooooooooooooo@ooooooooo @",
"    @@ @@@@@@@@@@@      @@@@@@@@@@@@@@                         @",
"@@@@@@@@@@@@@@@@@@@@@@@@@@@@@@@@@@@@@@@@@@@@@@@@@@@@@@@@@@@@@@@@",
"................. oXX+XXoo    @@OOOOOO++OOO+X@..................",
"OOOOOOOOOOOOOOOO oXX+OOOO+XXo @@OO+OOOOO++++o@OOOOOOOOOOOOOOOOOO",
"X++OO++OOO++++OO X+O++O++XXo o@@O+OO++OOOX+X O+++OOOO++XXX++++O+",
"+XXX+OXX++++OOOOoXOOOO+XXXoooo@@OO+++OOO++XX +OO++OO++OO+XX+OO+X",
"++XXXX+++OOOO++oXX+++OO+++XXXo@@OO+XX+X+OOX  ++OOOO+OO+++OOOXXX+",
"+X+++XXX++OOOO+oXOO+OOOO+++XoX@@O+++XX+OOO+ +X+XXX+OO++OOO+XX+O+",
"XX+OO+++OO++OOO +++OO+++OO++X+@@+XX+OOO+++Oo++XX++XX++OO++OOOO++",
"++OO++OOO+XXXX+ X+++++XX+XXX++@@O++XX+OO+++oO+++O+++XXX++OO+OOOO",
"OO+X+OO++XX+X+OOoXX+XXX+XX+XXX@@OX++XXXXOOo++OOO+XXX+X++X++X+++O",
"+XX++++OO+OOOO++oX+X+++++++++X@@O+X++++XX+oOOO+X+++XX++++XX+X+OO",
"XXXXX+XX+OOXX++X ++++XX++XX+XX@@OOXX+XX+o XX++X++XX++XOO++XXXO++",
"O+++XX++OO++XXX++ XX++XXXX+XoX@@OOO+XX+o OOXXXXXXXOOOOO+ ++++X++",
"+OO++XXX+++X+++OO  +XX+++XXXXo@@X++XXoooO+++O+XX+++O+XX XXX+++XX",
"++OO++++X+OO++OOo.  +XX+++XXXo@@+XXX  OOOO++XXX+OO++XX+ OO+XXX++",
"+O++OO+OO++OOO+ooO.@X++XX++oXo@@XX  OO++O+XX+++XX+OO+OO +OO++XXX",
"X+O+O+OOOOOOO++oOXX@ +XX+XXooo@@   O+OO++OOO+OO++XXOO+X X+OOO+++",
"XXXXX++++OO++OoO++XO@  +XXoooo@@.OO+O+XX+++OO++OX+XXXX oX++++OO+",
"+XX++XX+OO+O++o.OOXXOO   XoXoo@@.+X+XX++OXX+++OOOO+X++ X+XXOOO++",
"X++O++OO+XX++ .XX+O+XXO+  @Xoo@@O+XXX+OOOO++OO+XX+OO+X O+OO+++XX",
"OOO++XXX++XX  OOXX++OXXXXOO@@@@@O++X+++O+X+OOXX+XX++OO@XOO+XXXX+",
"O+++XX++OO++ O+++OOO+++X++XO..@@OOO+XXXXX+O++++O++XX+@ O++XX++OO",
"+XXXXXXX++Xo OXX+++OOOX++XXXXX@@OO+X++XX+OOO++XXOO++X@XOOX++OOO+",
"XX+++++XXX+ OX++XX+X++OXXXX++X@@O+X+XXX+OOXXXX++XOO+O@O+++OO++++",
"++XXX+XXX+  OXX++XX+XX++XX++XX@@O+XXX++X+++XXXXX+++O @++OOO++OO+",
"+XXXooXXXX .X++XXXXXXooX++XXXX@@OOO+OO++XXXXXoX+OO++X@@O++++XX+O",
"X++XXoooX OOXXXXoXXooXX++XXXXo@@O+OOXXXXXXXooXXX++O+X @+++X++XX+",
"XX++XXXoo OXXXXXXoooXXXXXXXXoo@@O+XX+++XXooXooXXXXXX+X@XXXXX++XX",
"XXXX+Xoo OXoXXXXXXoooooXXXXoXo@@+XXXXX++++XXXXoooX+++X @XXooXXXX",
"XXXXXXXX ooXoXXXXXXoooooooXXoo@@XXXXXXXXXXooooooXXXXXoo @ooXXXXX",
"ooooooooo oooooooooooooooooooo@@oooooooooooooooooooooo  @ooooooo",
"        @  @@           @@@@@@@@@@@@          @@@      @        ",
"@@@@@@@@@@@@@@@@@@@@@@@@@@@@@@@@@@@@@@@@@@@@@@@@@@@@@@@@@@@@@@@@"
};
