/* XPM */
static char *crimson_roots[] = {
/* columns rows colors chars-per-pixel */
"64 64 6 1 ",
"  c #50062A",
". c #660627",
"X c #AD101C",
"o c #920636",
"O c #A00B2B",
"+ c None",
/* pixels */
"++++++++++++++++++++++++++++++++++++++++++++++++++++++++++++++++",
"++++++++++++++++++++++++++++++++++++++++++++++++++++++++++++++++",
"++++++++++++++++++++++++++++++++++++++++++++++++++++++++++++++++",
"++++++++++++++++++++++++++++++++++++++++++++++++++++++++++++++++",
"++++++++++++++++++++++++++++++++++++++++++++++++++++++++++++++++",
"++++++++++++++++++++++++++++++++++++++++++++++++++++++++++++++++",
"++++++++++++++++++++++++++++++++++++++++++++++++++++++++++++++++",
"++++++++++++++++++++++++++++++++++++++++++++++++++++++++++++++++",
"++++++++++++++++++++++++++++++++++++++++++++++++++++++++++++++++",
"++++++++++++++++++++++++++++++++++++++++++++++++++++++++++++++++",
"++++++++++++++++++++++++++++++++++++++++++++++++++++++++++++++++",
"++++++++++++++++++++++++++++++++++++++++++++++++++++++++++++++++",
"++++++++++++++++++++++++++++++++++++++++++++++++++++++++++++++++",
"++++++++++++++++++++++++++++++++++++++++++++++++++++++++++++++++",
"++++++++++++++++++++++++++++++++++++++++++++++++++++++++++++++++",
"++++++++++++++++++++++++++++++++....++++++++++++++++++++++++++++",
"+++++++++++++++++++++o..+++++++.o+++.+++++++++++++++++++++++++++",
"++++++++++++++++++++oo+o.+++++.o+++++.++++++++++++++++++++++++++",
"++++++++++++++++++++o+++o.++++.++++++o+++++...++++++++++++++++++",
"+++++++++++++++++++++++++.++++o+++++oo++++.o++.+++++++++++++++++",
"+++++++++++++++++++++++++.+++++++++.o++++.o+++o+++++++++++++++++",
"+++++++++++++++++++++XOO+.+++++++++.o++++.o+++++++++++++++++++++",
"++++++++++++++++++++o++.o.o++++++++o.+++++. ++++++++++++++++++++",
"++++++++++++++++++++++++X.+++++++++o+++++++. +++++++++++++++++++",
"++++++++++++++++++++++++ ++++++++++o++++++++..++++++++++++++++++",
"+++++++++++    +++++++++ +++++++++o.+++++++++..+++++++++++++++++",
"++++++++++ o++o ++O+++++ ++++++++..+++++++++.+.O++++++++++++++++",
"+++++++++oo++++o++o++++. +++++++++.++++++++++++.O+++++++++++++++",
"++++++++.o++++++++oO+++ +++++++++..+++++++...+++.O++++++++++++++",
"++++++++o++++++++++oO++ +++++ ++..+++++++.++ .+++O.+++++++++++++",
"++++++++.+++++++++Oo+++..+++++ +o+++++++. +++o++++.+++++++++++++",
"++++++++  +++++++++o+++.++++++ O.+++++++.+++.o++++.O++++++++++++",
"+++++++++ +++++++++Oo+  ++X++. X++++++++++++o.++++O ++++++++++++",
"+++++++++. +++++++++o+ +++O+++ Oo++++.+++++.o++++++ ++++++++++++",
"++++++++++ +++++++++o+ +++o+O .o++++.++++++o+++++++Oo+++++++++++",
"++++++++++..++++++++O  ++O+XO +O++++.+++++ o.++.++++o+++++++++++",
"+++++++++++. ++++++++. ++++O+.++ ++. +++++ .++++.++++o++++++++++",
"++++++++++++ .++++++++ ++++X. ++ ++.++++++. ++++.++++o++++++++++",
"++++++++++++.++++++++.++++++.+++ +o. .++++X++++o.+++++o+++++++++",
"+++++++++++o.++++++++.+++++. ++++ +. ++++O.++++o.+++++oO++++++++",
"+++++...++++.+++++++.+++++  +.++Oo+ .++++X+++++.+++++++O++++++++",
"++++. ++..++o.++++++.++++. ++++++XO+. +++X++++.++++ +++oX.++++++",
"+++o ++++ .++ ++++++.++++ .+++++++X+ .++oO.++. ++++.++++oX++++++",
"++o ++++++ ++ o++++++.++ .++++++++X+++.+X++++. ++++. ++++o++++++",
"++.++++++++++oX++++++o.+ .++++++++OO+++.X++++o++++ .+++++X.+++++",
"++.+++++++++++X+++++++.+ ++++++++++X+++.++++ +++++. ++++++.+++++",
"+ .+++++++++++O+++++++o. +++++++++oO++. +++o ++++o ++++++..+++++",
"++.+++++++++++O++++++++o ++++++++++o++ .+++o ++++o +++++++.+++++",
"++.o+++++++++oX+++++++++o+++++++++o++. ++++o++++oo+++++++ o+++++",
"+++o.+++++++++o+++++++++o++++++++.o+++ ++++o+++++.+++++++ ++++++",
"+++. +++++++++ o++++++++.o+++++++o.++ .+++oo+++++..+++++o.++++++",
"++++ +++++++++O ++ +++++..++++++.o.++ .+++oX+++++.++++++o+++++++",
"++++oo+++++++++X +. +++++.o+++++o.+++ ++++.X+++++. ++++. +++++++",
"+++++o.++++++++X +.+++++..o+++++oo+++.+++..+++++++ .+++ .+++++++",
"++++++.o+++++++O.  +++++++.++++.o.o+..++o.X+++++++. +++o++++++++",
"+++++++.++++++++X ++++++++.o+++.o+.. +++.o+++++++++ ++oo++++++++",
"+++++++ .+++++++o. ++++++++ +++ +++ .++o.XX++++++++o.+ +++++++++",
"++++++++.o+++++++. ++++.+++ +++ .+++.++o ..X++++.++o.  +++++++++",
"++++++++o++++++++o +++. +++ ++. ++++.+ .+  .X+.+ ++X .++++++++++",
"+++++++oo+++o++++o ++ .+++ ++++ ++++. . +o+ o++ .++X .++++++++++",
"++++++++o++ o+++++o++.++++ +++. ++++ . ++++. o+ X++. +++++++++++",
"++++++++o+o ++++++o.+.+++ ++++. +++++. +++++ o .X+X. .++++++++++",
"++++++++ o o+++++++o .+. ++++. ++++.  +++++++  X++o  +++++++++++",
"+++++++o   +++++++++  ..+++++ .+++  .++++++++  .+.  .+++++++++++"
};
