/* XPM */
static char *crimson_nylium[] = {
/* columns rows colors chars-per-pixel */
"64 64 7 1 ",
"  c #854242",
". c #7B0000",
"X c #723232",
"o c #652828",
"O c #941818",
"+ c #AC2020",
"@ c #BD3031",
/* pixels */
"    .X  XX...ooooo XXXOO.OOXXXX+O.X XXoXXoo.oo+oX+++..o.O....oXX",
"X X   XXXX.Xoooo.XX X XOO..OX+X++X.XXo...X.o..XX+@+OO..O..o.ooo.",
"XX  XO XO.X.oo.o..X.XX XOO..XO++X.oo...O..o.XX++@+OO.O.o.O.oo..X",
"OXX O.XOOO.O.o...X XXX  O+OO.X+O.o.oo.OXoXoXX+++OO..OOo.OO.o.XO.",
"OO.X..O.OOOO..o.. XO..X  O++O+.OX..oo..XXoX +X+O..O...OOO..oXXXO",
"O.O..OOO..O.oo..  ..O.   .O++...XX.o.+O Xo XO+OOO.X.OOOO.+o.+ XX",
"o.oOOO...O..oX.X  .   XX  ..O+.O..X.o. XooXOOO+O.X.OO++O+++++X  ",
"Xo.O....XX.oX X     XXXXX  ..++.+....O XoXOO..O.O.+O+++@@+..o+X ",
".oooX.o.o X.XX   XOOO  X X  ..+++O..O+  XXO..o.OOO++O+@@...O.o. ",
"..ooXXoo...XXX XXX.OXX  XX  ..O+O+.+O+X XO.oo.X..O.++@O..OO.oooX",
"O..XXoooo.X.  X OXX.. XX X X.O+OO.O+++XXXXooXX..O...++.OOO.oO.oo",
".OO.oo.oo.XX@ XO@OX X...X X...O..OOO++ X X.ooXO.OOo.+OOO..o.Oo.o",
"oOXXooo.ooXXO@OOX  X.XX..X..OO...O.++  O  X.XOOOOXOoO.OOO..O..X.",
"OXX Xooooo.X.OO..X  X.XX.....OO.O.+  +OX XXXOXO.X ...O.O.OO.X.X.",
"OX  XXo.ooo.X..o..XXOX..o.oo.O.  ..O.OXXX X XO.XX XX....O.O..X.O",
"X  X  Xo....oooo.XX.O.O.oo.oo..X  ..XXXX   X  XX   X X......XXOO",
"+ +  Xooo..ooO.oXOO..OOO.o..o...XX XX X @   X   XX  X..X..XXX.O@",
"++  Xoo..oo.OO.oO+..+O..oXo..o. X   XX  @@+@  X  XX .XX..XXXX.@@",
"+ XX..XOO..O..o.++++oo.oXXoo...X   X  XO.O@++@  XXXXXX. XX X  @+",
"+ X..o.XOO...ooO++Ooo.ooXooo.XX      XOO.oOO@ XX.X.XX.    XX @+ ",
" XX.O.o..OO..o.+O....O..oXo.o.X .oXOXX+O+.o.oo....XXX X     ++  ",
"XX. OO.Oo..Oo....O.oo.O..X.O.X ..oOOX+++O.oo.ooo.XX  XXX X  X   ",
"X  XO.OO.oo...O.O.ooXOOO..O.OOo.oo++O@+@+O....OOX   X.X X    X X",
". X..OO.OOoo...OOo.oX.O.O..OOOOooO+@@+@+O+@..O..  XXOXXX  .. XX ",
"..OO...XX....O..O...XX.O..OOO+OO++@@@@++@@+X  ...OXO..X o..O. XX",
"X.O.O.  .o..o.OO.O.. X .oO.++OO+O@+@++@O+@XX   .o.OOo.XX.oo.O  X",
"XX.OX X.o..o.X OO.O.  Oo.O..@++@++++@OOO..X XX  .OOo.X.XX.oo.. X",
" X..O..O..oo XX .OOO .ooO+O.+O++@+@+O.O.o.XXX  +O.ooX..X.oo.... ",
"X X....o.oo  X X ..O.o.o+@++O+@+@@+@+O.o.XX  X@+ OX.XXX.oo..O.O.",
"XXX.XX..oooX  XX  ..O.O.o+@+OO+@+@@@@+oooX XX@+  OXX..Xooo.OOO..",
".X.X..Ooo.oX   XX  ..O.O..@@+OO+@@@@++o.ooXX  X   X..Xooo.O.OOO.",
"o...OOOO...oXX  XX  .OOOOO.@@+O+O@@+@O..o.X   XX  XXXooo...o.O..",
".oO..OO  XXX X XX Oo...OO.O+@.OO++@+O..o.oX. X XXXXX .ooooo.....",
"oooOO. OXX  X XX O..oo...OOO..+O@+@@+O..oo.XXX.XX   XX.oo...O...",
".OoOXXX      XX .....oo.OOOOO...O@@+.OO.ooo.X.XX X   XXXX..XXOo.",
".XOo X  X   XXX..o.....oo..O.O..+@+O..OO.o.o..X    XX XOX+..X.Xo",
"X X.O.O  XXXX .oo..O.ooo  X...+.@OO..o....oo.X.XX XX.OO++Oo..XXX",
" XXX...OO XXO.oo.OOoooX  XXX.+++OO. o.oo..o.O.X XX..OXO+++OoXX  ",
"X...XX..OOO..oo.OOooXX  XXXXX +OO   .ooooo.O..XX.XXOX.XO++++ooX ",
"O..X.XXXX..oo.OOO.oXX XXX XX  OO . .ooooo.OO.X..X.OOOX.o+.oO.ooX",
"OOXXX...XXo..OO@ oXXXXX  XX  .XO.....ooo..O.o.ooOO+OOXXooo..OOOo",
"+O.XXX.Xo...O@@  X XX   XX   X..O.oo.oo..O...oo.O+OO.OX.ooOO+O..",
"O+O.oo.oXXXX@@O   XX  XX    XX.OOO.oo.ooo..oo..O++OOo.XX.O++O...",
".++O.ooo.XX@@   XX  OX    XXX.OO..o.oo.o..oo..OO+OO.ooXXXX+..OO.",
"o.O..Oooooo.   XX  OX XX XXX.O.....OO.o..o.OO..+++O+.o.X.oo...O.",
".o.OO..o.o.O  X   O.X..XXX.o...o..o.OO..OOO..OO.+++O.Xo.oooo...O",
".ooO+O..OOOO.    OO...XXXoo..oo..oooo.OOO..OOOO+O+..X..o..ooo...",
"X..oO+O+.O++O.. OO...XX.oo.ooo.Ooooooo.O.O..O.OOOOO.OOX.X...Xo..",
"..XX.OOO+++++O..O.X.XXOO..oooOOo.ooo. o..ooo.O..OOOO+.OXXXX..X..",
".X.X.++OO+++++O...XX.OOOOO.oOOooX.oo X X..o.o.oo.O.OO++O.XXXX.oX",
"XXX.+O+++O++OO+O.O.OO.O.OOO.OoXXX  X  XXXXX . .oo.O..O++OooXooXX",
"XXX.O..+OO+OO.O.OOOO...OOOOOoo.X  X   X XXXX X...ooO...O+XoooooX",
".X.oo.OOO.O..OO..XXX .  .OO.ooo.XXX      XX X  o.o...OO..OXXXooX",
"X.oo.O.O....OO..XXX    ..O.O.o.XXX @   XXXX   ooo.O.OO....O.XXoo",
"X..OOOO.O...O.OO.XXX  X ..OOO.XX  @     X  X  XooOOOo.oo..o..X.o",
".OOO.O....oo.o.O..X XX  .O.OO.X  @@@@ XX     XXX..O..oo..X.o.Oo.",
"OOOOO..o...oooo.OO.XXX ...O.OO..X@@@ XX   X  X  .Oo.oo.X  .oO...",
".OO..o..oooooo.o.XOXX........OO...@ XX   XXX  . X..oo.X  Xooo...",
".O....oooo..o.O...XXXX.X....O.OOO@ XX  XXXX  .O.  ..XX.XX oo..O.",
"O.O X...X..X..OO..oXXoX..oO..OO.@ X   XXX   ..oO.oX  XX.X.o.OO..",
".OO. XXX.XX .OO.ooXX Xo.o..O...XXX   X   +O+++oo+OoooX...oOOO.O.",
"..OO  XXX   O..ooX  XXooo.OO.XXXX  X    +++OXooOO+.oooX.oo.O...X",
"XX.OO   XX ...XXX  XXooo.OO..O.X XXXX  XX+OooXX++O...ooo.OO..Ooo",
"X X.OOOX  ...X.X XXXoo....OOO...XXXX  XXXXooX+++O.OOo..oo.OOO..o"
};
