/* XPM */
static char *dark_oak_trapdoor[] = {
/* columns rows colors chars-per-pixel */
"64 64 8 1 ",
"  c #53361A",
". c #493116",
"X c #32210F",
"o c #291A0C",
"O c #412B13",
"+ c #3D2812",
"@ c #624224",
"# c #724A24",
/* pixels */
"        ...              ..                    ...    ...       ",
".        .....         ..     .             ........    ...     ",
" ...  ...     .....  .  ... ....         ..        ....    ..   ",
"  ....     ..    ...  ....      ....  ....       ..       ..    ",
"     .......    ..       ..    .    ..    ..   ...   .....    ..",
"    ...       ... ...          .. ......      ..  ......    ... ",
".  ...XooooooooooXXXoooooO    .. ..   XooooooooooXXXoooooO ..   ",
". .. .o+++++++++++++++OO.@ .  .       o+++++++++++++++OO.@ .    ",
".. . .o+++OOO+OO.OO......@ .  .  . .. o+++OOO+OO.OO......@..  . ",
"..  ..o++O..OOOOO....OO..@  . .  ..   o++O..OOOOO....OO..@. . ..",
" .  . o+OOO.....OOOOO....#  ..   .  . o+OOO.....OOOOO....#.   . ",
" .  . o+O.........OO.....#   .  ..  . o+O.........OO.....#.  .  ",
"  .  .o+....OOOOOO...... # .    .   . o+....OOOOOO...... # . .  ",
"  .  .o+...OOOO......... # .   .. . ..o+...OOOO......... # ...  ",
"  .   X+OOO....OOO...... @  .  .  .  .X+OOO....OOO...... @  ..  ",
"  ..  o+O.............. .@  .  .   . .o+O.............. .@  ..  ",
" .. . oO....O............@  ..  .  . .oO....O............@.  .  ",
" .. . o+.....OO......... @   .  .. .. o+.....OO......... @.  .  ",
" .  ..X+.......OOO...... #  ..   . .. X+.......OOO...... # .  . ",
"..  ..X+O.......OOOO.... #. ...  .  . X+O.......OOOO.... # .. . ",
"..  . XO....OO......OO.. # ....   . . XO....OO......OO.. #  .   ",
". .   X......OO.....  .. #  . .   ..  X......OO.....  .. #      ",
"  .  .XO.......OO.....   #    ..   .  XO.......OO.....   # .    ",
"  .  .XO...............  #  . ..   .  XO...............  # .    ",
"   . .X. .    ....       @..  .   .   X. .    ....       @ .  . ",
"   . .O@@@@@@###@@######@@.  .        O@@@@@@###@@######@@ .  . ",
" . ....            .. ....         ..   .  ...  .....     .. .  ",
" .  ..           ..     ......       ...       .........  .. .  ",
" .  .   .. .......   ...  ..  ...  ....   .. ...   ...    ...   ",
" .  .     .....     ..      .    .........        ..      . .   ",
" ..  .        .....     ...         .   ......           .  .   ",
"..   .         .......    ..         ..   ..   .        ..  ..  ",
"..        ......      ..    ...   .     ..      .... ...    ..  ",
"..      ....    ..  ...      .....    ...         ...       . . ",
" .  .             ...     ....  .        ...   ..             ..",
" .   ...           .    ..        ..    ..    ..   ....        .",
"   ...     ..  .......              ....    ........   . .. .  .",
".   ......  .......   ..   .           ...     ...    ...   .   ",
" . ...XooooooooooXXXoooooO ..     .   XooooooooooXXXoooooO .    ",
" .. . o+++++++++++++++OO.@  .     ..  o+++++++++++++++OO.@..    ",
"..... o+++OOO+OO.OO......@   .   .  ..o+++OOO+OO.OO......@. .   ",
". ... o++O..OOOOO....OO..@   .  ...   o++O..OOOOO....OO..@. .   ",
". ..  o+OOO.....OOOOO....#  ..  . ..  o+OOO.....OOOOO....#  .   ",
". .   o+O.........OO.....#  . . .   ..o+O.........OO.....#  ..  ",
"  .  .o+....OOOOOO...... # .  . .     o+....OOOOOO...... #  .   ",
"  .  .o+...OOOO......... # .  ..    . o+...OOOO......... #  ..  ",
"  . . X+OOO....OOO...... @ .  ..    . X+OOO....OOO...... @.  . .",
"  ... o+O.............. .@..  ...  .. o+O.............. .@.  . .",
"   .  oO....O............@.    .   .  oO....O............@.  .. ",
"    . o+.....OO......... @ .   . . .  o+.....OO......... @.   . ",
".    .X+.......OOO...... #.. .   . .  X+.......OOO...... # . .. ",
". .  .X+O.......OOOO.... #.  .    ..  X+O.......OOOO.... # . .  ",
". . ..XO....OO......OO.. # .  .   .   XO....OO......OO.. # . .  ",
"..  ..X......OO.....  .. # .  .   . . X......OO.....  .. # ...  ",
" .  ..XO.......OO.....   #.   . .   ..XO.......OO.....   #  ..  ",
".   . XO...............  #.   ..   .. XO...............  #  .   ",
".  .. X. .    ....       @     . ..   X. .    ....       @  .   ",
"   .  O@@@@@@###@@######@@     .    . O@@@@@@###@@######@@  .   ",
"  .         ......  ....    .   . ......        ...     ....    ",
"  .           ..  .. .......         .......      ..      ...   ",
"       .....          .    ...            ....      .....   ..  ",
".   .....   ...   ...           .       ...      ..     ..      ",
"...            ....    ...   .......  ...     ....    ... ...   ",
" .          ......        ......         .      ... ..      ...."
};
