/* XPM */
static char *dead_fire_coral_fan[] = {
/* columns rows colors chars-per-pixel */
"64 64 6 1 ",
"  c #5D5A59",
". c #746A66",
"X c #867B77",
"o c #99938D",
"O c #A4A09C",
"+ c None",
/* pixels */
"++++++++++++++++++++++++++++++++++++++++++++++++++++++++++++++++",
"++++++++++++++++++++++++++++++++++++++++++++++++++++++++++++++++",
"++++++++++++++++++++++++++++++++++++++++++++++++++++++++++++++++",
"++++++++++++++++++++++++++++++++++++++++++++++++++++++++++++++++",
"++++++++++++++++++++++++++++++++++++++++++++++++++++++++++++++++",
"++++++++++++++++++++++++++++++++++++++++++++++++++++++++++++++++",
"++++++++++++++++++++++++++++++++++++++++++++++++++++++++++++++++",
"++++++++++++++++++++++++++++++++++++++++++++++++++++++++++++++++",
"++++++++++++++++++++++++++++++++++++++++++++++++++++++++++++++++",
"++++++++++++++++++++++++++++++++++++++++++++++++++++++++++++++++",
"++++++++++++++++++++++++++++++++++++++++++++++++++++++++++++++++",
"++++++++++++++++++++++++++++++++++++++++++++++++++++++++++++++++",
"++++++++++++++++++++++++++++++++++++++++++++++++++++++++++++++++",
"++++++++++++++++++++++++++++++++++++++++++++++++++++++++++++++++",
"++++++++++++++++++++++++++++++++++++++++++++++++++++++++++++++++",
"++++++++++++++++++++++++++++++++++++++++++++++++++++++++++++++++",
"++++++++++++++++++++++++++++++++++++++++++++++++++++++++++++++++",
"++++++++++++++++++++++++++++++++++++++++++++++++++++++++++++++++",
"+++++++++++++++++++++++++++++++o++++++++++++++++++++++++++++++++",
"+++++++++++++++++++++++++++++++o++++++++++++++++++++++++++++++++",
"+++++++++++++++++++++++ ++++++oOo+++++X+++++++ +++++++++++++++++",
"++++++++++++o+++++++++  ++++++oOo++++Xoo++++++.+++++++++++++++++",
"++++++++++++X+++++++++ X+++++oOOOX+++ooo++++++. ++++++++++++++++",
"++++++++++++oo++++++++ X +++XXXoOoX+XoXoo++++ . ++++++++++++++++",
"++++++++++++oXo++++++ XXX+++XXoXoOXXXXOoOX+++.  .+++++++++++++++",
"+++++++++++++ooo++++ X Xo+++.XXXoooXoXOOoXX+.  ..+++++ +++++++++",
"+++++++++++++oXo++++  XoX+++X..oXoooOoOOXXoX. . ..++++ X++++++++",
"+++++++++++++ooXo+++X XXoX+++.XX.XoooOOXoooXX ...++++ Xo++++++++",
"++++o++++++++XoXX+++oXoXoO.+++..XoXoXOOoXoX.. X..+++ Xoo++++++++",
"+++++o+++++++oXXX ++XoXoOoX +++..X.XooOOo+.. XXX+++XoXXoX+++++++",
"+++++oo++++++.Xo . ++XoOOX .  ++...XXOoO+++XX X +++XXoooX+++++++",
"++++++oo++++X.X..   .+XOX..  . ++.X.XoXo++++X   X+XoXooXXX++++++",
"++++++oXX+++.....X .XXXoOX...  ++..XoXooX+++ X X XXooooXXX++X+++",
"++++++XoXX+X.X..Xo.X.XoXoOX. .. ++.X.XoXoX+XX  XXXoXXoXoXXo+X+++",
"+++++oXXXXX..ooXXXX.XXXooX...X.X++..XoXXXXX X XXXooXoooXXoXoX+++",
"+++++ooXoXX..XXoXoXXoXooo..XX.XX+..XXXXXXXoX  XXXXXoXOooXXooX+++",
"++++XoX..X...X. oXXXXoXoXX .XXX++.X.XXXXXXXX XXXX+XXooOXXooX++++",
"++++oOoX...... .XooXooo+  .X.XX+..XXoXXoX+X X XXX+ooXOOoOXo+++++",
"++++oOOoXXX.. + oXooo+++.  X XX+oXooXXXX+++ XXXXXX+XOoOOoOX+++++",
"++++XXOOoXoX .++Xooo+++...    XXXOoXXXX++++ X XXXX++oXoOOO++++++",
"++++XooOOXoo  ++++++++... X  XoXooOoXoX+++++  XXX+++XoXOOo++++++",
"+++++oXooOoXX +++++++X..... X XoOOOooXX+++++ X XX+++oXXXoo++++++",
"+++++XoXXoXoX ++++ ...X....X XXoXOoXoXXX+++++XXXX+++ X XX+++++++",
"++++++XX XXXX+++X  ..XXX...XX.XXOOXXX X X++++XXX+++   XX++++++++",
"++ ++++ X ++++X   ..X.X+X..X.XoXoOXXoX  X+++++X++++ .XX++ ++++++",
"++  X++   XooXoX X ..XX+..X .XooOoXoXX X X++++X+++  XX++ X++++++",
"+++   X  XoXooX  X.oXoXX+..  XoXoOooXX XX X+++++++ XX++  Xo+++++",
"++++    X XooXX X XooXXX++ . .XXOOoXX  XXXXXX++++ X X++ XooX+++X",
"++++++++ XXoXX   XXooXXX+++ .XXoOoXXX X oXXXXX++  XX++X  Xoo++XX",
" ++++++++XXXo  X XoXooX++++ . XOOoXX   XXoXoXX+XX  +++ X XXoo+XX",
" +++++++++XXX X XXXXXoXo++   XXoOoOX X XXooXXXXXXX +++ XXXXoXoXX",
"  X+++++++X X XXXXoXoooXX+ X XXXOOoXX XXXXoXXXXXX X++ X XXXooXoX",
"+  oo++++++X  XXXXXoooXXX + XXoXOoXX  XXXoooXXXXXX+++  XXXXXoXoX",
"++ XoO+++++X X XoXoooX XX +XXXooOXoX XXXoXoOoXoXo+++ X oXoXoXoo+",
"++  XoOo++++ XXXXooooXo X +XXXXooXo   X XoOoXoooo++  XXXoXOoOOo+",
"+++XoXoOO++++ XoXooXooX  ++XoooXoXX  X X XOOoXoX+++ X XooXoOOo++",
"+++  X oOOo+++XXoooXXoXX +XXXooooXX X    ++oOoo+++  XoXoOoOoO+++",
"++++  ooXoOO++XXooXXoXX  +XX XXoooXXX   ++++OO+++XX XXooXOOo++++",
"+++++  XoXooo++ooXXX X  +XXXX XXooXXX  ++++Ooo+++XXXXXXXoo++++++",
"++++++ X X Xoo+XooXXX +++  X   XXoXXXX +++oXoX++XXXXXXXo++++++++",
"+++++++   XoXoooXooXXX++  X  XXXXXoXXX+++oOXXXXXX.XX...+++++++++",
"+++++++++XoX XXX  XoXXX++   X X  XXXX+++oXXoXXXXXX....++++++++++",
"++++++++++XXX    XX  XXX+++     X XXX++.X.XX.XXX.X...+++++++++++",
"++++++++++++ X      X XXX+++++   XXX+.......XX......++++++++++++"
};
