/* XPM */
static char *dead_bush[] = {
/* columns rows colors chars-per-pixel */
"64 64 9 1 ",
"  c #513D24",
". c #5D4728",
"X c #67502C",
"o c #76562A",
"O c #946428",
"+ c #9F6E31",
"@ c #B17A36",
"# c #CB8D41",
"$ c None",
/* pixels */
"$$$$$$$$$$$$$$$$$$$$$$$$$$$$$$$$$$$$$$$$$$$$$$$$$$$$$$$$$$$$$$$$",
"$$$$$$$$$$$$$$$$$$$$$$$$$$$$$$$$$$$$$$$$$$$$$$$$$$$$$$$$$$$$$$$$",
"$$$$$$$$$$$$$$$$$$$$$$$$$$$$$$$$$$$$$$$$$$$ $$$$$$$$$$$$$$$$$$$$",
"$$$$$$$$$$$$$$$$$$$$$$$$$$$$$$$$$$$$$$$$$$$ $$$$$$$$$$$$$$$$$$$$",
"$$$$$$$$$$$$$$$$$$$$$$$$$$$$$$$$$$$$$$$$$$OX $$$$$$$$$$$$$$$$$$$",
"$$$$$$$$$$$$$.$$$$$$$$$$$$$$$$$$$$$$$$$$$$X $$$$$$$$$$$$$$$$$$$$",
"$$$$$$$$$$$$$$.$$$$$$$$$$$$$$$$$$$$$$$$$$OX$$$$$$$$$$$$$$$$$$$$$",
"$$$$$$$$$$$$$$@X$$$$$$$$$$$$$$$$$$$$$$$$OX $$$$$$$$$$$$$$$$$$$$$",
"$$$$$$$$$$$$$$O+o$$$$$$$$$$$$$$$$$$$$$$$o $$$$$$$$$$$$$$$$$$$$$$",
"$$$$$$$$$$$$$$$OO$$$$$$$$$$$$$$$$$O$$$$@. $$$$$$$$$$$$$$$$$$$$$$",
"$$$$$$$$$$$$$$$.@o$$$$$$$$$$$$$$$OX$$$$O..$$$$$$$$$$$$$$$$$$$$$$",
"$$$$$$$$$$$$$$$$O@$$$$$$$$$$$$$$O.$$$$#OXX$$$$$$$$$$$$$$$$$$$$$$",
"$$$$$$$$$$$$$$$$X#o$$$$$$$$$$$X$#.$$$+OoO$$$$$$$$$$$$$$$$$$$$$$$",
"$$$$$$$$$$$$$$$$.+O$$$$$$$$$$$$.+X$$$@oX.$$$$$$$$$$$$$$$$$$$$$$$",
"$$$$$$$$$$$$$$$$$X@o$$$$$$$$$$$$oO#$O#OoXX$$$$$$$$$$$$$$$$$$$$$$",
"$$$$$$$$$$$$$$$$$.O+$$$$$$$$$$$$XO+@OXOX .X$$$$$$$$$$$$$$$$$$$$$",
"$$$$$$$$$$$$$$$$$$X@o$$$$$$$$$$$$oXOXoX$$$ .$$$$$$$$$$$$$$$$$$$$",
"$$$$$$$$$$$$$$$$$$.O@$$$$$$$$$$$$@OXXX $$$$X$$$$$$$$$$$$$$$$$$$$",
"$$$$$$$$$$$$$$$$$$$X@+$$$$$$$$$$$$#O.X$$$$$$$$$$$$$$$$$$$$$$$$$$",
"$$$$$$$$$$$$$$$$$$$.O@o$$$$$$$$$$$#oX.$$$$$$$$$$$$$$$$$$$$$$$$$$",
"$$$$$$$$$$$$$$$$$$$$X+Oo$$$$$$$$$@OXX.$$$$$$$$$$$$$$$$$$$$$$$$$$",
"$$$$$$$$$$$$$$$$$$$$.O#@+$$$$$$$$#OoX $$$$$$$$$$$$$$$$$$$$$$$$$$",
"$$$$$$$$$$$$$$$$$$$$$X@O@+$$$$$$.XOX $$$$$$$$$$$$$$$$$$$$$$$$$$$",
"$$$$$$$$$$$$$$$$$$$$$.O@##o$$$$.XOX. $$$$$$$$$$$$$$$$$$$$$$$$$$$",
"$$$$$$$$$$$$$$$$$$$$$$.oO@#+o$ X.OX.$$$$$$$$$$$$$$$$$$$$$$$$$$$$",
"$$$$$$$$$$$$$$$$$$$$$$$.@O@#@oXX.X..$$$$$$$$$$$$$$$$$$$$$$$$$$$$",
"$$$$$$$$$$$$$$$$$$$$$$$$.oO++@oXX..X$$$$$$$$$$$$$$$$$$$$$$$$$$$$",
"$$$$$$$$$ $$$$$$$$$$$$$$$.+OO#O+Xo.X$$$$$$$$$$$$$$$$$$$$$$$$$$$$",
"$$$$$$$$$$.X$$$$$$$$$$$$$$Xo+#@OOX..$$$$$$$$$$$$$$X $$$$$$$$$$$$",
"$$$$$$$$$$$ XXOO$$$$$$$$$$.oOO#@+XX.$$$$$$$$$$$$+O $$$$$$$$$$$$$",
"$$$$$$$$$$$$ .XO+@#$$$$$$$$XO+@+OoX.O$$$$$$$$##OX $$$$$$$$$$$$$$",
"$$$$$$$$$$$$$$ .XXoO#@$$$$$XoOO@+o.XO$$$$$ X@OX.  $$$$$$$$$$$$$$",
"$$$$$$$$$$$$$$$$ .XXoO@X$$$$XO@#OOXO@$$$XO#OX.O $$$$$$$$$$$$$$$$",
"$$$$$$$$$$$$$$$$$$ .XXO#OX$$XoO@+XXo#O$O##OX. $$$$$$$$$$$$$$$$$$",
"$$$$$$$$$$$$$$$$$$$$ OXO#+X$XXO##XoO+@O@oo.  $$$$$$$$$$$$$$$$$$$",
"$$$$$$$$$$$$$$$$$$$$$ X.XO+X$XoO#oO@+#+oX.  $$$$$$$$$$$$$$$$$$$$",
"$$$$$$$$$$$$$$$$$$$$$$  .XOOXoXO@#o@OoXX  $$$$$$$$$$$$$$$$$$$$$$",
"$$$$$$$$$$$$$$$$$$$$$$$$  XoOX O+#@#OX. $$$$$$$$$$$$$$$$$$$$$$$$",
"$$$$$$$$$$$$$$$$$$$$$$$$$$  X .O+#+O+. $$$$$$$$$$$$$$$$$$$$$$$$$",
"$$$$$$$$$$$$$$$$$$$$$$$$$$$$  .oO@#OX.$$$$$$$$$$$$$$$$$$$$$$$$$$",
"$$$$$$$$$$$$$$$$$$$$$$$$$$$$$ .Xo#@OX.$$$$$$$$$$$$$$$$$$$$$$$$$$",
"$$$$$$$$$$$$$$$$$$$$$$$$$$$$$ X.oO#OXX$$$$$$$$$$$$$$$$$$$$$$$$$$",
"$$$$$$$$$$$$$$$$$$$$$$$$$$$$$$ XO@OX.$$$$X$$$$$$$$$$$$$$$$$$$$$$",
"$$$$$$$$$$$$$$$$$$$$$$$$$$$$$$ oO#oX.$$$X$$$$$$$$$$$$$$$$$$$$$$$",
"$$$$$$$$$$$$$$$$$$$$$$$$$$$$$$ O@@X..$Oo $$$$$$$$$$$$$$$$$$$$$$$",
"$$$$$$$$$$$$$$$$$ $$$$$$$$$$$$XO@o.XXOX $$$$$$$$$$$$$$$$$$$$$$$$",
"$$$$$$$$$$$$$$$$$$ X$$$$$$$$$$O@OXX.oX $$$$$$$$$$$$$$$$$$$$$$$$$",
"$$$$$$$$$$$$$$$$$$$.XO$$$$$$$$o@OXX.X $$$$$$$$$$$$$$$$$$$$$$$$$$",
"$$$$$$$$$$$$$$$$$$$$ O+OX$$$$$XO@o.. $$$$$$$$$$$$$$$$$$$$$$$$$$$",
"$$$$$$$$$$$$$$$$$$$$$ .XOXX$$XXoOo.X $$$$$$$$$$$$$$$$$$$$$$$$$$$",
"$$$$$$$$$$$$$$$$$$$$$$  XO@OXO.OOX. $$$$$$$$$$$$$X$$$$$$$$$$$$$$",
"$$$$$$$$$$$$$$$$$$$$$$$$  .@OX.XoXX.$$$$$$$$$$$$O$$$$$$$$$$$$$$$",
"$$$$$$$$$$$$$$$$$$$$$$$$$$  XOX.Xo.X$$$$$$$$$$oOX$$$$$$$$$$$$$$$",
"$$$$$$$$$$$$$$$$$$$$$$$$$$$$ XXXOX.X$$$$$$$$XOX $$$$$$$$$$$$$$$$",
"$$$$$$$$$$$$$$$$$$$$$$$$$$$$$X..X.XoX$$$$$.#@X.$$$$$$$$$$$$$$$$$",
"$$$$$$$$$$$$$$$$$$$$$$$$$$$$$ X..ooOO@@##oOX. $$$$$$$$$$$$$$$$$$",
"$$$$$$$$$$$$$$$$$$$$$$$$$$$$$$ X.oXO@@OoX.  $$$$$$$$$$$$$$$$$$$$",
"$$$$$$$$$$$$$$$$$$$$$$$$$$$$$$ .o.OXOoX.. $$$$$$$$$$$$$$$$$$$$$$",
"$$$$$$$$$$$$$$$$$$$$$$$$$$$$$$ .o.X.X.. $$$$$$$$$$$$$$$$$$$$$$$$",
"$$$$$$$$$$$$$$$$$$$$$$$$$$$$$$ .o X.. $$$$$$$$$$$$$$$$$$$$$$$$$$",
"$$$$$$$$$$$$$$$$$$$$$$$$$$$$$$ X. X $$$$$$$$$$$$$$$$$$$$$$$$$$$$",
"$$$$$$$$$$$$$$$$$$$$$$$$$$$$$$ X. . $$$$$$$$$$$$$$$$$$$$$$$$$$$$",
"$$$$$$$$$$$$$$$$$$$$$$$$$$$$$$. XX  $$$$$$$$$$$$$$$$$$$$$$$$$$$$",
"$$$$$$$$$$$$$$$$$$$$$$$$$$$$$$X.X   $$$$$$$$$$$$$$$$$$$$$$$$$$$$"
};
