/* XPM */
static char *dead_fire_coral[] = {
/* columns rows colors chars-per-pixel */
"64 64 5 1 ",
"  c #746A66",
". c #867B77",
"X c #99938D",
"o c #A4A09C",
"O c None",
/* pixels */
"OOOOOOOOOOOOOOOOOOOOOOOOOOOOOOOOOOOOOOOOOOOOOOOOOOOOOOOOOOOOOOOO",
"OOOOOOOOOOOOOOOOOOOOOOOOOOOOOOOOOOOOOOOOOOOoOOOOOOOOOOOOOOOOOOOO",
"OOOOOOOOOOOOOOOOOOOOOOOOOOOOOOOOOoOOOOOOOOOoOOOOOOOOOOOOOOOOOOOO",
"OOOOOOOOOOOOOOOOOOOOOOOOOOOOOOOOooOOOOOOOOooOOOOOOOOOOOOOOOOOOOO",
"OOOOOOOOOOOOOOOOOOOOOOOOOOOOOOOOooOOOOOOOOooOOOOOOOoOOOOOOOOOOOO",
"OOOOOOOOOOOOOOOOOOOOOOOOOOOOOOOOXooOOOOOOoXoOOOOOOOoOOOOOOOOOOOO",
"OOOOOOOOOOOOOOOOOOOOOOOOOOOOOOOOXXoOOOOOOooXOOOOOOooXOOOOOOOOOOO",
"OOOOOOOOOOOOOOOOOOOOOOOOOOOOOOOOOoooOOOOXoXXOOOOOOXoXOOOOOOOOOOO",
"OOOOOOOOOOOOOOOOOOOOOOOOOOOOOOOOOoXoXOOOoooXOOOOOooXOOOOOOOOOOOO",
"OOOOOOOOoOOOOOOOOOOOOOOOOOOOOOOOOO.o.OO.XooXOOOOXoXXOOOOOOOOOOOO",
"OOOOOOOOoOOOOOOOOOOOOOOOOOOOOOOOOO.Xo..XXoXXXOOXoXXXOOOOOOOOOOOO",
"OOOOOOOOooOOOOOOOOOOOOOOOOOOOOOOOOO.XX..XXoXXXXXXXX.OOOOOOOOOOOO",
"OOOOOOOOXoOOOOOOOOOOOOOOOOoOOOOOOOO.X.XXXXXXXoXX.X..OOOOOOOOOOOO",
"OOOOOOOO.ooOOOOOOOOOOOOOOOoOOOOOOOOOXXXXoXXXoXX.X..OOOOOOOOOOOOO",
"OOOOOOOOXXoOOOOOOoOOOOOOOOoXOOOOOOOOO.X.XXoXXX....OOOOOOOOOOOOOO",
"OOOOOOOOXoXOOOOOXooOOOOOOXoXOOOOOOOOO..X..ooXXX...OOOOOOOOOOOOOO",
"OOOOOOOO.XXoOOOXoXoOOOOOOooXOOOOOOOOOO...XXoXXXXX.OOOOOOOOOOOOOO",
"OOOOOOOO  .oXOOXXooXOOOOOoXoOOOOOOOOOOO...XX.X...OOOOOOOOOOOOOOO",
"OOOOOOOO .XooXOoXXooOOOOoooXOOOOOO OOOOOO...XX...OOOOOOOOOOOOOOO",
"OOOOOOOOO .XooXXXoooXOOooXXXOOOO  OOOOOOOO..X...OOOOOOOOO OOOOOO",
"OOOOOOOOO  ..XoXXoXooOXoX.XOOOOO OOOOOOOOOO.....OOOOOOOO.OOOOOOO",
"OOOOOOOOO   XXXXXXoXoOoX.X.OO..  OOOOOOOOOOO....OOOOOO   OOOOOOO",
"OOOOOOOOOO   .X.XXXXXXXX.  ..   OOOOOOOOO.......OOOOOO. OOOOOOOO",
"OOOOOOOOOOO . .X..oXX.XX..    OOOOOOOOO. . .   ..OOO.  OOOOOOOOO",
"OOOOOOOOOOOO   . XX..XX.X   .OOOOOOOO.  .    .   .O  .OOOOOOOOOO",
"OOOOOOOOOOOO    ..  ...X..OOOOOOOOOO ..    .OOO.    .OOOOOOOOOOO",
"OOOOOOOOOOOOO  ..  . ...OOOOOOOOOO...     OOOOOOOOOOOOOOOOOOOOOO",
"OOOOOOOOOOOOOO       . ..OOOOOOO..  .   .OOOOOOOOOOOOOOOOOOOOOOO",
"OOOOOOOOOOOOOOOOOOO   .  .OO.......    . OOOOOOOOOOOOOOOOOOOOOOO",
"OOOOOOOOOOOOOOOOOOOO    ....X... .  . .OOOOOOOOOOOOOOOOOOOOOOOOO",
"OOOOOOOOOOOOOOOOOOOOOO.  .  .X...    .OOOOOOOOOOOOOOOOOOOOOOOOOO",
"OOOOOOOOOOOOOOOOOOOOOOOO   ..XX.X..  OOOOOOOOOOOOOOOOOOOOOOOOOOO",
"oOOOOOOOOOOOOOOOOOXOOOOOO  ...XX... OOOOOOOOOOOOOOOOOOOOOOOOOOOO",
"oOOOOOOOOOOOOOOOOoXOOOOOOO  X.X.XX  OOOOOOOOOOOOOOOOOOOOOOOOOOOO",
"ooOOOOOOOOXOOOOOOooXOOOOOOO .XXXX. .OOOOOOOOOOOOOOOOO.OOOOOOOOOO",
"XXoOOOOOOOXoOOOOXXooOOOOOOOO X.XXX..OOOOOOOOOOOOOOOOO.OOOOOOOOOO",
"X.oOOOOOOOooOOOOooXoOOOOOOOO......X..OOOOOOOO.OOOOOO.XOOOOOOOOOO",
".XXoOOOOOXoXOOOXXooXOOOOOOOOO . ....  OOOOOOO.OOOOOOXXOOOOOOOOOO",
"O.XooOOOOoXXOOOXXoXXOOOOOOOOOO .  ... OOOOOOO..OOOOO.X.OOOOOOOOO",
"O..oXOOOOXXoOOXXoXoXOOOOOOOOOOO  .X. . OOOOO ..OOOOOXXX.OOOOO.OO",
"O.X.oXOO.X.XXOooX.X.OOOOOOOOOOOO  .XX. OOOOOO ..OOOOXXXXOOOO..OO",
"O . .X.O..X..OoX.X.OOOOOOOOOOOO.. ..XX  OOOOOO  OOOOXX..OOO...OO",
"OO . .X......oX....OOOOOOOOOOOO .. XXX..OOOOOOO ..OOXXX.OOO...OO",
"OO   ..... .X.XX..OOOOOOOOOOOOO. .X.X.X OOOOOOO. ....X.X.O ...OO",
"OO    . . .XX.X...OOOOOOOOOOOOO  X.XXX. OOOOOOOO.. . XX.... ..OO",
"OOOO   ..  ..X...OOOOOOOOOOOOOO .XXX.X .OOOOOOOOOO  .X.X...   OO",
"OOOOO     . ... ..OOOOOOOOOOOO. X.XX... .OOOOOOOOOO..XX.. .. OOO",
"OOOOOOOOOO   ... ..OOOOOOOOOO  ...X......OOOOOOOOOOOX.X  ....OOO",
"OOOOOOOOOOO    .  ...OOOOOOO. . .X.X. .....OOOOOOO......    OOOO",
"OOOOOOOOOOOOO    .......O..  .X..XX  ......OOOOOO... . ..   OOOO",
"OOOOOOOOOOOOOOO .  .. . . .....X.XX.  . ....OOOO  . ...   .OOOOO",
"OOOOOOOOOOOOOOOO     ...   ....XXX.  O ........     ..  .OOOOOOO",
"OOOOOOOOOOOOOOOOO   ..  ........XX  OO  .... ... .   .OOOOOOOOOO",
"OOOOOOOOOOOOOOOOOO       .. . ..XX .OO  .....  ..   OOOOOOOOOOOO",
"OOOOOOOOOOOOOOOOOOOOOOOO .   ..XX. OOOO  .....    .OOOOOOOOOOOOO",
"OOOOOOOOOOOOOOOOOOOOOOOOO. ..X.XX .OOOO . . ...  OOOOOOOOOOOOOOO",
"OOOOOOOOOOOOOOOOOOOOOOOOO.....XXX. OOOOO   .... OOOOOOOOOOOOOOOO",
"OOOOOOOOOOOOOOOOOOOOOOOOOO....XX.XOOOOOO    ...OOOOOOOOOOOOOOOOO",
"OOOOOOOOOOOOOOOOOOOOOOOOOOO.X..XX.OOOOOOO   ..OOOOOOOOOOOOOOOOOO",
"OOOOOOOOOOOOOOOOOOOOOOOOOOO..X.XX.OOOOOOOOO  OOOOOOOOOOOOOOOOOOO",
"OOOOOOOOOOOOOOOOOOOOOOOOOOO..XXXX.OOOOOOOOOOOOOOOOOOOOOOOOOOOOOO",
"OOOOOOOOOOOOOOOOOOOOOOOOOOOO.X.X..OOOOOOOOOOOOOOOOOOOOOOOOOOOOOO",
"OOOOOOOOOOOOOOOOOOOOOOOOOOOO..XX..OOOOOOOOOOOOOOOOOOOOOOOOOOOOOO",
"OOOOOOOOOOOOOOOOOOOOOOOOOOOO.XX.X.OOOOOOOOOOOOOOOOOOOOOOOOOOOOOO"
};
