/* XPM */
static char *dead_horn_coral[] = {
/* columns rows colors chars-per-pixel */
"64 64 6 1 ",
"  c #7B726E",
". c #867B77",
"X c #8A807B",
"o c #99938D",
"O c #A4A09C",
"+ c None",
/* pixels */
"++++++++++++++++++++++++++++++++++++++++++++++++++++++++++++++++",
"++++++++++++++++++++++++++++++++++++++++++++++++++++++++++++++++",
"++++++++++++++++++++++++++++++++++++++++++++++++++++++++++++++++",
"++++++++++++++++++++++++++++++++++++++++++++++++++++++++++++++++",
"++++++++++++++++++++++++++++++++++++++++++++++++++++++++++++++++",
"++++++++++++++++++++++++++++++++++++++++++++++++++++++++++++++++",
"+++++++++++++++++++++oo+++++++++++++++++++ooo+++++++++++++++++++",
"++++++++++++++++++++Oooo+++++++++++++++++oXoXo++++++++++++++++++",
"+++++++++++++++++++ooOOOoo++++++++++++++ooXXooo+++++++++++++++++",
"+++++++++++++++++++oOOOOOoOOo+++++++++++oXXXXXoo++++++++++++++++",
"++++++++++++++++++++oooOOOOOoo++++++++++ooXoX Xo++++++++++++++++",
"+++++++++++++++++++++oOoOOoOOo++++++++++oXoXX  +++++++++++++++++",
"+++++++++++++++++++++ooOOoOOOoo+++++++++oooXo  +++++++++++++++++",
"++++++++++++++++++++++oXoooOOOOOo+++++++ooooXX  ++++++++++++++++",
"+++++++++++++++++++++++oXXoooOoOOo++++++ooXoXX X +++++++++++++++",
"+++++++++++++++++++++++XXooXooXoOOo++++ooooXXXX  +++++++++++++++",
"++++++++++++++++++++++++X XXoXooooo+++XoXooXX XX +++++++++++++++",
"++++++++++++++++++++++++XX  XXXXoOOo+oooX.XXXX  ++++++++++oo++++",
"++++++++++++++++++++++++X  XXXoXXoOoOoO.X.. X  ++++++++++oOoo+++",
"+++++++++++++++++++++++++X  XXXooooOOoo.X..X  ++++++++++oOOoOo++",
"++++++++++++++++++++++++++X  X XoXoOOOX..X.X X++++++X+++OOOOOo++",
"+++++++++++++++++++++++++++ X XXXoXXoOoXo..XXX+++++XXo+ooOoOooo+",
"++++++++++++++X X+++++++++++   XXXXoOOoo....X+++X+XooOoOOOOOOoX+",
"+++++++++++++X XXX++++++++++++  X X.ooX.....X++XXoXXOOooOOoooXX+",
"++++++++++oo+o XXX+++++++++++++  XXoXoXo.XX+++XooXoOoOOOOoooXX++",
"+++++++++ooOXoXoXXX++++++++++++   XX oooXX+++XXXooOOOOoOOOXXoX++",
"+++++++++oOooooX  X++++++++++++  X  XXoXo++XXoXooOOOooOOooOXX+++",
"+++++++++OOooOooXoXXX+++++++++++   XXXoXXXXXoooOOooOOoooooXX++++",
"+++++++++OOOOooXooX X+++++++++++    XXoXXXooXoOOOoooXXoXXX++++++",
"++++++++++OOoooooXX XX+++++++++++    XX.ooooooXoooXooXXXX+++++++",
"+++++++++++OoOoOoooX XX+++++++++++  XXXX.ooXXXX o oXXXX+++++++++",
"++++++ooO++OOOOOooXoXXX++++++++++++  X XX...X X  XXXXX++++++++++",
"+++++ooOoo+++OOoOooXXX++++++X+++++++  X .. ...  X XXX+++++++++++",
"+++++oOOoo+++++ooooXoX++++++XX++++++    . .. .   XXX++++++++++++",
"++++XooOoOo++++OooooooXXX++XXX++++++      .    X XX+++++++++++++",
"+++XXoXOOOoo++ooOOoooXXXX+XXXX +++++++   X     .XX++++++++++++++",
"++X  XoXOoOoooOOOoooXooXXXXX X X++++++   X .. ...+++++++++++++++",
"++  X XXoOOOOOOOoOoOoXXX XX  XX ++++++     .X.XX..o+++++++++++++",
"+++  XXXooOOOOOooOOoooXoX XX  X +++++++   X X.XXXOOoo+++++++++++",
"++++    XoXoooOOooOooooXo XXX   ++++++++  .X..XXooOOOoo+++++++++",
"++++++ X XoXXOooooooooOooXXX  X  +++++++     XXooOOoOOooo+++++++",
"+++++++ XXXXooooooOoOOooXXXX XXX +++++++    XXooOooOOoOoX+++++++",
"+++++++  XXXX  XoooOoOOoOXoXXX   ++++++++ X  XoOOOooooXXXX++++++",
"++++++++      X XooXooOOoOOoX X +++++++++  XXoOOOoOoXXX XXX+++++",
"+++++++++   +    XXoXooOOOoXXXX +++++++++X ooOOoOOXXX  X    ++++",
"++++++++++++++  XXX XXOoOoOooXX++++++++++ XXoooOXXXXXX     +++++",
"++++++++++++++   XXXXoooXoOOooX++++++++++ XXXXXXX X X X ++++++++",
"+++++++X   ++++ X  XXX XXOoOOOX ++++++++  XXXXXXXX     +++++++++",
"++++++XXX    ++++  X  XXooXXOoXX    ++++ X X XXXX oX +++++++++++",
"+++++XXX  XX  ++X XXX  XXXoXXOo  X  +++     XXX XXXo++++++++++++",
"+++++XXXXX X X XX XXXXXXXXXXXXo X  X ++    XX XXXXoo++++++++++++",
"++++++ X XXXX   XX  XXXXX XXXooXX X  +X   XXX XXXoXoo+++++++++++",
"+++++++ X XXXX     XXX XX  XXoXoXXXX  X X XXXXoXXXoXoOoo++++++++",
"++++++++  X X     XX  XXXXXXXXXXXXXX XXXXX X XXoXooOOoOOO+++++++",
"+++++++++  X  +++       X XXXXoXXXX XXX  X  XXXooXooOOOo++++++++",
"++++++++++   +++++  +++X XXoXoXXXXXXXXX  XX   X++++OOo++++++++++",
"++++++++++++++++++++++++  +ooooXXXXXXX X X   +++++++++++++++++++",
"++++++++++++++++++++++++++++XXoXXXXXXXX X   ++++++++++++++++++++",
"++++++++++++++++++++++++++++++ooXoXXXX     +++++++++++++++++++++",
"++++++++++++++++++++++++++++++oXooXXX XX  ++++++++++++++++++++++",
"+++++++++++++++++++++++++++++++ooXoXXX   +++++++++++++++++++++++",
"+++++++++++++++++++++++++++++++oooXXX X  +++++++++++++++++++++++",
"++++++++++++++++++++++++++++++++ooo XX  ++++++++++++++++++++++++",
"++++++++++++++++++++++++++++++++ooXo    ++++++++++++++++++++++++"
};
