/* XPM */
static char *deepslate_top[] = {
/* columns rows colors chars-per-pixel */
"64 64 5 1 ",
"  c #646464",
". c #5A5A5A",
"X c #4B4B50",
"o c #3D3D43",
"O c #747474",
/* pixels */
" .....X.XX.XXXXXooXXXX.XXX.  .XX..  .   .. O XXoXXooXXXoXX.XXX  ",
" ......X...XoXoXX...X...       .X .    .   O..XXoXXooXoXXX..X  .",
" ..........XXooo...X .  ..  O   ..        O .XoooXXXXooXX.X.... ",
"  .. .X...XooooXX....  ..    O           OO .XXoXXXXXXooX.... ..",
"    ...XX.XXoXooX.XX.XX. .   OO    OO  OOO ..XoXXX.. .XooX.  ...",
". ......XXooXXXXoX.XXX..XX.   O     OO  OO  Xoo.X.   O.oXXXX   .",
".....XXXoooXXXXXXXXXXXXXX....  O  .   OOO  .XoX.   OO .XoXo..   ",
"..XXXXoooXXXXX.. XXooXXX..X. .     ...    .ooo.   OO   XooXX... ",
"XXXX.XXXX..X..  O .XooXXXXoX...  ...XoXXXooXo.   O  O  .XoooooXX",
"XXXXX.XX.......  OO .XoXoXXooX....XXXXooooXX...     OO  XXoooXXX",
"XX......XX...     OO.XooXXoooooooXXXooXX.    ....    O  .XoXXXoX",
"XXX..XX.....  ..   O XXooXXXoXXXXXoooX....     .      O .XooXoXX",
"XoooXX..... .XX..  O XXoXoooXX..  ...     .   .       OO.XXooooo",
"ooXXXoXX..X.XX .  O .XooooXXX..    ...               OO..XooooXX",
"XXoooooXXXoX... OO ..ooooXX..  .. ..   ..           OO .XooXX. .",
".XXXXoooooXXX.   ..XXXoXXXXXX.XX.. .. ..   ..      O .XXooXX. . ",
"  ..XXoooXX.XooXooXXXoXXXXooXXXXXXX..XX.... ...   ..XXooX..     ",
"O   ..XoX....XXooooooXXXXXXoooXXXooXXX.X..X.   .   ..XX...      ",
" OO . XooX.  .XXXooX..XX.X...XooooXXXooXXX....    ..X. .  .     ",
"  OO .XoX.  ....oXX..XX. .X...XXoooooXXXX..X...X .XX...    OO   ",
"   O  Xo   .    ....X.  .........XXoooX....XX...XXX..   O    OO ",
"   O .oX. ....   ..   ..........XXXXoXoX....XXXXX..      OO OO  ",
"  O  ooX..  . ..     ..........X..XoXXX.XXX..XoX..X.  ..  OO  . ",
"OO  .oXXX..  ..   .................XXoooXX..X.XoXX...  ...O  . .",
"   .XXXoXXX...  ..X...X..XX.......X.XXooooXXooooooXXX..X.XX.XX..",
"..XXXXoXooXoX...XX.....XXX..X...XX....XXoXX.XXXXooooXXXXX.XXooXX",
"XXXoooXXXooXooXX......XX.XXXX.XXXXXXXXX.  .X   O .XXooXX.XXXXooo",
"oXoXXoooXXXXXooXX...XX..XXXXXX.XoXX....X.   OOOOOO .XoX.. .X.XX.",
"..X. ..  OO ..XooXX..XXooXoXXoXoX..   ..   O  OO  O.oXoX.. ....X",
"...   OOOOOOOO  ooXXXXooooXXXXoo..             OO O oXX.X.  ....",
" .   O      OOO .XooooX.XooXoXoX. ...         O  O  ooXX... ....",
"  .       OOOOOO XXoXX. ..XooXo.....   .         OO.XooX...  .  ",
"..           OOO XoX.  .. .XoooX....... .        O .XoX..     ..",
".      .   O  O  XX ..   ...ooXX..... ..        OO..XoX...   ...",
" ..     .   OOO  X      ....XoXXX.....       OOO ..XoX..  ..   .",
"  ..    ..   OO XX.       ..XXoXXX.......   OO  .XXXoX.  .....  ",
"         . OOO  XoX ...  ..XoXXX..X.........XoXXXXooXXX..  .....",
"      O   OOO   XoX. ...  .XXoXX.X....X...XXoooXoooXXoXX........",
".. OO  OOOOO   .oo....  ..XXoooXX....XX.XXXooX..  . XXooooXX... ",
". OO  OOOOOOOO.XoX...  ..XoXXXoXXX..X.XXXXoX...    . ...XooXX. .",
"    OO  OOO  ...XX.....Xoo..XXXooXXoXoX.X.. .   .       OO OOO  ",
" .       O  ....XXX...XX.    ..XoooXXXoX... .. . .     OO OOOOO ",
"....      OO  .XXoX....   OO   .XoXX.XX. .   .....       O    O ",
"..           ..XoX.. ... OO   OOXoX....     .....  .OO         O",
".X.  . .  ....Xoo....        OOOXXoXX. ...   ... ..  OOO    O OO",
".XX....    ..XXoX.    O  O O  O XXooXX...X.   ......  O      OO ",
"XXoX.  ....XXXoXX  .   OOOO OO .XooooooXX.X... ..        OOOOO .",
"oXXooXXXXXXXooooX..  .  OO OO..XXooXXooooXXXoX....        OO ..X",
"XooXooXXooooXXoooX  .....  ..XXXooXX...   .XXooXXXXooX..  ..XXXX",
"ooXXXXooooXXXXXXooXX..XXX.XXXoXoXXX.     ....XXX..XXooX..XXoXooX",
"oooooooooX. ..X.XXoXXXXXoooooooXoXX  .......X...  ..XXooXXXXoooo",
"XoXooooX.    ..  .XXXoooooXXXoooXX ..............    .XXoXoooXXX",
".XoXooX....      O ... OO ..XXoooX.X.. ..   ..  OO  . XoooXXXX..",
"..XXXoX... .     OO ...  OOO..XooXX....   O  ..  OOO .XoXX......",
".X.XXo.......     OO .     OO.XoXX.. .   O ..      OO..XX.X.... ",
".XXXoo.....  .    O       O OO.oXX..    OO        OOO .XXX.. .  ",
"..XooX .....     O           O.oXX...   O          O  .oX.. .. .",
".XooX..  ....           OO   O.ooXX.. . O   O OO  O   XoX.   . .",
"Xooo....     ..       OOO    O.XooX...       OO OOO   Xo..    ..",
".XoX......    ....     O    O XXoX....       O   O   .Xo.   ....",
"XoX... ..XXX.. XXX..X.  OOOO .XoXX........           .oX. ......",
"XX..  ....XXXXXX...XXXXX. O XXooX.X..  .XX.       ...ooX .X..XXX",
"X.   ...XX..ooXoXXXXXoooooXXXXoXXX   .....XX...  ..XooXooXoXXX..",
".X. ...XX..X.XoooXooooooXXooXoXXX...  .....XXX....XXXXXXooXXX..X"
};
