/* XPM */
static char *deepslate_bricks[] = {
/* columns rows colors chars-per-pixel */
"64 64 7 1 ",
"  c #585858",
". c gray43",
"X c #4B4C4F",
"o c #414141",
"O c #2D2D2D",
"+ c #383737",
"@ c gray14",
/* pixels */
" .........................................................   XoO",
".                                                            XoO",
".                                                           XX+@",
".                                                          X oOO",
".                               X                    X X   X +O@",
".                                XXX  X               XX    X+O@",
".                                 XooX                 XX  XX+O@",
".                                  X               XX   X  Xo+OO",
".           XXXX             X                XXX X XX  XX X+oO@",
".         X  X  X          XXXXX                XXXX  X  XXoooO@",
".  X    XX  XXX  XX         XX  X                XXooXoX XooooO@",
".   XX   XXX  XXXX    XX     XX                    XXoooX oXo+O@",
".    XXXXX   XXXX   XX    XXX         X X   X    X  XXoooXXoo+O@",
".     XXX   XX    XXX      X         XXX X  XX  X XXooooXXoo+oO@",
".    X  XX XX   XX   X   XXoXX    XXX   XXX  X XXXooXXXXooo++oO@",
".   X  XX XX   XX   XoX X ooX X XoXX   XXXXX  X XXoXXooooo++ooO@",
".  XXXXXXXX XX  XXXo XooXoXXooXooX    X  oo XXoXXooooXoo+++o+oO@",
". X XXXoXXXXXoX  ooooXXooooXXXooXXX X  XooooXXXoo++oXoo++O++o+O@",
" XXXoXXXoXXooXXXo++o+oXXoXXXXooXooXXoo+oXXoXXooooo++o++OO++oooO@",
" XoX+oXoooXXoooXoo++ooooooXooooooXooX+o+oXXooo+oo++++OOO+oooo+O@",
" Xoo+ooo+ooXXoooXXoo++oo++oo+o+oXooXoXX++ooo++ooooo++o++oo+o+oOO",
" XXo++o+ooXXXXooooXoo++o++++++oooXXoXXoo+++++++ooo+oo+O+++o+++OO",
"Xoooo++++ooXooo+oo++++++++++oooXXoo++o+++o+++ooo++oo+O+OO++++OO@",
"XoXo++++ooXoo++oo++++++++ooo+oXXo++oo+++++oo++ooo+++++OO++O++OO@",
"XXo++oo+++o+++oo+oo+++++o+++oo++++oo++ooooo++o+OO++++++OO++O++O@",
"XXXooo++++oo++++oo+OO++++++oooo++oo+o+++oo++++++OO++O+OOOO+OO+O@",
"Xoooo++O+o+++ooo+++++OO+++oo+O+oo+ooOOO+++O++OOOO++OOOO+OOOOOO@@",
"XXoo++OOO+++++o+++++OO++O+++o+OOOoo++OOOO++OOOOO+O++OO+OOOOO@O@@",
"oo++oo++OOO+OO++O++OOOO@OO@O+++O@O++O+OO++OOO@OOOOOO@@O@OO@@O@@@",
"++O++++OO++O@@O++O@O@@@@@@O++OO@@OO++O+OOOO@@OOOOO@OO@@@@OO@@@@O",
"OO@O@OOO@OO@@OOO@@O@@OO@O@@O@@@@OO@O@OOOO@@@OOOOOOO@@O@@@@@@OOO@",
"OOO@@@OOO@@@@@@@@@OO@@OO@@@@@@@@@@@@OOOO@@@@@@OO@@@@@@@@@@@@@O@@",
"..........    ............... @@ ...............................",
"                             X@@.                               ",
"                            XX@@.                               ",
"                        XX XXX@@.                               ",
"                         XX XX@@.                               ",
"           X          X   XXXo@@.                 XX            ",
"         XX X          X XXXX+@@.                   XX          ",
"     XX XX XXX         XXXoXo+@@.                    XX         ",
"      XXXXXXX         XXXXXoo+@@.                  XX           ",
"    XX   X  X    X   XX  XXXo+@@.      X       X  XX            ",
"        XXX    XX X XX  XXXoXo@@.  XX X         X oXXX       X  ",
"      XXX  X    XX    XXXXXooo@@.   XXXX       X XooX      XX   ",
"   XX  X  X    XXXX    XXXXXo+@@.    XXXXX    XXXXXoo X     XXXX",
"  XX XX  oXX XXXX XX  X XoXo+O@@.  X X  XXX   XX XXo X  XX X XX ",
"XX  XX  oXoXX ooXX   X XXXoooO@@.  XX  XXXXXX   XXoXoXX  XX   XX",
"X  XXXo++oXooXXo+oX   XXXooo++@@.   XXXoXXXX   XXXXXooXX        ",
" XX XoXo++o++oo+oXXXX  Xo++++O@@.   XXXXoXX  X   XXooXX XXX X X ",
"XXXoXXXXoo++++XoXXXX XXXXo++OO@@.  XXXXXooXoX     XoXX   oXX XXX",
"oXo+oXooo++o+XXXXooXXXXoooo++O@@   X XXXXooooXX  XooXoX oX    XX",
"Xo+oXo+o++oooooXooXoXooXoo+++O@@  X XooXoooooo XXXo+oXXXX XXoXoX",
"ooooooo+++++o++ooooXoooo+ooo++O@  XXoXoooo+oXXXoXoX++oo+XXXoooXo",
"oo+o++oo++++O+oooooooo++oo++++O@   XXoo+++oXXXooo++o+++ooXXXXooX",
"o+oo++++++OO+o+++o+o+++o++++O+O@  X XX+++oooXo+o++oo++oXXXoooooo",
"o++oo+O+O++OO+O+ooo++O++++OO+OO@  XoXoo+o+oXo+oooo+++oooXoo+oo+o",
"o++o++OO++++OO+O++ooo+O++++OOO@@ XoXooooo++o+++o++o+++oooXoo++++",
"++o+++OO++O++OO+++++oo++OO++OO@@ oooooo+o++++oooo+++++++oooooo++",
"++++O++OOO+OOO++OO+OO+oO+OO@OOO@XXooo++o++++oo++oo+OO++ooo++o++o",
"++OO++OOOOOOO+OOO+++OOO+O+OO@@O@Xoo+++++O+O++oo+++++OOO+o+o+OOo+",
"+OOOOOOO@OO@OOOO+O+++OO@OOO@@O@@oooo++OOOO+oo+++OOO++O@O+++OO+OO",
"++O@@OOOO@@@@O@@@OO+O@@OO@@@OO@@+o++O@@OO+O++OOO+O@O++O@@O++OOO+",
"@O@@O@OO@@@OOOO@@@OO@@OOOO@@@@@OOO@@@OOOOOOO@@OOO@OOOOOO@@OOOO@@",
"@@OOOO@@@@O@@@@@@@@@@@@O@@@@@@OO@@@@@@@@OO@@@@@O@@@OO@@@@@@O@@@@"
};
