/* XPM */
static char *detector_rail_on[] = {
/* columns rows colors chars-per-pixel */
"64 64 17 1 ",
"  c #513D24",
". c #67502C",
"X c #7E6237",
"o c #735858",
"O c #686868",
"+ c #796E6E",
"@ c #72796E",
"# c #AB0301",
"$ c #D40102",
"% c #967441",
"& c #A6824D",
"* c #9B8A8A",
"= c gray61",
"- c #B59D9D",
"; c #ABACAB",
": c gray75",
"> c None",
/* pixels */
">>>>>>>>:;====@O>>>>>>>>>>>>>>>>>>>>>>>>>>>>>>>>O@====;:>>>>>>>>",
">>>>>>>>:;====@O>>>>>>>>>>>>>>>>>>>>>>>>>>>>>>>>O@====;:>>>>>>>>",
">>>>>>>>:;====@O>>>>>>>>>>>>>>>>>>>>>>>>>>>>>>>>O@====;:>>>>>>>>",
">>>>>>>>:;====@O>>>>>>>>>>>>>>>>>>>>>>>>>>>>>>>>O@====;:>>>>>>>>",
">>>>&&%%:;====@O&%XXX%%%%%%%%&&&%&%X%%%%%%XX&&&%O@====;:%%XX>>>>",
">>>>&&&&:;====@OXX&&XXX%&&&%XXX%&&&%XXXXXXX%%%%%O@====;:&&%%>>>>",
">>>>X&&%:;====@O%%&&&XXXXX&&%%XXXXXXXX&&&%%XXXXXO@====;:%%%X>>>>",
">>>>&%%X:;====@O&&&&XX%%%%&&&%%X%%XX&&%%%%XX&&&&O@====;:XXXX>>>>",
">>>>XXXX:;====@O&XXX%%&&&&&%%%X%X%%XXXXX%%%%XXX&O@====;:XX%%>>>>",
">>>>&X&&:;====@OX&&XXXXXX&&&%%%&&&X%%%%XXX&&&&&&O@====;:%&&&>>>>",
">>>>. ..:;====@O....   ....... ............. ...O@====;:. ..>>>>",
">>>>    :;====@O                                O@====;:    >>>>",
">>>>>>>>:;====@O>>>>>>>>>>>>>>>>>>>>>>>>>>>>>>>>O@====;:>>>>>>>>",
">>>>>>>>:;====@O>>>>>>>>>>>>>>>>>>>>>>>>>>>>>>>>O@====;:>>>>>>>>",
">>>>>>>>:;====@O>>>>>>>>>>>>>>>>>>>>>>>>>>>>>>>>O@====;:>>>>>>>>",
">>>>>>>>:;====@O>>>>>>>>>>>>>>>>>>>>>>>>>>>>>>>>O@====;:>>>>>>>>",
">>>>>>>>:;====@O>>>>>>>>>>>>>>>>>>>>>>>>>>>>>>>>O@====;:>>>>>>>>",
">>>>>>>>:;====@O>>>>>>>>>>>>>>>>>>>>>>>>>>>>>>>>O@====;:>>>>>>>>",
">>>>>>>>:;====@O>>>>>>>>>>>>>>>>>>>>>>>>>>>>>>>>O@====;:>>>>>>>>",
">>>>>>>>:;====@O>>>>>>>>>>>>>>>>>>>>>>>>>>>>>>>>O@====;:>>>>>>>>",
">>>>%%XX:;====@OXXX%########################XXX&O@====;:X&&X>>>>",
">>>>XX%%:;====@O%%%X#$$$$$$$$$$$$$$$$$$$$$$#&&&XO@====;:&%%%>>>>",
">>>>X%XX:;====@OXXX%#$------------------*+$#XXX%O@====;:%XXX>>>>",
">>>>%%%X:;====@O&&XX#$-******************+$#&&XXO@====;:X%%%>>>>",
">>>>XXX&:;====@O%%&&#$-******************+$#&%%&O@====;:XXX%>>>>",
">>>>&&&X:;====@O&%%X#$-******************+$#XX&&O@====;:%X&X>>>>",
">>>>.. .:;====@O ...#$-******************+$#... O@====;:... >>>>",
">>>>    :;====@O    #$-******************+$#    O@====;:    >>>>",
">>>>>>>>:;====@O>>>>#$-******************o$#>>>>O@====;:>>>>>>>>",
">>>>>>>>:;====@O>>>>#$-******************o$#>>>>O@====;:>>>>>>>>",
">>>>>>>>:;====@O>>>>#$-******************o$#>>>>O@====;:>>>>>>>>",
">>>>>>>>:;====@O>>>>#$-******************o$#>>>>O@====;:>>>>>>>>",
">>>>>>>>:;====@O>>>>#$-******************o$#>>>>O@====;:>>>>>>>>",
">>>>>>>>:;====@O>>>>#$-******************o$#>>>>O@====;:>>>>>>>>",
">>>>>>>>:;====@O>>>>#$-******************o$#>>>>O@====;:>>>>>>>>",
">>>>>>>>:;====@O>>>>#$-******************o$#>>>>O@====;:>>>>>>>>",
">>>>%%XX:;====@OXXX%#$-******************o$#%%%%O@====;:%%%X>>>>",
">>>>&&%%:;====@O%%%X#$-******************o$#XXX%O@====;:%%XX>>>>",
">>>>XXX%:;====@OXX%%#$-******************o$#X%%%O@====;:%X%%>>>>",
">>>>%%XX:;====@O%%%X#$-******************o$#%%%%O@====;:%&&&>>>>",
">>>>XXX%:;====@OXX%%#$-******************o$#XXXXO@====;:%%%%>>>>",
">>>>%XXX:;====@O&%%%#$+++ooooooooooooooooo$#%&X&O@====;:&&&&>>>>",
">>>> ...:;====@O. ..#$$$$$$$$$$$$$$$$$$$$$$# ...O@====;:.. .>>>>",
">>>>    :;====@O    ########################    O@====;:    >>>>",
">>>>>>>>:;====@O>>>>>>>>>>>>>>>>>>>>>>>>>>>>>>>>O@====;:>>>>>>>>",
">>>>>>>>:;====@O>>>>>>>>>>>>>>>>>>>>>>>>>>>>>>>>O@====;:>>>>>>>>",
">>>>>>>>:;====@O>>>>>>>>>>>>>>>>>>>>>>>>>>>>>>>>O@====;:>>>>>>>>",
">>>>>>>>:;====@O>>>>>>>>>>>>>>>>>>>>>>>>>>>>>>>>O@====;:>>>>>>>>",
">>>>>>>>:;====@O>>>>>>>>>>>>>>>>>>>>>>>>>>>>>>>>O@====;:>>>>>>>>",
">>>>>>>>:;====@O>>>>>>>>>>>>>>>>>>>>>>>>>>>>>>>>O@====;:>>>>>>>>",
">>>>>>>>:;====@O>>>>>>>>>>>>>>>>>>>>>>>>>>>>>>>>O@====;:>>>>>>>>",
">>>>>>>>:;====@O>>>>>>>>>>>>>>>>>>>>>>>>>>>>>>>>O@====;:>>>>>>>>",
">>>>&X&X:;====@O%%&&&&&XXXX%%%X%%XXXX%%%XX%%%%XXO@====;:&&&&>>>>",
">>>>X%%%:;====@OXXX&XXXX%X%XX%%%%%%%&&&&&XX%X%%%O@====;:%%XX>>>>",
">>>>&XXX:;====@OX%%%%%X&&%&%&&%X&%%&XXX%XX%%%%&&O@====;:&&%%>>>>",
">>>>%%%%:;====@O&XX%&&%%%%&&%%%X%XX&&&%XXXXX%%XXO@====;:%XX&>>>>",
">>>>&&%X:;====@O%&&%%XXX%%XXX%X%X%&XXX&&%%%%&&&&O@====;:%X&&>>>>",
">>>>XXXX:;====@O&XXXX%%&X%X%&&X%%&&&&&&&&&&&%XX%O@====;:X&&&>>>>",
">>>>... :;====@O .......... ........    ....... O@====;:.. .>>>>",
">>>>    :;====@O                                O@====;:    >>>>",
">>>>>>>>:;====@O>>>>>>>>>>>>>>>>>>>>>>>>>>>>>>>>O@====;:>>>>>>>>",
">>>>>>>>:;====@O>>>>>>>>>>>>>>>>>>>>>>>>>>>>>>>>O@====;:>>>>>>>>",
">>>>>>>>:;====@O>>>>>>>>>>>>>>>>>>>>>>>>>>>>>>>>O@====;:>>>>>>>>",
">>>>>>>>:;====@O>>>>>>>>>>>>>>>>>>>>>>>>>>>>>>>>O@====;:>>>>>>>>"
};
