/* XPM */
static char *diamond_block[] = {
/* columns rows colors chars-per-pixel */
"64 64 17 1 ",
"  c #0A8385",
". c #4BEDE6",
"X c #60F4EB",
"o c #89FDEE",
"O c #65F5E3",
"+ c #6BF8EA",
"@ c #44E7E6",
"# c #70FBF0",
"$ c #9EFEEB",
"% c #3DE0E5",
"& c #0F898C",
"* c #15C2C6",
"= c #5DFFFF",
"- c #6DFFFF",
"; c #0EBABD",
": c #D5FFF6",
"> c white",
/* pixels */
"------------======----------------------==============---------.",
"-...........%%%%%%......................%%%%%%%%%%%%%%.........&",
"-.:>>>>>>>>>$$$$$$::::::::::::::::::::::$$$$$$$$OOOOOO::::::::*&",
"-.>:$$$$$OOOOOOOOOO+++####ooo$$$$$$$$$$ooo#####.@%%%%%%@.####:*&",
"-.>$OOOOOOOOOOOOOO+++####ooo$$$$$$$$$$ooo#####@@%%%%%%@.#####:*&",
"-.>$OOOOOOOOOOOOO+++####ooo$$$$$$$$$$ooo#####X@%%%%%%@.######:*&",
"-.>$OOOOOOOOOOOO+++####ooo$$$$$$$$$$ooo#####X..@%%%%@.#######:*&",
"-.>$OOOOOOOOOOO+++####ooo$$$$$$$$$$ooo#####X....@@@@.########:*&",
"-.>$OOOOOOOOOO+++####ooo$$$$$$$$$$ooo######X.......X#########:*&",
"-.>OOOOOOOOOO+++####ooo$$$$$$$$$$ooo######X.......X##########:*&",
"-.>OOOOOOOOO+++####ooo$$$$$$$$$$ooo#######X......X###########$*&",
"-.>OOOOOOOO+++####ooo$$$$$$$$$$ooo#######X......X##########o+$*&",
"=%$OOOOOOO+++####ooo$$$$$$$$$$ooo########X.....Xo########oo++$*&",
"=%$OOOOOO+++####ooo$$$$$$$$$$ooo########X...XXXooo#####ooo++O$*&",
"=%$OOOOO+++####ooo$$$$$$$$$$ooo########X...X++ooooooooooo++OO$*&",
"=%$OOOO+++####ooo$$$$$$$$$$ooo########X...X++o$$oooooo$o++OOO$*&",
"=%$OOO+++####ooo$$$$$$$$$$ooo########X...X++o$$$$$$$$$o++OOOX$*&",
"=%$OO+++####ooo$$$$$$$$$$ooo########X...X++o$$$$$$$$$o++OOOX.$*&",
"=%$O+++####ooo$$$$$$$$$$ooo########X...X++o$$$$$$$$$o++OOOX.@%; ",
"=%$+++####ooo$$$$$$$$$$ooo########X..XO++o$$$$$$$$$o++OOOX.@%%; ",
"=%$++####ooo$$$$$$$$$$ooo########X..OO++o$$$$$$$$$o++OOOX.@%%%; ",
"=%$+####ooo$$$$$$$$$$ooo########X..OO++o$$$$$$$$$o++OOXX.@%%%%; ",
"=%$####ooo$$$$$$$$$$ooo#########.XOO++o$$$$$$$$$o++OOX..@%%%%%; ",
"=%$###ooo$$$$$$$$$$ooo#########.XOO++o$$$$$$$$$o++OOX..@%%%%%@; ",
"=%$##ooo$$$$$$$$$$ooo#########X+OO++o$$$$$$$$$o++OOX..@%%%%%@.; ",
"=%$#ooo$$$$$$$$$$ooo#########X+OO++oo$$$$$$$$o++OOX...@%%%%@..; ",
"-.:ooo$$$$$$$$$$ooo#########++OO++oooooo$$$$o++OOX....@@%@@..X; ",
"-.:oo$$$$$$$$$$ooo#########++OO++oo##ooooooo++OOX......@@@..XO; ",
"-.:o$$$$$$$$$$ooo#########++OO++#######oooo++OOOX..........X++*&",
"-.:$$$$$$$$$$ooo#########++OO++#########oo++OOOX..........X++O*&",
"-.:$$$$$$$$$ooo#########++OO++##########o++OOOOX.........X+++O*&",
"-.:$$$$$$$$ooo#########++OO++##########o++OOOOX.........X#+++O*&",
"-.:$$$$$$$ooo#########++OO++###########++OOOOOX........Xo#++OO*&",
"-.:$$$$$$ooo#########++OO++###########++OOOOOOX.......Xoo#++OO*&",
"-.:$$$$$ooo#########++OO++o##########++OOOOOOOX......Xoo##++OO*&",
"-.:$$$$ooo#########++OO++o##########++OOOOOOOXX....XXooo##++OO*&",
"-.:$$$ooo#########++OO++oo#########++OOOOOOOXXX...XXo$o###++OO*&",
"-.:$$ooo#########++OO++oo#########++OOOOOOOXXXXX.XXo$oo###++OO*&",
"=%$$ooo#########++OO++ooo########++OOOOOOOXXXXOXXXo$$oo###++OO*&",
"=%$ooo#########++OO++o$ooo#####o++OOOOOOOXXXXOOOXo$$oo####++OO*&",
"=%$oo#########++OO++o$$$oo####o++OOOOOOOXXXOOOOXo$$$oo###++OOO*&",
"=%$o#########++OO++o$$$$$oo#oo++OOOOOOOXXXOOOOXo$$$$oo###++OOO*&",
"=%$#########++OO++o$$$$$$$ooo++OOOOOOOXXOOOOOXo$$$$$oo###++OO.; ",
"=%$########++OO++o$$$$$$$$$o++OOOOOOOXOOOOOOXo$$$$$oo####++OO.; ",
"=%$#######++OO++o$$$$$$$$$o++OOOOOOOOOOOOOOXo$$$$$$oo###++OOO.; ",
"=%$######++OO++o$$$$$$$$$o++OOOXXXXOOOOOOXXo$$$$$$$oo###++OO..; ",
"=%O#####++OO++o$$$$$$$$$o++OOOX....XOOOXX.o$$$$$$$oo###++OOO..; ",
"=%O####++OO++o$$$$$$$$$o++OOOX......@OX.Xooo$$$$ooo####++OOO..; ",
"=%O###++OO++o$$$$$$$$$o++OOOX.....@%.X.X##oooooooo####++OOO..O*&",
"=%O##++OO++o$$$$$$$$$o++OOOX....@@%@..X####ooooo#####++OOOO..O*&",
"=%.#++OO++o$$$$$$$$$o++OOOX....@%%@..X##############++OOOO..O#*&",
"=%.++OO++o$$$$$$$$$o++OOOX...@@%%@..X#############+++OOOOO..O#*&",
"=%.+OO++o$$$$$$$$$o++OOOX...@%%%@..X############++++OOOOO..OO#*&",
"=%.OO++o$$$$$$$$$o++OOOX...@%%%@..X###########++++OOOOOO...OO#*&",
"=%.O++oooo$$$$$$o++OOOX...@%%%@..X##########++++OOOOOOOO..OO#$; ",
"=%.++ooooooo$$$o++OOOX...@%%%@...X#####+++++++OOOOOOOOO...OO#$; ",
"=%%+oo####ooooo++OOOX...@%%%@...X++++++++++OOOOOOOOOOO...OOO#$; ",
"=%%o#######ooo++OOOX...@%%%@...X++++++OOOOOOOOOOOOOO....OOO##$; ",
"=%%########oo++OOOX...@%%%@...XOOOOOOOOOOOOOOOOOOO....OOOOO##$; ",
"=%%#######oo++OOOO...@%%%@...XOOOOOOOOOOOOOOOOOO....OOOOO####$; ",
"=%%######oo++OOOO...@%%%@...XOOOOOOOOOOOOOOOO.....OOOO######$$; ",
"=%.%%%%%..........@@%%%@...XOOOOOOOOOOOOOO......OO####$$$$$$$$; ",
"=***;;;;**********;;;;;;;;;;**************;;;;;;******;;;;;;;;; ",
"*&&&    &&&&&&&&&&          &&&&&&&&&&&&&&      &&&&&&          "
};
