/* XPM */
static char *dispenser_front_vertical[] = {
/* columns rows colors chars-per-pixel */
"64 64 10 1 ",
"  c #464545",
". c #3C3B3B",
"X c #504E4E",
"o c #5D5B5B",
"O c #686868",
"+ c #777777",
"@ c gray52",
"# c gray57",
"$ c gray13",
"% c #101010",
/* pixels */
"  . ..   ....   ..  .    .    ..  .   . ... ....  XXX  X  .. ...",
" .  XX XX XXXX  X .       X XX      X   XX    XX.   XXXXXXXX  . ",
"..ooooooooooooooooooOOOOO+O+OooXoXXoooOOOOoooOOoooOooOoooO+++OX.",
". ooOOoooooooOOooOOOOO++OO+++OooXXXXOOOO+OOoOOooOOooOOOoO+O+OoX.",
" XoooOOOoooOOOooOooO++@@++@OoXXXXooO+O++OOOOooOO+++OO+OOoooOOo  ",
"  oOOOoooOooOooO+OooO++@@@++OoXoOOO++++OOO+OOooOO+@++OO+OOooOOX ",
"X OOoOOoooOO++O+OOOOoOO+@+OOoXoOO+OO++OO++OOoOoO+@+++++O++OOoOXX",
"X oOooOooOO+++++++O+OO+@+OooooOO++++++++@+++OoO+@@@+@++++OOoooXX",
"XXoooOoOOO++@@@#@+++++OO+OOoXOOOO+@@+++@@@@+OooO+@@@@@@@+++OOoXX",
"XXOoOOooO++++####@@@+OO+OOXXoO+++@@++@@@#@+OOOooO+@@@@@@@+OOoOX ",
" XOOoOoO+@+@@@##@@#@@@+OOXXoO+@++++@@###@@@++OoO+++@@@+@++++OOX ",
" XOOooOO++@@###@@#@@#@@+OOoXO++@@+@@###@@@++++Oo+O@@@++++++++OX.",
"  +OOoO+@@@###@#####@@@+OoXo+@@@#@##@@##@#@@+@+OOOO+@@++++++OoX ",
" .O+Oo+@@@##@@########@+oXoo++@+@####@@#####@+++OO+O++@+++OOOXX.",
" .++OOO++#@@@@@##@###@+OooXoO+O++@@#@######@@@+++OO++++++++OoX. ",
". O++O++@++@@##@@###@@@+OoXXoOOO@@#@#####@@##@@@+OoOO++O++Oooo..",
". oO+OOO++@@@@##@@@@++OOoXXoOOO++@@@@#####@#@@@+OOOoOOO+OOoooX..",
". oOO+OOO++@@####@@++OOoXXoXXoOOO++@+@@####@@++OoOOooO++OOOOXX..",
"  OooOOOoO++@@@#@++OooXXXoXXXXoOooo+O++@##@@@@++OooOooOOoOOoXo .",
". OOooOoOOO++@#@+O++OooXoooXooXoXoOO++@@@##@@+OOOXooOOOOOooooo .",
" XOoooooooXoO+++OOOooXXoOoOooooooXXoOO+O+@+++OoXXXXooooOoooXooX ",
" XOOOooOoXXooOOooOooXXoOOOooX......XoOOOO++OOOOoXoOOoOoooXXXXoX ",
" XO++OOXXoOOOooOooXXooOOoo$$%%%%%%%%$$OOoXooXooOoO++OoOOooXXooX ",
"XX++OOooXXoO+OoooXXXXoOo.$%%%%%%%%%%%%$.XXXXooOO+++OO+OooooXXoX.",
"XXO+OooXoOO++++OOooXoOo.$%%%%%%%%%%%%%%$.oXoOO++++@@+++OoOXoXX .",
"X OOooooO++@+@++OOooOOo$%%%%%%%%%%%%%%%%$OoOO+@++++@@@+++OOOOo  ",
"X OoXOOO++@@@##OO+OoOo$%%%%%%%%%%%%%%%%%%$O++@@+@@@@@@@+OOOOooX ",
".XoXooO++@+@##@@+OOOoo$%%%%%%%%%%%%%%%%%%$++++@@@@@@@+++++OOOoXX",
".XooO++@@####@@#@++OoX%%%%%%%%%%%%%%%%%%%%X+@++@@@@@@@+@+@O+OOXX",
". oO+@@+@@#####@++OOO.%%%%%%%%%%%%%%%%%%%%.++@@##@@@#@@@@+++OOXX",
"  OOO+@@#####@@@@++OO.%%%%%%%%%%%%%%%%%%%%.@#@##@@@#@@@+++OOOoX ",
". O++@@@@@####@@+@+OO.%%%%%%%%%%%%%%%%%%%%.@@##@@@###@+++++OooX ",
"..+@++@#@@@#####@+++O.%%%%%%%%%%%%%%%%%%%%.@#####@@@##@+++OooO X",
". ++@#@@#######@@@@OO.%%%%%%%%%%%%%%%%%%%%.#######@@@@@@+++OOo  ",
"  +@###@@########@@++.%%%%%%%%%%%%%%%%%%%%.####@###@@@++O+++oO .",
" .++@#############@+OX%%%%%%%%%%%%%%%%%%%%X##@##@@@@+@@++O+OooX ",
"..@@+@##########@@++++$%%%%%%%%%%%%%%%%%%$##@#@+@@@@@++OOOOOOoX.",
"..+@@##########@@++@++$%%%%%%%%%%%%%%%%%%$#@@@@@+@@+++OO++OOOoX.",
". +@###@########@@@++OO$%%%%%%%%%%%%%%%%$O@@@@@++++++O+++OOOoO  ",
". ++@@##@@####@@#@@@OOo.$%%%%%%%%%%%%%%$.@@+++@@++OOOOO+OOOOOO  ",
" .OO+@@@@###@@##@#@+++Oo.$%%%%%%%%%%%%$.@@++O++++O++OO+OOOoOOO X",
" XoOO++@@@#@@@@##@+++OoX++$$%%%%%%%%$$O#@+OO+O++OOO+OoOOooOOOOXX",
" XXXoOoO+@@###@@@+@@++Oo+@##X......X###@+@+OOoOOOooOoooooOO++OX.",
"XXXoXoO+@+@@#@@+++@++OOO++@@##########@@@+++OooOOOooooOoOOOO++ .",
"X ooooOO+++@@@@@++++OoO++##@@#########@#@@@@+OoOooXoOO+@++OOO+  ",
"X oOOooOO+OO+@+@@++OooO++@##@@#########@@@@+++OoXXoO+@@++OO+++X ",
" XoOOOOooOO+@@@++OOOoO++@+@@##@###########@@+++OXo+@##@@+++O+@XX",
"XXOOO+OOooo+++@@++OoO++++@@####@@@#######@@@@+OooO++@##@@++@@+X ",
"X OO++OO+OOoOO++OooooO+O+++@#@@@@#######@@@+++oO++@@#@@@++@@@@X ",
" .+O+++OO+OOooOOOOoXooO+++@@@@@@##@######@@@++OO@+@@@+@@@@+@++  ",
". ++O@+++++OOoooooXoOOOO+++++@@@@@#@@###@@+++OOo+@@@@@#@#@@+++X ",
"..++++@@++OOOOooXXXooOoOO+++@@@+@@@@#######++OoO+@@+@###@@@@++X ",
" .+++++@@++OOOOOoXooooooOOO++++@@@@##@@@##@@++O+@++++@@@@@+++OXX",
" .O++@@@@@@++OOoXooooooOOO+OO+++@@#@@++#@++++OoO+@++@@+@+@@+OOXX",
"  O+++@@+@@@OOOOoOooOOooOOOO+++@@@@+++@+@@++oooO+++@++@+@@@OOOX ",
"  O+O+++++@+OO+oooOOO+OOooOoOO++++@@+++@@++OOooo+@@@@++++@+++OX ",
" XoOOO++@@++O+OoOoO++O++OooXXOooOO+++OO+++OooXXoO+@+++++O+O+OOXX",
" XoOO++@@@@O++oOOOOO+@++++OOoXoOOoOO++OO+oooXXXXXO+++++OOO+OOOXX",
"XXoooOOO+@+++OOOoO+@@@@@@++++OOoooooOOooOOoXooooXXOOOO++OOooOoXX",
"XXooOOo+++@+OOooOOO+@@@@@@@+OOOOOooOO++OoXXooOoXoOO++OOOOooooOXX",
" XooooOOO++OoooOO++@@++@@@+++++OoOO+OO++OOXO+OOoO+++OO+OooOO++ X",
" XooooooOOOOOoOO+O++++@@++@+++O+OO++++++++O+++OOOO++++OO+OO++O  ",
" XX    XXX  XXXX    ...  XXX  . X XXXXXX  ..  XX   XXXX  XXX  . ",
"    ..  . X .    ... .....   ... XX .   ...X XX  XXX    ...  ..."
};
