/* XPM */
static char *dropper_front[] = {
/* columns rows colors chars-per-pixel */
"64 64 19 1 ",
"  c #464545",
". c #3C3B3B",
"X c #504E4E",
"o c #5D5B5B",
"O c #686868",
"+ c #777777",
"@ c gray52",
"# c gray57",
"$ c gray66",
"% c gray69",
"& c #C5C5C5",
"* c #B2B2B2",
"= c gray37",
"- c gray68",
"; c gray73",
": c #9D9D9D",
"> c gray13",
", c #101010",
"< c gray50",
/* pixels */
"  ..  XXXX     ... .   XXXX... ...  ....   XXX XX ..      XX    ",
" .. X   XXXX ..     XXXXX  XX   .  ...  .XXX  XX . ...  XXXXXXX ",
". XXXooXoooooooOOOOOO++++++O+OO++OooooooO++OOOOooooOOOooooooooX ",
"  XoooooXooOooOOo++@@+@+@@++O+++OOOOoooO+@@++OOOooOoOOOooooooo  ",
".XoOooOOooOOOOooOO++@@#@@++@@@++++OoOoO+++@@@+O+OooOoooOOOoooo .",
".XooOooOOooOOOOooOOO+@@###@@+@@++OooOooOOO+@+@+OooOoooOoO+OOoo .",
"  oOOOOOoOOO+OO+OoO+++@+#@@+@+++OOoOO+OooOOO+OOOoOOO++O+OO++Oo  ",
" XooO++O++OOO+++++OOO++@@@@@++OOooOO+++OooO+OOooO+++O+@++++OOoX ",
" XoOOO+++O+++@@#@@+ooO++@+OOooOooO++@@+++OoooooOOO+@@@+++++++OX.",
". oOo+O+++O+@@###@@+ooOO+++OOoooOoO++@@@++OoXoOO++@@#@@+@@++O+X ",
".XooOOOO+++++#@@##@@@OoooOoOOooOOO++@@@++@+OOXoO@@@####@@++@++ X",
".XoooOO++++@@@@###@@@++OooOOooO++O+@+@@@@+++OOooO+O@##@@++@@@O  ",
".XoOOO+++@@+@$%&&&&&&&%++OoooO+O@+@@@@@@@%&&&&&&&%$+@@#@@@@++OX.",
" XOOO+++@+@@%&&%$$$$$%&%OOooXoOO+@@@#@#@%&%$$$$$%&&%@@@@@@+@++X ",
"  oO+O+++++%&%$$$$$$$$%&%ooXoOO+++++@##%&%$$$$$$$$%&%+@@@@@@@+X ",
"  ooOOOO+++&%$$$$$$$$$$%&OXXXooO+O+@@@#&%$$$$$$$$$$%&@@@+@@@+OX ",
".XoOoO++@+&%$$$$$$$$$$$$&%ooOOooOO++@+%&$$$$$$$$$$$$%&@+@@+OOo  ",
". XoO++++@&$$$$$$$$$$$$$%&oOoOOoooO++@&%$$$$$$$$$$$$$&++++@+OX .",
" .XoOO+O+&%$$$$$$$$$$$$$$&%++++OOooOO%&$$$$$$$$$$$$$$%&O++OOoX .",
"  oooOO++&$$$$$$$$$$$$$$$%&++@++OOOO+&%$$$$$$$$$$$$$$$&+OOOOOo .",
". XoOOOOO&$$$$$$$$XXXX*$$$&@@##@++OoO&$$$$XXXX&$$$$$$$&OoOOooX. ",
"  XooOOO+&$$$$$$$$==XX&$$$%&##@@@@+O&%$$$$XX==&$$$$$$$&OOoooX ..",
"  XoXoOoo&$$$$$$$$==XX&$$$$%@@#@@+++%$$$$$XXX=&$$$$$$$&oooX  ...",
"  oXXXoo&%$$$$$$$$=X=X&$$$$$@@@@@@@+$$$$$$X==O&$$$$$$$%&OXoXX  .",
"  XXoOO+&$$$$$$$$$O===&$$$$$$@@@@@+$$$$$$$X===&$$$$$$$$&OOoooX .",
". XoO+++&$$$$$$$$$=O==&$$$$$%&#@@@&%$$$$$$=OO=&$$$$$$$$&OOOoXoX.",
" XXoOO+@&$$$$$$$$$OOOO&$$$$$$%&&&&%$$$$$$$OOOO&$$$$$$$$&OooOooX ",
"  XO++@+&$$$$$$$$$O=O=&$$$$$$$$%%$$$$$$$$$OO==&$$$$$$$$&OOOoooX ",
" XXoO++&%$$$$$$$$$-&&&;$$$$$$$$$$$$$$$$$$$-&&&;$$$$$$$$%&+++Oo  ",
" Xoo++%$$$$$$$$$$$$%%%$$$$$$$$$$$$$$$$$$$$$%%%$$$$$$$$$$$%+@+O .",
". ooO%$$$$$$$$$$$$$$$$$$$$$$$$$$$$$$$$$$$$$$$$$$$$$%$$%$$$$++O..",
". oOO%%$$$$$$$$$$$$$$$$$$$$$$$$$$$$$$$$$$$$$$$$$$$$%%$%$$$$++O .",
"  oO%%$$$$$$$$$$$$$$$$$$$$$$$$$$$$$$$$$$$$$$$$$$$$$$%$%%$$$%OOX ",
"  oo$%%$$$$%%$$$$$$$$$$$$$$$$$$$$$$$$$$$$$$$$$$$$$$$$%%%$%%$Oo X",
". o:%%%%$$%%$$$$$$$$$$$$$$$$$$$$$$$$$$$$$$$$$$$:$$$$$$%%%%$$$oXX",
"  X:$$$%%%$$$$::$$$$$$$$$$$$$$$$$$$$$$$$$$$$$::$$$$$:$%%%$$$$oX ",
" X:::$$$%$$$:$$:::$$>,,,,,,,,,,,,,,,,,,,,,,>$$::::$::$%%%%$%$:X.",
"  :::$$$$%:::::::$$$>,,,,,,,,,,,,,,,,,,,,,,>%$$::$::$$%$%%$%$$X ",
". ::::$$$$$$$::$$$$$$>,,,,,,,,,,,,,,,,,,,,>&%$$:::::$$%$$%%$$:X ",
"  :$$:$$$$$:$$::$::$$>,,,,,,,,,,,,,,,,,,,>>&%$:$:$$:$$%$$$%$$:X ",
".X:::$$$$$$$::$:::$$$$>,,,,,,,,,,,,,,,,,>>&%$$$$$::$$%$$$%$$:: .",
".X$$$$$%$$$$$:::::$$$$$>,,,,,,,,,,,,,,,>>&%%$$$$::::$$$$%%$$:: .",
". :$$::%%$$$$$$$:$$$$$$:>,,,,,,,,,,,,,>>&%%%$$::::::::$$%$$:::..",
"  :$:::$%$$$%$$::$$$$$:::>,,,,,,,,,,,>>&%%%$$$$::$::$$$%$$$:::.X",
". ::::::$%$%%%::$$$$$$$:::>,,,,,,,,,>>&%%%$$::::$$$$$$$$:$::::  ",
". ::::$::$$%%$:$$$$$$$$$$:#>,,,,,,,>>&%%$$$$$:$$$::$$$:::::$:: X",
".X:#:::$$$%%$:$$$$$$$$$$$$:#>>>>>>>>&%%$$$$$$$::::$$$$$:$$$::#XX",
".X#:::$$$$$$%$$$$$$$$$$$$$$%%%>>>>&&%$$$$$$$$$$:$$$$$$$$$$:::#X ",
" .#::#::$:$$$$$$$$$$$$$$$$$$%%&&&&%%$$$$$$%%%$%$$::::$$$::::::  ",
"  ##::##:::$$$$$$$$$$$$$$$$$$$%%%%%$%%$$$$$%%%$:::$$$:$$$:##:# X",
"X #####:::::$$$$$$$$$$$$$$$$$$$$%%%%%$$$$%%$$$$$$:::$$:::::### X",
"X ####::::##::$$$:$%$$$$$$$$$$$$$$%%$$$$:::::$$$:::$$$$:######XX",
"XX###::##::###:::$$$%%$$$$$$$::$$$$$%%$$$$::::$::$$$:::##::#:#X ",
" X##:###:####::$$$$$$%%$$$$$$$::$$$%%$$:::::$::#::::$:::::::##X ",
" X#########:::$$$$::::$$$$$:::$$%%%%$$:::$$$::::###:::##:#::##X ",
"XX#####:####::::$$$#:$:$$$::$$:$$%$$$$$::::$$$:###:#::#:##:###  ",
" X#<####::::##:::$::##:::$$::$$:::$$:$$$:::#::::::###::######< .",
" X<#######:::##:$::::####:##:::#:$$:::$:###::###:#######::###<X.",
".X<<<####::::::::#######:::####:::::#####:::#:######:#::###<<<X.",
".X<<<<<<####:#::::###:::##::#:::::#####:::###########::#####<<X ",
"  ++++<<<<+++++++<<<+++++<<<<<++OO+++<<<++++<<<<++<<++<<<<++<<  ",
". OOO++OO+OOOOOOO+++++OOOO+OO++OOOOOO++OOO+OO++OOOOOOOO++OO<OO .",
"..XX XXXXXXXXX....  XXXX  XXXXXX   XXX   XX  XXXX XXXXXXXXXX  ..",
". ..  XXX  . . .....   ..  XXX  X . ..  XX..  X     XX  XXXXX  ."
};
