/* XPM */
static char *end_portal_frame_side[] = {
/* columns rows colors chars-per-pixel */
"64 64 16 1 ",
"  c #132E37",
". c #18353E",
"X c #24433B",
"o c #2F584E",
"O c #427367",
"+ c #72B278",
"@ c #AB865F",
"# c #B8A876",
"$ c #C5BE8B",
"% c #99C693",
"& c #CDC68B",
"* c #D5DA94",
"= c #DEE6A4",
"- c #EEF6B4",
"; c #F6FABD",
": c None",
/* pixels */
"::::::::::::::::::::::::::::::::::::::::::::::::::::::::::::::::",
"::::::::::::::::::::::::::::::::::::::::::::::::::::::::::::::::",
"::::::::::::::::::::::::::::::::::::::::::::::::::::::::::::::::",
"::::::::::::::::::::::::::::::::::::::::::::::::::::::::::::::::",
"::::::::::::::::::::::::::::::::::::::::::::::::::::::::::::::::",
"::::::::::::::::::::::::::::::::::::::::::::::::::::::::::::::::",
"::::::::::::::::::::::::::::::::::::::::::::::::::::::::::::::::",
"::::::::::::::::::::::::::::::::::::::::::::::::::::::::::::::::",
"::::::::::::::::::::::::::::::::::::::::::::::::::::::::::::::::",
"::::::::::::::::::::::::::::::::::::::::::::::::::::::::::::::::",
"::::::::::::::::::::::::::::::::::::::::::::::::::::::::::::::::",
"::::::::::::::::::::::::::::::::::::::::::::::::::::::::::::::::",
"OOOOOOOOOOOOOOOOOOOOOOOOOOOOOOOOOOOOOOOOOOOOOOOOOOOOOOOOOOOOOOOo",
"oooooooooooooooooooooooooooooooooooooooooooooooooooooooooooooooX",
"oXo%%+oooo............................................oooo+%%ooX",
"oX%%+oo...                                            ...oo+%%oX",
"oX%+o..                                                  ..o+%oX",
"oX+o.                                                      .o+oX",
"oXo.        @@@@@@############################@@@@@@        .ooX",
"oX.       @@$$$$$$$$$$$$$$&&&&&&&&&&&&$$$$$$$$$$$$$$@@       .oX",
"oX.      #$$;;-;-=---==*****=*===--==*$$&&&&&&***===$$#      .XX",
"o.      #$=-;--==------=***=*===-;-=-=$&&&&*&**=*==---$#      .X",
"o.     #$=------======--=***===--;--==*&&&******===---=$#o    .X",
"o.     #===---=========---===---;;-=--=**&&**=*====--==*#o    .X",
".     #$==---===***=*===-----;-;-;--=---=***======---===$#o    .",
".     #-=---==$$$&**=**==----;;-;;;;;----========---=-==*#o    .",
".     #=----=$$$&$&=*=**==-=--;;;;;-;;;--==*=*===----====#o    .",
".     #--==-$$$$$&&&****=====;;-;;;;;-----==**==--=======#o    .",
".     .#==$$$$$$&$&&*&***==-=;-=-;--==---=-=*==-=$$$*==*#Oo    .",
"#.    .#*$$&$$&&&&&&&****===;;--=====-=---====*$$$&&$&=*#Oo   .#",
"#.     .#$&$$&$&&&&*&****===--=****====---=-=$$$&&$$&&*$Oo    .#",
"=.      .#$$&&&&&*&&*&***=====*******===----$$$&$&&$$&$Oo     .=",
"-#.      .##&&&&*&*&&****===****$&&***====-$$$$$&$&&$$Oo     .#-",
";#.       ..#&*****&&&**===**&*&$$&&&**====$&$$&&&&$OOo      .#=",
";;#.        XXoooooooooooooooooooooooOOOOOOOOOOOOOOOoo      .#--",
";;;#.         XXXXXXXXXXXXXXXXXXXXXXXXXXoooooooooooo       .#---",
";;;-$.                                                    .$---=",
";-;;;$.                                                   $=-===",
"--;;-;$$                                                $$*==-==",
"-;------$$$                                          $$$=*======",
"---=&$&&=**$$$$$$$$$########################$$$$$$$$$***=*=====-",
"--=$$$$$&&==-=====**===-;--==*&*&**=**=--====***=*****=**====---",
"-*&$$$&$$&&==--==*===--;-=-====**&=*==--====*=*=*=***=*=====----",
"=*$$$&$&&&&*&=--====---;--===========--========*=*****====------",
"*$$$&&&&&&&&**=-----;;;;;-=-=*=**==---=-=$$&======**======---==-",
"$$&&$&&*&&*&***--;-;;;-;----==**==-----=$$&&$*==***======--=====",
"&&*&&**&&*&****-;;;;-----===-===*------=$&$&&&&=====*===--=====*",
"&*&&**&&&**=***-;;--==-==***====----=-=$$$$$&&&&==*====-====*=**",
"*****&&&**=*=*=----==-==***&**=-----==$$$$$&*&&&*==*=====*=*=***",
"=***&*=**=*=====--=--==*&*&&&&==---=-=$$$$&*&*&==*=**==***=*==**",
"-**&*=**======-=-----=*&*&&&&&$=-----=$$$&*&*=*===*******=======",
"=*****=========-=;;-=**&&&&&&&&$=---=$&&*&&*=*==*******========-",
"==**=========-=--;--=***&&&&$$&$*=--=&&***&***===****=====--=;--",
"===========--=;-;;-=*&*&&$&$&$$$$*=-=&*&*****==*=*====-;;--;;-==",
"=========------;;-;=&*&&$&&&$$&$$*===****=**==**====--;-;;;;-===",
"*======---;----;---=&&&&&&&$$$$$*=*===**=*====*==----=-;=-====&$",
"&&*===---;-=-=-;=-==*&&&&$$&$$$****==========*=--------=====&$$&",
"$$&$=--=-;;-==;--=-=*$$&$$$$$$*****==========-------=-====*&&$$$",
"$$$&&==-;;---==--==***$$$$$*******======*===--===----===**&$&&$$",
"&&$&&*===-;-------=**&*$$$*******=====**==========--===**$$&&&&$",
"**&&&&&*==-=-;---==*************=====*=*****=*=========*$$&&&$&&",
"&***&&***===--;--==******=*****====-==***$&&*=======--==$$&$$&$&",
"***&&*&***=-=--;-===****=*****======-***$$&$&**====--=-==$$$$*&*",
"*****&*****=------==*****=*=*=====---**$$&$&&*=*=--=----==&$&&**"
};
