/* XPM */
static char *furnace_front[] = {
/* columns rows colors chars-per-pixel */
"64 64 15 1 ",
"  c #464545",
". c #3C3B3B",
"X c #504E4E",
"o c #5D5B5B",
"O c #686868",
"+ c #777777",
"@ c gray52",
"# c gray57",
"$ c gray13",
"% c #111111",
"& c gray66",
"* c gray69",
"= c #9D9D9D",
"- c #C5C5C5",
"; c gray50",
/* pixels */
"  ..  XXXX     ... .   XXXX... ...  ....   XXX XX ..      XX    ",
" .. X   XXXX ..     XXXXX  XX   .  ...  .XXX  XX . ...  XXXXXXX ",
". XXXooXoooooooOOOOOO++++++O+OO++OooooooO++OOOOooooOOOooooooooX ",
"  XoooooXooOooOOo++@@+@+@@++O+++OOOOoooO+@@++OOOooOoOOOooooooo  ",
".XoOooOOooOOOOooOO++@@#@@++@@@++++OoOoO+++@@@+O+OooOoooOOOoooo .",
".XooOooOOooOOOOooOOO+@@###@@+@@++OooOooOOO+@+@+OooOoooOoO+OOoo .",
"  oOOOOOoOOO+OO+OoO+++@+#@@+@+++OOoOO+OooOOO+OOOoOOO++O+OO++Oo  ",
" XooO++O++OOO+++++OOO++@@@@@++OOooOO+++OooO+OOooO+++O+@++++OOoX ",
" XoOOO+++O+++@@#@@+ooO++@+OOooOooO+++O+++OoooooOOO+@@@+++++++OX.",
". oOo+O+++O+@@###@@+ooOO+++OOoooOoO+OOO+++OoXoOO++@@#@@+@@++O+X ",
".XooOOOO+++++#@@##@@+OoooOo..........ooOO++OOXoO@@@####@@++@++ X",
".XoooOO++++@@@@##@+++OOo..$$$$$$$$$$$$..oO++OOooO+O@##@@++@@@O  ",
".XoOOO+++@@+@@@@@@@+OO.$$$%%%%%%%%%%%%$$$.O++oXoOO++@@#@@@@++OX.",
" XOOO+++@+@@@@@@@@+O.$$%%%%%%%%%%%%%%%%%%$$.ooXXOOO@@@@@@@+@++X ",
"  oO+O+++++@@@@@@+.$$%%%%%%%%%%%%%%%%%%%%%%$$.oXoO++++@@@@@@@+X ",
"  ooOOOO++++@@@++.$%%%%%%%%%%%%%%%%%%%%%%%%%%$.oXOO++@@@+@@@+OX ",
".XoOoO++@+@@++++.$%%%%%%%%%%%%%%%%%%%%%%%%%%%%$.ooOOO+@+@@+OOo  ",
". XoO++++@@@@+O.$%%%%%%%%%%%%%%%%%%%%%%%%%%%%%%$.oOO++++++@+OX .",
" .XoOO+O++++@O.$%%%%%%%%%%%%%%%%%%%%%%%%%%%%%%%%$.oOOO+O++OOoX .",
"  oooOO++++@+.$%%%%%%%%%%%%%%%%%%%%%%%%%%%%%%%%%%$.oOOO+OOOOOo .",
". XoOOOOO++OO$%%%%%%%%%%%%$$$$$$$$$$$$%%%%%%%%%%%%$XXXoOoOOooX. ",
"  XooOOO++OO.$%%%%%%%%%%$$$$$$$$$$$$$$$$%%%%%%%%%%$.XoOOOoooX ..",
"  XoXoOooOOo$%%%%%%%%%%$$$............$$$%%%%%%%%%%$oOooooX  ...",
"  oXXXooOOo+$%%%%%%%%%$$................$$%%%%%%%%%$oooOOXoXX  .",
"  XXoOO++@++%%%%%%%%%$....................$%%%%%%%%%++OOOOoooX .",
". XoO+++++@@%%%%%%%%$......................$%%%%%%%%O++OOOOoXoX.",
" XXoOO+@@@#@%%%%%%%$........................$%%%%%%%++O+OooOooX ",
"  XO++@+@###%%%%%%%$........................$%%%%%%%@@+OOOOoooX ",
" XXoO++@#@##&&&&&&&&**&&&****&&********&&&&*****&&*&@+++O+++Oo  ",
" Xoo++++@####===##########======##==#######=======#@+@@++++@+O .",
". ooO++@@@@@##=#=#@#@+@@@###==#@@@@+@+@+@####====###@@@@+@@++O..",
". oOOO++@@@@@@#####@@O+@@@#=##@+@@+++O+@++##=#==##@@@+@@@@+++O .",
"  oOO++@+@@+@##@#@@++oO+@+@+#@@@+@@++OO++@@#@#@@@@+++++@@+O+OOX ",
"  ooO+++++@@+@@@@@++OoXO+++@@@++++++OoO+@@++++@@+@@+O++++++OOo X",
". oOooOO++++O+@@+++OoXoOOO+++OO++OoOoooO++OO+++@@+OOOoO+OoOOooXX",
"  XooOoooOOOOooOOoooXXoooOOoooOOooooOooooOOooOOOooOoOOoooOooooX ",
" X-----***------**--------------------------------------*&&=##X.",
"  ---*********************---*******--**-*******--*-****&*====X ",
". -*--*****************************-*************--********&&=X ",
"  *-*****&***************&**********&*&&*************&**&&***&X ",
".X=&&*&&&**************&&&&&*******&&&&&&****&********&&&***&= .",
".X==*&&*******&*****&***&&==&=&=&&&&==&=&&*&&*****&&***&&&*&&= .",
". =&&=&&**&*&&==&****&&&===&###@@@##@====&&&**&*&**&&&**&&=&=#..",
"  ==&&=**&=&=&&==&**&&#@@oooooooooooooo@@==#&**&&&&&=*&&&&&===.X",
". ==&=&&====*&**&&&=@X$$%%%%%%%%%%%%%%%%$$X@#&**==&==#&&=#=#=#  ",
". #===&&&=#&&****==X$$%%%%%%%%%%%%%%%%%%%%$$X@@#&==*#==&&=#### X",
".X=##===&&=##=*&=@X$%%%%%%%%%%%%%%%%%%%%%%%%$X@@@#*&&=&&&#####XX",
".X#=###&&=##====@X$%%%%%%%%%%%%%%%%%%%%%%%%%%$X@#=&&&&&====##;X ",
" .####===&====##X$%%%%%%%%%%%%%%%%%%%%%%%%%%%%$X@#=&==&&=####+  ",
"  ##==##=====#@X$%%%%%%%%%%%%%%%%%%%%%%%%%%%%%%$X####===&=##;+ X",
"X ###==###=#@@X$%%%%%%%%%%%%%%%%%%%%%%%%%%%%%%%%$X##=#=######; X",
"X #;#####=#@@X$%%%%%%%%%%%%%%%%%%%%%%%%%%%%%%%%%%$X##====#=#;;XX",
"XX##;;##==##@$%%%%%%%%%%%%%%%%%%%%%%%%%%%%%%%%%%%%$####=#=##;+X ",
" X#;;#####=#X$%%%%%%%%%%$$$$$$$$$$$$$$$$%%%%%%%%%%$X###;##;;+OX ",
" X;;+;;;####$%%%%%%%%%$$$$$$$$$$$$$$$$$$$$%%%%%%%%%$##;;;;#++OX ",
"XX++;;;;;#;#$%%%%%%%$$$$$$$$$$$$$$$$$$$$$$$$%%%%%%%$###;;#;+O+  ",
" X+O+;;++;;;%%%%%%%$$$$$$$$$$$$$$$$$$$$$$$$$$%%%%%%%+;;++++OOO .",
" XOO++;;++;;%%%%%%$$$$$$$$$$$$$$$$$$$$$$$$$$$$%%%%%%;+;;+O++OOX.",
".X+OOO+OOO+;%%%%%$$$$$$$$$$$$$$$$$$$$$$$$$$$$$$%%%%%++O+++OOOOX.",
".XOOOOOO++;+%%%%%$$$$$$$$$$$$$$$$$$$$$$$$$$$$$$%%%%%+OOOO++OOOX ",
"  OOOOO+O+++#&&&===&#===&&&&&&&&==&#==#&&&&=#&&==&##++OO+OOOOO  ",
". OOOOOOOOOO+;;+;+++;;;+++++;;;;+;;;+;++;+;;;+;;++;;+OOOOOOOOO .",
"..XX XXXXXXXXX....  XXXX  XXXXXX   XXX   XX  XXXX XXXXXXXXXX  ..",
". ..  XXX  . . .....   ..  XXX  X . ..  XX..  X     XX  XXXXX  ."
};
