/* XPM */
static char *glow_lichen[] = {
/* columns rows colors chars-per-pixel */
"64 64 6 1 ",
"  c #63756E",
". c #6E7E78",
"X c #71867E",
"o c #739285",
"O c #AEAF8C",
"+ c None",
/* pixels */
"++++++++++oXX++++++++++++++++++++++++++++ +++++++X..o+++++++++++",
"++++++++ooXXXX+++++++++++++++++.+++++++++ .+++++X..X.o++++++++X+",
"+++++++ooXX.X.X+++++++++++++++++X.++++++  .++++o.X+X.  +++++..++",
"+++++++XXX. ..X+++++++.++++++++++X..++.. . .++ooX+++X.  ++XX.+++",
"++++++.XX.XX  ..+++.  ++++++++++++X. .   X X+XX.++++XXoo o.X++++",
"+++.++ . ..  ..X++.  ++++++++++++++X.   XooXX...+++++X.oo.X+++++",
"++++.+.    OOoX.XX +++++++++++++++++X. . oXXo. +++++++..XXXX++++",
"++++X.XX  OOOOooX.+++++++++++++++++++X..X.XoXo ++++++++..XXo++++",
"+++++XX ++++oOOoooo+++++++++.+++++++++X.XXooX ++++++++.+XooXX+++",
"++++XX +++++++XXooXo+++++++++..+X++++++++XXo  ++++++++++ooOOXX++",
"+++   ++++++.++++ooXX+++++++..  +++++++++++.. ++++++++++OOOOOX.+",
"++  +++++...++++++..XX++++XX. ++++++++++++... +++++++++++OOX.. +",
"+ X+++++.X.++++++.XX..XX.XX.+++++++++++++.++.. ++++++++++++O   .",
"XX+++++.Xo++++++.XX.. .XX.++.++++++++++++++XX.  ++.+++++++++X  X",
"X+++++.ooXX++++X++++  .X++++++++++++++++++++XXXX..+++++++++++.XX",
"++++..XXooXX+++++++++ X.++++++++++++.+++++++X+X..+++++++++++++.X",
"+++.oXoX++..X+++++++++ .X++++++++++.+++++++X++..++++++++++++Xo.+",
"++..ooX++++...++++++++..X+++++++++. +++++++++++.+++++++X++XooX++",
"+.++Xo++++++.XX++++++ .X..+++++++..++++++++++++X.+++++++XXoo++++",
"++++XX+++++++.X+++++.XXoX..XX ++.. +++++++++++XX.++++++++o++++++",
"++++.X++++++++XX+++XXooX++XX.X .. ++++++++++++oXXX++++++++++++++",
"++++X+++++++++X++++Xoo+++++XX..  .+++++++++++XXoXXX+++++++++++++",
"+++X+++++++++.++++XoX+++++++XX+..  ++++X+++Xooo...XXX+++++++X+++",
"++++++++++++++++++Xoo+++++++X+++ ...++++..XooX++.++X..XX++oX++++",
"+++++++++++++++++++Xo++++++X+++++.O..XXXXXoX+++++.+++ ..ooX+++++",
"+++++++.+++++++++++oXX++++++++++OOOOXoX.Xoo++++++++++++ XooX++++",
"++++++++XX.+++++++++X+X++++++++OOOXooXXX++...++++++++++++.oo++++",
"+++++++++XX.++++++++..++++++++++OXooX.++++++o.++++++++++++XoX+++",
".++++++++++X  +++++++XX+++++++++ .XX+++++++++o.++++++++++++X..++",
"+..+++++++++X.. +++++oXX+++++X++X X++++++++++oo.+++++++++++.X ++",
"..++++++++ooXX.. +++++ooX+++++ooX +.++++++++ .++.+++++++++++ ..+",
".+++++++oooXX.X+  +++++ooX+++++ooX++++++++++.++++++++++.+++  +..",
"+++++++oXXX.++++++.+++++XXX.++XXoo+++++++++.++++++++++++..  ++o.",
"++++++oooX.+++++++++++++++.X. X o.+++++++++++++++++++X+++.++++oo",
"+++++X++X.+++++++++++++++++X.  X.  ++++X+++++++++++XX++++++++.o+",
"++++++++..++++++++++++++++++X. Xo. ++Xo++++++++++XXX+++++++++o.+",
"++++++++ .X++++++++o++++++++XX++oX.XX.++++++++++.XX++++++++++ ++",
"++++++OO  XX++.+++++o+++++++X++++oXX.+++++++++XX .XX++++++++  ++",
"++++OOOOO  ...+++++oo++++++X+++++XX.+++++++++X  .XXXX+++++++ .++",
"+++++OOOXX. ++++++oo+++++++++++++X.o++++++++X  .XX..XX++++++.+++",
"++++++OXXX+++++++ooXo+++++++++++++XXo++++++.++++. .XX.X++++.++++",
"++++++XX.X+++++++oX.++++++++++++++Xooo+++++++++++O  .XXX++++++++",
"++++++X...X+++++X..Xoo+++++++++++XXXXoo+++++++++OOO XoX.++++++++",
"+++X++.  ..XX++...XXXooo++++++++..X..Xo++++++++OOOOXXooX++++++++",
"++++.   ++X.XXoX.X++XXoXX++++++.++++..XX++++++++OO..o  oX+++++++",
"+++++. +++.XXoooX+++++XX..+++++++++++...++++++++O+.X  ooXX++X+++",
"+++++++++++XoooX++++++++   +++++++++++XooX+++++++. .X ++..XX++++",
"+++++++++++oXXoX+++++++ + . +++++++++++XooXX++++    .+++++X+++++",
"++++++++++++XXX.++++++++++ ..+++++++++++oXX  .oXX  X++++++++++++",
"+++++++++++++X..+++++++++++  .++ ++++++++o  XoXX .++++++++++++++",
"++++++++++++++ ..+++++++++++    ++++++++++.XXX++++++++++++++++++",
"+o++.+++++++++  .+++++++++++++ ++++++++++XXX.+++++++++++o+++++++",
"oooX+++++++++OX. .+++++++++++++++++++++oX...+++++++++++o++++++++",
"+oX+++++++++OOOO   ++++++ ++++++++++++oo..++++++++++++oX+++++X++",
"oX+++++++++.XXOOOO+ ++++++ .X+++++++.XoX.++++++++++++oXX++++++.+",
"X++++++++++ .XXXO++++++++++..X++++oo..XX++++++++++++ooo+++++++..",
"++++++++++++ .X.+++++++++++++.  .  .++.X+++++++++++XoX+++++++oXX",
"X+X+++++++++    X+++++++++++...    ++++.+++++++.++XXXX+++++++ooX",
"XX+++++++++.  +X++++++++++.. . .. ++++++.+++++++..XXXXo+++++ooXX",
"+X++++++++X  +++++++++++oo    .. ++++++++++++++..XX.XXoo++  XXo+",
"++++++ ++.  +++++++++++.  ++++  +++++++++++++..X++...XXooX .XX++",
"+++++++  .X.++++++++++.  ++++++ ++++++++++++..X+++++..XoX ..X+++",
"++++++++XX.. ++++++++ ++++++++++ ++++++++++.+++++++X   XX.+++XX+",
"+++++++++XX.  ++++++++++++++++++++++++++++++++++++XX..  .+++++++"
};
