/* XPM */
static char *grindstone_side[] = {
/* columns rows colors chars-per-pixel */
"64 64 8 1 ",
"  c #686868",
". c #747474",
"X c gray50",
"o c gray56",
"O c #9A9A9A",
"+ c #A7A7A7",
"@ c #B4B4B4",
"# c None",
/* pixels */
"@@@@+@@@+@@@@@+@@+++OO++++OOOOOO++OO+++++O++@@@@################",
"@@++++@++++@+++++OOOOOOO+OOOOOOOOOOOO++OOOOOO+@@################",
"@+XXXXooXXXXXX..XXXX...XooX...XX..XXX..XXXXXoo+@################",
"++XXoo .XXXX. XXXXX..XXXXXooX...XX .XX...XXXXo+@################",
"++Xo..XX.XX.XXXXXX..XX.. .XoooXX.XXX.XXX.X.XXX++################",
"@+X..XX.XX.XooXXX.XXXXXXXX.  .oXXXXXX.XXX.X XX@+################",
"@+X.XXX.X.XoXXXXXXXXXoooooXXXXX..XXXXX XXXXX.X+@################",
"@+X.XX..X.XXXX..XXoooXXXXXXX..XXX.XXXX.X..XX.X+@################",
"@@XXXX.XXXXXX..XooXX..XXXXXXXX..XXXX.XXXXX.XXX++################",
"@+XXoXXXXoXX.XooXX .XXX...XXXXX...XX..XXoXX.XX++################",
"++XoXXXXoXX.XoXXX.XXXX..XXooXXXXXX.XX..XXoXX.X++################",
"+OXoXXXXoX.XXX .XXX...XXXXXXooXX. XXXX.XXoXX..++################",
"OOoXX.XXXX.XX.XXXX..XXX.  XXXXoXXX.XoXX.XXoXX.O+################",
"+OoX..XXXoXX.XXXXXXX. .XXX.  XXoXXX.XoX..XoXX.O+################",
"+OXX.XXXoXX XXXoXX .XXXXXXXXX. X.XXX XoX.XoXX.OO################",
"+OX..XXXoXX.XXoXX.XXoooXXXXXXXX.X.XX.XoXXXXoX.O+################",
"++X.XXXoXX.XXoXXXXooXX....XXXXXXX..XX.XoXXXoXXO+################",
"+OX.XXXoXX.X.oX.XoXX..    ..XXXoXX.XX XoXXXoXXOO################",
"@+.XXXXoX.XX.X.XoXX.        .XXXoXX.XX XXXXXoXOO################",
"@+.X.XoXX XX.X.XoX.          .XXoXXoXX Xo.XXoXO+################",
"@+XX.XoXX XXX..oX.            .XXoXXoX XoX.XoXOO################",
"@+XX.XoXX.XXX.XoX.            .XXoXXoX.XXo XoXO+################",
"++XXX.XX.XX.XXXo.              .XXXXXoX.Xoo XXO+################",
"@+XXX.XX XX.XXoX.              .XXXXXoX XXo.XX+@################",
"+OoXX.XX.XoX.XoX.              .X.XXXoX.XXXoXXO+################",
"OOoXX..X.XoX.XoX.              ..XX.XoX.X.XX.XOO################",
"+OoX.X.XXXoXX.XXX.            .X.X..XoXXX.XX.X++################",
"+OXo.XX.XXXoX..XX.            .X.X.XoXXo.XX..X+@################",
"+OXoX XXX.XoXX.XXX.          .X.XX.XoXXoXXX.XX@@################",
"OOXoX.XXX XoXXX.XXX.        .XXXX.XXoXoX.X..XX+@################",
"+OXXoX.XX.XXoXXX.oXX..    ..XXXX.XXoXooX X.XXXO+################",
"+OXXoXXXXX.XoXXX XooXX....XXXXXXXXXoXo.X..XXXX++################",
"OO.XoXX.XXXXXoXXX.XXoooXXXXXX.XXXXoX..XX.XX.XXO+################",
"OO.XoXX.XXXX..oXXX..XXXoooXX.XXXooX..XX.XXX XXO+################",
"+O.XXoXX XXoX..XXXXXXXXXX. .XoooXXXXXXX XXX.XX+@################",
"OOXXXoXX.XXoXXX..XXXXX. .XXXXXXXXX.XXXX XX.oXX+@################",
"OOX.XXoXX.XXoXXX...XXXXXX...XXXX..XXoX.XoX.oXX+@################",
"OO..XXXoXXXXXoXXXXX...X..XXXXX .XXooXX Xo XoXX+@################",
"OO.X.XXXoo..XXooXXXXXXXXXXX.  XXoooXX.XoX.oXXX+@################",
"OO.X..XXXXXX .XXoooXXX...  XoXXXXXX..XXo.XoXX.O@################",
"OOX X.XXX.X.XX.XX.XoooXXXXooXXXX. .XXXoXXoX.X O+################",
"O+X.XX.XX.XX..XXXX..XXoXXXXX.   XXXXooXXXX.XX ++################",
"+OXX.X..XX.XX...XXX...XXXXXXX..XXXooX.X...XX.X+@################",
"+OoXXXXX.XX.XXXX..XXXX.XXX.XXXXXXXXX.X..XXX.XXO@################",
"++XoXXXXXXXX .XXXX...XXX..XXXXXXX. .XXXXX .XXoO+################",
"@+XXooXXXXXXXXXXXXXX....XXXXX.  .XXXXXXXXXXooXO+################",
"+@@@+++++@+++@@++++++@@+@++OOOOOOOOOO+OOOOO++O++################",
"++@@@@++@@@+@+++++@@++@@++O++OOOOO+++OOO++++++++################",
"################################################################",
"################################################################",
"################################################################",
"################################################################",
"################################################################",
"################################################################",
"################################################################",
"################################################################",
"################################################################",
"################################################################",
"################################################################",
"################################################################",
"################################################################",
"################################################################",
"################################################################",
"################################################################"
};
