/* XPM */
static char *iron_door_bottom[] = {
/* columns rows colors chars-per-pixel */
"64 64 12 1 ",
"  c #818181",
". c gray31",
"X c gray24",
"o c gray18",
"O c #CDCACA",
"+ c #B1B1B1",
"@ c gray",
"# c #E6E6E6",
"$ c gray65",
"% c #DBDADA",
"& c #D2D2D2",
"* c gray63",
/* pixels */
" .XoOOOOOOO+OOOOOOOOOO@@@@@@#OOOOOO+OOOOOOOOOO@@@@@@#OOOOOOOOO$$",
".XXoOOOOOOO+OOOOOOOO@@@@@@@@#OOOOOO+OOOOOOOO@@@@@@@@#OOOOOOOOO$$",
".XoXOOOOOOO+OOOOOO@@@@@@@@@@#OOOOOO+OOOOOO@@@@@@@@@@#OOOOOOOOO$$",
"XoooOOOOOOO+OOOO@@@@@@@@@@@@#OOOOOO+OOOO@@@@@@@@@@@@#OOOOOOOOO$$",
"%%+++++++++@&###############&######@&###############&#########$$",
"%%@@@@OO&&&&&&&&&&&&&&&&OO&&&&&&@@@@@@@@&&&&OOOOOO&&&&&&&&OO&&$$",
"%%OOOOOOOOOOOOOOOOOOOOOOOOOOOOOOOOOOOOOOOOOOOOOOOOOOOOOOOOOOOO$$",
"%%OOOOOOOOOOOOOOOOOOOOOOOOOOOOOOOOOOOOOOOOOOOOOOOOOOOOOOOOOOOO$$",
"%%OOOOOOOOOOOOOOOOOOOOOOOOOOOOOOOOOOOOOOOOOOOOOOOOOOOOOOOOOOOO$$",
"%%OOOOOOOOOOOOOOOOOOOOOOOOOOOOOOOOOOOOOOOOOOOOOOOOOOOOOOOOOOOO$$",
"%%OOOOOOOOOOOOOOOOOOOOOOOOOOOOOOOOOOOOOOOOOOOOOOOOOOOOOOOOOOOO$$",
"%%OOOOOOOOOOOOOOOOOOOOOOOOOOOOOOOOOOOOOOOOOOOOOOOOOOOOOOOOOOOO$$",
"%%OOOOOOOOOOOOOOOOOOOOOOOOOOOOOOOOOOOOOOOOOOOOOOOOOOOOOOOOOOOO$$",
"%%OOOOOOOOOOOOOOOOOOOOOOOOOOOOOOOOOOOOOOOOOOOOOOOOOOOOOOOOOOOO$$",
"%%OOOOOOOOOOOOOOOOOOOOOOOOOOOOOOOOOOOOOOOOOOOOOOOOOOOOOOOOOOOO$$",
"%%+++++++++*++++++++++++++++&######*++++++++++++++++&#########$$",
"%%@OOOOOOOO+OOOOOOOOOOOOOOOO#&OOOOO+OOOOOOOOOOOOOOOO#&OOOOOOOO$$",
"%%OOOOOOOOO+OOOOOOOOOOOOOOOO#OOOOOO+OOOOOOOOOOOOOOOO#OOOOOOOOO$$",
"%%OOOOOOOOO+OOOOOOOOOOOOOOO@#OOOOOO+OOOOOOOOOOOOOOO@#OOOOOOOOO$$",
"%%OOOOOOOOO+OOOOOOOOOOOOOOO@#OOOOOO+OOOOOOOOOOOOOOO@#OOOOOOOOO$$",
"%%OOOOOOOOO+OOOOOOOOOOOOOO@@#OOOOOO+OOOOOOOOOOOOOO@@#OOOOOOOOO$$",
"%%OOOOOOOOO+OOOOOOOOOOOOOO@@#OOOOOO+OOOOOOOOOOOOOO@@#OOOOOOOOO$$",
"%%OOOOOOOOO+OOOOOOOOOOOOO@@@#OOOOOO+OOOOOOOOOOOOO@@@#OOOOOOOOO$$",
"%%OOOOOOOOO+OOOOOOOOOOOO@@@@#OOOOOO+OOOOOOOOOOOO@@@@#OOOOOOOOO$$",
"%%OOOOOOOOO+OOOOOOOOOO@@@@@@#OOOOOO+OOOOOOOOOO@@@@@@#OOOOOOOOO$$",
"%%OOOOOOOOO+OOOOOOOO@@@@@@@@#OOOOOO+OOOOOOOO@@@@@@@@#OOOOOOOOO$$",
"%%OOOOOOOOO+OOOOOO@@@@@@@@@@#OOOOOO+OOOOOO@@@@@@@@@@#OOOOOOOOO$$",
"%%OOOOOOOOO+OOOO@@@@@@@@@@@@#OOOOOO+OOOO@@@@@@@@@@@@#OOOOOOOOO$$",
"%%+++++++++@&###############&######@&###############&#########$$",
"%%@@@@@@&&&&&&&&&&&&OOOO&&&&&&&&@@@@@@&&OOOOOOOO&&&&&&&&&&OO&&$$",
"%%OOOOOOOOOOOOOOOOOOOOOOOOOOOOOOOOOOOOOOOOOOOOOOOOOOOOOOOOOOOO$$",
"%%OOOOOOOOOOOOOOOOOOOOOOOOOOOOOOOOOOOOOOOOOOOOOOOOOOOOOOOOOOOO$$",
"%%OOOOOOOOOOOOOOOOOOOOOOOOOOOOOOOOOOOOOOOOOOOOOOOOOOOOOOOOOOOO$$",
"%%OOOOOOOOOOOOOOOOOOOOOOOOOOOOOOOOOOOOOOOOOOOOOOOOOOOOOOOOOOOO$$",
"%%OOOOOOOOOOOOOOOOOOOOOOOOOOOOOOOOOOOOOOOOOOOOOOOOOOOOOOOOOOOO$$",
"%%OOOOOOOOOOOOOOOOOOOOOOOOOOOOOOOOOOOOOOOOOOOOOOOOOOOOOOOOOOOO$$",
"%%OOOOOOOOOOOOOOOOOOOOOOOOOOOOOOOOOOOOOOOOOOOOOOOOOOOOOOOOOOOO$$",
"%%OOOOOOOOOOOOOOOOOOOOOOOOOOOOOOOOOOOOOOOOOOOOOOOOOOOOOOOOOOOO$$",
"%%OOOOOOOOOOOOOOOOOOOOOOOOOOOOOOOOOOOOOOOOOOOOOOOOOOOOOOOOOOOO$$",
"%%+++++++++*++++++++++++++++&######*++++++++++++++++&#########$$",
"   .OOOOOOO+OOOOOOOOOOOOOOOO#&OOOOO+OOOOOOOOOOOOOOOO#&OOOOOOOO$$",
" ..XOOOOOOO+OOOOOOOOOOOOOOOO#OOOOOO+OOOOOOOOOOOOOOOO#OOOOOOOOO$$",
" X.XOOOOOOO+OOOOOOOOOOOOOOO@#OOOOOO+OOOOOOOOOOOOOOO@#OOOOOOOOO$$",
" .XXOOOOOOO+OOOOOOOOOOOOOOO@#OOOOOO+OOOOOOOOOOOOOOO@#OOOOOOOOO$$",
" .XoOOOOOOO+OOOOOOOOOOOOOO@@#OOOOOO+OOOOOOOOOOOOOOO@#OOOOOOOOO$$",
".XXoOOOOOOO+OOOOOOOOOOOOOO@@#OOOOOO+OOOOOOOOOOOOOO@@#OOOOOOOOO$$",
".XoXOOOOOOO+OOOOOOOOOOOOO@@@#OOOOOO+OOOOOOOOOOOOO@@@#OOOOOOOOO$$",
"XoooOOOOOOO+OOOOOOOOOOOO@@@@#OOOOOO+OOOOOOOOOOOO@@@@#OOOOOOOOO$$",
"%%OOOOOOOOO+OOOOOOOOOO@@@@@@#OOOOOO+OOOOOOOOOO@@@@@@#OOOOOOOOO$$",
"%%OOOOOOOOO+OOOOOOOO@@@@@@@@#OOOOOO+OOOOOOOO@@@@@@@@#OOOOOOOOO$$",
"%%OOOOOOOOO+OOOOOO@@@@@@@@@@#OOOOOO+OOOOOO@@@@@@@@@@#OOOOOOOOO$$",
"%%OOOOOOOOO+OOOO@@@@@@@@@@@@#OOOOOO+OOOO@@@@@@@@@@@@#OOOOOOOOO$$",
"%%+++++++++@&&##############&######@&&##############&#########$$",
"%%@@@@@@@@@@@@&&&&&&OOOOOO&&&&&&@@@@@@@@OO&&&&OOOO&&&&&&&&&&OO$$",
"%%OOOOOOOOOOOOOOOOOOOOOOOOOOOOOOOOOOOOOOOOOOOOOOOOOOOOOOOOOOOO$$",
"%%OOOOOOOOOOOOOOOOOOOOOOOOOOOOOOOOOOOOOOOOOOOOOOOOOOOOOOOOOOO@$$",
"%%OOOOOOOOOOOOOOOOOOOOOOOOOOOOOOOOOOOOOOOOOOOOOOOOOOOOOOOOOO@*$$",
"%%OOOOOOOOOOOOOOOOOOOOOOOOOOOOOOOOOOOOOOOOOOOOOOOOOOOOOOOOOO@*$$",
"%%OOOOOOOOOOOOOOOOOOOOOOOOOOOOOOOOOOOOOOOOOOOOOOOOOOOOOOOOO@@*$$",
"%%OOOOOOOOOOOOOOOOOOOOOOOOOOOOOOOOOOOOOOOOOOOOOOOOOOOOOO@@@@@*$$",
"%%@@@@@@@@@@@@@@@@@@@@@@@@@@@@@@@@@@@@@@@@@@@@@@@@@@@@@@@@@@@@$$",
"%%@@@@****@@@@@@@@@@@@@@@@********@@@@**************@@@@******$$",
"%+$$$$$$$$$$$$$$$$$$$$$$$$$$$$$$$$$$$$$$$$$$$$$$$$$$$$$$$$$$$$$$",
"+$$$$$$$$$$$$$$$$$$$$$$$$$$$$$$$$$$$$$$$$$$$$$$$$$$$$$$$$$$$$$$$"
};
