/* XPM */
static char *ladder[] = {
/* columns rows colors chars-per-pixel */
"64 64 13 1 ",
"  c #3A2F1E",
". c #513D24",
"X c #664F2B",
"o c #67502C",
"O c #7D6136",
"+ c #7E6237",
"@ c #957340",
"# c #967441",
"$ c #A5814C",
"% c #AE8952",
"& c #B58D50",
"* c #BD9557",
"= c None",
/* pixels */
"========.+###+# ================================.+###+# ========",
"========.o+o+##.================================.o+o+##.========",
"========.+o+#o+ ================================.+o+#o+ ========",
"======== o+oo+o.================================ o+oo+o.========",
"====&*&#%#*%*&*%&&**$**#**%&&**$**%&&%&&*$**#*****#&&**&**&*====",
"====&#&&&%&&#$&&#$$#&#&&%&&#$$#&$&&#$&#$&&#&&%&#%#%*%&&$&$#*====",
"====$$$##$##$&##$&#&#$&$###$&#&#&##$&#$&##$&$#%&&$%&&#$&$&$*====",
"====$#$&&#$&&$$&&$&$&&$&&$&&$&$&$$&&$&&$$&$&&&$#$%$&$$&%#&&%====",
"====&#+#&&+&$#+&$#+&+&#$#+&$#+&+++&$#&$#+&#&$##&$#&+++$#$$$#====",
"====#+#$$##$&+#$&+$$$#+#+#$&+$$$##$&+$&+#$+##$&##+$$###&$+#+====",
"====o#+#+oo++#o++#++o+oo+o++#++o+o++#++#o+oo.+o.+o+o+o+oo#o.====",
"====...o.+.o+o.o+o.o+.o.o.o+o.o+..o+oo+o.oo.o..o.oo+..#..o..====",
"======== ..  . .================================ ...o+o.========",
"======== o+.+.. ================================ .o.+.o ========",
"========.#+o.+..================================.o+o.o+o========",
"======== o#+o#+.================================ .#+o+#.========",
"========o.+o#+#o================================oo+o#o#o========",
"========.oo#o++o================================.#+##++o========",
"========.o#+#+#.================================.o##+##.========",
"========o+o##o+o================================o#+##o#o========",
"====**&#%#**&&***$&&****#*&##***&$**#**&&$**#*****%&&&**&&*$====",
"====##&&%&&&&$&#&#&$&##&&%&&&&$&#&#&&%#$&&#&&%&#%&&#$&#$&$#*====",
"====&%#$#$&##&&&#$&&%&$&$#$&##&&&#$&$#$&$#$&$#%&&##$&&%&$&$*====",
"====&$#&&&$&&$#&$#&&$#&$&&&$&&$#&$#$&$&##$$&&&$#$$&&$$&%#&&%====",
"====$&&$#$#+#+&$#$+$&&&#$#+&+#+&$#$#+##$+&#&$##&++&$#$##$$$#====",
"====+++##+#$$#+##+#++##+#+#+$$#+##+##o+##o+##$&###$&+#$&$+#+====",
"====+o#+o+oo++#+o+++o.+oo++oo++#+o+o#+o.++oo.+o.oo++#.+oo#o.====",
"====...o.+.o+o.o+....o.o.o...o....oo...o..o.o..oo.o+oo...o..====",
"======== ..  . .================================ ..  . .========",
"======== .o.o.o ================================ o+.o.+ ========",
"========.o.o.o+o================================..#o+o..========",
"======== .o#o+#.================================ +o+#.+.========",
"========o#+o#o#o================================o#+o+##o========",
"========..+##++o================================.+##o##o========",
"========.o##+##.================================.o#+#+#.========",
"========o++##o#o================================o#+#+o#o========",
"====**&#%**%&&**$$&&&&**#&&#$&&****#*&#$**#*&$**#*#&**&&&***====",
"====&#&&&%&&#$$#&$&$&##&&%&&$&$&##&&%&&&#&&%&&#&&%%$&&#$**#*====",
"====$$$##$##$&#&##&&%&$&$#$&#&&%&$&$#$&#$&$#&#$&$#%#$&%&$&$&====",
"====$#$&&#$&&$&$&&&&$#&$&&&$&&&$#&$&&&$&#$&&&&&&$#$%&$&%#&&*====",
"====&#+#&&+&$#+&+#+$&&&#$#$#&$##&&#$$#&$#&+#+&$##&$#&$##$$$#====",
"====#+#$$##$&+$$$+#++##+#+#+##$&##+##+##$$$+###$&##+##$&$+#+====",
"====o#+#+oo++#++oo++o.+oo++oo.+o.+oo+oo.++oo+o.+o.+oo.+oo#o.====",
"====...o.+.o+o.o+....o.o.o.o.o..o.o..o.o.o+...o..o.o.o...o..====",
"======== ..  . .================================ ..  . .========",
"======== oo.o.. ================================ .o.o.o ========",
"========..+o++o.================================.o+o+o+o========",
"======== o++o.+.================================ .o+o##.========",
"========o##+#+oo================================o+#o#o#o========",
"========.+o#o#+o================================.#+##+#o========",
"========.+#+#+#.================================.o##+##.========",
"========o+o+#o+o================================o#+##+#o========",
"====*&&#%#*%&&**$$*&$**#*&&&&***$**#*&##**#$**#*&&****&&****====",
"====&#&&&%&&#$&%&&&#&&%&%&%&&&#&&%&&%&%&&&#&&%&%&$&##&#$&$#$====",
"====&#$#$&##$&$#$&#$&$#$#$#$&#$&$#&$#$#$&#$&$#$#&&%&$#$&$&$*====",
"====&#&&&$&&&$&&&$&#$&&$#&&&$&#$&&$&&&&&$&#$&&$&$&$$&&&%#&&*====",
"====$&$#$##&$##&+#+$&&&+&$#$#+##$+&$#+&$#&$####&&++&$#+#$$$*====",
"====++##+#+##$&$$+#++###+##+##o+##o#+#+#+##$&$+#$$#o#+#&$+#+====",
"====+#+o+o+o.+o+oo++o.++#+o+o#+o.++o++o+oo.+o#oo+o++o++oo#o.====",
"====...o..o.o..o+....o.....oo...o...o...o.o...o.o+...o...o..====",
"========.X+Xo+X ================================.o+oo+o ========",
"======== +X@+X+.================================ +o#+o+.========",
"========.#@+XOX.================================.##+o+o.========",
"======== @+@@@+.================================ #+###+.========"
};
