/* XPM */
static char *lantern[] = {
/* columns rows colors chars-per-pixel */
"64 192 19 1 ",
"  c #252C3D",
". c #76381C",
"X c #3E4453",
"o c #424A5E",
"O c #495065",
"+ c #814023",
"@ c #8B5230",
"# c #C36322",
"$ c #CD7B3C",
"% c #CE7441",
"& c #EC8144",
"* c #F09149",
"= c #E1A153",
"- c #F3C059",
"; c #F9C966",
": c #FAEA8A",
"> c #FDFD8B",
", c #FFFFD5",
"< c None",
/* pixels */
"<<<<XXXXXoOOOOoXXXXX<<<<<<<<<<<<<<<<<<<<<<<<<<<<<<<<<<<<<<<<<<<<",
"<<<<XoooOOOOOOOOoooX<<<<<<<<<<<<<<<<<<<<<<<<<<<<<<<<<<<<<<<<<<<<",
"<<<<XXoooOOooOOoooXX<<<<<<<<<<<<<<<<<<<<<<<<<<<<<<<<<<<<<<<<<<<<",
"<<<<XXXXooooooooXXXX<<<<<<<<<<<<<<<<<<<<<<<<<<<<<<<<<<<<<<<<<<<<",
"<<<<@+..++++++++..+@<<<<<<<<<<<<<<<<<<<<<<<<<<OOOOOOXX<<<<<<<<<<",
"<<<<@++..........++@<<<<<<<<<<<<<<<<<<<<<<<<<OooooooooX<<<<<<<<<",
"<<<<@@+++......+++@@<<<<<<<<<<<<<<<<<<<<<<<<OooooXXooooX<<<<<<<<",
"<<<<@@@@++++++++@@@@<<<<<<<<<<<<<<<<<<<<<<<<OoooX<<XXooX<<<<<<<<",
"XXXXXXooOOOOOOOOooXXXXXX<<<<<<<<<<<<<<<<<<<<OooX<<<< Xoo<<<<<<<<",
"XXoooOOOOOOOOOOOOOOoooXX<<<<<<<<<<<<<<<<<<<<OoX<<<<<< Xo<<<<<<<<",
"XoooooOOOOOOOOOOOOoooooX<<<<<<<<<<<<<<<<<<<<XoX<<<<<< Xo<<<<<<<<",
"XXXXooooooooooooooooXXXX<<<<<<<<<<<<<<<<<<<<XoX<<<<<< oX<<<<<<<<",
".+######$******$######+.<<<<<<<<<<<<<<<<<<<< oX<<<<<< o <<<<<<<<",
"+@##$$************$$##@+<<<<<<<<<<<<<<<<<<<< XX<<<<<< X <<<<<<<<",
"+@#$*****======*****$#@+<<<<<<<<<<<<<<<<<<<< oX<<<<<< X <<<<<<<<",
"+@$****===;;;;===****$@+<<<<<<<<<<<<<<<<<<<< ooX<<<< Xo <<<<<<<<",
"+@***===;;;;;;;;===***@+<<<<<<<<<<<<<<<<<<<< XooX<<XooX <<<<<<<<",
"+@*===;;;;::::;;;;===*@+<<<<<<<<<<<<<<<<<<<< oXooXXooXX <<<<<<<<",
"+@==;;;;::>>>>::;;;;==@+<<<<<<<<<<<<<<<<<<<<< XXooooXX <<<<<<<<<",
"+@=;;;;:>>>>>>>>:;;;;=@+<<<<<<<<<<<<<<<<<<<<<<  XX    <<<<<<<<<<",
"+@;;;;:>>>,,,,>>>:;;;;@+<<<<<<<<<<<<<<<<<<<<<<<<<<<<<<<<<<<<<<<<",
"+@;;;;:>>,,,,,,>>:;;;;@+<<<<<<<<<<<<<<<<<<<<<<<<<<<<<<<<<<<<<<<<",
"+@;;;:>>,,,,,,,,>>:;;;@+<<<<<<<<<<<<<<<<<<<<<<<<<<<<<<<<<<<<<<<<",
"+@;;;:>>,,,,,,,,>>:;;;@+<<<<<<<<<<<<<<<<<<<<<<<<<<<<<<<<<<<<<<<<",
"+@;;;:>>,,,,,,,,>>:;;;@+<<<<<<<<<<<<<<<<<<<< oX<<<<<< o <<<<<<<<",
"+@;;;:>>,,,,,,,,>>:;;;@+<<<<<<<<<<<<<<<<<<<< XX<<<<<< X <<<<<<<<",
"+@;;;;:>>,,,,,,>>:;;;;@+<<<<<<<<<<<<<<<<<<<< oX<<<<<< X <<<<<<<<",
"+@=;;;:>>>,,,,>>>:;;;=@+<<<<<<<<<<<<<<<<<<<< ooX<<<< Xo <<<<<<<<",
"+@*;;;;:>>>>>>>>:;;;;*@+<<<<<<<<<<<<<<<<<<<< XooX<<XooX <<<<<<<<",
"+@*=;;;;::>>>>::;;;;=*@+<<<<<<<<<<<<<<<<<<<< oXooXXooXX <<<<<<<<",
"+@**==;;;;::::;;;;==**@+<<<<<<<<<<<<<<<<<<<<< XXooooXX <<<<<<<<<",
".+******=;;;;;;=******+.<<<<<<<<<<<<<<<<<<<<<<  XX    <<<<<<<<<<",
"XXXoooOOOoooooooOOoooXXX<<<<<<<<<<<<<<<<<<<<<<<<<<<<<<<<<<<<<<<<",
"XooOOOOOOOOOOOOOOOOOOooX<<<<<<<<<<<<<<<<<<<<<<<<<<<<<<<<<<<<<<<<",
"XXooooOOOOOOOOOOOOooooXX<<<<<<<<<<<<<<<<<<<<<<<<<<<<<<<<<<<<<<<<",
"XXXXXooooOOOOOOooooXXXXX<<<<<<<<<<<<<<<<<<<<<<<<<<<<<<<<<<<<<<<<",
"XXXXXXXXooooooooXXXXXXXX<<<<<<<<<<<<<<<<<<<<<<<<<<<<<<<<<<<<<<<<",
"XXXooooooooooooooooooXXX<<<<<<<<<<<<<<<<<<<<<<<<<<<<<<<<<<<<<<<<",
"XXooooooooooooooooooooXX<<<<<<<<<<<<<<<<<<<<<<<<<<<<<<<<<<<<<<<<",
"XooooooooooooooooooooooX<<<<<<<<<<<<<<<<<<<<<<<<<<<<<<<<<<<<<<<<",
"XoooooooOOOOOOOOoooooooX<<<<<<<<<<<<<<<<<<<<<<OOOOOOXX<<<<<<<<<<",
"XoooooOOOOOOOOOOOOoooooX<<<<<<<<<<<<<<<<<<<<<OooooooooX<<<<<<<<<",
"XooooOOOOOOOOOOOOOOooooX<<<<<<<<<<<<<<<<<<<<OooooXXooooX<<<<<<<<",
"XooooOOOOOOOOOOOOOOooooX<<<<<<<<<<<<<<<<<<<<OoooX<<XXooX<<<<<<<<",
"ooooOOOOOOOOOOOOOOOOoooo<<<<<<<<<<<<<<<<<<<<OooX<<<< Xoo<<<<<<<<",
"ooooOOOOOOOOOOOOOOOOoooo<<<<<<<<<<<<<<<<<<<<OoX<<<<<< Xo<<<<<<<<",
"ooooOOOOOOOOOOOOOOOOoooo<<<<<<<<<<<<<<<<<<<<XoX<<<<<< Xo<<<<<<<<",
"ooooOOOOOOOOOOOOOOOOoooo<<<<<<<<<<<<<<<<<<<<XoX<<<<<< oX<<<<<<<<",
"ooooOOOOOOOOOOOOOOOOoooo<<<<<<<<<<<<<<<<<<<<<<<<<<<<<<<<<<<<<<<<",
"ooooOOOOOOOOOOOOOOOOoooo<<<<<<<<<<<<<<<<<<<<<<<<<<<<<<<<<<<<<<<<",
"ooooOOOOOOOOOOOOOOOOoooo<<<<<<<<<<<<<<<<<<<<<<<<<<<<<<<<<<<<<<<<",
"ooooOOOOOOOOOOOOOOOOoooo<<<<<<<<<<<<<<<<<<<<<<<<<<<<<<<<<<<<<<<<",
"XooooOOOOOOOOOOOOOOooooX<<<<<<<<<<<<<<<<<<<<<<<<<<<<<<<<<<<<<<<<",
"XooooOOOOOOOOOOOOOOooooX<<<<<<<<<<<<<<<<<<<<<<<<<<<<<<<<<<<<<<<<",
"XoooooOOOOOOOOOOOOoooooX<<<<<<<<<<<<<<<<<<<<<<<<<<<<<<<<<<<<<<<<",
"XoooooooOOOOOOOOoooooooX<<<<<<<<<<<<<<<<<<<<<<<<<<<<<<<<<<<<<<<<",
"XooooooooooooooooooooooX<<<<<<<<<<<<<<<<<<<<<<<<<<<<<<<<<<<<<<<<",
"XXooooooooooooooooooooXX<<<<<<<<<<<<<<<<<<<<<<<<<<<<<<<<<<<<<<<<",
"XXXooooooooooooooooooXXX<<<<<<<<<<<<<<<<<<<<<<<<<<<<<<<<<<<<<<<<",
"XXXXXXXXooooooooXXXXXXXX<<<<<<<<<<<<<<<<<<<<<<<<<<<<<<<<<<<<<<<<",
"<<<<<<<<<<<<<<<<<<<<<<<<<<<<<<<<<<<<<<<<<<<<<<<<<<<<<<<<<<<<<<<<",
"<<<<<<<<<<<<<<<<<<<<<<<<<<<<<<<<<<<<<<<<<<<<<<<<<<<<<<<<<<<<<<<<",
"<<<<<<<<<<<<<<<<<<<<<<<<<<<<<<<<<<<<<<<<<<<<<<<<<<<<<<<<<<<<<<<<",
"<<<<<<<<<<<<<<<<<<<<<<<<<<<<<<<<<<<<<<<<<<<<<<<<<<<<<<<<<<<<<<<<",
"<<<<XXXXXoOOOOoXXXXX<<<<<<<<<<<<<<<<<<<<<<<<<<<<<<<<<<<<<<<<<<<<",
"<<<<XoooOOOOOOOOoooX<<<<<<<<<<<<<<<<<<<<<<<<<<<<<<<<<<<<<<<<<<<<",
"<<<<XXoooOOooOOoooXX<<<<<<<<<<<<<<<<<<<<<<<<<<<<<<<<<<<<<<<<<<<<",
"<<<<XXXXooooooooXXXX<<<<<<<<<<<<<<<<<<<<<<<<<<<<<<<<<<<<<<<<<<<<",
"<<<<@+..++++++++..+@<<<<<<<<<<<<<<<<<<<<<<<<<<OOOOOOXX<<<<<<<<<<",
"<<<<@++..........++@<<<<<<<<<<<<<<<<<<<<<<<<<OooooooooX<<<<<<<<<",
"<<<<@@+++......+++@@<<<<<<<<<<<<<<<<<<<<<<<<OooooXXooooX<<<<<<<<",
"<<<<@@@@++++++++@@@@<<<<<<<<<<<<<<<<<<<<<<<<OoooX<<XXooX<<<<<<<<",
"XXXXXXooOOOOOOOOooXXXXXX<<<<<<<<<<<<<<<<<<<<OooX<<<< Xoo<<<<<<<<",
"XXoooOOOOOOOOOOOOOOoooXX<<<<<<<<<<<<<<<<<<<<OoX<<<<<< Xo<<<<<<<<",
"XoooooOOOOOOOOOOOOoooooX<<<<<<<<<<<<<<<<<<<<XoX<<<<<< Xo<<<<<<<<",
"XXXXooooooooooooooooXXXX<<<<<<<<<<<<<<<<<<<<XoX<<<<<< oX<<<<<<<<",
".+######%&&&&&&%######+.<<<<<<<<<<<<<<<<<<<< oX<<<<<< o <<<<<<<<",
"+@##%%&&&&&&&&&&&&%%##@+<<<<<<<<<<<<<<<<<<<< XX<<<<<< X <<<<<<<<",
"+@#%&&&&&======&&&&&%#@+<<<<<<<<<<<<<<<<<<<< oX<<<<<< X <<<<<<<<",
"+@%&&&&===;;;;===&&&&%@+<<<<<<<<<<<<<<<<<<<< ooX<<<< Xo <<<<<<<<",
"+@&&&===;;;;;;;;===&&&@+<<<<<<<<<<<<<<<<<<<< XooX<<XooX <<<<<<<<",
"+@&===;;;;::::;;;;===&@+<<<<<<<<<<<<<<<<<<<< oXooXXooXX <<<<<<<<",
"+@==;;;;::>>>>::;;;;==@+<<<<<<<<<<<<<<<<<<<<< XXooooXX <<<<<<<<<",
"+@=;;;;:>>>>>>>>:;;;;=@+<<<<<<<<<<<<<<<<<<<<<<  XX    <<<<<<<<<<",
"+@;;;;:>>>,,,,>>>:;;;;@+<<<<<<<<<<<<<<<<<<<<<<<<<<<<<<<<<<<<<<<<",
"+@;;;;:>>,,,,,,>>:;;;;@+<<<<<<<<<<<<<<<<<<<<<<<<<<<<<<<<<<<<<<<<",
"+@;;;:>>,,,,,,,,>>:;;;@+<<<<<<<<<<<<<<<<<<<<<<<<<<<<<<<<<<<<<<<<",
"+@;;;:>>,,,,,,,,>>:;;;@+<<<<<<<<<<<<<<<<<<<<<<<<<<<<<<<<<<<<<<<<",
"+@;;;:>>,,,,,,,,>>:;;;@+<<<<<<<<<<<<<<<<<<<< oX<<<<<< o <<<<<<<<",
"+@;;;:>>,,,,,,,,>>:;;;@+<<<<<<<<<<<<<<<<<<<< XX<<<<<< X <<<<<<<<",
"+@;;;;:>>,,,,,,>>:;;;;@+<<<<<<<<<<<<<<<<<<<< oX<<<<<< X <<<<<<<<",
"+@=;;;:>>>,,,,>>>:;;;=@+<<<<<<<<<<<<<<<<<<<< ooX<<<< Xo <<<<<<<<",
"+@&;;;;:>>>>>>>>:;;;;&@+<<<<<<<<<<<<<<<<<<<< XooX<<XooX <<<<<<<<",
"+@&=;;;;::>>>>::;;;;=&@+<<<<<<<<<<<<<<<<<<<< oXooXXooXX <<<<<<<<",
"+@&&==;;;;::::;;;;==&&@+<<<<<<<<<<<<<<<<<<<<< XXooooXX <<<<<<<<<",
".+&&&&&&=;;;;;;=&&&&&&+.<<<<<<<<<<<<<<<<<<<<<<  XX    <<<<<<<<<<",
"XXXoooOOOoooooooOOoooXXX<<<<<<<<<<<<<<<<<<<<<<<<<<<<<<<<<<<<<<<<",
"XooOOOOOOOOOOOOOOOOOOooX<<<<<<<<<<<<<<<<<<<<<<<<<<<<<<<<<<<<<<<<",
"XXooooOOOOOOOOOOOOooooXX<<<<<<<<<<<<<<<<<<<<<<<<<<<<<<<<<<<<<<<<",
"XXXXXooooOOOOOOooooXXXXX<<<<<<<<<<<<<<<<<<<<<<<<<<<<<<<<<<<<<<<<",
"XXXXXXXXooooooooXXXXXXXX<<<<<<<<<<<<<<<<<<<<<<<<<<<<<<<<<<<<<<<<",
"XXXooooooooooooooooooXXX<<<<<<<<<<<<<<<<<<<<<<<<<<<<<<<<<<<<<<<<",
"XXooooooooooooooooooooXX<<<<<<<<<<<<<<<<<<<<<<<<<<<<<<<<<<<<<<<<",
"XooooooooooooooooooooooX<<<<<<<<<<<<<<<<<<<<<<<<<<<<<<<<<<<<<<<<",
"XoooooooOOOOOOOOoooooooX<<<<<<<<<<<<<<<<<<<<<<OOOOOOXX<<<<<<<<<<",
"XoooooOOOOOOOOOOOOoooooX<<<<<<<<<<<<<<<<<<<<<OooooooooX<<<<<<<<<",
"XooooOOOOOOOOOOOOOOooooX<<<<<<<<<<<<<<<<<<<<OooooXXooooX<<<<<<<<",
"XooooOOOOOOOOOOOOOOooooX<<<<<<<<<<<<<<<<<<<<OoooX<<XXooX<<<<<<<<",
"ooooOOOOOOOOOOOOOOOOoooo<<<<<<<<<<<<<<<<<<<<OooX<<<< Xoo<<<<<<<<",
"ooooOOOOOOOOOOOOOOOOoooo<<<<<<<<<<<<<<<<<<<<OoX<<<<<< Xo<<<<<<<<",
"ooooOOOOOOOOOOOOOOOOoooo<<<<<<<<<<<<<<<<<<<<XoX<<<<<< Xo<<<<<<<<",
"ooooOOOOOOOOOOOOOOOOoooo<<<<<<<<<<<<<<<<<<<<XoX<<<<<< oX<<<<<<<<",
"ooooOOOOOOOOOOOOOOOOoooo<<<<<<<<<<<<<<<<<<<<<<<<<<<<<<<<<<<<<<<<",
"ooooOOOOOOOOOOOOOOOOoooo<<<<<<<<<<<<<<<<<<<<<<<<<<<<<<<<<<<<<<<<",
"ooooOOOOOOOOOOOOOOOOoooo<<<<<<<<<<<<<<<<<<<<<<<<<<<<<<<<<<<<<<<<",
"ooooOOOOOOOOOOOOOOOOoooo<<<<<<<<<<<<<<<<<<<<<<<<<<<<<<<<<<<<<<<<",
"XooooOOOOOOOOOOOOOOooooX<<<<<<<<<<<<<<<<<<<<<<<<<<<<<<<<<<<<<<<<",
"XooooOOOOOOOOOOOOOOooooX<<<<<<<<<<<<<<<<<<<<<<<<<<<<<<<<<<<<<<<<",
"XoooooOOOOOOOOOOOOoooooX<<<<<<<<<<<<<<<<<<<<<<<<<<<<<<<<<<<<<<<<",
"XoooooooOOOOOOOOoooooooX<<<<<<<<<<<<<<<<<<<<<<<<<<<<<<<<<<<<<<<<",
"XooooooooooooooooooooooX<<<<<<<<<<<<<<<<<<<<<<<<<<<<<<<<<<<<<<<<",
"XXooooooooooooooooooooXX<<<<<<<<<<<<<<<<<<<<<<<<<<<<<<<<<<<<<<<<",
"XXXooooooooooooooooooXXX<<<<<<<<<<<<<<<<<<<<<<<<<<<<<<<<<<<<<<<<",
"XXXXXXXXooooooooXXXXXXXX<<<<<<<<<<<<<<<<<<<<<<<<<<<<<<<<<<<<<<<<",
"<<<<<<<<<<<<<<<<<<<<<<<<<<<<<<<<<<<<<<<<<<<<<<<<<<<<<<<<<<<<<<<<",
"<<<<<<<<<<<<<<<<<<<<<<<<<<<<<<<<<<<<<<<<<<<<<<<<<<<<<<<<<<<<<<<<",
"<<<<<<<<<<<<<<<<<<<<<<<<<<<<<<<<<<<<<<<<<<<<<<<<<<<<<<<<<<<<<<<<",
"<<<<<<<<<<<<<<<<<<<<<<<<<<<<<<<<<<<<<<<<<<<<<<<<<<<<<<<<<<<<<<<<",
"<<<<XXXXXoOOOOoXXXXX<<<<<<<<<<<<<<<<<<<<<<<<<<<<<<<<<<<<<<<<<<<<",
"<<<<XoooOOOOOOOOoooX<<<<<<<<<<<<<<<<<<<<<<<<<<<<<<<<<<<<<<<<<<<<",
"<<<<XXoooOOooOOoooXX<<<<<<<<<<<<<<<<<<<<<<<<<<<<<<<<<<<<<<<<<<<<",
"<<<<XXXXooooooooXXXX<<<<<<<<<<<<<<<<<<<<<<<<<<<<<<<<<<<<<<<<<<<<",
"<<<<@+..++++++++..+@<<<<<<<<<<<<<<<<<<<<<<<<<<OOOOOOXX<<<<<<<<<<",
"<<<<@++..........++@<<<<<<<<<<<<<<<<<<<<<<<<<OooooooooX<<<<<<<<<",
"<<<<@@+++......+++@@<<<<<<<<<<<<<<<<<<<<<<<<OooooXXooooX<<<<<<<<",
"<<<<@@@@++++++++@@@@<<<<<<<<<<<<<<<<<<<<<<<<OoooX<<XXooX<<<<<<<<",
"XXXXXXooOOOOOOOOooXXXXXX<<<<<<<<<<<<<<<<<<<<OooX<<<< Xoo<<<<<<<<",
"XXoooOOOOOOOOOOOOOOoooXX<<<<<<<<<<<<<<<<<<<<OoX<<<<<< Xo<<<<<<<<",
"XoooooOOOOOOOOOOOOoooooX<<<<<<<<<<<<<<<<<<<<XoX<<<<<< Xo<<<<<<<<",
"XXXXooooooooooooooooXXXX<<<<<<<<<<<<<<<<<<<<XoX<<<<<< oX<<<<<<<<",
".+######%&&&&&&%######+.<<<<<<<<<<<<<<<<<<<< oX<<<<<< o <<<<<<<<",
"+@##%%&&&&&&&&&&&&%%##@+<<<<<<<<<<<<<<<<<<<< XX<<<<<< X <<<<<<<<",
"+@#%&&&&&======&&&&&%#@+<<<<<<<<<<<<<<<<<<<< oX<<<<<< X <<<<<<<<",
"+@%&&&&===----===&&&&%@+<<<<<<<<<<<<<<<<<<<< ooX<<<< Xo <<<<<<<<",
"+@&&&===--------===&&&@+<<<<<<<<<<<<<<<<<<<< XooX<<XooX <<<<<<<<",
"+@&===----::::----===&@+<<<<<<<<<<<<<<<<<<<< oXooXXooXX <<<<<<<<",
"+@==----::>>>>::----==@+<<<<<<<<<<<<<<<<<<<<< XXooooXX <<<<<<<<<",
"+@=----:>>>>>>>>:----=@+<<<<<<<<<<<<<<<<<<<<<<  XX    <<<<<<<<<<",
"+@----:>>>,,,,>>>:----@+<<<<<<<<<<<<<<<<<<<<<<<<<<<<<<<<<<<<<<<<",
"+@----:>>,,,,,,>>:----@+<<<<<<<<<<<<<<<<<<<<<<<<<<<<<<<<<<<<<<<<",
"+@---:>>,,,,,,,,>>:---@+<<<<<<<<<<<<<<<<<<<<<<<<<<<<<<<<<<<<<<<<",
"+@---:>>,,,,,,,,>>:---@+<<<<<<<<<<<<<<<<<<<<<<<<<<<<<<<<<<<<<<<<",
"+@---:>>,,,,,,,,>>:---@+<<<<<<<<<<<<<<<<<<<< oX<<<<<< o <<<<<<<<",
"+@---:>>,,,,,,,,>>:---@+<<<<<<<<<<<<<<<<<<<< XX<<<<<< X <<<<<<<<",
"+@----:>>,,,,,,>>:----@+<<<<<<<<<<<<<<<<<<<< oX<<<<<< X <<<<<<<<",
"+@=---:>>>,,,,>>>:---=@+<<<<<<<<<<<<<<<<<<<< ooX<<<< Xo <<<<<<<<",
"+@&----:>>>>>>>>:----&@+<<<<<<<<<<<<<<<<<<<< XooX<<XooX <<<<<<<<",
"+@&=----::>>>>::----=&@+<<<<<<<<<<<<<<<<<<<< oXooXXooXX <<<<<<<<",
"+@&&==----::::----==&&@+<<<<<<<<<<<<<<<<<<<<< XXooooXX <<<<<<<<<",
".+&&&&&&=------=&&&&&&+.<<<<<<<<<<<<<<<<<<<<<<  XX    <<<<<<<<<<",
"XXXoooOOOoooooooOOoooXXX<<<<<<<<<<<<<<<<<<<<<<<<<<<<<<<<<<<<<<<<",
"XooOOOOOOOOOOOOOOOOOOooX<<<<<<<<<<<<<<<<<<<<<<<<<<<<<<<<<<<<<<<<",
"XXooooOOOOOOOOOOOOooooXX<<<<<<<<<<<<<<<<<<<<<<<<<<<<<<<<<<<<<<<<",
"XXXXXooooOOOOOOooooXXXXX<<<<<<<<<<<<<<<<<<<<<<<<<<<<<<<<<<<<<<<<",
"XXXXXXXXooooooooXXXXXXXX<<<<<<<<<<<<<<<<<<<<<<<<<<<<<<<<<<<<<<<<",
"XXXooooooooooooooooooXXX<<<<<<<<<<<<<<<<<<<<<<<<<<<<<<<<<<<<<<<<",
"XXooooooooooooooooooooXX<<<<<<<<<<<<<<<<<<<<<<<<<<<<<<<<<<<<<<<<",
"XooooooooooooooooooooooX<<<<<<<<<<<<<<<<<<<<<<<<<<<<<<<<<<<<<<<<",
"XoooooooOOOOOOOOoooooooX<<<<<<<<<<<<<<<<<<<<<<OOOOOOXX<<<<<<<<<<",
"XoooooOOOOOOOOOOOOoooooX<<<<<<<<<<<<<<<<<<<<<OooooooooX<<<<<<<<<",
"XooooOOOOOOOOOOOOOOooooX<<<<<<<<<<<<<<<<<<<<OooooXXooooX<<<<<<<<",
"XooooOOOOOOOOOOOOOOooooX<<<<<<<<<<<<<<<<<<<<OoooX<<XXooX<<<<<<<<",
"ooooOOOOOOOOOOOOOOOOoooo<<<<<<<<<<<<<<<<<<<<OooX<<<< Xoo<<<<<<<<",
"ooooOOOOOOOOOOOOOOOOoooo<<<<<<<<<<<<<<<<<<<<OoX<<<<<< Xo<<<<<<<<",
"ooooOOOOOOOOOOOOOOOOoooo<<<<<<<<<<<<<<<<<<<<XoX<<<<<< Xo<<<<<<<<",
"ooooOOOOOOOOOOOOOOOOoooo<<<<<<<<<<<<<<<<<<<<XoX<<<<<< oX<<<<<<<<",
"ooooOOOOOOOOOOOOOOOOoooo<<<<<<<<<<<<<<<<<<<<<<<<<<<<<<<<<<<<<<<<",
"ooooOOOOOOOOOOOOOOOOoooo<<<<<<<<<<<<<<<<<<<<<<<<<<<<<<<<<<<<<<<<",
"ooooOOOOOOOOOOOOOOOOoooo<<<<<<<<<<<<<<<<<<<<<<<<<<<<<<<<<<<<<<<<",
"ooooOOOOOOOOOOOOOOOOoooo<<<<<<<<<<<<<<<<<<<<<<<<<<<<<<<<<<<<<<<<",
"XooooOOOOOOOOOOOOOOooooX<<<<<<<<<<<<<<<<<<<<<<<<<<<<<<<<<<<<<<<<",
"XooooOOOOOOOOOOOOOOooooX<<<<<<<<<<<<<<<<<<<<<<<<<<<<<<<<<<<<<<<<",
"XoooooOOOOOOOOOOOOoooooX<<<<<<<<<<<<<<<<<<<<<<<<<<<<<<<<<<<<<<<<",
"XoooooooOOOOOOOOoooooooX<<<<<<<<<<<<<<<<<<<<<<<<<<<<<<<<<<<<<<<<",
"XooooooooooooooooooooooX<<<<<<<<<<<<<<<<<<<<<<<<<<<<<<<<<<<<<<<<",
"XXooooooooooooooooooooXX<<<<<<<<<<<<<<<<<<<<<<<<<<<<<<<<<<<<<<<<",
"XXXooooooooooooooooooXXX<<<<<<<<<<<<<<<<<<<<<<<<<<<<<<<<<<<<<<<<",
"XXXXXXXXooooooooXXXXXXXX<<<<<<<<<<<<<<<<<<<<<<<<<<<<<<<<<<<<<<<<",
"<<<<<<<<<<<<<<<<<<<<<<<<<<<<<<<<<<<<<<<<<<<<<<<<<<<<<<<<<<<<<<<<",
"<<<<<<<<<<<<<<<<<<<<<<<<<<<<<<<<<<<<<<<<<<<<<<<<<<<<<<<<<<<<<<<<",
"<<<<<<<<<<<<<<<<<<<<<<<<<<<<<<<<<<<<<<<<<<<<<<<<<<<<<<<<<<<<<<<<",
"<<<<<<<<<<<<<<<<<<<<<<<<<<<<<<<<<<<<<<<<<<<<<<<<<<<<<<<<<<<<<<<<"
};
