/* XPM */
static char *lapis_block[] = {
/* columns rows colors chars-per-pixel */
"64 64 13 1 ",
"  c #2659AB",
". c #20509C",
"X c #31618B",
"o c #376792",
"O c #1D4A95",
"+ c #204A8A",
"@ c #1E4285",
"# c #1C3890",
"$ c #193584",
"% c #2B568D",
"& c #1B3588",
"* c #1E407C",
"= c #143271",
/* pixels */
"       .                ...  XXoX  .........OOOO.O..OO.........O",
" .+++..........+++........++++@@++@@@@#####@@@@++++@@@@@####$##$",
"....+++.......%..+++...+@+++@@@##+++@@@#&#@###@@+++++++@@@###$$$",
" ++...++++++%%.....++++++@@###@@##@@+@@@#&#@@###@@++@@+++@@@@#$$",
" .+++..+..%%%..%....+++..+@@@####@+@@+#@##&#@@#@@@@@@#@+++++@@#$",
".+..++...%X%X%%.+.+..+.....@@@##@@+.+@##@#&&##@@@#@++@##@@+@+@@$",
"..+..++..%%XXX%..++++....+..@@@@##@@.+@####&#@###&#@+++##@@@++@$",
"..++++..%.XX%%.%..++.+++..++.+@@@##@..+@###&&###&#@@@++++##@@+@$",
" +@++.%%XXX%X%%.++..@@@+@...++++@@@#@.+@@@##&&#&&##@@@+@@@##@@*#",
" @@@@+.X%%%X%%....+@@@@@+@@..+@++@@@+..+@@@##&#&###@@@@+##@@@+*#",
" +@@@@+..%%%.%%....++@#@@+@@@.+@@@+.++..+@#@#&&&#@##@++@@##@+@*#",
" ++@.+@+..%%%...++..++@##@@@++@+@+.+.++..+@##&&&&#@@@@++@@@#@@*#",
" .+@+..++..%+++..+++..+@##@#@@+++.%%....+.@@@#&&&##@@@@@+@+@@@*#",
" ..@@+....%...++..++++@@@##@#@@@++.%%%...++@#@#&&###@@+@@@+@@+*#",
" .+.@@++++..+...++..+@+@@@@##&##@@++..%...++@###&&###@++@+@@++*#",
" +@++@@++..++++..++..+++@@#@@#&&#@@++..++.+++@@##&###@@+@@@@+@*#",
" .+@@++@@++...+++.++++@@+@@@#@#&&&#@@++.++..++@@##&###@@++@++@*#",
" .++@@++@@++....++++@@++@++@@####&&#@@@+.+%..++@@##&###@@+++@+*#",
" ....+@++@@+++...+@++++++@++@@####@&#@+....%%..+@@##&##@@@+++@*#",
" .+.%%%.++@@++++..+@@++@@@@++@@#&##@@#@+..%%..++@@##&&#@@+@++@*#",
" ..+.%%%%.++@@+++..+@@++@@@@++@@#&&#@@@@@+..%%%.+@@##&##@+++@@*#",
" ..%..%%%%.++@@++++.+@++++@@@+++@#&###@@@@+...%%.+@##&##@@++@@##",
" .+.%%%.....+++@@++++++@@++++@@+++######@@#@@+..+.@@###@@+@@@###",
" .++...%.@@+.+++@@@++..++@@@++@##@+#&###&#@#@@+..+@#@###@@@#@##$",
" .++....++@@@+++++@@@+..+++@@@+@@##@#&&##&&###@+..+@##@@@######$",
" .@++.+..++@#@+@@@@++@++.@+++@@@@@####&&##&&#@@@+.+++##@@@#####$",
" ++@@+.++@++@##@@+@@++@+++@@@+.+@@@@@##&&###&##@+.+@++&##@@##&#$",
" @++@@++++@++@##@@++@@+++++@..%.++@@@@###&##&&#@@+.+@@+&&##@#&#$",
" @@++@@@++@@@@@@#@@++@@++++++..%%.++@+@#&#####&#@@++@@#@&&##&&##",
" #@@@+@#@++@#@@@@#@@@+@@++@@+++..%%%+@@##&##&####@@++@@##&##&##$",
" @##@@+##@++@##@@##@@@++@++@@@++%%%..+@##&&&#&&###@@+@@@##&&####",
" @@##@++@#@+@@##@@##@@@+@@@+@@@@+...+.@@###&&#&&###@@+@+@@#&&###",
"o+@@@++@#@@@+@@##@@###@@+@@#@++@++++@++@@####&&&&#@#@@@++@@#&###",
"o++#+@@@###@++@@@++@####@+@@#@+++++@@@@++@#&##&&&##@@+@@++@@&&##",
"o@+@##@@@#&#@@++@@++@#@@#++@##@++++++@@@++@@&###&&###@+++@+@#&##",
"o@@+@##@@@#&&#@++@@@++#@##++@#@@++@@++#@@++@@&&#&&###@@+++@@#&$#",
"o@@++@@#@@@@#&&#@++++++@@#@@+#@@@++@#@+###@++@&&&&&###@@@+@@@#$$",
"o@@++@@@@##@@#&&##+.++@+@@#@@@#@@@+@##@@&##@@+@&&&&&####@++@@##$",
"o@@@+@@#@@###@@#&@@+..+++@@@+@##@@@+@###@&&###@@##&&&#@##@++@@#$",
"o@@@++@@##@@#&#@##@@+...++++@+@##@@@+@####&&&###&##&&##@##@+@@#$",
" @#@@+@@@##@@#&####@@++...++++@@###@@++@@@###&&&##&&&&#@@@#@+@#$",
" @@#@@+#@@###@&&####@@++....+++@&###@@+++@@#@##&&###&&##@@@++@@$",
" +@@##@+###@####&&###@@@@+++.@++#&&##@@@@++@#@@######&&#@#@@++@$",
" +@@@##@+#@@@@#@@&&&###@@@@+++@@@#&&##@@++++@@#@@###&&&##@@@@+@$",
".++@@@@#@@#@+@@#@@&&&######@@++@@@#&&&##@@+++@@@@@@@##&&##@#@@@$",
" +++@++@#@@@@++@###&&&&##&##@@++@@@##&&##@@+++@@###@@##&##@@#@#$",
" ++++@@++##@@@++@####&&&##&###@@#&@@##&&##+.+++++@###@##&##@##@$",
" +@+++@@++##@@@+++@#&#&&&&&&###@@#&&#####&@+.+++@+@@#####&#@@##$",
" ++@@++@@@+@#&#@@++@@&&&&&##&&###@##&&#&&##@...++@@@@@######@##$",
" +++@#@++@@@@#&#@@++@@@#&####&&######&&&###@++...++@@+@@####@@#$",
" ++++@##@++@@@&&##@@+@#&&&&#######&&&#######@@+.+.++@@+@@@###@#=",
" +++++++##+++@#&&@@#@@@#&&&&##&&#&&###&######@@+++@@+@@+#@@####=",
" ++@++@++##@@+@@#&&@#@@@#&##&&##&&#####&######@@+++@@++@##@####$",
" +++@@@@++@#++++@#&&###@@#####&##&&@###&&#&####@@@++@@++@##@###$",
" @+++@@+#@@@@@+++@##&####&&####&&&##@###&##&&#####@++@@@+@#####$",
".@@+++@@@###@@@@++###&&###&&&###&&&#@@##&&##&&###@##@+@@+@@####$",
"O#@@++++@@@###@@@@+###&&####&&&&###@@#####&&#&&###@##@@++@@@+@&&",
"O@#@@++++++@@##@@@@@####&&&&###&&#@@#&&&###&&#####@@@@++++@@+@&&",
"O@###@@@++++@@@##@@@@#&###&&&###@@#####&&####&&####@@+@@++++@@&=",
"O###@@#@@@++++@@+##@@@@&&&##@&####@@####&&####&&###@@@@@+++@@#&=",
"O##@@#@@#@@@++++@@##@@@@#&&##@@@###@@@####&#####&&##@@+++@@@@#&=",
"O#@##&&&###@@+@@@@@@###@@@####@@@@@@@@@#@@#&&####&&##@@+@@@###&=",
".######&&##########&&&&#####@@@@@#####@@####&&&&&&&&&&&&&&&&&&&=",
".#$$$$$$$$$$$$$$$$$$$$$$$$$$####$$$$====&&&&&&&&================"
};
