/* XPM */
static char *light_blue_wool[] = {
/* columns rows colors chars-per-pixel */
"64 64 7 1 ",
"  c #2F9DCF",
". c #2892CB",
"X c #3FB5DA",
"o c #47BEE1",
"O c #43B9DD",
"+ c #38ABD5",
"@ c #4EC5E7",
/* pixels */
" .XX .XX. oo .OO +oO .Xo  Oo+.X+ .XX .XX. oo .OO +oO .Xo  Oo+.X+",
"+X. OX. Oo+ X+. oo+.+ ..XO  X+. +X. OX. Oo+ X+. oo+.+ ..XO  X+. ",
". OoX+o@ +oo. oO..XO .XO .++. XX. OoX+o@ +oo. oO..XO .XO .++. XX",
"oO +o@XOoo+ oO  X+..XO  oX. OX+ oO +o@XOoo+ oO  X+..XO  oX. OX+ ",
"  oo+ OoXXoO+ OX  oO +oO++o@ .OO  oo+ OoXXoO+ OX  oO +oO++o@ .OO",
"Oo+ XO .@@X+oO+ OX+Xoo X@oOXoO +Oo+ XO .@@X+oO+ OX+Xoo X@oOXoO +",
"++OX +oo+.OX +oX .Oo+XoO+ @O++oO++OX +oo+.OX +oX .Oo+XoO+ @O++oO",
"OX. OoX+OO..Xo+.+O  Oo+ OX. @o+ OX. OoX+OO..Xo+.+O  Oo+ OX. @o+ ",
"  OO..O@++oO .X+. Oo+ XO++oO  X+  OO..O@++oO .X+. Oo+ XO++oO  X+",
"oO .+O +@o+.+O..OX +O+..XoX X+. oO .+O +@o+.+O..OX +O+..XoX X+. ",
" .X+. oo .XO .XO  XO .Xo..OO..XO .X+. oo .XO .XO  XO .Xo..OO..XO",
"X+. XOX X+.+XX .O@+.OX+ OX. +X.+X+. XOX X+.+XX .O@+.OX+ OX. +X.+",
" .oo +OX .XO. XO+Xo@+ OX+ @O +oO .oo +OX .XO. XO+Xo@+ OX+ @O +oO",
"O@OX@o+ XO  oO +ooXXoO +O@OXoo+XO@OX@o+ XO  oO +ooXXoO +O@OXoo+X",
"X+oOXXo@  OX++o@  oO  ooX+oo+XooX+oOXXo@  OX++o@  oO  ooX+oo+Xoo",
"OO+ @oX+OX +oo+ X+. OoX+OO+ Oo+ OO+ @oX+OX +oo+ X+. OoX+OO+ Oo+ ",
"+.oo .oO+ oO+ O+. XO +OX+ oO  XO+.oo .oO+ oO+ O+. XO +OX+ oO  XO",
"Oo+.+X  oO .XX+.XO .OX.+oO .X+ .Oo+.+X  oO .XX+.XO .OX.+oO .X+ .",
"  O+. Oo .+X+ Oo +oO+ @o  o@ .@O  O+. Oo .+X+ Oo +oO+ @o  o@ .@O",
"XO+ Xo+ +X. O@+ XO Xo@O+Oo+X@o+ XO+ Xo+ +X. O@+ XO Xo@O+Oo+X@o+ ",
". oo +oO. oo +oX Xoo+XoX++Oo++oO. oo +oO. oo +oX Xoo+XoX++Oo++oO",
"oO+ OoX+o@X+o@ +oO++OO  OX  OX. oO+ OoX+o@X+o@ +oO++OO  OX  OX. ",
"  X+ Xoo+ OX+X@O .XO  Oo .X+. XO  X+ Xoo+ OX+X@O .XO  Oo .X+. XO",
"+X. Oo+ OX. @o .X+ .OO+ oX .XO .+X. Oo+ OX. @o .X+ .OO+ oX .XO .",
". XO .XX  @o .XO. OX. oO++@O+ X+. XO .XX  @o .XO. OX. oO++@O+ X+",
"XO .X+. o@+ X+ +Xo++OX XO@OXoX .XO .X+. o@+ X+ +Xo++OX XO@OXoX .",
"  OX  oo+XoX .XO .O@ +Oo+ oOX @O  OX  oo+XoX .XO .O@ +Oo+ oOX @O",
"oO++o@X+@o+ XO .+X Xo@X OO. Oo++oO++o@X+@o+ XO .+X Xo@X OO. Oo++",
"++o@+ @oXXoO XOX +oo +oO+ oO +oX++o@+ @oXXoO XOX +oo +oO+ oO +oX",
"O@X oO++oo +oo +@@X+XX  Oo+ XX.+O@X oO++oo +oo +@@X+XX  Oo+ XX.+",
"..OO++@o  Oo+X@@  oO  oo..XX+ oo..OO++@o  Oo+X@@  oO  oo..XX+ oo",
"O+. oo+.+X +ooX+OX  OoX X+. oo+ O+. oo+.+X +ooX+OX  OoX X+. oo+ ",
" .XX .XX. oo .OO +oO .Xo  Oo+.X+ .XX .XX. oo .OO +oO .Xo  Oo+.X+",
"+X. OX. Oo+ X+. oo+.+ ..XO  X+. +X. OX. Oo+ X+. oo+.+ ..XO  X+. ",
". OoX+o@ +oo. oO..XO .XO .++. XX. OoX+o@ +oo. oO..XO .XO .++. XX",
"oO +o@XOoo+ oO  X+..XO  oX. OX+ oO +o@XOoo+ oO  X+..XO  oX. OX+ ",
"  oo+ OoXXoO+ OX  oO +oO++o@ .OO  oo+ OoXXoO+ OX  oO +oO++o@ .OO",
"Oo+ XO .@@X+oO+ OX+Xoo X@oOXoO +Oo+ XO .@@X+oO+ OX+Xoo X@oOXoO +",
"++OX +oo+.OX +oX .Oo+XoO+ @O++oO++OX +oo+.OX +oX .Oo+XoO+ @O++oO",
"OX. OoX+OO..Xo+.+O  Oo+ OX. @o+ OX. OoX+OO..Xo+.+O  Oo+ OX. @o+ ",
"  OO..O@++oO .X+. Oo+ XO++oO  X+  OO..O@++oO .X+. Oo+ XO++oO  X+",
"oO .+O +@o+.+O..OX +O+..XoX X+. oO .+O +@o+.+O..OX +O+..XoX X+. ",
" .X+. oo .XO .XO  XO .Xo..OO..XO .X+. oo .XO .XO  XO .Xo..OO..XO",
"X+. XOX X+.+XX .O@+.OX+ OX. +X.+X+. XOX X+.+XX .O@+.OX+ OX. +X.+",
" .oo +OX .XO. XO+Xo@+ OX+ @O +oO .oo +OX .XO. XO+Xo@+ OX+ @O +oO",
"O@OX@o+ XO  oO +ooXXoO +O@OXoo+XO@OX@o+ XO  oO +ooXXoO +O@OXoo+X",
"X+oOXXo@  OX++o@  oO  ooX+oo+XooX+oOXXo@  OX++o@  oO  ooX+oo+Xoo",
"OO+ @oX+OX +oo+ X+. OoX+OO+ Oo+ OO+ @oX+OX +oo+ X+. OoX+OO+ Oo+ ",
"+.oo .oO+ oO+ O+. XO +OX+ oO  XO+.oo .oO+ oO+ O+. XO +OX+ oO  XO",
"Oo+.+X  oO .XX+.XO .OX.+oO .X+ .Oo+.+X  oO .XX+.XO .OX.+oO .X+ .",
"  O+. Oo .+X+ Oo +oO+ @o  o@ .@O  O+. Oo .+X+ Oo +oO+ @o  o@ .@O",
"XO+ Xo+ +X. O@+ XO Xo@O+Oo+X@o+ XO+ Xo+ +X. O@+ XO Xo@O+Oo+X@o+ ",
". oo +oO. oo +oX Xoo+XoX++Oo++oO. oo +oO. oo +oX Xoo+XoX++Oo++oO",
"oO+ OoX+o@X+o@ +oO++OO  OX  OX. oO+ OoX+o@X+o@ +oO++OO  OX  OX. ",
"  X+ Xoo+ OX+X@O .XO  Oo .X+. XO  X+ Xoo+ OX+X@O .XO  Oo .X+. XO",
"+X. Oo+ OX. @o .X+ .OO+ oX .XO .+X. Oo+ OX. @o .X+ .OO+ oX .XO .",
". XO .XX  @o .XO. OX. oO++@O+ X+. XO .XX  @o .XO. OX. oO++@O+ X+",
"XO .X+. o@+ X+ +Xo++OX XO@OXoX .XO .X+. o@+ X+ +Xo++OX XO@OXoX .",
"  OX  oo+XoX .XO .O@ +Oo+ oOX @O  OX  oo+XoX .XO .O@ +Oo+ oOX @O",
"oO++o@X+@o+ XO .+X Xo@X OO. Oo++oO++o@X+@o+ XO .+X Xo@X OO. Oo++",
"++o@+ @oXXoO XOX +oo +oO+ oO +oX++o@+ @oXXoO XOX +oo +oO+ oO +oX",
"O@X oO++oo +oo +@@X+XX  Oo+ XX.+O@X oO++oo +oo +@@X+XX  Oo+ XX.+",
"..OO++@o  Oo+X@@  oO  oo..XX+ oo..OO++@o  Oo+X@@  oO  oo..XX+ oo",
"O+. oo+.+X +ooX+OX  OoX X+. oo+ O+. oo+.+X +ooX+OX  OoX X+. oo+ "
};
