/* XPM */
static char *lime_concrete[] = {
/* columns rows colors chars-per-pixel */
"64 64 8 1 ",
"  c #5FAB18",
". c #60AB18",
"X c #60AB19",
"o c #60AC19",
"O c #61AB19",
"+ c #61AC19",
"@ c #62AC19",
"# c #62AD19",
/* pixels */
"#++#OOO+XXXOX+X++++X+++++..@++##+++++++#+++++++++++++X+XXOOOX+X#",
"++###OX++#OOO+X#XXX#++++..@#@+##+++++#X+++++++X+#+O+X+OOOXXX++XX",
"XX+O+X+X+X+OX+#XX++++X++#++##@XX+++X#+X@++++++X+X++O++X#OX++OXXX",
"+X++O+++@+X@XX#+#+++++X+##+++#X+#+X+X++@X@++++X+#++X++#@#oo+XX++",
"+X++++OXo#O#XX#X#X+X+X++X++#@+XXXXXX+X++@X+++++X+#XXX+++o++XX+X+",
"+X++++X+@@XX+++X#+++X+++++#@#+XX+X++++++++X+XX++X+++++X@o#oXX+X+",
"+++++++X+#X+oXX+X+++X+++++#X++#XX+++#X++X+XXXXX#+#++X+X+XoXoX+++",
"#+#X+++@X@+XX#+++++++++++X#+#X++++++++++X+++XX#+++#XX@++++XXX+++",
"++++++X++++XX##++@+++++++X#++#+X+X#++#++@X@@XX+#++++XXX+X#+#+X#+",
"++++++++X++++#+X@@++++++++##+X+++#X++++++X@#X##+#+X+++++X#+++#++",
"+++++++++++X++X@@+#+++++++++XX+XX@+@+++X@+X+X++X###++++X++XXX++#",
"+++XO##++++++++X#+++++#+#XX++X+X+X@#XX+++++###+X+X#X++++X+++X#@+",
"+++++++#O++++XXX+@+X#XXXXX++XX+++@+#+++++++#+#+X++OO#X++++++@X@+",
"+++OO+++XX++++X++++++X###+++X++++++@+++++++++#X+X#+O+XOX++X+X+++",
"+++++OXX++++++X+XX+X#X+++++++X+++X++++++++++X#+++X+#+X+++++++XX+",
"+++#X#+O+o++++XX+X#XX+#+@++@+XXX+++++++++X++###+X#O+#Xo++++XXXX+",
"++XX#++X+Xo+++X#X+++++++++@o@+o@+X+++++++X#+++++##+++o+++++#+X+X",
"+++X#++o++++++X+++X++#++@@++o@+X++++++XX++#+++++X#+#+oo+oo++++++",
"++####+X+++X++X+++X+++++++@+o+@++X+Xoo++XX#++X#+++X++++o+++#+++#",
"+#X#+#+++++++++++#++X+#+++++++++++Xo++++++++++#+###++++o++++X#++",
"##+###+++++#X+X+++++X+O+O++X+++O+X+X+#+++++@++XXX+#++o#oX+#+XX+X",
"#++#++#+++#++++++++#+++O+O+#++OXXX#X#X++#+@@+++X++++++###X#oX#@#",
"+#@#+++#+#@#+@+++++X+O+XXX+XOXXo++X+#+++++@+++X+X+++++#X###++XXX",
"++X#++XXX###+++++X+X+++X++#XXOX+XX+++X##+#@+++@X++++++X#X+++++@#",
"@+@+#+#+X+++@@+++X+X+X+X+++@XXXXX++X++#++++++++++XXX+X+X++X#++++",
"@@X++#+X+#++XXXXXXX#+++X+@@o@X+XX++X+X+XX++#+++X+XX++++##X++++++",
"@+X+X+++++@+++++XX#X++++XX++#o+X+++++####+X+X+ +++XX++++++++@o++",
"@@XXX+++++++++XXXX++++#++X++XXXXXXX+X+X+++++XX+++++X+X+++++#++++",
"+++++X+@#+++@++XXX#+#+++X+#+++X++++++XX#+++X+oX++++XX+++@++#o+++",
"+X+X++++@+++#+X#X##+++++#+#+++++#+##+XX++##+  + +X+X+X++++++@++X",
"+X++++@+X+##++++X++#X+++X++##+++#+#+#Xo+++#+# X+++XX++++X+X@#+++",
"XXXX++#+#+#++++####+XXX+#++###+++++++oX#++#XXXX++X+XX++++@+@@+X+",
"+X++X++X++#X++X+#++++##O++++#+++++##XXoX+#++++X+X+++XXX+++++@+++",
"XXX++X@@++++X++++X#+++O+++++#+#+@+X++oX++#+#oo+XX+++X+++++++++++",
"X+X++++#+++X++++X#X+##+O#+#o++@X#Xoo++XXX+X++++X++++XX++#X++++++",
"+X+++++++++X++X#XX#+++OOX+++#++@X+oo+XX+X+X+#X++++#+++++X+X++#++",
"@++++++++oo+++#X++++++X++++++oXXXXoX+o++@+#X+++++++#++##X++X+++#",
"++++++##o+Xo+X+++#X+++X+++o+++@+XXo+o+++X@+++++++#+##++#XX++++++",
"+++X++++++++++##+#+++++++++++o+++++ooo+++++#+X++++++++###+#++##+",
"X+++++X++++++++@+++X+#++++++++X+OOXo+++++#+#++++X++++++++#++++++",
"+@+X+++++++++++++++X+++#+++++++++++++++++@++++++++++++++++X++###",
"X++++++X+++++#++++@++X++++++++++O++O++++++++++++++++++++++++++o#",
"++XX++oX++#+#++@#+XX+XX++#X++OO+X+##oX++++++++++++++++++++++++##",
"XXooX+X+++++X###+++++++++++++++OX#+++oXX##+++X++++++++X+XX+X++++",
"#+@XoX+@++++X++++X++++++++XXXO+O+O##++oo+##+#X+X++X++X+X@+++++++",
"X##oXX+@+++X+++++++X++++++X++@O++#++#++#+++#X##+++XXX+@XXXX@@+o+",
"#XX+Xo@###++#++@+X+XX+X+X++X+++O#+##++X+#+#+#X#++XXXX+X++@++++XX",
"X++X#o#O#+XXX+#+XX+++X+++++X@X+++OO#+X++++++++#X+XXX+++++@++++XX",
"XX++++#OO++++#+@XX+@++++++++++#+X++#X+++++#+#+#+XXXX++++XXo+++++",
"XX#+++O##++++++@+@@++@+++++++#+XX+++O+++++++#++#+X++X+++oX+o++X+",
"X+#+##+#X+++X+o++++@++@+++++++#+XXX+XX++++++++#XX+XX+@+@oo+++XX+",
"##X#++##++XX+o+++++++@+#+++++++++XX++X+++++++++XX+X++++oo@XoX+++",
"+##X+X+###o#X+++++@+++++++#+++++++@XX+++++#+++#XXX+X++X+++Xo###+",
"++++XXX###XoX+++X+@@+X++++++++##@@@XXX++++++#++++X+++++++o#+#+++",
"++++X++#++#++++++XX+++++XX++#++++@+++X++X++++##XX+++X+X++o++o+++",
"++++++#++++++X++X+X+++++X++++X+++@##+@X+XXXX++++++X+++Xo+o+++++X",
"+#+++#+++X+++++#++XXX++X+++++++++@+++#X+++++++XX++++++++oo+##XX+",
"++++++++++#XX#++###+++++XX+X++X+++@+##+#+++X++++++++X++++##XX#XX",
"++++X+++++++XX#+#++X#+++++X+XX++++@@##++++++++++++X++++##+#+#+X+",
"+++++X++++++X++X+++X+++X++X#++++++#+++++++++++++X+#+####++#++X+X",
"+++++++XX++++XX++#X+X++X++++#..+++@+XX++++#++XX+++++++++X++#+#+#",
"+++XXX++++++++XXXXX+++++++##.@+++#+#+XX+###+X+X+X++++#++X+#+o+o+",
"++++XXX+#+#oXX+XX+X+++++++#.#.#++++#X+++##++X++++X+++X+###+###+#",
"++++X++++#+++++++XX+XX+++#@+###++++++++X+++++@@+@+++++++++#+OO#O"
};
