/* XPM */
static char *loom_front[] = {
/* columns rows colors chars-per-pixel */
"64 64 16 1 ",
"  c #CAA671",
". c #B5A49D",
"X c #C6A067",
"o c #A8958C",
"O c #B38C51",
"+ c #A48048",
"@ c #BC935A",
"# c #988176",
"$ c #524127",
"% c #695433",
"& c #846F64",
"* c #6F4237",
"= c #543229",
"- c #322718",
"; c #806337",
": c #AD864C",
/* pixels */
"  .X. .X.X. . .X.X.X.X.X.X. . .X.X.X.X.X.X.X. . . .X.X. . .X.X  ",
"XXoO.+.O.+.O.+.O.+.O.+.O.+.O.+.O.+.O.+.O.+.O.+.O.+.O.+.O.+.O.+XX",
"@Xo+.+o+.OoOoO.O.OoO.O.O.O.OoO.O.OoO.OoO.O.OoO.O.OoO.O.O.O.O.OX ",
"@Xo+oOo+.+o+o+.+oO.+.O.+.Oo+.Oo+.O.+o+.+o+.+o+o+.+.+o+.+.Oo+oOX ",
"@XoOoO.+o+.+o+o+o+o+.+o+.+.O.OoOoO.+.O.OoO.OoO.O.O.OoO.+.OoO.OX ",
"@XoOo+.Oo+.Oo+oO.+oOo+oOo+.+.+o+.+.Oo+.Oo+oOo+.O.Oo+.+.O.+oO.+  ",
"@XoOoO.OoO.O.OoO.OoO.Oo+o+.+.OoO.O.+o+.+o+o+oO.Oo+.O.OoO.OoO.O @",
"@Xo+.O.+oOo+.Oo+.Oo+.+o+oO.O.OoO.O.OoO.+oOo+.+.+o+.+.Oo+.O.+oO @",
"@XoO.OoOoOoO.+o+.+oO.OoO.O.+.+o+.+.+o+.+.+o+.+o+oO.Oo+o+oO.OoO @",
"@ oO.+.+o+.+.O.O.+.Oo+.+.+.O.+oOo+oOo+o+.+.+.+oOo+.O.+o+.+.O.+X@",
"@ o+o+.O.+.O.O.O.O.OoO.O.O.+o+.OoO.O.+o+.O.O.O.Oo+o+.Oo+.+.O.OX@",
"@ o+.O.+.O.+oO.+oO.+oO.+.O.+oO.+o+.+.Oo+.O.+.+.+oOo+.+.+.O.+.OX@",
"@XoO.O.O.O.Oo+.+oOoOoO.O.O.OoO.OoO.+.O.O.O.Oo+.+.+oO.O.OoO.O.OX@",
" XoO.+.Oo+.Oo+oOo+oOo+.Oo+oO.+.O.+.O.+.O.+.+.+.O.+.Oo+.Oo+.O.+X@",
" XoO.O.O.OoO.O.OoOo+.OoOoOoO.O.O.O.O.O.OoO.O.O.O.O.OoO.OoOoO.OX@",
" X.+oOo+.Oo+.O.+.Oo+.+.+oOo+.Oo+.Oo+.O.+.Oo+.Oo+.O.+oOo+oO.+oOX@",
" Xo+o+o+.+o+.+.+.+.+.+.+o+o+.+o+.+o+.+.+.+.+.+o+.+o+o+o+.+.+o+X@",
" XoOoOoOoOoOoOoOoOoOoOoOoOoOoOoOoOoOoOoOoOoOoOoOoOoOoOoOoOoOoOX@",
"  #O#O#O#O#O#O#O#O#O#O#O#O#O#O#O#O#O#O#O#O#O#O#O#O#O#O#O#O#O#OX@",
"@X#O#O#O#O#O#O#O#O#O#O#O#O#O#O#O#O#O#O#O#O#O#O#O#O#O#O#O#O#O#OX@",
"@X#O#O#O#O#O#O#O#O#O#O#O#O#O#O#O#O#O#O#O#O#O#O#O#O#O#O#O#O#O#OX@",
"@X#O#O#O#O#O#O#O#O#O#O#O#O#O#O#O#O#O#O#O#O#O#O#O#O#O#O#O#O#O#OX@",
"@X#O#O#O#O#O#O#O#O#O#O#O#O#O#O#O#O#O#O#O#O#O#O#O#O#O#O#O#O#O#OX@",
"@X#O#O#O#O#O#O#O#O#O#O#O#O#O#O#O#O#O#O#O#O#O#O#O#O#O#O#O#O#O#OX@",
"@X#O#O#O#O#O#O#O#O#O#O#O#O#O#O#O#O#O#O#O#O#O#O#O#O#O#O#O#O#O#OX@",
"@X#O#O#O#O#O#O#O#O#O#O#O#O#O#O#O#O#O#O#O#O#O#O#O#O#O#O#O#O#O#O @",
"@X#O#O#O#O#O#O#O#O#O#O#O#O#O#O#O#O#O#O#O#O#O#O#O#O#O#O#O#O#O#O @",
"@X#O#O#O#O#O#O#O#O#O#O#O#O#O#O#O#O#O#O#O#O#O#O#O#O#O#O#O#O#O#OX ",
"@X#O#O#O#O#O#O#O#O#O#O#O#O#O#O#O#O#O#O#O#O#O#O#O#O#O#O#O#O#O#OX ",
"@X#O#O#O#O#O#O#O#O#O#O#O#O#O#O#O#O#O#O#O#O#O#O#O#O#O#O#O#O#O#OX ",
"@X#$#$#$#$#$#$#$#$#$#$#$#$#$#$#$#$#$#$#$#$#$#$#$#$#$#$#$#$#$#$  ",
"@X#%#%#%#%#%#%#%#%#%#%#%#%#%#%#%#%#%#%#%#%#%#%#%#%#%#%#%#%#%#% @",
"@X#%#%#%#%#%#%#%#%#%#%#%#%#%#%#%#%#%#%#%#%#%#%#%#%#%#%#%#%#%#% @",
"@X&$&$&$&$&$&$&$&$&$&$&$&$&$&$&$&$&$&$&$&$&$&$&$&$&$&$&$&$&$&$ @",
"@X      XX  XXXXXXXX  XXXX X        XX  XX       XXXXX         @",
"@@@@XX@@@@XXX@X@@@@@  X@@XX@X       X@@@XXXX X@@XX@@@XXXXX    X@",
"@@XX********************************************************@@X@",
"@XXX**==************************************************==**@@X@",
"@XXX*====**********************************************====*@@X@",
"@XXX*====**********************************************====*@@X@",
"@ XX**==************************************************==**@OX@",
"@ XX********************************************************@OX@",
" XXXX@@@@X@@@@@XXXX@@@XXX@@XO@@@@@@@@@@@@@@@@@@@@@@@@@@@@@@@@OX@",
"@@@OOOOO@@OOOO@@@@OO@OO@@@@@OO@@OOOO@@OO@@@@@@@@OOOO@@OOOOOOOOX@",
"@X------------------------------------------------------------X ",
" X------------------------------------------------------------X ",
" X------------------------------------------------------------X ",
" X------------------------------------------------------------  ",
" X------------------------------------------------------------ @",
" X------------------------------------------------------------ @",
"@ ------------------------------------------------------------ @",
"@X------------------------------------------------------------ @",
"@X--------$$$$$$$$$$$$$$$$$$$$$$$$$$$$$$$$$$$$$$$$$$$$-------- @",
"@X------$$$$$$$$$$$$$$$$$$$$$$$$$$$$$$$$$$$$$$$$$$$$$$$$------ @",
"@X-----$%%%%%%%%%%%%%%%%%%%%%%%%%%%%%%%%%%%%%%%%%%%%%%%%$-----X@",
"@X----$%%%%%%%%%%%%%%%%%%%%%%%%%%%%%%%%%%%%%%%%%%%%%%%%%%$----X@",
"@ ----%%%%%%;;;;;;;;;;;;;;;;;;;;;;;;;;;;;;;;;;;;;;;;%%%%%%----X@",
"@ ----%%%%;;;;;;;;;;;;;;;;;;;;;;;;;;;;;;;;;;;;;;;;;;;;%%%%----X@",
"@ ----%%%;;;;;;;;;;;;;;;;;;;;;;;;;;;;;;;;;;;;;;;;;;;;;;%%%----X@",
"@ ----%%;;;;;;;;;;;;;;;;;;;;;;;;;;;;;;;;;;;;;;;;;;;;;;;;%%----X@",
"@X          XX     XXXXXXXX           XXXXXXX    XX       X  XX@",
"@XXX@@@:::X:   ::XX::::X@@X:::  XX@@:::XX@@  X::   @:@@X::::  X@",
"@XX@@X@@@@:XXXX  @@X:@@::XX@@@X@  ::XXX@@XXX:::XXX::@:::::@ @ X@",
";;;;;;;;;;;;;;;;;;;;;;;;;;;;;;;;;;;;;;;;;;;;;;;;;;;;;;;;;;;;;;;;"
};
