/* XPM */
static char *magma[] = {
/* columns rows colors chars-per-pixel */
"64 192 10 1 ",
"  c #501B1B",
". c #411616",
"X c #652828",
"o c #FF6007",
"O c #E66410",
"+ c #723232",
"@ c #F48522",
"# c #F89E44",
"$ c #CA4E06",
"% c #FBAA59",
/* pixels */
" .. XXoOXX    . .... .  .X+oOO+  .............  XXoOooo@o+X  ...",
".. X+oOo+X     .... .    .+OoO++ ............. .X+@#@o@o@XX.  ..",
".XX+@oo+X   . .....    X  X+@o++X ....... .....X+oo@##o@@X  .. .",
". Xoo@@X .   ..... .    X ++o@+X ..... ...  ..  +o@@##@@ooX  ...",
" .oo@@+XX .......    . XXX+Xo#+X....  ..  .  .X o@oo@###@oX+   .",
" Xo@o@+X   . ..... ..  XX+X+@#X+ . ..  ..   .  Xoo@##@@@oO+X. ..",
"X@oo@o++ X     .....  X XX+X@o@+  .   .... X X++O@##@#@oO$$X .. ",
"XO@@#@o+X X .   ...... X X++#@oXX    ..   . X++OOO@@@@o@oO$+X X ",
"OOo@@##@+X+XX X.   .  XXX++@o@#oXX  . X XX X+XO$Oooo@oOoOOO$+X+X",
"Oo@@o@@##@X++XX ..  .  +X+Xoo#@@o+X XX+XXXXX$$$OoO++X+OOOOO$$++O",
"o@@@@o@@##@@++X  .. X XX++oo##@oOo+XXXX+++O$$$OOO+X XX+OoO$O$$Oo",
"Oo@#@##o@@#@oO+X     XX+OoO@#@o@oO$$+X++OO$$OOO$+X XX+X+OoOOOOOO",
"OOo@##@@o@@oooO$XXXXXXOoOO@#o@OOOOO$$ooOO$OOoO$+XX   X ++OooOOOo",
"oOOoo@#@@oo@oOOO$$$$$OoOOoO@oO$O$$OOooOOoOo@Oo$+X  .X . X+oooOoo",
"OoOOOo@+++oOOoOOO$$$O$OO$OOOOo++XX$OOoOOO@@o@@OX ..  .. . X@oooo",
"O@@OOO+X+X++OOoO$OO$$OOoO$$O+++X+XXX$OoOoo@@o@@+X ..   .. +o@o@o",
"o@@O#@X X++X+$$$OO$O$OoO$$++X+X  X XXXOo@oo@@@@o+X .... ..X+oo@@",
"@#Oo@oXX XX+++$OoOOOOOOOXX+XXX X    XXX+o@@@#@o@+XX .... .XXo@@o",
"o#@ooXXXXX+XX++OOoOOOOoXX X XXX  .    XX++@#@@@ooX .. . ... X@oo",
"#@o@XX XX X  X++#@ooOoX+XX     ..    X  XXX+###@o+X    ... .Xo@o",
"oo@oX X  .  X+X+@#ooo++XX   . . . . ..    X++#@##@+X ....  X++o@",
"o@#@XX  ..   XXXo@oo++XX . .   .   .....   XX+o@##@+. ..  . X+oo",
"@##+X ... ..   XXo@oX+X X ... .......   .    X+oo@#oX  ....  X+o",
"@@#X   . ..   X Xoo@oX    . .......  . .. . . ++@@o@+X X..  X ++",
"@#X  .   . ..   XX#@@oXXX     ...... .. ....X XX@#@oXXX   .XXX++",
"o@   .. ....   XX+@##@oX XX XX.  .....   ..  XXXo@##o+XX    X+X+",
"o@  ..........XXX+o@#oooXX+XX    .  .  X   XXXX+@o@##o+++XXXXX++",
"@#X ..... .. . X+Xoo@oOoOoX++X  .     X  X  XX+X#@oo@@o@++X++X+o",
"@#XX. ....  . X XOOoO@oOooOo++XX XXX XXX  X++X++@##@@#@@O$+X++o@",
"#@X  ..  .      X$OOOoOOO$OOoOX+X XXX XXXXXXX++@##@##@@o@O$$Oo@o",
"@@+X  ..  X XXXXO$$O$OOOOO$$OoO$++XXX+XX++XX++o##@##@oo@OOOo@ooo",
"@@oX X. XX  X+XoOO$$OOoO$$$OoO$OO$X+XX+++XX+o@#@oo@@++++oOo@@@o@",
"o@@oXXXX+XX++XoOoO$+++X++$$$OOOOoO$$++++++Oo@@ooo@X+X+XX+ooo@o@@",
"@oo@oO+XX+++Oo@o@$++XX++XX++$OO$OoO$$$$OOoo@oOOO++XXXXX+++Ooo@o@",
"o@oOooOO$OoOo@@@O+XX+XXXX XXX+$$$OOO$$OOoOoOooO+XXX  XXXX++OOoOo",
"OOO$OO$$Oo@o@@@Oo++XXXXX X  XXX+O$OOOO$OooOoOO+++X X  X XX+$OOoO",
"X+++$$$$oOo@#@oo+XX  X .   X.  XXOOOOoOoOOOOO+X+XXX  .   XX$$OO$",
"XX+XXX$O@@@#@o@oXX  X   . ..  . +XOoO@oOoOOO$+XX X ..  XXX+$$O$+",
" XXX  X$O#@@o@o+ X      ... ....X+OOoo@oO$O$XXX .   ... XXX$OO+X",
"X X  XX+o##@@#+XX   . .  ......  X$OOOoOOO$$XX   . . .    XO$OX ",
"  . X XX+@#@#@XX     ........... .+$$OOO$O$X X. ....... XXOOO+XX",
"   ..  +X+@#@@+X X.   ........... XX$$OOO$$XX  ....... . XoOO++ ",
" .. .. .X++##@X+X  ............    XX$OOOOXX  .......   X+OoO+X ",
"..... .  X+@##oXX .. ...........  X +X$OO$XXX... ..  .X +Xooo+  ",
". ......X +o@#@oXX   .  ......  .   X+OO$X X...    . XXXX+ooOX X",
" .. .... .+Xo@#@XXX . .. ......    X++O$$X  . ..  .   XX++o@oXX ",
"   . .... X+@@@@oX     .  ..  ..X XXX+OO$XX.  .   X XXX++o@oooXX",
"XX .......XX@o@@o+X   . . .  .  XX+X+OO$OXX+X  . X+XX+XX+@@o@ooX",
"+X  ... .  X+oo@@o++    ..   X  X+X+ooOOoOXX+X  X X++X++#@o@@@oo",
"o+X .  ... XX+o@oO+X   X   XX  X+++oOOOOOo@o++X  XX+++@#@o@#@o@o",
"o@+X  ... . X++o@oOX   XX  .XX +++o@oOoOOOo@oo++XX++##@@@##@@@oo",
"@o+X X..     X+ooO$XX X+  . X+XX+@@#@o@oOoOooo@ooo@##@o@##@@#@@o",
"@ooXX  . .    X+oOO$XX+X     X++@#@@@##@oo@oo@oo@@#@o@##@@#o@ooo",
"oOo++X X. X  X+XOoO$$++XX   X++o#@o@##@oo@ooooo@o@@@##@@o@@@o@oO",
"@oOo+XX    XXXXXooOOOO++X+XX++o@@o@#@o+XX XXoooooo@##@#+++XX@oOO",
"OO$OO+XXX   XX+ooOoOooOo+++XOo@@oo@@++XX X+X++o@@oo@@o++XXXX++OO",
"O$$O$O+X XXX++OOO$OoOOOoOOOOo@o#@oo++X   XX++++o@@@@o+XX     X++",
" O$$OO$XX+X++ooOOO$OOOoooOOOoo@@#@+XXX  X XX+X++o@oO@+X X . . X+",
" X$$O$OOXX++OoOOO$$$$OOooooOOoo@@++X   .    XX+X+oO$OXX  . .....",
". +$$$OOooOOoOOO$$$$OOooOoOooo@Oo+XXX . .  XX XX+OOO$+ XX ... . ",
"  X+$OOoOO$OOOO++XXXX+O$OOoooOOoXX X ...   .  XXX+OO$$XX  X .. .",
".X XOOoooOO$$O++X.  XX++$OOoOO$$X   . ... .. .X XXOOOOO+XX .....",
". . XoOoOO$$XX .. ..  X++OoooO$X . .......  .    X$O$Ooo+XX  ...",
"..  XXoOO$++X   ... ..  X+OoO$XX...........  .  XX$$OooO+++X. ..",
" .. XXoOXX    . .... .  .X+@o@+  .............  XXOoOO$$O+X  ...",
".. X+@Oo+X     .... .    .+@@o++ ............. .X+oOOOO$$XX.  ..",
".XX+@%@+X   . .....    X  X+@o++X ....... .....X+OoOoO$O$X  .. .",
". Xoo%@X .   ..... .    X ++OO+X ..... ...  ..  +ooo@oOoO$X  ...",
" .o@%o+XX .......    . XXX+XoO+X....  ..  .  .X oO@oo@ooO$X+   .",
" Xoo@o+X   . ..... ..  XX+X+ooX+ . ..  ..   .  XOoo@@ooO$$+X. ..",
"Xo@@o@++ X     .....  X XX+XOo$+  .   .... X X++o@@@o@@$OO$X .. ",
"XOo@%@o+X X .   ...... X X++oOOXX    ..   . X++o@#@#@o@ooO$+X X ",
"OoOo@o@o+X+XX X.   .  XXX++$O$ooXX  . X XX X+Xo@###@oOooOoOO+X+X",
"o@oo@%%@oOX++XX ..  .  +X+X$$OOoo+X XX+XXXXXoo@@@#++X+OOo@oOO++O",
"@o@@o@%%@oOO++X  .. X XX++$OoOo@oo+XXXX+++#o@##oo+X XX+OOo@@@o@o",
"o@@%@@@@ooooOO+X     XX+$OoOo@@o@@o@+X++o@@###@@+X XX+X+$Oo@@@oO",
"o%%o@o@ooOoOoOO$XXXXXXOOOoOO$o@@o@@##@o#@@##@@#+XX   X ++ooOo@oo",
"@%%%@ooOOOOOOooOO$$$$OOoOO$OO$$o@o@@###@#o@O@oO+X  .X . X+OOoo@o",
"o@%oo@O+++O$OOoO$O$OOO$O$$O$$$++XXo@@#@ooOooOO$X ..  .. . X$O@oO",
"Oo@%@o+X+X++$$OOoOOO$OO$$$$$+++X+XXX#@oOO$$OO$$+X ..   .. +$$oOo",
"oo@@@oX X++X+$OOooooO$$$O$++X+X  X XXXOO$$OoOOOo+X .... ..X+$OOo",
"o@%@ooXX XX+++$OOooOOO$OXX+XXX X    XXX+OO$OO@o@+XX .... .XXO$OO",
"@@@ooXXXXX+XX++OOOOoO$OXX X XXX  .    XX++O$$o@@@X .. . ... XO$o",
"o@ooXX XX X  X++$O$O$$X+XX     ..    X  XXX+$$o@o+X    ... .X$OO",
"@@oOX X  .  X+X+$$OO$++XX   . . . . ..    X++OOooO+X ....  X++OO",
"@%@OXX  ..   XXXO$O$++XX . .   .   .....   XX+OO@oO+. ..  . X+$O",
"o@o+X ... ..   XXO@OX+X X ... .......   .    X+$O@#OX  ....  X+O",
"@ooX   . ..   X XO@oOX    . .......  . .. . . ++o#oO+X X..  X ++",
"oOX  .   . ..   XXOo@oXXX     ...... .. ....X XXOo@oXXX   .XXX++",
"oO   .. ....   XX+o@@ooX XX XX.  .....   ..  XXX$O#@@+XX    X+X+",
"Oo  ..........XXX+@#o@ooXX+XX    .  .  X   XXXX+O@o@o@+++XXXXX++",
"oOX ..... .. . X+X@o@#@@ooX++X  .     X  X  XX+XOo@#@#@O++X++X+O",
"OOXX. ....  . X X@###@oo@oOo++XX XXX XXX  X++X++o##@#o@@Oo+X++$O",
"O$X  ..  .      Xo@#@o@o@OoO$oX+X XXX XXXXXXX++@####@@@@#Oo$$$Oo",
"O$+X  ..  X XXXXooo@o@#oOoooOOOO++XXX+XX++XX++$o@@#@o@#@@#@O$$$o",
"O$$X X. XX  X+XoO@@OOo@#@OOooO$oooX+XX+++XX+$OO@@oOo++++OOoOO$O$",
"oO$$XXXX+XX++XoOOoO+++X++oO$O$ooO$Oo++++++OOOO@O$OX+X+XX+OOooOOO",
"ooOO$O+XX+++$OOo@O++XX++XX++$$$OoO$OoOo@@@oOooO$++XXXXX+++OoOoOo",
"oOO$OO$$$$O$OoOOO+XX+XXXX XXX+$$OOo@OoOo@o@oO$$+XXX  XXXX++#oooo",
"OooOOoO$$OOOoOOO$++XXXXX X  XXX+oo@oo@oooOOOo$+++X X  X XX+@@@oO",
"X+++oooOO$OoooO$+XX  X .   X.  XX@@@@oo@@oOo@+X+XXX  .   XX#@oOO",
"XX+XXXooOOoOOO$$XX  X   . ..  . +X@@oo@@ooo@@+XX X ..  XXX+@#@@+",
" XXX  X$OoooOO$+ X      ... ....X+@ooO@o@o@oXXX .   ... XXXo@#+X",
"X X  XX+$$oOO$+XX   . .  ......  Xo@Ooo@@@oOXX   . . .    X@#@X ",
"  . X XX+$OooOXX     ........... .+oOO@@@OOX X. ....... XXo##+XX",
"   ..  +X+OOoO+X X.   ........... XXoOo@oOoXX  ....... . X@#@++ ",
" .. .. .X++OOoX+X  ............    XXoOoooXX  .......   X+#@o+X ",
"..... .  X+O@oOXX .. ...........  X +XoOoOXXX... ..  .X +Xo@o+  ",
". ......X +oo@@oXX   .  ......  .   X+OOoX X...    . XXXX+o#oX X",
" .. .... .+X@#@oXXX . .. ......    X++oOOX  . ..  .   XX++@#@XX ",
"   . .... X+o##@oX     .  ..  ..X XXX+oO$XX.  .   X XXX++o@@#@XX",
"XX .......XXo@#oo+X   . . .  .  XX+X+$@O$XX+X  . X+XX+XX+@#@o@@X",
"+X  ... .  X+@@o@o++    ..   X  X+X+@oO@#$XX+X  X X++X++o@@oooO$",
"o+X .  ... XX+@@#@+X   X   XX  X+++$o@##@@oO++X  XX+++oOo@@@oOOO",
"oo+X  ... . X++@@##X   XX  .XX +++$OOo@@Oo@@@o++XX++$OOoOO@oOOoO",
"@o+X X..     X+o##@XX X+  . X+XX+$$$@@#@@##@oOoO$$$$OOoO$OOOoOOo",
"o@oXX  . .    X+@###XX+X     X++$O$$O@@#####@@o@O$$OOoOoO$$$OOoo",
"@oo++X X. X  X+X#@###++XX   X++$$ooO@Oo@#@o@#@@OOOO$OooO$$$OO$$O",
"@@oO+XX    XXXXX@@@#@@++X+XX++OOoOoooo+XX XXoOOoOooOoOo+++XX$$OO",
"@@OO$+XXX   XX+oo@o@@o@o+++X$$OoOOOO++XX X+X++OOoooOOo++XXXX++$$",
"oOoO$$+X XXX++o@#o##@@ooO$$OOo$oOOO++X   XX++++oOoOOO+XX     X++",
" oOOoO$XX+X++o@@o##@@o@OoO$$o@@@oo+XXX  X XX+X++oOoOO+X X . . X+",
" X$OOOo$XX++$Ooo@o@@@@o@@#oO@#@oO++X   .    XX+X+OooOXX  . .....",
". +$OoOO$$$OOOOooooo@ooo@o###o#@o+XXX . .  XX XX+o@oo+ XX ... . ",
"  X+OooOO$OoOOo++XXXX+ooo@@##@@oXX X ...   .  XXX+o@@oXX  X .. .",
".X X$OoooOOO$o++X.  XX++oo@@@#@oX   . ... .. .X XXOo@@O+XX .....",
". . XOOoO$$$XX .. ..  X++@o@o@oX . .......  .    Xo@@@oo+XX  ...",
"..  XXOO$$++X   ... ..  X+ooooXX...........  .  XXOo@o@o+++X. ..",
" .. XXoOXX    . .... .  .X+OoO+  .............  XX$$Oo@@@+X  ...",
".. X+oOo+X     .... .    .+oOO++ ............. .X+$OOoo@@XX.  ..",
".XX+$Oo+X   . .....    X  X+Oo++X ....... .....X+$OOoo@o@X  .. .",
". XOOooX .   ..... .    X ++oo+X ..... ...  ..  +O$OoOoOooX  ...",
" .oooO+XX .......    . XXX+Xo@+X....  ..  .  .X OOOoOOOo@oX+   .",
" XOooo+X   . ..... ..  XX+X+@oX+ . ..  ..   .  X$OOooOo@@@+X. ..",
"XOOOoO++ X     .....  X XX+XoOO+  .   .... X X++$$OOoo@@@ooX .. ",
"XOOooOO+X X .   ...... X X++OOoXX    ..   . X++$$OooOo@oo@o+X X ",
"OOoOo@oO+X+XX X.   .  XXX++OOoo@XX  . X XX X+X$OOOOoo@OOooOO+X+X",
"o@@o@#@oOOX++XX ..  .  +X+Xoo@oo@+X XX+XXXXXoOOoOO++X+OOOoOOO++O",
"o@#@#%#OOo@o++X  .. X XX++O@@##@oo+XXXX+++oOoo@oO+X XX+ooO@oOOOo",
"@#@%#@o@#@#@oo+X     XX+oO@o##@oOOOo+X++OOOo@@oO+X XX+X+OooOO@oo",
"o@@@%%#%@#%%#@o#XXXXXXOOOo@#@@@OO$oOoO$O$Ooo@oo+XX   X ++oOo@ooO",
"oo#@#%%@oo@%%##@@oOO$$$OoOoO@@o@OO$$O$$$OoOoo@o+X  .X . X+oOooOO",
"o#%@@#@+++o@##@ooO$OO$OOO$O@OO++XXO$$$$OOOoo@ooX ..  .. . XOOOOo",
"@@#%#@+X+X++o@#@ooO$OOO$$O$O+++X+XXXO$O$O@o@@@o+X ..   .. +$OO$O",
"@###@oX X++X+o@OO$$$$O$$$$++X+X  X XXXOOoO@o@#@o+X .... ..X+O$Oo",
"o@##@@XX XX+++O$$$$$OOO$XX+XXX X    XXX+OOOOo@##+XX .... .XX$$oO",
"Oo@@oXXXXX+XX++oO$$OOOOXX X XXX  .    XX++O@@##@#X .. . ... X$OO",
"O@ooXX XX X  X++$OO$$OX+XX     ..    X  XXX+@@@@@+X    ... .XO$O",
"oOoOX X  .  X+X+OOO$O++XX   . . . . ..    X++@#@##+X ....  X++$$",
"O$O$XX  ..   XXXO$OO++XX . .   .   .....   XX+@##@@+. ..  . X+O$",
"O$$+X ... ..   XXOoOX+X X ... .......   .    X+#@o@@X  ....  X+$",
"$$$X   . ..   X Xoo@oX    . .......  . .. . . ++o@o@+X X..  X ++",
"$$X  .   . ..   XX@o@@XXX     ...... .. ....X XX@o@oXXX   .XXX++",
"O$   .. ....   XX+@@@ooX XX XX.  .....   ..  XXXoO@@o+XX    X+X+",
"$$  ..........XXX+o@oo@OXX+XX    .  .  X   XXXX+OOOo@O+++XXXXX++",
"O$X ..... .. . X+Xoo@OoooOX++X  .     X  X  XX+X$OoOooOO++X++X+O",
"$OXX. ....  . X Xoo@ooOOOooO++XX XXX XXX  X++X++$OoOOooOoo+X++$O",
"OOX  ..  .      X@@@@OoOOO@ooOX+X XXX XXXXXXX++OOOOOoOOoo#@o@OOo",
"@o+X  ..  X XXXXo@@@o@O$o@oOo@O@++XXX+XX++XX++oOOoO$$Ooo@@##oo@O",
"o@oX X. XX  X+Xo@@oooO$$$OOoOo@#@@X+XX+++XX+OoOO$O$$++++oo@##@oo",
"@@oOXXXX+XX++Xo@ooo+++X++$O$$OOo#@o@++++++o@oO$$OOX+X+XX+@o@@#@o",
"@@@ooO+XX+++OOoooO++XX++XX++$$o@@o@ooo@#@@@oO$$O++XXXXX+++oo@oo@",
"o@o@@o@ooOoOOooOO+XX+XXXX XXX+O@#@#@o@o@@#@oO$$+XXX  XXXX++@##@o",
"oo@o@@@@@o@oOOOO$++XXXXX X  XXX+@###@#o@#@o@$$+++X X  X XX+##@@@",
"X+++o@@@@@Ooo$O$+XX  X .   X.  XXo###@@##@@oO+X+XXX  .   XXo@#@o",
"XX+XXXo@oooOOO$$XX  X   . ..  . +Xo@#o@#@@oOo+XX X ..  XXX+@@@o+",
" XXX  XoOoOoO$$+ X      ... ....X+@o@@#@@OOOXXX .   ... XXX@@o+X",
"X X  XX+OOOOO$+XX   . .  ......  X@#@@@o@@O$XX   . . .    X@o@X ",
"  . X XX+$$OOOXX     ........... .+@#@o@@oOX X. ....... XX@o@+XX",
"   ..  +X+$$OO+X X.   ........... XX@o@oOO$XX  ....... . X@@#++ ",
" .. .. .X++OOoX+X  ............    XXOo@O$XX  .......   X+@#@+X ",
"..... .  X+OoOoXX .. ...........  X +XOoO$XXX... ..  .X +Xo@@+  ",
". ......X +oooO$XX   .  ......  .   X+OOOX X...    . XXXX+o@oX X",
" .. .... .+XOoOOXXX . .. ......    X++oOoX  . ..  .   XX++@o@XX ",
"   . .... X+O@oOoX     .  ..  ..X XXX+o@@XX.  .   X XXX++OoooOXX",
"XX .......XXOo@o@+X   . . .  .  XX+X+o@@oXX+X  . X+XX+XX+oo@@o$X",
"+X  ... .  X+O@@@@++    ..   X  X+X+@@oO@$XX+X  X X++X++$Oo@ooO$",
"o+X .  ... XX+o@@@+X   X   XX  X+++o@#@oOO$$++X  XX+++$$$O@o@oOO",
"@#+X  ... . X++o@ooX   XX  .XX +++@##@Ooo@O$OO++XX++O$$OOOoooOOo",
"o@+X X..     X+Oo@oXX X+  . X+XX+o##@@o@OO@OoOO$$$$$$O$$OOOoOooo",
"@@oXX  . .    X+OOOoXX+X     X++o@#@@O@OO$Oo@oOO$$$OooOoO$$OOOoO",
"@o@++X X. X  X+XoOOOO++XX   X++o#@oOoOO$$O$OoOO$$OO$OOoooO$$OoOO",
"O@@#+XX    XXXXXOOOOoo++X+XX++@#@OOo@$+XX XXOoooO$OOOo@+++XX$OO$",
"Oo@##+XXX   XX+OoOO$OoOo+++Xo@@@oO@o++XX X+X++o@o@@oo@++XXXX++$O",
"OOOo@#+X XXX++O$O$$OOO@@o@ooO@O$OO$++X   XX++++o@#@@o+XX     X++",
" $OOo@@XX+X++@OO$$OOo@o@@ooOoOOO$$+XXX  X XX+X++o@O#@+X X . . X+",
" X$$O@#@XX++oo@oO$$O$OoOooOOOoO$$++X   .    XX+X+O#@oXX  . .....",
". +OoO@@oOOOoOoO$$$$OoOOOoOO$OOO$+XXX . .  XX XX+o@#@+ XX ... . ",
"  X+O$OO@OOOOoO++XXXX+oOOOoOOO$$XX X ...   .  XXX+o##oXX  X .. .",
".X X$OOoOOO$OO++X.  XX++$OOOO$$$X   . ... .. .X XXo@#@o+XX .....",
". . X$$OoO$OXX .. ..  X++$$$OO$X . .......  .    XOo@@oO+XX  ...",
"..  XX$$OO++X   ... ..  X+$$$OXX...........  .  XX$O@o@o+++X. .."
};
