/* XPM */
static char *melon_top[] = {
/* columns rows colors chars-per-pixel */
"64 64 7 1 ",
"  c #6F9323",
". c #A7AC1D",
"X c #31731C",
"o c #52811C",
"O c #B8BC36",
"+ c #2C5D19",
"@ c #34791E",
/* pixels */
"      ...XXXXXX  OO ooo    OO     ooOO.    .O  XXXoooo ..       ",
"       .O.XXXXXX OO  ooo   .OO  o oo.O.   .O. XXXooXXX .O.      ",
"       .OOXXXXXX O..   ooo  OO  oooX.O    OO XXXXXXX   OO..     ",
"        .OOXXX  X...   oo   O.  ooXX...   O.XXXXXo   .OOO.      ",
"        ..OXXXX   ... oooo   ..  oXX...    oXoooo   ....        ",
"        ....XXXXX  ...o oo o ..o  XoO.O. o  ooo     ..          ",
".. o     .O. XXXXXX ..  oooo .Ooo o.O.O. o oo      .O.          ",
".. oo o   OO. XXXXX ...  oo  OOoooo.OOO.oooooo    .OO ..        ",
"... ooo    OO. X XXX ..   o  OO oXo..OO.oooXoo   .OO  .OO... .OO",
".OO  ooo   .OO.   XX ... oo  O  XXo .OO. oXXo    .O    .OOOOOOO.",
" .O.  ooo   .OO. XXXX .. o   O  XXoo .O.ooXXX   .OO     OOOOO.  ",
"  OOO  oooo  .... XXXX...   O. oXXXo  O oXX X  ...    ..O...    ",
"   .OO  o oo    . XXXX.OO.  O  oX XXX   XXX   ...    ..O.    ooo",
"XXXX.O.    oo      X XX.OO OO  o  XX     XXX  ..     ..   oo  oX",
"XXXXXOO.              XXOO.O     XXX X XXXX  .O.         ooooooX",
"XX  XXOO.               XOO.      XXXX  XXX .OO       o    oooXX",
"X  XXXXOOO.  o   oooo     OO      XXXXX XX .OO     oooo oooooXXX",
"     XXX.OO.  oooo       ..        XXXX X .OO    oooooooooooXXXX",
".. XXXXXXXO.    ooo o    ..        oXXXX..OOO   oo oooo  oXXXXX ",
".... XXXXXXXoo XXXoo     ..       oo XX ..OO       oo   XXXXXX  ",
" ...OO.oooooo   XXXX     .      ooooo    .O       oooo  . XXX   ",
"   ..OOO.ooo    XXXX    .      oooooo       o  ooooo  ...       ",
" oo   .OOO.oo oo XXo ooo    oo   oo   oo  ooooooooo...OOOO.     ",
". ooo   .OO.oooooXXooo   oooooooooooo  oo XXooooo ..OOOOO..OO...",
"...o  ooo ....OoooXXXooo  XooooooXooooooXXXooooo .OO.     ..OOOO",
".  ooooo   ....O.ooXXX   XXoX++++XXXoooXXXXXXXXo.OO.          ..",
"  oooooooo  oo.OOO. XXXXXXXXXXX++++XXooooXXXX   ..              ",
"        ooooo   .OO    XXXXXXXXX++++XXXXXXX   oo                ",
"o         ooo   ooooo     XXXX.... ++XXXXX   oo   ooo oooo      ",
"ooo oooo oo ooo  ooo    XXXXX....  +++XXX   oooooo  oooo   oo   ",
"oooooo           o oo  XXXXXX..     ++XX      ooo      oo   oooo",
"oo  oooo   oo           +XXXX..ooo  +++   OO..  oo   ooo  o  ooo",
"ooo    ooo  oooooooo    ++XX...oooo +++   .OOO.          ooooooo",
"oo   oooooooooooo       +++X..ooooo +++     .OOO..       XXooooo",
"X       ooooooo      o   ++X..ooooo++++       ....OO      XXXXXo",
"XX     oo  oooooo  oooo X+++Xooooo++++X          OOOO..     XXXX",
"XXXX          ..  ooo   XX+++++++++++XXo  ooo      ...... XXXXX ",
"..XXXX      .... oo o XXXXX+++++++++XXXoo   oooooo   ...OOOO.OO.",
"......     ....      XXXXXXXX+++++XXXXXXooo  ooo        ..OOOOOO",
"....OO..OO....      XXXXXX   X ++X  XXXXoooo   oo          oooo ",
"oo  oOOOO....   oo   XXX    X      XXX   o.           oo    oooo",
" oo  OOO..  oo   oooXXXXXXX      ooX    o...  oo    ooooo       ",
"    OO..   oo  oooXXXX             oooo   ...  oooo   oooo    . ",
"  ....   ooooooXXoooXXXX        ooooo     ...Ooooo  ooo  oo  ...",
" ....     ooooXXXXXXXXX      o   oo    ooo  .OO. XXooooo    o...",
"....XXX    oo XXXXXXX     O.ooooooooXo  oo   .OO. XXXooooooo... ",
"..XXXXoo  oo XXX       oo .OoXo  o ooXooo     .OO... oooooo.OO  ",
".XXXXo    ooXXXXXX  o oo O.OoX      oXXX        ....O.o   .OO   ",
"XXXoo  ooooXXXXX    oooo OO XXXo    ..XXX         ..OO.o.OOO.   ",
"XoooooooooXXX      o oo OOO XoX     ...XXX           OOOOO.     ",
"ooooooooooo.OOO.   ooo  .O XooX      OO.XXXoo         .OOO.    o",
"oooooo ooo.OOO   o oo   OO oooo      .OO.XXXooo          OO  ooo",
"oooo o o.OOO.    ooo   .O. oXooo  o   .O.oXXXXoo         .O.oooo",
"oooo   ....  o  oooo  ..O  oXXoo oo    OOoooXXXooo o      ... oo",
"ooo  .OO..   oo oo o  ..   XXooooooo   OO.ooooooo  oo     ... oo",
"o o .OO.     ooooo   .O.  XXoooooo o   OO. ooooooo oooo    ... o",
"o   OO    o  oooo    .O   XXooo oo    oOO..ooooo     ooo    ..  ",
"   ...    oo ooooo   OO  oXoo o  o    oOOO. oo ooo              ",
"   O.     oooo o o  OO o oooo        ooOOOO. o  ooo     o ..    ",
"   OO     oooo o o  OO ooo ooo       ooO  OO.   oooo   ooo..    ",
"   .OO     oo      .OO ooo  @@ o    ooOO o OO.   o@  oooooO.    ",
"    OO. o o@o      .O   o . @@ooo   ooO.o  .O. ooo@@ooooo.O.    ",
"     OO.o @@o o   OOOo    .. @@ooo oo.O.oo  .O oooo@@oooo.O     ",
"      O.oo@@ooo  .OO oo   .. @@@@ooooOO. oo O.  @o@@@oooOOO     "
};
