/* XPM */
static char *mycelium_side[] = {
/* columns rows colors chars-per-pixel */
"64 64 20 1 ",
"  c #7B6D73",
". c #736162",
"X c #6A656A",
"o c #5A5952",
"O c #6A5D62",
"+ c #83696A",
"@ c #8B7173",
"# c #2B1D13",
"$ c #3A291C",
"% c #483423",
"& c #59402C",
"* c #68462F",
"= c #412D1F",
"- c #593D29",
"; c #79553A",
": c #6C4B33",
"> c #966C4A",
", c #B9855C",
"< c gray53",
"1 c #6C6C6C",
/* pixels */
"    .X  XX...ooooo XXXOO.OOXXXX+O.X XXoXXoo.oo+oX+++..o.O....oXX",
"X X   XXXX.Xoooo.XX X XOO..OX+X++X.XXo...X.o..XX+@+OO..O..o.ooo.",
"XX  XO XO.X.oo.o..X.XX XOO..XO++X.oo...O..o.XX++@+OO.O.o.O.oo..X",
"OXX O.XOOO.O.o...X XXX  O+OO.X+O.o.oo.OXoXoXX+++OO..OOo.OO.o.XO.",
"OO.X..O.OOOO..o.. XO..X  O++O+.OX..oo..XXoX +X+O..O...OOO..o###O",
"O.O..OOO..O.oo..  ..O.   .O++...XX.o.+O Xo XO+OOO.X.OOOO.+##$$$#",
"o.oOOO...O..oX.X  .   XX  ..O+.O..X.o. XooXOOO+O.X.OO++O#$%$%%$%",
"Xo.O....XX.oX X     XXXXX  ..++.+....O XoXOO..O##.+O+++@$%$&&*%$",
".oooX.o.o X.XX   XOOO  X X  ..+++O..O+  XXO.#####O++O+@$$%&**&$ ",
"..ooXXoo...XXX XXX.OXX  XX  ..O+O+.+O+X XO##$$$#.O.++@O$%&*&%$oX",
"O..XXoooo.X.  X OXX.. XX X X.O+OO.O+++XX###%$%#.O...++.$$%%$$.oo",
".OO.oo.oo.XX@ XO@OX X...X X...O..OOO++#$$%%&%$O.OOo.+OOO$$$.Oo.o",
"oOXXooo.ooXXO@OOX  X.XX..X..OO...O.+$#%&%*&%$OOOOXOoO.OOO..O..X.",
"OXX Xooooo.X.OO..X  X.XX.....OO.O.+$$%&**&%$OXO.X ...O.O.OO.X.X.",
"OX  XXo.oo$%$$.o..XXOX###.oo.O.  .$$%%&*&$$ XO.XX XX....O.O..X.O",
"== X  Xo.$%%%&$o.XX.O#$%%$#oo..X  $%&*&%%$#X  XX   X X......XXOO",
"%==  Xoo$%&%&%$$XOO.##%&%&$#o...XX$%%&*%$#  X   XX  X..X=%==X.O=",
"&%= Xoo.$%*&*&%$O+..#$%%&%&$.o. X #$%X%$##+@  X  XX .X=..=%%=.=%",
"%%%=..XOO$%*&*%&$++#$%*&**%$...X   # %$##O@++@  XXXX====XX%&%=%%",
"-%-%=o.XOO$*%%**%+O$%&%**&%$.XX      X##.oOO@ XX.X.X=%%%=%%%&&%&",
"*--===o..OO%&*&*%..$%&*&%%$.o.X .oXOXX+O+.o.oo====XXX=&%%%&&&&;;",
"&:*=%%=Oo..$o&%%$O.o$%&%&$.O.X ..oOOX+++O.oo.=%====  =%&&&*;&:;>",
",;;--%==.oo.$$%$$.oo$$%&$.O.OOo.oo++O@+@+O..%%%%=%%=X.&&&--*;;>>",
",,;*%-%=OOoo..$$Oo.oX$$.O..OOOOo#####+@+O+@.=&%=%&&%OX=&;;-;;,>,",
",>,;&*&%=....O..O...XX.O..OOO+##$$$$####@@+X=%&%&&&%==X>>;;>>>,,",
">>>,;;&%=o..o.OO.O.. X .oO.++#$%&%%$%$$##@XX%&&&&;;-%==%>>>,,,,,",
";>,,>;;%o%.o.X OO.O.  Oo.O..$$%&*&&%$%$$#.X %&;&;;*-&%=%>,,,>>>,",
";;>>,>%%%&%= XX .OOO .ooO+O.$%&***%&%$%%$.XX%&&;;*-&&&%=&>,>>;,;",
";>;;>%%&*&*%== X ..O.o.o+@+$%%*&*&&*&%%$.XX =&>&;>>;;&&%=&>>;>;;",
">>>;&&*&****%==X  ..O###o+@$%&%&%*&*&&%$oX =&>;>>>;;>>;;%%;;>>>;",
";>;-&*&*&*;**&%=X  .##$$#.@$$&%%&&**&%$.ooX=;;>;;;>>;:::;:%:;;>>",
";--;--*-*;;;*&%%XX  #$$%$O.@$%$%&**&%%..o.X>;>>>;>>;::--:;-::;;>",
"*-;;*-;;;;>>;*%&X Oo$%%*&$O+$$&&**&%%..o.oX;>>;;;;;>;;:---:;;>;;",
"-*;;;*;;--;;>>*& O..$%*&*&$O$%**&*&%+O..oo.X>;;:;:;;>>;:::--;;>>",
">;>>;;;>;;-;;>;*.....*&**&%$%&**&&%+.OO.;;o.;;:::;::;>,>:::--:;>",
">>>;;;;;>--;>:*..o....&&**&%%**&**%O..>>>::o.:::;;:;>,>;:;;;:-:;",
">,,>;>>>;-;:;-.o==.O.oo&**&%&&**&%O.>>;;;>>;;>;;>,,>>;:>>:;>;;;>",
",,>>>;>>*--:O.o==&%oooX*&**--**:&%.:;>>;>>;>:;:;;>,,;:;;>>;;>;>>",
">,,>,>>---*.===%%&%%XX  &&*-*:**% %;:;>>,,:;::::;;>>,,>>,>>>;>>,",
",,,,>>;:--%=%&&&&*:&%%XX%&&:;;*;%%:-;;>,,>;::-:;:>;,,,,,>>,,,>>>",
">,>>,,>>;:&%&&*&*&**:&%% &*::;>>;%;::>>,>>>;>>-:;;>>>,>>><>>,,,,",
">>>>>>>;:;*&;*&*,>>*:;:&%>,*;>>;---:>>,>>>>>>:--::;>,>>><<<1>>,>",
";;>>;;>>;;;**>*,,,,>>;>>&,>>>;;-**>-,,,,,>;>;;-::;;>;;>>1<1<11;:",
";>;;::;>>;:;>>>,>>>,>>;>>,,>;:---:;>>,,>,,>;:::-;::;::>;>1<11;:;",
">>>;;::;;>>>,,,>>,,>,>;;;>;:;>:-;<<;,,>,>>,>;:--:-:::;;:;>11:::-",
";;>>>;;::;>,>,>>,,,,>;;>;;>;::-*<<<<>,>;>>>;>;:--:::-::;;;>;;:-:",
":;;:;>>;::;;>;>>>,>;;>>,>>;>>:;<<1<;,>;>;>;;;:::----:;;>;;;:----",
";::;;;;>:-::;>;;>;;;>,,>>>>>;;;11<1;>>>;;;>>;;;::-::;:;;>;;;:-:;",
";;:::;:--::;:;;>;;>,,,>>>>>,>>;;11;;;>>>>>>;;>>;;:;::;;>>>;:::;;",
">;;::---::;;;:;;;>,,,,,>>,,>>;;;:1:;;;;;>>;:;;>>;;;;;;;;>,>>;:;>",
">>>;--:::;:;:::;>,>,>,,,,,>>>>;>;::::;>>>::::;;;>>>;>;>,>,,,>;>,",
">>;>-:-;;:;>;;::;;>>,>,>>>>;>>>;;;:;::;>;;::-:;:;;>>;;>>,,,,,,,>",
",;:-:;:>;>;;>>>;:::;>>>,>;;>;>;;>>;>;;:;>>;;:--:;::;;>>,,,>,>>,,",
",,::>;>>>;;;;>;:::;:;>>>>>;;>>;;:>>;:;;;>;;:;:--::;;>>,,>>,>>>>;",
",>;;;>;;>>;>;;>>;::;>>;>;;>>>;:---::;;>>;>>,::::--:;;,>>>>>>;;;>",
">,>;;;:;;:-;>;;>>>;;;;>:>;;>;:---::;;>>;>,,>;;:----;>;>;;;>;;;>>",
";;>>;;;:--::;>;;:;>>:;;;::;;--::-:;;>;,,,,>>>;;:-::-;>;;>;;:;;;>",
";;;;;:--:::;;;:;;:>:-:;--::--::;:-;>,,,>,>>>;,>;:-::;;:;;>:;>>;;",
">;;:---:-:;;:--:--:::--:::-:::;>;:;,>>>,>,,,>>,,>;:;::;::::;;;>>",
";::--:--:;;>;::--:;;::--;<<;:;>;:;;>>>;>,,,>,>>,>;;::;;;:-::;:;>",
">;::-:;-;>,,>;:::-,,>,;:<<<<11;>>;>>;;>>>;;;>;>;;>;>;>>;;:--:;;;",
";>:-::;:>>>,,,>;;:;,,>:<<<111;;;>>>;::;;:::;;>>>;;>,>,;:;;:---:;",
";;;:;::;,,,,,>>>;;>>>;::<1<1>,,>;>;::;>;;:---:;;>>,,,;;;::;::--:",
">>;;>;:;>>,>>,>>,,>>;;;::1;;,,>,>;;>>;;>>;:-:;;;;>>,>>>;;:::-:;;"
};
