/* XPM */
static char *nether_wart_stage0[] = {
/* columns rows colors chars-per-pixel */
"64 64 6 1 ",
"  c #480000",
". c #730408",
"X c #831C20",
"o c #A42429",
"O c #C53439",
"+ c None",
/* pixels */
"++++++++++++++++++++++++++++++++++++++++++++++++++++++++++++++++",
"++++++++++++++++++++++++++++++++++++++++++++++++++++++++++++++++",
"++++++++++++++++++++++++++++++++++++++++++++++++++++++++++++++++",
"++++++++++++++++++++++++++++++++++++++++++++++++++++++++++++++++",
"++++++++++++++++++++++++++++++++++++++++++++++++++++++++++++++++",
"++++++++++++++++++++++++++++++++++++++++++++++++++++++++++++++++",
"++++++++++++++++++++++++++++++++++++++++++++++++++++++++++++++++",
"++++++++++++++++++++++++++++++++++++++++++++++++++++++++++++++++",
"++++++++++++++++++++++++++++++++++++++++++++++++++++++++++++++++",
"++++++++++++++++++++++++++++++++++++++++++++++++++++++++++++++++",
"++++++++++++++++++++++++++++++++++++++++++++++++++++++++++++++++",
"++++++++++++++++++++++++++++++++++++++++++++++++++++++++++++++++",
"++++++++++++++++++++++++++++++++++++++++++++++++++++++++++++++++",
"++++++++++++++++++++++++++++++++++++++++++++++++++++++++++++++++",
"++++++++++++++++++++++++++++++++++++++++++++++++++++++++++++++++",
"++++++++++++++++++++++++++++++++++++++++++++++++++++++++++++++++",
"++++++++++++++++++++++++++++++++++++++++++++++++++++++++++++++++",
"++++++++++++++++++++++++++++++++++++++++++++++++++++++++++++++++",
"++++++++++++++++++++++++++++++++++++++++++++++++++++++++++++++++",
"++++++++++++++++++++++++++++++++++++++++++++++++++++++++++++++++",
"++++++++++++++++++++++++++++++++++++++++++++++++++++++++++++++++",
"++++++++++++++++++++++++++++++++++++++++++++++++++++++++++++++++",
"++++++++++++++++++++++++++++++++++++++++++++++++++++++++++++++++",
"++++++++++++++++++++++++++++++++++++++++++++++++++++++++++++++++",
"++++++++++++++++++++++++++++++++++++++++++++++++++++++++++++++++",
"++++++++++++++++++++++++++++++++++++++++++++++++++++++++++++++++",
"++++++++++++++++++++++++++++++++++++++++++++++++++++++++++++++++",
"++++++++++++++++++++++++++++++++++++++++++++++++++++++++++++++++",
"++++++++++++++++++++++++++++++++++++++++++++++++++++++++++++++++",
"++++++++++++++++++++++++++++++++++++++++++++++++++++++++++++++++",
"++++++++++++++++++++++++++++++++++++++++++++++++++++++++++++++++",
"++++++++++++++++++++++++++++++++++++++++++++++++++++++++++++++++",
"++++++++++++++++++++++++++++++++++++++++++++++++++++++++++++++++",
"++++++++++++++++++++++++++++++++++++++++++++++++++++++++++++++++",
"++++++++++++++++++++++++++++++++++++++++++++++++++++++++++++++++",
"++++++++++++++++++++++++++++++++++++++++++++++++++++++++++++++++",
"++++++++++++++++++++++++++++++++++++++++++++++++++++++++++++++++",
"++++++++++++++++++++++++++++++++++++++++++++++++++++++++++++++++",
"++++++++++++++++++++++++++++++++++++++++++++++++++++++++++++++++",
"++++++++++++++++++++++++++++++++++++++++++++++++++++++++++++++++",
"++++++++++++++++++++++++++++++++++++++++++++++XXXXXXXX++++++++++",
"++++++++++++++++++++++++++++++++++++++++++++XXooooooooXX++++++++",
"++++++++++++++XXXXXXXX+++++++++++++++++++++Xoooooooooooo +++++++",
"++++++++++++XXooooooXX  ++++++++++++++++++XoooooooooooooX ++++++",
"+++++++++++XooooOOooooXX ++++++++++++++++XooooooOoooooooX. +++++",
"++++++++++XoooOOoooooooXX +++++++++++++++XooooOOooooooooXX +++++",
"+++++++++XoooOOoooooooooXX +++++++++++++XooooOOoooooooXXoX. ++++",
"+++++++++XooOooooooooXoooX +++++++++++++XoooOOoooooooXXoXXX ++++",
"++++++++XoooooooooooooXXXXX ++++++++++++XooOooooooooooXXXXX ++++",
"++++++++XoooooooooXooooXXXX ++++++++++++.XoooooooXooXXXXXX. ++++",
"++++++++XoooXoooXXXXoXXXXXX +++++++++++++.ooXooXXoXXXXXX.. +++++",
"++++++++XooooXXooXXXXXXXXX. +++++++++++++.XooXXoXXXXXXX... +++++",
"+++++++++.oXXXoXXXXXXXXXX. +++++++++++++++.XooXXXXXXXXXX. ++++++",
"+++++++++.XoXXXXXXX.XX.X.. ++++++++++++++++.X..XXXXXX.X. +++++++",
"++++++++++ XXXXXXXXX..X.. ++++++++++++++++++..XXXXX..X. ++++++++",
"+++++++++++ .XXXX....... +++++++++++++++++++..X.XX.X... ++++++++",
"++++++++++++ X.X.X..X.. +++++++++++++++++++++ .XXXX... +++++++++",
"++++++++++++ .X....X... +++++++++++++++++++++ .XXX.... +++++++++",
"+++++++++++++ XX...... ++++++++++++++++++++++ XX...... +++++++++",
"+++++++++++++ ..X..... ++++++++++++++++++++++ X.X..... +++++++++",
"+++++++++++++ ........ ++++++++...   ++++++++ ........ +++++++++",
"+++++++++++++ ........ +++++++.XXXXX. +++++++ .X...... +++++++++",
"+++++++++++++ ........ ++++++.XooooXo. ++++++ X....... +++++++++",
"+++++++++++++ ........ ++++++.XXooooX. ++++++ ........ +++++++++"
};
