/* XPM */
static char *observer_back[] = {
/* columns rows colors chars-per-pixel */
"64 64 16 1 ",
"  c #250103",
". c #232323",
"X c #292626",
"o c gray16",
"O c #323232",
"+ c #353434",
"@ c gray23",
"# c #3D3C3C",
"$ c #4A0102",
"% c #780401",
"& c #464242",
"* c gray34",
"= c #656565",
"- c gray48",
"; c #848484",
": c gray56",
/* pixels */
"ooooooooooooooooooooOOOOOOOOOOOOOOOOOOOOoooooooooooooooooooooooo",
"oOOOOO@@@OO@OOOO@OOO@@@@@@@OOO@@@O@@@O@@@@@OOOOOOOO@@@OOOO@OOOOo",
"oO::::::::::::::::::::::::::::::::::::::::::::::::::::::::::::Oo",
"oO::;;;;:;::;;:;;;::::::;;::;:;;;:::;;;;::;:::;;;:::;;::;:::;:@o",
"O@-;----;;;---;;---;;;-;-----;;--;;-----;;;;----;;--;-;;;;---;@O",
"O@------------------------------------------------------------@@",
"@@------------------------------------------------------------@O",
"O@------------------------------------------------------------@@",
"O@------------------------------------------------------------@@",
"O@------------------------------------------------------------@O",
"oO------------------------------------------------------------@O",
"oO------------------------------------------------------------@O",
"o@=-==*==-===***==--==**=======--*====------------====**==*=-=@o",
"oO****==*****=*********==**=********=**==========*==***=****=*Oo",
"oOOO@O@OO@@@@@OO@@@O@OOO@@@@OO@@OO@O@@@@OO@O@@OO@@@@@@@@O@OOOOOo",
"ooooOOOOOOO@OOOOOOOOOOO@@@OOOOOOOOOOooooOOOOOOOOOO@OOOOOOOOOoooo",
"................................................................",
".XXXXXXXXXXXXXXXXXXXXXXXXXXXXXXXXXXXXXXXXXXXXXXXXXXXXXXXXXXXXXXX",
"++++++++#+#++++++++###+#####-------=+++#####++++++++#+++++++++++",
"#++++++#&##+++++++##&#+##&##+---===#++###&###++++++###+++++++#++",
"&#+++++&&&##+++++#&#&#++#&###+-===###+###&#&##++++#&##+++++++##+",
"&#++++#&&&#&#++++#&&&##+##&##+-===##++##&&#&##+++#&&#&++++++###+",
"&&++++#&&&#&&++++&&&&##+#+&##-=====&+#+##&&&&#+++&&&#&+#++++#&#+",
"&&#+++#&&&#&&#++#&&&####++&#+-=====&+#++#&&&&#+++&&&#&+#++++#&&#",
"&&&#++&&&&&&&&++&&&&####+#&&-=======##+++&&&&#++#&&&&&+&+++#&&&#",
"&&&#++&&&&&&&&#+&&&&&###+&&===OOOO===#+++#&&&#++#&&&&&#&+++&&&&#",
"&&&&++&&&&&&&&#+&&&&&###+&&==OOOOOO==&+#+#&&&&++&&&&&&#&++#&&&&#",
"&&&&++&&&&&&&&#+&&&&&#&#&&==OOOOOOOO==##+#&&&&++&&&&&&&&++#&&&&&",
"&&&&++&&&&&&&&##&&&&&&&#&&=OOO%%%%OOO=#&#+#&&&#+&&&&&&&&++&&&&&&",
"&&&&++&&&&&&&&#&&&&&&&&#&&=OO%%%%%$OO=#&#+#&&&&+&&&&&&&&++&&&&&&",
"&&&&#+&&&&&&&&#&&&&&&&&#&@OO%%%%%$  OO@&###&&&&#&&&&&&&&++&&&&&&",
"&&&&&+&&&&&&&&#&&&&&&&&&&@OO%%%%$   OO@&####&&&#&&&&&&&&#+&&&&&&",
"&&&&&+&&&&&&&&&&&&&&&&&&&@OO%%%$    OO@###&#&&&#&&&&&&&&#+&&&&&&",
"&&&&&#&&&&&&&&&&&&&&&&&&&&@O%%$     O@&###&#&&&#&&&&&&&&&+&&&&&&",
"&&&&&#&&&&&&&&&&&&&&&&&&&&@OO$     OO@&###&#&&&&&&&&&&&&&#&&&&&&",
"&&&&&#&&&&&&&#&&&&&&&&&&&&&@OO    OO@&&#&#&&&&&&&&&&&&&&&#&&&&&&",
"&&&&&#&&&&&&&#&&&&&&&&&&&&&@@OOOOOO@@&&&&#&&&&&&&#&&&&&&&&#&&&&&",
"&&&&&&&&&&&&&#&&&&&&&&&&&&&&@@OOOO@@&&&&&#&&&&&&&#&&&&&&&&##&&&&",
"&&&&&&&&&&&&#+&&&&&&&&&&&&&&::::::::&&&&&#&&&&&&&+#&&&&&&&&#&&&&",
"&&&&&&&&&&&&#+#&&&&&&&&&&&&&:-------&&&&&&&&&&&&#+#&&&&&&&&#&&&&",
"&&&&&&&&&&&&++#&&&&&&&&&&&&&********&&&&&&&&&&&&#+#&&&&&&&&&#&&&",
"&&&&&&&&&&&#++#&&&&&&&&&&&&&===*****&&&&&&&&&&&&++#&&&&&&&&&##&&",
"&&&&&&&&&&&#+#&&&&&&&&&&&&&#======**&&&&&&&&&&&#++&&&&&&&&&&+#&&",
"&&&&&&&&&&&#+&&&&&&&&&&&&&&+======**&&&&&&&&&&&#+#&&&&&&&&&&+#&&",
"&#&&&&&&&&&+#&#&&&&&&&&&&&#+=======*&&&&&&&&&&&++&&&#&&&&&&&++#&",
"&#&&&&&&&&#+#&#&&&&&&&&&&&++=======*&&&&&&&&&&#++&&&#&&&&&&##+#&",
"##&#&&&&&&++&#+&&&&&&&&&&#+#=======*&&&&&&&&&#+++#&##&&&&#&##+##",
"####&&&&##+##++#&&&&&&&&##+&=======*&&&&&&&&##+##+####&&####&#+#",
"oooooooooooooooooooooooooooo=======*oooooooooooooooooooooooooooo",
"o@@@+++@oooooooo@@oo@++++@oo======**oooo@@o@@++@+ooo@@@++@@@oooo",
"oo:::::::::::::::::::::::::::::::::::==-==-=--======--====-===oo",
"o+;;;:::;;;:;;;:::::;:::;;;:::;;;;;:::==--------===------==-==oo",
"o+--;;-;--------;;;;-;;;-----;;----;--------------------------@o",
"o+------------------------------------------------------------@o",
"o+------------------------------------------------------------oo",
"oo------------------------------------------------------------oo",
"o@------------------------------------------------------------@o",
"o+------------------------------------------------------------@o",
"o+------------------------------------------------------------@o",
"oo---===------------------------------------------------------+o",
"oo-===***==---==--=-==--=-======**===***=*******=======***=**=+o",
"oo=********===**=====-========***=*=**=**===********==*****===+o",
"oo@+@+@oo+++oo@@oooooooo@+@+ooo+++@@@@o@@ooooo@++@oo@@oo@@o@++@o",
"oooooooooooooooooooooooooooooooooooooooooooooooooooooooooooooooo"
};
