/* XPM */
static char *observer_top[] = {
/* columns rows colors chars-per-pixel */
"64 64 18 1 ",
"  c gray16",
". c #323232",
"X c gray23",
"o c #5D5B5B",
"O c #686868",
"+ c #777777",
"@ c #504E4E",
"# c gray52",
"$ c gray57",
"% c #AFAFAF",
"& c gray34",
"* c #9D9D9D",
"= c #656565",
"- c gray56",
"; c gray48",
": c #232323",
"> c #292626",
", c #353434",
/* pixels */
"                    ....................                        ",
" .....XXX..X....X...XXXXXXX...XXX.XXX.XXXXX........XXX....X.... ",
" .ooooooooooooooooooOOOOO+O+Ooo@o@@oooOOOOoooOOoooOooOoooO+++O. ",
" .ooOOoooooooOOooOOOOO++OO+++Ooo@@@@OOOO+OOoOOooOOooOOOoO+O+OoX ",
".XoooOOOoooOOOooOooO++##++#Oo@@@@ooO+O++OOOOooOO+++OO+OOoooOOoX.",
".XoOOOoooOooOooO+OooO++###++Oo@oOOO++++OOO+OOooOO+#++OO+OOooOOXX",
"XXOOoOOoooOO++O+OOOOoOO+#+OOo@oOO+OO++OO++OOoOoO+#+++++O++OOoOX.",
".XoOooOooOO+++++++O+OO+#+OooooOO++++++++#+++OoO+###+#++++OOoooXX",
".XoooOoOOO++###$#+++++OO+OOo@OOOO+##+++####+OooO+#######+++OOoXX",
".XOoOOooO++++$$$$###+OO+OO@@oO+++##++###$#+OOOooO+#######+OOoOX.",
" .OOoOoO+#+###$$##$###+OO@@oO+#++++##$$$###++OoO+++###+#++++OOX.",
" .OOooOO++##$$$##$##$##+OOo@O++##+##$$$###++++Oo+O###++++++++OX.",
" X+OOoO+###$$$#$$$$$###+Oo@o+##%&#$$##$$#$##+#+OOOO+##++++++OoX ",
" .O+Oo+###$$##$$$$$$$$#+o@oo++%*=&$$$##$$$$$#+++OO+O++#+++OOO@. ",
" .++OOO++$#####$$#$$$#+Ooo@oO%*-;=&$#$$$$$$###+++OO++++++++Oo@. ",
"  O++O++#++##$$##$$$###+Oo@@%*--;==&$$$$$##$$###+OoOO++O++Oooo  ",
"::oO+OOO++####$$####++OOo@@%**--====&$$$$$#$###+OOOoOOO+OOooo@::",
":>oOO+OOO++##$$$$##++OOo@@o%*---=;==&##$$$$##++OoOOooO++OOOO@@  ",
"  OooOOOoO++###$#++Ooo@@@o%*---;=;=;=&+#$$####++OooOooOOoOOo@o, ",
"  OOooOoOOO++#$#+O++Ooo@oo%*-*-;;;=;=&###$$##+OOO@ooOOOOOoooooX ",
" ,Oooooooo@oO+++OOOoo@@oO%***-;;;=;;==&O+#+++Oo@@@@ooooOooo@ooX ",
" ,OOOooOo@@ooOOooOoo@@oOO%**---;;=;;==&OO++OOOOo@oOOoOooo@@@@oX ",
" XO++OO@@oOOOooOoo@@ooOO%**-;-;-==;=;==&o@oo@ooOoO++OoOOoo@@ooX ",
" X++OOoo@@oO+Oooo@@@@o+O%*---;;-==;=;;=&@@@@ooOO+++OO+Ooooo@@o  ",
" XO+Ooo@oOO++++OOoo@oO+%*---;;--=;;==;==Xo@oOO++++##+++OoO@o@@  ",
" XOOooooO++#+#++OOooOO+%--*-;;;-;=;;=;==XOoOO+#++++###+++OOOOo  ",
" ,Oo@OOO++###$$OO+OoO+%*-*-;;-;-;=;==;;=&XO++##+#######+OOOOoo  ",
"  o@ooO++#+#$$##+OOOoO%-**-;-;--;;;===;==X++++#######+++++OOOoX ",
"  ooO++##$$$$##$#++Oo%***-;;-;;-;=;;==;;=&X+#++#######+#+#O+OO, ",
" XoO+##+##$$$$$#++OOO%**--;---;-;==;;=;;==X++##$$###$####+++OO, ",
" ,OOO+##$$$$$####++O%**--;;;--;-;===;;;===&X$#$$###$###+++OOOo, ",
"  O++#####$$$$##+#+O%-*--;;-----;;==;;;====X#$$###$$$#+++++OooX ",
" X+#++#$###$$$$$#++%**--;;;-----;;===;=====&X$$$$###$$#+++OooOX ",
" X++#$##$$$$$$$####%**--;-;-----;;==;;======X$$$$$######+++OOo  ",
" X+#$$$##$$$$$$$$#%**-----;--;--;;==;;==;===&X$#$$$###++O+++oO  ",
"  ++#$$$$$$$$$$$$$%**--------;--;==;=;;=;;===X$$####+##++O+Ooo  ",
"  ##+#$$$$$$$$$$#%*-*-------;---;==;;;;=;;===&X+#####++OOOOOOo  ",
" X+##$$$$$$$$$$##%**--------;;--===;;=;;;;====X#+##+++OO++OOOo  ",
" X+#$$$#$$$$$$$$%***---;---;;---=;==;==;=;=;==&X+++++O+++OOOoOX ",
" X++##$$##$$$$##%-*--;-;---;;---;;=====;==;;===X++OOOOO+OOOOOOX ",
"  OO+####$$$##$%*----;-;;-;;----;=;==&=;==;=;==&XO++OO+OOOoOOOX ",
"  oOO++###$####%----;---;-;-----;====&&=&=;=;=&=XOO+OoOOooOOOO, ",
"  @@oOoO+##$$$%*---;;--;;;;-----;===&&&=&&==;;&=&XoOoooooOO++O  ",
"  @o@oO+#+##$#%**--;;--;;;;-----;;==&&&==&=;;;&&&XooooOoOOOO++  ",
" ,ooooOO+++##%**--;;--;;-;----;-;;==&=&&=&==;;=&&&XoOO+#++OOO+X ",
" ,oOOooOO+OO+%*---;;--;--;-;--;-;;=&==&=&&==;===&&XO+##++OO+++X ",
" XoOOOOooOO+%***-;;-;----;;;--;;;====&&=&==;=====&&X$$##+++O+#X ",
" XOOO+OOooo+%**--;;-;----;;;-;;;;====&&=&=;;==&=&&&X#$$##++##+X ",
" XOO++OO+OO%*-*-;;--;;--;;;=;;;;====&&====;==&==&&&&X###++####X ",
" X+O+++OO+O%----;----;--;;;=;;=;====&=======&&=&&&&&X+####+#++  ",
" ,++O#++++%**--;----;;;-;;;==;=====&=====&&&==&&&&&&&X$#$##+++  ",
" ,++++##++%*-------;-;;;;;;;=;=====&=&==&&&==&&&&&&&&X$$####++  ",
" ,+++++##%******-------;;;;;;===&=&&&&===&=&&&&&&&&&&&X###+++OX ",
" ,O++####%**-**-------;;;;;;;;==&&&&&=&&==&&&&&&&&&&&&X#+##+OOX ",
" ,O+++##%**-*------;;;;;;;;;;;;==&&&&&&&&&&&&&&&&&&&&&&X###OOO  ",
"  O+O+++*%%%%%%%%%%%%%%%%%%%%%%;;&&&&&&&&&XXXXXXXXXXXXXX+#+++O  ",
" XoOOO++##++O+OoOoO++O++Ooo@@OooOO+++OO+++Ooo@@oO+#+++++O+O+OOX ",
" ,oOO++####O++oOOOOO+#++++OOo@oOOoOO++OO+ooo@@@@@O+++++OOO+OOOX ",
" ,oooOOO+#+++OOOoO+######++++OOoooooOOooOOo@oooo@@OOOO++OOooOoX ",
"  ooOOo+++#+OOooOOO+#######+OOOOOooOO++Oo@@ooOo@oOO++OOOOooooO, ",
"  ooooOOO++OoooOO++##++###+++++OoOO+OO++OO@O+OOoO+++OO+OooOO++, ",
"  ooooooOOOOOoOO+O++++##++#+++O+OO++++++++O+++OOOO++++OO+OO++O, ",
"  X,X,X  ,,,  XX        X,X,   ,,,XXXX XX     X,,X  XX  XX X,,X ",
"                                                                "
};
