/* XPM */
static char *pink_glazed_terracotta[] = {
/* columns rows colors chars-per-pixel */
"64 64 7 1 ",
"  c #B4B3A9",
". c #B8B7AD",
"X c #D6658F",
"o c #D97198",
"O c #F38BAA",
"+ c #F497B3",
"@ c #F4B5CB",
/* pixels */
".............. @@oXXXXXXXXXXX@oXXXXXXXXXXXXXXXXXO@oXXXXXXXXXo@@@",
"............. @@oXXXXXXXXXXXX@oXXXXXXXXXXXXXXXXXXO@oXXXXXXXXo@@@",
"............ @@oXXXXXXXXXXXX@oXXXXXXXXXXXXXXXXXXXXO@oXXXXXXXXo@@",
"........... @@oXXXXXXXXXXXXX@oXXXXXXXXXXXXXXXXXXXXXO@oXXXXXXXXoo",
".......... @@oXXXXXXXXXXXXX@oXXXXXXXXXXXXXXXXoooooooO@oXXXXXXXXX",
"......... @@oXXXXXXXXXXXXXX@oXXXXXXXXXoooooooOOOOOOOOO@oXXXXXXXX",
"........ @@oXXXXXXXXXXXXXXX@oXXXXXXoooOOOOOOO@@@@@@@@@@@oXXXXXXX",
"....... @@oXXXXXXXXXXXXXXX@oXXXXoooOOO@@@@@@@+++++++++++@oXXXXXX",
"...... @@oXXXXXXXXXXXXXXXX@oXoooOOO@@@++++@++OOOOOOOOOOO+@oXXXXX",
"..... @@oXXXXXXXXXXXXXXXXX@ooOOO@@@+++OOOO@OOOOOOOOOOOOO+@@oXXXX",
".... @@oXXXXXXXXXXXXXXXXXo@OO@@@++@OOOOOOO@OOOOOOOOOOOOO+@O@oXXX",
"... @@oXXXXXXXXXXXXXXXXXoO@@@+++OO@OOOOOOO@OOOOOOOOOOOOO+@OO@oXX",
".. @@oXXXXXXXXXXXXXXXXXoO@@++OOOOO@OOOOOOO@OOOOOOOOOOOOO+@OoO@oX",
". @@oXXXXXXXXXXXXXXXXXoO@+@OOOOOOO@OOOOOOO@OOOOOO++OOOOO+@OoXO@o",
" @@oXXXXXXXXXXXXXXXXXoO@+O@OOOOOOO@OOOOOOO@OOOOO+@+OOOOO+@OoXXO@",
"@@oXXXXXXXXXXXXXXXXXoO@+OO@OOOOOOO@OOOOOOO@OOOO+@+OOOOOO+@OoXXXO",
"@oXXXXXXXXXXXXXXXXXoO@+OOO@OOOOOOO@OOOOOOO@OOO+@+OOOOOOO+@OoXXXX",
"oXXXXXXXXXXXXXXXXXoO@+OOOO@OOOOOOO@OOOOOOO@OO+@+OOOOOOOO+@OoXXXX",
"XXXXXXXXXXXXXXXXXoO@+OOOOO@OOOOOOO@OOOOOOO@O+@+OOOOOOOOO+@OoXXXX",
"XXXXXXXXXXXXXXXXoO@+OOOOOO@OOOOOOO@OOOOOOO@+@+OOOOOOOOO+@OoXXXXX",
"XXXXXXXXXXXXXXXoO@@OOOOOOO@OOOOOOO@OOOOOOO@@+OOOOOOOOOO+@OoXXXXX",
"XXXXXXXXXXXXXXoO@+@OOOOOOO@OOOOOOO@OOOOOO+@@@@@@@@@@@@@@@OoXXXXX",
"XXXXXXXXXXXXXoO@+O@OOOOOOO@OOOOOOO@OOOOO+@+OOOOOOOOOOO++@OoXXXXX",
"XXXXXXXXXXXXXoO@+O@OOOOOOO@OOOOOOO@OOOO+@+OOOOOOOOOOOO++@OoXXXXX",
"XXXXXXXXXXXXoO@+OO@OOOOOOO@OOOOOOO@OOO+@+OOOOOOOOOOOOO++@OoXXXXX",
"XXXXXXXXXXXXoO@+OO@OOOOOOO@OOOOOOO@OO+@+OOOOOOOOOOOOOO++@OoXXXXX",
"XXXXXXXXXXXoO@+OOO@OOOOOOO@OOOOOOO@O+@+OOOOOOOOOOOOOOO+@OoXXXXXX",
"XXXXXXXXXXXoO@+OOO@OOOOOOO@OOOOOOO@+@+OOOOOOOOOOOOOOOO+@OoXXXXXX",
"@@@XXXXXXXXoO@+OOO@OOOOOOO@OOOOOOO@@+OOOOOOOOOOOOOOOOO+@OoXXXXXX",
"ooo@@@XXXXoO@+OOOO@OOOOOOO@OOOOOO+@@@@@@@@@@@@@@@@@@@@@OoXXXXXXX",
"XXXooo@@XXoO@+OOOO@OOOOOOO@OOOOO+@+OOOOOOOOOOOOOOOOOO+@OoXXXXXXX",
"XXXXXXoo@@oO@+OOOO@OOOOOOO@OOOO+@+OOOOOOOOOOOOOOOOOOO+@OoXXXXXXX",
"XXXXXXXXoo@@+OOOOO@OOOOOOO@OOO+@+OOOOOOOOOOOOOOOOOOO+@OoXXXXXXXX",
"XXXXXXXXXXX@+OOOOO@OOOOOOO@OO+@+OOOOOOOOOOOOOOOOOOOO+@OoXXXXXXoo",
"XXXXXXXXXXX@+OOOOO@OOOOOOO@O+@+OOOOOOOOOOOOOOOOOOOOO+@OoXXXXoo@@",
"XXXXXXXXXXX@+OOOOO@OOOOOOO@+@+OOOOOOOOOOOOOOOOOOOOO+@OoXXooo@@XX",
"XXXXXXXXXXX@+OOOOO@OOOOOOO@@+OOOOOOOOOOOOOOOOOOOOOO+@Oooo@@@XXXX",
"XXXXXXXXXXX@+OOOOO@OOOOOO+@@@@@@@@@@@@@@@@@@@@@@@@@@@@@@@XXXXXXX",
"XXXXXXXXXX@+OOOOOO@OOOOO+@+OOOOOOOOOOOOOOOOOOOOOOO+@OoXXXXXXXXXX",
"XXXXXXXXXX@+OOOOOO@OOOO+@+OOOOOOOOOOOOOOOOOOOOOOO+@OoXXXXXXXXXXX",
"@@@@@XXXXX@+OOOOOO@OOO+@+OOOOOOOOOOOOOOOOOOOOOOO+@OoXXXXXXXXXXXX",
"OOOOO@@@@X@+OOOOOO@OO+@+OOOOOOOOOOOOOOOOOOOOOOO+@OoXXXXXXXXXXXXX",
"OOOOOOOOO@@+OOOOOO@O+@+OOOOOOOOOOOOOOOOOOOOOOO+@OoXXXXXXXXXXXXXX",
"OOOOOOOOOOO@@OOOOO@+@+OOOOOOOOOOOOOOOOOOOOOOO+@OoXXXXXXXXXXXXXXX",
"OOOOOOOOOOOOO@@OOO@@+OOOOOOOOOOOOOOOOOOOOOOO+@OoXXXXXXXXXXXXXXXX",
"OOOOOOOOOOOOOOO@OOO@@@@@@@@@@@@@@@@@@@@@@@@@@OoXXXXXXXXXXXXXXXXX",
"OOOOOOOOOOOOOOOO@OOOOOOOOOOOOOOOOOOOOOOOOO+@OoXXXXXXXXXXXXXXXXXo",
"OOOOOOOOOOOOOOOOO@OOOOOOOOOOOOOOOOOOOOOO++@OoXXXXXXXXXXXXXXXXXo@",
"OOOOOOOOOOOOOOOOOO@OOOOOOOOOOOOOOOOOOO++@@OoXXXXXXXXXXXXXXXXXo@@",
"@@@@OOOOOOOOOOOOOOO@OOOOOOOOOOOOOOO+++@@OOoXXXXXXXXXXXXXXXXXo@@ ",
"oooo@@@OOOOOOOOOOOO@OOOOOOOOOOOO+++@@@OOooXXXXXXXXXXXXXXXXXo@@ .",
"XXXXooo@@OOOOOOOOOOO@OOOOOO+++++@@@OOOooXXXXXXXXXXXXXXXXXXo@@ ..",
"XXXXXXXoo@OOOOOOOOOO@++++++@@@@@OOOoooXXXXXXXXXXXXXXXXXXXo@@ ...",
"XXXXXXXXXo@OOOOOOOOOO@@@@@@XXXX@oooXXXXXXXXXXXXXXXXXXXXXo@@ ....",
"XXXXXXXXXXo@OOOOOOOOO@XXXXXXXXXo@XXXXXXXXXXXXXXXXXXXXXXo@@ .....",
"XXXXXXXXXXXo@OOOOOOOOO@XXXXXXXXo@XXXXXXXXXXXXXXXXXXXXXo@@ ......",
"XXXXXXXXXXXo@OOOOOOOOO@XXXXXXXXXo@XXXXXXXXXXXXXXXXXXXo@@ .......",
"XXXXXXXXXXXXo@OOOOOOOO@XXXXXXXXXo@XXXXXXXXXXXXXXXXXXo@@ ........",
"XXXXXXXXXXXXo@OOOOOOOO@XXXXXXXXXXo@XXXXXXXXXXXXXXXXo@@ .........",
"XXXXXXXXXXXXo@OOOOOOOOO@XXXXXXXXXo@XXXXXXXXXXXXXXXo@@ ..........",
"XXXXXXXXXXXXXo@OOOOOOOO@XXXXXXXXXo@XXXXXXXXXXXXXXo@@ ...........",
"ooXXXXXXXXXXXo@OOOOOOOO@XXXXXXXXXXo@XXXXXXXXXXXXo@@ ............",
"oooXXXXXXXXXXo@OOOOOOOO@XXXXXXXXXXo@XXXXXXXXXXXo@@ .............",
"oooXXXXXXXXXXo@OOOOOOOO@XXXXXXXXXXo@XXXXXXXXXXo@@ .............."
};
