/* XPM */
static char *piston_top_sticky[] = {
/* columns rows colors chars-per-pixel */
"64 64 22 1 ",
"  c #336128",
". c #B38C51",
"X c #5E9C4F",
"o c #6BB959",
"O c #7CC26C",
"+ c #937A48",
"@ c #9F844D",
"# c #3F7432",
"$ c #705838",
"% c #7C623E",
"& c #695433",
"* c #61A351",
"= c #39682E",
"- c #BC9862",
"; c #84C774",
": c #9CE28A",
"> c #A5A5A5",
", c #B7B7B7",
"< c #ABEB9C",
"1 c #8E7645",
"2 c #868686",
"3 c #CDCDCD",
/* pixels */
"2>>,,>>2$&$$&&&&&&&$$$$$$$&&2>>,,>>2&&$$$$$&&&&&&&&$$$$&2>>,,>>2",
">,3333,>&%%$%$$$$%%%%$$$%%%&>,3333,>&$%$%%%%$&&%%$%%$$$%>,3333,>",
">333333>.-.@-----...@+--$&.->333333>@@+@..---@@@.--@@--->333333>",
",333333,@+@...-.@++..@@.$&@.,333333,..@@@@+++@..++++..-@,333333,",
",333333,..@++.@@@.@@++..%$.@,333333,.@..@+.X*XXX.+..@++.,333333,",
">333333>@...*;o*XX+.+@@@%$@.>333333>@@@..@X*ooX*XX....+@>333333>",
">,3333,>+@ooo;:oo*X+..@.%$;@>,3333,>..@@***oo**oo**X@...>,3333,>",
"2>>,,>>2X*Oo:<<:;OO*..++% oo2>>,,>>2@@X*ooo;;oooOo**XX++2>>,,>>2",
"&$@...@**O;:<<o<:*oo*X+@$ Xo*X.++@@@***ooOOo:OoO:;oXX*X1+....+%&",
"&$@@.+X*o;o;:;oooX*X**X.= X*o*X@++.XX*ooOO;:<:;::o**ooXX..@@@+$&",
"&%+@+X*XX**o*o;*XXX*oXXX##+X*XX.@@@+XX*;o;O;:<::ooo;oo*XX@@@++%&",
"&%%+++XX**o*X*oo*XXXX@+# ##+XX@@++++@@X*oo;oo;o;:;Oo**X++@@++%%&",
"&$%%##*XXX*o*XXXXooO#=##==###===###===##=#=ooo*o**oXX##===$$%%$&",
"&$& =*ooo*XXXX*oooO;o*$===      ==  ==    o*o*XXoXX***  =   $$&$",
"&&@@Xo*o;o*;*;:<oo;:ooX*oo*XX*o-#=@@.XXXXo*XXoXX:X**oXX**XX-@@%$",
"&%@@X*X;;;oO;:<:<::<:o*XOOoo*XX*# .oooo*XXX*oX*:o*oooo*XX*XX..$$",
"$$...XX*oO;;O;::<<<::;o;OO;oo*XX==oo;oOOo**oo*:<<o:<o*XX*Xo*X@%&",
"$%.@+X*oO;OO;::<:<<:;;;O;;o**o*X# o;oOOOOOoO;oo:<<<::o*ooo*X*.%&",
"$%@++@*ooOOOo;O:;;:;;;;;o**X***.# *oO;;;O;O::o:<:<::;OooOOo*+.$&",
"$%..@.X*oooo;OOO;;;;O;;;Ooo*X*X+# X*o;O;;;;;::O:O:;OOOOO;oo+.@$&",
"$$.@@@.Xo*XoooOO;oOO;;Oooo*XXX+.#=XooOOoO;;OOOOOO;O;O;;;o*X*@.%$",
"$%+..+@@XX*XX*ooooOoo;oo*XX*X@@@=XX*oooooO;;O;OO;;;;;;oOoo*XX@%$",
"&%++@++..+XX*ooOo*o*Xoo***XX++++#X**o*oo*oO;;;;;;;;;Oo*ooXXX@+%&",
"&&%+++@@++++XX*oXXXX*X**X@++@@+%XoXo*X**oO;;O;O;O;OOO;o***X++%$&",
"$&&%$$$%##===#XX**XXXXX=====###XX*o*XXX*ooO;;OOO;OOo;oo*XX=#%$&&",
"$$$&&&&&$$      XXXXX     == o**Xo== X X*oOOO;;OO;;Ooo*XX    &&&",
"&$.----+..@@.--. XX@@.--o***o**o*+@..--@*ooOOO;;;;O;;Oo*--@-.@$&",
"&%.@+-..@+@.+++@= ..@Oo**ooO;oOOo**@*o..=oOO;;;;;O;;oo**..++@.$&",
"2>>,,>>2o..@@@..# @o*o**oO;OO:O;Ooo*o;*.#*o;O;;;;;Ooo**.2>>,,>>2",
">,3333,>;o@@++@.# oOo*;O;O:;:<:;;Ooo;o**#=*o;:;;;:Oo*X@.>,3333,>",
">333333>oo*..+@@==o;;OOO;:<<<:;;OoOOooo*#=oo:<;:<;;Oo*X@>333333>",
",333333,*o*X@@..#=*oOO;::<<<:<<:;;O;o*X*#=oO;:<<<:Ooo**.,333333,",
",333333,X;o*XX@@# Xoo;o;O:::<<:;;O;OOo*X= *o::<<:;o;*oX.,333333,",
">333333>XoO;oXX.#=X*oo**o;:<:;OOo;OOo*XX= X*oo:o;OOoX*X@>333333>",
">,3333,>+*;OOooX==@X*X*ooo;:;ooO*oo*Xo*X==XX*oo;:O*oXX..>,3333,>",
"2>>,,>>2.XoO;;o*==.XX*X*o*o;oo**oooo*XXX#=X@*oXoOoX*oX++2>>,,>>2",
"&$++@@@@@@ooo*X*# ++XXXX*XXo*XX*X**oXXX+#=++@X*oo**XX@@+++++++$&",
"&%%++++@@++o*XX## #++@X*XXo*XXXX**XXo++#= #+XXX**XXX@+++++@@@%&&",
"$&&%%$$$%%###=##==   =####===###==#=###==  ==####==##%%%$%$$%$&$",
"$$&&&$   ====   ====      = ==    =   ==     ===      =$&&&&$&$$",
"$$.--@++@-----@X*X*o*XXX--..==..@-*o***oo:;Oo:<::o**X@.-----..$$",
"$%.-@....@++o*XXoooO;o**X*@.#=@@*oooo*o::<:;<<::oOo**XXX++-@@@$&",
"$$@@.@@@@+oo*Xo**o;:o*oo*XX@==.ooOoOO;o;::<<<:OO;;;oo*X..@++..%$",
"$$.@@@..@oo;ooooo:<<:oo;ooXX= @o;;OO;;OOo;:<:OO;:ooo*X@++@.++@%$",
"$%@.*.@@ooOo;;o<:<<:;O;O;oo*# .*oOO;;Ooo;O;O;;;O;:<:oo*.....@+$&",
"$%.*oO@ooOO;OO::<:;oO;OOooo*#=.**ooOOoo*oOo;O;O;Oo:<:Oo**.@+@.$&",
"$%@+oo*oo*oOo;OO:;o;o;Oo*o*X#=@@X*ooOo***o*oOOOoo;O:oO;oX*...+%$",
"$%+Xoo*X*XXooo;;ooooooo*X*XX= +@XXo*Xoo***oooOoo*ooo;ooo*XX@@+%$",
"&$+*XX@*XX*X*oo**o*oo*XX*XX+= +++XXXoo*XX*oXoo**oo*ooo*XXX@@++%&",
"&%*XX+@@@XXXXX*o**X*XX*XX+@#= #++++XXXXX*X**X*XXX*X**XXX@@@++%%&",
"&&%X%$$====###==*XXX##==###=  ==###===XXXXXXX**XXX***===#%%$$%$&",
"$&&&$===   = =  ====  =        ===      ==   = =        ====&&&$",
"$$@----@@@...-XXX*oo;ooo*X---@@-= ..@---*XXX*o*XX@@-------..+-&$",
"&$..@@++..@@*XX*oo:;oo;Oo*XX@...#=@..ooXXX*ooooo*XX.@@.-++++1+$$",
"&$.@@...@+@*Xo*o;o<::;Oo;o*XX+@@# .@ooX*oXX*o;oOo*XX.@@+.@+++.%$",
"&&@@.@@@..*oo;ooO::<o;OOoo*.@@.@# @*oo;o*o:o:O;o*X*+@...@@..@@%$",
"2>>,,>>2@.**oo;Ooo*oo*oooX..2>>,,>>2**o:O:o<::ooo*.@+@..2>>,,>>2",
">,3333,>@@X*oo*ooXX*oX*oX.@.>,3333,>@*Xo:<<:oo;o+1+.@@@@>,3333,>",
">333333>..@X*oX*+@XXo*X*.@@@>333333>.+oX*o<oo*@.@+@@@...>333333>",
",333333,@@.XXX@+@..XXX@@@.@@,333333,@@.XX*X*.@@@@...@@@@,333333,",
",333333,+@@@X++@+@@@++++@@++,333333,+@@@XX@@@+++@@@@++@+,333333,",
">333333>+++@@@++@@+++@@++@@+>333333>+++@@@+@++@@@+++@+++>333333>",
">,3333,>$$$%%%%%$$%$$$%%%%$$>,3333,>$$$%%%%$$$$%%%%$$%%%>,3333,>",
"2>>,,>>2&&$$$$&&&&&&&$$$&&&&2>>,,>>2&&&&&&&&&&$$$&&$$&$$2>>,,>>2"
};
