/* XPM */
static char *polished_blackstone_bricks[] = {
/* columns rows colors chars-per-pixel */
"64 64 6 1 ",
"  c #160F10",
". c #23161F",
"X c #27221C",
"o c #312C36",
"O c #3C3947",
"+ c #4E4B54",
/* pixels */
"ooO+++++++++++OOO++O++O++OO++O+OO++++OOO++O++++OO+++O+++O++OOo. ",
"oooOO+O++OO++O+O+OO++++OOO++++OO+++O++OOOO++++OO+++O+OO++OoOoX  ",
"OoOoOO+++++OOOOOOO++++OO++OO++++OO++OooOO+OO+++OOO++OOoOOOOoOX .",
"oOOO++OO+O++OOoOOOO++O++OOOOOO+OO++OOOooOOOOoO++OOO+OOOoOOooo.  ",
"OOoOOOOOOOoO++OoOoOO+++OOooOOOOOOOOOoooXoXooXo+OooOOoOooOoOooX .",
"OOooOoOOoOooOOoooo++O+OOOOOooOOOoOOoXoXXXoooXXOooOOOoooO+O+OoX. ",
"oOOooooOOoooOOoooOOOOOOOOoOOooOOoXoXXooXooXXoooOoooOOooOO+++Oo  ",
"ooooooOOoooO+OOoooOOoOOoOOooooOoOoXXoXooXXXoOOoooOoooOooO+OOoX. ",
"oooOoOoOooO+++OOooOOooOoooXXoXooXXXXXXXXXoOOOooOOoooOOOo+OooX.  ",
"oOOoOooOOo+++O++oOOoOoXXoXXXXooXXXXoXXoOoXoOooOOooooooOOOoOoX. .",
"ooOOOOooOOO+O++O+OoooXoXXXXXooXXoXXXooOOOOO+OOoooOooOOooOOoooX. ",
"OOoooOOooO+OOoOOOOoOOoooXooXXXooXXXXXoooO++ooOOoooOO+ooooOoXoX. ",
"OoOooooOooOOooOOoOOOoOOoOoXXXoooOXXooXoO++OOoooOoO++OOOOooXXoX..",
"OOOOooooXooOoXOooOooOoOOooXoOOOOooXXooOO+O+ooooooO+OOOoXoXXoXX..",
"OOoOoOoXXoXooXooOooooXoooOoO++OOOOooOOoOO++OooOOooOOoOoOXXXXX.. ",
"ooOOOoooXXooooXXOoOXoXXoOoO++O+OOOOoooooO+OooO+OO+OooOOooXX.X.. ",
"oXOooXoXoXXXoXXoOOoXXoXoXO+OXoOOoXOoooOoOOoooo+++OOOooOoXXoX.. .",
"XoooooXXooXXXoOOOoOoXXXXoOOoXXOOXXoOOoOOOoOoOoO+OoOoXoooXoXX.. .",
"ooooXooXXXXooOOoXXoX.XoXOOoXXXoOXXXoOOooOOooOOOoooOoXXXooooXX.  ",
"oXoooXooXXXXOoXoXoX...XoOXXXXoOooXXXooXoXoooOOoooOOOoXXXoXo.XX. ",
"XoXoXXXX..oXooXXXXX.X..XXOXoXOOOXoXXXXXooXXooOooOOOOooXXo.X.X.  ",
"XXXoX...XXXooXXXoXoXX.XXoooXoOoOoX.X.XoXXXooXOOoOOOoooXoX..XX.  ",
"XXoXXXX..XoooXoXooXX..X.XXooOoooXX.X..XoXoXXXoOOOoOooXooXX..X. .",
".XX..X..XXXXoooXXoX..XX..XXoOoX.X..XX.XXooXXoooOOooXoXXX.X..X.. ",
"X.....XXooXoooXXX.X.....X..ooXX...XXXX.XXXX.XoXXoOXXXoXX...X..  ",
".X...XX.XooXoX...XXX...X..XXoX.X.XX.X...X..XXX.XXoX.oX.XX..XX. .",
"....X.X..X..XXXX..X...XXXXX..X...X..XX....X..XX..X..XX..XX..X.  ",
"XXX.....X..XX.X..X..X..X.XXXX......X.X ..XXX....XX.XX..XX.X.... ",
"..XX.....XX..XXXXXXX.....X..XX.....X...  .........XX.X..X...... ",
"XX.....XX.....XX...XX......XX.X.......  . ............X.......  ",
"..  .  .....  . ..............  .....       .  ..  . ....  .    ",
"....  . ..  .  .............. .  ..  .     . .  ...   .. ..    .",
"+++O+++++OO++++O++O++O++++OOoX .XXXXXXoXXoO++O++++++OO++O++O++O+",
"+OO++++O++OO+++++OOO++O+OoooX. ..XoooXXooOOO++++O+++++O+++O++++O",
"OO++OOOO++++OO++OOO++++OOOoXo.  XoooOoXoOOO+O+O++O+O+OOOO+OOO++O",
"OOOO++OOO++OO+OO++OOO+OOoOoX.X. XooOOOooooOooO+O+OO+++O+OOOO++OO",
"oOoOOooo+O++OOOOOoOOoOOOooXooX .XoXoOoOOOoooOOOOO+OO++++OOOOOOOO",
"ooXoOOooOO+OOOOoooOOoooOOoXoX...XXoooooOoooOooOOOOOOOO+OOOOOOOOO",
"XXoooooOOOOOOOooooOOooooOoooX...oXooOoOOOOoooOOO+OOOOOOOOOOooOoO",
"oXXoXXoooOOOOOoooOO+OoooOoOOo...oooooOOOOoOoOO++OOOOoO++OOoXooOO",
"XXXXoXXoOOOooOOooO+OOooOOOoOoX. XoooOOoO+OOO++O++OOoooO++OOoXXoo",
"XXXoooXXoOoOooOoO++++OoOooOOo.  XoooOoooO++OO+++OOooOo++ooooXoXX",
"oXXooXoooooooOOO++O+OOOOoOOoX. ...ooooOoOO++++OOOOooOO+OOooOoooX",
"XoXXoooOOooXXOoOOOOOOOOoooXoXX. .oooOoOOO+++O++O+OOooOOOOOOoooOo",
"oOOoOOOooXXXooOoOOoOoOooXoXXXX  XooOOOOOOO+OOO++OoOoXOoOOoOOoOOO",
"OoOOOOooooXXXoXXoOXooOXooXXoX.  XooOoOOOooOoO++OOXOXooOOooOoOOOO",
"OOOOooOOoXXoXXooooXoXooXXooXX.. XXooO++OOOOooOOXoXoXooXooOOooOoO",
"oOOoXooooOOoOoooXXoXXoXoXXXX... X.oO+O++OoOoooXoXXXoXoXXoOOOooOO",
"ooOoXooXXoOOoXXooXXXoooXXooX.X...XOOO++OOOooOoXXoXooXXoXoOoOOooo",
"oXoXooXXoooXXXooXXXXXooooXoXXX....OO++O+OOOOoooXXoXXoXXoOOOooOoO",
"oXXXoooXXXooXXXXXXoXoXXoXooXX.. .X++OOOOooOOOXooXXXXXX.XoOOoooOO",
"OoXoXoX.XooXoX.XXoXooooXXoXX..  .XO++OOOOoOooXoXXXX.X..oOOoooXXo",
"OooXX..Xoooooo..XXXXooXXXXX.X. .XooOoOOoOOooXXXXXXX...XoOoXXXXoO",
"oXo..XoooXXoXoX..XXooooXX.....  XoOoOooOooXoXoXXX.X..XoooXXXoooO",
"oXX.XXXoX.XXoX....XXoXXoXX..X.  oooOOOooOOoXXoXXX.....XoXXXoXXoo",
"ooXX.ooX..XoX...X.X..XXXX.XXX.. XoooOoOOOoooooXX.X..X.XXooXXXoXo",
"XXX...X..X..X.X.XXXX..X.XXX.X. .XoXXooooXoXXooXo..X..XX.XXoXoooX",
"X..X..XX...XXXX..X..XXXX.X..X. .XXXooXoooXXoXoooX........XooXooo",
"..XXXX...XXXX..X...X....X..XX...XXXXXooXXXooXXoX.. ...X...XoXXoX",
".XX.......X..X... ....XXXX..X...XoXoooX..XoX..X.  ..X..XXX.XoX..",
".......XXX..XXX...  .XX.XXXXX...XXooXXoX..X.X . .  .XXX..XXXX.X.",
"X... ....XXX... .     .XXXXXX....XXXXXX..X....    ...X..  ......",
".....  ......  ...  .......  ... .  ...... .  .  .....  .   ..  ",
"  .. .  ...  .     . .      . ...  .  .....     . ...  .   .. . "
};
