/* XPM */
static char *polished_basalt_top[] = {
/* columns rows colors chars-per-pixel */
"64 64 6 1 ",
"  c #32333D",
". c #3D3E4C",
"X c #4F4B4F",
"o c gray36",
"O c #747474",
"+ c #898989",
/* pixels */
"    ......XXX...X.XX...XX..    ..XoXXX..X.XXX..  . .oXX.. ..    ",
"  ..X...XXOooX.XoXooX.Xo.X..  ..XoOoXoX..X.XXXX.  .Xoo.X..X     ",
"  .XoX.XXo+OOoX.XooXoXXXoX.  .XXoooOoXoX.XoooX.. .XoOOoX.XXX. . ",
" .XoOooXoO+++OXoooXXXXooOoX.. .XoOO+OoooXoXOOOoX .XO+OooXXXoXX .",
" .oO+OOoXoO+OoooOooXXooOOOoX.XooO+O++OoXXXooOOOX..oO++OooXoXoX. ",
"..oO++OOoo+O+OoO+OooXXoO+OOXXooO+++O++oXoXoO+OoX.Xo++++OOooXX.  ",
"..oOO++OOooO+OO++OOoXoO+OOOXoXO+++OO+O+oXoO++Ooo.XO+O+OOXoX.....",
".XoO+++++OoOO+O+O+OOXOO+O+OXXoOO+OOO++oXXooO++OoXoOO++OooX.X..X.",
" XooOO++O+OXoO++++oOoOO+++OoXoOOO+O+O+OXXOO+++ooooO+OOooXXXooXXX",
" .Xoo+O++OOoXOO++OOoXoOO+O+OXoOoO+OOo+OoXoOO+OOXoO+++OOXXXoOOoX.",
". .XOOOO++OoXoOO+OooXoOoO+OoXooOOOooOoOoXooOO+OoXoO+OoXooOOO+Oo.",
" XXXooOOO++OXXooOooXXXoOOOoXXXoXooXooooXXXoooOoXXoOOoooOO+++OoXX",
".XoXXoooOOOooXXooXXXXooooXooXXXoXXXXXXXXXXXXoXXXXXoXXoOO++OOoXXX",
"X.XooXoOoOOoXXXXXXooooOOooXXXXXXXooooXXXXXoXXoXXXXXXoO+++O+OOXX.",
"XXooOOO++OoooXXoooooOO+OOooXXoXoO+O+OoXXooOOoooooXXoo+O+++OooX..",
".ooO++++O+OoXXooOOoO+O++oOooXooOO++OooXoOOOooOOoXXXoXooO+OooXX. ",
".XoOOO+++++OXooOOoOOO++OOoOOoo+OOO+OOXo+OOoOO+OOoXXXooOOOOOX..  ",
" .XoO++O+OOoXXoO+OOO+++++OOOo++O+O+++Ooo+OO+OO++ooXX.XoOoX..    ",
".X.XXooOOooXXoOOO++O+++O++OooO++O+++OooO++OO+++OOoXXX..X...  .  ",
"..XXoOO+OOooXooOOO+++OO+++OoXoOOoO+OooXooO+++OOoOoXXXXoXX. ... .",
"..oOO++OO+OoooOoO+O+++O++OoXXXXXooOOoXooO+++OoXXoXXXooOooooXX.. ",
".XXoOO+++OOoXooO+++++OoOOoXXXXoXXoooXXXXoO+++OooXXXoXO++oO++oXX.",
" .XoooO+OooXooOOO++OOooXXXXXooXXXXoXXoXXooOO++OooXXoo++OO++O+oXX",
"  ..XoXoooXXXooO+O++oXXXXXoooXooooOooXooXXoooO+OoXooOO+++OO+OoX.",
"    ..XXXXXXXXooOOooXXoXooO+OooOO++OOooXoXXXooOoXooOO+OOOooXoXXX",
" .X..XXXoXooXooO+OOoooXXoO+++++OoO+++oOoXXXoOO+Ooooo+++++OooXXX.",
".XXXooOoOoOooXoOO++OoXXoO+OO++Ooo+O+O+++XXoO++++OoXOoO+O+++OoX. ",
" XoooO+O+OOOoXoO++OOoXooOOO+OOoXXoOO+O+OXoo+O++OooXoOoO+oOOoXX. ",
".oO+O++++++OooO+OOOOOoXOoOOOooXooXXOOOoOoXOoOOOooXXooXooXXooX. .",
"XooO+++OO+OooOO++OO++oXoOOOoXXXXooXo+O+oXXoO+O+OXoXXXooooXXX..X.",
"XXooO+O+OooXoO+++++OoOoXO+oXXXoooooX++ooXo++++OooXXXooOOoooooXX.",
"XX.XoOoXXoXXXoOO++ooOoXXoO+oXoXoooXo+OoXXoO+O++oXoXooOO+OoOOooXX",
"..XXXXXXoXXXoXOoOOOoooXoO++OoXooooXXoOOoXXoO+ooXXoooO+++++++OooX",
".XXoooXoooXXXooooOXXoXXo++OOXXooXXXoO++oXXXoXXXXooXooOO+++OO+ooX",
"XXooOOOOOooXXXooOooXXXoO++OooXXXXooo++OOXXXXooXooXXXooOOO++OOXX.",
"XXXooO+OO+OoXoOO+OOoXXoo+OoOooXooOoO+O+oXoXooOoOoXXooOooOOooooXX",
"X.oOOOO++++OoO+++++OoXXoO+O++OoOO+O+OOOooXoOOoOOOoXooooooOOooXX.",
".XXO++++OOOoXoOO++O+oXXXoO++++OO++++++ooXXoO++OOOooXoXXooooXX.X.",
"XXXoO++O+OooXXoOO++OOoXXoOoOO+O+OOOo+OoXXoO++++++OXXXXoXXX.....X",
".XXXoOOoooOoXooo+OOOooXXXoXoOoooOooXooooXXoOO++OOoXXoooooXX. ..X",
".  .XXooOOOOoXoXoOOoXooXXXooXXoXXXXoXoXXoXXo++OOoOoXXoOOOooX.  .",
" ..XooOO+O+ooXXoOO+OoXXXXXXXXXXoXXXXXXXoOoXooO++OooXoOoO+OooX.  ",
"..XoO+++O+OOoXXoO+++OoXooXXXoXXXXXoooXXO+OoXXoO++oXX++O+++OoXX. ",
".X.XoOO++OOoXXoO+++++OoOOoXooOooooOoXoXOO+OOoXoOooXoO++++O+OOX. ",
"XXXXXXoooXXXXoO+O+O+OOO++OoXO+OO+OO+oooOO++OOoXoOoXXooOO++OOo.X.",
"..oXoooOOooXXooOOO++++OO+OoOO++OO+O+Oooo++O+OOooooXXXoo+OOooXX..",
".XooOoOO+OooXXooOOO++O+OO+OOoO++O++OOoXOO++++oOooXXXoXXoOoXXo.  ",
"XoOooO++O++oXXoOOoOO++OOOOooOO+O+++++OXooO+OOOOoXoXoooXXoXoXX  .",
".XoOO+++++OOXoXooooO+OOoooXooOo+O+O+OooXooo+OooooXXoOO+oXXXX..X.",
".oOOoO+OOOOooXXXoXooOooXoXoXXoXooOOOooXXXoXoooXXXXXo++OOOooooXXX",
"XXooOOO+OoooXXXXXXXXXXXXXXXXXXXXoooXXXXXXXXXXXoXXoXXO++++OOooooX",
"XooXXooOoo+OooXXooXXoXooXXooXXXoOOXXXXXXoooXXXXooooXoOO+++oOOoXX",
".XX.XXooO+++OoXoOooXXoOoXoOooXoOo+OoXXXoOO+OoXoO+oOoXooO+OOooXX.",
". .XooOO+O+OoOoO+OOoXo+OoO+OXoo+O+OXXooOoOO+oXooO+OOoXooOOoXXX..",
" .XoO+++O+OoooOOO+OOXoO+O+OOoXOO+OoXoXooOO++OoXoO++ooXoO+oXX.XX.",
".XXO++OO+OoooO+OO++OXXo++++OoXo++OooXoOoOO++OoXXo+O+ooXO+OooX.. ",
"XXoOO++OOo.Xo+OOOO+OXXoO++++Ooo++O+oXooOO++OoXXoOo+OOoXXO++OoX  ",
"XoO++OOoo.XoO++OO+OoXoXoO++OOoOO++OoXXoO+++OooXXoO++OOoXoO+oX.. ",
"XXoOOOoOX.ooO+++OOoX.Xoo+O+OoXoOO+Oo.XOOo+OoOoXXooo++oOXXooXXX..",
".XXoOooX.XoO+O+OOOXX.XoOOO+oXXoo+OoX.XoOoo+Ooo.XXoOOO+Oo.XXoX.  ",
"...XoX....XoO+OoOoX. .oXooOoXooO+OoX .XoOoOXoX XoXooOOoX..XX.   ",
"  ..X.. . XooO+ooXXX..XoXooX.XooXoXX. XooOooX.. .XXoooXX....... ",
".  . ..  ..XoooXoX.X ..XXXXX..XX.XX. .XXoX.X.  .XXoXXX...    .  ",
"    ..   ..XXoXX.  .  ..XXX....XX.X.  .XXXX.X.  ...XX.. ..      "
};
