/* XPM */
static char *potted_flowering_azalea_bush_top[] = {
/* columns rows colors chars-per-pixel */
"64 64 10 1 ",
"  c #575016",
". c #495E27",
"X c #50692C",
"o c #647233",
"O c #70922D",
"+ c #6C8031",
"@ c #9E5088",
"# c #BA62CE",
"$ c #D07BE3",
"% c None",
/* pixels */
"%%%%%%%%%%%%%%%%%%%%%%%%%%%%%%%%%%%%%%%%%%%%%%%%%%%%%%%%%%%%%%%%",
"%%%%%%%%%%%%%%%%%%%%%%%%%%%%%%%%%%%%%%%%%%%%%%%%%%%%%%%%%%%%%%%%",
"%%%%%%%%%%%%%%%%%%%%%%%%%%%%%%%%%%%%%%%%%%%%%%%%%%%%%%%%%%%%%%%%",
"%%%%%%%%%%%%%%%%%%%%%%%%%%%%%%%%%%%%%%%%%%%%%%%%%%%%%%%%%%%%%%%%",
"%%%%%%%%%%%%%%%%%%%%%%%%%%%%%%%%%%%%%%%%%%%%%%%%%%%%%%%%%%%%%%%%",
"%%%%%%%%%%%%%%%%%%%%%%%%%%%%%%%%%%%%%%%%%%%%%%%%%%%%%%%%%%%%%%%%",
"%%%%%%%%%%%%%%%%%%%%%%%%%%%%%%%%%%%%%%%%%%%%%%%%%%%%%%%%%%%%%%%%",
"%%%%%%%%%%%%%%%%%%%%%%%%%%%%%%%%%%%%%%%%%%%%%%%%%%%%%%%%%%%%%%%%",
"%%%%%%%%%%%%%%%%%%%%%%%%%%%%%%%%%%%%%%%%%%%%%%%%%%%%%%%%%%%%%%%%",
"%%%%%%%%%%%%%%%%%%%%%%%%%%%%%%%%%%%%%%%%%%%%%%%%%%%%%%%%%%%%%%%%",
"%%%%%%%%%%%%%%%%%%%%%%%%%%%%%%%%%%%%%%%%%%%%%%%%%%%%%%%%%%%%%%%%",
"%%%%%%%%%%%%%%%%%%%%%%%%%%%%%%%%%%%%%%%%%%%%%%%%%%%%%%%%%%%%%%%%",
"%%%%%%%%%%%%%%%%%%%%%%%%%%%%%%%%%%%%%%%%%%%%%%%%%%%%%%%%%%%%%%%%",
"%%%%%%%%%%%%%%%%%%%%%%%%%%%%%%%%%%%%%%%%%%%%%%%%%%%%%%%%%%%%%%%%",
"%%%%%%%%%%%%%%%%%%%%%%%%%%%%%%%%%%%%%%%%%%%%%%%%%%%%%%%%%%%%%%%%",
"%%%%%%%%%%%%%%%%%%%%%%%%%%%%%%%%%%%%%%%%%%%%%%%%%%%%%%%%%%%%%%%%",
"%%%%%%%%%%%%%%%%OOOO++O+++++oXoOO++OO+Xo+O++Xo++%%%%%%%%%%%%%%%%",
"%%%%%%%%%%%%%%%%+++++o++OO+oXX+O++OO++XoOOO+Xo+O%%%%%%%%%%%%%%%%",
"%%%%%%%%%%%%%%%%OOO+++ooooXXXo+O+O+O+Xo+++OXX++O%%%%%%%%%%%%%%%%",
"%%%%%%%%%%%%%%%%OO++OO+++oooXoO++O++oXooo++Xo+O+%%%%%%%%%%%%%%%%",
"%%%%%%%%%%%%%%%%++OOO++OOO+oXo++OO+#X#$X#oXo+++o%%%%%%%%%%%%%%%%",
"%%%%%%%%%%%%%%%%oo++OOOOO++oXooOO+$##$#@#@Xooooo%%%%%%%%%%%%%%%%",
"%%%%%%%%%%%%%%%%XooOO++++ooXoXoO+##$$$$#@@@XXXXX%%%%%%%%%%%%%%%%",
"%%%%%%%%%%%%%%%%oXoooO++ooXooXo+$$$$#..$#@@@+ooo%%%%%%%%%%%%%%%%",
"%%%%%%%%%%%%%%%%ooXXXoooXXo+oXo+o#$#.XX.$#@OOO+o%%%%%%%%%%%%%%%%",
"%%%%%%%%%%%%%%%%++ooXXXXo++O+XXo#$$.XX.. @@@O++O%%%%%%%%%%%%%%%%",
"%%%%%%%%%%%%%%%%OO++oXoo+OOO+oXX$$$X.X.  #@@++++%%%%%%%%%%%%%%%%",
"%%%%%%%%%%%%%%%%O++++oX+OOO+oooXX#$$ .  #@#OOOOO%%%%%%%%%%%%%%%%",
"%%%%%%%%%%%%%%%%OO+O+oX+++OooXXX$$##$  ###@@OO++%%%%%%%%%%%%%%%%",
"%%%%%%%%%%%%%%%%OOOO++oX+ooXXXoXX$$#$$$$#@@++OO+%%%%%%%%%%%%%%%%",
"%%%%%%%%%%%%%%%%+O++++oXooXXooooXo@##$$@@@XX++++%%%%%%%%%%%%%%%%",
"%%%%%%%%%%%%%%%%+++O++ooXXooo+ooX++@O#@+@+oXXo+O%%%%%%%%%%%%%%%%",
"%%%%%%%%%%%%%%%%++OOO+oXooo++oooXo+OO++OO+++OOOO%%%%%%%%%%%%%%%%",
"%%%%%%%%%%%%%%%%O++O+oXoo+++ooXXXX+++OOOOOOOO++O%%%%%%%%%%%%%%%%",
"%%%%%%%%%%%%%%%%O+O++Xoo+++ooXoXXXo+OOOOOO+++O+o%%%%%%%%%%%%%%%%",
"%%%%%%%%%%%%%%%%O+OOoXo++O+oXoooXXoo++O+O++XXooX%%%%%%%%%%%%%%%%",
"%%%%%%%%%%%%%%%%O+O+Xo++OO$Xo+ooXXoXo+oooXXooXXX%%%%%%%%%%%%%%%%",
"%%%%%%%%%%%%%%%%+++oX+++O$$$O++ooXXXooXXXo++ooXo%%%%%%%%%%%%%%%%",
"%%%%%%%%%%%%%%%%O++Xo+OO+$$$O+OooXXXXXooo++++ooX%%%%%%%%%%%%%%%%",
"%%%%%%%%%%%%%%%%+OoX++OO$##$$OOooXXooooo++O+++oX%%%%%%%%%%%%%%%%",
"%%%%%%%%%%%%%%%%++Xo+OOO##$$#O++oXoo+oX++OO++O+o%%%%%%%%%%%%%%%%",
"%%%%%%%%%%%%%%%%++XoOOO+@$#$@O+OoXo+++oX++OOO+++%%%%%%%%%%%%%%%%",
"%%%%%%%%%%%%%%%%+oX+OOO++#@#OOOOoXo++O+oX++OOO+O%%%%%%%%%%%%%%%%",
"%%%%%%%%%%%%%%%%XXoOO+O+o@+@+OO+ooX++O++oX++O+O+%%%%%%%%%%%%%%%%",
"%%%%%%%%%%%%%%%%XXo+O+OOO+++OO+O+oXo+OO++XoO++O+%%%%%%%%%%%%%%%%",
"%%%%%%%%%%%%%%%%XXX+++OO++O+OOO++oXoO+O++oX++OO+%%%%%%%%%%%%%%%%",
"%%%%%%%%%%%%%%%%Xo.Xo++O+OOOOOO+O+Xo++OO++X++OO+%%%%%%%%%%%%%%%%",
"%%%%%%%%%%%%%%%%ooX.Xo+O+OO+OOOOOoX++++O++oX+O++%%%%%%%%%%%%%%%%",
"%%%%%%%%%%%%%%%%%%%%%%%%%%%%%%%%%%%%%%%%%%%%%%%%%%%%%%%%%%%%%%%%",
"%%%%%%%%%%%%%%%%%%%%%%%%%%%%%%%%%%%%%%%%%%%%%%%%%%%%%%%%%%%%%%%%",
"%%%%%%%%%%%%%%%%%%%%%%%%%%%%%%%%%%%%%%%%%%%%%%%%%%%%%%%%%%%%%%%%",
"%%%%%%%%%%%%%%%%%%%%%%%%%%%%%%%%%%%%%%%%%%%%%%%%%%%%%%%%%%%%%%%%",
"%%%%%%%%%%%%%%%%%%%%%%%%%%%%%%%%%%%%%%%%%%%%%%%%%%%%%%%%%%%%%%%%",
"%%%%%%%%%%%%%%%%%%%%%%%%%%%%%%%%%%%%%%%%%%%%%%%%%%%%%%%%%%%%%%%%",
"%%%%%%%%%%%%%%%%%%%%%%%%%%%%%%%%%%%%%%%%%%%%%%%%%%%%%%%%%%%%%%%%",
"%%%%%%%%%%%%%%%%%%%%%%%%%%%%%%%%%%%%%%%%%%%%%%%%%%%%%%%%%%%%%%%%",
"%%%%%%%%%%%%%%%%%%%%%%%%%%%%%%%%%%%%%%%%%%%%%%%%%%%%%%%%%%%%%%%%",
"%%%%%%%%%%%%%%%%%%%%%%%%%%%%%%%%%%%%%%%%%%%%%%%%%%%%%%%%%%%%%%%%",
"%%%%%%%%%%%%%%%%%%%%%%%%%%%%%%%%%%%%%%%%%%%%%%%%%%%%%%%%%%%%%%%%",
"%%%%%%%%%%%%%%%%%%%%%%%%%%%%%%%%%%%%%%%%%%%%%%%%%%%%%%%%%%%%%%%%",
"%%%%%%%%%%%%%%%%%%%%%%%%%%%%%%%%%%%%%%%%%%%%%%%%%%%%%%%%%%%%%%%%",
"%%%%%%%%%%%%%%%%%%%%%%%%%%%%%%%%%%%%%%%%%%%%%%%%%%%%%%%%%%%%%%%%",
"%%%%%%%%%%%%%%%%%%%%%%%%%%%%%%%%%%%%%%%%%%%%%%%%%%%%%%%%%%%%%%%%",
"%%%%%%%%%%%%%%%%%%%%%%%%%%%%%%%%%%%%%%%%%%%%%%%%%%%%%%%%%%%%%%%%"
};
