/* XPM */
static char *powered_rail_on[] = {
/* columns rows colors chars-per-pixel */
"64 64 17 1 ",
"  c #513D24",
". c #67502C",
"X c #7E6237",
"o c #686868",
"O c #72796E",
"+ c #880300",
"@ c #AB0301",
"# c #D40102",
"$ c #967441",
"% c #C9881D",
"& c #DCAE29",
"* c #F3C12A",
"= c #A6824D",
"- c gray61",
"; c #ABACAB",
": c gray75",
"> c None",
/* pixels */
">>>>>>>>:;----Oo%*>>>>>>>>>>>>>>>>>>>>>>>>>>>>*%oO----;:>>>>>>>>",
">>>>>>>>:;----Oo%*>>>>>>>>>>>>>>>>>>>>>>>>>>>>&%oO----;:>>>>>>>>",
">>>>>>>>:;----Oo%&>>>>>>>>>>>>>>>>>>>>>>>>>>>>*%oO----;:>>>>>>>>",
">>>>>>>>:;----Oo%&>>>>>>>>>>>>>>>>>>>>>>>>>>>>*%oO----;:>>>>>>>>",
">>>>==$$:;----Oo%&@@X$$$$$$$$===$=$X$$$$$$XX@@&%oO----;:$$XX>>>>",
">>>>====:;----Oo%&##XXX$===$XXX$===$XXXXXXX$##*&oO----;:==$$>>>>",
">>>>X==$:;----Oo&&##=XXXXX==$$XXXXXXXX===$$X##*%oO----;:$$$X>>>>",
">>>>=$$X:;----Oo&&##XX$$$$===$$X$$XX==$$$$XX##&%oO----;:XXXX>>>>",
">>>>XXXX:;----Oo&&##$$=====$$$X$X$$XXXXX$$$$##&%oO----;:XX$$>>>>",
">>>>=X==:;----Oo%&##XXXXX===$$$===X$$$$XXX==##&%oO----;:$===>>>>",
">>>>. ..:;----Oo%*##   ....... .............##*%oO----;:. ..>>>>",
">>>>    :;----Oo%*@@                        @@*&oO----;:    >>>>",
">>>>>>>>:;----Oo%&>>>>>>>>>>++++++++>>>>>>>>>>*&oO----;:>>>>>>>>",
">>>>>>>>:;----Oo%&>>>>>>>>>>++@@+@@+>>>>>>>>>>*&oO----;:>>>>>>>>",
">>>>>>>>:;----Oo&*>>>>>>>>>>+@##@#++>>>>>>>>>>*&oO----;:>>>>>>>>",
">>>>>>>>:;----Oo%&>>>>>>>>>>+####@++>>>>>>>>>>&%oO----;:>>>>>>>>",
">>>>>>>>:;----Oo%&>>>>>>>>>>+@@###@+>>>>>>>>>>&%oO----;:>>>>>>>>",
">>>>>>>>:;----Oo%&>>>>>>>>>>+@#@#@#+>>>>>>>>>>&%oO----;:>>>>>>>>",
">>>>>>>>:;----Oo&&>>>>>>>>>>+++@@+@+>>>>>>>>>>*%oO----;:>>>>>>>>",
">>>>>>>>:;----Oo&*>>>>>>>>>>++++++++>>>>>>>>>>&%oO----;:>>>>>>>>",
">>>>$$XX:;----Oo%*@@==$XXX$X=X$$X$$$===$$XX$@@*%oO----;:X==X>>>>",
">>>>XX$$:;----Oo%*##$X$$$$XX==X$$=$$$$$XXX$=##*%oO----;:=$$$>>>>",
">>>>X$XX:;----Oo%*##$$$$XX$XXXXX====XXXX$$$$##*%oO----;:$XXX>>>>",
">>>>$$$X:;----Oo%*##$XXX$$==$$$X=$$$$==XXX==##&%oO----;:X$$$>>>>",
">>>>XXX=:;----Oo%&##$$$XXXX===X$XX==XX=$$$$$##&&oO----;:XXX$>>>>",
">>>>===X:;----Oo%&##XX$$====$$$$$=XXX====$XX##&&oO----;:$X=X>>>>",
">>>>.. .:;----Oo%&##........ .  ............##&&oO----;:... >>>>",
">>>>    :;----Oo%*@@                        @@&%oO----;:    >>>>",
">>>>>>>>:;----Oo%&>>>>>>>>>>++++++++>>>>>>>>>>&%oO----;:>>>>>>>>",
">>>>>>>>:;----Oo%&>>>>>>>>>>++@@+@@+>>>>>>>>>>&%oO----;:>>>>>>>>",
">>>>>>>>:;----Oo%*>>>>>>>>>>+@##@#++>>>>>>>>>>&%oO----;:>>>>>>>>",
">>>>>>>>:;----Oo&*>>>>>>>>>>+####@++>>>>>>>>>>*%oO----;:>>>>>>>>",
">>>>>>>>:;----Oo&*>>>>>>>>>>+@@###@+>>>>>>>>>>*%oO----;:>>>>>>>>",
">>>>>>>>:;----Oo&*>>>>>>>>>>+@#@#@#+>>>>>>>>>>*&oO----;:>>>>>>>>",
">>>>>>>>:;----Oo&*>>>>>>>>>>+++@@+@+>>>>>>>>>>*%oO----;:>>>>>>>>",
">>>>>>>>:;----Oo&&>>>>>>>>>>++++++++>>>>>>>>>>*%oO----;:>>>>>>>>",
">>>>$$XX:;----Oo&&@@$$$=XX$$==XX$=$=XX$$XXXX@@&%oO----;:$$$X>>>>",
">>>>==$$:;----Oo&&##XX=$$$$$$======$$$$$=$$X##&%oO----;:$$XX>>>>",
">>>>XXX$:;----Oo%&##$$$XX==$$$=$$XX==$XXXXXX##&%oO----;:$X$$>>>>",
">>>>$$XX:;----Oo%&##XXXX$$X$X$XXXX$$X$$$$$$$##&%oO----;:$===>>>>",
">>>>XXX$:;----Oo%&##$$XXXXXX$$$$$$$=$$$XX$=X##&%oO----;:$$$$>>>>",
">>>>$XXX:;----Oo%&##$==$X$$$XX===X$=XXXX$$$$##*%oO----;:====>>>>",
">>>> ...:;----Oo%*##....  ........... ..... ##*&oO----;:.. .>>>>",
">>>>    :;----Oo%&@@                        @@&&oO----;:    >>>>",
">>>>>>>>:;----Oo&*>>>>>>>>>>++++++++>>>>>>>>>>&%oO----;:>>>>>>>>",
">>>>>>>>:;----Oo%*>>>>>>>>>>++@@+@@+>>>>>>>>>>&%oO----;:>>>>>>>>",
">>>>>>>>:;----Oo%*>>>>>>>>>>+@##@#++>>>>>>>>>>&%oO----;:>>>>>>>>",
">>>>>>>>:;----Oo%&>>>>>>>>>>+####@++>>>>>>>>>>*%oO----;:>>>>>>>>",
">>>>>>>>:;----Oo%&>>>>>>>>>>+@@###@+>>>>>>>>>>&&oO----;:>>>>>>>>",
">>>>>>>>:;----Oo&&>>>>>>>>>>+@#@#@#+>>>>>>>>>>&&oO----;:>>>>>>>>",
">>>>>>>>:;----Oo&&>>>>>>>>>>+++@@+@+>>>>>>>>>>&&oO----;:>>>>>>>>",
">>>>>>>>:;----Oo%&>>>>>>>>>>++++++++>>>>>>>>>>&&oO----;:>>>>>>>>",
">>>>=X=X:;----Oo%&@@===XXXX$$$X$$XXXX$$$XX$$@@&&oO----;:====>>>>",
">>>>X$$$:;----Oo%&##XXXX$X$XX$$$$$$$=====XX$##&&oO----;:$$XX>>>>",
">>>>=XXX:;----Oo%&##$$X==$=$==$X=$$=XXX$XX$$##&&oO----;:==$$>>>>",
">>>>$$$$:;----Oo%&##==$$$$==$$$X$XX===$XXXXX##*&oO----;:$XX=>>>>",
">>>>==$X:;----Oo%*##$XXX$$XXX$X$X$=XXX==$$$$##*%oO----;:$X==>>>>",
">>>>XXXX:;----Oo&&##X$$=X$X$==X$$===========##*%oO----;:X===>>>>",
">>>>... :;----Oo&*##....... ........    ....##&%oO----;:.. .>>>>",
">>>>    :;----Oo%*@@                        @@*%oO----;:    >>>>",
">>>>>>>>:;----Oo%*>>>>>>>>>>>>>>>>>>>>>>>>>>>>*%oO----;:>>>>>>>>",
">>>>>>>>:;----Oo&*>>>>>>>>>>>>>>>>>>>>>>>>>>>>&%oO----;:>>>>>>>>",
">>>>>>>>:;----Oo%&>>>>>>>>>>>>>>>>>>>>>>>>>>>>&%oO----;:>>>>>>>>",
">>>>>>>>:;----Oo%&>>>>>>>>>>>>>>>>>>>>>>>>>>>>&%oO----;:>>>>>>>>"
};
