/* XPM */
static char *purple_candle[] = {
/* columns rows colors chars-per-pixel */
"64 64 6 1 ",
"  c #212034",
". c #621C9C",
"X c #6A24A4",
"o c #832CB4",
"O c #8B30BD",
"+ c None",
/* pixels */
"++++++++++++++++++++++++++++++++++++++++++++++++++++++++++++++++",
"++++++++++++++++++++++++++++++++++++++++++++++++++++++++++++++++",
"++++++++++++++++++++++++++++++++++++++++++++++++++++++++++++++++",
"++++++++++++++++++++++++++++++++++++++++++++++++++++++++++++++++",
"++++++++++++++++++++++++++++++++++++++++++++++++++++++++++++++++",
"++++++++++++++++++++++++++++++++++++++++++++++++++++++++++++++++",
"++++++++++++++++++++++++++++++++++++++++++++++++++++++++++++++++",
"++++++++++++++++++++++++++++++++++++++++++++++++++++++++++++++++",
"++++++++++++++++++++++++++++++++++++++++++++++++++++++++++++++++",
"++++++++++++++++++++++++++++++++++++++++++++++++++++++++++++++++",
"++++++++++++++++++++++++++++++++++++++++++++++++++++++++++++++++",
"++++++++++++++++++++++++++++++++++++++++++++++++++++++++++++++++",
"++++++++++++++++++++++++++++++++++++++++++++++++++++++++++++++++",
"++++++++++++++++++++++++++++++++++++++++++++++++++++++++++++++++",
"++++++++++++++++++++++++++++++++++++++++++++++++++++++++++++++++",
"++++++++++++++++++++++++++++++++++++++++++++++++++++++++++++++++",
"++++++++++++++++++++++++++++++++++++++++++++++++++++++++++++++++",
"++++++++++++++++++++++++++++++++++++++++++++++++++++++++++++++++",
"++++++++++++++++++++++++++++++++++++++++++++++++++++++++++++++++",
"++++++++++++++++++++++++++++++++++++++++++++++++++++++++++++++++",
"  ++++++++++++++++++++++++++++++++++++++++++++++++++++++++++++++",
"  ++++++++++++++++++++++++++++++++++++++++++++++++++++++++++++++",
"++  ++++++++++++++++++++++++++++++++++++++++++++++++++++++++++++",
"++  ++++++++++++++++++++++++++++++++++++++++++++++++++++++++++++",
"oOOOOOoo++++++++++++++++++++++++++++++++++++++++++++++++++++++++",
"ooOoOOOo++++++++++++++++++++++++++++++++++++++++++++++++++++++++",
"oOoXXooO++++++++++++++++++++++++++++++++++++++++++++++++++++++++",
"OoXXXXOO++++++++++++++++++++++++++++++++++++++++++++++++++++++++",
"ooXXXXOo++++++++++++++++++++++++++++++++++++++++++++++++++++++++",
"oooXXoOo++++++++++++++++++++++++++++++++++++++++++++++++++++++++",
"oOoooOoo++++++++++++++++++++++++++++++++++++++++++++++++++++++++",
"OoooOOOo++++++++++++++++++++++++++++++++++++++++++++++++++++++++",
"OOOOOOOO++++++++++++++++++++++++++++++++++++++++++++++++++++++++",
"OOoOOoOO++++++++++++++++++++++++++++++++++++++++++++++++++++++++",
"OooOoXoO++++++++++++++++++++++++++++++++++++++++++++++++++++++++",
"ooOoXooO++++++++++++++++++++++++++++++++++++++++++++++++++++++++",
"oXooXXoo++++++++++++++++++++++++++++++++++++++++++++++++++++++++",
"XXoXXXoO++++++++++++++++++++++++++++++++++++++++++++++++++++++++",
"XXXoXXOO++++++++++++++++++++++++++++++++++++++++++++++++++++++++",
"XXXXXXoO++++++++++++++++++++++++++++++++++++++++++++++++++++++++",
"X.oXXXXo++++++++++++++++++++++++++++++++++++++++++++++++++++++++",
"XXoXXXXo++++++++++++++++++++++++++++++++++++++++++++++++++++++++",
"X.OoXXXX++++++++++++++++++++++++++++++++++++++++++++++++++++++++",
"X.oOXXXX++++++++++++++++++++++++++++++++++++++++++++++++++++++++",
".XoXXXXX++++++++++++++++++++++++++++++++++++++++++++++++++++++++",
".XXXXXXX++++++++++++++++++++++++++++++++++++++++++++++++++++++++",
"XXXXX.XX++++++++++++++++++++++++++++++++++++++++++++++++++++++++",
"XXXXXXXX++++++++++++++++++++++++++++++++++++++++++++++++++++++++",
"X.XXX.XX++++++++++++++++++++++++++++++++++++++++++++++++++++++++",
"X.XX..XX++++++++++++++++++++++++++++++++++++++++++++++++++++++++",
".XXX.XXX++++++++++++++++++++++++++++++++++++++++++++++++++++++++",
"..XXX.XX++++++++++++++++++++++++++++++++++++++++++++++++++++++++",
"...X..XX++++++++++++++++++++++++++++++++++++++++++++++++++++++++",
"..XX..XX++++++++++++++++++++++++++++++++++++++++++++++++++++++++",
"..X....X++++++++++++++++++++++++++++++++++++++++++++++++++++++++",
".X.....X++++++++++++++++++++++++++++++++++++++++++++++++++++++++",
"........++++++++++++++++++++++++++++++++++++++++++++++++++++++++",
"........++++++++++++++++++++++++++++++++++++++++++++++++++++++++",
"........++++++++++++++++++++++++++++++++++++++++++++++++++++++++",
"........++++++++++++++++++++++++++++++++++++++++++++++++++++++++",
"........++++++++++++++++++++++++++++++++++++++++++++++++++++++++",
"........++++++++++++++++++++++++++++++++++++++++++++++++++++++++",
"........++++++++++++++++++++++++++++++++++++++++++++++++++++++++",
"........++++++++++++++++++++++++++++++++++++++++++++++++++++++++"
};
