/* XPM */
static char *quartz_block_side[] = {
/* columns rows colors chars-per-pixel */
"64 64 6 1 ",
"  c #DDD9CB",
". c #E2DED0",
"X c #EAE2DA",
"o c #EEE6DE",
"O c #EEEAE6",
"+ c #F2EFED",
/* pixels */
"++++++++++++++++++++++++++++++++++++++++++++++++++++++++++++++++",
"+oooooooooooooooooooooooooooooooooooooooooooooooooooooooooooooo.",
"+oooOOOOOOOOOOOOOOOOOOOOOOOOOOOOOOOOOOooooooooooXXXXXXXXXXXXXX. ",
"+oOOOOOOOOOOOOOOOOOOOOOOOOOOOOOOOOOOooooooooooXXXXXXXXXXXXXXoo. ",
"+oOOOOOOOOOOOOOOOOOOOOOOOOOOOOooooooooooooXXXXXXXXXXXXXXXooooo. ",
"+oOOOOOOOOOOOOOOOOOOOOOOooooooooooooooooXXXXXXXXXXXXXXXoooooOO. ",
"+oOOOOOOOOOOOOOOOOOOooooooooooooooooXXXXXXXXXXXXXXXXXooooOOOOO. ",
"+oOOOOOOOOOOOOOoooooooooooooooooooXXXXXXXXXXXXXXXXXooooOOOOOOO. ",
"+oOOOOOOOoooooooooooooooooooooooXXXXXXXXXXXXXXXXXXoooOOOOOOOOO. ",
"+oOOooooooooooooooooooooooooooXXXXXXXXXXXXXXXXXooooOOOOOOOOOOO. ",
"+ooooooooooooooooooooooooooXXXXXXXXXXXXXXXXXoooooOOOOOOOOOOOoo. ",
"+oooooooooooooooooooooooXXXXXXXXXXXXXXXXXoooooooOOOOOOOOOOoooo. ",
"+ooooooooooooooooooooXXXXXXXXXXXXXXXXXooooooooOOOOOOOOOOoooooo. ",
"+oooooooooooooooooXXXXXXXXXXXXXXXXXXooooooooOOOOOOOOOOoooooooo. ",
"+ooooooooooooooXXXXXXXXXXXXXXXXXXXooooooooOOOOOOOOOOoooooooooo. ",
"+oooooooooooXXXXXXXXXXXXXXXXXXXoooooooooOOOOOOOOOooooooooooooo. ",
"+ooooooooXXXXXXXXXXXXXXXXXXXooooooooOOOOOOOOOOoooooooooooooooo. ",
"+oooooXXXXXXXXXXXXXXXXXXXooooooooOOOOOOOOOoooooooooooooooooooo. ",
"+ooXXXXXXXXXXXXXXXXXXXoooooooooooooooooooooooooooooooooooooooo. ",
"OoXXXXXXXXXXXXXXXXXooooooooooooooooooooooooooooooooooooooooooX. ",
"OoXXXXXXXXXXXXXXooooooooooooooXXXXXXooooooooooooooooooooooXXXX. ",
"OoXXXXXXXXXXooooooooooooooXXXXXXXXoooooooooooooooooooooXXXXXXX. ",
"OoXXXXXXoooooooooooooooXXXXXXXXXooooooooooooooooooooXXXXXXXXXX. ",
"OoXXooooooooooooooooXXXXXXXXXXoooooooooooooooooooXXXXXXXXXXXXX. ",
"+oooooooooooooooXXXXXXXXXXXXooooooOOOoooooooooXXXXXXXXXXXXXXoo. ",
"+oooooooooooXXXXXXXXXXXXXXooooooOOOOoooooooXXXXXXXXXXXXXoooooo. ",
"+ooooooooXXXXXXXXXXXXXXoooooooOOOOoooooooXXXXXXXXXXXoooooooooo. ",
"+oooooXXXXXXXXXXXXXooooooooOOOOOOooooooXXXXXXXXXXooooooooooooo. ",
"+oooXXXXXXXXooooooooooooOOOOOOOOoooooXXXXXXXXXXooooooooooooooo. ",
"+oXXXXXXooooooooooooooOOOOOOOOoooooXXXXXXXXXXooooooooooooooooo. ",
"+oooooooooooooooooOOOOOOOOOOoooooXXXXXXXXXoooooooooooooooooooo. ",
"+oooooooooooooooOOOOOOOOOOooooooXXXXXXoooooooooooooooooooooooo. ",
"+ooooooooooooOOOOOOOOOOOoooooooooooooooooooooooooooooooooooooO. ",
"+oOOOOooooOOOOOOOOOOOOooooooooooooooooooooooooooooooooooooOOOO. ",
"+oOOOOOOOOOOOOOOOOOOoooooooooooooooooooooooooooooooooooOOOOOOO. ",
"+oOOOOOOOOOOOOOOooooooooooooooooooooooooooooooooooooOOOOOOOOOO. ",
"+oOOOOOOOOOOoooooooooooooXXXXXooooooooooooooooooOOOOOOOOOOOOOO. ",
"+oOOOOOOOOooooooooooooXXXXXXooooooooooooooooOOOOOOOOOOOOOOOOOO. ",
"+oOOOOOoooooooooooooXXXXXXoooooooooooooooOOOOOOOOOOOOOOOOOOOOO. ",
"+oooooooooooooooooXXXXXXooooooooooooooOOOOOOOOOOOOOOOOOOOOOOoo. ",
"+oooooooooooooooXXXXXXoooooooooooOOOOOOOOOOOOOOOOOOOOOOOoooooo. ",
"+oooooooooooooXXXXXXooooooooooOOOOOOOOOOOOOOOOOOOOOOoooooooooo. ",
"OoooooooooooXXXXXoooooooooOOOOOOOOOOOOOOOOOOOOOOooooooooooooXX. ",
"OoXXooooooXXXXXoooooooooOOOOOOOOOOOOOOOOOOOOoooooooooooooXXXXX. ",
"OoXXXXooooooooooooooooOOOOOOOOOOOOOOOOOOooooooooooooooXXXXXXXX. ",
"OoXXXXXoooooooooooooOOOOOOOOOOOOOOOOooooooooooooooXXXXXXXXXXXX. ",
"+ooooooooooooooooOOOOOOOOOOOOOOOoooooooooooooooXXXXXXXXXXXXXXo. ",
"+oooooooooooooOOOOOOOOOOOOOOooooooooooooooooXXXXXXXXXXXXXXXooo. ",
"+ooooOOOOOOOOOOOOOOOOOOOoooooooooooooooooXXXXXXXXXXXXXXXoooooo. ",
"+oOOOOOOOOOOOOOOOOOOOOooooooooooooooXXXXXXXXXXXXXXXXXoooooooOO. ",
"+oOOOOOOOOOOOOOOOOOOooooooooooooXXXXXXXXXXXXXXXXXXooooooooOOOO. ",
"+oOOOOOOOOOOOOOOOOoooooooooooooooXXXXXXXXXXXXXXooooooooOOOOOOO. ",
"+oOOOOOOOOOOOOOOoooooooooooXXXXooooXXXXXXXXXooooooooOOOOOOOOOO. ",
"+oOOOOOOOOOoooooooooooooXXXXXXoooooooXXXoooooooooOOOOOOOOOOOOO. ",
"+oOOOOooooooooooooooooXXXXXXooooooooooooooooooOOOOOOOOOOOOOOOO. ",
"+oOoooooooooooooooooXXXXXXXoooooooooooooooOOOOOOOOOOOOOOOOOOOO. ",
"+oooooooooooooooooXXXXXXXXooooooooooooOOOOOOOOOOOOOOOOOOOOOOoo. ",
"+oooooooooooooooXXXXXXXXXooooooooooOOOOOOOOOOOOOOOOOOOOOOOoooo. ",
"+ooooooooooooooXXXXXXXXoooooooooOOOOOOOOOOOOOOOOOOOOOOOOoooooo. ",
"+ooooooooooooXXXXXXXoooooooooOOOOOOOOOOOOOOOOOOOOOOOOooooooooo. ",
"+oXXooooooooXXXXXoooooooooOOOOOOOOOOOOOOOOOOOOOOOOoooooooooooo. ",
"+oXXXXooooXXXXXooooooOOOOOOOOOOOOOOOOOOOOOOOOOOOoooooooooooooo. ",
"+.............................................................. ",
".                                                               "
};
