/* XPM */
static char *repeating_command_block_back[] = {
/* columns rows colors chars-per-pixel */
"64 256 41 1 ",
"  c #2B1B29",
". c #322230",
"X c #3C2B3F",
"o c #4E6C32",
"O c #433246",
"+ c #4E3F4D",
"@ c #554654",
"# c #822523",
"$ c #A42E2B",
"% c #A22E2C",
"& c #CD3A36",
"* c #9B6C32",
"= c #864341",
"- c #A84B49",
"; c #A85451",
": c #AC6967",
"> c #CA5451",
", c #F3605C",
"< c #CE7A77",
"1 c #62873E",
"2 c #C2873E",
"3 c #88AD64",
"4 c #E8AD64",
"5 c #553B9B",
"6 c #777480",
"7 c #6143C2",
"8 c #6A4FC7",
"9 c #7D66C9",
"0 c #817E8A",
"q c #8779B5",
"w c #8B8894",
"e c #918F99",
"r c #95929E",
"t c #9F9DA7",
"y c #B3B0B9",
"u c #9B8BCF",
"i c #A999D6",
"p c #BBB8C3",
"a c #C5C2CD",
"s c #CBC8D3",
"d c #D5D2DD",
/* pixels */
"8888888888899555599888888888888888888888888889955559988888888888",
"8888888888995555559988888888888888888888888899555555998888888888",
"8888888889955iiii559988888888888888888888889955iiii5599888888888",
"888888889955iiuuii5599888888888888888888889955iiuuii559988888888",
"88888889955iiuuuuii55998888888888888888889955iiuuuuii55998888888",
"8888889955iiuuuuuuii559988888888888888889955iiuuuuuuii5599888888",
"888889955iiuuuuuuuuii5599888888888888889955iiuuuuuuuuii559988888",
"88889955iiuuuuuuuuuuii55998888888888889955iiuuuuuuuuuuii55998888",
"8889955iiuuuuuuuuuuuuii559988888888889955iiuuuuuuuuuuuuii5599888",
"889955iiuuuuuuuuuuuuuuii5599999999999955iiuuuuuuuuuuuuuuii559988",
"89955iiuuuu@@@@@@@@@@@@@@@....OOOO....@@@@@@@@@@@@@@@uuuuii55998",
"9955iiuuuu@+++++++++++++++    XXXX    +++++++++++++++@uuuuii5599",
"955iiuuuuu@+ddddddddddddddddddddddddddddddddddddddat+@uuuuuii559",
"55iiuuuuuu@+dssssssssssssssssssssssssssssssssssssste+@uuuuuuii55",
"55iuuuuuuu@+dsaaaaaaaaaaaaaaaaaaaaaaaaaaaaaaaaaaat06+@uuuuuuui55",
"55quuuuuuu@+dsappppppppppppppppppppppppppppppppptw06+@uuuuuuuq55",
"55qquuuuuu@+dsapyyyyyyyyyyyyyyyyyyyyyyyyyyyyyyyyrw06+@uuuuuuqq55",
"755qquuuuu@+dsapyyyyyyyyyyyyyyyyyyyyyyyyyyyyyyyyrw06+@uuuuuqq557",
"7755qquuuu@+dsapyyyyyyyyyyyyyyyyyyyyyyyyyyyyyyyyrw06+@uuuuqq5577",
"87755qquuu@+dsapyyyyyyyyyyyyyyyyyyyyyyyyyyyyyyyyrw06+@uuuqq55778",
"887755qquu@+dsapyyyyyyyyyyyyyyyyyyyyyyyyyyyyyyyyrw06+@uuqq557788",
"8887755qqu@+dsapyyyyyyyyyyyyyyyyyyyyyyyyyyyyyyyyrw06+@uqq5577888",
"88887755qq@+dsapyyyyyy::::yyyy%%%%yyyy1111yyyyyyrw06+@qq55778888",
"888887755q@+dsapyyyyyy::::yyyy%%%%yyyy1111yyyyyyrw06+@q557788888",
"8888887755@+dsapyyyyyy::::yyyy%%%%yyyy1111yyyyyyrw06+@5577888888",
"8888888775@+dsapyyyyyy::::yyyy%%%%yyyy1111yyyyyyrw06+@5778888888",
"8888888877. dsapyyyyyyyyyyyyyyyyyyyyyyyyyyyyyyyyrw06 .7788888888",
"8888888887. dsapyyyyyyyyyyyyyyyyyyyyyyyyyyyyyyyyrw06 .7888888888",
"8888888888. dsapyyyyyyyyyyyyyyyyyyyyyyyyyyyyyyyyrw06 .8888888888",
"8888888888. dsapyyyyyyyyyyyyyyyyyyyyyyyyyyyyyyyyrw06 .8888888888",
"8888888888OXdsapyyyyyy****yyyy;;;;yyyy$$$$yyyyyyrw06XO8888888888",
"8888888888OXdsapyyyyyy****yyyy;;;;yyyy$$$$yyyyyyrw06XO8888888888",
"8888888888OXdsapyyyyyy****yyyy;;;;yyyy$$$$yyyyyyrw06XO8888888888",
"8888888888OXdsapyyyyyy****yyyy;;;;yyyy$$$$yyyyyyrw06XO8888888888",
"8888888888. dsapyyyyyyyyyyyyyyyyyyyyyyyyyyyyyyyyrw06 .8888888888",
"8888888888. dsapyyyyyyyyyyyyyyyyyyyyyyyyyyyyyyyyrw06 .8888888888",
"8888888889. dsapyyyyyyyyyyyyyyyyyyyyyyyyyyyyyyyyrw06 .8888888888",
"8888888899. dsapyyyyyyyyyyyyyyyyyyyyyyyyyyyyyyyyrw06 .9988888888",
"8888888995@+dsapyyyyyy%%%%yyyy::::yyyy;;;;yyyyyyrw06+@5998888888",
"8888889955@+dsapyyyyyy%%%%yyyy::::yyyy;;;;yyyyyyrw06+@5599888888",
"888889955i@+dsapyyyyyy%%%%yyyy::::yyyy;;;;yyyyyyrw06+@i559988888",
"88889955ii@+dsapyyyyyy%%%%yyyy::::yyyy;;;;yyyyyyrw06+@ii55998888",
"8889955iiu@+dsapyyyyyyyyyyyyyyyyyyyyyyyyyyyyyyyyrw06+@uii5599888",
"889955iiuu@+dsapyyyyyyyyyyyyyyyyyyyyyyyyyyyyyyyyrw06+@uuii559988",
"89955iiuuu@+dsapyyyyyyyyyyyyyyyyyyyyyyyyyyyyyyyyrw06+@uuuii55998",
"9955iiuuuu@+dsapyyyyyyyyyyyyyyyyyyyyyyyyyyyyyyyyrw06+@uuuuii5599",
"955iiuuuuu@+dsapyyyyyyyyyyyyyyyyyyyyyyyyyyyyyyyyrw06+@uuuuuii559",
"55iiuuuuuu@+dsapyyyyyyyyyyyyyyyyyyyyyyyyyyyyyyyyrw06+@uuuuuuii55",
"55iuuuuuuu@+dsatrrrrrrrrrrrrrrrrrrrrrrrrrrrrrrrrrw06+@uuuuuuui55",
"55quuuuuuu@+dstwwwwwwwwwwwwwwwwwwwwwwwwwwwwwwwwwww06+@uuuuuuuq55",
"55qquuuuuu@+at00000000000000000000000000000000000006+@uuuuuuqq55",
"755qquuuuu@+te66666666666666666666666666666666666666+@uuuuuqq557",
"7755qquuuu@+++++++++++++++    XXXX    +++++++++++++++@uuuuqq5577",
"87755qquuuq@@@@@@@@@@@@@@@....OOOO....@@@@@@@@@@@@@@@quuuqq55778",
"887755qquuuqqqqqqqqqqqqq5577777777777755qqqqqqqqqqqqquuuqq557788",
"8887755qquuuuuuuuuuuuqq557788888888887755qquuuuuuuuuuuuqq5577888",
"88887755qquuuuuuuuuuqq55778888888888887755qquuuuuuuuuuqq55778888",
"888887755qquuuuuuuuqq5577888888888888887755qquuuuuuuuqq557788888",
"8888887755qquuuuuuqq557788888888888888887755qquuuuuuqq5577888888",
"88888887755qquuuuqq55778888888888888888887755qquuuuqq55778888888",
"888888887755qquuqq5577888888888888888888887755qquuqq557788888888",
"8888888887755qqqq557788888888888888888888887755qqqq5577888888888",
"8888888888775555557788888888888888888888888877555555778888888888",
"8888888888877555577888888888888888888888888887755557788888888888",
"8888888888899555599888888888888888888888888889955559988888888888",
"8888888888995555559988888888888888888888888899555555998888888888",
"8888888889955iiii559988888888888888888888889955iiii5599888888888",
"888888889955iiuuii5599888888888888888888889955iiuuii559988888888",
"88888889955iiuuuuii55998888888888888888889955iiuuuuii55998888888",
"8888889955iiuuuuuuii559988888888888888889955iiuuuuuuii5599888888",
"888889955iiuuuuuuuuii5599888888888888889955iiuuuuuuuuii559988888",
"88889955iiuuuuuuuuuuii55998888888888889955iiuuuuuuuuuuii55998888",
"8889955iiuuuuuuuuuuuuii559988888888889955iiuuuuuuuuuuuuii5599888",
"889955iiuuuuuuuuuuuuuuii5599999999999955iiuuuuuuuuuuuuuuii559988",
"89955iiuuuu@@@@@@@@@@@@@@@....OOOO....@@@@@@@@@@@@@@@uuuuii55998",
"9955iiuuuu@+++++++++++++++    XXXX    +++++++++++++++@uuuuii5599",
"955iiuuuuu@+ddddddddddddddddddddddddddddddddddddddat+@uuuuuii559",
"55iiuuuuuu@+dssssssssssssssssssssssssssssssssssssste+@uuuuuuii55",
"55iuuuuuuu@+dsaaaaaaaaaaaaaaaaaaaaaaaaaaaaaaaaaaat06+@uuuuuuui55",
"55quuuuuuu@+dsappppppppppppppppppppppppppppppppptw06+@uuuuuuuq55",
"55qquuuuuu@+dsapyyyyyyyyyyyyyyyyyyyyyyyyyyyyyyyyrw06+@uuuuuuqq55",
"755qquuuuu@+dsapyyyyyyyyyyyyyyyyyyyyyyyyyyyyyyyyrw06+@uuuuuqq557",
"7755qquuuu@+dsapyyyyyyyyyyyyyyyyyyyyyyyyyyyyyyyyrw06+@uuuuqq5577",
"87755qquuu@+dsapyyyyyyyyyyyyyyyyyyyyyyyyyyyyyyyyrw06+@uuuqq55778",
"887755qquu@+dsapyyyyyyyyyyyyyyyyyyyyyyyyyyyyyyyyrw06+@uuqq557788",
"8887755qqu@+dsapyyyyyyyyyyyyyyyyyyyyyyyyyyyyyyyyrw06+@uqq5577888",
"88887755qq@+dsapyyyyyy;;;;yyyy%%%%yyyyooooyyyyyyrw06+@qq55778888",
"888887755q@+dsapyyyyyy;;;;yyyy%%%%yyyyooooyyyyyyrw06+@q557788888",
"8888887755@+dsapyyyyyy;;;;yyyy%%%%yyyyooooyyyyyyrw06+@5577888888",
"8888888775@+dsapyyyyyy;;;;yyyy%%%%yyyyooooyyyyyyrw06+@5778888888",
"8888888877. dsapyyyyyyyyyyyyyyyyyyyyyyyyyyyyyyyyrw06 .7788888888",
"8888888887. dsapyyyyyyyyyyyyyyyyyyyyyyyyyyyyyyyyrw06 .7888888888",
"8888888888. dsapyyyyyyyyyyyyyyyyyyyyyyyyyyyyyyyyrw06 .8888888888",
"8888888888. dsapyyyyyyyyyyyyyyyyyyyyyyyyyyyyyyyyrw06 .8888888888",
"8888888888OXdsapyyyyyy4444yyyy;;;;yyyy>>>>yyyyyyrw06XO8888888888",
"8888888888OXdsapyyyyyy4444yyyy;;;;yyyy>>>>yyyyyyrw06XO8888888888",
"8888888888OXdsapyyyyyy4444yyyy;;;;yyyy>>>>yyyyyyrw06XO8888888888",
"8888888888OXdsapyyyyyy4444yyyy;;;;yyyy>>>>yyyyyyrw06XO8888888888",
"8888888888. dsapyyyyyyyyyyyyyyyyyyyyyyyyyyyyyyyyrw06 .8888888888",
"8888888888. dsapyyyyyyyyyyyyyyyyyyyyyyyyyyyyyyyyrw06 .8888888888",
"8888888889. dsapyyyyyyyyyyyyyyyyyyyyyyyyyyyyyyyyrw06 .8888888888",
"8888888899. dsapyyyyyyyyyyyyyyyyyyyyyyyyyyyyyyyyrw06 .9988888888",
"8888888995@+dsapyyyyyy----yyyy<<<<yyyy;;;;yyyyyyrw06+@5998888888",
"8888889955@+dsapyyyyyy----yyyy<<<<yyyy;;;;yyyyyyrw06+@5599888888",
"888889955i@+dsapyyyyyy----yyyy<<<<yyyy;;;;yyyyyyrw06+@i559988888",
"88889955ii@+dsapyyyyyy----yyyy<<<<yyyy;;;;yyyyyyrw06+@ii55998888",
"8889955iiu@+dsapyyyyyyyyyyyyyyyyyyyyyyyyyyyyyyyyrw06+@uii5599888",
"889955iiuu@+dsapyyyyyyyyyyyyyyyyyyyyyyyyyyyyyyyyrw06+@uuii559988",
"89955iiuuu@+dsapyyyyyyyyyyyyyyyyyyyyyyyyyyyyyyyyrw06+@uuuii55998",
"9955iiuuuu@+dsapyyyyyyyyyyyyyyyyyyyyyyyyyyyyyyyyrw06+@uuuuii5599",
"955iiuuuuu@+dsapyyyyyyyyyyyyyyyyyyyyyyyyyyyyyyyyrw06+@uuuuuii559",
"55iiuuuuuu@+dsapyyyyyyyyyyyyyyyyyyyyyyyyyyyyyyyyrw06+@uuuuuuii55",
"55iuuuuuuu@+dsatrrrrrrrrrrrrrrrrrrrrrrrrrrrrrrrrrw06+@uuuuuuui55",
"55quuuuuuu@+dstwwwwwwwwwwwwwwwwwwwwwwwwwwwwwwwwwww06+@uuuuuuuq55",
"55qquuuuuu@+at00000000000000000000000000000000000006+@uuuuuuqq55",
"755qquuuuu@+te66666666666666666666666666666666666666+@uuuuuqq557",
"7755qquuuu@+++++++++++++++    XXXX    +++++++++++++++@uuuuqq5577",
"87755qquuuq@@@@@@@@@@@@@@@....OOOO....@@@@@@@@@@@@@@@quuuqq55778",
"887755qquuuqqqqqqqqqqqqq5577777777777755qqqqqqqqqqqqquuuqq557788",
"8887755qquuuuuuuuuuuuqq557788888888887755qquuuuuuuuuuuuqq5577888",
"88887755qquuuuuuuuuuqq55778888888888887755qquuuuuuuuuuqq55778888",
"888887755qquuuuuuuuqq5577888888888888887755qquuuuuuuuqq557788888",
"8888887755qquuuuuuqq557788888888888888887755qquuuuuuqq5577888888",
"88888887755qquuuuqq55778888888888888888887755qquuuuqq55778888888",
"888888887755qquuqq5577888888888888888888887755qquuqq557788888888",
"8888888887755qqqq557788888888888888888888887755qqqq5577888888888",
"8888888888775555557788888888888888888888888877555555778888888888",
"8888888888877555577888888888888888888888888887755557788888888888",
"8888888888899555599888888888888888888888888889955559988888888888",
"8888888888995555559988888888888888888888888899555555998888888888",
"8888888889955iiii559988888888888888888888889955iiii5599888888888",
"888888889955iiuuii5599888888888888888888889955iiuuii559988888888",
"88888889955iiuuuuii55998888888888888888889955iiuuuuii55998888888",
"8888889955iiuuuuuuii559988888888888888889955iiuuuuuuii5599888888",
"888889955iiuuuuuuuuii5599888888888888889955iiuuuuuuuuii559988888",
"88889955iiuuuuuuuuuuii55998888888888889955iiuuuuuuuuuuii55998888",
"8889955iiuuuuuuuuuuuuii559988888888889955iiuuuuuuuuuuuuii5599888",
"889955iiuuuuuuuuuuuuuuii5599999999999955iiuuuuuuuuuuuuuuii559988",
"89955iiuuuu@@@@@@@@@@@@@@@....OOOO....@@@@@@@@@@@@@@@uuuuii55998",
"9955iiuuuu@+++++++++++++++    XXXX    +++++++++++++++@uuuuii5599",
"955iiuuuuu@+ddddddddddddddddddddddddddddddddddddddat+@uuuuuii559",
"55iiuuuuuu@+dssssssssssssssssssssssssssssssssssssste+@uuuuuuii55",
"55iuuuuuuu@+dsaaaaaaaaaaaaaaaaaaaaaaaaaaaaaaaaaaat06+@uuuuuuui55",
"55quuuuuuu@+dsappppppppppppppppppppppppppppppppptw06+@uuuuuuuq55",
"55qquuuuuu@+dsapyyyyyyyyyyyyyyyyyyyyyyyyyyyyyyyyrw06+@uuuuuuqq55",
"755qquuuuu@+dsapyyyyyyyyyyyyyyyyyyyyyyyyyyyyyyyyrw06+@uuuuuqq557",
"7755qquuuu@+dsapyyyyyyyyyyyyyyyyyyyyyyyyyyyyyyyyrw06+@uuuuqq5577",
"87755qquuu@+dsapyyyyyyyyyyyyyyyyyyyyyyyyyyyyyyyyrw06+@uuuqq55778",
"887755qquu@+dsapyyyyyyyyyyyyyyyyyyyyyyyyyyyyyyyyrw06+@uuqq557788",
"8887755qqu@+dsapyyyyyyyyyyyyyyyyyyyyyyyyyyyyyyyyrw06+@uqq5577888",
"88887755qq@+dsapyyyyyy;;;;yyyy%%%%yyyy3333yyyyyyrw06+@qq55778888",
"888887755q@+dsapyyyyyy;;;;yyyy%%%%yyyy3333yyyyyyrw06+@q557788888",
"8888887755@+dsapyyyyyy;;;;yyyy%%%%yyyy3333yyyyyyrw06+@5577888888",
"8888888775@+dsapyyyyyy;;;;yyyy%%%%yyyy3333yyyyyyrw06+@5778888888",
"8888888877. dsapyyyyyyyyyyyyyyyyyyyyyyyyyyyyyyyyrw06 .7788888888",
"8888888887. dsapyyyyyyyyyyyyyyyyyyyyyyyyyyyyyyyyrw06 .7888888888",
"8888888888. dsapyyyyyyyyyyyyyyyyyyyyyyyyyyyyyyyyrw06 .8888888888",
"8888888888. dsapyyyyyyyyyyyyyyyyyyyyyyyyyyyyyyyyrw06 .8888888888",
"8888888888OXdsapyyyyyy2222yyyy::::yyyy&&&&yyyyyyrw06XO8888888888",
"8888888888OXdsapyyyyyy2222yyyy::::yyyy&&&&yyyyyyrw06XO8888888888",
"8888888888OXdsapyyyyyy2222yyyy::::yyyy&&&&yyyyyyrw06XO8888888888",
"8888888888OXdsapyyyyyy2222yyyy::::yyyy&&&&yyyyyyrw06XO8888888888",
"8888888888. dsapyyyyyyyyyyyyyyyyyyyyyyyyyyyyyyyyrw06 .8888888888",
"8888888888. dsapyyyyyyyyyyyyyyyyyyyyyyyyyyyyyyyyrw06 .8888888888",
"8888888889. dsapyyyyyyyyyyyyyyyyyyyyyyyyyyyyyyyyrw06 .8888888888",
"8888888899. dsapyyyyyyyyyyyyyyyyyyyyyyyyyyyyyyyyrw06 .9988888888",
"8888888995@+dsapyyyyyy####yyyy;;;;yyyy;;;;yyyyyyrw06+@5998888888",
"8888889955@+dsapyyyyyy####yyyy;;;;yyyy;;;;yyyyyyrw06+@5599888888",
"888889955i@+dsapyyyyyy####yyyy;;;;yyyy;;;;yyyyyyrw06+@i559988888",
"88889955ii@+dsapyyyyyy####yyyy;;;;yyyy;;;;yyyyyyrw06+@ii55998888",
"8889955iiu@+dsapyyyyyyyyyyyyyyyyyyyyyyyyyyyyyyyyrw06+@uii5599888",
"889955iiuu@+dsapyyyyyyyyyyyyyyyyyyyyyyyyyyyyyyyyrw06+@uuii559988",
"89955iiuuu@+dsapyyyyyyyyyyyyyyyyyyyyyyyyyyyyyyyyrw06+@uuuii55998",
"9955iiuuuu@+dsapyyyyyyyyyyyyyyyyyyyyyyyyyyyyyyyyrw06+@uuuuii5599",
"955iiuuuuu@+dsapyyyyyyyyyyyyyyyyyyyyyyyyyyyyyyyyrw06+@uuuuuii559",
"55iiuuuuuu@+dsapyyyyyyyyyyyyyyyyyyyyyyyyyyyyyyyyrw06+@uuuuuuii55",
"55iuuuuuuu@+dsatrrrrrrrrrrrrrrrrrrrrrrrrrrrrrrrrrw06+@uuuuuuui55",
"55quuuuuuu@+dstwwwwwwwwwwwwwwwwwwwwwwwwwwwwwwwwwww06+@uuuuuuuq55",
"55qquuuuuu@+at00000000000000000000000000000000000006+@uuuuuuqq55",
"755qquuuuu@+te66666666666666666666666666666666666666+@uuuuuqq557",
"7755qquuuu@+++++++++++++++    XXXX    +++++++++++++++@uuuuqq5577",
"87755qquuuq@@@@@@@@@@@@@@@....OOOO....@@@@@@@@@@@@@@@quuuqq55778",
"887755qquuuqqqqqqqqqqqqq5577777777777755qqqqqqqqqqqqquuuqq557788",
"8887755qquuuuuuuuuuuuqq557788888888887755qquuuuuuuuuuuuqq5577888",
"88887755qquuuuuuuuuuqq55778888888888887755qquuuuuuuuuuqq55778888",
"888887755qquuuuuuuuqq5577888888888888887755qquuuuuuuuqq557788888",
"8888887755qquuuuuuqq557788888888888888887755qquuuuuuqq5577888888",
"88888887755qquuuuqq55778888888888888888887755qquuuuqq55778888888",
"888888887755qquuqq5577888888888888888888887755qquuqq557788888888",
"8888888887755qqqq557788888888888888888888887755qqqq5577888888888",
"8888888888775555557788888888888888888888888877555555778888888888",
"8888888888877555577888888888888888888888888887755557788888888888",
"8888888888899555599888888888888888888888888889955559988888888888",
"8888888888995555559988888888888888888888888899555555998888888888",
"8888888889955iiii559988888888888888888888889955iiii5599888888888",
"888888889955iiuuii5599888888888888888888889955iiuuii559988888888",
"88888889955iiuuuuii55998888888888888888889955iiuuuuii55998888888",
"8888889955iiuuuuuuii559988888888888888889955iiuuuuuuii5599888888",
"888889955iiuuuuuuuuii5599888888888888889955iiuuuuuuuuii559988888",
"88889955iiuuuuuuuuuuii55998888888888889955iiuuuuuuuuuuii55998888",
"8889955iiuuuuuuuuuuuuii559988888888889955iiuuuuuuuuuuuuii5599888",
"889955iiuuuuuuuuuuuuuuii5599999999999955iiuuuuuuuuuuuuuuii559988",
"89955iiuuuu@@@@@@@@@@@@@@@....OOOO....@@@@@@@@@@@@@@@uuuuii55998",
"9955iiuuuu@+++++++++++++++    XXXX    +++++++++++++++@uuuuii5599",
"955iiuuuuu@+ddddddddddddddddddddddddddddddddddddddat+@uuuuuii559",
"55iiuuuuuu@+dssssssssssssssssssssssssssssssssssssste+@uuuuuuii55",
"55iuuuuuuu@+dsaaaaaaaaaaaaaaaaaaaaaaaaaaaaaaaaaaat06+@uuuuuuui55",
"55quuuuuuu@+dsappppppppppppppppppppppppppppppppptw06+@uuuuuuuq55",
"55qquuuuuu@+dsapyyyyyyyyyyyyyyyyyyyyyyyyyyyyyyyyrw06+@uuuuuuqq55",
"755qquuuuu@+dsapyyyyyyyyyyyyyyyyyyyyyyyyyyyyyyyyrw06+@uuuuuqq557",
"7755qquuuu@+dsapyyyyyyyyyyyyyyyyyyyyyyyyyyyyyyyyrw06+@uuuuqq5577",
"87755qquuu@+dsapyyyyyyyyyyyyyyyyyyyyyyyyyyyyyyyyrw06+@uuuqq55778",
"887755qquu@+dsapyyyyyyyyyyyyyyyyyyyyyyyyyyyyyyyyrw06+@uuqq557788",
"8887755qqu@+dsapyyyyyyyyyyyyyyyyyyyyyyyyyyyyyyyyrw06+@uqq5577888",
"88887755qq@+dsapyyyyyy;;;;yyyy----yyyy1111yyyyyyrw06+@qq55778888",
"888887755q@+dsapyyyyyy;;;;yyyy----yyyy1111yyyyyyrw06+@q557788888",
"8888887755@+dsapyyyyyy;;;;yyyy----yyyy1111yyyyyyrw06+@5577888888",
"8888888775@+dsapyyyyyy;;;;yyyy----yyyy1111yyyyyyrw06+@5778888888",
"8888888877. dsapyyyyyyyyyyyyyyyyyyyyyyyyyyyyyyyyrw06 .7788888888",
"8888888887. dsapyyyyyyyyyyyyyyyyyyyyyyyyyyyyyyyyrw06 .7888888888",
"8888888888. dsapyyyyyyyyyyyyyyyyyyyyyyyyyyyyyyyyrw06 .8888888888",
"8888888888. dsapyyyyyyyyyyyyyyyyyyyyyyyyyyyyyyyyrw06 .8888888888",
"8888888888OXdsapyyyyyy****yyyy::::yyyy,,,,yyyyyyrw06XO8888888888",
"8888888888OXdsapyyyyyy****yyyy::::yyyy,,,,yyyyyyrw06XO8888888888",
"8888888888OXdsapyyyyyy****yyyy::::yyyy,,,,yyyyyyrw06XO8888888888",
"8888888888OXdsapyyyyyy****yyyy::::yyyy,,,,yyyyyyrw06XO8888888888",
"8888888888. dsapyyyyyyyyyyyyyyyyyyyyyyyyyyyyyyyyrw06 .8888888888",
"8888888888. dsapyyyyyyyyyyyyyyyyyyyyyyyyyyyyyyyyrw06 .8888888888",
"8888888889. dsapyyyyyyyyyyyyyyyyyyyyyyyyyyyyyyyyrw06 .8888888888",
"8888888899. dsapyyyyyyyyyyyyyyyyyyyyyyyyyyyyyyyyrw06 .9988888888",
"8888888995@+dsapyyyyyy%%%%yyyy;;;;yyyy====yyyyyyrw06+@5998888888",
"8888889955@+dsapyyyyyy%%%%yyyy;;;;yyyy====yyyyyyrw06+@5599888888",
"888889955i@+dsapyyyyyy%%%%yyyy;;;;yyyy====yyyyyyrw06+@i559988888",
"88889955ii@+dsapyyyyyy%%%%yyyy;;;;yyyy====yyyyyyrw06+@ii55998888",
"8889955iiu@+dsapyyyyyyyyyyyyyyyyyyyyyyyyyyyyyyyyrw06+@uii5599888",
"889955iiuu@+dsapyyyyyyyyyyyyyyyyyyyyyyyyyyyyyyyyrw06+@uuii559988",
"89955iiuuu@+dsapyyyyyyyyyyyyyyyyyyyyyyyyyyyyyyyyrw06+@uuuii55998",
"9955iiuuuu@+dsapyyyyyyyyyyyyyyyyyyyyyyyyyyyyyyyyrw06+@uuuuii5599",
"955iiuuuuu@+dsapyyyyyyyyyyyyyyyyyyyyyyyyyyyyyyyyrw06+@uuuuuii559",
"55iiuuuuuu@+dsapyyyyyyyyyyyyyyyyyyyyyyyyyyyyyyyyrw06+@uuuuuuii55",
"55iuuuuuuu@+dsatrrrrrrrrrrrrrrrrrrrrrrrrrrrrrrrrrw06+@uuuuuuui55",
"55quuuuuuu@+dstwwwwwwwwwwwwwwwwwwwwwwwwwwwwwwwwwww06+@uuuuuuuq55",
"55qquuuuuu@+at00000000000000000000000000000000000006+@uuuuuuqq55",
"755qquuuuu@+te66666666666666666666666666666666666666+@uuuuuqq557",
"7755qquuuu@+++++++++++++++    XXXX    +++++++++++++++@uuuuqq5577",
"87755qquuuq@@@@@@@@@@@@@@@....OOOO....@@@@@@@@@@@@@@@quuuqq55778",
"887755qquuuqqqqqqqqqqqqq5577777777777755qqqqqqqqqqqqquuuqq557788",
"8887755qquuuuuuuuuuuuqq557788888888887755qquuuuuuuuuuuuqq5577888",
"88887755qquuuuuuuuuuqq55778888888888887755qquuuuuuuuuuqq55778888",
"888887755qquuuuuuuuqq5577888888888888887755qquuuuuuuuqq557788888",
"8888887755qquuuuuuqq557788888888888888887755qquuuuuuqq5577888888",
"88888887755qquuuuqq55778888888888888888887755qquuuuqq55778888888",
"888888887755qquuqq5577888888888888888888887755qquuqq557788888888",
"8888888887755qqqq557788888888888888888888887755qqqq5577888888888",
"8888888888775555557788888888888888888888888877555555778888888888",
"8888888888877555577888888888888888888888888887755557788888888888"
};
