/* XPM */
static char *respawn_anchor_side2[] = {
/* columns rows colors chars-per-pixel */
"64 64 17 1 ",
"  c #000001",
". c #1C1421",
"X c #2B0178",
"o c #100C1C",
"O c #2C2943",
"+ c #483860",
"@ c #6006AB",
"# c #573F7F",
"$ c #211B31",
"% c #06030B",
"& c #8308E4",
"* c #271E3D",
"= c #CC8654",
"- c #FFF0DA",
"; c #3B2754",
": c #FBDA74",
"> c white",
/* pixels */
"####+++#####X@&&&@XX##########+++##@&&@XXX###########&&@++######",
"##++++++#+###X@&@&X#######+#++++++#+@&&@X###+++##+#+&@&&@++++##+",
"#+++++++++++++@&XX###+#+++++OOOOOOOO++@&+++++++++++@X&@X++++++++",
"#+++++++++++++&@X+++#+++++OO$$$$$$$$OO@@++++++++++++@XXX++++++++",
"O++++++++++++&@X+++++++++O$$$$$$$$$$$$O+@++++++++++&XX+@X++++++O",
"OO++++++++++&&@+++++++++O$$..........$$O++++++++++&&X@+++X++++OO",
"O$O+++++++++&@+++++++++O$$............$$O++++++++@&@+++++++++O$O",
"$$$O++++++++@+++++++++O$$..............$$O++++++&&@+++++++++O$$$",
"$$$$O++++++++++++++++O$$$..............$$$O++++@+++++++++++O$$$$",
"$$$$$O+++++++++++++++O$$................$$O+++++++++++++++O$$$$$",
"O$$$$$O+++++++++++++O$$$................$$$O+++++++++++++O$$$$$O",
"+O$$$$$O++++++++++++O$$$................$$$O++++++++++++O$$$$$O+",
"++O$$$$$O++++++++++O$$$.$....::::==....$.$$$O++++++++++O$$$$$O++",
"+++O$$$$$O++++++++O$$$$..$.::>>>>-:==.$..$$$$O++++++++O$$$$$O+++",
"++++O$$$$$O++++++O$$$$$...:>>------::=...$$$$$O++++++O$$$$$O++++",
"++++O$$$$$$O++++O$$$$$...:>----------:=...$$$$$O++++O$$$$$$O++++",
"+++++O$$$$$$O++O$$$$$$...:>----------:=...$$$$$$O++O$$$$$$O+++++",
"+++++O$$$$$$$OO$$$$$$$$.:>------------:=.$$$$$$$$OO$$$$$$$O+++++",
"++++++O$$$$$$$$$$$$$$$$$=-------------:=$$$$$$$$$$$$$$$$$O++++++",
"++++++O$$$$$$$$$$$$$$$$$%%%-----------:=$$$$$$$$$$$$$$$$$O++++++",
"++++++O$$$$$$$$$$$$$$$$$%%%%%%%------::=$$$$$$$$$$$$$$$$$O++++++",
"+++++O%...$$$$$$$$$$$$$.%%%%%%%%%%%::::=.$$$$$$$$$$$$$...%O+++++",
"++++++O%%%..$$$$$$$$$$.O%%%%%%%%%%%%%%%%O.$$$$$$$$$$..%%%O++++++",
"+++++O%%%%%%..$$$$$$$$.O+%%%%%%%%%%%%%%+O.$$$$$$$$..%%%%%%O+++++",
"OOOOO%%%%%%%%%..$$$$$.O++%%%%%%%%%%%%%%++O.$$$$$..%%%%%%%%%OOOOO",
"%%%%%%%%%%%%%%%%..$$$.OOO+%%%%%%%%%%%%+OOO.$$$..%%%%%%%%%%%%%%%%",
"######+###%%%%%%%%.$.OO++++%%%%%%%%%%++++OO.$.%%%%%%%%###+######",
"++++++O+++##%%%%%%%..O++++++#%%%%%%#++++++O..%%%%%%%##+++O++++++",
"++++++O+++++##%%%%%%.OOOO++++######++++OOOO.%%%%%%##+++++O++++++",
"++++++O+++++++##%%%%.OOOOOO++++##++++OOOOOO.%%%%##+++++++O++++++",
"+++++OO+++++++++#%%%.OOOOOOO++++++++OOOOOOO.%%%#+++++++++OO+++++",
"++++OOO++++++++++#%%.OOOOOO++++++++++OOOOOO.%%#++++++++++OOO++++",
"oo XXo$$++++++++++#%.OOO++++##++++##++++OOO.%#++++++++++OOo  ooo",
"o   X oo$$+++++++++#.OOOO++##########++OOOO.#+++++++++OO;o  XX  ",
"   o*o oo $+++++++++.O+++++++######+++++++O.+++++++++Ooo*XXXX@@X",
"  oo**o o&@$++++++++.+++++++++####+++++++++.++++++++O *oXX@@@@X ",
" o***o*oX&@XOOO++++++.OOOO++++++++++++OOOO.++++++OOOXXX@@@@XX   ",
"o*o;o*o*X@&@ o OOO+++.OOOOOO++++++++OOOOOO.+++OOOo XX@@@XXX     ",
";;;;*o*o X&@X ooooOO++.OOOOOOOOOOOOOOOOOO.++OO**o XX  XXX    o o",
"*;;***o o @&@XXo XX@OOO.OOOOOOOOOOOOOOOO.OOOooo;*o         o *oo",
";**;ooo XX&&&@@@XX@@&@X ..OOOOOOOOOOOO..o*o* o o;;oo  XX    oo*o",
"**oooXX@&&@X@&&&&@@&@XX *o............@@@XXo   *;*XXX@@@XXX  o**",
" o* X@&&@XX  XX@@&&@@@XXoo    o X@X  oXX@@@XXX*;;*ooXXX@@@XX  oo",
"o   @&@XXX  o  XXX@@X@&X o   o  X@Xoo o*oX@@@XX;*o*XX@@@ @@@XX o",
"    @@XX o oo o XXXXXX@&X        @X oo**;;*X@@XX*XX@@XXX oX@@XXX",
"   X@XXo  oo o XXXo  XX&X        XXoo**;;*;oooo*X@@@XXo oo*@X   ",
"   XXXo oo*o**XXXo    X@&     o oX@XX;;*;;*o oX@@@X oo o**oXX o ",
"  XXX oo*oo;XXXoo*    X@&X  oo XX@@@@X*;;*oXX@@@XXo  oo*o**XXo  ",
"XXXooo**;*XXXo***o    X@&X oo*X@@@XX@@@X*oX@@@XXX  oo*;*;;XXooo ",
"  o*o*o;XXX;XXo*o     XX@&X *XXXX****X@@oX@@XXo   oo***;;XXXoo  ",
" o****;;*;*o*XXXX  X  oX@&@@XXX *oXXo**@@@@X     o o*;;*XX*o    ",
"o*o**;*;;*****oXXX XXooo@&@X@@@XX@@@XX*X@@X       o*;;XX@Xoo    ",
" o***o****o *o o  o@XX @&@X oX@@@@XX**ooX@      ooo;*X@@@o  o   ",
"o **o***o  *ooo  oX@@X @&X   oXX@XXo*oo X@  o    o*XX@@X  o oo  ",
"o*oo**oo  oooo   XX@&@X&@X o oo XXo o  oX@@X*o  XX@&@@XXoo**  o ",
"o o**X*o ooo   X@@XX@&&@X o   o o ooo   XX@@XoXXX&&@X@@@X**oo oo",
"  oX@@@XXX  o X@@X   @@XXo*oo  ooo*o   o XX@@@@&&@@X XX@@XXo o o",
"   ooX@@@XX  X@@X  o oXX**;*oo  o*     X@@@@&&&@@XX ooXX@@@Xo   ",
"   oooXX@@@@X@@X    o oo;;***o   o    @@&&&&@X@@XX   oooXX@@@X  ",
" o  oo  XXX@@@XXo oooo*;;*oo**o   XX@&&&@@XXo X@X*  o oo  oXXXX ",
"  oo o     X@@Xo o o**;;*** oo  XX@&&@@XXooo   XX    oo oo    o ",
" oooo   ** X@X    o*;;;*;* oo  XX@@@X  o  o   **XX  oo *ooo* **o",
"o  o   oo** @X   oo**;*o*oo      XX   o oo   o*oXX   ooo**oo**o ",
"oo    oo*o  X    o**;***oo      XX   oooo     o  X    o**o  o***"
};
