/* XPM */
static char *smithing_table_bottom[] = {
/* columns rows colors chars-per-pixel */
"64 64 8 1 ",
"  c #1A1B1E",
". c #1F2023",
"X c #2F1411",
"o c #361613",
"O c #232428",
"+ c #421C17",
"@ c #4A1F1A",
"# c #52221D",
/* pixels */
"      . ++++++++++++++++++++++++++++++++++++++++++++++++ ..  .. ",
" ...OOO.++++++++++++++++++++++++++++++++++++++++++++++++.OO..O. ",
" ..OOO. +++++++++++++++@+++++++++++@++++++@+++++++++++++ O..OOO ",
".OO.OOO @++++++++++++@+@@++++++++@@++@++@@@@++++@+++++@+ OOOOOO ",
" OOOOOO +@@++++@+++@@@@@+++++@++++@@@++++@@@@++@+++@@@++ OO..OO ",
" .O..O. @@+++@@@@@@++@@@@@++++@@@@@@@@@@@@@@+@@@@@++@@@@ ..O..O ",
" ..... XXXXXXXXXXXXXXXXXXXXXXXXXXXXXXXXXXXXXXXXXXXXXXXXXX ...O. ",
"  .   XXoooo++++oooo+++++o++ooooo+oooooo++++++++++ooooooXX  .   ",
"+++++@Xo@@@####@@@#####@@@@####@@@@@@@@#####@@@#@@@@####oX+@++++",
"+++@@+Xo@+++@#@@+++++@#@++++@##@++++++@@#@+@+++@#@++@@##+X@+++++",
"++++@@Xo#++++@++@++++++++++@@+@++++++++++@++++++++@+++@#+X++++++",
"++++@@X+#@+++++++++++++++++++++++++++++++++++++++++++++@+X++++++",
"+++++@Xo#@+++++++++++++++++++++++++++++++++++++++++++++@oX@+++++",
"++++@+X+#++++++++++++++++++++++++++++++++++++++++++++++@oX@+++++",
"++++++X+#+++++++++++++++++++++++++++++++++++++++++++++@@oX@+++++",
"++++++X+@+++++++++++++++++++++++++++++++++++++++++++++@#oX@@++++",
"++++++Xo@+++++++++++++++++++++++++++++++++++++++++++@+@#oX@@++++",
"++++++Xo#+++++++++++++++++++++++++++++++++++++++++++@@##oX++++++",
"++++++X+#++++++++++++++++++++++++++++++++++++++++++++#@#oX@+++++",
"+++++@X+#@++++++++++++++++++++++++++++++++++++++++++++@#+X@+++++",
"++++@@X+@+@++++++++++++++++++++++++++++++++++++++++++++@+X@+@+++",
"+++++@X+#@@++++++++++++++++++++++++++++++++++++++++++++@+X@@++++",
"+++++@X+@#+++++++++++++++++++++++++++++++++++++++++++@+@+X@@@@++",
"++++@@X+@@+++++++++++++++++++++++++++++++++++++++++++@+@+X@+@@++",
"+++@@@Xo#@++++++++++++++++++++++++++++++++++++++++++++@#oX++@+++",
"++++@+Xo#++++++++++++++++++++++++++++++++++++++++++++@#@+X++++++",
"+++++@Xo#+++++++++++++++++++++++++++++++++++++++++++++@@+X++++++",
"++++++Xo#+@++++++++++++++++++++++++++++++++++++++++++++@oX++++++",
"++++++Xo#@+++++++++++++++++++++++++++++++++++++++++++++#oX++++++",
"++++++X+#@++++++++++++++++++++++++++++++++++++++++++++@#oX+@++++",
"++++++X+#++++++++++++++++++++++++++++++++++++++++++++@@#oX@@@+++",
"+++++@X+@++++++++++++++++++++++++++++++++++++++++++++@##+X@@++++",
"+++++@Xo@+++++++++++++++++++++++++++++++++++++++++++++#@+X@@++++",
"++++@@X+@+++++++++++++++++++++++++++++++++++++++++++++@@+X@+++++",
"++++@@X+@++++++++++++++++++++++++++++++++++++++++++++@+@oX@+++++",
"++++@@Xo@@+++++++++++++++++++++++++++++++++++++++++++++@oX++++++",
"+++@+@Xo@@@++++++++++++++++++++++++++++++++++++++++++++@+X@+@+++",
"+++++@Xo#+@++++++++++++++++++++++++++++++++++++++++++++#+X@+@+++",
"+++++@Xo#@+@++++++++++++++++++++++++++++++++++++++++++@#+X@@++++",
"+++++@Xo@++++++++++++++++++++++++++++++++++++++++++++@##+X@@@+++",
"++++++X+#+++++++++++++++++++++++++++++++++++++++++++@#@@+X@+@+++",
"++++++X+@+++++++++++++++++++++++++++++++++++++++++++@@+@+X@++@++",
"++++++X+@+++++++++++++++++++++++++++++++++++++++++++++@@+X++++++",
"+++++@X+@++++++++++++++++++++++++++++++++++++++++++++++@+X++++++",
"++++@@X+@@+++++++++++++++++++++++++++++++++++++++++++++#+X++++++",
"+++@@+Xo#@@++++++++++++++++++++++++++++++++++++++++++++#+X++++++",
"++++@@Xo##@++++++++++++++++++++++++++++++++++++++++++++#oX++++++",
"+++++@Xo#@+++++++++++++++++++++++++++++++++++++++++++++#oX@+++++",
"++++@+Xo#+++++++++++++++++++++++++++++++++++++++++++++@#oX@+++++",
"++++++Xo@+++++++++++++++++++++++++++++++++++++++++++++#@oX@+@+++",
"++++++X+@+++++++++++++++++++++++++++++++++++++++++++++@#oX@@++++",
"++++++X+@+++++++++++++++++++++++++@++++++++++++@+++++++@oX@+++++",
"++++@+X+#@++++@++++++++++++++++++++@@+++++++@@@++++@+@+@+X@+++++",
"+++++@X+#@@+@@@@++++++++++@+++++@@#@++@+++@@#@++++++@#@@+X+@++++",
"+++@+@Xo##@##++++++++++++++@@@@+++@#@@+++++@+#@@@++++@#@+X@@++++",
"++@@@@Xo####@@#@@@@@@##@@###@@@@#####@@@#@@@@@@#####@@@@oX@+++++",
"   .. XXooo++++oo+++oooooo+ooo++++oooooooo+++++++++oooo+XX  .   ",
" ..O.. XXXXXXXXXXXXXXXXXXXXXXXXXXXXXXXXXXXXXXXXXXXXXXXXXX O.... ",
" O..O.. @@@++@@@+@+@@@@@@@++++++@@@@@@@+@@@@@@@+++++++@@ OO.OOO.",
" OOO.OO @+++++++@+++++@@++++++@@@@@++++++++@@++@+++++++@ OOOOOO ",
" OOOOOO.++++++++++++++++@++++++@@++@+++++@@+++++++++++++.OO.O.O ",
" .OOOO. ++++++++++++++++++++++++++++++++++++++++++++++++ ....OO ",
" .OOO.. ++++++++++++++++++++++++++++++++++++++++++++++++ O...OO ",
"  .     ++++++++++++++++++++++++++++++++++++++++++++++++        "
};
