/* XPM */
static char *smoker_side[] = {
/* columns rows colors chars-per-pixel */
"64 64 16 1 ",
"  c #967441",
". c #7E6237",
"X c #67502C",
"o c #3C3B3B",
"O c #494848",
"+ c #504E4E",
"@ c #513D24",
"# c #3A2F1E",
"$ c gray52",
"% c #777777",
"& c #5D5B5B",
"* c #686868",
"= c #231B15",
"- c #352B24",
"; c gray57",
": c #595858",
/* pixels */
" .. ..X oooooooooooooooooooooooooooooooooooooooooooooooo X X X. ",
" .X ..X ooOOOO++++OOO+++OOOOOOO++OOOOOOOooooooOOOOO+OOooX@ X.X. ",
" .@X .X oOO+++++OOO+++OOOO++++++++OO++OooooOO++O++OO+++o@@.@.X..",
"  @X X  oOOO+++OOO+++++OOOOOO+O+OOO++OoOO++O++++OOOOO+Oo@X.@X..X",
" .@X XX #@X@@XX..........X@@XXXX@@@@XXX..XXX@@@@XXX@@@@#@.X@XX.X",
" ..@X@X #@@XXXXX.......XXXXX@@XXX@@@@@XX..X@XX@@@X@@X@##@.@X.X..",
"X X@X@@ #@XXX...X..XXXXX@@###@@@@@XXXX..XX..X@@XXXXX@###X.@X.@.X",
"X X.@@X.##@@XXXXXX...XXXX@@@@####@@X@XXX@@@@XXXXXX@##@@#X.@@.@X@",
"X XX@X. ######@@..XXXX@X@XX@@@@@#####@@XX@XXXXX@XXXX@@##..X@X.@@",
"X .X@X. ####@@@XXXX@@@@@@@@@@@####@@@@XXXX...@##@X@@@@@#X.X@X.X@",
"XX X@.  ##@##@X@@XXX@#@@@@####@@@@@XXX.....X@@@@###@@###X.X@..@@",
"X  XX. .#@@@@@@@XX@@@@#@###@@@##@@@@X.XX..XXXXXXX@######XX.X@.@X",
".X .X .X$$$$$%$$&%$$$$$$$$$$$$$$$$$$$$$$%%+&*$%%$$$$%%**.X. @@XX",
" X. X .X$$$$$$%%&%%$$$$$$$$$$$$$$$$$$$$%$+&*%%$%%$$$$%%*.X  X@X.",
"XX..  .X$$$$%$$%&%$$$$$$$$$$$$$$$$$$$$$%%&*%%$$$$$$$%$*% .. X@.@",
" X.. . X$$$$$$$*&%$$$$$$$$$$$$$$$$$$$$$$*&%$$$$$$$$$$%%$ .. .@.@",
" .X.@. .$$$$%$$+&*%$$$$$$$$$$$$$$$$$$$$%&*$$$$$$$$$$$$$% . . @@.",
"  X.@.. $$$$$%$+*&$%$$$$$$$$$$$$$$$$$$%*&%$$%$$$$$$$$$$$.  . @..",
" @X.@X. $$$$$%%+%&%%$$$$$$$$$$$$$$$$$$%&*$%$$$$$$$$$$$$$. .. @X.",
" @XX@X. $$%$$%*+%&*$$$$$$$$$$$$$$$$$$$*&%%$$$$$$$$$$$$$%.  . XX.",
" @X@XX .$%$$$%+*$*&%$%$$$$$$$$$$$$$$$%&*$$$$$$$$$$$$$$$$. X.X.XX",
"XX@@X  .%%%$%*+%%*&*%$$$$$$$$$$$$$$$%%&%$$$$$$$$$$$$$$$$. X.X..X",
" .X@@X X%$$%*+*$%%*&%$%$$$$$$$$$$$$$$*&$$$$$$$$$$$$$$$$$ ..XX.XX",
"  XX@X X$%%*+*$%$%$&*%$$$$$$$$$$$$$%%&*$$$$$$$$$$$$$$$$$ X.X.XX@",
" .X @X. %%*+*$%%$$%*&*%%%$$$$$$$%$%%*&%$$$$$$$$$$$$$$$$$ X@X.XX@",
" .X @X. +++*$%%$%$%%*&*%$$$$%$%$$%%*&&%$$$$$$$$$$$$$$$$$X.@X.XX@",
"X . @.. *%%%$%$%$$$$%*&&*%%$%%%%*&&&*%&%$$$$$$$$$$$$$$$$X.@..X@X",
"X . X.  %%$%%$$$$%$%$%%*&&%%%*&&&**%%%&%$$$$$$$$$$$$$$$$..@.@X@X",
"X  ..  X$$%$$$$$%$$$$$%%$*&*&&*%%$$%$$&%$%$$$$$$$$$$$$$$@.X@@X@@",
"@X @.. X%$$$$$$$$$$$$%$$%$*&*%%%$%$$$%&%%$%$$$$$$$$$$$$$@X.X@X@X",
"@XX@.X X$$$$$$$$$$$$$$$$$%&*%$%$$$$$$$&%$%%%$$$$$$$$$$$$X@.X@@XX",
"@@X@.XX $$$$$$$$$$$$$$$%%%&%%%$$%$$$$$&%$%$$$$$$$$$$$$$$X@X.X@XX",
"X@@X.X .$$$$$$$$$$$$$$$$%$&$%$%$$$$$$$$&%$$$$$$$$$$$$$$$X@@..@..",
"X@.XX. .$$$$$$$$$$$$$$$%$$&%$%$$$$$$$$$&%$%$$$$$$$$$$$$$.X@.X@..",
"@XX.@.X.$$$$$$$$$$$$$$$$$&*%$$$$$$$$$$$$&%%$$$$$$$$$$$$$ X@X.X..",
"@X..@@XX$$$$$$$$$$$$$$$$%&%%$$$$$$$$$$$%&%$$%$$$$$$$$$$$. @@.X. ",
"XXX.@X@X====------------------========------------======  .@@X. ",
"X.X.@X@@===--#######--########--====--####---###-#-=====X  @.X  ",
"..X.@XX@==-##-##@@@###@@##@@@##--==-####@@@##@@#@###-===XX X@. .",
".X@X@ X@==##X@@X@###X@@@@##X@@###=-##@@##@##@XX@X@#@#-==.X .@. X",
".X@@X  .=-#X.XX@@@X..XXX@@X..X@X#--###@@@@@XX@XXXXX#@#==. X.X. X",
"X..@X .X=#@@XX@@XX..XX@@@@@XX.X@@#-#@@@XXX@@@@@@XX@@@@-=X X..X X",
"XX.@  XX-#XX..XX@XX@@@@@@XXX@X@@XX-@XX..X@@###@@@@XXXX#=X.XX. X.",
" X.X. .X-@X....XX@@X@@##@@@@@@XXX@-@..XX@@##@@##@XXX@@#=X.X.. X.",
". XX. X.#@@X.XX@@@##@@@@###@@@@###-#@..XXX@@#@@@##@@X@#-@XX.  .X",
". X.. X.##@@X@@@@#-@##@@@#-##@@@##=-@@X.X@@@@@#@@#-#@###@X..X .X",
"  X.X.XX-####@@##--##@@#----@####--=--##@@@###-=###--#-=@@.XX ..",
" .X.X..X==--####-==-#####--##--#---==--#####--==-###--==X@@X XX.",
".XX.X..X%$%+$$%$$$$$$$$$$$$$$$$$$$%$%$%+*%%*%%$$$$$$$$$$X@.X .X.",
"..XX..XX$%*+%$$$$$$$$$$$$$$$$$$$$$$$$%%+$%*%%$%$$$$$$$$$XX.. .X.",
" ..X...X%$&*&$$$$$$$$$$$$$$$$$$$$$$$$$+&%$%$$$$$$$$$$$$$.XX.X XX",
" ..X. .X%%&%&%$$$$$$$$$$$$$$$$$$$$$$%$+&$$$$$$;$$$;$$$$$.@X..  X",
"  . . X.*%&$*&%$$$$$$$$$$$$$$$$$$$$$%%+&$$$$$;;;$;;$;;$$@@X.X. X",
"X . . X.**&%%&%$$$$$$$$$$$$$$$$$$%$$$%+&%$$$$$;;;;;;;$$$.@XXX. X",
"X XX  X.%+*%$*&%%$%$$$$$$$$$$$$$$$$%$+*&*$$$$$$;;;;$$$$$.@@X@X .",
"X X. XX.*+%$$%&%%%$$$$$$$$$$$$$%%$%%%+**&%$$$$;;$;$$$%$$..@X@X.X",
"XX.. X..+*$$$$*&%$%$$$$$$$$$$$%%$$$%+*%*&*%$%$$$;$$$$$%$X.@X@X.X",
" X.X X..+$$$$%%*&%$$$$%$$$$$$$$$%$%%+$$%*&*%$$$$$$$$%$%%X.X@@X.X",
"X..XX ..&%$$$$$%*&%%%$$%$$$$$%$$$%++*$$$**&*%%*$$%$%%%*&X.X@X..X",
"X...X ..*$$$$$%%%*&&%%$$$$$%%$$%++*%$$$*%$*&&*%$$$%%*&++X.@@X.XX",
"XXXXXXXXO+++++:::&&::&&&::&&&&&&&&:&&&:::++++::+++:+++O+XXXXXXXX",
"@@@##@##+OO+:::::::++:&:::::&&::::++::::::::++::::::+++O##@@##@#",
"@##@@##@OO++++O++::::+:++:+O:::+++:::::++:+::::+++++OOOO@####@##",
"@@###@@@OOOOO++O++++:::::+O+++::OO+:++::++::++++OOO+++OO@@#@@@#@"
};
