/* XPM */
static char *spruce_leaves[] = {
/* columns rows colors chars-per-pixel */
"64 64 10 1 ",
"  c gray26",
". c #494949",
"X c #555555",
"o c gray35",
"O c DimGray",
"+ c #6A6A6A",
"@ c gray48",
"# c #989898",
"$ c #9A9A9A",
"% c None",
/* pixels */
" o+o++Oo %%%%..o+ .o%%%%% o##@@%%@%+@XXX%%@. @@##%%%+..++o +  .%",
" ++.+o+%o%%%+o.+o...o%%%%o##@X%%%%++@#X+@%o  .X@##%%+.%+o %+o.o%",
"%+o%+o+%%%%+Xoo+oo+.o+o%%#@%%@%%%#@+$@+++@.. o@+%@#+o%%oo%%oo.+%",
"%o+%%%o.%++o+Xoo++o. %++o#%%%%%%#@@@$@@#+@#@.+oooo#o%%% o%%+oo %",
"%%o%%%%oo+%@XX+++ooo %%%+o%%%%##@%X@@$$@+Xo##@ o+ooo%%%% %%+o %%",
"%%.%%%%%+##++X@##.o o %%%+%%%@#%%%X@$$@@@Xooo#@.o+++o%%% %%%. %%",
"%%%%%%%@@#@@X+#@@@@oo %%%%+%%#%%%X@X$@+@X@X oo#o%%oo+o%%%X%%.%%%",
"%%%%%@@@#@X@X#@X@#@@@oo%%%%%#%%%%X@@$@$$@@X   %#o%%oo++%X%%%.%%%",
"%%%%@###@+@@@@@@+@###@o%%%%%%%%%X@$$@$@@$$@@ .o%%%%% o++X%X%%%%%",
"%%%@#@@%%@+@X@@+@. @@#@.%%%%%%%%@@$@@$+X$$$@...o%%%%o%%o+X%%%%%%",
"%%##@@%%@++@XXXo.@. @@##.%%%%%%$@$$@$++X@$@$++.o+o%%%%%@XX+%%%%%",
"%##@X%%%+++@#X+@  .% X@##o%%%%$+$@$X@+X+XX@$$+. %++o%##++X@##%%%",
"#@%%@%%%#@+$@+++@.o% @+.@#+%%$++$$@X#XX+ X@$@$@ %%%@@#@@X+#@@@@%",
"#%%%%%%#@@@$@@#+@#@%%+o%%#+%%#+%$@X+$@+@oX$$+@$$ @@@#@X@X#@X@#@@",
"#@%%%##@%o@@$#@+Xo##@o+%%%o.#@%%@@+%@@+$oo#@++@$@###@+@@@@@@+@##",
"@#@%@#%%%X@$$@@@X %%#@o%%%%o@%%%X@%%$@@X++@#oo+@+@@%%@%@X@@%@%%@",
"@@###%%%X@X$@+@X@X%%%#.%%%%% %%%%X%%#@Xo+oo@. ##@@%%@%+@XXX%%@%%",
"%X@##%%%X@@$@$$@@X%%%%#%%%%%. %%%X%%%+X++o++.##@X+.%%++@$X+@%%%%",
"%@%%@#%X@$$@$@@$$@@%%%%%%%%o  .%%%%%+++o+ o.#@  @++.#@+$@+++@%%%",
"%%%%%#%@@$@@$+X$$$@%%%%%%++.. o++%%+.+++o + #.% o+o#@@@$@@$+@#@%",
"@%%%%%#@$$@$++X@$@$+%%%oo+oo .+oooo+.%+o %+o.o% +##@+X@@$$@+X%##",
"#@%%%#+$@$X@+X+XX@$$+ooo+o o +o o+ooo%oo%%oo.+%%@#%%oX@$$@@@X%%%",
"%#%%$++$$@X$XX+%X@$@$@++o.oooooo.o+++o o%%+oo %%#+%%X@X#@+@X@X%%",
"%%#%$+%$@X%#@+@%X$$+@$#%%o%o oo%o%%oo+o %%+o %%#%o%%X@@#@$$@@X%%",
"%%%$@%%@@%%@@+#%%#@+o@#%o%.o   %%o%%oo++%%%. %%%%.%X@$$@$@@$$@@%",
"%%%@. %X@%%#@@X%%@#o %@+%..o+ .o%%%%% X++%%.%%%%%%%@@$@@$+X$$$@%",
"%%%o  .%X%%$@X%%+o@%o%%@+o.+o...o%%%%o%%o+%.%%%%%%$@$$@$++X@$@$+",
"+++.. o+X%%%+X%%+%+%%%%+ooo+oo+.o+o%%%%%%+%%%%%%%$+$@$X@+X+XX@$$",
"#@oo .+oooo%+%%%%%%%%++o% oo++o. %++o%%%%%%%X%%%$++$$@X$XX+%X@$@",
"@$$o +o o+oo+%%%%%%%o+%%% o++ooo %%%+o%%%%%%+X%%$+%$@X%$@+@%X$$+",
"o@$ooooo.o+++o%%%%%%+%%% o +o.o o %%%+%%%%%@XX+$@%%@@%%@@+#%o#@+",
"%o@+ oo%o%%oo+o%%%%+%%%% oo+o++oo %%%%+%%##++X@@#%%X@%%$@@Xo+@#%",
"o%.@   %%o%%oo++%%%%%%% o++o+oo++oo%%%%@@#@@X+#@@@@%X%%$@X++oo@%",
"%..o+ .o%%%%% o++%%%%%%oo+oo+. +++o%%@@@#@X@X#@X@#@@X%%%+X+o %+%",
"+o.+o...o%%%%o%%o+%%%%+o++o+.. o+o+.@###@+@@@@@@+@###@%%+o%%o%%%",
"ooo+oo+.o+o%%%%%%+%%%+.+o+ o. .  o+@#@@%%@%@X@@%@%%@@#@%+%%%%%%+",
"% oo++o. %++o%%%%X%%+..++o +  .% o##@@%%@%+@XXX%%@%%@@##%%%%%++X",
"% o++ooo %%%+o%%%+X%+.%+o %+o.o% ##@X++%%++@$X+@%%%%%X@##%%%o+%%",
" o +o.o o %%%+%%@XX+o%%oo%%oo.+%#@o%@o+%#@+$@+++@%%%%@%%@#%%+%%%",
" oo+o++oo %%%%##++X@##% o%%+oo %#o+%%%o#@@@$@@$+@#@%%%%%%#%+%%%%",
"o++o+oo++oo%@@#@@X+#@@@@ %%+o %%%%o%%##@%X@@$$@+X%##@%%%%%%%%%% ",
"o+oo+. +++@@@#@X@X#@X@#@@@%%. %%%%.%@#%%%X@$$@@@X%%%#@%%%%%%%%%o",
"++o+.. o+@###@+@@@@@@+@###@%.%%%%%%%#%%%X@X$@+@X@X%%%#%%%%%%%%+o",
"o+ o. . @#@@.%@%@X@@%@%%@@#@.%%%%%%#%%%%X@@$@$$@@X%%%%#%%%%%%+.+",
"+o +  .##@@o+@%+@XXX%%@%%@@##%%%%%%%%%%X@$$@$@@$#@@%%%%%%%%% ..+",
"o %+o.##@X+.o+++@#X+@%%%%%X@##%%%%%%%%%@@$@@$+X$#$@%%%%%%%%%. %+",
"o%%oo#@%%@o%%#@+$@+++@%%%%@%%@#%%%%%%%#@$$@$++X@$@$+%%%%%%%o  .o",
"+%%+o# %%o+%#@@@$@@#+@#@%%%%%%#%%%%%%#+$@$X@+X+XX@$$+%%%%++.. o+",
"ooo+o %%%%##@%X@@$$@+X%##@%%%%%%%%%%$++$$@X$XX+%X@$@#@%oo+oo .+o",
"o+ooo %%%@#%%%X@$$@@@X%%%#@%%%%%%%%%$+%$@X%$@+@%X$$+@#$o+o o +o ",
".o+O+o%%%#%%%X@X$@+@X@X%%%#%%%%%%%%$@%%@@%%@@+#%%#@%o@#+o.oooooo",
"o%%Xo+o%#%%%%X@@$@$$@@X%%%%#%%%%%%%@%%%X@%%#@@X%%@#o+o@+%o%o oo%",
"%o%%oo++%%%%X@##@$@@$$@@%%%%%%%%%%%%%%%%X%%$@X%%%%@+oo%@o%.o   %",
"%%%%% o++%%%@@$@@$+X$$$@%%%%%%%%%%%%%%%%X%%%+X%%%++o %%%%..o+ .o",
"o%%%%o%%o+%$@$$@$++X@$@$+%%%%%%%%%%%%%X%%%%%+%%%+o%%o%%%+o.+o...",
"o+o%%%%%%+$+$@$X@+X+XX@$$+%%%%%%%%%X%X%%%%%%+%%%+%%%%%%+ooo+oo+.",
" %++o%%%%#++$$@X$XX+%X@$@$@%%%%%%%%%XXX%%%%%%%%%%%%%%++o% oo++o.",
" %%%+o%%%$+%$@Xo$@+@%X$$+@$$%%%%%%%%+X%%%%%%%%%%%%%%o+%%% o++ooo",
"o %%%+%%$@%%@@+.@@+#+%#@%%@$%%%%%%%@XX+%%%%%%%%%%%%%+%%% o +o.o ",
"o %%%%+%@%%oX@oo$@@Xoo@#%%%@+%%%%##++X@##%%%%%%%%%%+%%%% oo+o++o",
"+oo%%%%%%ooo+X o#@X o+o@o%%%@%%@@#@@X+#@@@@%%%%%%%%%%%% o++o+oo+",
"++o%%%%%o+++oXooo+Xo.o+++o%%%@@@#@X@X#@X@#@@@%%%%%%%%%%oo+oo+. +",
"+o+.%%%X+oo%%o%o +o%o%%oo+o%@###@+@@@@@@+@###@%%%%%%%%+o++o+.. o",
" o++.%++oo%%o%.o + %%o%%oo+@##@%%@%@X@@%@%%@@#@%%%%%%+.+o+ o. . "
};
