/* XPM */
static char *spruce_log_top[] = {
/* columns rows colors chars-per-pixel */
"64 64 8 1 ",
"  c #553A1F",
". c #443321",
"X c #5A4424",
"o c #614B2E",
"O c #70522E",
"+ c #7A5A34",
"@ c #82613A",
"# c #886539",
/* pixels */
". X    X      XXXX        XX   XXXXX  ..    XX .     XXXXX  XX  ",
" .  X XXX   XXX X   . .X XX .X .XX  .X.   XX XXX.. .  XX  .  X X",
"..OOOoooOooOOoOOOoOOOOOOOOOoooooooooOOoOOOOOooOOOOOooooOooOOoOXX",
". O++##@+@@@++@@@###+#+#+##+++###@++#++@+@+@++@+@@@@+@+++@+@@OX ",
" XO#++##@##+@++@+#+@#++#OOO@O@++###+##@+++@@+@++##@+##+##+@+@o X",
" Xo+#++##+#++@@@++@++@+O+O@O@@@++#+#@@+++@+@@@+##+##+##+##++@oX ",
"X o+##XXXXXXXXXoXXooXXXXooooooXXXXXXooXXooXoooXXXXooXXXXoo+#+oX ",
"X o#+#XOOOOOOOooOOOOOOOOOOOOoOOOOOOOOOOOOOOOOOOOOOOOOOOOOo##+O  ",
" Xo###XO@@#@@@++###+#+@@##+@@+###+##+@@@@++##@@@#+#####+OX#+#O X",
" XO@#+XO#@@#+++@@+##+++@@#@#+#++###+++@@+@#+@+@++#+#++##OX#++O  ",
" XO@+@XO##++++@+@@++##@+#+O@##@#++++@+++@++++@++@+@+@++#Oo+#+O X",
"  O+@@XO#+++@@@@+#@@@@#+OOOO@@@@@@+@@@@@@@O@OO@@+@@@@@++OX+++OXX",
"X O++@XO#++@ooXoooXXooooXXXXXXoooXooXooXoooXooooXooo@++#OX#+@O.X",
"XXo+@+XO+#+@oOOOoOOOOOOOOOOOOOOOOOoOOOOOOOOOOOooOOOo+#+#Oo#@+O..",
"X O@+#oO##@OXO@@###+#@#@@+####@@@+@@@+##++@@@+##+@OX@+##Oo@#@OXX",
"XXo@+@oO#+@OXO@#+#+++#@@+##+#@+@+##@###+##+@+++#+#OX@+@#Oo@@+OX ",
" Xo@#@oO++O@XO##@+@++@O++@+#++@@++@##@+#++++@O++#+OXO@@@Oo+@+o X",
". o+#@oO+++@XO#++@@@OOOO@@@@+@@+@@@@@@@@++@@OO@++#OoO+@@OX+@+oX ",
". o#@#XO#+O@oO+#+@ooXXoXooXXXXXoXoooXoooXXXXoo@++#Oo@+@+Oo@++o  ",
" .o##@XO##@@oo#+O@oOOOOOOOOOOOOOOOOOOOOOOOOOOX@@++OoO++@Oo@+@O  ",
" Xo+##oO@#@OXo#+@OXO+###++#+##@@@+##@@@##+@+Oo@O+@Oo@@@@OX+@@o. ",
"XXO+#+oO@@@OXO+##OXO###++++#+@+@++++#@##+#@@Oo@++@Oo@#@+OX@++O.X",
"X O#@+XO+@+@XO@#+@XO@#++@+++++@O@@+++++++@+@OX#@@@OX@+#+Oo+@@OXX",
" XO#+@XO++@@oO#@@@XO#++@@@++@@OOO@O@@@++@++@OX+#@#OX@+##OX++@oX ",
"XXo#@@oO#+@+XO@@++oO##+@oXooXoXoooXXXXoo@+@@Oo#+##Oo@@+#Oo@+@o. ",
"X o#@OoO##@@oO@+++oO#++#oOOOOOOOOOOOOOOoO@+@Oo++#+oo@+##Oo@@+o  ",
"XXO+O@oO@#+OoO@@+@XO++##oO+###@@##@@+@OoO@+@OX++++Oo@++#Oo+@+oX ",
"X OOOOoO@@OOoO@++@XO++#@oO#+#++@@+#@++OX@+++OX@+++Oo@@@+OX@O+OX ",
"  o+@OXO+@@OXO+++@oO@++#oO##oXooXXXo+@Oo++@+OXO@+#Oo@+@@OXOO@OX ",
"X.O@O@oO@++OXO#+@OXO#+++oO#+oOOOOOOo@@OX+@@@OXO@+#Oo@@+#OoO@+O  ",
"  O+O@oO+@+@oO#+#@XO##+@XO+@oO@O@+OX+@OX++##OoOO##oo@+##Oo@O@OX ",
"  O@@@oo#@#OoO+##@XO@#+@XO+@XO+++@OX@+Oo@++#OoO+#+Oo@#+#oo@@+OXX",
"X o@+@XO@#@@oO#+++oO@@#@XO@+XO@+@@OX+#OX@@++Oo@++#Oo@+#+oo@O+O X",
"XXO+@@XO##@@oO###+oO#@+@XO@+XOO@++Oo##OX@++@Oo@+++OX@++@Oo@O@oXX",
"X o#@+oO++#@oo+#+@oO@+@@XO@@oOOOOOOo##OX+#@#Oo@++#Oo@@+#OoO@Oo.X",
" XO##@XO+++OXo+#+@XO++O@XO@+oXooXXoo+#OX++##OX@@#+Oo@@@#OoOO@OX ",
"  O#+@oO@+@OXO++@@oO@+OOoO+@@++#+#@+#+Oo@++#OoOO+#Oo@+##OoO@+o. ",
". O+@+XO@@OOXO++O@XO@@+OXO@+@@++##@@++Oo@@++OoO@##Oo@+##OX@O#O  ",
". o+#+XO#@@OoO#+@OoO+++@XOOOOOOOOOOOOOOX@+@+Oo@++#OX+++#Oo@@+OX ",
"..o@+#XO###OoO##+OoO+++@oXooXXXXXXooXXoo@+@@Oo@@++OX+@#+Oo@@+O  ",
"X o@##oO+#+@oo#@++oO@+@@+++@O@OO@@OO@@O@+#+@OX@++#OX@++@Oo@++O  ",
" Xo@#+oO#+@@oO@+@+oO@++@#@+++@#+@++@O+++##@#OX++##Oo@+@@oo+++O  ",
"XXo+@+oO@+@@XO+@+@XO@@@###@+++#@#+@@++#+@#+#OX@+##OoO+@+oX@++oX ",
"X O++@oO@#+@oO+#@@oO@@++#@@@+#####@@+##@###+Oo@+#+OoO@++OX+@+o.X",
"XXO#@+Xo@+++XO#@@+oOOOOOOOOOOOOOOOOOOOOOOOOOOo@@+#OXOO+#Oo#++OXX",
"X O#@@Xo@@##XO##+@ooXXXooXoooXoooXXXXXoooXoXXo@@++OXO+##Oo+#+oX ",
"  o+#@XO#@+#oO+#@O@@@@OO@+++++@@OOOO@@@@@@@+@@@++#Oo@+#+Oo##+O. ",
"XXO#@@XO@#++oO#++@+##+@++++@+++@@O@+++@@+@+++@++#+Oo@#+#Oo#@#O  ",
"X O+@#oO#++@oO+@+@#@+@+@+#@#@@##+++@++##+#@+++#+##Oo+++@Oo@@+o. ",
"  o+#+oO##@@oO@O@#+#@@@+####@##@#+@@@##+##@@++##+#OX++@@OX@@@o..",
"X.o@##XO#+@@oOOOOOOOoOOOOOOOOOOOOOOOOOOOOOOOOOOOOOOo@+#@Oo+@+OX ",
"  O@@#oO++O@oXoXXXXXXXooooooooXoooooooooXXXXXXooXXXo@@+#OX+@@OX ",
"X O@#+oO@++O@@+++@@@OO@@++OO@@++@@@@@@++@@OOOOOO++@@@++@Oo@++oXX",
"XXO+@+XO@#++++++++@+@O@++++@O++++++@+++++++@O#+#+++@++@#oo+#@O  ",
"X o#++oO#@#+++++@###++#+#@++++++#@@+++##@++#+##+#++++#+#OX+#+O X",
"X O#+#oO#@@@++@@#@@#+###@@@@++##@#@@+####@++++####++####OX##+OXX",
" Xo+#+oOOOoOOOOOOOOOOOOOOOOOOoooOOOOOOOOOOOOOOOooOOOOOOOOo+##O X",
"  O##@oooXXXXoooXXXXoooooXXXoooXXXXXXoooXXXXXXXXooooXXXXoo++#oX ",
"  O+#@@#@++@+@@##+#+@++@@@O++@+##++@@@+@@+@##+@+#+##@+++##+#+oX ",
". o#@#@@@@++@#@@+###+@@#@OOO@+@@+#@+@++#+@#+@@@@+##@@@++++###o X",
"X O+#@@+++@@++###+#++#+###++#++#++++#+####++#+##++#+#+##+++#+O X",
"  oooOOOoOoOOoooOOooOOOOooooooOOOOOOOOOOOOOoOOOOoooOoOOOOoOOoOX ",
"X  . X.X X X   X X XX .. XX X   XX  ....  X XXX..XX  X .X XXX  .",
"XX  .X..XXXXXX  XXX ...XX XX  XXXXX  .       X. .. XXXX XX X  .."
};
