/* XPM */
static char *spruce_trapdoor[] = {
/* columns rows colors chars-per-pixel */
"64 64 10 1 ",
"  c #5A4424",
". c #664D28",
"X c #785836",
"o c #6B5332",
"O c #805E36",
"+ c #553A1F",
"@ c #353535",
"# c #3F3F3F",
"$ c #565656",
"% c #686868",
/* pixels */
" .XoXoXOoXXo. XOoXoXOoOX+.XoXOoXoXOXoX. oXooOoOXoX .XOoXoOXXoX. ",
" .o.Oo.OoXoX. oO.XoOoOXo+..oOXooXOOo.X. .oX.OooOoX .oXooooOooX. ",
" ..OOX.oXooX. oX..OO.XoX+.X.XoXoOoOoXo. X.o.oX.oXo .oo.oXoXO.o. ",
" .oOoXo.XoXO. Xoo.oO.XoO+.O.ooOoXoo.Xo. X..oo.oXOo .XoX.XooO.o. ",
" .oXoX.XO.oO. XoXoXOoo.O+.OXoXoooX..XX. oo.oX.o.Oo .XoOXoX.XoX. ",
" ..OXo.OO..O. oXOXoXX..X+.Xo.X.XoO.XoX. oXooXoO.oO .oXoOoO..XO. ",
" ..oX.oO.X.X. .OXo.oO.oo+.oX..oX.OoO.o. OX.XoOO..O .oXoO.OO.oO. ",
" .X.oXoXoOo.. oOooXoX.Xo+.XXo.XO.oXXO.. O..XoOXo.X .Xo.X.oO.oX. ",
" .O.XX..XOX..+Xo.XOo.oOX .XoXooOX.XoOo.+X.XoXXoXo.+.O..oXoXoXo. ",
" .OooOX.XoOo.+O.ooXooXoO .ooOXoOooX.XX.+OoooOo.OOo+.OX.oXo.oOo. ",
" .oXooOo.oXX.+O.X.OXoXoO .oXOoOXoXoo.X.+oOoOX.ooOo+.XOoOoX.oOX. ",
" .oXoXOXoXXo.+XoX.OOXoXX .oOXoXoXX.XoX.+oXoXo.XoXX+.XoOOooo.oO. ",
"@#$%%%%%%%$#. #$%%%%%%$# .#$%%%%%%%%$#. #$%%%%%%$# .#$%%%%%%%$#@",
"@##$$$$$$$##. ##$$$$$$## .##$$$$$$$$##. ##$$$$$$## .##$$$$$$$##@",
" .oXX.XXoXOX. XoOXoOX.oX .XoXOXoXOoXXo. XOXXoXoOXo .oOOoXoXoOo. ",
" .ooO.OXoXOo. XoOooXo.XO .XooXOXoOoXoX. .OXooO.Ooo .XoO.OooXOX. ",
" ..XOooOooXo. XOoXooX.OX+.ooXoOX.XOooX. .XoX.OoX.X+.O.Xo.OoXoX. ",
" .oXoXoOX.oX. oX.OXoXoOo+..XXoXoo.XXoO. o.oX.XXo.O+.X.oo.OXooo. ",
" .oOoX.oX.Xo. oX.oXooXXo+.o.OXo.XoXoXO. XoX.oOX.XO+.oXoXooO.Xo. ",
" .XOXX..ooXo. ooX.oX.XoX+.O.Ooo.OXooOo. oXX.OXo.OX+.oOXoXoXo.X. ",
" .XOOoo.Xoo..+XoOoXO.ooO .XoO.XoOXoXXo.+oXOoXo.XoX+.XOO.oXoo.O. ",
" .oOoXo.OX...+oXOXoOX.XO .OoXooXoXoXoX.+XOooooXXoo+.OoO..XoXoX. ",
" .oXoXoXOX.X.+oXoO.Xo.oX .OXoXoXooXooO.+XOX.oXO.o.+.OoXoXoXO.o. ",
" .X.oXoXoXoX.+oooX.XOooX .XooOXOoXXO.X.+oOo..OX..o+.Xo.XOooX... ",
" .X.XoXOooXO.+XoXoo.XoXo .oX.oOOXoOX.o.+.X.XoOOo.X+.oX.OOX.oX.. ",
" .OoXoOOoXoO.+OoX.XooXOo .oXX.OXo.OoX..+o..OXoOXoO+..XoOoO.XOo. ",
" .OXoXOoOXoO.+OXo.XOoXo. .XoX.XoXoXXoX.+o.ooXoXoXO+.oOXooXooOo. ",
" .XOooX.XooX.+XOoXoOXo.X .X.OoXoOooXoX.+XoX.OXo.OX+.XOoXooXoXo. ",
" .XoXoX..oOo.+oXoOoX.oXO .o.OOooXO.o.X. XOo.OOooOo+.oXooXoXooX. ",
" .ooXo.o.XOo.+.oOOo.oXoX ..oXOo.oO.XoX. oOoXoO.OOo+.ooX.oXooXO. ",
" .oXOo.X.OX..+.XXO..XOoX .oOoOoX.XoOXo. oXoXoX.OX.+.XoX.XXo.Oo. ",
" .oXOXoXoXoo.+ooOo.XOXoo .oOoXOX.oXoOo. ooXoo..oX.+.XX.oXO.XOo. ",
" .OXoOoOXooX.+XoXoXoOoXo .oXooO..XOoOX.+X.oX..X.o.+.oXoXoO.oXo. ",
" .OOoOXoOX.X.+XoooXoXoOX .XoXoX.XoO.oX.+O.oO.oXOXo+..oXO.X..oX. ",
" .XO.OOooX.X.+OoX.OXooOO .XooX.oXoOO.o.+O.XOoXoOoX+..XOo.XO.XO. ",
" .oX.oOoXooO.+OXo.OX.XOo .oXoXoXO.XO.X.+XoOoXOoooX+...X.XoXoXo. ",
" ..Xo.XXXoXO. OO.XXo.XOo+..XoXooO.oXoX.+.oXooXOoXX .o.oXOooXoo. ",
" ..oXoOXo.Oo. Xo.Oo.XoXo+.oXOoooXO.oXo.+oXo.XoO.OX .XoXOoXoOoX. ",
" .ooo.oO..Xo. oXoXOoOooX+.XOXoXoXoooO..+oO..X.X.oO .XOoO.XXOOX. ",
" .XoX.oO.ooX. .XXoOOXX.O+.oOooOXo.XoO..+XO.Xo..ooO .OXoXoXoOXo. ",
" .oXXooX.XoX. .oOoXOX..O .oXoXoOX.XOXo. XoXO.X.XoX .OoooXX.XoX. ",
" .oXOoXooOoX. XoOooOX.oX .Xo.XoOOo.XoX. OooXoXoOo. .XoXooX.ooX. ",
" .ooOOX.XOXo. X.OX.XoXoo .O.XoXOoX..oO. OXoXXoOXX. .oXX.ooXoOo. ",
" .XoXOooOoXO. O.XOo.oOXo .X.XooOoX.oXO. OooOooOoOo .oO..XoXoOX. ",
" .OXoXoXooOX. OXoOX.XOOo+.ooO.oXoXoXoO. X.XOXoXoOX+.XO.ooXX.oO. ",
" .Xo.XOX.XOo. XO.XooO.OX+.oXOX.oXoXX.X. X.OXoXo.oO+.OXoX.Xo.oO. ",
" .Xo.oOo.oX.. XOoooXO.oX+.ooOOoXXo.Xoo. Xo.XooX..O+.OoXO..oX.o. ",
" .o.XoXoX.o.. o.ooXoX.Xo+.XooOXoO.ooXo. oooooOX.oX+.o.oXO.oXXo. ",
" .oXoXoXOoXo.+..XoO.oXOo+.oXooXoO.XoXO. oXooOX.oXo+.oX.oO.XoOX. ",
" .XXoXooOXoX.+.oXOXoXOXX+.oXoXoOXoXXOX. XXoXOXoXOX+.oXXoOoXoXO. ",
"@#$%%%%%%%$#.+#$%%%%%%$#+.#$%%%%%%%%$#. #$%%%%%%$#+.#$%%%%%%%$#@",
"@##$$$$$$$##.+##$$$$$$##+.##$$$$$$$$##. ##$$$$$$##+.##$$$$$$$##@",
" .oOXooooXoo. XXOoXOXoOO .OXoXOOXoOXXX. XoXoXOoOXo .XooXo.oXoX. ",
" .XoOo.oXOo.. XOXoOXo.XO .Oo.XOoXoOOXo. o.XooOoXoX .X.oOX.XOoo. ",
" .XoO..ooX... oOoOOoX.oO .X.oOooX.XOoo. ..o.XX.ooO ..oXOooXoXo. ",
" .oXo.oXOooo. X.oOXoOX.X .o.XOoXo.oXoX. .X..Oo..XO ..XOO.Xo.OX. ",
" ..XoOoOoOXo. O..OooOO..+.oXoXoXoX.o.O. .X.OXoX.oX .ooO.oOX..O. ",
" ...OX.OoXoX. OX.XoXoOo.+.oO.ooooO..XO. ooXoX.OoXo .XoX.XOXo.O. ",
" .o.Xoo.oooO. oOo..XoXXo+.OX.X.oXOo.Oo. OoXoo.XoX. .OXoXoXoXoX. ",
" .Xo.oo.o.oO. .OXo.oOXoo+.O..X.XXoOooX. OXoo.o.oOo .oXoXoo.XOo. ",
" .OX.Xo..ooo. .XoXooOX.X+.X.OXo.ooOOoO. XooXo..XOO ...ooXo.OX.. ",
" .OoooXo.oXo. XooOoXoO.O+..oOoX..ooOoO. oo.oX.ooXo .o.XooXoX.o. ",
" .ooXoOo.oOo. O.XOXo.XoO+..OXoO.X.oXXo. o.ooO.XooX .XoXXoOXooX. ",
" .oXOoOXoXXO. OoXOO.XXOX+.oOXOXoXoXoXo. X.oOXoOXoO .XoXoXOXoXX. "
};
