/* XPM */
static char *spruce_door_top[] = {
/* columns rows colors chars-per-pixel */
"64 64 22 1 ",
"  c #997140",
". c #805E36",
"X c #664D28",
"o c #5A4424",
"O c #553A1F",
"+ c #795936",
"@ c #6B5332",
"# c #4D3317",
"$ c #6D5332",
"% c #7A5936",
"& c #7E5D36",
"* c #6C5332",
"= c #6B5231",
"- c #686868",
"; c #535353",
": c #3F3F3F",
"> c #353535",
", c #6B5230",
"< c #6D5432",
"1 c #6B5331",
"2 c #775736",
"3 c #694F29",
/* pixels */
"      ..   .XX   .     .Xo         .Xo  .     . Xo       .  . .O",
" .+....+....Xo...+......oO.@........XO.....+..+.oO............o#",
" ++.+.++..+.XO..+++@.++@oO+@+@+@+@+@oO..+.+++.++oO..+..+.+.+..O#",
" +$++..++.++oO...+@@++@@XO+@@@+@+@@XoO.++.@+..+@oO.++.++.++@+.##",
" .$++...+.+@XO.+.+@@@+@+XO.+@@+@@+@XoO.+@.@+.++@oo.+.+.+..+X@.O#",
" .$$++.++.+@XO.+.@+.@@++oO.+@+@X@+X@oO.+@+@+.+@@oO.+.+.@+.+X@+o#",
"..+$+$++..@+oO..+@..@++.XO..+@@X@@X+XO.+@@..++@+XO.+..+@..+XX+o#",
".%$+++$+.+@+oO..++.+@+..XO..+@&X@XX+oO..+@@.++@+XO.+..@@.+.@X@oO",
".%$+.+$$++@.oO...+.+.+.+XO..+.+@XXX+oo..++@..+@+oO.++.@+++.+X@o#",
"..+%.+.$+@+.XO.....@+..@oO..+.+@@XX@oo+.+@@+.@@+oo+.+*@+*+..XXo#",
" .%$.+.$$X.+oo.+.@+@+.+@oO....+@X@X@Xo+.+@+..@++Xo+.++@**@+.XXOO",
" .$%..++$X**Xo++.@++..@+oO+..++XX+X@XO.@+@+.+@++XO+..+@**X*+@XoO",
" %$%+.++X@*XoO+.+@@+@.@+XO@.++@X@+X@XO.+@+.+@+++XO.+.@+*+XX*XXoo",
" .$%+.+$X++XXo+.@+@+@+@@oO@.++@X++X@oO.+@+..@@++oO+.@@+.+*XX@Xoo",
" .$$.++XX*+*Xo..@++@@++@oO+@.+X@+@@Xoo++@@+.+@+*OO..+@@+.+XX@@oO",
" %%$.+$X**++Xo.+++@@+++@oO++.=X@+@+@XO+++@+.+@*+oO@+@@@@+*@X@XoO",
"---;;;-----;;;;;------;;;;:;------;;;;;;------;:;;;;-----X@@XXOO",
"-;;:;;;;--;::;;:;;--;;::::;;;;--;;>::;;;:;--;;;;:>:;;;--;:X@X@O#",
"-:;:::;;;;:>>:::::::::>>>:::>>:::::>>>>:::::::::>::::::::>XX@@O#",
"-;::>>::;;;:>>>>>>>>>>>>>>>>>>>>>>>>>>>>>>>>>>>>>>>>>>>>>oXX@@O#",
"-;:>Xo>::::>oOoooooXoXXXOOoXoooooooXooXXXoXoooXoOOoooooooXXX@Xo#",
";::>XXo>>>>XoOXXooXXXX@@OOX@oXooXoXXoOX@ooXXoXXXoOXoooXoXXXXXXO#",
";:>:@XX@XXX@ooX@oXX@X@+@oO@@XXXo@XX@oO@@Xo@XX@XXXOXoXoXXX@XXXXo#",
":>>>@X@+@XX@oO@@X@X@+@++oO@@X@XX@@X@oO@+XX@@X@@XoO,XXXX,X@XXXXo#",
"..++<@@.+X1+OO+@X+@@.+@+Xo+@@@+X@+@@oO@+X@%@XX@Xoo,,X,X,,X@XXXoO",
"..+<+@+..11+OO+@@+@+.+@@XO.+@++@+++@OO++@@.%@X@XXo,,X,,+,,@XXXoO",
" .+<+@.@.1++oO++@+++..+@oO.+.+.@++.+OO++X@+.%@X@Xo+,,+,++,@@XXOO",
" .+<<++@<+++oO++@++++.++oo+..+.+*+.+OO+@X+..%@X@oo++,+,,+,+@X@OO",
" ..+<+++<<++XO+.@@++.+.+oo+.+@.+*..+OO.@@+.+%@XXoO.+,++,,++@X@OO",
" +..+.++<X<+oO+.@@+..*.+Xo..+@+.*.++oO.@+<.+%%@XoO.+,+++,++XX@OO",
" ++.+.@+.X<*oO@+.@+.+*++Xo.+@++.**.*oO.@+<+.@%@XOO.+,+=+,+@X@XoO",
" ++..+@+.<X*XO@+.@++***+Xo.+@@..+*+*oO..@++.@%@XOO+.+==+.+@X@@oO",
" .++.@@.++X*XO++.+++**X*Xo.++=+.+**XXO+.@@++@@@XoO+.+=++.@X@@@oO",
" .++.@+.++XXXO+..++++*X*XO.++=+..+*XXO+.+@++%@XXoO+..=+.+@X@+@OO",
" .+++@..++*XXO+.+*++++XXXO+.++@+.+**XO+.+@+@%@X@XO++.++.+@@++@O#",
" .+@++..+.*XoO+++*+@++XXoO+..+@+.@X*oO<+.@@@%@X@XO++.+..@@@+++o#",
" +++@++.+.*XOO.@++*@+@*Xoo+.++@+@X@+oo<+.@+@@X@@oO+.++.+@@++@+oO",
" +++@@+..+*XOO.@@+*@+@X*oo+.+X@@@X++oo++.X++@X@@OO+.+..+@@@+@+oo",
" ..+@X++.**XOO.+@+@X**X*oo+++X@@XX+@oo+..X=+XX@@oO+.+.+@+@@@.+oO",
" +.++X@+.*XXoO..@++X@X**oo.++X@@X@+@Xo<.+XX=X@+@oO+..++@++@+..o#",
".+.++@X@+*X*oO..+++*XX**oo.++@X@X@@+XO<.++X@X@+@XO++.++*.+@++.OO",
"..+.++X@++*+oO..@+**X@*+Xo+.@@XX@2@+oO<<++@XX@+@oO.+.+++.+@++.OO",
"..+.<+XX@+*+XO..@.*@XX*+Xo+.+@X@2+@+XO+<.++X=++@oO.++.+..+@@++O#",
"..++<+@X@@**XO..+.*@@X*+Xo++.+X@2+@+OO.<.++X=+@@oO+.+.+.+.+X++oO",
" .+<<.@@X@+*Xo.+..*+@*+*XO++.@XX2++2OO.+..@X@+X@Xo+.@..++.+XX+o#",
" .+<+.+@X*.+Xo++.@++@++*oO+.+@@X22+2oO+..+@X++X@Xo..@+.+++.@X+O#",
" .<+.++@X+.+oo+.@@+@+@++oO..+@@X@2++XO@.+@X@+@XXoo.+=+..++.+@Xo#",
" .<+.+@@X+..oO++@++@+@@+XO..@+@X@@2+XO@.+@@@+@XXoO.+=+..+..+XXO#",
" .<<+.@+X@+.oO.+@+@@++X@Xo.+*++@X@22Xo+.+@+@++@Xoo+.==+.+.+@X@oO",
" .<<..++XX..XO.+++@+++XXXo.@*.++X@*2oo+.+++@@+@Xoo+.+=+..++X@@oO",
" .+<.+.+@X+.XO+.+@@+@+@XXo+@++.@X@+2oo...+<+@+X@oo.++X+.++XX@@oO",
" .+<.<..+@@+Xo+.+@@+@+@Xoo+@+..@XX++oO..++<.@+X+oO.+=X=.+@X@X@OO",
" .+.+<<.+@X.Xo+.+X@++@@XoO@++.+XX@+@XO.@++<.+@X+oO++X@=+.X@+X@O#",
" +..<3<.+@X@oo+.@X@@+@@XoO++.+@X@++@XO.@+<+..XX@XO+XX@++.X@+XXo#",
" +.++3<.++XXoo.++@X@+@+@XO+..+X@+@+@XO.@<X++.@X@Xo@X@@+.+X++@XO#",
" +.+<3+.++@XoO.@++X@@@+@XO+.+@X@+@@+Xo.+<X++.@XXXo.X@++.@X+++@O#",
"..++3<++.+@@Xo+@++XX=++@oO+.+@@+.+@Xoo++X<+.++@XXO.@X@++X@+@+@O#",
"..+<3+@+.@+@XO++@+=X=+++oO.+2@+2.+XXoo++X.+.++@XoO.+X@+@X@@@++o#",
".++33+@..@@+oO++@+==X+@+oO.+2@22+.@XXO+<X+..+@@XoO.+XX@@XX@@++o#",
"..+3<+@.++@+oo+@@@==X=@+oO.+2+2+.+@Xoo+X++..++@XoO+@@X@XXX@X@+o#",
"---;;;-----;;;;;------;;;;:;------;;;;;;------;:;;;;-----XXX@@oO",
"-;;:;;;;--;::;;:;;--;;::::;;;;--;;>::;;;:;--;;;;:>:;;;--;:X@@@OO",
"-:;:::;;;;:>>:::::::::>>>:::>>:::::>>>>:::::::::>::::::::>X@@@O#",
"-;::>>::;;;:>>>>>>>>>>>>>>>>>>>>>>>>>>>>>>>>>>>>>>>>>>>>>oX@@@O#"
};
