/* XPM */
static char *stripped_jungle_log_top[] = {
/* columns rows colors chars-per-pixel */
"64 64 10 1 ",
"  c #91643B",
". c #976A44",
"X c #977C45",
"o c #996C42",
"O c #9F714A",
"+ c #AA7954",
"@ c #AC8856",
"# c #AE8054",
"$ c #B88764",
"% c #BF8E6B",
/* pixels */
" #XXX##.#@@XX#....# @@@###..@@#XXXX.##  ###@  # #@@@XXX...#XXX##",
"# ##@@     @...@.      .#..# .@ ..## . ## ..@...  # ##..#@ @#.#.",
"  OOOoooOooOOoOOOoOOOOOOOOOoooooooooOOoOOOOOooOOOOOooooOooOOoO..",
" #O++%%$+$$$++$$$%%%+%+%+%%+++%%%$++%++$+$+$++$+$$$$+$+++$+$$O #",
"#.O%++%%$%%+$++$+%+$%++%OOO$O$++%%%+%%$+++$$+$++%%$+%%+%%+$+$o#.",
"#.o+%++%%+%++$$$++$++$+O+O$O$$$++%+%$$+++$+$$$+%%+%%+%%+%%++$o @",
". o+%%.........o..oo....oooooo......oo..oo.ooo....oo....oo+%+o  ",
"  o%+%.OOOOOOOooOOOOOOOOOOOOoOOOOOOOOOOOOOOOOOOOOOOOOOOOOo%%+O X",
"X o%%%.O$$%$$$++%%%+%+$$%%+$$+%%%+%%+$$$$++%%$$$%+%%%%%+O.%+%O@X",
"X.O$%+.O%$$%+++$$+%%+++$$%$%+%++%%%+++$$+$%+$+$++%+%++%%O.%++O@X",
"#@O$+$.O%%++++$+$$++%%$+%+O$%%$%++++$+++$++++$++$+$+$++%Oo+%+O#X",
"@@O+$$.O%+++$$$$+%$$$$%+OOOO$$$$$$+$$$$$$$O$OO$$+$$$$$++O.+++O..",
".@O++$.O%++$oo.ooo..oooo......ooo.oo.oo.ooo.oooo.ooo$++%O.%+$O .",
"X o+$+.O+%+$oOOOoOOOOOOOOOOOOOOOOOoOOOOOOOOOOOooOOOo+%+%Oo%$+O  ",
"X O$+%oO%%$O.O$$%%%+%$%$$+%%%%$$$+$$$+%%++$$$+%%+$O.$+%%Oo$%$O..",
"X.o$+$oO%+$O.O$%+%+++%$$+%%+%$+$+%%$%%%+%%+$+++%+%O.$+$%Oo$$+O.#",
"#.o$%$oO++O$.O%%$+$++$O++$+%++$$++$%%$+%++++$O++%+O.O$$$Oo+$+o@.",
" #o+%$oO+++$.O%++$$$OOOO$$$$+$$+$$$$$$$$++$$OO$++%OoO+$$O.+$+o.X",
" @o%$%.O%+O$oO+%+$oo..o.oo.....o.ooo.ooo....oo$++%Oo$+$+Oo$++o X",
"# o%%$.O%%$$oo%+O$oOOOOOOOOOOOOOOOOOOOOOOOOOO.$$++OoO++$Oo$+$O#@",
"#.o+%%oO$%$O.o%+$O.O+%%%++%+%%$$$+%%$$$%%+$+Oo$O+$Oo$$$$O.+$$o @",
"..O+%+oO$$$O.O+%%O.O%%%++++%+$+$++++%$%%+%$$Oo$++$Oo$%$+O.$++O .",
".#O%$+.O+$+$.O$%+$.O$%++$+++++$O$$+++++++$+$O.%$$$O.$+%+Oo+$$O..",
"#.O%+$.O++$$oO%$$$.O%++$$$++$$OOO$O$$$++$++$O.+%$%O.$+%%O.++$o.@",
"X.o%$$oO%+$+.O$$++oO%%+$o.oo.o.ooo....oo$+$$Oo%+%%Oo$$+%Oo$+$o #",
"X#o%$OoO%%$$oO$+++oO%++%oOOOOOOOOOOOOOOoO$+$Oo++%+oo$+%%Oo$$+o@#",
"X.O+O$oO$%+OoO$$+$.O++%%oO+%%%$$%%$$+$OoO$+$O.++++Oo$++%Oo+$+o.#",
".@OOOOoO$$OOoO$++$.O++%$oO%+%++$$+%$++O.$+++O.$+++Oo$$$+O.$O+O.@",
"@@o+$O.O+$$O.O+++$oO$++%oO%%o.oo...o+$Oo++$+O.O$+%Oo$+$$O.OO$O.@",
". O$O$oO$++O.O%+$O.O%+++oO%+oOOOOOOo$$O.+$$$O.O$+%Oo$$+%OoO$+O#@",
"##O+O$oO+$+$oO%+%$.O%%+$.O+$oO$O$+O.+$O.++%%OoOO%%oo$+%%Oo$O$O.#",
"##O$$$oo%$%OoO+%%$.O$%+$.O+$.O+++$O.$+Oo$++%OoO+%+Oo$%+%oo$$+O.X",
".#o$+$.O$%$$oO%+++oO$$%$.O$+.O$+$$O.+%O.$$++Oo$++%Oo$+%+oo$O+O#X",
". O+$$.O%%$$oO%%%+oO%$+$.O$+.OO$++Oo%%O.$++$Oo$+++O.$++$Oo$O$o.X",
". o%$+oO++%$oo+%+$oO$+$$.O$$oOOOOOOo%%O.+%$%Oo$++%Oo$$+%OoO$Oo .",
"#.O%%$.O+++O.o+%+$.O++O$.O$+o.oo..oo+%O.++%%O.$$%+Oo$$$%OoOO$O.@",
"##O%+$oO$+$O.O++$$oO$+OOoO+$$++%+%$+%+Oo$++%OoOO+%Oo$+%%OoO$+o @",
" @O+$+.O$$OO.O++O$.O$$+O.O$+$$++%%$$++Oo$$++OoO$%%Oo$+%%O.$O%O@#",
" @o+%+.O%$$OoO%+$OoO+++$.OOOOOOOOOOOOOO.$+$+Oo$++%O.+++%Oo$$+O.#",
"  o$+%.O%%%OoO%%+OoO+++$o.oo......oo..oo$+$$Oo$$++O.+$%+Oo$$+O#@",
".#o$%%oO+%+$oo%$++oO$+$$+++$O$OO$$OO$$O$+%+$O.$++%O.$++$Oo$++O @",
"#.o$%+oO%+$$oO$+$+oO$++$%$+++$%+$++$O+++%%$%O.++%%Oo$+$$oo+++O X",
"X.o+$+oO$+$$.O+$+$.O$$$%%%$+++%$%+$$++%+$%+%O.$+%%OoO+$+o.$++o.X",
"X@O++$oO$%+$oO+%$$oO$$++%$$$+%%%%%$$+%%$%%%+Oo$+%+OoO$++O.+$+o .",
"..O%$+.o$+++.O%$$+oOOOOOOOOOOOOOOOOOOOOOOOOOOo$$+%O.OO+%Oo%++O..",
".#O%$$.o$$%%.O%%+$oo...oo.ooo.ooo.....ooo.o..o$$++O.O+%%Oo+%+o.#",
"##o+%$.O%$+%oO+%$O$$$$OO$+++++$$OOOO$$$$$$$+$$$++%Oo$+%+Oo%%+O X",
"..O%$$.O$%++oO%++$+%%+$++++$+++$$O$+++$$+$+++$++%+Oo$%+%Oo%$%O@X",
".@O+$%oO%++$oO+$+$%$+$+$+%$%$$%%+++$++%%+%$+++%+%%Oo+++$Oo$$+o @",
"@ o+%+oO%%$$oO$O$%+%$$$+%%%%$%%$%+$$$%%+%%$$++%%+%O.++$$O.$$$o  ",
".@o$%%.O%+$$oOOOOOOOoOOOOOOOOOOOOOOOOOOOOOOOOOOOOOOo$+%$Oo+$+O.#",
"##O$$%oO++O$o.o.......oooooooo.ooooooooo......oo...o$$+%O.+$$O.#",
".#O$%+oO$++O$$+++$$$OO$$++OO$$++$$$$$$++$$OOOOOO++$$$++$Oo$++o..",
". O+$+.O$%++++++++$+$O$++++$O++++++$+++++++$O%+%+++$++$%oo+%$O@#",
".@o%++oO%$%+++++$%%%++%+%$++++++%$$+++%%$++%+%%+%++++%+%O.+%+O@.",
"  O%+%oO%$$$++$$%$$%+%%%$$$$++%%$%$$+%%%%$++++%%%%++%%%%O.%%+O..",
"@ o+%+oOOOoOOOOOOOOOOOOOOOOOOoooOOOOOOOOOOOOOOOooOOOOOOOOo+%%O@.",
"# O%%$ooo....ooo....ooooo...ooo......ooo........oooo....oo++%o #",
"#@O+%$$%$++$+$$%%+%+$++$$$O++$+%%++$$$+$$+$%%+$+%+%%$+++%%+%+o #",
" @o%$%$$$$++$%$$+%%%+$$%$OOO$+$$+%$+$++%+$%+$$$$+%%$$$++++%%%o .",
".@O+%$$+++$$++%%%+%++%+%%%++%++%++++%+%%%%++%+%%++%+%+%%+++%+O@.",
"##oooOOOoOoOOoooOOooOOOOooooooOOOOOOOOOOOOOoOOOOoooOoOOOOoOOoO.#",
"X## @. .#.#.#@@.@.@..#  #..   @@..##    # .@...  ..##.@ .@ . @# ",
".XX# .  ..XXXXX#.XX#   ..#..@#.XXX.## #@@@@##. @  #....XXX#.@#  "
};
