/* XPM */
static char *stripped_acacia_log_top[] = {
/* columns rows colors chars-per-pixel */
"64 64 11 1 ",
"  c #8E4A30",
". c #8F4C2A",
"X c #984E31",
"o c #99502B",
"O c #A05630",
"+ c #A75839",
"@ c #AD5D32",
"# c #B25E3A",
"$ c #B86541",
"% c #C26D3F",
"& c #C36F4B",
/* pixels */
" o@@@ooXo..@@oXXXXo ...oooXX..o@@@@Xoo  ooo.  o o...@@@XXXo@@@oo",
"o oo..     .XXX.X      XoXXo X. XXoo X oo XX.XXX  o ooXXo. .oXoX",
"  +++OOO+OO++O+++O+++++++++OOOOOOOOO++O+++++OO+++++OOOO+OO++O+XX",
" o+##&&$#$$$##$$$&&&#&#&#&&###&&&$##&##$#$#$##$#$$$$#$###$#$$+ o",
"oX+&##&&$&&#$##$#&#$&##&+++$+$##&&&#&&$###$$#$##&&$#&&#&&#$#$OoX",
"oXO#&##&&#&##$$$##$##$#+#+$+$$$##&#&$$###$#$$$#&&#&&#&&#&&##$O .",
"X O#&&XXXXXXXXXOXXOOXXXXOOOOOOXXXXXXOOXXOOXOOOXXXXOOXXXXOO#%#O  ",
"  O&#&X+++++++OO++++++++++++O++++++++++++++++++++++++++++O%%#+ @",
"@ O&&&X+$$&$$$##&&&#&#$$&&#$$#&&&#&&#$$$$##&&$$$&#&&&&&#+X%#%+.@",
"@X+$&#X+&$$&###$$#&&###$$&$&#&##&&&###$$#$&#$#$##&#&##&%+X%##+.@",
"o.+$#$X+&&####$#$$##&&$#&#+$&&$&####$###$####$##$#$#$##%+O#%#+o@",
"..+#$$X+&###$$$$#&$$$$&#++++$$$$$$#$$$$$$$+$++$$#$$$$$##+X###+XX",
"X.+##$X+&##$OOXOOOXXOOOOXXXXXXOOOXOOXOOXOOOXOOOOXOOO$##%+X%#$+ X",
"@ O#$#X+#&#$O+++O+++++++++++++++++O+++++++++++OO+++O#%#%+O%$#+  ",
"@ +$#&O+&&$+X+$$&&&#&$&$$#&&&&$$$#$$$#&&##$$$#%%#$+X$#%%+O$%$+XX",
"@XO$#$O+&#$+X+$&#&###&$$#&&#&$#$#&&$&&&#&&#$###%#%+X$#$%+O$$#+Xo",
"oXO$&$O+##+$X+&&$#$##$+##$#&##$$##$&&$#&####$+##%#+X+$$$+O#$#O.X",
" oO#&$O+###$X+&##$$$++++$$$$#$$#$$$$$$$$##$$++$##%+O+#$$+X#$#OX@",
" .O&$&X+&#+$O+#&#$OOXXOXOOXXXXXOXOOOXOOOXXXXOO$##%+O$#$#+O$##O @",
"o O&&$X+&&$$OO&#+$O++++++++++++++++++++++++++X$$##+O+##$+O$#$+o.",
"oXO#&&O+$&$+XO&#$+X+#&&&##&#&&$$$#&&$$$&&#$#+O$+#$+O$$$$+X#$$O .",
"XX+#&#O+$$$+X+#&&+X+&&&####&#$#$####&$&&#&$$+O$##$+O$%$#+X$##+ X",
"Xo+&$#X+#$#$X+$&#$X+$&##$#####$+$$#######$#$+X%$$$+X$#%#+O#$$+XX",
"oX+&#$X+##$$O+&$$$X+&##$$$##$$+++$+$$$##$##$+X#%$%+X$#%%+X##$OX.",
"@XO&$$O+&#$#X+$$##O+&&#$OXOOXOXOOOXXXXOO$#$$+O%#%%+O$$#%+O$#$O o",
"@oO&$+O+&&$$O+$###O+&##&O++++++++++++++O+$#$+O##%#OO$#%%+O$$#O.o",
"@X+#+$O+$&#+O+$$#$X+##&&O+#&&&$$&&$$#$+O+$#$+X####+O$##%+O#$#OXo",
"X.++++O+$$++O+$##$X+##&$O+&#&##$$#&$##+X$###+X$###+O$$$#+X$+#+X.",
"..O#$+X+#$$+X+###$O+$##&O+&&OXOOXXXO#$+O##$#+X+$#%+O$#$$+X++$+X.",
"X +$+$O+$##+X+&#$+X+&###O+&#O++++++O$$+X#$$$+X+$#%+O$$#%+O+$#+o.",
"oo+#+$O+#$#$O+&#&$X+&&#$X+#$O+$+$#+X#$+X##%%+O++%%OO$#%%+O$+$+Xo",
"oo+$$$OO&$&+O+#&&$X+$&#$X+#$X+###$+X$#+O$##%+O+#%#+O$%#%OO$$#+X@",
"XoO$#$X+$&$$O+&###O+$$&$X+$#X+$#$$+X#%+X$$##+O$##%+O$#%#OO$+#+o@",
"X +#$$X+&&$$O+&&&#O+&$#$X+$#X++$##+O%%+X$##$+O$###+X$##$+O$+$OX@",
"X O&$#O+##&$OO#&#$O+$#$$X+$$O++++++O%%+X#%$%+O$##%+O$$#%+O+$+O X",
"oX+&&$X+###+XO#&#$X+##+$X+$#OXOOXXOO#%+X##%%+X$$%#+O$$$%+O++$+X.",
"oo+&#$O+$#$+X+##$$O+$#++O+#$$##%#%$#%#+O$##%+O++#%+O$#%%+O+$#O .",
" .+#$#X+$$++X+##+$X+$$#+X+$#$$##%%$$##+O$$##+O+$%%+O$#%%+X$+%+.o",
" .O#&#X+&$$+O+&#$+O+###$X++++++++++++++X$#$#+O$##%+X###%+O$$#+Xo",
"  O$#&X+&&&+O+&&#+O+###$OXOOXXXXXXOOXXOO$#$$+O$$##+X#$%#+O$$#+o.",
"XoO$&&O+#&#$OO&$##O+$#$$###$+$++$$++$$+$#%#$+X$##%+X$##$+O$##+ .",
"oXO$&#O+&#$$O+$#$#O+$##$%$###$%#$##$+###%%$%+X##%%+O$#$$OO###+ @",
"@XO#$#O+$#$$X+#$#$X+$$$%%%$###%$%#$$##%#$%#%+X$#%%+O+#$#OX$##OX@",
"@.+##$O+$&#$O+#&$$O+$$##%$$$#%%%%%$$#%%$%%%#+O$#%#+O+$##+X#$#O X",
"XX+&$#XO$###X+&$$#O++++++++++++++++++++++++++O$$#%+X++#%+O%##+XX",
"Xo+&$$XO$$&&X+&&#$OOXXXOOXOOOXOOOXXXXXOOOXOXXO$$##+X+#%%+O#%#OXo",
"ooO#&$X+&$#&O+#&$+$$$$++$#####$$++++$$$$$$$#$$$##%+O$#%#+O%%#+ @",
"XX+&$$X+$&##O+&##$#%%#$####$###$$+$###$$#$###$##%#+O$%#%+O%$%+.@",
"X.+#$&O+&##$O+#$#$%$#$#$#%$%$$%%###$##%%#%$###%#%%+O###$+O$$#O .",
". O#&#O+&&$$O+$+$%#%$$$#%%%%$%%$%#$$$%%#%%$$##%%#%+X##$$+X$$$O  ",
"X.O$&&X+&#$$O+++++++O++++++++++++++++++++++++++++++O$#%$+O#$#+Xo",
"oo+$$&O+##+$OXOXXXXXXXOOOOOOOOXOOOOOOOOOXXXXXXOOXXXO$$#%+X#$$+Xo",
"Xo+$&#O+$##+$$###$$$++$$##++$$##$$$$$$##$$++++++##$$$##$+O$##OXX",
"X +#$#X+$%########$#$+$####$+######$#######$+%#%###$##$%OO#%$+.o",
"X.O&##O+%$%#####$%%%##%#%$######%$$###%%$##%#%%#%####%#%+X#%#+.X",
"  +&#&O+%$$$##$$%$$%#%%%$$$$##%%$%$$#%%%%$####%%%%##%%%%+X%%#+XX",
". O#&#O+++O++++++++++++++++++OOO+++++++++++++++OO++++++++O#%%+.X",
"o +&&$OOOXXXXOOOXXXXOOOOOXXXOOOXXXXXXOOOXXXXXXXXOOOOXXXXOO##%O o",
"o.+#&$$%$##$#$$%%#%#$##$$$+##$#%%##$$$#$$#$%%#$#%#%%$###%%#%#O o",
" .O&$%$$$$##$%$$#%%%#$$%$+++$#$$#%$#$##%#$%#$$$$#%%$$$####%%%O X",
"X.+#%$$###$$##%%%#%##%#%%%##%##%####%#%%%%##%#%%##%#%#%%###%#+.X",
"ooOOO+++O+O++OOO++OO++++OOOOOO+++++++++++++O++++OOO+O++++O++O+Xo",
"@oo .X XoXoXo..X.X.XXo  oXX   ..XXoo    o X.XXX  XXooX. X. X .o ",
"X@@o X  XX@@@@@oX@@o   XXoXX.oX@@@Xoo o....ooX .  oXXXX@@@oX.o  "
};
