/* XPM */
static char *structure_block_data[] = {
/* columns rows colors chars-per-pixel */
"64 64 9 1 ",
"  c #101010",
". c #211A24",
"X c #261D2A",
"o c gray20",
"O c #353635",
"+ c #967896",
"@ c #C2A0C2",
"# c #D7B3D7",
"$ c #D7C2D7",
/* pixels */
"oooXXXXXXXXXXXXXXXXXXXXXXXXXXXXXXXXXXXXXXXXXXXXXXXXXXXXXXXXXXOOO",
"oXX                                                          XXO",
"oX                                                            XO",
"X                                                              X",
"X                           ++++++++                           X",
"X                       ++++@@@@@@@@++++                       X",
"X       XX            ++@@@@########@@@@++            XX       X",
"X      X..X         ++@@################@@++         X..X      X",
"X     X....X      ++@@#####X        X#####@@++      X....X     X",
"X     X....X    ++@@#######X        X#######@@++    X....X     X",
"X      X..X    +@@#########X        X#########@@+    X..X      X",
"X       XX    +@###########X        X###########@+    XX       X",
"X            +@############X        X############@+            X",
"X           +$#############XXXXXXXXXX#############$+           X",
"X          +@#$############XXXXXXXXXX############$#@+          X",
"X         +@###$###########XXXXXXXXXX###########$###@+         X",
"X        +@#####$##########XXXXXXXXXX##########$#####@+        X",
"X        +@######$#########+XXXXXXXX+#########$######@+        X",
"X       +@########$########@XXXXXXXX@########$########@+       X",
"X       +@#########$#######@XXXXXXXX@#######$#########@+       X",
"X      +@###########$######@XXXXXXXX@######$###########@+      X",
"X      +@############$#####@XXX  XXX@#####$############@+      X",
"X     +@##############$####@XX    XX@####$##############@+     X",
"X     +@###############$###@X      X@###$###############@+     X",
"X    +@#################$#@X        X@#$#################@+    X",
"X    +@##################@X          X@##################@+    X",
"X    +@#################@X            X@#################@+    X",
"X    +@#XXXXXXXXX+@@@@@@X              X@@@@@@+XXXXXXXXX#@+    X",
"X   +@##     XXXXXXXXXXX                XXXXXXXXXXX     ##@+   X",
"X   +@##     XXXXXXXXXX                  XXXXXXXXXX     ##@+   X",
"X   +@##     XXXXXXXXX                    XXXXXXXXX     ##@+   X",
"X   +@##     XXXXXXXX                      XXXXXXXX     ##@+   X",
"X   +@##     XXXXXXXX                      XXXXXXXX     ##@+   X",
"X   +@##     XXXXXXXXX                    XXXXXXXXX     ##@+   X",
"X   +@##     XXXXXXXXXX                  XXXXXXXXXX     ##@+   X",
"X   +@##     XXXXXXXXXXX                XXXXXXXXXXX     ##@+   X",
"X    +@#XXXXXXXXX+@@@@@@X              X@@@@@@+XXXXXXXXX#@+    X",
"X    +@#################@X            X@#################@+    X",
"X    +@##################@X          X@##################@+    X",
"X    +@#################$#@X        X@#$#################@+    X",
"X     +@###############$###@X      X@###$###############@+     X",
"X     +@##############$####@XX    XX@####$##############@+     X",
"X      +@############$#####@XXX  XXX@#####$############@+      X",
"X      +@###########$######@XXXXXXXX@######$###########@+      X",
"X       +@#########$#######@XXXXXXXX@#######$#########@+       X",
"X       +@########$########@XXXXXXXX@########$########@+       X",
"X        +@######$#########+XXXXXXXX+#########$######@+        X",
"X        +@#####$##########XXXXXXXXXX##########$#####@+        X",
"X         +@###$###########XXXXXXXXXX###########$###@+         X",
"X          +@#$############XXXXXXXXXX############$#@+          X",
"X           +$#############XXXXXXXXXX#############$+           X",
"X            +@############X        X############@+            X",
"X       XX    +@###########X        X###########@+    XX       X",
"X      X..X    +@@#########X        X#########@@+    X..X      X",
"X     X....X    ++@@#######X        X#######@@++    X....X     X",
"X     X....X      ++@@#####X        X#####@@++      X....X     X",
"X      X..X         ++@@################@@++         X..X      X",
"X       XX            ++@@@@########@@@@++            XX       X",
"X                       ++++@@@@@@@@++++                       X",
"X                           ++++++++                           X",
"X                                                              X",
"oX                                                            Xo",
"oXX                                                          XXo",
"oooXXXXXXXXXXXXXXXXXXXXXXXXXXXXXXXXXXXXXXXXXXXXXXXXXXXXXXXXXXooo"
};
