/* XPM */
static char *sunflower_back[] = {
/* columns rows colors chars-per-pixel */
"64 64 6 1 ",
"  c #177C04",
". c #266325",
"X c #4A8F28",
"o c #529A2E",
"O c #55AB2D",
"+ c None",
/* pixels */
"++++++++++++++++++++++++++++++++++++++++++++++++++++++++++++++++",
"++++++++++++++++++++++++++++++++++++++++++++++++++++++++++++++++",
"++++++++++++++++++++++++++++++++++++++++++++++++++++++++++++++++",
"++++++++++++++++++++++++++++++++++++++++++++++++++++++++++++++++",
"++++++++++++++++++++++++++++++++++++++++++++++++++++++++++++++++",
"++++++++++++++++++++++++++++++++++++++++++++++++++++++++++++++++",
"++++++++++++++++++++++++++++++++++++++++++++++++++++++++++++++++",
"++++++++++++++++++++++++++++++++++++++++++++++++++++++++++++++++",
"++++++++++++++++++++++++++++++++++++++++++++++++++++++++++++++++",
"++++++++++++++++++++++++++++++++++++++++++++++++++++++++++++++++",
"++++++++++++++++++++++++++++++++++++++++++++++++++++++++++++++++",
"++++++++++++++++++++++++++++++++++++++++++++++++++++++++++++++++",
"++++++++++++++++++++++++++++++++++++++++++++++++++++++++++++++++",
"++++++++++++++++++++++++++++++++++++++++++++++++++++++++++++++++",
"++++++++++++++++++++++++++++++++++++++++++++++++++++++++++++++++",
"++++++++++++++++++++++++++++++++++++++++++++++++++++++++++++++++",
"++++++++++++++++++++++++++++++++++++++++++++++++++++++++++++++++",
"++++++++++++++++++++++++++++........++++++++++++++++++++++++++++",
"++++++++++++++++++++++++++.. XXooXX ..++++++++++++++++++++++++++",
"++++++++++++++++++++++++.. XXXoooooXX ..++++++++++++++++++++++++",
"+++++++++++++++++++++++. XXoooooooXXXXX .+++++++++++++++++++++++",
"++++++++++++++++++++++. XoXXXoooooooXXoX .++++++++++++++++++++++",
"+++++++++++++++++++++. XXXoXoooooooOooXXX .+++++++++++++++++++++",
"++++++++++++++++++++. XooooooOooooOOOooooX .++++++++++++++++++++",
"+++++++++++++++++++. XoXooOoOOOooOoOooooXXX .+++++++++++++++++++",
"+++++++++++++++++++.XXXooooOOOoOooooooXoXXoX.+++++++++++++++++++",
"++++++++++++++++++. XXooOOOOOooooooooXoooXXX .++++++++++++++++++",
"++++++++++++++++++.XXooooOOOOOooooOoooXoXXXoX.++++++++++++++++++",
"+++++++++++++++++. XoooOOoOOooOooOooooXXoXXXo .+++++++++++++++++",
"+++++++++++++++++.XoooOOooOOOooooooooooXXXXooX.+++++++++++++++++",
"+++++++++++++++++.XooOooOOoOooooooooXoXXXXoXoo.+++++++++++++++++",
"+++++++++++++++++.oooooOOOoooooooooXoXXXXXXoXX.+++++++++++++++++",
"+++++++++++++++++.oXooOoOoOooooooXXXXXXXXXXXXX.+++++++++++++++++",
"+++++++++++++++++.XoooooooooOoooooXXXooXXXXXXX.+++++++++++++++++",
"+++++++++++++++++.XXoXoooXoooOooXXXoooXXXXXXX .+++++++++++++++++",
"+++++++++++++++++. XXXoXXooooooooXXXoXXXXXXX  .+++++++++++++++++",
"++++++++++++++++++.XXoXXXXoXooXXXoXXXXXXXX X .++++++++++++++++++",
"++++++++++++++++++. XXXXXoXXoXXXoXXXXXX  XX  .++++++++++++++++++",
"+++++++++++++++++++. XXXXXooXXoXXXXXXXXX    .+++++++++++++++++++",
"+++++++++++++++++++.   XXXXoXXXXXXXXX XXX   .+++++++++++++++++++",
"++++++++++++++++++++. X  XXXXXXXXXXXXX  X  .++++++++++++++++++++",
"+++++++++++++++++++++.  XX  XXXXXX XX     .+++++++++++++++++++++",
"++++++++++++++++++++++.    X  XX  X      .++++++++++++++++++++++",
"+++++++++++++++++++++++.       XX       .+++++++++++++++++++++++",
"++++++++++++++++++++++++..    X       ..++++++++++++++++++++++++",
"++++++++++++++++++++++++++..        ..++++++++++++++++++++++++++",
"++++++++++++++++++++++++++++........++++++++++++++++++++++++++++",
"++++++++++++++++++++++++++++++++++++++++++++++++++++++++++++++++",
"++++++++++++++++++++++++++++++++++++++++++++++++++++++++++++++++",
"++++++++++++++++++++++++++++++++++++++++++++++++++++++++++++++++",
"++++++++++++++++++++++++++++++++++++++++++++++++++++++++++++++++",
"++++++++++++++++++++++++++++++++++++++++++++++++++++++++++++++++",
"++++++++++++++++++++++++++++++++++++++++++++++++++++++++++++++++",
"++++++++++++++++++++++++++++++++++++++++++++++++++++++++++++++++",
"++++++++++++++++++++++++++++++++++++++++++++++++++++++++++++++++",
"++++++++++++++++++++++++++++++++++++++++++++++++++++++++++++++++",
"++++++++++++++++++++++++++++++++++++++++++++++++++++++++++++++++",
"++++++++++++++++++++++++++++++++++++++++++++++++++++++++++++++++",
"++++++++++++++++++++++++++++++++++++++++++++++++++++++++++++++++",
"++++++++++++++++++++++++++++++++++++++++++++++++++++++++++++++++",
"++++++++++++++++++++++++++++++++++++++++++++++++++++++++++++++++",
"++++++++++++++++++++++++++++++++++++++++++++++++++++++++++++++++",
"++++++++++++++++++++++++++++++++++++++++++++++++++++++++++++++++",
"++++++++++++++++++++++++++++++++++++++++++++++++++++++++++++++++"
};
