/* XPM */
static char *warped_trapdoor[] = {
/* columns rows colors chars-per-pixel */
"64 64 14 1 ",
"  c #003A39",
". c #00403E",
"X c #004846",
"o c #005A4E",
"O c #1F5752",
"+ c #2E5F51",
"@ c #275F5A",
"# c #3A6B5D",
"$ c #287067",
"% c #398382",
"& c #3B8785",
"* c #3A8E8C",
"= c #369D91",
"- c None",
/* pixels */
"++++OOOO++++++OOOOOO++++++OOOO++++++++++OO++OO++++++OOOOOO++OOOO",
"+XX  XXXX..  ooooooooooooooooooooo  ooXXXX..     ooooooXXXX  X O",
"+ **%%****======%%%%&&****==%%====================%%&&****%%** +",
"+X*%**%%%%&&%%**%%**%***%%********%%**%%**&&%%%%*%****%%%%**%*o+",
"OX%*&&&&&&&&%%%%&&&&&&&&%%&&&&&&%%%%&&&&&&%%%%&&&&&&%%%%&&&&*%o+",
"OX%*&%%%%%%%%%***%%%*****%%%%**%%******%%%%****%%%%%%%%**%%&*%.+",
"+X%*&***%%%%%%%%%%&&%%******======%%%%======****%%%%*%%%%%%&%*.+",
"+X%%&%*%%*****%%====%%==%%%%%%%%%****%%%*****%%%==**==%%%%*&%* +",
"OX&%&%*%++++++++%%%%++++++++++++++++====%%%%++++++++$$$$%*%*%* O",
"OX&%&%**+###@@@####@@@@#####@@@#######@##@####@@@@@#@@@$%*%*%* O",
"OX%%&%**+#------%=***%------------+*=***==*$----------#$*%%*%* O",
"OX%%&**%+#------%**=*%-------------+*=****$-----------#$*%*%%*oO",
"+X**%**%+@-------$***=*-------------**=**%------------#+%=*&%%oO",
"+X**%%*%+#-------$=****--------------***%-------------#+%=*&%%oO",
"+X**%%%=+#--------$=**=%-------------$=*%-------------#+*=*&*%oO",
"+ **%*%=+@--------$=***%-------------$**%-------------@+*=%&*%oO",
"O *%&*&=%@---------$*==*%-------------$*=-------------@=%*%%*&o+",
"O *%&*&%%@---------$=**=%-------------$=*=------------@=%*%%%&o+",
"+ *%&%*%%#----------$****%------------$*=%------------@==%%%%%o+",
"+ *%&%*%%#----------$=*=*%-------------$**%-----------@==%%%*%o+",
"+X**%%**$#-----------$**=*%------------$*=%-----------@=%*%%**o+",
"+X**%***$@-----------$=*=*%-------------$**%----------#=%*%%**o+",
"+X**%%=*$#------------****=-------------$=*=--------$$#=%*%&%*o+",
"+X**%*=%$#------------**=*=--------------$**=------$%$#==**&%*o+",
"OX=%&*=%$#$-----------*=**=--------------*=**-----$%+$#%=%*&%*oO",
"OX=%&%=%$#=$----------**=*=--------------*****----$+%$#%%%%&%*oO",
"OX=%&*=%$@=$----------%*=*=---------------%*==----$%+%@%%*%%**oO",
"OX=%&%=*$@%=$---------%=**%---------------%**=----$+$%@%%*%%**oO",
"+ =%&***=@===$-------%=*=%----------------%=*=----%++$@%*=*%**oO",
"+ =%&***=#=%=$-------%**=%----------------%**=----%$+$@%*=*%**oO",
"+o=*%**%=#%%%$------*==*%-----------------**==----%+%+@%*=%*&%.O",
"+o=*%%*%=#%%$-------***=%-----------------***=----%+$+@%%=%&&%.O",
"Oo=*%%&*=@%$-------%=*=%-----------------***==-----%++@+%*%&%& O",
"Oo=*%*&*=#$--------%===$-----------------****=-----+%+@+%**&%& O",
"+o%*&*%==#--------==*=$------------------=*=*-----+%+$@+%**&%=XO",
"+o%*&*%%=@--------=**=$-----------------=****-----+%+$#+%**&%=XO",
"Oo*%&*%%$@-------%=*=$------------------**=$------$+%$#%*%*%*=X+",
"Oo*%&%*%$@-------%*=*$-----------------**=*$------$%$-#%*%*%*=X+",
"Oo*%%%*%$#------==**=$-----------------=**$-------$$--@%%*%%*=X+",
"Oo*%%%*%$#------=**==$----------------=**=$-------$---@%%*%%%=X+",
"+X*%%*%*$#------*=**$-----------------=**$------------@=%*%&%=XO",
"+X*%%*%*$@------*=*=$-----------------=*=$------------@=%**&*=XO",
"+X*%&*%%$@------****$----------------=**$-------------@=%=*&*=XO",
"+X*%&%*%$@------*=**$----------------=*=$-------------@=*=*&*=XO",
"OX%*&%*%+@-------%=*=$---------------%=**-------------#$*=%&%= O",
"OX%*&*%=+#-------%**=%---------------%*=*-------------#$%=%&%= O",
"OX%*&*%=+@--------%**=%--------------%=$--------------#+%=*%&=.O",
"OX%*&*%=+@--------%=**%--------------%*$--------------#+%=*%*=.O",
"OX*%%*%*+@---------%=**%-------------*=**-------------#+*&*%*=.+",
"OX*%%%%*+#---------%**=%-------------**=*-------------#+*&*%*= +",
"+X*%&%%*+#----------$=**%------------$*=**------------#+*%*%%= +",
"+X*%&*%=+#----------$=*=%------------$**=*------------#+*%%*%= +",
"OX*%&*%=+#----------$**=%------------$*--**-----------@+*%%*%% +",
"O *%&*%=+#----------$=**%-----------$*-*--=*----------@+%*%*%%X+",
"O *&&%%%+####@@@###@@@#######@@@###@##@##@@@########@@#+%*%&%%X+",
"O.*&&*%%++++++++$$$$%%$$====$$$$$$$$========$$++++++++++%*%*%%X+",
"+.*%%*%%%%**%%%***%%%%%%%%%%***%%%**%%%%%%%%%%%%%**%%**%%%%*%&X+",
"+ *%%*%%%%%%%%%%======****%%&&%%======*%%%****%%========***&*&X+",
"+ *%%%%**%%***%%***%%%%%%%%**%%%**%%%%%***%%%%%**%%%***%%*%%*=X+",
"+ *%*%%%&&%%&&&&&&%%%%&&&&&&&&%%%%%%&&&&&&&&%%&&&&%%%%&&&&**%= +",
"+ %%**%%%%******%%%%%%%%%***%%****%%****%%%%%%%%%%%%%%%%%%%%%% O",
"+X%%%%============****%%====================******==========%%XO",
"+  ooooooooooXXXXXXXoooooooooooooooooooo  XXXXooooooooooooo   X+",
"++++++OOOO++++OOOO++++++++++OOOO++++OO++OO++OOOO++++++++++++OO++"
};
