/* XPM */
static char *white_glazed_terracotta[] = {
/* columns rows colors chars-per-pixel */
"64 64 12 1 ",
"  c #FED83D",
". c #FEDE5F",
"X c #F9FFFE",
"o c #1D83C1",
"O c #3AB3DA",
"+ c #F4F4F2",
"@ c #D0D6D7",
"# c #2389C7",
"$ c #50BBDE",
"% c #4AB9DD",
"& c #4577D3",
"* c #F8F3E5",
/* pixels */
"           .XXXXXXXX .............. XXXXoOOOOOOOOOOo+XXXXXXXXXX ",
"           .XXXXXXXXX ............ XXXXXoOOOOOOOOOOo+XXXXXXXXX +",
"           .XXXXXXXXXX  ........  XXXXXXoOOOOOOOOOOo+XXXXXXXX +X",
"          .XXXXXXXXXXXXX        XXXXXXXXoOOOOOOOOOOo+XXXXXXX +XX",
"          .XXXXXXXXXXXXXXXXXXXXXXXXXXXXXoOOOOOOOOOOo+XXXXXX  XXX",
"         .XXXXXXXXXXXXXXXXXXXXXXXXXXXXXXoOOOOOOOOOo+XXXXXX + XXX",
"         .XXXXXXXXXXXXXXXXXXXXXXXXXXXXXXoOOOOOOOOo+XXXXXX +X XXX",
"        .XXXXXXXXXXXXXXXXXXXXXXXXXXXXXXXoOOOOOOOo+XXXXXX +XX XXX",
"       .XXXXXXXX      XXXXXXXXXXXXXXXXXXoOOOOOOo@XXXXXX. XXX XXX",
"     ..XXXXXXXXXX ....  XXXXXXXXXXXXXXXXoOOOOOo@XXXXXX.+ XXX XXX",
"   ..XXXXXXXXXXXXX .....  XXXXXXXXXXXXXXoOOOOo@XXXXXX.+X XXX XXX",
"...XXXXXXXXXXXXXXXX ......  XXXXXXXXXXXXoOOOo@XXXXXX.+XX XXX XXX",
"XXXXXXXXXXXXXXXXXXXX  ...... XXXXXXXXXXXoOOo@XXXXXX  XXX XXX.XXX",
"XXXXXXXXXXXXXXXXXXXXXX  ..... XXXXXXXXXXoOo@XXXXXX + XXX XXX.XXX",
"XXXXXXXXXXXXXXXXXXXXXXXX  .... XXXXXXXXXoo@XXXXXX +X XXX XXX.XXX",
"XXXXXXXXXXXXXXXXXXXXXXXXXX      XXXXXXX@o@XXXXXX +XX XXX XXX.XXX",
"XXXXXXXX XXXXXXXXXXXXXXXXXXXXXXXXXXXXX@#@XXXXXXX XXX XXX.XXXXXXX",
"XXXXXXXX  XXXXXXXXXXXXXXXXXXXXXXXXXXX@##@XXXXXXX XXX XXX.XXXXXXX",
"XXXXXXXX . XXXXXXXXXXXXXXXXXXXXXXXXX@#$#@XXXXXXX XXX XXX.XXXXXXX",
"XXXXXXXX .. XXXXXXXXXXXXXXXXXXXXXXX@#$O#@XXXXXXX XXX XXX.XXXXXXX",
" XXXXXXX ... XXXXXXXXXXXXXXXXXXXXX@#$%O&+XXXXXXX XXX.XXXXXXXXXXX",
". XXXXXX ... XXXXXXXXXXXXXXXXXXXX@#$%%O&+XXXXXXX XXX.XXXXXXXXXXX",
".. XXXXXX ... XXXXXXXXXXXXXXXXXX@#$%%%O&+XXXXXXX XXX.XXXXXXXXXXX",
".. XXXXXX ... XXXXXXXXXXXXXXXX@@#$%%%%O&+XXXXXXX XXX.XXXXXXXXXX+",
"... XXXXXX ... XXXXXXXXXXXXX@@##$%%%%%O#+XXXXXXX.XXXXXXXXXXXXX+#",
"... XXXXXX ... XXXXXXXXXXXX@##$$%%%%%%O#+XXXXXXX.XXXXXXXXXXXX+##",
"... XXXXXXX ... XXXXXXXXXX@#$$%%%%%%%%O#+XXXXXXX.XXXXXXXXXXX+##%",
"... XXXXXXX ... XXXXXXXXX@#$%%%%%%%%%%O#+XXXXXXX.XXXXXXXXXX+##O%",
"... XXXXXXXX .. XXXXXXXX@#$%%%%%%%%%%%O&+XXXXXXXXXXXXXXXXX@##OO%",
"... XXXXXXXXX . XXXXXXXX@#$%%%%%%%%%%%O&+XXXXXXXXXXXXXXXX@##OOO%",
"... XXXXXXXXXX  XXXXXXX@#$%%%%%%%%%%%%O&+XXXXXXXXXXXXXXX@##OOOO%",
"... XXXXXXXXXXX XXXXXXX@#$%%%%%%%%%%%%O&+XXXXXXXXXXXXXX@##OOOOO%",
".. XXXXXXXXXXXXXXXXXXX@#$%%%%%%%%%%%%%O&+XXXXXXXXXXXXX@##OOOOOO%",
".. XXXXXXXXXXXXXXXXXX@#$%%%%%%%%%%%%%%O&+XXXXXXXXXXXX+##OOOOOOO%",
". XXXXXXXXXXXXXXXXXX@#$%%%%%%%%%%%%%%O&+XXXXXXXXXXXX+##OOOOOOOO%",
" XXXXXXXXXXXXXXXXXX@#$%%%%%%%%%%%%%%%O&+XXXXXXXXXXX+##OOOOOOOOO%",
"XXXXXXXXXXXXXXXXXX@#$%%%%%%%%%%%%%%%O#+XXXXXXXXXXX+##OOOOOOOOOO%",
"XXXXXXXXXXXXXXXXX@#$%%%%%%%%%%%%%%OO#+XXXXXXXXXXX+##OOOOOOOOOOO%",
"XXXXXXXXXXXXXXXX@#$OOOOOOOOOOOOOOO&&+XXXXXXXXXXX+##&&&OOOOOOOOO%",
"XXXXXXXXXXXXXXX@####&&&&####&&&&&&++XXXXXXXXXXX+##&+++&&OOOOOOO%",
"oooooooooooooooo@@@@++++++++++++++XXXXXXXXXXXX+##&+XXX++&OOOOOO%",
"OOOOOOOOOOOOOOo@XXXXXXXXXXXXXXXXXXXXXXXXXXXXX+##&+XXXXX++&OOOOO%",
"OOOOOOOOOOOOOo@XXXXXXXXXXXXXXXXXXXXXXXXXXXXX+##&+XXXXXXXX+&OOOO%",
"OOOOOOOOOOOOo@XXXXXXXXXXXXXXXXXXXXXXXXXXXXX+##&+XXXXXXXXXX@&OOO%",
"OOOOOOOOOOOo@XXXXXXXXXXXXXXXXXXXXXXXXXXXXX+##&+XXXXXXXXXXX@&OOO%",
"OOOOOOOOOOo@XXXXXXXXXXXXXXXXXXXXXXXXXXXXX+##&+XXXXXXXXXXXXX@&OO%",
"OOOOOOOOOo@XXXXXXXXXXXXXXXXXXXXXXXXXXXXX+##&+XXXXXXXXXXXXXX@&OO%",
"OOOOOOOOo@XXXXXXXXXXXXXXXXXXXXXXXXXXXXX+##&+XXXXXXXXXXXXXXX@&OO%",
"OOOOOOOo@XXXXXX         ....XXXXXXXXXX+##&+XXXXXXXXXXXXXXXX@&OO%",
"OOOOOOo+XXXXXX +XXXXXXXXXXXXXXXXXXXXX+##&+XXXXXXXXXXXXXXXXX@&OO%",
"OOOOOo+XXXXXX +XXXXXXXXXXXXXXXXXXXXX+##&+XXXXXXXXXXXXXXXXX@&OOO%",
"ooooo+XXXXXX +XXXXXXXXXXXXXXXXXXXXX+##&+XXXXXXXXXXXXXXXXX@&OOOO%",
"+++++XXXXXX.        ....XXXXXXXXXX+##O&+XXXXXXXXXXXXXXXX@&OOOOO%",
"XXXXXXXXXX.+XXXXXXXXXXXXXXXXXXXXX+##OO&+XXXXXXXXXXXXXXX@&OOOOOO%",
"XXXXXXXXX.+XXXXXXXXXXXXXXXXXXXXX@##OOOO&+XXXXXXXXXXXXX@&OOOOOOO$",
"XXXXXXXX.+XXXXXXXXXXXXXXXXXXXXX@##OOOOO&++XXXXXXXXXXX@&OOOOOOOO$",
"XXXXXXX         ....XXXXXXXXXX@##OOOOOOO&+XXXXXXXXXX@&OOOOOOOO$*",
"XXXXXX +XXXXXXXXXXXXXXXXXXXXX@##OOOOOOOOO&+XXXXXXXX@&OOOOOOOO$**",
"XXXXX +XXXXXXXXXXXXXXXXXXXXX@##OOOOOOOOOOO&@@XXXXX@&OOOOOOOO$** ",
"XXXX +XXXXXXXXXXXXXXXXXXXXX+##OOOOOOOOOOOOO&&@@@@@&OOOOOOOO$**  ",
"XXX         ....XXXXXXXXXX+##OOOOOOOOOOOOOOOO&&&&&OOOOOOOO$**   ",
"XX +XXXXXXXXXXXXXXXXXXXXX+##OOOOOOOOOOOOOOOOOOOOOOOOOOOOO$**    ",
"X +XXXXXXXXXXXXXXXXXXXXX+##OOOOOOOOOOOOOOOOOOOOOOOOOOOOO$**     ",
" +XXXXXXXXXXXXXXXXXXXXX+##%%%%%%%%%%%%%%%%%%%%%%%%%%%%$$**      "
};
