/* XPM */
static char *yellow_glazed_terracotta[] = {
/* columns rows colors chars-per-pixel */
"64 64 24 1 ",
"  c #996D46",
". c #F2B015",
"X c #F3B625",
"o c #FFEC9D",
"O c #EEAA0D",
"+ c #FFF3C4",
"@ c #FAD66D",
"# c #FEDE5F",
"$ c #B18256",
"% c #FFF0B7",
"& c #AD7C50",
"* c #FAD467",
"= c #F0AC0D",
"- c #AC7E53",
"; c #D69F33",
": c #FED83D",
"> c #A4764C",
", c #F9C82D",
"< c #D69B29",
"1 c #AD7E52",
"2 c #9F7147",
"3 c #FFEEAA",
"4 c #D39824",
"5 c #F8D263",
/* pixels */
"::::::,.ooooooooo%%oooooooooooo.o::::::::::::::::oO$>>>>>>>>>>>>",
"::::::,.oooooooo%%%%ooooooooooo.o::::::::::::::::oO$>>>>>>>>>>>>",
":::::,.oooooooo%%%%%%oooooooooo.o:::::::::::::::o:O$>>>>>>>>>>>>",
":::::,.ooooooo%%%%%%%%ooooooooo.o:::::::::::::::o::O$>>>>>>>>>>>",
"::::,.oooooooo..OOOOXXoooooooooo.o::::::::::::oo:::=->>>>>>>>>>>",
"::,,.ooooooo..**5555@@XXoooooooo.:o:::::::::oo::::::=->>>>>>>>>>",
",,..ooooooXX**oooooooo@@XXoooooo.::o::::oooo::::::::=->>>>>>>>>>",
"..ooooooo.**oooooooooo++@@.oooooo..:oooo:::::::::::::=->>>>>>>>>",
"oooooooo.@oooooooooooooo++*.ooooooo......:::::::::::::.2>>>>>>>>",
"oooooooX@ooooooooooooooooo+*.oooooooooooo...:::::::::::. >>>>>>>",
"ooooooX@ooooooooooooooooooo+*.oooooooooooo++...:::::::::.  >>>>>",
"ooooooX@ooooooooooooooooooo+*.oooooooooooooo%%%.:::::::::..  >>>",
"oooooX@ooooooooooooooooooooo+*.oooooooooooooooo%..:::::::::..   ",
"oooooX@ooooooooooooooooooooo+*.ooooooooooooooooo%%.::::::::::...",
"ooo%X@oooooooooo::::ooooooooo+*.oooooooooooooooooo%.:::::::::###",
"oo%%.@ooooooooo:::::#oooooooo+*.ooooooooooooooooooo%.::::::##:::",
"o%%%.*oooooooo::::::##ooooooo+*.3333ooOO..oooooooooo%.::::#:::::",
"%%%%.*oooooooo::::::##ooooooo+*.3333oOO.....ooooooooo%.:::#:::::",
"%%%%.*oooooooo::::::##ooooooo+*.3333OO........oooooooo%.:#::::::",
"o%%%.*oooooooo::::::##ooooooo+*.3333O..........ooooooo%.:#::::::",
"oo%%.*ooooooooo:#####oooooooo+@X3333............ooooooo%.#::::::",
"ooo%.*oooooooooo####ooooooooo+@X3333............Xooooooo%.::::::",
"ooooo.*+oooooooooooooooooooo+@X+3333o............Xoooooo%.::::::",
"ooooo.*+oooooooooooooooooooo+@X+3333oo............oooooo%.::::::",
"oooooo.*+oooooooooooooooooo+@X++3333ooooXX........Xoooooo%.:::::",
"oooooo.*+oooooooooooooooooo+@X++3333ooooooXX......Xoooooo%.:::::",
"ooooooo.*+oooooooooooooooo+@X+++3333oooooooXX.....OOooooo%.:::::",
"oooooooo.*++oooooooooooo++@X+++o3333ooooooooXX...OOOoooooo%X::::",
"ooooooooo.**++oooooooo++@@X++++o3333oooooooooXX.OOOOoooooo%X::::",
"oooooooooo..**++++++++@@XX++++++.333oooooooooXXOOOOOoooooo%X::::",
"oooooooooooo..**@@@@@@XX+++oo++.&.33ooooooooooXOOOOOoooooo%X....",
"....oooooooooo..XXXXXX++++ooo+.&&&.3ooooooooooXOOOOOoooooo+>>>>>",
"oooo...oooooooooooooooooooooo.&&&&&.3ooooooooooXOOOOoooooo+>>>>>",
"::::o::.ooooooooooooooooooooo%.&&&&&.3oooooooooXOOOoooooo+>>>>>>",
":::::o:.oooooooooooooooooooooo%.&&&&&.3oooooooooOOOoooooo+ >>>>>",
"::::::o:.oooooooooooooooooooooo%.&&&&&.3ooooooooOOoooooo+>> >>>>",
":::::::o.ooooooooo....oooooooooo%.&&&&&.3oooooooooooooo+>>>>>>>>",
":::::::o.ooooooooX...XXoooooooooo%.&&&&&.3oooooooooooo+>>>>>>>>>",
":::::::o.oooooooXX..XXXXoooooooooo%.&&&&&.3oooooooooo+>>>>>>>>>>",
":::::::o.oooooooXX.XXXXXooooooooooo%.&&&&&.3ooooooo++>>>>>>>>>>>",
"::::::o:.oooooooXXXX....Xooooooooooo%.&&&&&.++ooo++>>>>>>>>>&>>>",
"::::::o::.ooooooXXX......oooooooooooo%.&&&&&..+++>>>>>>>>>>>>&>>",
"::::::o::.%ooooooXX.......oooooooooooo%.&&>>  >>>>>&>>>>>>>>>>>>",
"::::::o::.%ooooooXX.......Ooooooooooooo%.&>  >>>>>&>>>>>>>>>>>>>",
":::::o::::.%ooooooX........Ooooooooooooo%.  >>>>>>>>>>>>>>>><<<<",
":::::o::::.%ooooooXX.......OOOoooooooooo%. >>>>>>>>>>>>>>;;;....",
"::::o:::::.%oooooooXX.......OOOOooooooooo+>>>$>>>>>>>>>;;...>>>>",
"::::o::::::.%oooooooXX........OOOOooooooo+>>$>>>>>>>><;X.>>>>>>>",
"::oo::::::::.%oooooooXX.........OOOOooooo+>>>>>>> >><XX>>>>>>>>>",
"oo::::::::::.%ooooooooXX........XXOOoooo+>>>>>>> >><X>>>>>>>>>>>",
"OOO::::::::::.%ooooooooXXX.....XXXXooooo+>>>>>>>>><X>>>>>>>>>>>>",
"$$$O=:::::::::.%oooooooooXXXXXXXXoooooo+>>>>>>>>>4X>>>>>>>>>>>>>",
">>>$-==::::::::.%oooooooooooooooooooooo+>>&>>>>>4.>>>>>>1$>>>>>O",
">>>>>--=::::::::.%oooooooooooooooooooo+>>>>&>>>4.>>>>>>&$1>>>>OO",
">>>>>>>-.::::::::.%%ooooooooooooooooo+>>>>>>>>>4.>>>>>&&&>>>>OO.",
">>>>>>>>2.::::::::..%ooooooooooooooo+>>>>>>>>>4.>>>>>&&&>>>>OO..",
">>>>>>>>> .:::::::::.%%%ooooooooooo+>>>>>>>>>>4.>>>>1$&>>>>OO...",
">>>>>>>>>> .::::::###...%%%oooooo++>>>>>>>>>>4.>>>>>$1>>>>OO....",
">>>>>>>>>> .::::##::::::...++++++>>>>>>>>>>>>4.>>>>>>>>>>OO....$",
">>>>>>>>>>> .::#:::::::::::XXXX>>>>>>>>>>>>>>4.>>>>>>>>>OO....$$",
">>>>>>>>>>> .::#::::::::::::::.>>>>>>>> >>>><.>>>>>>>>>OO....$$$",
">>>>>>>>>>>> .#:::::::::::::::.>>>>>>> >>>>><.>>>>>>>>OO....$$$$",
">>>>>>>>>>>> .#:::::::::::::::.>>>>>>>>>>>>><.>>>>>>>OO....$$$$$",
">>>>>>>>>>>> .#:::::::::::::::.>>>>>>>>>>>>><.>>>>>>OO....$$$$$$"
};
