/* XPM */
static char *allium[] = {
/* columns rows colors chars-per-pixel */
"16 16 10 1 ",
"  c #177C04",
". c #4A8F28",
"X c #529A2E",
"o c #55AB2D",
"O c #7B4EA0",
"+ c #A65EE1",
"@ c #B878ED",
"# c #D2A6F6",
"$ c #E8CFFE",
"% c None",
/* pixels */
"%%%%%%%%%%%%%%%%",
"%%%%%%%%%%%%%%%%",
"%%%%%%#@+%%%%%%%",
"%%%%%#$#@O%%%%%%",
"%%%%#$#$+#O%%%%%",
"%%%%@#@#@+O%%%%%",
"%%%%%+#@+@%%%%%%",
"%%%%%%O.@%%%%%%%",
"%%%%%%%.%%%%%%%%",
"%%%%%%%X%%%%%%%%",
"%%%%%%%o%%%%%%%%",
"%%%%%%%o%%%%%%%%",
"%%%%%%%X%%%%%%%%",
"%%%%%%%X%%%%%%%%",
"%%%%%%%.%%%%%%%%",
"%%%%%%% %%%%%%%%"
};
