/* XPM */
static char *azure_bluet[] = {
/* columns rows colors chars-per-pixel */
"16 16 7 1 ",
"  c #4A8F28",
". c #529A2E",
"X c #55AB2D",
"o c #FFEC4F",
"O c #D6E8E8",
"+ c gray97",
"@ c None",
/* pixels */
"@@@@@@@@@@@@@@@@",
"@@@@@@@@@@@@@@@@",
"@@@@@@@@@@@@@@@@",
"@@@@@@@@@@@@@@@@",
"@@@@@@@@@@@@@@@@",
"@@@@@@@@@@@@@@@@",
"@@@@@@@O@@@@@@@@",
"@@@@@o+oO@@@@@@@",
"@@@@@O.X@+o@@@@@",
"@@@o+@O++XO@@@@@",
"@@@+X@ Oo.@@@@@@",
"@@@@ X.@.@+o@@@@",
"@@@@@+o.X@XO@@@@",
"@@@@@+OXXX@@@@@@",
"@@@@@@@X.@@@@@@@",
"@@@@@@@ @@@@@@@@"
};
