/* XPM */
static char *barrel_side[] = {
/* columns rows colors chars-per-pixel */
"16 16 10 1 ",
"  c #28221C",
". c #302C29",
"X c #553A1F",
"o c #453F3B",
"O c #664D28",
"+ c #6B5332",
"@ c #785836",
"# c #805E36",
"$ c #8B673C",
"% c #997140",
/* pixels */
"%$%%%$%%%$%%%$%%",
"$O%$$O%$$O%$$O%$",
"$X%$#X%$#O%$#X%#",
"o.oooooo...o.oo.",
"    ..          ",
"#X#@@X#@@X#@@O#@",
"$O$$#X$$%O$$%X#$",
"$+%$$O%$%+$#%+#$",
"$O%#$+%$#+%#$X$$",
"$X%@$+%$#X%#$X$$",
"$X#@#X$$$X%@$O$$",
"...oooo.o....o..",
"    ..          ",
"#X#@@X#@@X#@@X#@",
"#O$#$O%$#O$#$O%$",
"#X###O###X###X##"
};
