/* XPM */
static char *beehive_front_honey[] = {
/* columns rows colors chars-per-pixel */
"16 16 13 1 ",
"  c #67502C",
". c #7E6237",
"X c #C86A08",
"o c #967441",
"O c #E88C08",
"+ c #FAAB1C",
"@ c #9F844D",
"# c #AF8F55",
"$ c #B8945F",
"% c #C29D62",
"& c #FFCE5D",
"* c #FFE47F",
"= c #8B8B8A",
/* pixels */
"$%%%%%%%%%%%%%%$",
"o$###$$$$$$###$o",
"o$$###$$$$##$$$o",
"  .   ..  ..    ",
" XXO++OO+OXO+OX ",
" ooooooooooooOo ",
".$$o#######$@$$.",
".=$@##$$$$%%@$=.",
".$$@$$$$%%%%@$$.",
" o@@@@@@@@@@@@o ",
".$%%%oOO+&o%%%$ ",
".@@@@@@@&*@@@@@.",
".%%%%%%@+&%%%%%.",
" =$$$##@$O$$$#= ",
".##$$$#o$######.",
"  . ..    .. .  "
};
