/* XPM */
static char *bell_side[] = {
/* columns rows colors chars-per-pixel */
"16 16 7 1 ",
"  c #D39632",
". c #F5CC27",
"X c #FED639",
"o c #FFEC4F",
"O c #FFF68D",
"+ c #FEFFBD",
"@ c None",
/* pixels */
"@.XooX.@@@@@@@@@",
"@XoOooX@@@@@@@@@",
"@XOOooX@@@@@@@@@",
"@XOOooX@@@@@@@@@",
"@XOOooX@@@@@@@@@",
"@O++OOO@@@@@@@@@",
"@ XXXX @@@@@@@@@",
"O++++OOO@@@@@@@@",
"XoXXXooX@@@@@@@@",
"@@@@@@@@@@@@@@@@",
"@@@@@@@@@@@@@@@@",
"@@@@@@@@@@@@@@@@",
"@@@@@@@@@@@@@@@@",
"@@@@@@@@@@@@@@@@",
"@@@@@@@@@@@@@@@@",
"@@@@@@@@@@@@@@@@"
};
