/* XPM */
static char *blast_furnace_front[] = {
/* columns rows colors chars-per-pixel */
"16 16 16 1 ",
"  c #111111",
". c #3F3E42",
"X c #494848",
"o c gray31",
"O c #595858",
"+ c #676161",
"@ c #686868",
"# c #72796E",
"$ c #747474",
"% c gray50",
"& c #888788",
"* c gray56",
"= c gray61",
"- c #ABACAB",
"; c gray71",
": c #C5C5C5",
/* pixels */
":-**@$@$@$$@:-**",
"-.X@oX..XXX.-.X@",
"*XO#XXoooOOo*XO#",
"$##&.XXX..oo$##&",
"@..oO+OOOoXX...@",
"$.XXXOOo.XXoooo$",
"$Xo&&&&&$$$$@oo$",
"@oo&:::::---@XX@",
"@..$=- - - =@..@",
"*;:=@- - - =O;;*",
"@*@=@- = = =O==@",
"@*$O#=:=:=:#O&=@",
"@*&X########X*&@",
"O&&XXXXOOOOOO&%O",
"O%&%$$$$$$$$%%%O",
"OOOOOOOOOOOOOOOO"
};
