/* XPM */
static char *brain_coral[] = {
/* columns rows colors chars-per-pixel */
"16 16 7 1 ",
"  c #9D2F77",
". c #BF4692",
"X c #D6549B",
"o c #D962A3",
"O c #E47EB9",
"+ c #E88EC1",
"@ c None",
/* pixels */
"@@@@@@@@@@@@@@@@",
"@@@@@+@@@+@@@@@@",
"@@@@@ +@+@@@@@@@",
"O@+@@@@oO@+@.@@@",
"X+X@X@ Xo X@@+@X",
"@++X@@@@.X@ .o @",
"X O@@@@ .@@@@ X@",
"@@+@ @+.+@+ @X@@",
"@@X.@@ ++X @ .@@",
"@X@X  @@X+@@.@@X",
"@@+@XO @@.o @ . ",
"@X.+@.O@@@+.@@X@",
"@@@X@@. @@X @+ X",
"@@@ X@+.@ X X @@",
"@@ @. o  X..@@@@",
"@@@@@ .@ X @@@@@"
};
