/* XPM */
static char *carrots_stage2[] = {
/* columns rows colors chars-per-pixel */
"16 16 6 1 ",
"  c #7E3D0E",
". c #266325",
"X c #2B702A",
"o c #4A8F28",
"O c #55AB2D",
"+ c None",
/* pixels */
"++++++++++++++++",
"++++++++++++++++",
"++++++++++++++++",
"++++++++++++++++",
"++++++++++++++++",
"++++++++++++++++",
"+++++X++++++++++",
"+oX+++o+++X.++++",
"++o+++O++Xo++++.",
"++X+X.+o+O++++X+",
"++..+.X..o+.+X++",
".Xo.XoOX..OoX.oo",
"+.Xo+Xoo.XoX.oX+",
"++.oX..XXo..Xo++",
"+++..+.X...+X.++",
"+++  ++  ++  +++"
};
