/* XPM */
static char *cartography_table_side1[] = {
/* columns rows colors chars-per-pixel */
"16 16 20 1 ",
"  c #291A0C",
". c #301E0E",
"X c #3A2411",
"o c #3E2912",
"O c #492F17",
"+ c #4F3218",
"@ c #53381A",
"# c #752802",
"$ c #005500",
"% c #006800",
"& c #007A00",
"* c #6A461E",
"= c #DC9613",
"- c #ABA171",
"; c #FDF55F",
": c #2C2CB0",
"> c #3636D8",
", c #3F3FFA",
"< c #D1C589",
"1 c #F2E4A0",
/* pixels */
"$,,>:X*@***@***@",
"&<-,>.o @O+ oOo.",
"%&1<,XO.@+O.++o.",
",$<-,X+.++OX@+O ",
">,,,:.OXO+oX@o+ ",
" #;= .O.O+o.+oO.",
"***@**O @Oo +OoX",
"@+o XXX XXX ooXX",
"++oXoooooooX@o+X",
"@+o.++@@@@X.@++.",
"@Oo **+@@@o @+O ",
"@OO.@*+@@+X.XOo.",
"@+O O++++Oo.@+o ",
"@++ XXXXXXo.+Oo ",
"+o+X@@@@@@+X@Oo ",
"... ... ... ... "
};
