/* XPM */
static char *cherry_door_bottom[] = {
/* columns rows colors chars-per-pixel */
"16 16 17 1 ",
"  c #CD8580",
". c #D08A85",
"X c #D3918D",
"o c #D89791",
"O c #DD9D97",
"+ c #DFA39B",
"@ c #E1A8A1",
"# c #E3A9A2",
"$ c #E5AEA8",
"% c #E6B3AD",
"& c #E7BAB4",
"* c #D4CABA",
"= c #E7C2BB",
"- c #DDD9CB",
"; c #E7CAC5",
": c #EEE6DE",
"> c None",
/* pixels */
"-&%X#>  ##> X&% ",
"=%%;====;;==%&% ",
";%&=%&&%%%%&O&& ",
";%==&&%:-%&&O=&X",
"=&=OXX:XX*XXo=%X",
"=&= $$-$$*$$ =%O",
"===O&&X**X%%O=&O",
"==&O%&O%%+%&O&&O",
"==%O%%+&&O&=O&&X",
";%%+%%+&%O&=+%&X",
":%%+%%O=%+==+%&X",
"-&%+=%O=&+==+&%X",
"=&%O=%O=&+==+&% ",
"=&&O=&+%&O=&O&% ",
"=%&O%&O%%O&&O%% ",
"%@@X@@X@@X@#oXX."
};
