/* XPM */
static char *cherry_sapling[] = {
/* columns rows colors chars-per-pixel */
"16 16 13 1 ",
"  c #27111E",
". c #271620",
"X c #301D29",
"o c #3B232D",
"O c #462C39",
"+ c #543543",
"@ c #E986BB",
"# c #EC95BF",
"$ c #EFA7CD",
"% c #F7B9DC",
"& c #FCCBE7",
"* c #F5DAEF",
"= c None",
/* pixels */
"================",
"================",
"=@===*=##=$$=$==",
"==$$*&*#==$$+===",
"==$$#*%%===#+$$=",
"=$$##X%%==++*$$=",
"%%%XXX%=X%%*&*==",
"%%.X##==%%%=*+==",
"=@.oO#=o%#=X+%%=",
"==..XXOOOo..%%$=",
"=%%%.XXX .#=====",
"==%*...$=##=====",
"==*&*.Xo========",
"===*=.XX.=======",
"======...=======",
"======...======="
};
