/* XPM */
static char *cocoa_stage0[] = {
/* columns rows colors chars-per-pixel */
"16 16 10 1 ",
"  c #67642B",
". c #6B632F",
"X c #6E7135",
"o c #777335",
"O c #7B7737",
"+ c #8A9141",
"@ c #A1A74B",
"# c #A3A84E",
"$ c #B6BC5A",
"% c None",
/* pixels */
" Xo %%%%%%%%%%$@",
"X$#o%%%%%%%%%$#o",
"o#+X%%%%%%%%$#+%",
" oX %%%%%%%%@+o%",
"%%%%%%%%%%% +O.%",
"%%%%%%%%%%%o$#o%",
"%%%%%%%%%%%o$#o%",
"%%%%%%%%%%%X@+X%",
"%%%%%%%%%%% XX %",
"%%%%%%%%%%%%%%%%",
"%%%%%%%%%%%%%%%%",
"%%%%%%%%%%%%%%%%",
"%%%%%%%%%%%%%%%%",
"%%%%%%%%%%%%%%%%",
"%%%%%%%%%%%%%%%%",
"%%%%%%%%%%%%%%%%"
};
