/* XPM */
static char *command_block_side[] = {
/* columns rows colors chars-per-pixel */
"16 64 36 1 ",
"  c #403420",
". c #543C24",
"X c #6F492B",
"o c #4E6C32",
"O c #822523",
"+ c #A42E2B",
"@ c #A22E2C",
"# c #CD3A36",
"$ c #9B6C32",
"% c #A66030",
"& c #BB6D3A",
"* c #864341",
"= c #A84B49",
"- c #A85451",
"; c #AC6967",
": c #C85452",
"> c #C77E4F",
", c #F3605C",
"< c #CE7A77",
"1 c #62873E",
"2 c #749258",
"3 c #C2873E",
"4 c #CE8F66",
"5 c #C98F6B",
"6 c #E8AD64",
"7 c #777480",
"8 c #918F99",
"9 c #9F9DA7",
"0 c #A8A5AF",
"q c #B3B0B9",
"w c #CFA68B",
"e c #D7B49D",
"r c #C5C2CD",
"t c #CDCAD5",
"y c #D2CFDA",
"u c #D5D2DD",
/* pixels */
">>>4%4>>>>>4%4>>",
">>4%e%4>4>4%e%4>",
">4%ewe%4X4%ewe%4",
"4%ewwwe t ewwwe%",
"%ewww5XyqrX5wwwe",
"&%5w5XuqqqrX5w5%",
">&%5XuqqOqq9X5%&",
">>& yqqqqqqq8 &>",
">>>.tq3q<q,q7.>>",
">>4 tqqqqqqq7 4>",
">4%Xrq=q-q1q7X%4",
"4%eXrqqqqqqq7Xe%",
"%ewXr09877777Xwe",
"&%w5XX. . XXX5w%",
">&%w55%&&&%55w%>",
">>&%5%&>>>&%5%>>",
">>>4%4>>>>>4%4>>",
">>4%e%4>4>4%e%4>",
">4%ewe%4X4%ewe%4",
"4%ewwwe t ewwwe%",
"%ewww5XyqrX5wwwe",
"&%5w5XuqqqrX5w5%",
">&%5Xuqq=qq9X5%&",
">>& yqqqqqqq8 &>",
">>>.tq$q-q#q7.>>",
">>4 tqqqqqqq7 4>",
">4%Xrq@q<qoq7X%4",
"4%eXrqqqqqqq7Xe%",
"%ewXr09877777Xwe",
"&%w5XX. . XXX5w%",
">&%w55%&&&%55w%>",
">>&%5%&>>>&%5%>>",
">>>4%4>>>>>4%4>>",
">>4%e%4>4>4%e%4>",
">4%ewe%4X4%ewe%4",
"4%ewwwe t ewwwe%",
"%ewww5XyqrX5wwwe",
"&%5w5XuqqqrX5w5%",
">&%5Xuqq:qq9X5%&",
">>& yqqqqqqq8 &>",
">>>.tq6q*q+q7.>>",
">>4 tqqqqqqq7 4>",
">4%Xrq@q<qoq7X%4",
"4%eXrqqqqqqq7Xe%",
"%ewXr09877777Xwe",
"&%w5XX. . XXX5w%",
">&%w55%&&&%55w%>",
">>&%5%&>>>&%5%>>",
">>>4%4>>>>>4%4>>",
">>4%e%4>4>4%e%4>",
">4%ewe%4X4%ewe%4",
"4%ewwwe t ewwwe%",
"%ewww5XyqrX5wwwe",
"&%5w5XuqqqrX5w5%",
">&%5Xuqq=qq9X5%&",
">>& yqqqqqqq8 &>",
">>>.tq3q;q#q7.>>",
">>4 tqqqqqqq7 4>",
">4%XrqOq-q2q7X%4",
"4%eXrqqqqqqq7Xe%",
"%ewXr09877777Xwe",
"&%w5XX. . XXX5w%",
">&%w55%&&&%55w%>",
">>&%5%&>>>&%5%>>"
};
