/* XPM */
static char *copper_ore[] = {
/* columns rows colors chars-per-pixel */
"16 16 14 1 ",
"  c #3A685A",
". c #3A7663",
"X c gray36",
"o c #686868",
"O c #747474",
"+ c gray50",
"@ c #C16746",
"# c #E0734D",
"$ c #818058",
"% c #F38268",
"& c #599581",
"* c #4FBA98",
"= c gray56",
"- c #A2A2A2",
/* pixels */
"====+==+OoOO++O+",
"++O+OO+++++ooO++",
"+O..oXXoooO#@=OO",
"++=OX..Xo=+=-+O+",
"OOOX.$#@$=++OO++",
"+=o$@#%-=OOXXoO=",
"O+++=--=OoX$$XO+",
"OoOXXoO++ &*&@o+",
"==o.$Xo+== &$#@O",
"+&**&$+=+O=.--=+",
"O=.&-=+Xo++=-++O",
"++=-+oo@Xo++=+OO",
"+OOOo.$#%@OoOoo+",
"==.$-=.$.-=+o.*O",
"+=--=+=--=++==+=",
"+++O+O+=+++++==+"
};
