/* XPM */
static char *crafting_table_top[] = {
/* columns rows colors chars-per-pixel */
"16 16 10 1 ",
"  c #0E0B06",
". c #19140C",
"X c #1A150D",
"o c #41230E",
"O c #4B2B18",
"+ c #553824",
"@ c #733920",
"# c #9E5932",
"$ c #AE693C",
"% c #BC9862",
/* pixels */
".  .o@@@@@@o. ..",
" %%o#$$$$$$#o%% ",
" %o$$$$$$$$$$o% ",
".o$+O+++OOOO+$o.",
"o#$+#$+$$O$$+$#o",
"@$$+$$O#$+#$+$$@",
"@$$++O++O++O+$$@",
"@$$+$$+$$+$$+$$@",
"@$$+$$+$$+$$+$$@",
"@$$OOO+OO++O+$$@",
"@$$O#$O$#O$$+$$@",
"o#$+#$O$$O#$+$#o",
".o$++O+++++++$o.",
" %o$$$$$$$$$$o% ",
"X%%o#$$$$$$#o%%.",
".X .o@@@@@@o.  ."
};
