/* XPM */
static char *crimson_fungus[] = {
/* columns rows colors chars-per-pixel */
"16 16 16 1 ",
"  c #480000",
". c #521810",
"X c #501B1B",
"o c #730408",
"O c #49372C",
"+ c #723232",
"@ c #5B4538",
"# c #796152",
"$ c #941818",
"% c #A42429",
"& c #C22B04",
"* c #C53439",
"= c #FF6500",
"- c #854242",
"; c #FFA468",
": c None",
/* pixels */
"::::::::::::::::",
"::::::::::::::::",
"::::::::::::::::",
"::::::::::::::::",
"::::::**%;::::::",
":::::;=*%%$:::::",
":::::==*=;$:::::",
":::::o$$==o:::::",
":::.%**%o..&o:::",
"::: .ooo..oo :::",
":::: ..  .. ::::",
":::::::XO:::::::",
":::::::@+:::::::",
":::::::-#:::::::",
":::::::#-:::::::",
":::::::-+:::::::"
};
