/* XPM */
static char *cyan_glazed_terracotta[] = {
/* columns rows colors chars-per-pixel */
"16 16 19 1 ",
"  c #323538",
". c #36393D",
"X c #3A3E43",
"o c #3D4145",
"O c #136A79",
"+ c #474F52",
"@ c #147181",
"# c #157788",
"$ c #157A8C",
"% c #157E91",
"& c #169C9C",
"* c #16A3A3",
"= c #17A8A8",
"- c #17ACAC",
"; c #18ABAB",
": c #1BBABA",
"> c #CBCFD1",
", c #CCD0D2",
"< c #D0D6D7",
/* pixels */
"##&++<,<:++OO=-O",
"X.&;>><:++O#%=*-",
"..&&;>:++O##%*&&",
"**#&&;++O#$##$#@",
"&&..X&+OX.X####O",
"&&.. &&&. .#$#O+",
"==..XO*&o..%#O++",
"><#%$X.o&*##O++:",
">>%%% ..*&&O++:<",
">+#X. ..Xo&&+:><",
"++% .....X*&;><>",
"+O#..XoX..#&&;>+",
"O##..O$#..O#&&;+",
"###XX#%#..$O#&&&",
"####O++>>*&&*. %",
"%##O++>,>=&&&X.#"
};
