/* XPM */
static char *dead_horn_coral_block[] = {
/* columns rows colors chars-per-pixel */
"16 16 6 1 ",
"  c #5D5A59",
". c #686463",
"X c #746A66",
"o c #867B77",
"O c #99938D",
"+ c #A4A09C",
/* pixels */
"o.++oXX++oXX++X+",
"XX++OXO++ooX+.++",
" oXOO+OOo++X o++",
"X  ooXOXO++. XXX",
"ooO+ooXXOo.Xo+OX",
"oO+OooooXoXXoO+O",
"XOOXO+o.XoX++XOO",
"o.OO+Ooo..oO+OXO",
"++.o .XX. XXOOo.",
"++O o++X  oXXX X",
"X+XoO++ooXoX oo ",
"XXooXXoo ++ oO+o",
"XO+oXX++X++.O+Oo",
"O+Oo.o+X.O+XOOXX",
"OO.XooXo oOOXXXX",
"X.XXOXX X XX++XX"
};
