/* XPM */
static char *destroy_stage_9[] = {
/* columns rows colors chars-per-pixel */
"16 16 3 1 ",
"  c gray24",
". c #9B9B9B",
"X c None",
/* pixels */
"XX XXX X.X X X.X",
"XX.   .XXX X XXX",
"X X... X  .X. XX",
"X.  XX. ..XXX XX",
"  .. X .X  XX  X",
"..XX X XX .X .. ",
"XXXX   XX.  .XX.",
"  X ... X . XXXX",
".. .X X. .X XXX ",
"XX X .XX XX. X .",
" X.X. XX  XX. .X",
". XXX   ..  X XX",
"X XX ... X..X.  ",
"X.  .XXX.   XX..",
"XX .  XX ...  XX",
"XX X..XX XXX.. X"
};
