/* XPM */
static char *fire_0[] = {
/* columns rows colors chars-per-pixel */
"16 512 64 1 ",
"  c #B13F00",
". c #B34300",
"X c #B74900",
"o c #B94D00",
"O c #BC5300",
"+ c #BF5801",
"@ c #C15C01",
"# c #C46302",
"$ c #C76802",
"% c #C96D03",
"& c #CC7404",
"* c #CF7906",
"= c #D07D07",
"- c #D17F08",
"; c #D38309",
": c #D68B0C",
"> c #D88F0E",
", c #D8910F",
"< c #DA9511",
"1 c #DC9B15",
"2 c #DE9F18",
"3 c #DFA11A",
"4 c #E1A51D",
"5 c #E1A81F",
"6 c #E3AC23",
"7 c #E4B027",
"8 c #E6B32B",
"9 c #E7B731",
"0 c #E7B832",
"q c #E8BA35",
"w c #E9BE3A",
"e c #EAC03E",
"r c #EBC344",
"t c #ECC749",
"y c #EDC94D",
"u c #EECC53",
"i c #EFCF5A",
"p c #F0D15E",
"a c #F1D364",
"s c #F2D66B",
"d c #F2D86F",
"f c #F3D973",
"g c #F4DC7B",
"h c #F5DF83",
"j c #F5E086",
"k c #F6E28D",
"l c #F6E493",
"z c #F7E79B",
"x c #F7E89F",
"c c #F8E9A4",
"v c #F8EBAB",
"b c #F9EDB2",
"n c #FAEFBA",
"m c #FAF0BD",
"M c #FAF1C4",
"N c #FBF3CA",
"B c #FCF5D3",
"V c #FCF7DA",
"C c #FCF8DE",
"Z c #FDF9E3",
"A c #FDFBEB",
"S c #FEFDF5",
"D c #FFFFFF",
"F c None",
/* pixels */
"FFFFFFFFFFFFFFFF",
"FFFFFFFFFFFFFFFF",
"FFFFFFFFFFFFFFFF",
"FFFFF..FFFF...FF",
"FFFFFoO.....FFFF",
"FFFFFXO#%O.FFFFF",
"FFXoO&&*&%XFFFFF",
"FF$%%=::=$oFFFFF",
"F@$#@@$*<63%OFFF",
"F#;$%,664sAt<<@F",
"Fo%146qqxajulr;F",
"F&q<:;:ZDD31q<@F",
"F@$$o@eDDdw$@##F",
"F:O.@@sDDDD,o.FF",
"F%DD*O;DNDqyDD;O",
"FDDN*o6V$O$8D2#F",
"FFFFFFFFFFFFFFFF",
"FFFFFFFFFFFFFFFF",
"FFFFFFFFFFFFFFFF",
"FFFFF..FFFFFFFFF",
"FFFFF.XO@XFFFFFF",
"FF .o#$$$+FFFFFF",
"FFO@@%*&%@.FFFFF",
"FX@+OO#%;>;@XFFF",
"FO%@#*,,,0i6*&XF",
"F.$;><34twr0r3%F",
"F#<;=*;fDS1>3;OF",
"FO#@o@6DDt6$@+OF",
"F$XFO@rDDDD;X.FF",
"F#aD%O-bnD78Da%F",
"FkDs&X<i&@$4k<@F",
"F$:62DDD%$$DD,SD",
"FFFFFFFFFFFFFFFF",
"FFFFFFFFFFFFFFFF",
"FFFFFFFFFFFFFFFF",
"FFFFFF..X.FFFFFF",
"FFFF.OO++oFFFFFF",
"FFXoO@$$#OFFFFFF",
"FFoOXO+#%*$oFFFF",
"F.@OO$*=;26:$@FF",
"FFO&*;:,64644:@F",
"FO-&&%=wDd>;>&XF",
"FX@@XO1Dn0<#@O.F",
"F@.FXO6DDDc&.FFF",
"FO4y#o=flc42a4@F",
"F8xq%X;7&@$<r:OF",
"F#;1,DDD%@$DD:yl",
"+D3gvcr:1DD:&$&.",
"FFFFFFFFFFFFFFFF",
"FFFFFFFFFFFFFFFF",
"FFFFFFFFFFFFFFFF",
"FFFFF.XoX.FFFFFF",
"FFF.XO+@O.FFFFFF",
"FF...XO+#$@ FFFF",
"FFoXoO$$&;:&+XFF",
"FFo#$&*;,<1>:&XF",
"F.$$$$%3gq;=;$.F",
"F.oO.O:Ba3;@OoFF",
"FX.F.O1DDle$.FFF",
"FX;1OX&tsa2:4;XF",
"F:e2#X&1&@$;5=oF",
"F@*:;MDD%O#gZ;31",
".D<0usw:<DD;&#$F",
"or&uDDDDDyS2D$FF",
"FFFFFFFFFFFFFFFF",
"FFFFFFFFFFFFFFFF",
"FFFFFF...FFFFFFF",
"FFFFF.ooXFFFFFFF",
"FFFFF..oOOXFFFFF",
"FF...o@@$&&#XFFF",
"FF.O@#$&=;;*&@FF",
"FF+++@$:82*&&#FF",
"FFXX.o*u0<*OoXFF",
"FFFFFX:kDt3@FFFF",
"FF%*oX$8re:=;$FF",
"F&2:@.$;%@#*,%.F",
"FO&*&rDC$o@8u*;%",
"Fr;28w8::Dc;%@#F",
"F3&rDDDDDrg<D#FF",
"Dh$0DDDDuq2D2$1#",
"FFFFFFFFFFFFFFFF",
"FFFFFFFFFFFFFFFF",
"FFFFFF...FFFFFFF",
"FFFFFF..XXFFFFFF",
"FFFFF.oOO##OFFFF",
"FFFXOO@#%%&$#oFF",
"FFXoOO@*1:%$#OFF",
"FF.. .$63;%O..FF",
"FFFFF.*wk6:OFFFF",
"FF+@..$276=%%OFF",
"F@;&O @*$@@%=@FF",
"F.$%$2lt@XO14%%o",
"F<*:164;;jw*$@+F",
"F;&8DDDDDqe:h+FF",
"D0$7ZDDDu62D<$&.",
"DSDwwDD<;O&v:&@F",
"FFFFFFFFFFFFFFFF",
"FFFFFFFFFFFFFFFF",
"FFFFFFFF.FFFFFFF",
"FFFFFF..XOO.FFFF",
"FFFF.XOO@##+O.FF",
"FFF.XXO%;*#@@XFF",
"FFFFF.@>:&#X FFF",
"FFFFF $4w<&oFFFF",
"FFXOFF@>2<%@@.FF",
"Fo$#.FO%$@O#$OFF",
"FF@@@;83@.O=:@@F",
"F&$&;<1*&62%#OoF",
"F%$3DDDDD64=6OFF",
"l2#4vDDDr2<D>@@F",
"Dkg68DD1-O=t;$oF",
"k7DDD<<2.@*4%#$F",
"FFFFFFFFFFFFFFFF",
"FFFFFFFFFFFFFFFF",
"FFFFFFFF...FFFFF",
"FFFFF..XOOOO.FFF",
"FFFF...@%$OOoFFF",
"FFFFFFO==$O.FFFF",
"FFFFFF@:2;$.FFFF",
"FFF.FFO=:;$OoFFF",
"FF+O Fo#@OO@@.FF",
"FFoOO%<;O .%&O.F",
"F@+$&;;%$>;#@o.F",
"F@#,DDDDg<>&:XFF",
"1;@1fDDDq<:A;OXF",
"Brq<6DD1*O&6=@.F",
"66DDD<::.@%:$O+F",
"%&fDD>.XoFO@$sgD",
"FFFFFFFFFFFFFFFF",
"FFFFFFFFFFFFFFFF",
"FFFFFFF..XX.FFFF",
"FFFFFF.O@@oX.FFF",
"FFFFFFX$$@oFFFFF",
"FFFFFFO&;%@FFFFF",
"FFFFFFo&-&@X.FFF",
"FFX.FF.+OOXoXFFF",
"FF.XX@&%XF.@#oFF",
"FXo@#&&#@&%+o.FF",
"FoO-DSDDq;;$&.FF",
"%%@:rDDB6;=t%oFF",
"661:3DM<&O%,&OFF",
";2vDb,:-.O$*@OXF",
"O&sDD>...FX+@68r",
"D6$<rVO&#4X.O:= ",
"FFFFFFFFFFFFFFFF",
"FFFFFFFFF.FFFFFF",
"FFFFFFF.oo.FFFFF",
"FFFFFF.+@O.FFFFF",
"FFFFFFX$&#XFFFFF",
"FFFFFF.#%$O FFFF",
"FFFFFFFoOX...FFF",
"FFF..o#@.FFoO.FF",
"FF.oO#$+O@@oX FF",
"FFo%uihi1&%@@FFF",
"X@O=7kns2&&3#.FF",
"=:;=<gs:$O$;$XFF",
"$:pDs:;&.X+$OXFF",
".%yDD:X..F.OO::;",
"8,%1qiO@O=.FO=&F",
",:6s&3OXl1@s6XO.",
"FFFFFFFFFFFFFFFF",
"FFFFFFFF..FFFFFF",
"FFFFFFFXoXFFFFFF",
"FFFFFF.+#O.FFFFF",
"FFFFFFF+@@.FFFFF",
"FFFFFFF.X.FFFFFF",
"FFFFF.OoFFF..FFF",
"FFF.oO+OXOoX.FFF",
"FF.#3686;$@oOFFF",
"FXX&1riq:%$;OFFF",
"@&&%:ww;$o@&@.FF",
"o=9Dw;*$..O@o.FF",
"F$qDD;.FFFFXo%&@",
"==%177oOX#FFo$$F",
"%*,8&:oX8=+4:XoF",
".6w&;osD0X#%:D&F",
"FFFFFFFFFFFFFFFF",
"FFFFFFF..FFFFFFF",
"FFFFFFFXOXFFFFFF",
"FFFFFFFXOoFFFFFF",
"FFFFFFF..FFFFFFF",
"FFFFFFX.FFFFFFFF",
"FFFF.Xo....FFFFF",
"FFFO;:<;%OOX.FFF",
"FF.#;683=#@%oFFF",
".@##=46=@oO@OFFF",
"F%2D4*&#..XO.FFF",
"F@4vD*.FFFF..@+.",
"@%%,31X..OFF.@@F",
"O%;<&&X.:$O;&..F",
"F>2%&oqD6XO$;D$F",
"A8Duy%yrDfDDD,fD",
"FFFFFFFFFFFFFFFF",
"FFFFFFF...FFFFFF",
"FFFFFFF.X.FFFFFF",
"FFFFFFFFFFFFFFFF",
"FFFFFFFFFFFFFFFF",
"FFFFFF.FFFFFFFFF",
"FFFX$&*&@o.FFFFF",
"FFFO&<1:%OO@.FFF",
"FOOO%<,&+XoO.FFF",
"F#;f<&$OFF.XFFFF",
"FO<ub%.FFFFFFoXF",
".@$:<;.FF.FFFOoF",
".@&;$$..%@.$@.FF",
"F*:$$X2D1XO+&Z@F",
"62D63$8eDwDDc:qr",
"F-lDrS#8Di<:<,DD",
"FFFFFFFFFFFFFFFF",
"FFFFFFFF.FFFFFFF",
"FFFFFFFFFFFFFFFF",
"FFFFFFFFFFFFFFFF",
"FFFFFFFFFFFFFFFF",
"FFFF+@$@o.FFFFFF",
"FFFX$*;&@O.oFFFF",
"F.XO$;;$O..XFFFF",
"FO&6;$@oFFF.FFFF",
"FX;6r$.FFFFFF.FF",
"FO@=;&FFFFFFF..F",
"FO$&#@.F+o.OoFFF",
"F$&@@.:D;.XO$0oF",
"*:a<;#38D4fcr;<:",
"F&rD6u#7Dy,;:>DD",
"F&8<&3DzyyDDDDDD",
"FFFFFFFFFFFFFFFF",
"FFFFFFFFFFFFFFFF",
"FFFFFFFFFFFFFFFF",
"FFFFFFFFFFFFFFFF",
"FFFFXOOo.FFFFFFF",
"FFF.O%&$O.F FFFF",
"FFF.+%&@XFF.FFFF",
"F.#:%#OXFFFFFFFF",
"F.%13@FFFFFFFFFF",
"FXO&&$FFFFFFFFFF",
"FXO$@OFFX F..FFF",
"FO$OO.&n&...@:.F",
"+&6;&@:3s:6q3&-#",
"F%6g<4#4Dw;;;;DD",
"F$1:&1DdwwDDDDDD",
"$Dk>%5Dm=b3MhDDe",
"FFFFFFFFFFFFFFFF",
"FFFFFFFFFFFFFFFF",
"FFFFFFFFFFFFFFFF",
"FFFFF...FFFFFFFF",
"FFFFo@#OXFFFFFFF",
"FFFFo#$O.FFFFFFF",
"FFO%#Oo.FFFFFFFF",
"FF#;;OFFFFFFFFFF",
"FFO$$@FFFFFFFFFF",
"FFo+OXFFFFFFFFFF",
"F.OoX #8@FF o%FF",
"F#:&@O*>7=:<;$$.",
"F#<8::#1D6=&*=sq",
"FO;=%:Dr67kDDvDc",
"ODe;$3Dg;y4khDD4",
"DlDDDqDDD&o@DD82",
"FFFFFFFFFFFFFFFF",
"FFFFFFFFFFFFFFFF",
"FFFFFFFFFFFFFFFF",
"FFFF.oOoFFFFFFFF",
"FFFF.O+XFFFFFFFF",
"FF.@OoXFFFFFFFFF",
"FFO&&XFFFFFFFFFF",
"FFX@#oFFFFFFFFFF",
"FF.OX.FFFFFFFFFF",
"FFX..FO;OFFF.OFF",
"FO&#OX%=:$&*&@OF",
"FO=<&&@:V1&%$%6;",
"Fo&&$-D823wnDaD8",
".c4&#<Dt=61iaDD:",
"DiDDD0DDD&O#SD8=",
"%;7DDgDC0$&$qDDD",
"FFFFFFFFFFFFFFFF",
"FFFFFFFFFFFFFFFF",
"FFFFF.. FFFFFFFF",
"FFFFFXo.FFFFFFFF",
"FFFoX..FFFFFFFFF",
"FFo@#.FFFFFFFFFF",
"FF.OO.FFFFFFFFFF",
"FFF..FFFFFFFFFFF",
"FF.FFF.$.FFFF.FF",
"F.@OX.@$*+@#@o.F",
"FX%=$#O*r;$#@#:@",
"F.$$@&u1<:3tN0D:",
"F6:$@:D7*<:qtDD&",
"b0nDD7DDD&O$fx6$",
"@;8DDfDC0#$@8DbN",
"FD&2hDDZ$#DDDrDD",
"FFFFFFFFFFFFFFFF",
"FFFFFFFFFFFFFFFF",
"FFFFF..FFFFFFFFF",
"FFF. FFFFFFFFFFF",
"FFFoOFFFFFFFFFFF",
"FFFXXFFFFFFFFFFF",
"FFF.FFFFFFFFFFFF",
"FFFFFFFOFFFFFFFF",
"FFo.FFO@#XoOo.FF",
"F @$OOo%2&@OOO$.",
"FF@@+$3;;;:3r2u$",
"F;&@O=p2%;;48DS$",
"42aDD3kDD%O$wi2O",
"o=7MDiDv6#O@5Ds6",
"FD*<yDDk$#DDDrDD",
"F@4D<1Z&;DDD8%:@",
"FFFFFFFFFFFFFFFF",
"FFFFFFFFFFFFFFFF",
"FFFFFFFFFFFFFFFF",
"FFF..FFFFFFFFFFF",
"FFF..FFFFFFFFFFF",
"FFFFFFFFFFFFFFFF",
"FFFFFFF.FFFFFFFF",
"FF.FFF.oO ...FFF",
"FFoOoX.@-#ooooOF",
"FFoOo@;=&&&;1:2O",
"F$@Oo%6:$&&<3fiO",
"&:0DM<rDa$O#4q:.",
"F&4hvrDf2@OO1Dq=",
"Fr*:9nDu$@hDDwzr",
"FO<D,1s&-DDD8&;o",
";Dgt6%$O4DD84$#D",
"FFFFFFFFFFFFFFFF",
"FFFFFFFFFFFFFFFF",
"FFFFFFFFFFFFFFFF",
"FFFFFFFFFFFFFFFF",
"FFFFFFFFFFFFFFFF",
"FFFFFFFFFFFFFFFF",
"FFFFFFF..FFFFFFF",
"FF.X. FO$O.....F",
"FF.X.O$$$$$%-&=F",
"FOO.X#:*@$%;>q6.",
"O&1Dr;6D6@o@,3=F",
"F$1yi8Nr<+XO:D4@",
"F1&;4sD8#@8DA8y>",
"Fo;k:<w&&DDD6**.",
"$Dr81$#O1DDq<#@8",
"Xa4pDDDkDD7$..<6",
"FFFFFFFFFFFFFFFF",
"FFFFFFFFFFFFFFFF",
"FFFFFFFFFFFFFFFF",
"FFFFFFFFFFFFFFFF",
"FFFFFFFFFFFFFFFF",
"FFFFFFFFFFFFFFFF",
"FFFFFFF.OXFFFFFF",
"FFF.F.@@+++@$#$F",
"FFX. O&%O@#&*2:F",
"F@;i2&<p<OXO;>%F",
"F@:782i7;O.o*d:X",
"F*%*1wf2@O1Ds36%",
"FX*0;:4&&DDB4&%F",
"oD61;#@O:DD8;@O=",
".820DDDyDD4$X.==",
"FX;uDDD8&=0%uDb.",
"FFFFFFFFFFFFFFFF",
"FFFFFFFFFFFFFFFF",
"FFFFFFFFFFFFFFFF",
"FFFFFFFFFFFFFFFF",
"FFFFFFFFFFFFFFFF",
"FFFFFFFFXFFFFFFF",
"FFFFFFoooXXOOOoF",
"FFFFFX$@oOO#$;&F",
"Fo%2;$-4-O.O&=#F",
"FO*12:61&oFX%6&F",
"F$#&:4q>Oo-s8<,O",
"F.$<&-<%$aDs1%#F",
"Fy1;*@OO;cD6=Oo+",
"F1,3lDD8Dk2$..$@",
"F.*0DDD8&=2$4yqF",
"$Dq6DDDaaDDDDD$F",
"FFFFFFFFFFFFFFFF",
"FFFFFFFFFFFFFFFF",
"FFFFFFFFFFFFFFFF",
"FFFFFFFFFFFFFFFF",
"FFFFFFFFFFFFFFFF",
"FFFFFF........FF",
"FFFFF.Oo.XXO@%@F",
"F.@*%@$:$X.X$%OF",
"FX%;:=<;%.F.#>#F",
"FO+$*,3-OX$6<;*F",
"FF@;%*;##6vq:$@F",
"F1;*%+oo&yv2&O..",
"F;;:eDk1kt,#. O.",
"F.&4DDD6&=;#;4<F",
"oD34DDDtwDbDDD#F",
"rDxDDDDDDDDDDDk=",
"FFFFFFFFFFFFFFFF",
"FFFFFFFFFFFFFFFF",
"FFFFFFFFFFFFFFFF",
"FFFFFFFFFFFFFFFF",
"FFFFFFFFFFFFFFFF",
"FFFFFFX.FF.XO@XF",
"FFo$+o@&@.F.O@XF",
"FF@&&%-&@.FFO*OF",
"F.O#%;;&o.@:;&$F",
"FFO%$%&@O:w2=#oF",
"F&%$#OoX$6y:$X.F",
"F%&=3D0;q6:#.FXF",
"FF$<cnD1&&&+&;&F",
"Fd,1DAD86DuDDN@F",
"1DaDDDDDDDDDDDw+",
"+DDDDDDDDDD;<&6D",
"FFFFFFFFFFFFFFFF",
"FFFFFFFFFFFFFFFF",
"FFFFFFFFFFFFFFFF",
"FFFFFFFFFFFFFFFF",
"FFFFFFFFFFF..XFF",
"FFFOo.o@oFFFXOFF",
"FFO##@$$OFFFo#XF",
"FFXO#&&$.Fo%%#+F",
"FFX@@#$OO&1;&O.F",
"F@@@+o..@<6;#XFF",
"F@$%:r<&1<*@ F.F",
"FF@;tpj,%%$O@$@F",
"F3=:DlD4<b6MDiOF",
"&DwkDDDDDDDDDD2.",
"ODDDVDDDDDD>,*2k",
"DDDD2DDDDD5#;yDX",
"FFFFFFFFFFFFFFFF",
"FFFFFFFFFFFFFFFF",
"FFFFFFFFFFFFFFFF",
"FFFFFFFFFFFFFFFF",
"FFF.FF.o.FFF..FF",
"FF.OOO@+.FFF.OFF",
"FF.X@$$O.F.+@OXF",
"FF.OOO@X.#=&$OFF",
"FXOOo.. O;<&O.FF",
"Fo+@&1*$;;&OFFFF",
"FFO&68q-#$@oO@oF",
"F*%;sul<;q<yD6XF",
"@i6evDDDDDmMCD;F",
".DDDcDDDDDD::*>2",
"DDDD6DDDDD8#*6d.",
"*DDDMDDDDDD:DDD#",
"FFFFFFFFFFFFFFFF",
"FFFFFFFFFFFFFFFF",
"FFFFFFFFFFFFFFFF",
"FFFFFFF.FFFFFFFF",
"FFFXXXOXFFFFF.FF",
"FFF.oO+oFFFXOoFF",
"FFFXXoO..O$$OXFF",
"FF.X..FFX$*$oFFF",
"F.oO$=$O%&$oFFFF",
"FFX$:11&@@O...FF",
"F##&88e;&1;4D<.F",
".3,4pDDDDDssgh&F",
"FfDcfDDDDDA>:&;%",
"hDDD6DDDDD7#%<6F",
"&DDDvDDDDDD:DDDO",
"OZDDDtDsDADDDDDk",
"FFFFFFFFFFFFFFFF",
"FFFFFFFFFFFFFFFF",
"FFFFFFFFFFFFFFFF",
"FFFFFF..FFFFFFFF",
"FFFF.Xo.FFFF..FF",
"FFFF.XXFF.+OoFFF",
"FFFFFFFF.@$@.FFF",
"FF.XO$Oo@#@XFFFF",
"FF O*;;#OOo.FFFF",
"FoO$123&$*%:a*FF",
"F;=<8DDDDD0wrq@F",
"F8DiyDDDDDk:=&%O",
"4DDD5DDDDD6#$;:F",
"$DDDjlDDDDD;SkDX",
"XkDDDwBaCNDZDDDr",
"O&<6cD62DbBaDDk;",
"FFFFFFFFFFFFFFFF",
"FFFFFFFFFFFFFFFF",
"FFFFFFFFFFFFFFFF",
"FFFFF..FFFFFFFFF",
"FFFFF .FFF.X.FFF",
"FFFFFFFFFo@oFFFF",
"FFF.XOX.OOO.FFFF",
"FFFo$%%@oX.FFFFF",
"FF.@;:;$@%@&4#FF",
"F$%=2BDDDl2441OF",
"F<u08NDDDDu;*$@F",
"-hhu3NDDDD4@@&&F",
"OkDNpiADDSz-ywhF",
".6NSDhhixzDlVVk3",
" &16hD3hDhkuVDC*",
"<hD;#&<Ch-$2kVDD",
"FFFFFFFFFFFFFFFF",
"FFFFFFFFFFFFFFFF",
"FFFFFFFFFFFFFFFF",
"FFFFFFFFFFFFFFFF",
"FFFFFFFFF.o.FFFF",
"FFFFF.FF.XXFFFFF",
"FFF.O#@o..FFFFFF",
"FFFO%*&@O+O#*OFF",
"FO@%:ubbbq::>-.F",
"F=;01dDDDu8*%#OF",
"@;911dDDbbi@O##F",
"o491wqcbbbD&326F",
"F9fDm6ubbDbuakD;",
"F%hDwgebDvirkDf%",
":qDg$ebDDu<rDkkD",
"#nq&q:ZDbur<wkDz",
"FFFFFFFFFFFFFFFF",
"FFFFFFFFFFFFFFFF",
"FFFFFFFFFFFFFFFF",
"FFFFFFFFFFFFXFFF",
"FFFFF..FFFX.FFFF",
"FFFFF.o.FXXXFFFF",
"FFFF.#:#XoXOFFFF",
"FFo.#>*$&,*.FFFF",
"FF*:>&,8882&XFFF",
"FO>*#:7euus2*OFF",
"F@:6w6eddMDd;:;F",
"F@>w62qDDDMuduq$",
"FO:<<w>MDDDdDfy%",
"@tw1#$;DDDM8suu0",
"O;a;<=pDDDM>8uuu",
";pDp%&DDDMuMDDM;"
};
