/* XPM */
static char *flowering_azalea_side[] = {
/* columns rows colors chars-per-pixel */
"16 16 11 1 ",
"  c #575016",
". c #495E27",
"X c #42552D",
"o c #50692C",
"O c #647233",
"+ c #70922D",
"@ c #6C8031",
"# c #9E5088",
"$ c #BA62CE",
"% c #D07BE3",
"& c None",
/* pixels */
".@@o+@o.+Oo$%#o+",
"@o$%#O@.%..% $OO",
"o.% $o+o$O.#$#@+",
"oo#$#@+O@+oO+O+.",
"o+oOoOo+O+O@.+.o",
".+o%O+o$%#+@o.oO",
".o+$o+O% $oo@%@.",
"X@.oOX+#$#oX@$+O",
"&o+o@oX+@+X&+O+O",
"&o+@+&&o+o&&&+.&",
"&&o+o&&&&&&&&&&&",
"&&&&&&&&&&&&&&&&",
"&&&&&&&&&&&&&&&&",
"&&&&&&&&&&&&&&&&",
"&&&&&&&&&&&&&&&&",
"&&&&&&&&&&&&&&&&"
};
