/* XPM */
static char *frosted_ice_2[] = {
/* columns rows colors chars-per-pixel */
"16 16 17 1 ",
"  c #6197F3",
". c #679BF3",
"X c #6A9DF4",
"o c #72A2F4",
"O c #74A6FB",
"+ c #70A4FC",
"@ c #77A9FD",
"# c #7AABFD",
"$ c #80ADFB",
"% c #8EB6FD",
"& c #92B9FE",
"* c #9ABEFE",
"= c #9DC0FE",
"- c #A1C3FF",
"; c #ABC9FF",
": c #C8DCFF",
"> c #CEE0FF",
/* pixels */
"$$$$&>-&&$$$---$",
"$$$&--&&$$$&-&$$",
"$$&-&&&&&$&-&$$$",
"&&$&&@&&$&&&$$$$",
"&$$$&=@$$$O%$$&&",
"$$$&&@*++$O&&&--",
"$$&&$*+ $.=&#-&$",
"$$$$O$$%.*.X;-&$",
"$&&$*@.# .---&&#",
"&&&&&**.*=o-@&$$",
"&&&-&O *&-=.&*$&",
"&--&$%*@-&.*#$$&",
"--&$*+$#$$=&$$&&",
":-$$++$$O&$$$&&&",
"-$$+O$$&-&$$$$-:",
"$$$$$&>-&$$$$-:-"
};
