/* XPM */
static char *furnace_front_on[] = {
/* columns rows colors chars-per-pixel */
"16 16 18 1 ",
"  c #111111",
". c gray13",
"X c #3C3B3B",
"o c #504E4E",
"O c #5D5B5B",
"+ c #686868",
"@ c #777777",
"# c #C35D1B",
"$ c #FF8F00",
"% c #FFD800",
"& c gray52",
"* c gray57",
"= c #9D9D9D",
"- c gray66",
"; c gray69",
": c #FFFF97",
"> c #C5C5C5",
", c white",
/* pixels */
"ooooXoooXXXoXXoo",
"o++@@+@+@@+@+@Oo",
"XO@*@&+@&*&*@+@o",
"o+&&X......X&@+o",
"o@&X        X@OX",
"X@+   ....   *OX",
"o@+  XXXXXX  *Oo",
"X@*--;;;;;;--*@X",
"X@&@+O@+O+@+@++o",
"o>;>>>>>>>>>>>-o",
"o---;-&&&&-;-;=X",
"o=-*O.    .$*-=o",
"o**o$ #$$#%%o@=o",
"o@* %%$:%%:$ =*o",
"X*@#%:%,%,:%#@=X",
"X+X$$,:,$:%$%X+X"
};
