/* XPM */
static char *hopper_top[] = {
/* columns rows colors chars-per-pixel */
"16 16 7 1 ",
"  c #343438",
". c #3F3E42",
"X c #494848",
"o c gray31",
"O c #595858",
"+ c #676161",
"@ c None",
/* pixels */
"XooOOO++++OOoooX",
"oXXXXXXXXXXXXXXo",
"oX .......... Xo",
"oX.@@@@@@@@@@.Xo",
"OX.@@@@@@@@@@.XO",
"OX.@@@@@@@@@@.XO",
"+X.@@@@@@@@@@.X+",
"+X.@@@@@@@@@@.X+",
"+X.@@@@@@@@@@.X+",
"+X.@@@@@@@@@@.X+",
"OX.@@@@@@@@@@.XO",
"OX.@@@@@@@@@@.XO",
"OX.@@@@@@@@@@.XO",
"oX .......... Xo",
"oXXXXXXXXXXXXXXo",
"XooOOO++++OOoooX"
};
