/* XPM */
static char *jigsaw_side[] = {
/* columns rows colors chars-per-pixel */
"16 16 8 1 ",
"  c #101010",
". c #261D2A",
"X c gray20",
"o c #353635",
"O c #766376",
"+ c #967896",
"@ c #D7B3D7",
"# c #D7C2D7",
/* pixels */
"Xo....XOOX....oo",
"o    X    X    o",
".   .  ++  .   .",
".  X  +@@+  X  .",
". O  +@##@+  O .",
".O  +@####@+  O.",
".O ++++##++++ O.",
".O     ##     O.",
".X.XOO ## OOX.X.",
".    O ## O    .",
". .. X @@ X .. .",
". .. . @@ . .. .",
". .. . @@ . .. .",
". .. . ++ . .. .",
"o    X    X    o",
"Xo..XOX..XOX..oX"
};
