/* XPM */
static char *lantern[] = {
/* columns rows colors chars-per-pixel */
"16 48 19 1 ",
"  c #252C3D",
". c #3E4453",
"X c #424A5E",
"o c #495065",
"O c #BA5C1C",
"+ c #BD5F1F",
"@ c #814023",
"# c #8B5230",
"$ c #C36322",
"% c #EC8144",
"& c #EF8447",
"* c #F09149",
"= c #F3C059",
"- c #F6C562",
"; c #F9C966",
": c #F8F87F",
"> c #FDFD8B",
", c #FFFFD5",
"< c None",
/* pixels */
"<.oo.<<<<<<<<<<<",
"<#@@#<<<<<<o..<<",
".oooo.<<<<<.< <<",
"@$**$@<<<<<.< <<",
"#*;;*#<<<<< . <<",
"#;,>;#<<<<<<<<<<",
"#;>,;#<<<<<.< <<",
"@*;;*@<<<<< . <<",
".oooo.<<<<<<<<<<",
"..XX..<<<<<<<<<<",
".XooX.<<<<<o..<<",
"XooooX<<<<<.< <<",
"XooooX<<<<<<<<<<",
".XooX.<<<<<<<<<<",
"..XX..<<<<<<<<<<",
"<<<<<<<<<<<<<<<<",
"<.oo.<<<<<<<<<<<",
"<#@@#<<<<<<o..<<",
".oooo.<<<<<.< <<",
"@+%%+@<<<<<.< <<",
"#%--%#<<<<< . <<",
"#-,:-#<<<<<<<<<<",
"#-:,-#<<<<<.< <<",
"@&--&@<<<<< . <<",
".oooo.<<<<<<<<<<",
"..XX..<<<<<<<<<<",
".XooX.<<<<<o..<<",
"XooooX<<<<<.< <<",
"XooooX<<<<<<<<<<",
".XooX.<<<<<<<<<<",
"..XX..<<<<<<<<<<",
"<<<<<<<<<<<<<<<<",
"<.oo.<<<<<<<<<<<",
"<#@@#<<<<<<o..<<",
".oooo.<<<<<.< <<",
"@O%%O@<<<<<.< <<",
"#%==%#<<<<< . <<",
"#=,:=#<<<<<<<<<<",
"#=:,=#<<<<<.< <<",
"@%==%@<<<<< . <<",
".oooo.<<<<<<<<<<",
"..XX..<<<<<<<<<<",
".XooX.<<<<<o..<<",
"XooooX<<<<<.< <<",
"XooooX<<<<<<<<<<",
".XooX.<<<<<<<<<<",
"..XX..<<<<<<<<<<",
"<<<<<<<<<<<<<<<<"
};
