/* XPM */
static char *lightning_rod[] = {
/* columns rows colors chars-per-pixel */
"16 16 7 1 ",
"  c #9A5038",
". c #A75A40",
"X c #B26247",
"o c #C87456",
"O c #D67B5B",
"+ c #E3826C",
"@ c None",
/* pixels */
"+++O@@@@@@@@@@@@",
"+OoO@@@@@@@@@@@@",
"+o.O@@@@@@@@@@@@",
"OOOO@@@@@@@@@@@@",
"o @@@@@@@@@@@@@@",
"o.@@@@@@@@@@@@@@",
"Oo@@@@@@@@@@@@@@",
"Oo@@@@@@@@@@@@@@",
"OX@@@@@@@@@@@@@@",
"oX@@@@@@@@@@@@@@",
"Oo@@@@@@@@@@@@@@",
"o.@@@@@@@@@@@@@@",
"X @@@@@@@@@@@@@@",
"o.@@@@@@@@@@@@@@",
"X @@@@@@@@@@@@@@",
". @@@@@@@@@@@@@@"
};
