/* XPM */
static char *lilac_bottom[] = {
/* columns rows colors chars-per-pixel */
"16 16 9 1 ",
"  c #177C04",
". c #4A8F28",
"X c #529A2E",
"o c #55AB2D",
"O c #9E619F",
"+ c #B66BB2",
"@ c #D380D3",
"# c #DE93F1",
"$ c None",
/* pixels */
"$$$+@+$ X$$+@@$$",
"$$$+ O$o.$O@#$$$",
"$$$$O oX . O$$$$",
"$$$$$$@#.$O$$$$$",
"$$$$$$+O+$$$$$$$",
"$$$$$$$OO$$+@#@$",
"$$$$@#$$.$ O+@$$",
"$$$$+ +$o OO$$$$",
"$@@+$O..X$$$$$$$",
"@@#O $$o.$$$$$$$",
"$$++O .o$$$$$$$$",
"$$$$OO$X$$+@@$$$",
"$$$$$$$X.OO+#@$$",
"$$$$$$$.  O$$$$$",
"$$$$$$$$ $$$$$$$",
"$$$$$$$$ $$$$$$$"
};
