/* XPM */
static char *loom_front[] = {
/* columns rows colors chars-per-pixel */
"16 16 15 1 ",
"  c #322718",
". c #543229",
"X c #524127",
"o c #6F4237",
"O c #695433",
"+ c #806337",
"@ c #846F64",
"# c #A48048",
"$ c #B38C51",
"% c #BC935A",
"& c #988176",
"* c #C6A067",
"= c #CAA671",
"- c #A8958C",
"; c #B5A49D",
/* pixels */
"=;=;=;=;=-=-=;==",
"#-#-#-#-#-#;#-##",
"#;#-#-#-#-#-#-##",
"#-$-$-$-$-$-$-$#",
"#&$&$&$&$&$&$&$#",
"#&$&$&$&$&$&$&$#",
"#&X&X&X&X&X&X&X#",
"#@O@O@O@O@O@O@O#",
"#==**====*=***=#",
"#*.oooooooooo.%#",
"#$$%$%%%%%%$%$$#",
"#              #",
"# XXXXXXXXXXXX #",
"# O++++++++++O #",
"#$==**==*===%*$#",
"++++++++++++++++"
};
