/* XPM */
static char *magenta_shulker_box[] = {
/* columns rows colors chars-per-pixel */
"16 16 22 1 ",
"  c #922889",
". c #94298B",
"X c #96298D",
"o c #97298E",
"O c #982A8F",
"+ c #992A90",
"@ c #9A2A91",
"# c #9E2B94",
"$ c #A02C96",
"% c #A12C97",
"& c #A52E9B",
"* c #A9309F",
"= c #AA31A0",
"- c #AB31A1",
"; c #B236A7",
": c #B338A9",
"> c #B439A9",
", c #B53AAB",
"< c #B73CAD",
"1 c #B93EAE",
"2 c #BA3FAF",
"3 c #BC41B1",
/* pixels */
"%>>%%::&#::&$::@",
":oO--Oo--Oo--O@$",
">@-11--11--31-O#",
"%-11<<1311<131-.",
"#-311311133111-.",
":@*1113111111-@%",
":O-331>31<311*o%",
"%-<11<11<11113- ",
"%-:3133<131111- ",
":O*1111<11311-@%",
";o*3313111311-o#",
"%-113:11311113-.",
"%-333331111311-.",
">O*1<-*3<--<3*o%",
":oo*-Oo--O@--@O%",
"O%#. %#o #% .#%."
};
