/* XPM */
static char *observer_front[] = {
/* columns rows colors chars-per-pixel */
"16 16 18 1 ",
"  c black",
". c #232323",
"X c #292626",
"o c gray16",
"O c #323232",
"+ c #353434",
"@ c gray23",
"# c #3D3C3C",
"$ c #464242",
"% c gray34",
"& c #656565",
"* c #797979",
"= c gray48",
"- c #8E8E8E",
"; c gray56",
": c #9D9D9D",
"> c #AFAFAF",
", c #C5C5C5",
/* pixels */
"ooooo@@@@@oooooo",
"@=;;;;==;;;=;==@",
"o&%%%%&===&&&%&@",
"oooOO@@@@@@ooOOo",
"..XXXX......XXXX",
"#$$##++#$$##+#+#",
"+,,,,,>,>,,>>>>#",
"+,>>>::::::>>:;+",
"##&&&&#>:#&&&&##",
"#&;  >;::;;  >&#",
"+=>.&,>:>::.&,=#",
"O*>,,>>:::>,,:=#",
"o=>>>>:&&:::::*X",
"o=:>>>>>>:::>>*@",
"@&=***********&@",
"@@@@oo@o@@@@@o@@"
};
