/* XPM */
static char *observer_back[] = {
/* columns rows colors chars-per-pixel */
"16 16 15 1 ",
"  c #250103",
". c #232323",
"X c #292626",
"o c gray16",
"O c #323232",
"+ c #353434",
"@ c gray23",
"# c #3D3C3C",
"$ c #4A0102",
"% c #780401",
"& c #464242",
"* c gray34",
"= c #656565",
"- c gray48",
"; c gray56",
/* pixels */
"ooooo@@@@@oooooo",
"@-;-;;--;;;;;;-@",
"o=**=**==----==@",
"oOO@@@@@OoOO@@Oo",
"..XXXX.O@...XXXX",
"++#+#+#-=++&+#++",
"&+&+#+=OO=+&+&+&",
"#+&#&#O%$O#&#&+#",
"&#&&&#O$ @#&&&+&",
"&#&#&#&O@&&&&&#&",
"&&&+&&&;-&&&#&&#",
"#&#&&&&=*&&#+&&#",
"@@oo@@@=*@@@o@@o",
"o-;;;;--===---=@",
"@=**---==*=**==@",
"@@@@oo@o@@@@@o@@"
};
