/* XPM */
static char *oxeye_daisy[] = {
/* columns rows colors chars-per-pixel */
"16 16 11 1 ",
"  c #177C04",
". c #529A2E",
"X c #55AB2D",
"o c #F19D25",
"O c #F5BA27",
"+ c #FED639",
"@ c #FFEC4F",
"# c #9BBDBD",
"$ c #D6E8E8",
"% c gray97",
"& c None",
/* pixels */
"&&&&&&&&&&&&&&&&",
"&&&&&&&&&&&&&&&&",
"&&&&&&#%$&&&&&&&",
"&&&&&$$%%$&&&&&&",
"&&&&$%O++$#&&&&&",
"&&&&%%+@O%%&&&&&",
"&&&&#$O+o%$&&&&&",
"&&&&&$%%$$&&&&&&",
"&&&&&&$%#&&&&&&&",
"&&&&&&&. &&&&&&&",
"&&&&&&&X&&&&&&&&",
"&&&&& .X&&&&&&&&",
"&&&&&& X& &&&&&&",
"&&&&&&&X &&&&&&&",
"&&&&&&&. &&&&&&&",
"&&&&&&& &&&&&&&&"
};
