/* XPM */
static char *pink_tulip[] = {
/* columns rows colors chars-per-pixel */
"16 16 8 1 ",
"  c #177C04",
". c #4A8F28",
"X c #529A2E",
"o c #55AB2D",
"O c #E4AFF4",
"+ c #EBC5FD",
"@ c #F6E2FF",
"# c None",
/* pixels */
"################",
"################",
"################",
"######@#+#######",
"######+@+#######",
"######O+O#######",
"#######O########",
"#####.# ########",
"#####oX #.######",
"#####oo.# ######",
"#####oo . ######",
"#####Xo o ######",
"#####.X.o ######",
"######Xo #######",
"######.o #######",
"####### ########"
};
