/* XPM */
static char *rail_corner[] = {
/* columns rows colors chars-per-pixel */
"16 16 11 1 ",
"  c #513D24",
". c #67502C",
"X c #7E6237",
"o c #686868",
"O c #72796E",
"+ c #967441",
"@ c #A6824D",
"# c gray61",
"$ c #A4A4A4",
"% c #ABACAB",
"& c None",
/* pixels */
"&&&&&&&&&&&&&&&&",
"&&&&&&&&&&&X+&&&",
"&&&&&&&&&&& %$$$",
"&&&&&&&&&&%$OOoo",
"&&&&&&&&%%Oo.X&&",
"&&&&&+ %Oo&&.+&&",
"&&&&& %O&&&&.@&&",
"&&&&&%OX@&&&&X@&",
"&&&&%O& +@&&&.@&",
"&&&&%O&&.X@&&.+&",
"&&&%O&&&&.X@&&.X",
"&+ $o&&&&&.++& .",
"&X$oX+@&&&&.X Oo",
"&&%o .X@@+&& O#$",
"&&%o&&&..X@XO# +",
"&&%o&&&&&&. O$X&"
};
