/* XPM */
static char *sculk_shrieker_side[] = {
/* columns rows colors chars-per-pixel */
"16 16 13 1 ",
"  c #0D1217",
". c #111B21",
"X c #062E37",
"o c #034150",
"O c #074857",
"+ c #40576C",
"@ c #6E757B",
"# c #009295",
"$ c #819988",
"% c #A2AF86",
"& c #BBC39B",
"* c #D1D6B6",
"= c None",
/* pixels */
"================",
"=*&*========*&*=",
"=$$@*======*@$$=",
"=&%$&======&$%&=",
"=&*$&======&$*&=",
"=&*%$&====&$%*&=",
"=%*&@&=oo=&@&*%=",
"=%&$+$o&&o$+$&%=",
"&$%+oo& .%oO+%$&",
"@+OOXX%..&XXOO+@",
"oOXX#X$&&$XoXXOo",
"XXXXXX.$@.XXXXXX",
"XX+X.X.@+.X.XXX#",
"oXX... ++ .X.oXX",
"XX.X.  oo  ...XX",
"Xo...  oX  .X.Xo"
};
