/* XPM */
static char *sea_lantern[] = {
/* columns rows colors chars-per-pixel */
"16 80 51 1 ",
"  c #497D6F",
". c #4A7E72",
"X c #4C8275",
"o c #4F8578",
"O c #508476",
"+ c #52867A",
"@ c #54897C",
"# c #598B7F",
"$ c #578B80",
"% c #5B8C81",
"& c #74AC9E",
"* c #75ADA1",
"= c #78AFA1",
"- c #84B4A6",
"; c #84B4A9",
": c #87B9AC",
"> c #8DBCAF",
", c #90BBAF",
"< c #8FBCB1",
"1 c #91BEB3",
"2 c #92C0B5",
"3 c #ACCCC4",
"4 c #ADCFC9",
"5 c #B1CEC3",
"6 c #B0CEC8",
"7 c #AFD0C7",
"8 c #AED1C8",
"9 c #B4D1C7",
"0 c #B3D5CB",
"q c #B9D8CE",
"w c #BFD6D0",
"e c #BFD8D3",
"r c #C0D5CF",
"t c #C0D7D1",
"y c #C4DCD5",
"u c #C9DFD6",
"i c #C7DFD9",
"p c #C8DFD9",
"a c #CCE1D7",
"s c #C7E0D9",
"d c #CCE1DA",
"f c #D5E3D6",
"g c #DBE6D7",
"h c #D5E4DD",
"j c #DCE6DB",
"k c #DEE9DC",
"l c #E0E9DE",
"z c #D7E6E0",
"x c #DCE7E1",
"c c #DEE9E2",
"v c #E2EAE3",
/* pixels */
"@OO#X++o@++#+o##",
"@o&,203sy8802&+o",
"O&2shdzxhzdda>&O",
"X>sdhcvvvvvzaa2X",
"#3dzccvlklkcjh0X",
"#7hcklvvvvkkch8X",
"o3jckvvvvvvvcz4.",
"@shckvvvvvvxcze$",
"$dxcvvvcvvvlvhq@",
"+qhckvvvvvvkvz8@",
"%3dckkvvvvllvh0X",
"@4sxxkjxvlllzd3X",
"o1wizcccccccds<X",
"X*<yizzzzzdhe2*.",
"X+&1=:8isq80<*++",
"@...XXX..oX+@X@o",
"@+X%X@+o$++@X+%#",
"@o*<:03iy3491&OO",
"O*>uhhhhhhhdd1&O",
"O>udhjjjkkjjdd1 ",
"@3dhgkkvvkcjhd0X",
"%8hjklvvvvkljh4o",
"o6jkvvvvvvvljh4.",
"@ihjlvvllvvkjhy@",
"$pzkvvvlkvvvjje@",
"@qzjlvvvvvvljz3@",
"%3dkkkvvvvllhd8X",
"@3phjkkkvllgcz8X",
"+<rphjjjjjjzhy<.",
"o*1ydhzhhhhhe<*.",
".@*1;-8udq701*@@",
"@...XXX..X +@X@X",
"@oo#o@@O$@+@OO##",
"@+*<:93py9392&OO",
"O*<ihhfhffjph1&X",
"O1pdfjkjcckgua1 ",
"@3ujlvvvvvvcfd0X",
"%4fkvvvvvvvvcj3X",
"O3gcvvvjlvvkcf4.",
"@pgclvlvvjvvkhy@",
"%djjvvgvvlvvkjw@",
"@qjxvvvgjvvlcf4+",
"%3uvvvvvvvvccf0.",
"$3ujlvvvvkvvjz6.",
"o<tifcckjcckhy>.",
"o*<ydjhfjhfhy1&.",
"o@&1-;6pi099>*@@",
"@...o.X.Xo.@@.@O",
"@+X%X@@O@@@@O+##",
"@O*>:05yy9991&OO",
"X*<ifhhhjhzuh1&O",
"+<uhhcvcccchfu1 ",
"@5ajccvkvvvvha0X",
"#9hcvvlkgvkkch5O",
"o9hkvvkcvjvlvh6X",
"@dhcvglvvvjvchu@",
"%pjclkcvvvglcht@",
"+qhvlvgvcgvvvh5+",
"%5dvvvcjgvlvchq.",
"@3ahlvvvvlkccf3X",
"+1tuhcvccvczhe<.",
".*1ydjhjhhhhy<*.",
".+&1;,0uuq901*$@",
"@...X.X .X @$.$.",
"@+o#O@@o%@o@+O%#",
"++&<:93it6301&+O",
"O&1yhhhhzhjud1&O",
"O1phhzczzccjhi1 ",
"$3phcvkjjllchd0X",
"%4jjkklvvjjvzh3o",
"o3hcjlvvvvjlvz4X",
"$ijvjvvvvvvjchi@",
"$ihckvvvvvclcht@",
"+wfcjgvvvcgvch3+",
"%3dzckgvvjllchq.",
"@4djjvkkjklkzz4.",
"o1tyzcccvczzzy<.",
".*1tphhhjfhzt1*.",
"+@*1;;9iyq401*++",
"@...X....o +@.++"
};
