/* XPM */
static char *smithing_table_front[] = {
/* columns rows colors chars-per-pixel */
"16 16 15 1 ",
"  c #111213",
". c #1A1B1E",
"X c #2F1411",
"o c #26272D",
"O c #2F3037",
"+ c #36373F",
"@ c #421C17",
"# c #4A1F1A",
"$ c #52221D",
"% c #5F2721",
"& c #7B4B35",
"* c #383A47",
"= c #404253",
"- c #494B5F",
"; c #975E42",
/* pixels */
"**+oO+OOOO*=OOO*",
"OOoo.Oo.OOOOoOOo",
"ooo.OooOoooooooo",
"    ..      ..  ",
". @@@######@@@ .",
"o ###=#@@@####.o",
"o.%-$-%%=-%-=%.o",
"O X-X-XX-XXX-X.o",
"O.@=@&@@=###=@.O",
"o.#&@;###-@-##.*",
"o.%;%&%%%=%=%%.*",
"O.X;X-XXXX-XXX.*",
"O.######@@=@@#.o",
"*.#@@#####@@@#.O",
"*.%%%%%%%$$%%%.*",
"..XXXXXXXXXXXX.."
};
