/* XPM */
static char *smoker_front_on[] = {
/* columns rows colors chars-per-pixel */
"16 48 29 1 ",
"  c #231B15",
". c #3A2F1E",
"X c #3C3B3B",
"o c #513D24",
"O c #614925",
"+ c #67502C",
"@ c #7E6237",
"# c #494848",
"$ c #504E4E",
"% c #595858",
"& c #5D5B5B",
"* c #686868",
"= c #747474",
"- c #777777",
"; c gray50",
": c #885D18",
"> c #C35D1B",
", c #98694E",
"< c #967441",
"1 c #836D60",
"2 c #ED8C0E",
"3 c #CC8728",
"4 c #FFD800",
"5 c gray52",
"6 c #888788",
"7 c gray57",
"8 c #B3A38B",
"9 c #ABACAB",
"0 c #C5C5C5",
/* pixels */
"<+XXXXXXXXXXXX<<",
"@o.++@@+o@@o+.o+",
"<+.o++o.oo++o.+o",
"<<%**********%@+",
"+@**00000000**<<",
"o+=0;999999;==+@",
"@+=#18888881==o+",
"@<6=O::::::O=6+o",
"oo6,>,======66oo",
"+o        4   <@",
"@< .@+.2+.@2. @+",
"+@o.2o.42.+42 o+",
"<+.24.243@>23>@@",
"<@>32 >2>+>3>>+@",
"+@$55=&=*575&$+o",
"o.$$$$$$$$$$$$o.",
"<+XXXXXXXXXXXX<<",
"@o.++@@+o@@o+.o+",
"<+.o++o.oo++o.+o",
"<<%**********%@+",
"+@**00000000**<<",
"o+=0;999999;==+@",
"@+=#18888881==o+",
"@<6=O::::::O=6+o",
"oo66=====,2,66oo",
"+o     2      <@",
"@< .@+.2+.@+. @+",
"+@o42o242.24. o+",
"<+.23.243@323o@@",
"<@>33>32>>33>>+@",
"+@$55-&-*575&$+o",
"o.$$$$$$$$$$$$o.",
"<+XXXXXXXXXXXX<<",
"@o.++@@+o@@o+.o+",
"<+.o++o.oo++o.+o",
"<<%**********%@+",
"+@**00000000**<<",
"o+=0;999999;==+@",
"@+=#18888881==o+",
"@<6=O::::::O=6+o",
"oo66==,2,===66oo",
"+o            <@",
"@< .2+.@4.@+. @+",
"+@o24o.24.+2. o+",
"<+>232@32>o42o@@",
"<@>3>2>>3>o23>+@",
"+@$55-&-*575&$+o",
"o.$$$$$$$$$$$$o."
};
