/* XPM */
static char *structure_block[] = {
/* columns rows colors chars-per-pixel */
"16 16 10 1 ",
"  c #101010",
". c #261D2A",
"X c gray20",
"o c #353635",
"O c #786478",
"+ c #967896",
"@ c #B493B4",
"# c #C2A0C2",
"$ c #D7B3D7",
"% c #D7C2D7",
/* pixels */
"Xo............oo",
"o     +@@+     o",
". . ++.  .++ . .",
".  +##.++.##+  .",
". +#%$+%%+$%#+ .",
". +#$%%..%%$#+O.",
".+..+$    %+..+.",
".@ +#.    .#+ @.",
".@ +#.    .#+ @.",
".+..+%    $+..+.",
". +#$%%..%%$#+O.",
". +#%$+%%+$%#+ .",
".  +##.++.##+  .",
". . ++.  .++ . .",
"o     +@@+     o",
"Xo............oX"
};
