/* XPM */
static char *tall_seagrass_bottom[] = {
/* columns rows colors chars-per-pixel */
"16 304 6 1 ",
"  c #215800",
". c #297100",
"X c #2F8200",
"o c #389306",
"O c #509529",
"+ c None",
/* pixels */
"++oX+XoX+.X+++++",
"++oX+X+X+oX+++++",
"++OX+X+X+OX+++++",
"++OX+X+X+OX+++O+",
"++O.+.+X+O.+++o+",
"++O + +XoO +++X+",
"++ .+.+XO ..+o++",
"++ o+o+XO+oo+X++",
"++ X+X+.O+ X+X++",
"++.X+XX O+.X+X++",
"++ X+.X. + X+.++",
"++ X+.Xo + XX.++",
"+ X +. X +X  .++",
"+ . +. X. .  X++",
"+ X +X X  X  X++",
"+   XXXX    X ++",
"++oX+XoX+.X+++++",
"++oX+X+X+oX+++++",
"++OX+X+X+OX+++++",
"++OX+X+X+OX+++O+",
"++O.+.+X+O.+++o+",
"++O + +XoO +++X+",
"++ .+.+XO ..+o++",
"++ o+o+XO+oo+X++",
"++ X+X+.O+ X+X++",
"++.X+XX O+.X+X++",
"++ X+.X. + X+.++",
"++ X+.Xo + X+.++",
"+ X +. X +X +.++",
"+ . +. X.+.  X++",
"+ X +X X  X  X++",
"+   +XXX    + ++",
"++oX+X+X+.X+++++",
"++oX+X+X+oX+++++",
"++OX+X+X+OX+++++",
"++OX+X+X+OX+++O+",
"++O.+.+XoO.+++o+",
"++O + +Xo+ +++X+",
"++ .+.+XO+..+o++",
"++ o+.+XO+ o+X++",
"++ X+XX.O+ X+X++",
"++.X+XX O+.X+X++",
"++ X+.X. + X+.++",
"++ X+.Xo + X+.++",
"+ X ++ X +X +.++",
"+ . ++ X. . +X++",
"+ X +. X  X +X++",
"+   +XXX    + ++",
"+++XXX+o+oX+++++",
"+++XXX+o+oX+++++",
"+++XX.+XX+X+++++",
"+++X+.+X.+X+++O+",
"+++.+.+Xo+.+++o+",
"++O + +Xo+O ++X+",
"++ .++.XO+ .+o++",
"++ o++oXO+ o+X++",
"++ X++X.O+ X+X++",
"++.X++X O+.X+X++",
"++ X++X. + X+.++",
"++ X++Xo + X+.++",
"+ X ++ X +X +.++",
"+ . ++ X. . +X++",
"+ X  + X  X +X++",
"+    XXX    + ++",
"+++oX+XoX+oX++++",
"+++oX+XoX+oX++++",
"+++OX+XXX+OX++++",
"+++OX+XX.+OX++O+",
"+++O.+.Xo+O.++o+",
"+++O + Xo+O +o++",
"+++..+.XO+ .+o++",
"+++oo+oXO+ o+X++",
"+++XX+X.O+ X+X++",
"+++X.+X O+.X+X++",
"+++X.+X. + X+.++",
"+++XX+Xo + X+.++",
"+ + X+ X +X +.++",
"+ . ++ X. . +X +",
"+ X  + X  X +  +",
"+    XXX    + X+",
"+++oX+XoX+oX++++",
"+++oX+XoX+oX++++",
"+++OX+XXX+OX++++",
"+++OX+XX.+OX++O+",
"+++O.+.Xo+O.++o+",
"+++O + Xo+O +o++",
"+++ .+.XO+ .+o++",
"+++ o+oXO+ o+X++",
"+++ X+X.O+ X+X++",
"+++.X+X O+.X+X++",
"+++XX+X. + X+.++",
"+++XX+Xo + X+.++",
"+.+ .+ X +X +.++",
"+ .. + X. . +X +",
"+ .  + X  X +  +",
"+    +XX    + X+",
"++++o+XoX+oX++++",
"+++oX+XoX+oX++++",
"+++OX+XXX+OX++++",
"+++OX+XX.+OX++O+",
"+++O.+.Xo+O.+O++",
"+++O + Xo+O +o++",
"+++ .+.XO+ .+o++",
"+++ o+oXO+ o+X++",
"+++ X+X.O+ X+X++",
"+++.X+X O+.X+X++",
"+++ X+X. + X+.++",
"+++ X+Xo + X+.++",
"+.+  + X +X +.++",
"+ ...+ X. . +  +",
"+ .   +X  X +  +",
"+     +X    + X+",
"++++oXXoX++oX+++",
"++++oXXoX++oX+++",
"+++OX+XXX++OX+++",
"+++OX+XX.++OXO++",
"+++O.+.Xo++O.O++",
"+++O + Xo++O o++",
"+++ .+.XO++ .o++",
"+++ o+oXO++ +X++",
"+++ X+X.O++X+X++",
"+++.X+X O++X+X++",
"+++ X+X. ++X..++",
"+++ X+Xo ++XX.++",
"+.+X.+ X ++   ++",
"+ ...++X. +    +",
"+ .   +X  X .  +",
"+     +X    . X+",
"++++oXXoX++oX+++",
"++++oXXoX++oX+++",
"++++X+XXX++OX+++",
"+++OX+XX.++OXO++",
"+++O.+.Xo++O.O++",
"+++O + Xo++O X++",
"+++ .+.XO++ .o++",
"+++ o+oXO++ oX++",
"+++ X+X.O++ XX++",
"+++.X+X O++.XX++",
"+++ X+X. ++ XX++",
"+++ X+Xo ++  X++",
"+.+X + X ++   ++",
"+ .. ++X. + .  +",
"+ .  ++X  + . X+",
"+     +X    X X+",
"++++oXXoX++oX+++",
"++++oXXoX++oX+++",
"++++O+XXX++OX+++",
"+++OX+XX.++OXO++",
"+++O.+.Xo++O.o++",
"+++O + Xo++O X++",
"+++ .+.XO++ .o++",
"+++ o+oXO++ oo++",
"+++ X+X.O++ XX++",
"+++.X+X O++.XX++",
"+++ X+X. ++ XX++",
"+++ X+Xo ++ XX++",
"+.+X + X ++X  ++",
"+ .. ++X. + X  +",
"+ .  ++X  + X X+",
"+    ++X    X X+",
"++++oXXoX+++XX++",
"++++oXXoX+++X+++",
"++++O+XXX++OX+++",
"+++OX+XX.++OXO++",
"+++O.+.Xo++O.o++",
"+++O + Xo++O X++",
"+++ .+.XO++ .o++",
"+++ o+oXO++ oX++",
"+++ X+X.O++ XX++",
"+++.X+X O++.XX++",
"+++ X+X. ++ XX++",
"+++ X+Xo ++ XX++",
"+.+X + X ++X  ++",
"+  ..+ X. + X  +",
"+ .  ++X  + . X+",
"+    + X    . X+",
"++++oXXoX+++XX++",
"++++oXXoX++oX+++",
"++++X+XXX++OX+++",
"+++OX+XX.++OXO++",
"+++O.+.Xo++O.o++",
"+++O + Xo++O X++",
"+++ .+.XO++ .o++",
"+++ o+oXO++ oX++",
"+++ X+X.O++ XX++",
"+++.X+X O++.XX++",
"+++ X+X. ++ X.++",
"+++ X+Xo ++ X.++",
"+.+X + X ++X. ++",
"+ .. + X. + .  +",
"+ .  + X  + .  +",
"+    + X    X X+",
"++++oXXoX++oX+++",
"+++oX+XoX++oX+++",
"+++OX+XXX++OX+++",
"+++OX+XX.++OXO++",
"+++O.+.Xo++O.o++",
"+++O + Xo++O X++",
"+++ .+.XO++ .o++",
"+++ o+oXO++ oX++",
"+++ X+X.O++ XX++",
"+++.X+X O++.XX++",
"+++ X+X. ++ X.++",
"+++ X+Xo ++ ..++",
"+ + .+ X ++ ..++",
"+ .. + X. + .  +",
"+ .  + X  + .  +",
"+    + X    X X+",
"+++oX++oX++oX+++",
"++oX+++oX++oX+++",
"++OX++XXX++OX+++",
"++OX++XX.++OXO++",
"++O.++.Xo++O.o++",
"++O ++ Xo++O X++",
"++ .++.XO++ .o++",
"++ o++oXO++ oX++",
"++ X++X.O++XXX++",
"++.X++X O++XXX++",
"++XX +X. ++XX.++",
"++XX.+Xo ++X..++",
"+  ..+ X ++ ..++",
"+ .. + X. + X  +",
"+ .  + X  X    +",
"+    +.X    . X+",
"+++oXX+oX+oX++++",
"++ooXX+oX+oX++++",
"++OXXXXXX+OX++++",
"++OX+XXX.+OX+O++",
"++O.++.Xo+O.+o++",
"++O ++ Xo+O +X++",
"++..++.XO+ .+o++",
"++oo++oXO+ o+X++",
"++Xo++X.O+ X+X++",
"++Xo++X O+.X+X++",
"++Xo +X. + X+.++",
"++XX +Xo + X+.++",
"+  X + X +X X.++",
"+ .  + X. . XX +",
"+ X  . X  X    +",
"+   +..X      X+",
"++oX+X+oX+oX++++",
"++XX+X+oX+oX++++",
"++XX+X+XX+OX++++",
"++XX+X+X.+OX+O++",
"++O.+.+Xo+O.+o++",
"++O + +Xo+O +X++",
"++ .+X+XO+ .+o++",
"++ o+.+XO+ o+X++",
"++ X+.X.O+ X+X++",
"++.X+.X O+.X+X++",
"++ X .X. + X+.++",
"++ X .Xo + X+.++",
"+ X  X X +X +.++",
"+ .  X X. . XX +",
"+ X  . X  X X  +",
"+   ...X      X+",
"++oX+X+o+.X+++++",
"++oX+X+oXoX+++++",
"++OX+X+XXOX+++++",
"++OX+X+X.+X+++O+",
"++O.+.+Xo+.+++o+",
"++O + +Xo+O+++X+",
"++ .+.+XO+ .+o++",
"++ o+o+XO+ o+X++",
"++ X+.X.O+ X+X++",
"++.X+.X O+.X+X++",
"++ X .X. + X+.++",
"++ X .Xo + XX.++",
"+ X  . X +X  .++",
"+ .  . X. .  X +",
"+ X  . X  X .X +",
"+   ...X    .  +",
"++oX+X+X+.X+++++",
"++oX+X+o+oX+++++",
"++OX+X+X+OX+++++",
"++OX+X+X+OX+++O+",
"++O.+.+XoO.+++o+",
"++O + +XoO +++X+",
"++ .+.+XO+..+o++",
"++ o+o+XO+oo+X++",
"++ X+X+.O+ X+X++",
"++.X+.X O+.X+X++",
"++ X .X. + X+.++",
"++ X .Xo + XX.++",
"+ X  . X +X  .++",
"+ .  X X. .  X +",
"+ X  X X  X  X +",
"+   XXXX    X  +",
"++oX+XoX+.X+++++",
"++oX+X+X+oX+++++",
"++OX+X+X+OX+++++",
"++OX+X+X+OX+++O+",
"++O.+.+X+O.+++o+",
"++O + +XoO +++X+",
"++ .+.+XO ..+o++",
"++ o+o+XO+oo+X++",
"++ X+X+.O+ X+X++",
"++.X+XX O+.X+X++",
"++ X .X. + X+.++",
"++ X .Xo + XX.++",
"+ X  . X +X  .++",
"+ .  . X. .  X +",
"+ X  X X  X  X +",
"+   XXXX    X  +"
};
