/* XPM */
static char *tnt_side[] = {
/* columns rows colors chars-per-pixel */
"16 16 10 1 ",
"  c #1B1A3C",
". c #373656",
"X c #912D11",
"o c #B11527",
"O c #DB2F1A",
"+ c #EA4318",
"@ c #BEB2B3",
"# c #CECECE",
"$ c #DDD9D9",
"% c white",
/* pixels */
"++Oo++Oo++Oo++Oo",
"OOoXOOoXOOoXOOoX",
"OOoXOOoXOOoXOOoX",
"OOoXOOoXOOoXOOoX",
"OOoXOOoXOOoXOOoX",
"%#$$##$$$##$$$$%",
"%$.. $.## $.. #%",
"$@# ##..#.#$.$$$",
"%#$.$$.$..## #@$",
"%$# #$.## ## $#%",
"@@@@@@@@@@@@@@@@",
"ooXXooXXooXXooXX",
"OOoXOOoXOOoXOOoX",
"OOoXOOoXOOoXOOoX",
"OOoXOOoXOOoXOOoX",
"oooXoooXoooXoooX"
};
