/* XPM */
static char *turtle_egg_slightly_cracked[] = {
/* columns rows colors chars-per-pixel */
"16 16 27 1 ",
"  c #347967",
". c #887D54",
"X c #3A8772",
"o c #48A78E",
"O c #C1B484",
"+ c #F2E2A9",
"@ c #F2E2AB",
"# c #F2E3B0",
"$ c #F2E4B4",
"% c #F2E4B5",
"& c #F3E5B5",
"* c #F2E6BC",
"= c #F4E8BE",
"- c #F4E9BF",
"; c #F2E7C1",
": c #F4EAC2",
"> c #F3E9C6",
", c #F2E9C7",
"< c #F4EAC4",
"1 c #F5ECC9",
"2 c #F4EBCC",
"3 c #F5EDCD",
"4 c #F5EDCE",
"5 c #F5EDD0",
"6 c #F6EFD5",
"7 c #F7F1D9",
"8 c None",
/* pixels */
";26;817188888888",
"67o687o.88888888",
"57O6811+88888888",
"; .;88887.788888",
"877O7888O7o88888",
"81o77888,,788888",
"87O17888+,O88888",
"877. 817.<888888",
"87O=O87+1O888888",
"8X$,,814&&888888",
"8+&+&8:4:+77o=88",
"oO+*7,7,88,7&+88",
",7.&,,O*88, O=88",
"+O+#+.+*88=O,&88",
",*#+,*.+88&.&+88",
"8888888888888888"
};
