/* XPM */
static char *warped_wart_block[] = {
/* columns rows colors chars-per-pixel */
"16 16 5 1 ",
"  c #196367",
". c #186F69",
"X c #167E86",
"o c #119B85",
"O c #14B485",
/* pixels */
"XXXX. .XXXX XXX.",
"XX..oOX X..  XX.",
"..XX.XXXX XX XoX",
" .XXX .  oX XXOX",
" OXXX  X.X...XX.",
" oXXOo  XXXX .X ",
". XXXX .XXXOX  X",
"X. X. X..XXo. XX",
"X    XX.XXXX  XX",
"X XXXX..oXX. X X",
" .XX .. O.X .XX.",
" XX . .X....X. O",
"XXo .XX XX .X XX",
"X.X .X XX. XXX X",
"XXX XX XXX XoO X",
"XX OX. oXX XXo X"
};
