/* XPM */
static char *wither_rose[] = {
/* columns rows colors chars-per-pixel */
"16 16 11 1 ",
"  c #171210",
". c #1A1310",
"X c #211A16",
"o c #2A1F19",
"O c #0F2108",
"+ c #13280B",
"@ c #252E12",
"# c #2C3517",
"$ c #42352E",
"% c #38451A",
"& c None",
/* pixels */
"&&&&&&&&&&&&&&&&",
"&&&&&&&&&&&&&&&&",
"&&&&&&&&&&&&&&&&",
"&&&&&&&&&&&&&&&&",
"&&&&&&&&&&&&&&&&",
"&&&&&&&$$o&&&&&&",
"&&&&&&$ $ o&&&&&",
"&&&&&&.XoX.&&&&&",
"&&&&&&&.X.&&&&&&",
"&&&&&&&&O&&&&&&&",
"&&&&&&&&@%#&&&&&",
"&&&&&&#%#@%%&&&&",
"&&&&&%%+#&&%&&&&",
"&&&&&%&&@&&&&&&&",
"&&&&&&&&+&&&&&&&",
"&&&&&&&#+#&&&&&&"
};
