/* XPM */
static char *yellow_glazed_terracotta[] = {
/* columns rows colors chars-per-pixel */
"16 16 14 1 ",
"  c #996D46",
". c #A4764C",
"X c #AD7C50",
"o c #EEAA0D",
"O c #F0AC0D",
"+ c #F2B015",
"@ c #F3B625",
"# c #FED83D",
"$ c #B18256",
"% c #FEDE5F",
"& c #FFEC9D",
"* c #FFEEAA",
"= c #FFF0B7",
"- c #FFF3C4",
/* pixels */
"#+&&==&+&##&oX..",
"+&&+o@&&+&&&oo .",
"&&+&&&+&&+++#+O ",
"&@&&#&&+&-==+#OO",
"=+&##%-+*o+&=+%#",
"&+&&%--@-+++&&+%",
"&&+&--@-*&@+@&@#",
"+&&+@@-*+&&@o=++",
"&+&=&&&+X+&&o-X.",
"#&+&+@&=+X+&--. ",
"#&+=@++&=+. . ..",
"&&+&&@+o&=  X@@+",
"oO#+&&@+o=.$++$.",
"$O+#+&&*--.ooXX+",
". ++#++@X. o$$o+",
".. +%##+...+.o+$"
};
