/* XPM */
static char *yellow_stained_glass[] = {
/* columns rows colors chars-per-pixel */
"16 16 2 1 ",
"  c #E5E533",
". c None",
/* pixels */
"                ",
" .............. ",
" ... .......... ",
" .. ........... ",
" . ............ ",
" .............. ",
" .............. ",
" .............. ",
" .............. ",
" .............. ",
" .............. ",
" .............. ",
" ............ . ",
" ........... .. ",
" .............. ",
"                "
};
