/* XPM */
static char *yellow_candle[] = {
/* columns rows colors chars-per-pixel */
"16 16 6 1 ",
"  c #212034",
". c #C59825",
"X c #DAAB34",
"o c #FFDA39",
"O c #FFCC4B",
"+ c None",
/* pixels */
"++++++++++++++++",
"++++++++++++++++",
"++++++++++++++++",
"++++++++++++++++",
"++++++++++++++++",
" +++++++++++++++",
"X.++++++++++++++",
".X++++++++++++++",
"Oo++++++++++++++",
"XO++++++++++++++",
"XO++++++++++++++",
"XO++++++++++++++",
".X++++++++++++++",
"..++++++++++++++",
"..++++++++++++++",
"..++++++++++++++"
};
